ISO-10303-21;
HEADER;
FILE_DESCRIPTION (( 'STEP AP214' ),
    '1' );
FILE_NAME ('CSPSL-ST3W-M2-8_214.STEP',
    '2014-03-10T09:04:34',
    ( 'guan-li' ),
    ( '' ),
    'SwSTEP 2.0',
    'SolidWorks 2007',
    '' );
FILE_SCHEMA (( 'AUTOMOTIVE_DESIGN' ));
ENDSEC;

DATA;
#1 = CARTESIAN_POINT ( 'NONE',  ( -0.5000000000000002200, 0.1250000000000001100, -0.1999999999999997600 ) ) ;
#2 = CARTESIAN_POINT ( 'NONE',  ( 0.1249999999999996300, -0.4999999999999995600, -0.1999999999999997600 ) ) ;
#3 = DIRECTION ( 'NONE',  ( 0.0000000000000000000, 0.0000000000000000000, 1.000000000000000000 ) ) ;
#4 = VECTOR ( 'NONE', #3, 1000.000000000000000 ) ;
#5 = CARTESIAN_POINT ( 'NONE',  ( 0.1249999999999997900, -0.1249999999999994000, -0.1999999999999997600 ) ) ;
#6 = CYLINDRICAL_SURFACE ( 'NONE', #43, 1.000000000000000000 ) ;
#7 = CARTESIAN_POINT ( 'NONE',  ( -0.5000000000000000000, -0.1249999999999994000, -0.1999999999999997600 ) ) ;
#8 = PLANE ( 'NONE',  #42 ) ;
#9 = LINE ( 'NONE', #39, #38 ) ;
#10 = FACE_OUTER_BOUND ( 'NONE', #395, .T. ) ;
#11 = DIRECTION ( 'NONE',  ( 0.0000000000000000000, 0.0000000000000000000, 1.000000000000000000 ) ) ;
#12 = VECTOR ( 'NONE', #11, 1000.000000000000000 ) ;
#13 = CARTESIAN_POINT ( 'NONE',  ( -0.1250000000000001700, -0.1249999999999996300, -0.1999999999999997600 ) ) ;
#14 = LINE ( 'NONE', #13, #12 ) ;
#15 = CARTESIAN_POINT ( 'NONE',  ( -0.1250000000000001700, -0.1249999999999996300, -0.1999999999999997600 ) ) ;
#16 = DIRECTION ( 'NONE',  ( 0.0000000000000000000, -1.000000000000000000, 0.0000000000000000000 ) ) ;
#17 = VECTOR ( 'NONE', #16, 1000.000000000000000 ) ;
#18 = CARTESIAN_POINT ( 'NONE',  ( -0.1250000000000001700, -0.1249999999999996300, -0.1999999999999997600 ) ) ;
#19 = LINE ( 'NONE', #18, #17 ) ;
#20 = AXIS2_PLACEMENT_3D ( 'NONE', #31, #30, #29 ) ;
#21 = DIRECTION ( 'NONE',  ( 0.0000000000000000000, 0.0000000000000000000, 1.000000000000000000 ) ) ;
#22 = CARTESIAN_POINT ( 'NONE',  ( 0.0000000000000000000, 0.0000000000000000000, 15.33464249748237100 ) ) ;
#23 = AXIS2_PLACEMENT_3D ( 'NONE', #22, #21, #68 ) ;
#24 = FACE_OUTER_BOUND ( 'NONE', #411, .T. ) ;
#25 = CYLINDRICAL_SURFACE ( 'NONE', #23, 2.000000000000000000 ) ;
#26 = DIRECTION ( 'NONE',  ( 1.000000000000000000, 0.0000000000000000000, 0.0000000000000000000 ) ) ;
#27 = PLANE ( 'NONE',  #59 ) ;
#28 = FACE_OUTER_BOUND ( 'NONE', #682, .T. ) ;
#29 = DIRECTION ( 'NONE',  ( -1.000000000000000000, 0.0000000000000000000, 0.0000000000000000000 ) ) ;
#30 = DIRECTION ( 'NONE',  ( 0.0000000000000000000, 0.0000000000000000000, -1.000000000000000000 ) ) ;
#31 = CARTESIAN_POINT ( 'NONE',  ( 0.0000000000000000000, 0.0000000000000000000, 0.2999999999999999300 ) ) ;
#32 = FACE_BOUND ( 'NONE', #365, .T. ) ;
#33 = AXIS2_PLACEMENT_3D ( 'NONE', #1, #72, #86 ) ;
#34 = PLANE ( 'NONE',  #33 ) ;
#35 = DIRECTION ( 'NONE',  ( 0.0000000000000000000, 0.0000000000000000000, 1.000000000000000000 ) ) ;
#36 = FACE_OUTER_BOUND ( 'NONE', #414, .T. ) ;
#37 = DIRECTION ( 'NONE',  ( 0.0000000000000000000, 0.0000000000000000000, 1.000000000000000000 ) ) ;
#38 = VECTOR ( 'NONE', #37, 1000.000000000000000 ) ;
#39 = CARTESIAN_POINT ( 'NONE',  ( -0.5000000000000000000, -0.1249999999999994000, -0.1999999999999997600 ) ) ;
#40 = DIRECTION ( 'NONE',  ( 1.000000000000000000, -5.782411586589360600E-016, 0.0000000000000000000 ) ) ;
#41 = DIRECTION ( 'NONE',  ( -5.782411586589360600E-016, -1.000000000000000000, 0.0000000000000000000 ) ) ;
#42 = AXIS2_PLACEMENT_3D ( 'NONE', #7, #41, #40 ) ;
#43 = AXIS2_PLACEMENT_3D ( 'NONE', #44, #55, #26 ) ;
#44 = CARTESIAN_POINT ( 'NONE',  ( 0.0000000000000000000, 0.0000000000000000000, 15.33464249748237100 ) ) ;
#45 = CIRCLE ( 'NONE', #20, 2.000000000000000000 ) ;
#46 = DIRECTION ( 'NONE',  ( 1.000000000000000000, -5.782411586589359600E-016, 0.0000000000000000000 ) ) ;
#47 = VECTOR ( 'NONE', #46, 1000.000000000000000 ) ;
#48 = CARTESIAN_POINT ( 'NONE',  ( -0.5000000000000000000, -0.1249999999999994000, -0.1999999999999997600 ) ) ;
#49 = LINE ( 'NONE', #48, #47 ) ;
#50 = CARTESIAN_POINT ( 'NONE',  ( -0.5000000000000000000, -0.1249999999999994000, -0.1999999999999997600 ) ) ;
#51 = DIRECTION ( 'NONE',  ( 4.336808689942015800E-016, 1.000000000000000000, 0.0000000000000000000 ) ) ;
#52 = VECTOR ( 'NONE', #51, 1000.000000000000000 ) ;
#53 = CARTESIAN_POINT ( 'NONE',  ( 0.1249999999999996300, -0.4999999999999995600, -0.1999999999999997600 ) ) ;
#54 = LINE ( 'NONE', #53, #52 ) ;
#55 = DIRECTION ( 'NONE',  ( 0.0000000000000000000, 0.0000000000000000000, 1.000000000000000000 ) ) ;
#56 = DIRECTION ( 'NONE',  ( -1.000000000000000000, 0.0000000000000000000, 0.0000000000000000000 ) ) ;
#57 = DIRECTION ( 'NONE',  ( 0.0000000000000000000, 0.0000000000000000000, -1.000000000000000000 ) ) ;
#58 = CARTESIAN_POINT ( 'NONE',  ( 0.0000000000000000000, -1.040915400749020900E-015, 0.5000000000000002200 ) ) ;
#59 = AXIS2_PLACEMENT_3D ( 'NONE', #58, #57, #56 ) ;
#60 = FACE_OUTER_BOUND ( 'NONE', #372, .T. ) ;
#61 = FACE_OUTER_BOUND ( 'NONE', #362, .T. ) ;
#62 = DIRECTION ( 'NONE',  ( 4.336808689942015800E-016, 1.000000000000000000, 0.0000000000000000000 ) ) ;
#63 = DIRECTION ( 'NONE',  ( 1.000000000000000000, -4.336808689942015800E-016, 0.0000000000000000000 ) ) ;
#64 = CARTESIAN_POINT ( 'NONE',  ( 0.1249999999999996300, -0.4999999999999995600, -0.1999999999999997600 ) ) ;
#65 = AXIS2_PLACEMENT_3D ( 'NONE', #64, #63, #62 ) ;
#66 = PLANE ( 'NONE',  #65 ) ;
#67 = LINE ( 'NONE', #5, #4 ) ;
#68 = DIRECTION ( 'NONE',  ( 1.000000000000000000, 0.0000000000000000000, 0.0000000000000000000 ) ) ;
#69 = AXIS2_PLACEMENT_3D ( 'NONE', #71, #85, #84 ) ;
#70 = FACE_OUTER_BOUND ( 'NONE', #415, .T. ) ;
#71 = CARTESIAN_POINT ( 'NONE',  ( -0.1250000000000001700, 0.1250000000000001100, -0.1999999999999997600 ) ) ;
#72 = DIRECTION ( 'NONE',  ( -1.000000000000000000, -8.673617379884053200E-016, 0.0000000000000000000 ) ) ;
#73 = PLANE ( 'NONE',  #69 ) ;
#74 = FACE_OUTER_BOUND ( 'NONE', #383, .T. ) ;
#75 = DIRECTION ( 'NONE',  ( 8.673617379884052200E-016, -1.000000000000000000, 0.0000000000000000000 ) ) ;
#76 = VECTOR ( 'NONE', #75, 1000.000000000000000 ) ;
#77 = DIRECTION ( 'NONE',  ( 1.000000000000000000, 0.0000000000000000000, 0.0000000000000000000 ) ) ;
#78 = DIRECTION ( 'NONE',  ( 0.0000000000000000000, 0.0000000000000000000, 1.000000000000000000 ) ) ;
#79 = AXIS2_PLACEMENT_3D ( 'NONE', #83, #78, #77 ) ;
#80 = CONICAL_SURFACE ( 'NONE', #79, 1.000000000000000000, 0.7853981633974461700 ) ;
#81 = CARTESIAN_POINT ( 'NONE',  ( -0.5000000000000002200, 0.1250000000000001100, -0.1999999999999997600 ) ) ;
#82 = LINE ( 'NONE', #81, #76 ) ;
#83 = CARTESIAN_POINT ( 'NONE',  ( 0.0000000000000000000, 0.0000000000000000000, -7.800000000000001600 ) ) ;
#84 = DIRECTION ( 'NONE',  ( 1.000000000000000000, 0.0000000000000000000, 0.0000000000000000000 ) ) ;
#85 = DIRECTION ( 'NONE',  ( 0.0000000000000000000, 0.0000000000000000000, 1.000000000000000000 ) ) ;
#86 = DIRECTION ( 'NONE',  ( 8.673617379884053200E-016, -1.000000000000000000, 0.0000000000000000000 ) ) ;
#87 = DIRECTION ( 'NONE',  ( 1.000000000000000000, 2.891205793294679300E-016, 0.0000000000000000000 ) ) ;
#88 = CARTESIAN_POINT ( 'NONE',  ( 0.1249999999999997900, 0.1250000000000001100, -0.1999999999999997600 ) ) ;
#89 = FACE_OUTER_BOUND ( 'NONE', #627, .T. ) ;
#90 = DIRECTION ( 'NONE',  ( -2.891205793294679300E-016, 1.000000000000000000, 0.0000000000000000000 ) ) ;
#91 = CARTESIAN_POINT ( 'NONE',  ( -0.1250000000000001700, -0.4999999999999995600, -0.1999999999999997600 ) ) ;
#92 = LINE ( 'NONE', #95, #102 ) ;
#93 = AXIS2_PLACEMENT_3D ( 'NONE', #88, #87, #90 ) ;
#94 = DIRECTION ( 'NONE',  ( 0.0000000000000000000, 0.0000000000000000000, 1.000000000000000000 ) ) ;
#95 = CARTESIAN_POINT ( 'NONE',  ( 0.1249999999999996800, 0.5000000000000000000, -0.1999999999999997600 ) ) ;
#96 = PLANE ( 'NONE',  #93 ) ;
#97 = FACE_OUTER_BOUND ( 'NONE', #431, .T. ) ;
#98 = DIRECTION ( 'NONE',  ( -1.000000000000000000, 0.0000000000000000000, 0.0000000000000000000 ) ) ;
#99 = CARTESIAN_POINT ( 'NONE',  ( -0.1250000000000001700, -0.1249999999999996300, -0.1999999999999997600 ) ) ;
#100 = AXIS2_PLACEMENT_3D ( 'NONE', #99, #98, #35 ) ;
#101 = PLANE ( 'NONE',  #100 ) ;
#102 = VECTOR ( 'NONE', #94, 1000.000000000000000 ) ;
#103 = LINE ( 'NONE', #107, #106 ) ;
#104 = DIRECTION ( 'NONE',  ( 0.0000000000000000000, 0.0000000000000000000, 1.000000000000000000 ) ) ;
#105 = DIRECTION ( 'NONE',  ( 0.0000000000000000000, 0.0000000000000000000, 1.000000000000000000 ) ) ;
#106 = VECTOR ( 'NONE', #105, 1000.000000000000000 ) ;
#107 = CARTESIAN_POINT ( 'NONE',  ( 0.1249999999999996300, -0.4999999999999995600, -0.1999999999999997600 ) ) ;
#108 = DIRECTION ( 'NONE',  ( -1.000000000000000000, 0.0000000000000000000, 0.0000000000000000000 ) ) ;
#109 = VECTOR ( 'NONE', #108, 1000.000000000000000 ) ;
#110 = CARTESIAN_POINT ( 'NONE',  ( 0.4999999999999995600, 0.1250000000000001100, -0.1999999999999997600 ) ) ;
#111 = DIRECTION ( 'NONE',  ( 1.000000000000000000, 0.0000000000000000000, 0.0000000000000000000 ) ) ;
#112 = VECTOR ( 'NONE', #111, 1000.000000000000000 ) ;
#113 = CARTESIAN_POINT ( 'NONE',  ( -0.1250000000000001700, -0.4999999999999995600, -0.1999999999999997600 ) ) ;
#114 = LINE ( 'NONE', #113, #112 ) ;
#115 = VECTOR ( 'NONE', #133, 1000.000000000000000 ) ;
#116 = CARTESIAN_POINT ( 'NONE',  ( 0.4999999999999995600, 0.1250000000000001100, -0.1999999999999997600 ) ) ;
#117 = LINE ( 'NONE', #127, #126 ) ;
#118 = CARTESIAN_POINT ( 'NONE',  ( 0.4999999999999997800, -0.1249999999999996300, -0.1999999999999997600 ) ) ;
#119 = AXIS2_PLACEMENT_3D ( 'NONE', #118, #135, #134 ) ;
#120 = LINE ( 'NONE', #116, #115 ) ;
#121 = PLANE ( 'NONE',  #119 ) ;
#122 = FACE_OUTER_BOUND ( 'NONE', #620, .T. ) ;
#123 = CARTESIAN_POINT ( 'NONE',  ( 0.1249999999999997900, 0.1250000000000001100, -0.1999999999999997600 ) ) ;
#124 = FACE_OUTER_BOUND ( 'NONE', #628, .T. ) ;
#125 = DIRECTION ( 'NONE',  ( 0.0000000000000000000, 0.0000000000000000000, 1.000000000000000000 ) ) ;
#126 = VECTOR ( 'NONE', #125, 1000.000000000000000 ) ;
#127 = CARTESIAN_POINT ( 'NONE',  ( 0.1249999999999997900, 0.1250000000000001100, -0.1999999999999997600 ) ) ;
#128 = DIRECTION ( 'NONE',  ( 0.0000000000000000000, 1.000000000000000000, 0.0000000000000000000 ) ) ;
#129 = CARTESIAN_POINT ( 'NONE',  ( 0.4999999999999995600, 0.1250000000000001100, -0.1999999999999997600 ) ) ;
#130 = AXIS2_PLACEMENT_3D ( 'NONE', #129, #128, #104 ) ;
#131 = PLANE ( 'NONE',  #130 ) ;
#132 = LINE ( 'NONE', #110, #109 ) ;
#133 = DIRECTION ( 'NONE',  ( 0.0000000000000000000, 0.0000000000000000000, 1.000000000000000000 ) ) ;
#134 = DIRECTION ( 'NONE',  ( -8.673617379884045300E-016, 1.000000000000000000, 0.0000000000000000000 ) ) ;
#135 = DIRECTION ( 'NONE',  ( 1.000000000000000000, 8.673617379884045300E-016, 0.0000000000000000000 ) ) ;
#136 = DIRECTION ( 'NONE',  ( 0.0000000000000000000, 0.0000000000000000000, 1.000000000000000000 ) ) ;
#137 = VECTOR ( 'NONE', #136, 1000.000000000000000 ) ;
#138 = CARTESIAN_POINT ( 'NONE',  ( -0.1250000000000001700, -0.4999999999999995600, -0.1999999999999997600 ) ) ;
#139 = LINE ( 'NONE', #138, #137 ) ;
#140 = DIRECTION ( 'NONE',  ( -2.891205793294679300E-016, 1.000000000000000000, 0.0000000000000000000 ) ) ;
#141 = VECTOR ( 'NONE', #140, 1000.000000000000000 ) ;
#142 = CARTESIAN_POINT ( 'NONE',  ( 0.1249999999999997900, 0.1250000000000001100, -0.1999999999999997600 ) ) ;
#143 = LINE ( 'NONE', #142, #141 ) ;
#144 = CARTESIAN_POINT ( 'NONE',  ( -0.1250000000000001700, -0.4999999999999995600, -0.1999999999999997600 ) ) ;
#145 = CARTESIAN_POINT ( 'NONE',  ( 0.4999999999999995600, 0.1250000000000001100, -0.1999999999999997600 ) ) ;
#146 = DIRECTION ( 'NONE',  ( 0.0000000000000000000, 0.0000000000000000000, -1.000000000000000000 ) ) ;
#147 = DIRECTION ( 'NONE',  ( 0.0000000000000000000, -1.000000000000000000, 0.0000000000000000000 ) ) ;
#148 =( NAMED_UNIT ( * ) PLANE_ANGLE_UNIT ( ) SI_UNIT ( $, .RADIAN. ) );
#149 = AXIS2_PLACEMENT_3D ( 'NONE', #91, #147, #146 ) ;
#150 = PLANE ( 'NONE',  #149 ) ;
#151 =( NAMED_UNIT ( * ) SI_UNIT ( $, .STERADIAN. ) SOLID_ANGLE_UNIT ( ) );
#152 = CARTESIAN_POINT ( 'NONE',  ( 0.1249999999999996800, 0.5000000000000000000, -0.1999999999999997600 ) ) ;
#153 = FACE_OUTER_BOUND ( 'NONE', #690, .T. ) ;
#154 = DIRECTION ( 'NONE',  ( -1.000000000000000000, 0.0000000000000000000, 0.0000000000000000000 ) ) ;
#155 = VECTOR ( 'NONE', #154, 1000.000000000000000 ) ;
#156 = CARTESIAN_POINT ( 'NONE',  ( 0.1249999999999996800, 0.5000000000000000000, -0.1999999999999997600 ) ) ;
#157 = LINE ( 'NONE', #156, #155 ) ;
#158 =( GEOMETRIC_REPRESENTATION_CONTEXT ( 3 ) GLOBAL_UNCERTAINTY_ASSIGNED_CONTEXT ( ( #159 ) ) GLOBAL_UNIT_ASSIGNED_CONTEXT ( ( #161, #148, #151 ) ) REPRESENTATION_CONTEXT ( 'NONE', 'WORKASPACE' ) );
#159 = UNCERTAINTY_MEASURE_WITH_UNIT (LENGTH_MEASURE( 1.000000000000000100E-005 ), #161, 'distance_accuracy_value', 'NONE');
#160 = ADVANCED_BREP_SHAPE_REPRESENTATION ( 'CSPSL-ST3W-M2-8_214', ( #286, #262 ), #158 ) ;
#161 =( LENGTH_UNIT ( ) NAMED_UNIT ( * ) SI_UNIT ( .MILLI., .METRE. ) );
#162 = CARTESIAN_POINT ( 'NONE',  ( -0.5000000000000000000, -0.1249999999999994000, 0.5000000000000002200 ) ) ;
#163 = LINE ( 'NONE', #162, #208 ) ;
#164 = CARTESIAN_POINT ( 'NONE',  ( -0.1250000000000001700, -0.1249999999999996300, 0.5000000000000002200 ) ) ;
#165 = DIRECTION ( 'NONE',  ( 0.0000000000000000000, -1.000000000000000000, 0.0000000000000000000 ) ) ;
#166 = VECTOR ( 'NONE', #165, 1000.000000000000000 ) ;
#167 = CARTESIAN_POINT ( 'NONE',  ( -0.1250000000000001700, -0.1249999999999996300, 0.5000000000000002200 ) ) ;
#168 = LINE ( 'NONE', #167, #166 ) ;
#169 = CARTESIAN_POINT ( 'NONE',  ( -0.1250000000000001700, -0.4999999999999995600, 0.5000000000000002200 ) ) ;
#170 = CARTESIAN_POINT ( 'NONE',  ( -0.1250000000000003300, 0.1250000000000001100, -0.1999999999999997600 ) ) ;
#171 = DIRECTION ( 'NONE',  ( -1.000000000000000000, 0.0000000000000000000, 0.0000000000000000000 ) ) ;
#172 = VECTOR ( 'NONE', #171, 1000.000000000000000 ) ;
#173 = CARTESIAN_POINT ( 'NONE',  ( -0.1250000000000003300, 0.1250000000000001100, -0.1999999999999997600 ) ) ;
#174 = LINE ( 'NONE', #173, #172 ) ;
#175 = DIRECTION ( 'NONE',  ( 0.0000000000000000000, 0.0000000000000000000, 1.000000000000000000 ) ) ;
#176 = DIRECTION ( 'NONE',  ( 0.0000000000000000000, 1.000000000000000000, 0.0000000000000000000 ) ) ;
#177 = CARTESIAN_POINT ( 'NONE',  ( -0.1250000000000003300, 0.1250000000000001100, -0.1999999999999997600 ) ) ;
#178 = AXIS2_PLACEMENT_3D ( 'NONE', #177, #176, #175 ) ;
#179 = PLANE ( 'NONE',  #178 ) ;
#180 = FACE_OUTER_BOUND ( 'NONE', #666, .T. ) ;
#181 = CARTESIAN_POINT ( 'NONE',  ( -0.5000000000000002200, 0.1250000000000001100, -0.1999999999999997600 ) ) ;
#182 = DIRECTION ( 'NONE',  ( 0.0000000000000000000, 0.0000000000000000000, 1.000000000000000000 ) ) ;
#183 = VECTOR ( 'NONE', #182, 1000.000000000000000 ) ;
#184 = CARTESIAN_POINT ( 'NONE',  ( -0.5000000000000002200, 0.1250000000000001100, -0.1999999999999997600 ) ) ;
#185 = LINE ( 'NONE', #184, #183 ) ;
#186 = DIRECTION ( 'NONE',  ( -1.000000000000000000, 0.0000000000000000000, 0.0000000000000000000 ) ) ;
#187 = DIRECTION ( 'NONE',  ( 0.0000000000000000000, 0.0000000000000000000, 1.000000000000000000 ) ) ;
#188 = CARTESIAN_POINT ( 'NONE',  ( 0.0000000000000000000, 0.0000000000000000000, 0.5000000000000002200 ) ) ;
#189 = AXIS2_PLACEMENT_3D ( 'NONE', #188, #187, #186 ) ;
#190 = CIRCLE ( 'NONE', #189, 1.653589838486225800 ) ;
#191 = CARTESIAN_POINT ( 'NONE',  ( -0.1250000000000003300, 0.5000000000000000000, -0.1999999999999997600 ) ) ;
#192 = DIRECTION ( 'NONE',  ( 0.0000000000000000000, -1.000000000000000000, 0.0000000000000000000 ) ) ;
#193 = VECTOR ( 'NONE', #192, 1000.000000000000000 ) ;
#194 = DIRECTION ( 'NONE',  ( 0.0000000000000000000, 0.0000000000000000000, 1.000000000000000000 ) ) ;
#195 = CARTESIAN_POINT ( 'NONE',  ( -0.1250000000000003300, 0.5000000000000000000, -0.1999999999999997600 ) ) ;
#196 = DIRECTION ( 'NONE',  ( -1.000000000000000000, 0.0000000000000000000, 0.0000000000000000000 ) ) ;
#197 = DIRECTION ( 'NONE',  ( 0.0000000000000000000, 0.0000000000000000000, -1.000000000000000000 ) ) ;
#198 = CARTESIAN_POINT ( 'NONE',  ( 0.0000000000000000000, 0.0000000000000000000, 0.5000000000000004400 ) ) ;
#199 = AXIS2_PLACEMENT_3D ( 'NONE', #198, #197, #196 ) ;
#200 = CONICAL_SURFACE ( 'NONE', #199, 1.653589838486225300, 1.047197551196595600 ) ;
#201 = LINE ( 'NONE', #195, #252 ) ;
#202 = FACE_OUTER_BOUND ( 'NONE', #686, .T. ) ;
#203 = DIRECTION ( 'NONE',  ( 0.0000000000000000000, 0.0000000000000000000, 1.000000000000000000 ) ) ;
#204 = VECTOR ( 'NONE', #203, 1000.000000000000000 ) ;
#205 = CARTESIAN_POINT ( 'NONE',  ( -0.1250000000000003300, 0.1250000000000001100, -0.1999999999999997600 ) ) ;
#206 = LINE ( 'NONE', #205, #204 ) ;
#207 = DIRECTION ( 'NONE',  ( 1.000000000000000000, -5.782411586589359600E-016, 0.0000000000000000000 ) ) ;
#208 = VECTOR ( 'NONE', #207, 1000.000000000000000 ) ;
#209 = FACE_OUTER_BOUND ( 'NONE', #647, .T. ) ;
#210 = CARTESIAN_POINT ( 'NONE',  ( -0.1250000000000003300, 0.5000000000000000000, -0.1999999999999997600 ) ) ;
#211 = LINE ( 'NONE', #210, #193 ) ;
#212 = DIRECTION ( 'NONE',  ( 0.0000000000000000000, 0.0000000000000000000, 1.000000000000000000 ) ) ;
#213 = DIRECTION ( 'NONE',  ( -1.000000000000000000, 0.0000000000000000000, 0.0000000000000000000 ) ) ;
#214 = CARTESIAN_POINT ( 'NONE',  ( -0.1250000000000003300, 0.5000000000000000000, -0.1999999999999997600 ) ) ;
#215 = AXIS2_PLACEMENT_3D ( 'NONE', #214, #213, #212 ) ;
#216 = PLANE ( 'NONE',  #215 ) ;
#217 = CARTESIAN_POINT ( 'NONE',  ( 0.1249999999999997900, -0.1249999999999994000, 0.5000000000000002200 ) ) ;
#218 = DIRECTION ( 'NONE',  ( 4.336808689942015800E-016, 1.000000000000000000, 0.0000000000000000000 ) ) ;
#219 = VECTOR ( 'NONE', #218, 1000.000000000000000 ) ;
#220 = CARTESIAN_POINT ( 'NONE',  ( 0.1249999999999996300, -0.4999999999999995600, 0.5000000000000002200 ) ) ;
#221 = LINE ( 'NONE', #220, #219 ) ;
#222 = DIRECTION ( 'NONE',  ( 8.673617379884052200E-016, -1.000000000000000000, 0.0000000000000000000 ) ) ;
#223 = VECTOR ( 'NONE', #222, 1000.000000000000000 ) ;
#224 = CARTESIAN_POINT ( 'NONE',  ( -0.5000000000000002200, 0.1250000000000001100, 0.5000000000000002200 ) ) ;
#225 = LINE ( 'NONE', #224, #223 ) ;
#226 = DIRECTION ( 'NONE',  ( 1.000000000000000000, 0.0000000000000000000, 0.0000000000000000000 ) ) ;
#227 = VECTOR ( 'NONE', #226, 1000.000000000000000 ) ;
#228 = CARTESIAN_POINT ( 'NONE',  ( -0.1250000000000001700, -0.4999999999999995600, 0.5000000000000002200 ) ) ;
#229 = LINE ( 'NONE', #228, #227 ) ;
#230 = CARTESIAN_POINT ( 'NONE',  ( 0.1249999999999996300, -0.4999999999999995600, 0.5000000000000002200 ) ) ;
#231 = DIRECTION ( 'NONE',  ( -1.000000000000000000, 0.0000000000000000000, 0.0000000000000000000 ) ) ;
#232 = VECTOR ( 'NONE', #231, 1000.000000000000000 ) ;
#233 = CARTESIAN_POINT ( 'NONE',  ( -0.1250000000000003300, 0.1250000000000001100, 0.5000000000000002200 ) ) ;
#234 = LINE ( 'NONE', #233, #232 ) ;
#235 = CARTESIAN_POINT ( 'NONE',  ( -0.5000000000000000000, -0.1249999999999994000, 0.5000000000000002200 ) ) ;
#236 = CARTESIAN_POINT ( 'NONE',  ( -0.1250000000000003300, 0.1250000000000001100, 0.5000000000000002200 ) ) ;
#237 = CARTESIAN_POINT ( 'NONE',  ( -0.1250000000000003300, 0.5000000000000000000, 0.5000000000000002200 ) ) ;
#238 = CARTESIAN_POINT ( 'NONE',  ( -0.5000000000000002200, 0.1250000000000001100, 0.5000000000000002200 ) ) ;
#239 = DIRECTION ( 'NONE',  ( 0.0000000000000000000, -1.000000000000000000, 0.0000000000000000000 ) ) ;
#240 = VECTOR ( 'NONE', #239, 1000.000000000000000 ) ;
#241 = CARTESIAN_POINT ( 'NONE',  ( -0.1250000000000003300, 0.5000000000000000000, 0.5000000000000002200 ) ) ;
#242 = LINE ( 'NONE', #241, #240 ) ;
#243 = CARTESIAN_POINT ( 'NONE',  ( 0.1249999999999996800, 0.5000000000000000000, 0.5000000000000002200 ) ) ;
#244 = DIRECTION ( 'NONE',  ( -1.000000000000000000, 0.0000000000000000000, 0.0000000000000000000 ) ) ;
#245 = VECTOR ( 'NONE', #244, 1000.000000000000000 ) ;
#246 = CARTESIAN_POINT ( 'NONE',  ( 0.1249999999999996800, 0.5000000000000000000, 0.5000000000000002200 ) ) ;
#247 = LINE ( 'NONE', #246, #245 ) ;
#248 = DIRECTION ( 'NONE',  ( -2.891205793294679300E-016, 1.000000000000000000, 0.0000000000000000000 ) ) ;
#249 = VECTOR ( 'NONE', #248, 1000.000000000000000 ) ;
#250 = CARTESIAN_POINT ( 'NONE',  ( 0.1249999999999997900, 0.1250000000000001100, 0.5000000000000002200 ) ) ;
#251 = LINE ( 'NONE', #250, #249 ) ;
#252 = VECTOR ( 'NONE', #194, 1000.000000000000000 ) ;
#253 = FACE_OUTER_BOUND ( 'NONE', #684, .T. ) ;
#254 = DIRECTION ( 'NONE',  ( 0.0000000000000000000, 0.0000000000000000000, 1.000000000000000000 ) ) ;
#255 = DIRECTION ( 'NONE',  ( 0.0000000000000000000, 1.000000000000000000, 0.0000000000000000000 ) ) ;
#256 = CARTESIAN_POINT ( 'NONE',  ( 0.1249999999999996800, 0.5000000000000000000, -0.1999999999999997600 ) ) ;
#257 = AXIS2_PLACEMENT_3D ( 'NONE', #256, #255, #254 ) ;
#258 = PLANE ( 'NONE',  #257 ) ;
#259 = DIRECTION ( 'NONE',  ( 1.000000000000000000, 0.0000000000000000000, 0.0000000000000000000 ) ) ;
#260 = CARTESIAN_POINT ( 'NONE',  ( 0.0000000000000000000, 0.0000000000000000000, 0.0000000000000000000 ) ) ;
#261 = DIRECTION ( 'NONE',  ( 0.0000000000000000000, 0.0000000000000000000, 1.000000000000000000 ) ) ;
#262 = AXIS2_PLACEMENT_3D ( 'NONE', #260, #261, #259 ) ;
#263 = SHAPE_DEFINITION_REPRESENTATION ( #264, #160 ) ;
#264 = PRODUCT_DEFINITION_SHAPE ( 'NONE', 'NONE',  #267 ) ;
#265 = PRODUCT_RELATED_PRODUCT_CATEGORY ( 'part', '', ( #271 ) ) ;
#266 = PRODUCT_DEFINITION_FORMATION_WITH_SPECIFIED_SOURCE ( 'ANY', '', #271, .NOT_KNOWN. ) ;
#267 = PRODUCT_DEFINITION ( 'UNKNOWN', '', #266, #268 ) ;
#268 = PRODUCT_DEFINITION_CONTEXT ( 'detailed design', #270, 'design' ) ;
#269 = APPLICATION_PROTOCOL_DEFINITION ( 'draft international standard', 'automotive_design', 1998, #270 ) ;
#270 = APPLICATION_CONTEXT ( 'automotive_design' ) ;
#271 = PRODUCT ( 'CSPSL-ST3W-M2-8_214', 'CSPSL-ST3W-M2-8_214', '', ( #272 ) ) ;
#272 = PRODUCT_CONTEXT ( 'NONE', #274, 'mechanical' ) ;
#273 = APPLICATION_PROTOCOL_DEFINITION ( 'draft international standard', 'automotive_design', 1998, #274 ) ;
#274 = APPLICATION_CONTEXT ( 'automotive_design' ) ;
#275 = ORIENTED_EDGE ( 'NONE', *, *, #276, .F. ) ;
#276 = EDGE_CURVE ( 'NONE', #277, #335, #439, .T. ) ;
#277 = VERTEX_POINT ( 'NONE', #440 ) ;
#278 = ORIENTED_EDGE ( 'NONE', *, *, #311, .F. ) ;
#279 = EDGE_LOOP ( 'NONE', ( #275, #336, #339, #281 ) ) ;
#280 = EDGE_LOOP ( 'NONE', ( #322, #320, #318, #315 ) ) ;
#281 = ORIENTED_EDGE ( 'NONE', *, *, #282, .F. ) ;
#282 = EDGE_CURVE ( 'NONE', #335, #325, #445, .T. ) ;
#283 = EDGE_CURVE ( 'NONE', #296, #284, #434, .T. ) ;
#284 = VERTEX_POINT ( 'NONE', #466 ) ;
#285 = ORIENTED_EDGE ( 'NONE', *, *, #292, .F. ) ;
#286 = MANIFOLD_SOLID_BREP ( 'NONE', #428 ) ;
#287 = ADVANCED_FACE ( 'NONE', ( #481 ), #467, .T. ) ;
#288 = EDGE_LOOP ( 'NONE', ( #289, #298, #285, #278 ) ) ;
#289 = ORIENTED_EDGE ( 'NONE', *, *, #290, .F. ) ;
#290 = EDGE_CURVE ( 'NONE', #296, #297, #455, .T. ) ;
#291 = ADVANCED_FACE ( 'NONE', ( #458 ), #457, .T. ) ;
#292 = EDGE_CURVE ( 'NONE', #293, #284, #452, .T. ) ;
#293 = VERTEX_POINT ( 'NONE', #484 ) ;
#294 = EDGE_CURVE ( 'NONE', #306, #284, #483, .T. ) ;
#295 = ADVANCED_FACE ( 'NONE', ( #566 ), #565, .T. ) ;
#296 = VERTEX_POINT ( 'NONE', #563 ) ;
#297 = VERTEX_POINT ( 'NONE', #559 ) ;
#298 = ORIENTED_EDGE ( 'NONE', *, *, #283, .T. ) ;
#299 = ORIENTED_EDGE ( 'NONE', *, *, #294, .F. ) ;
#300 = ORIENTED_EDGE ( 'NONE', *, *, #292, .T. ) ;
#301 = VERTEX_POINT ( 'NONE', #558 ) ;
#302 = EDGE_CURVE ( 'NONE', #301, #293, #584, .T. ) ;
#303 = ORIENTED_EDGE ( 'NONE', *, *, #302, .T. ) ;
#304 = EDGE_CURVE ( 'NONE', #306, #301, #580, .T. ) ;
#305 = EDGE_LOOP ( 'NONE', ( #308, #303, #300, #299 ) ) ;
#306 = VERTEX_POINT ( 'NONE', #575 ) ;
#307 = ADVANCED_FACE ( 'NONE', ( #574 ), #571, .T. ) ;
#308 = ORIENTED_EDGE ( 'NONE', *, *, #304, .T. ) ;
#309 = EDGE_CURVE ( 'NONE', #335, #277, #572, .T. ) ;
#310 = EDGE_LOOP ( 'NONE', ( #312, #369 ) ) ;
#311 = EDGE_CURVE ( 'NONE', #297, #293, #609, .T. ) ;
#312 = ORIENTED_EDGE ( 'NONE', *, *, #309, .T. ) ;
#313 = ADVANCED_FACE ( 'NONE', ( #605 ), #604, .F. ) ;
#314 = EDGE_CURVE ( 'NONE', #325, #316, #599, .T. ) ;
#315 = ORIENTED_EDGE ( 'NONE', *, *, #314, .F. ) ;
#316 = VERTEX_POINT ( 'NONE', #595 ) ;
#317 = VERTEX_POINT ( 'NONE', #594 ) ;
#318 = ORIENTED_EDGE ( 'NONE', *, *, #319, .F. ) ;
#319 = EDGE_CURVE ( 'NONE', #316, #317, #593, .T. ) ;
#320 = ORIENTED_EDGE ( 'NONE', *, *, #321, .T. ) ;
#321 = EDGE_CURVE ( 'NONE', #338, #317, #588, .T. ) ;
#322 = ORIENTED_EDGE ( 'NONE', *, *, #340, .T. ) ;
#323 = VERTEX_POINT ( 'NONE', #557 ) ;
#324 = EDGE_CURVE ( 'NONE', #332, #334, #556, .T. ) ;
#325 = VERTEX_POINT ( 'NONE', #552 ) ;
#326 = ORIENTED_EDGE ( 'NONE', *, *, #327, .F. ) ;
#327 = EDGE_CURVE ( 'NONE', #328, #616, #551, .T. ) ;
#328 = VERTEX_POINT ( 'NONE', #547 ) ;
#329 = ORIENTED_EDGE ( 'NONE', *, *, #342, .F. ) ;
#330 = EDGE_CURVE ( 'NONE', #331, #328, #546, .T. ) ;
#331 = VERTEX_POINT ( 'NONE', #542 ) ;
#332 = VERTEX_POINT ( 'NONE', #541 ) ;
#333 = ORIENTED_EDGE ( 'NONE', *, *, #390, .T. ) ;
#334 = VERTEX_POINT ( 'NONE', #540 ) ;
#335 = VERTEX_POINT ( 'NONE', #539 ) ;
#336 = ORIENTED_EDGE ( 'NONE', *, *, #337, .T. ) ;
#337 = EDGE_CURVE ( 'NONE', #277, #338, #538, .T. ) ;
#338 = VERTEX_POINT ( 'NONE', #520 ) ;
#339 = ORIENTED_EDGE ( 'NONE', *, *, #340, .F. ) ;
#340 = EDGE_CURVE ( 'NONE', #325, #338, #519, .T. ) ;
#341 = EDGE_CURVE ( 'NONE', #711, #323, #514, .T. ) ;
#342 = EDGE_CURVE ( 'NONE', #323, #332, #510, .T. ) ;
#343 = ORIENTED_EDGE ( 'NONE', *, *, #324, .F. ) ;
#344 = EDGE_LOOP ( 'NONE', ( #345, #346, #347, #333 ) ) ;
#345 = ORIENTED_EDGE ( 'NONE', *, *, #341, .T. ) ;
#346 = ORIENTED_EDGE ( 'NONE', *, *, #350, .F. ) ;
#347 = ORIENTED_EDGE ( 'NONE', *, *, #330, .F. ) ;
#348 = ORIENTED_EDGE ( 'NONE', *, *, #341, .F. ) ;
#349 = ORIENTED_EDGE ( 'NONE', *, *, #350, .T. ) ;
#350 = EDGE_CURVE ( 'NONE', #328, #323, #506, .T. ) ;
#351 = ADVANCED_FACE ( 'NONE', ( #502 ), #501, .F. ) ;
#352 = EDGE_CURVE ( 'NONE', #301, #306, #496, .T. ) ;
#353 = ORIENTED_EDGE ( 'NONE', *, *, #352, .F. ) ;
#354 = ORIENTED_EDGE ( 'NONE', *, *, #304, .F. ) ;
#355 = ADVANCED_FACE ( 'NONE', ( #491, #490 ), #489, .F. ) ;
#356 = EDGE_LOOP ( 'NONE', ( #354, #353 ) ) ;
#357 = ORIENTED_EDGE ( 'NONE', *, *, #359, .T. ) ;
#358 = ORIENTED_EDGE ( 'NONE', *, *, #314, .T. ) ;
#359 = EDGE_CURVE ( 'NONE', #338, #325, #529, .T. ) ;
#360 = ORIENTED_EDGE ( 'NONE', *, *, #361, .F. ) ;
#361 = EDGE_CURVE ( 'NONE', #317, #316, #525, .T. ) ;
#362 = EDGE_LOOP ( 'NONE', ( #363, #357, #358, #360 ) ) ;
#363 = ORIENTED_EDGE ( 'NONE', *, *, #321, .F. ) ;
#364 = ADVANCED_FACE ( 'NONE', ( #61 ), #6, .T. ) ;
#365 = EDGE_LOOP ( 'NONE', ( #708, #698, #699, #693, #692, #343, #329, #348, #709, #706, #677, #680 ) ) ;
#366 = ORIENTED_EDGE ( 'NONE', *, *, #352, .T. ) ;
#367 = ORIENTED_EDGE ( 'NONE', *, *, #294, .T. ) ;
#368 = ORIENTED_EDGE ( 'NONE', *, *, #370, .T. ) ;
#369 = ORIENTED_EDGE ( 'NONE', *, *, #276, .T. ) ;
#370 = EDGE_CURVE ( 'NONE', #284, #293, #45, .T. ) ;
#371 = ADVANCED_FACE ( 'NONE', ( #32, #28 ), #27, .F. ) ;
#372 = EDGE_LOOP ( 'NONE', ( #373, #366, #367, #368 ) ) ;
#373 = ORIENTED_EDGE ( 'NONE', *, *, #302, .F. ) ;
#374 = ORIENTED_EDGE ( 'NONE', *, *, #394, .F. ) ;
#375 = ORIENTED_EDGE ( 'NONE', *, *, #390, .F. ) ;
#376 = ORIENTED_EDGE ( 'NONE', *, *, #710, .T. ) ;
#377 = ADVANCED_FACE ( 'NONE', ( #60 ), #25, .T. ) ;
#378 = EDGE_LOOP ( 'NONE', ( #379, #380 ) ) ;
#379 = ORIENTED_EDGE ( 'NONE', *, *, #319, .T. ) ;
#380 = ORIENTED_EDGE ( 'NONE', *, *, #361, .T. ) ;
#381 = ADVANCED_FACE ( 'NONE', ( #24 ), #66, .F. ) ;
#382 = ORIENTED_EDGE ( 'NONE', *, *, #635, .T. ) ;
#383 = EDGE_LOOP ( 'NONE', ( #424, #423, #412, #429 ) ) ;
#384 = ORIENTED_EDGE ( 'NONE', *, *, #425, .T. ) ;
#385 = ORIENTED_EDGE ( 'NONE', *, *, #402, .F. ) ;
#386 = ORIENTED_EDGE ( 'NONE', *, *, #681, .T. ) ;
#387 = ORIENTED_EDGE ( 'NONE', *, *, #409, .F. ) ;
#388 = ORIENTED_EDGE ( 'NONE', *, *, #403, .F. ) ;
#389 = ORIENTED_EDGE ( 'NONE', *, *, #678, .T. ) ;
#390 = EDGE_CURVE ( 'NONE', #331, #711, #67, .T. ) ;
#391 = ORIENTED_EDGE ( 'NONE', *, *, #618, .F. ) ;
#392 = ORIENTED_EDGE ( 'NONE', *, *, #413, .T. ) ;
#393 = VERTEX_POINT ( 'NONE', #2 ) ;
#394 = EDGE_CURVE ( 'NONE', #393, #331, #54, .T. ) ;
#395 = EDGE_LOOP ( 'NONE', ( #386, #387, #385, #392 ) ) ;
#396 = VERTEX_POINT ( 'NONE', #50 ) ;
#397 = ORIENTED_EDGE ( 'NONE', *, *, #409, .T. ) ;
#398 = ORIENTED_EDGE ( 'NONE', *, *, #707, .T. ) ;
#399 = ORIENTED_EDGE ( 'NONE', *, *, #330, .T. ) ;
#400 = ORIENTED_EDGE ( 'NONE', *, *, #327, .T. ) ;
#401 = ORIENTED_EDGE ( 'NONE', *, *, #413, .F. ) ;
#402 = EDGE_CURVE ( 'NONE', #396, #404, #49, .T. ) ;
#403 = EDGE_CURVE ( 'NONE', #404, #614, #19, .T. ) ;
#404 = VERTEX_POINT ( 'NONE', #15 ) ;
#405 = ORIENTED_EDGE ( 'NONE', *, *, #645, .T. ) ;
#406 = ORIENTED_EDGE ( 'NONE', *, *, #657, .T. ) ;
#407 = ORIENTED_EDGE ( 'NONE', *, *, #394, .T. ) ;
#408 = ORIENTED_EDGE ( 'NONE', *, *, #403, .T. ) ;
#409 = EDGE_CURVE ( 'NONE', #404, #679, #14, .T. ) ;
#410 = ADVANCED_FACE ( 'NONE', ( #10 ), #8, .F. ) ;
#411 = EDGE_LOOP ( 'NONE', ( #376, #375, #374, #382 ) ) ;
#412 = ORIENTED_EDGE ( 'NONE', *, *, #282, .T. ) ;
#413 = EDGE_CURVE ( 'NONE', #396, #702, #9, .T. ) ;
#414 = EDGE_LOOP ( 'NONE', ( #398, #401, #417, #427 ) ) ;
#415 = EDGE_LOOP ( 'NONE', ( #418, #384, #416, #408, #421, #407, #399, #400, #430, #426, #405, #406 ) ) ;
#416 = ORIENTED_EDGE ( 'NONE', *, *, #402, .T. ) ;
#417 = ORIENTED_EDGE ( 'NONE', *, *, #425, .F. ) ;
#418 = ORIENTED_EDGE ( 'NONE', *, *, #673, .T. ) ;
#419 = ADVANCED_FACE ( 'NONE', ( #36 ), #34, .F. ) ;
#420 = ADVANCED_FACE ( 'NONE', ( #70 ), #73, .T. ) ;
#421 = ORIENTED_EDGE ( 'NONE', *, *, #617, .T. ) ;
#422 = ADVANCED_FACE ( 'NONE', ( #74 ), #80, .T. ) ;
#423 = ORIENTED_EDGE ( 'NONE', *, *, #309, .F. ) ;
#424 = ORIENTED_EDGE ( 'NONE', *, *, #337, .F. ) ;
#425 = EDGE_CURVE ( 'NONE', #670, #396, #82, .T. ) ;
#426 = ORIENTED_EDGE ( 'NONE', *, *, #638, .T. ) ;
#427 = ORIENTED_EDGE ( 'NONE', *, *, #669, .T. ) ;
#428 = CLOSED_SHELL ( 'NONE', ( #291, #287, #307, #295, #313, #364, #355, #377, #371, #685, #672, #654, #649, #639, #632, #623, #351, #381, #646, #432, #410, #419, #420, #422 ) ) ;
#429 = ORIENTED_EDGE ( 'NONE', *, *, #359, .F. ) ;
#430 = ORIENTED_EDGE ( 'NONE', *, *, #630, .T. ) ;
#431 = EDGE_LOOP ( 'NONE', ( #389, #391, #388, #397 ) ) ;
#432 = ADVANCED_FACE ( 'NONE', ( #97 ), #101, .F. ) ;
#433 = CARTESIAN_POINT ( 'NONE',  ( 1.653589838486225300, 2.024996622826350000E-016, 0.5000000000000004400 ) ) ;
#434 = LINE ( 'NONE', #433, #472 ) ;
#435 = VECTOR ( 'NONE', #564, 1000.000000000000000 ) ;
#436 = DIRECTION ( 'NONE',  ( 0.7071067811865460200, 0.0000000000000000000, 0.7071067811865489100 ) ) ;
#437 = VECTOR ( 'NONE', #436, 1000.000000000000100 ) ;
#438 = AXIS2_PLACEMENT_3D ( 'NONE', #443, #442, #441 ) ;
#439 = CIRCLE ( 'NONE', #438, 0.8000000000000020400 ) ;
#440 = CARTESIAN_POINT ( 'NONE',  ( -0.8000000000000020400, 1.102145718440140800E-016, -8.000000000000000000 ) ) ;
#441 = DIRECTION ( 'NONE',  ( 1.000000000000000000, 0.0000000000000000000, 0.0000000000000000000 ) ) ;
#442 = DIRECTION ( 'NONE',  ( 0.0000000000000000000, 0.0000000000000000000, -1.000000000000000000 ) ) ;
#443 = CARTESIAN_POINT ( 'NONE',  ( 0.0000000000000000000, 0.0000000000000000000, -8.000000000000000000 ) ) ;
#444 = CARTESIAN_POINT ( 'NONE',  ( 1.000000000000000000, 0.0000000000000000000, -7.800000000000001600 ) ) ;
#445 = LINE ( 'NONE', #444, #437 ) ;
#446 = FILL_AREA_STYLE ('',( #468 ) ) ;
#447 = COLOUR_RGB ( '',0.7529411764705882200, 0.7529411764705882200, 0.7529411764705882200 ) ;
#448 = DIRECTION ( 'NONE',  ( 0.8660254037844376000, 1.060540212046012100E-016, -0.5000000000000017800 ) ) ;
#449 = DIRECTION ( 'NONE',  ( 1.000000000000000000, 0.0000000000000000000, 0.0000000000000000000 ) ) ;
#450 = DIRECTION ( 'NONE',  ( 0.0000000000000000000, 0.0000000000000000000, 1.000000000000000000 ) ) ;
#451 = AXIS2_PLACEMENT_3D ( 'NONE', #456, #450, #449 ) ;
#452 = CIRCLE ( 'NONE', #488, 2.000000000000000000 ) ;
#453 =( GEOMETRIC_REPRESENTATION_CONTEXT ( 3 ) GLOBAL_UNCERTAINTY_ASSIGNED_CONTEXT ( ( #470 ) ) GLOBAL_UNIT_ASSIGNED_CONTEXT ( ( #465, #469, #471 ) ) REPRESENTATION_CONTEXT ( 'NONE', 'WORKASPACE' ) );
#454 = AXIS2_PLACEMENT_3D ( 'NONE', #461, #460, #459 ) ;
#455 = CIRCLE ( 'NONE', #454, 1.653589838486225800 ) ;
#456 = CARTESIAN_POINT ( 'NONE',  ( 0.0000000000000000000, 0.0000000000000000000, -7.800000000000001600 ) ) ;
#457 = CONICAL_SURFACE ( 'NONE', #451, 1.000000000000000000, 0.7853981633974461700 ) ;
#458 = FACE_OUTER_BOUND ( 'NONE', #279, .T. ) ;
#459 = DIRECTION ( 'NONE',  ( -1.000000000000000000, 0.0000000000000000000, 0.0000000000000000000 ) ) ;
#460 = DIRECTION ( 'NONE',  ( 0.0000000000000000000, 0.0000000000000000000, 1.000000000000000000 ) ) ;
#461 = CARTESIAN_POINT ( 'NONE',  ( 0.0000000000000000000, 0.0000000000000000000, 0.5000000000000002200 ) ) ;
#462 = SURFACE_STYLE_USAGE ( .BOTH. , #463 ) ;
#463 = SURFACE_SIDE_STYLE ('',( #464 ) ) ;
#464 = SURFACE_STYLE_FILL_AREA ( #446 ) ;
#465 =( LENGTH_UNIT ( ) NAMED_UNIT ( * ) SI_UNIT ( .MILLI., .METRE. ) );
#466 = CARTESIAN_POINT ( 'NONE',  ( 2.000000000000000000, 0.0000000000000000000, 0.2999999999999999300 ) ) ;
#467 = CONICAL_SURFACE ( 'NONE', #475, 1.653589838486225300, 1.047197551196595600 ) ;
#468 = FILL_AREA_STYLE_COLOUR ( '', #447 ) ;
#469 =( NAMED_UNIT ( * ) PLANE_ANGLE_UNIT ( ) SI_UNIT ( $, .RADIAN. ) );
#470 = UNCERTAINTY_MEASURE_WITH_UNIT (LENGTH_MEASURE( 1.000000000000000100E-005 ), #465, 'distance_accuracy_value', 'NONE');
#471 =( NAMED_UNIT ( * ) SI_UNIT ( $, .STERADIAN. ) SOLID_ANGLE_UNIT ( ) );
#472 = VECTOR ( 'NONE', #448, 1000.000000000000100 ) ;
#473 = DIRECTION ( 'NONE',  ( -1.000000000000000000, 0.0000000000000000000, 0.0000000000000000000 ) ) ;
#474 = DIRECTION ( 'NONE',  ( 0.0000000000000000000, 0.0000000000000000000, -1.000000000000000000 ) ) ;
#475 = AXIS2_PLACEMENT_3D ( 'NONE', #480, #474, #473 ) ;
#476 = MECHANICAL_DESIGN_GEOMETRIC_PRESENTATION_REPRESENTATION (  '', ( #478 ), #453 ) ;
#477 = PRESENTATION_LAYER_ASSIGNMENT (  '', '', ( #478 ) ) ;
#478 = STYLED_ITEM ( 'NONE', ( #479 ), #286 ) ;
#479 = PRESENTATION_STYLE_ASSIGNMENT (( #462 ) ) ;
#480 = CARTESIAN_POINT ( 'NONE',  ( 0.0000000000000000000, 0.0000000000000000000, 0.5000000000000004400 ) ) ;
#481 = FACE_OUTER_BOUND ( 'NONE', #288, .T. ) ;
#482 = CARTESIAN_POINT ( 'NONE',  ( 2.000000000000000000, 0.0000000000000000000, 15.33464249748237100 ) ) ;
#483 = LINE ( 'NONE', #482, #435 ) ;
#484 = CARTESIAN_POINT ( 'NONE',  ( -2.000000000000000000, 2.449212707644754500E-016, 0.2999999999999999300 ) ) ;
#485 = DIRECTION ( 'NONE',  ( -1.000000000000000000, 0.0000000000000000000, 0.0000000000000000000 ) ) ;
#486 = DIRECTION ( 'NONE',  ( 0.0000000000000000000, 0.0000000000000000000, -1.000000000000000000 ) ) ;
#487 = CARTESIAN_POINT ( 'NONE',  ( 0.0000000000000000000, 0.0000000000000000000, 0.2999999999999999300 ) ) ;
#488 = AXIS2_PLACEMENT_3D ( 'NONE', #487, #486, #485 ) ;
#489 = PLANE ( 'NONE',  #533 ) ;
#490 = FACE_BOUND ( 'NONE', #378, .T. ) ;
#491 = FACE_OUTER_BOUND ( 'NONE', #356, .T. ) ;
#492 = DIRECTION ( 'NONE',  ( 1.000000000000000000, 0.0000000000000000000, 0.0000000000000000000 ) ) ;
#493 = DIRECTION ( 'NONE',  ( 0.0000000000000000000, 0.0000000000000000000, 1.000000000000000000 ) ) ;
#494 = CARTESIAN_POINT ( 'NONE',  ( 0.0000000000000000000, 0.0000000000000000000, 0.0000000000000000000 ) ) ;
#495 = AXIS2_PLACEMENT_3D ( 'NONE', #494, #493, #492 ) ;
#496 = CIRCLE ( 'NONE', #495, 2.000000000000000000 ) ;
#497 = DIRECTION ( 'NONE',  ( 1.000000000000000000, -5.782411586589356700E-016, 0.0000000000000000000 ) ) ;
#498 = DIRECTION ( 'NONE',  ( -5.782411586589356700E-016, -1.000000000000000000, 0.0000000000000000000 ) ) ;
#499 = CARTESIAN_POINT ( 'NONE',  ( 0.1249999999999997900, -0.1249999999999994000, -0.1999999999999997600 ) ) ;
#500 = AXIS2_PLACEMENT_3D ( 'NONE', #499, #498, #497 ) ;
#501 = PLANE ( 'NONE',  #500 ) ;
#502 = FACE_OUTER_BOUND ( 'NONE', #344, .T. ) ;
#503 = DIRECTION ( 'NONE',  ( 0.0000000000000000000, 0.0000000000000000000, 1.000000000000000000 ) ) ;
#504 = VECTOR ( 'NONE', #503, 1000.000000000000000 ) ;
#505 = CARTESIAN_POINT ( 'NONE',  ( 0.4999999999999997800, -0.1249999999999996300, -0.1999999999999997600 ) ) ;
#506 = LINE ( 'NONE', #505, #504 ) ;
#507 = DIRECTION ( 'NONE',  ( -8.673617379884044300E-016, 1.000000000000000000, 0.0000000000000000000 ) ) ;
#508 = VECTOR ( 'NONE', #507, 1000.000000000000000 ) ;
#509 = CARTESIAN_POINT ( 'NONE',  ( 0.4999999999999997800, -0.1249999999999996300, 0.5000000000000002200 ) ) ;
#510 = LINE ( 'NONE', #509, #508 ) ;
#511 = DIRECTION ( 'NONE',  ( 1.000000000000000000, -5.782411586589356700E-016, 0.0000000000000000000 ) ) ;
#512 = VECTOR ( 'NONE', #511, 1000.000000000000000 ) ;
#513 = CARTESIAN_POINT ( 'NONE',  ( 0.1249999999999997900, -0.1249999999999994000, 0.5000000000000002200 ) ) ;
#514 = LINE ( 'NONE', #513, #512 ) ;
#515 = DIRECTION ( 'NONE',  ( 1.000000000000000000, 0.0000000000000000000, 0.0000000000000000000 ) ) ;
#516 = DIRECTION ( 'NONE',  ( 0.0000000000000000000, 0.0000000000000000000, 1.000000000000000000 ) ) ;
#517 = CARTESIAN_POINT ( 'NONE',  ( 0.0000000000000000000, 0.0000000000000000000, -7.800000000000001600 ) ) ;
#518 = AXIS2_PLACEMENT_3D ( 'NONE', #517, #516, #515 ) ;
#519 = CIRCLE ( 'NONE', #518, 1.000000000000000000 ) ;
#520 = CARTESIAN_POINT ( 'NONE',  ( -1.000000000000000000, 1.224606353822377300E-016, -7.800000000000001600 ) ) ;
#521 = DIRECTION ( 'NONE',  ( 1.000000000000000000, 0.0000000000000000000, 0.0000000000000000000 ) ) ;
#522 = DIRECTION ( 'NONE',  ( 0.0000000000000000000, 0.0000000000000000000, 1.000000000000000000 ) ) ;
#523 = CARTESIAN_POINT ( 'NONE',  ( 0.0000000000000000000, 0.0000000000000000000, 0.0000000000000000000 ) ) ;
#524 = AXIS2_PLACEMENT_3D ( 'NONE', #523, #522, #521 ) ;
#525 = CIRCLE ( 'NONE', #524, 1.000000000000000000 ) ;
#526 = DIRECTION ( 'NONE',  ( 1.000000000000000000, 0.0000000000000000000, 0.0000000000000000000 ) ) ;
#527 = DIRECTION ( 'NONE',  ( 0.0000000000000000000, 0.0000000000000000000, 1.000000000000000000 ) ) ;
#528 = AXIS2_PLACEMENT_3D ( 'NONE', #534, #527, #526 ) ;
#529 = CIRCLE ( 'NONE', #528, 1.000000000000000000 ) ;
#530 = DIRECTION ( 'NONE',  ( 1.000000000000000000, 0.0000000000000000000, 0.0000000000000000000 ) ) ;
#531 = DIRECTION ( 'NONE',  ( 0.0000000000000000000, 0.0000000000000000000, 1.000000000000000000 ) ) ;
#532 = CARTESIAN_POINT ( 'NONE',  ( 0.0000000000000000000, 2.000000000000000000, -2.921111703219070800E-016 ) ) ;
#533 = AXIS2_PLACEMENT_3D ( 'NONE', #532, #531, #530 ) ;
#534 = CARTESIAN_POINT ( 'NONE',  ( 0.0000000000000000000, 0.0000000000000000000, -7.800000000000001600 ) ) ;
#535 = DIRECTION ( 'NONE',  ( -0.7071067811865460200, 8.659274570719335700E-017, 0.7071067811865489100 ) ) ;
#536 = VECTOR ( 'NONE', #535, 1000.000000000000100 ) ;
#537 = CARTESIAN_POINT ( 'NONE',  ( -1.000000000000000000, 1.224606353822377300E-016, -7.800000000000001600 ) ) ;
#538 = LINE ( 'NONE', #537, #536 ) ;
#539 = CARTESIAN_POINT ( 'NONE',  ( 0.8000000000000020400, 0.0000000000000000000, -8.000000000000000000 ) ) ;
#540 = CARTESIAN_POINT ( 'NONE',  ( 0.1249999999999997900, 0.1250000000000001100, 0.5000000000000002200 ) ) ;
#541 = CARTESIAN_POINT ( 'NONE',  ( 0.4999999999999995600, 0.1250000000000001100, 0.5000000000000002200 ) ) ;
#542 = CARTESIAN_POINT ( 'NONE',  ( 0.1249999999999997900, -0.1249999999999994000, -0.1999999999999997600 ) ) ;
#543 = DIRECTION ( 'NONE',  ( 1.000000000000000000, -5.782411586589356700E-016, 0.0000000000000000000 ) ) ;
#544 = VECTOR ( 'NONE', #543, 1000.000000000000000 ) ;
#545 = CARTESIAN_POINT ( 'NONE',  ( 0.1249999999999997900, -0.1249999999999994000, -0.1999999999999997600 ) ) ;
#546 = LINE ( 'NONE', #545, #544 ) ;
#547 = CARTESIAN_POINT ( 'NONE',  ( 0.4999999999999997800, -0.1249999999999996300, -0.1999999999999997600 ) ) ;
#548 = DIRECTION ( 'NONE',  ( -8.673617379884044300E-016, 1.000000000000000000, 0.0000000000000000000 ) ) ;
#549 = VECTOR ( 'NONE', #548, 1000.000000000000000 ) ;
#550 = CARTESIAN_POINT ( 'NONE',  ( 0.4999999999999997800, -0.1249999999999996300, -0.1999999999999997600 ) ) ;
#551 = LINE ( 'NONE', #550, #549 ) ;
#552 = CARTESIAN_POINT ( 'NONE',  ( 1.000000000000000000, 0.0000000000000000000, -7.800000000000001600 ) ) ;
#553 = DIRECTION ( 'NONE',  ( -1.000000000000000000, 0.0000000000000000000, 0.0000000000000000000 ) ) ;
#554 = VECTOR ( 'NONE', #553, 1000.000000000000000 ) ;
#555 = CARTESIAN_POINT ( 'NONE',  ( 0.4999999999999995600, 0.1250000000000001100, 0.5000000000000002200 ) ) ;
#556 = LINE ( 'NONE', #555, #554 ) ;
#557 = CARTESIAN_POINT ( 'NONE',  ( 0.4999999999999997800, -0.1249999999999996300, 0.5000000000000002200 ) ) ;
#558 = CARTESIAN_POINT ( 'NONE',  ( -2.000000000000000000, 2.449212707644754500E-016, 0.0000000000000000000 ) ) ;
#559 = CARTESIAN_POINT ( 'NONE',  ( -1.653589838486225800, 0.0000000000000000000, 0.5000000000000002200 ) ) ;
#560 = DIRECTION ( 'NONE',  ( 1.000000000000000000, 0.0000000000000000000, 0.0000000000000000000 ) ) ;
#561 = DIRECTION ( 'NONE',  ( 0.0000000000000000000, 0.0000000000000000000, 1.000000000000000000 ) ) ;
#562 = AXIS2_PLACEMENT_3D ( 'NONE', #613, #561, #560 ) ;
#563 = CARTESIAN_POINT ( 'NONE',  ( 1.653589838486225800, 2.237104665235552700E-016, 0.5000000000000002200 ) ) ;
#564 = DIRECTION ( 'NONE',  ( 0.0000000000000000000, 0.0000000000000000000, 1.000000000000000000 ) ) ;
#565 = CYLINDRICAL_SURFACE ( 'NONE', #562, 1.000000000000000000 ) ;
#566 = FACE_OUTER_BOUND ( 'NONE', #280, .T. ) ;
#567 = CARTESIAN_POINT ( 'NONE',  ( 0.0000000000000000000, 0.0000000000000000000, -8.000000000000000000 ) ) ;
#568 = DIRECTION ( 'NONE',  ( 1.000000000000000000, 0.0000000000000000000, 0.0000000000000000000 ) ) ;
#569 = DIRECTION ( 'NONE',  ( 0.0000000000000000000, 0.0000000000000000000, 1.000000000000000000 ) ) ;
#570 = AXIS2_PLACEMENT_3D ( 'NONE', #573, #569, #568 ) ;
#571 = CYLINDRICAL_SURFACE ( 'NONE', #570, 2.000000000000000000 ) ;
#572 = CIRCLE ( 'NONE', #612, 0.8000000000000020400 ) ;
#573 = CARTESIAN_POINT ( 'NONE',  ( 0.0000000000000000000, 0.0000000000000000000, 15.33464249748237100 ) ) ;
#574 = FACE_OUTER_BOUND ( 'NONE', #305, .T. ) ;
#575 = CARTESIAN_POINT ( 'NONE',  ( 2.000000000000000000, 0.0000000000000000000, 0.0000000000000000000 ) ) ;
#576 = DIRECTION ( 'NONE',  ( 1.000000000000000000, 0.0000000000000000000, 0.0000000000000000000 ) ) ;
#577 = DIRECTION ( 'NONE',  ( 0.0000000000000000000, 0.0000000000000000000, 1.000000000000000000 ) ) ;
#578 = CARTESIAN_POINT ( 'NONE',  ( 0.0000000000000000000, 0.0000000000000000000, 0.0000000000000000000 ) ) ;
#579 = AXIS2_PLACEMENT_3D ( 'NONE', #578, #577, #576 ) ;
#580 = CIRCLE ( 'NONE', #579, 2.000000000000000000 ) ;
#581 = DIRECTION ( 'NONE',  ( 0.0000000000000000000, 0.0000000000000000000, 1.000000000000000000 ) ) ;
#582 = VECTOR ( 'NONE', #581, 1000.000000000000000 ) ;
#583 = CARTESIAN_POINT ( 'NONE',  ( -2.000000000000000000, 2.449212707644754500E-016, 15.33464249748237100 ) ) ;
#584 = LINE ( 'NONE', #583, #582 ) ;
#585 = DIRECTION ( 'NONE',  ( 0.0000000000000000000, 0.0000000000000000000, 1.000000000000000000 ) ) ;
#586 = VECTOR ( 'NONE', #585, 1000.000000000000000 ) ;
#587 = CARTESIAN_POINT ( 'NONE',  ( -1.000000000000000000, 1.224606353822377300E-016, 15.33464249748237100 ) ) ;
#588 = LINE ( 'NONE', #587, #586 ) ;
#589 = DIRECTION ( 'NONE',  ( 1.000000000000000000, 0.0000000000000000000, 0.0000000000000000000 ) ) ;
#590 = DIRECTION ( 'NONE',  ( 0.0000000000000000000, 0.0000000000000000000, 1.000000000000000000 ) ) ;
#591 = CARTESIAN_POINT ( 'NONE',  ( 0.0000000000000000000, 0.0000000000000000000, 0.0000000000000000000 ) ) ;
#592 = AXIS2_PLACEMENT_3D ( 'NONE', #591, #590, #589 ) ;
#593 = CIRCLE ( 'NONE', #592, 1.000000000000000000 ) ;
#594 = CARTESIAN_POINT ( 'NONE',  ( -1.000000000000000000, 1.224606353822377300E-016, 0.0000000000000000000 ) ) ;
#595 = CARTESIAN_POINT ( 'NONE',  ( 1.000000000000000000, 0.0000000000000000000, 0.0000000000000000000 ) ) ;
#596 = DIRECTION ( 'NONE',  ( 0.0000000000000000000, 0.0000000000000000000, 1.000000000000000000 ) ) ;
#597 = VECTOR ( 'NONE', #596, 1000.000000000000000 ) ;
#598 = CARTESIAN_POINT ( 'NONE',  ( 1.000000000000000000, 0.0000000000000000000, 15.33464249748237100 ) ) ;
#599 = LINE ( 'NONE', #598, #597 ) ;
#600 = DIRECTION ( 'NONE',  ( 1.000000000000000000, 0.0000000000000000000, 0.0000000000000000000 ) ) ;
#601 = DIRECTION ( 'NONE',  ( 0.0000000000000000000, 0.0000000000000000000, 1.000000000000000000 ) ) ;
#602 = CARTESIAN_POINT ( 'NONE',  ( 0.0000000000000000000, 1.000000000000000000, -8.000000000000000000 ) ) ;
#603 = AXIS2_PLACEMENT_3D ( 'NONE', #602, #601, #600 ) ;
#604 = PLANE ( 'NONE',  #603 ) ;
#605 = FACE_OUTER_BOUND ( 'NONE', #310, .T. ) ;
#606 = DIRECTION ( 'NONE',  ( -0.8660254037844376000, 0.0000000000000000000, -0.5000000000000017800 ) ) ;
#607 = VECTOR ( 'NONE', #606, 1000.000000000000100 ) ;
#608 = CARTESIAN_POINT ( 'NONE',  ( -1.653589838486225300, 0.0000000000000000000, 0.5000000000000004400 ) ) ;
#609 = LINE ( 'NONE', #608, #607 ) ;
#610 = DIRECTION ( 'NONE',  ( 1.000000000000000000, 0.0000000000000000000, 0.0000000000000000000 ) ) ;
#611 = DIRECTION ( 'NONE',  ( 0.0000000000000000000, 0.0000000000000000000, -1.000000000000000000 ) ) ;
#612 = AXIS2_PLACEMENT_3D ( 'NONE', #567, #611, #610 ) ;
#613 = CARTESIAN_POINT ( 'NONE',  ( 0.0000000000000000000, 0.0000000000000000000, 15.33464249748237100 ) ) ;
#614 = VERTEX_POINT ( 'NONE', #144 ) ;
#615 = ORIENTED_EDGE ( 'NONE', *, *, #631, .T. ) ;
#616 = VERTEX_POINT ( 'NONE', #145 ) ;
#617 = EDGE_CURVE ( 'NONE', #614, #393, #114, .T. ) ;
#618 = EDGE_CURVE ( 'NONE', #614, #676, #139, .T. ) ;
#619 = ORIENTED_EDGE ( 'NONE', *, *, #342, .T. ) ;
#620 = EDGE_LOOP ( 'NONE', ( #619, #621, #326, #349 ) ) ;
#621 = ORIENTED_EDGE ( 'NONE', *, *, #626, .F. ) ;
#622 = VERTEX_POINT ( 'NONE', #123 ) ;
#623 = ADVANCED_FACE ( 'NONE', ( #122 ), #121, .F. ) ;
#624 = ORIENTED_EDGE ( 'NONE', *, *, #691, .T. ) ;
#625 = ORIENTED_EDGE ( 'NONE', *, *, #626, .T. ) ;
#626 = EDGE_CURVE ( 'NONE', #616, #332, #120, .T. ) ;
#627 = EDGE_LOOP ( 'NONE', ( #624, #637, #636, #615 ) ) ;
#628 = EDGE_LOOP ( 'NONE', ( #634, #629, #633, #625 ) ) ;
#629 = ORIENTED_EDGE ( 'NONE', *, *, #631, .F. ) ;
#630 = EDGE_CURVE ( 'NONE', #616, #622, #132, .T. ) ;
#631 = EDGE_CURVE ( 'NONE', #622, #334, #117, .T. ) ;
#632 = ADVANCED_FACE ( 'NONE', ( #124 ), #131, .F. ) ;
#633 = ORIENTED_EDGE ( 'NONE', *, *, #630, .F. ) ;
#634 = ORIENTED_EDGE ( 'NONE', *, *, #324, .T. ) ;
#635 = EDGE_CURVE ( 'NONE', #393, #704, #103, .T. ) ;
#636 = ORIENTED_EDGE ( 'NONE', *, *, #638, .F. ) ;
#637 = ORIENTED_EDGE ( 'NONE', *, *, #640, .F. ) ;
#638 = EDGE_CURVE ( 'NONE', #622, #642, #143, .T. ) ;
#639 = ADVANCED_FACE ( 'NONE', ( #89 ), #96, .F. ) ;
#640 = EDGE_CURVE ( 'NONE', #642, #695, #92, .T. ) ;
#641 = ORIENTED_EDGE ( 'NONE', *, *, #640, .T. ) ;
#642 = VERTEX_POINT ( 'NONE', #152 ) ;
#643 = ORIENTED_EDGE ( 'NONE', *, *, #645, .F. ) ;
#644 = ORIENTED_EDGE ( 'NONE', *, *, #687, .F. ) ;
#645 = EDGE_CURVE ( 'NONE', #642, #658, #157, .T. ) ;
#646 = ADVANCED_FACE ( 'NONE', ( #153 ), #150, .F. ) ;
#647 = EDGE_LOOP ( 'NONE', ( #648, #644, #643, #641 ) ) ;
#648 = ORIENTED_EDGE ( 'NONE', *, *, #694, .T. ) ;
#649 = ADVANCED_FACE ( 'NONE', ( #209 ), #258, .F. ) ;
#650 = ORIENTED_EDGE ( 'NONE', *, *, #617, .F. ) ;
#651 = ORIENTED_EDGE ( 'NONE', *, *, #635, .F. ) ;
#652 = ORIENTED_EDGE ( 'NONE', *, *, #705, .T. ) ;
#653 = ORIENTED_EDGE ( 'NONE', *, *, #618, .T. ) ;
#654 = ADVANCED_FACE ( 'NONE', ( #253 ), #216, .F. ) ;
#655 = ORIENTED_EDGE ( 'NONE', *, *, #696, .T. ) ;
#656 = ORIENTED_EDGE ( 'NONE', *, *, #657, .F. ) ;
#657 = EDGE_CURVE ( 'NONE', #658, #674, #211, .T. ) ;
#658 = VERTEX_POINT ( 'NONE', #191 ) ;
#659 = ORIENTED_EDGE ( 'NONE', *, *, #660, .T. ) ;
#660 = EDGE_CURVE ( 'NONE', #297, #296, #190, .T. ) ;
#661 = ORIENTED_EDGE ( 'NONE', *, *, #290, .T. ) ;
#662 = ORIENTED_EDGE ( 'NONE', *, *, #283, .F. ) ;
#663 = ORIENTED_EDGE ( 'NONE', *, *, #660, .F. ) ;
#664 = ORIENTED_EDGE ( 'NONE', *, *, #311, .T. ) ;
#665 = ORIENTED_EDGE ( 'NONE', *, *, #370, .F. ) ;
#666 = EDGE_LOOP ( 'NONE', ( #667, #668, #671, #675 ) ) ;
#667 = ORIENTED_EDGE ( 'NONE', *, *, #703, .T. ) ;
#668 = ORIENTED_EDGE ( 'NONE', *, *, #669, .F. ) ;
#669 = EDGE_CURVE ( 'NONE', #670, #697, #185, .T. ) ;
#670 = VERTEX_POINT ( 'NONE', #181 ) ;
#671 = ORIENTED_EDGE ( 'NONE', *, *, #673, .F. ) ;
#672 = ADVANCED_FACE ( 'NONE', ( #180 ), #179, .F. ) ;
#673 = EDGE_CURVE ( 'NONE', #674, #670, #174, .T. ) ;
#674 = VERTEX_POINT ( 'NONE', #170 ) ;
#675 = ORIENTED_EDGE ( 'NONE', *, *, #683, .T. ) ;
#676 = VERTEX_POINT ( 'NONE', #169 ) ;
#677 = ORIENTED_EDGE ( 'NONE', *, *, #678, .F. ) ;
#678 = EDGE_CURVE ( 'NONE', #679, #676, #168, .T. ) ;
#679 = VERTEX_POINT ( 'NONE', #164 ) ;
#680 = ORIENTED_EDGE ( 'NONE', *, *, #681, .F. ) ;
#681 = EDGE_CURVE ( 'NONE', #702, #679, #163, .T. ) ;
#682 = EDGE_LOOP ( 'NONE', ( #659, #661 ) ) ;
#683 = EDGE_CURVE ( 'NONE', #674, #701, #206, .T. ) ;
#684 = EDGE_LOOP ( 'NONE', ( #655, #689, #656, #688 ) ) ;
#685 = ADVANCED_FACE ( 'NONE', ( #202 ), #200, .T. ) ;
#686 = EDGE_LOOP ( 'NONE', ( #662, #663, #664, #665 ) ) ;
#687 = EDGE_CURVE ( 'NONE', #658, #700, #201, .T. ) ;
#688 = ORIENTED_EDGE ( 'NONE', *, *, #687, .T. ) ;
#689 = ORIENTED_EDGE ( 'NONE', *, *, #683, .F. ) ;
#690 = EDGE_LOOP ( 'NONE', ( #652, #651, #650, #653 ) ) ;
#691 = EDGE_CURVE ( 'NONE', #334, #695, #251, .T. ) ;
#692 = ORIENTED_EDGE ( 'NONE', *, *, #691, .F. ) ;
#693 = ORIENTED_EDGE ( 'NONE', *, *, #694, .F. ) ;
#694 = EDGE_CURVE ( 'NONE', #695, #700, #247, .T. ) ;
#695 = VERTEX_POINT ( 'NONE', #243 ) ;
#696 = EDGE_CURVE ( 'NONE', #700, #701, #242, .T. ) ;
#697 = VERTEX_POINT ( 'NONE', #238 ) ;
#698 = ORIENTED_EDGE ( 'NONE', *, *, #703, .F. ) ;
#699 = ORIENTED_EDGE ( 'NONE', *, *, #696, .F. ) ;
#700 = VERTEX_POINT ( 'NONE', #237 ) ;
#701 = VERTEX_POINT ( 'NONE', #236 ) ;
#702 = VERTEX_POINT ( 'NONE', #235 ) ;
#703 = EDGE_CURVE ( 'NONE', #701, #697, #234, .T. ) ;
#704 = VERTEX_POINT ( 'NONE', #230 ) ;
#705 = EDGE_CURVE ( 'NONE', #676, #704, #229, .T. ) ;
#706 = ORIENTED_EDGE ( 'NONE', *, *, #705, .F. ) ;
#707 = EDGE_CURVE ( 'NONE', #697, #702, #225, .T. ) ;
#708 = ORIENTED_EDGE ( 'NONE', *, *, #707, .F. ) ;
#709 = ORIENTED_EDGE ( 'NONE', *, *, #710, .F. ) ;
#710 = EDGE_CURVE ( 'NONE', #704, #711, #221, .T. ) ;
#711 = VERTEX_POINT ( 'NONE', #217 ) ;
ENDSEC;
END-ISO-10303-21;
