ISO-10303-21;
HEADER;
FILE_DESCRIPTION (( 'STEP AP203' ),
    '1' );
FILE_NAME ('CSPSL-ST3W-M2-8_203.STEP',
    '2014-03-10T09:04:34',
    ( 'guan-li' ),
    ( '' ),
    'SwSTEP 2.0',
    'SolidWorks 2007',
    '' );
FILE_SCHEMA (( 'CONFIG_CONTROL_DESIGN' ));
ENDSEC;

DATA;
#1 = ORIENTED_EDGE ( 'NONE', *, *, #4, .F. ) ;
#2 = ORIENTED_EDGE ( 'NONE', *, *, #634, .F. ) ;
#3 = ORIENTED_EDGE ( 'NONE', *, *, #719, .T. ) ;
#4 = EDGE_CURVE ( 'NONE', #23, #744, #38, .T. ) ;
#5 = ADVANCED_FACE ( 'NONE', ( #34 ), #33, .F. ) ;
#6 = FACE_OUTER_BOUND ( 'NONE', #525, .T. ) ;
#7 = DIRECTION ( 'NONE',  ( 0.0000000000000000000, 0.0000000000000000000, 1.000000000000000000 ) ) ;
#8 = VECTOR ( 'NONE', #7, 1000.000000000000000 ) ;
#9 = CARTESIAN_POINT ( 'NONE',  ( -0.1250000000000003300, 0.1250000000000001100, -0.1999999999999997600 ) ) ;
#10 = LINE ( 'NONE', #9, #8 ) ;
#11 = DIRECTION ( 'NONE',  ( -2.891205793294679300E-016, 1.000000000000000000, 0.0000000000000000000 ) ) ;
#12 = VECTOR ( 'NONE', #11, 1000.000000000000000 ) ;
#13 = CARTESIAN_POINT ( 'NONE',  ( 0.1249999999999997900, 0.1250000000000001100, -0.1999999999999997600 ) ) ;
#14 = LINE ( 'NONE', #13, #12 ) ;
#15 = DIRECTION ( 'NONE',  ( 0.0000000000000000000, 0.0000000000000000000, 1.000000000000000000 ) ) ;
#16 = DIRECTION ( 'NONE',  ( 0.0000000000000000000, 1.000000000000000000, 0.0000000000000000000 ) ) ;
#17 = CARTESIAN_POINT ( 'NONE',  ( 0.1249999999999996800, 0.5000000000000000000, -0.1999999999999997600 ) ) ;
#18 = AXIS2_PLACEMENT_3D ( 'NONE', #17, #16, #15 ) ;
#19 = PLANE ( 'NONE',  #18 ) ;
#20 = FACE_OUTER_BOUND ( 'NONE', #524, .T. ) ;
#21 = CARTESIAN_POINT ( 'NONE',  ( -0.1250000000000003300, 0.1250000000000001100, -0.1999999999999997600 ) ) ;
#22 = DIRECTION ( 'NONE',  ( -1.000000000000000000, 0.0000000000000000000, 0.0000000000000000000 ) ) ;
#23 = VERTEX_POINT ( 'NONE', #27 ) ;
#24 = VECTOR ( 'NONE', #22, 1000.000000000000000 ) ;
#25 = CARTESIAN_POINT ( 'NONE',  ( -0.1250000000000003300, 0.1250000000000001100, -0.1999999999999997600 ) ) ;
#26 = LINE ( 'NONE', #25, #24 ) ;
#27 = CARTESIAN_POINT ( 'NONE',  ( -0.5000000000000002200, 0.1250000000000001100, -0.1999999999999997600 ) ) ;
#28 = ORIENTED_EDGE ( 'NONE', *, *, #648, .T. ) ;
#29 = DIRECTION ( 'NONE',  ( 0.0000000000000000000, 0.0000000000000000000, 1.000000000000000000 ) ) ;
#30 = DIRECTION ( 'NONE',  ( 0.0000000000000000000, 1.000000000000000000, 0.0000000000000000000 ) ) ;
#31 = CARTESIAN_POINT ( 'NONE',  ( -0.1250000000000003300, 0.1250000000000001100, -0.1999999999999997600 ) ) ;
#32 = AXIS2_PLACEMENT_3D ( 'NONE', #31, #30, #29 ) ;
#33 = PLANE ( 'NONE',  #32 ) ;
#34 = FACE_OUTER_BOUND ( 'NONE', #450, .T. ) ;
#35 = DIRECTION ( 'NONE',  ( 0.0000000000000000000, 0.0000000000000000000, 1.000000000000000000 ) ) ;
#36 = VECTOR ( 'NONE', #35, 1000.000000000000000 ) ;
#37 = CARTESIAN_POINT ( 'NONE',  ( -0.5000000000000002200, 0.1250000000000001100, -0.1999999999999997600 ) ) ;
#38 = LINE ( 'NONE', #37, #36 ) ;
#39 = DIRECTION ( 'NONE',  ( 0.0000000000000000000, 0.0000000000000000000, 1.000000000000000000 ) ) ;
#40 = VECTOR ( 'NONE', #39, 1000.000000000000000 ) ;
#41 = CARTESIAN_POINT ( 'NONE',  ( -0.1250000000000003300, 0.5000000000000000000, -0.1999999999999997600 ) ) ;
#42 = LINE ( 'NONE', #41, #40 ) ;
#43 = ORIENTED_EDGE ( 'NONE', *, *, #745, .F. ) ;
#44 = CARTESIAN_POINT ( 'NONE',  ( 0.1249999999999997900, 0.1250000000000001100, -0.1999999999999997600 ) ) ;
#45 = DIRECTION ( 'NONE',  ( 0.0000000000000000000, 0.0000000000000000000, 1.000000000000000000 ) ) ;
#46 = VECTOR ( 'NONE', #45, 1000.000000000000000 ) ;
#47 = CARTESIAN_POINT ( 'NONE',  ( 0.1249999999999996800, 0.5000000000000000000, -0.1999999999999997600 ) ) ;
#48 = LINE ( 'NONE', #47, #46 ) ;
#49 = DIRECTION ( 'NONE',  ( 0.0000000000000000000, 0.0000000000000000000, 1.000000000000000000 ) ) ;
#50 = DIRECTION ( 'NONE',  ( -1.000000000000000000, 0.0000000000000000000, 0.0000000000000000000 ) ) ;
#51 = CARTESIAN_POINT ( 'NONE',  ( -0.1250000000000003300, 0.5000000000000000000, -0.1999999999999997600 ) ) ;
#52 = AXIS2_PLACEMENT_3D ( 'NONE', #51, #50, #49 ) ;
#53 = PLANE ( 'NONE',  #52 ) ;
#54 = FACE_OUTER_BOUND ( 'NONE', #531, .T. ) ;
#55 = DIRECTION ( 'NONE',  ( 0.0000000000000000000, -1.000000000000000000, 0.0000000000000000000 ) ) ;
#56 = VECTOR ( 'NONE', #55, 1000.000000000000000 ) ;
#57 = CARTESIAN_POINT ( 'NONE',  ( -0.1250000000000003300, 0.5000000000000000000, -0.1999999999999997600 ) ) ;
#58 = LINE ( 'NONE', #57, #56 ) ;
#59 = CARTESIAN_POINT ( 'NONE',  ( -0.1250000000000003300, 0.5000000000000000000, -0.1999999999999997600 ) ) ;
#60 = CARTESIAN_POINT ( 'NONE',  ( 0.1249999999999996800, 0.5000000000000000000, -0.1999999999999997600 ) ) ;
#61 = DIRECTION ( 'NONE',  ( 0.0000000000000000000, 0.0000000000000000000, 1.000000000000000000 ) ) ;
#62 = VECTOR ( 'NONE', #61, 1000.000000000000000 ) ;
#63 = CARTESIAN_POINT ( 'NONE',  ( 0.1249999999999997900, 0.1250000000000001100, -0.1999999999999997600 ) ) ;
#64 = LINE ( 'NONE', #63, #62 ) ;
#65 = DIRECTION ( 'NONE',  ( -1.000000000000000000, 0.0000000000000000000, 0.0000000000000000000 ) ) ;
#66 = VECTOR ( 'NONE', #65, 1000.000000000000000 ) ;
#67 = CARTESIAN_POINT ( 'NONE',  ( 0.1249999999999996800, 0.5000000000000000000, -0.1999999999999997600 ) ) ;
#68 = LINE ( 'NONE', #67, #66 ) ;
#69 = DIRECTION ( 'NONE',  ( -2.891205793294679300E-016, 1.000000000000000000, 0.0000000000000000000 ) ) ;
#70 = DIRECTION ( 'NONE',  ( 1.000000000000000000, 2.891205793294679300E-016, 0.0000000000000000000 ) ) ;
#71 = CARTESIAN_POINT ( 'NONE',  ( 0.1249999999999997900, 0.1250000000000001100, -0.1999999999999997600 ) ) ;
#72 = AXIS2_PLACEMENT_3D ( 'NONE', #71, #70, #69 ) ;
#73 = PLANE ( 'NONE',  #72 ) ;
#74 = PLANE ( 'NONE',  #139 ) ;
#75 = FACE_OUTER_BOUND ( 'NONE', #299, .T. ) ;
#76 = CARTESIAN_POINT ( 'NONE',  ( 0.4999999999999997800, -0.1249999999999996300, -0.1999999999999997600 ) ) ;
#77 = DIRECTION ( 'NONE',  ( 0.0000000000000000000, 0.0000000000000000000, 1.000000000000000000 ) ) ;
#78 = VECTOR ( 'NONE', #77, 1000.000000000000000 ) ;
#79 = CARTESIAN_POINT ( 'NONE',  ( 0.4999999999999995600, 0.1250000000000001100, -0.1999999999999997600 ) ) ;
#80 = LINE ( 'NONE', #79, #78 ) ;
#81 = DIRECTION ( 'NONE',  ( 0.0000000000000000000, 0.0000000000000000000, 1.000000000000000000 ) ) ;
#82 = VECTOR ( 'NONE', #81, 1000.000000000000000 ) ;
#83 = CARTESIAN_POINT ( 'NONE',  ( 0.4999999999999997800, -0.1249999999999996300, -0.1999999999999997600 ) ) ;
#84 = LINE ( 'NONE', #83, #82 ) ;
#85 = DIRECTION ( 'NONE',  ( -8.673617379884045300E-016, 1.000000000000000000, 0.0000000000000000000 ) ) ;
#86 = DIRECTION ( 'NONE',  ( 1.000000000000000000, 8.673617379884045300E-016, 0.0000000000000000000 ) ) ;
#87 = CARTESIAN_POINT ( 'NONE',  ( 0.4999999999999997800, -0.1249999999999996300, -0.1999999999999997600 ) ) ;
#88 = AXIS2_PLACEMENT_3D ( 'NONE', #87, #86, #85 ) ;
#89 = PLANE ( 'NONE',  #88 ) ;
#90 = FACE_OUTER_BOUND ( 'NONE', #565, .T. ) ;
#91 = DIRECTION ( 'NONE',  ( -8.673617379884044300E-016, 1.000000000000000000, 0.0000000000000000000 ) ) ;
#92 = VECTOR ( 'NONE', #91, 1000.000000000000000 ) ;
#93 = CARTESIAN_POINT ( 'NONE',  ( 0.4999999999999997800, -0.1249999999999996300, -0.1999999999999997600 ) ) ;
#94 = LINE ( 'NONE', #93, #92 ) ;
#95 = DIRECTION ( 'NONE',  ( -1.000000000000000000, 0.0000000000000000000, 0.0000000000000000000 ) ) ;
#96 = VECTOR ( 'NONE', #95, 1000.000000000000000 ) ;
#97 = CARTESIAN_POINT ( 'NONE',  ( 0.4999999999999995600, 0.1250000000000001100, -0.1999999999999997600 ) ) ;
#98 = LINE ( 'NONE', #97, #96 ) ;
#99 = DIRECTION ( 'NONE',  ( 0.0000000000000000000, 0.0000000000000000000, 1.000000000000000000 ) ) ;
#100 = DIRECTION ( 'NONE',  ( 0.0000000000000000000, 1.000000000000000000, 0.0000000000000000000 ) ) ;
#101 = CARTESIAN_POINT ( 'NONE',  ( 0.4999999999999995600, 0.1250000000000001100, -0.1999999999999997600 ) ) ;
#102 = AXIS2_PLACEMENT_3D ( 'NONE', #101, #100, #99 ) ;
#103 = PLANE ( 'NONE',  #102 ) ;
#104 = FACE_OUTER_BOUND ( 'NONE', #532, .T. ) ;
#105 = CARTESIAN_POINT ( 'NONE',  ( -0.1250000000000001700, -0.4999999999999995600, -0.1999999999999997600 ) ) ;
#106 = AXIS2_PLACEMENT_3D ( 'NONE', #105, #171, #170 ) ;
#107 = PLANE ( 'NONE',  #106 ) ;
#108 = FACE_OUTER_BOUND ( 'NONE', #593, .T. ) ;
#109 = CARTESIAN_POINT ( 'NONE',  ( -0.1250000000000001700, -0.1249999999999996300, -0.1999999999999997600 ) ) ;
#110 = DIRECTION ( 'NONE',  ( 0.0000000000000000000, 0.0000000000000000000, 1.000000000000000000 ) ) ;
#111 = VECTOR ( 'NONE', #110, 1000.000000000000000 ) ;
#112 = CARTESIAN_POINT ( 'NONE',  ( -0.1250000000000001700, -0.1249999999999996300, -0.1999999999999997600 ) ) ;
#113 = LINE ( 'NONE', #112, #111 ) ;
#114 = EDGE_CURVE ( 'NONE', #332, #23, #26, .T. ) ;
#115 = DIRECTION ( 'NONE',  ( 1.000000000000000000, -5.782411586589360600E-016, 0.0000000000000000000 ) ) ;
#116 = DIRECTION ( 'NONE',  ( -5.782411586589360600E-016, -1.000000000000000000, 0.0000000000000000000 ) ) ;
#117 = CARTESIAN_POINT ( 'NONE',  ( -0.5000000000000000000, -0.1249999999999994000, -0.1999999999999997600 ) ) ;
#118 = AXIS2_PLACEMENT_3D ( 'NONE', #117, #116, #115 ) ;
#119 = PLANE ( 'NONE',  #118 ) ;
#120 = FACE_OUTER_BOUND ( 'NONE', #574, .T. ) ;
#121 = CARTESIAN_POINT ( 'NONE',  ( -0.5000000000000000000, -0.1249999999999994000, -0.1999999999999997600 ) ) ;
#122 = DIRECTION ( 'NONE',  ( 1.000000000000000000, -5.782411586589359600E-016, 0.0000000000000000000 ) ) ;
#123 = VECTOR ( 'NONE', #122, 1000.000000000000000 ) ;
#124 = CARTESIAN_POINT ( 'NONE',  ( -0.5000000000000000000, -0.1249999999999994000, -0.1999999999999997600 ) ) ;
#125 = LINE ( 'NONE', #124, #123 ) ;
#126 = DIRECTION ( 'NONE',  ( 8.673617379884053200E-016, -1.000000000000000000, 0.0000000000000000000 ) ) ;
#127 = DIRECTION ( 'NONE',  ( -1.000000000000000000, -8.673617379884053200E-016, 0.0000000000000000000 ) ) ;
#128 = CARTESIAN_POINT ( 'NONE',  ( -0.5000000000000002200, 0.1250000000000001100, -0.1999999999999997600 ) ) ;
#129 = AXIS2_PLACEMENT_3D ( 'NONE', #128, #127, #126 ) ;
#130 = PLANE ( 'NONE',  #129 ) ;
#131 = FACE_OUTER_BOUND ( 'NONE', #754, .T. ) ;
#132 = DIRECTION ( 'NONE',  ( 0.0000000000000000000, 0.0000000000000000000, 1.000000000000000000 ) ) ;
#133 = VECTOR ( 'NONE', #132, 1000.000000000000000 ) ;
#134 = CARTESIAN_POINT ( 'NONE',  ( -0.5000000000000000000, -0.1249999999999994000, -0.1999999999999997600 ) ) ;
#135 = LINE ( 'NONE', #134, #133 ) ;
#136 = DIRECTION ( 'NONE',  ( 1.000000000000000000, -5.782411586589356700E-016, 0.0000000000000000000 ) ) ;
#137 = DIRECTION ( 'NONE',  ( -5.782411586589356700E-016, -1.000000000000000000, 0.0000000000000000000 ) ) ;
#138 = CARTESIAN_POINT ( 'NONE',  ( 0.1249999999999997900, -0.1249999999999994000, -0.1999999999999997600 ) ) ;
#139 = AXIS2_PLACEMENT_3D ( 'NONE', #138, #137, #136 ) ;
#140 = CARTESIAN_POINT ( 'NONE',  ( -1.653589838486225800, 0.0000000000000000000, 0.5000000000000002200 ) ) ;
#141 = CARTESIAN_POINT ( 'NONE',  ( 0.1249999999999996300, -0.4999999999999995600, 0.5000000000000002200 ) ) ;
#142 = DIRECTION ( 'NONE',  ( 1.000000000000000000, 0.0000000000000000000, 0.0000000000000000000 ) ) ;
#143 = VECTOR ( 'NONE', #142, 1000.000000000000000 ) ;
#144 = CARTESIAN_POINT ( 'NONE',  ( -0.1250000000000001700, -0.4999999999999995600, -0.1999999999999997600 ) ) ;
#145 = LINE ( 'NONE', #144, #143 ) ;
#146 = DIRECTION ( 'NONE',  ( 0.0000000000000000000, 0.0000000000000000000, 1.000000000000000000 ) ) ;
#147 = VECTOR ( 'NONE', #146, 1000.000000000000000 ) ;
#148 = CARTESIAN_POINT ( 'NONE',  ( -0.1250000000000001700, -0.4999999999999995600, -0.1999999999999997600 ) ) ;
#149 = LINE ( 'NONE', #148, #147 ) ;
#150 = DIRECTION ( 'NONE',  ( 0.0000000000000000000, 0.0000000000000000000, 1.000000000000000000 ) ) ;
#151 = DIRECTION ( 'NONE',  ( -1.000000000000000000, 0.0000000000000000000, 0.0000000000000000000 ) ) ;
#152 = CARTESIAN_POINT ( 'NONE',  ( -0.1250000000000001700, -0.1249999999999996300, -0.1999999999999997600 ) ) ;
#153 = AXIS2_PLACEMENT_3D ( 'NONE', #152, #151, #150 ) ;
#154 = PLANE ( 'NONE',  #153 ) ;
#155 = FACE_OUTER_BOUND ( 'NONE', #603, .T. ) ;
#156 = DIRECTION ( 'NONE',  ( 1.000000000000000000, 0.0000000000000000000, 0.0000000000000000000 ) ) ;
#157 = DIRECTION ( 'NONE',  ( 0.0000000000000000000, 0.0000000000000000000, 1.000000000000000000 ) ) ;
#158 = CARTESIAN_POINT ( 'NONE',  ( -0.1250000000000001700, 0.1250000000000001100, -0.1999999999999997600 ) ) ;
#159 = AXIS2_PLACEMENT_3D ( 'NONE', #158, #157, #156 ) ;
#160 = PLANE ( 'NONE',  #159 ) ;
#161 = FACE_OUTER_BOUND ( 'NONE', #579, .T. ) ;
#162 = DIRECTION ( 'NONE',  ( 0.0000000000000000000, -1.000000000000000000, 0.0000000000000000000 ) ) ;
#163 = VECTOR ( 'NONE', #162, 1000.000000000000000 ) ;
#164 = CARTESIAN_POINT ( 'NONE',  ( -0.1250000000000001700, -0.1249999999999996300, -0.1999999999999997600 ) ) ;
#165 = LINE ( 'NONE', #164, #163 ) ;
#166 = DIRECTION ( 'NONE',  ( 8.673617379884052200E-016, -1.000000000000000000, 0.0000000000000000000 ) ) ;
#167 = VECTOR ( 'NONE', #166, 1000.000000000000000 ) ;
#168 = CARTESIAN_POINT ( 'NONE',  ( -0.5000000000000002200, 0.1250000000000001100, -0.1999999999999997600 ) ) ;
#169 = LINE ( 'NONE', #168, #167 ) ;
#170 = DIRECTION ( 'NONE',  ( 0.0000000000000000000, 0.0000000000000000000, -1.000000000000000000 ) ) ;
#171 = DIRECTION ( 'NONE',  ( 0.0000000000000000000, -1.000000000000000000, 0.0000000000000000000 ) ) ;
#172 = CARTESIAN_POINT ( 'NONE',  ( 0.8000000000000020400, 0.0000000000000000000, -8.000000000000000000 ) ) ;
#173 = CARTESIAN_POINT ( 'NONE',  ( -1.000000000000000000, 1.224606353822377300E-016, -7.800000000000001600 ) ) ;
#174 = DIRECTION ( 'NONE',  ( -0.7071067811865460200, 8.659274570719335700E-017, 0.7071067811865489100 ) ) ;
#175 = VECTOR ( 'NONE', #174, 1000.000000000000100 ) ;
#176 = CARTESIAN_POINT ( 'NONE',  ( -1.000000000000000000, 1.224606353822377300E-016, -7.800000000000001600 ) ) ;
#177 = LINE ( 'NONE', #176, #175 ) ;
#178 = CARTESIAN_POINT ( 'NONE',  ( 1.000000000000000000, 0.0000000000000000000, -7.800000000000001600 ) ) ;
#179 = DIRECTION ( 'NONE',  ( -1.000000000000000000, 0.0000000000000000000, 0.0000000000000000000 ) ) ;
#180 = DIRECTION ( 'NONE',  ( 0.0000000000000000000, 0.0000000000000000000, -1.000000000000000000 ) ) ;
#181 = AXIS2_PLACEMENT_3D ( 'NONE', #183, #180, #179 ) ;
#182 = CONICAL_SURFACE ( 'NONE', #181, 1.653589838486225300, 1.047197551196595600 ) ;
#183 = CARTESIAN_POINT ( 'NONE',  ( 0.0000000000000000000, 0.0000000000000000000, 0.5000000000000004400 ) ) ;
#184 = DIRECTION ( 'NONE',  ( -1.000000000000000000, 0.0000000000000000000, 0.0000000000000000000 ) ) ;
#185 = DIRECTION ( 'NONE',  ( 0.0000000000000000000, 0.0000000000000000000, 1.000000000000000000 ) ) ;
#186 = CARTESIAN_POINT ( 'NONE',  ( 0.0000000000000000000, 0.0000000000000000000, 0.5000000000000002200 ) ) ;
#187 = AXIS2_PLACEMENT_3D ( 'NONE', #186, #185, #184 ) ;
#188 = CIRCLE ( 'NONE', #187, 1.653589838486225800 ) ;
#189 = FACE_OUTER_BOUND ( 'NONE', #612, .T. ) ;
#190 = CARTESIAN_POINT ( 'NONE',  ( 1.653589838486225800, 2.237104665235552700E-016, 0.5000000000000002200 ) ) ;
#191 = DIRECTION ( 'NONE',  ( 1.000000000000000000, 0.0000000000000000000, 0.0000000000000000000 ) ) ;
#192 = DIRECTION ( 'NONE',  ( 0.0000000000000000000, 0.0000000000000000000, 1.000000000000000000 ) ) ;
#193 = CARTESIAN_POINT ( 'NONE',  ( 0.0000000000000000000, 0.0000000000000000000, -7.800000000000001600 ) ) ;
#194 = AXIS2_PLACEMENT_3D ( 'NONE', #193, #192, #191 ) ;
#195 = CIRCLE ( 'NONE', #194, 1.000000000000000000 ) ;
#196 = DIRECTION ( 'NONE',  ( 1.000000000000000000, 0.0000000000000000000, 0.0000000000000000000 ) ) ;
#197 = DIRECTION ( 'NONE',  ( 0.0000000000000000000, 0.0000000000000000000, -1.000000000000000000 ) ) ;
#198 = CARTESIAN_POINT ( 'NONE',  ( 0.0000000000000000000, 0.0000000000000000000, -8.000000000000000000 ) ) ;
#199 = AXIS2_PLACEMENT_3D ( 'NONE', #198, #197, #196 ) ;
#200 = CIRCLE ( 'NONE', #199, 0.8000000000000020400 ) ;
#201 = DIRECTION ( 'NONE',  ( 0.7071067811865460200, 0.0000000000000000000, 0.7071067811865489100 ) ) ;
#202 = VECTOR ( 'NONE', #201, 1000.000000000000100 ) ;
#203 = CARTESIAN_POINT ( 'NONE',  ( 1.000000000000000000, 0.0000000000000000000, -7.800000000000001600 ) ) ;
#204 = LINE ( 'NONE', #203, #202 ) ;
#205 = CYLINDRICAL_SURFACE ( 'NONE', #265, 2.000000000000000000 ) ;
#206 = FACE_OUTER_BOUND ( 'NONE', #649, .T. ) ;
#207 = DIRECTION ( 'NONE',  ( 1.000000000000000000, 0.0000000000000000000, 0.0000000000000000000 ) ) ;
#208 = VECTOR ( 'NONE', #207, 1000.000000000000000 ) ;
#209 = CARTESIAN_POINT ( 'NONE',  ( -0.1250000000000001700, -0.4999999999999995600, 0.5000000000000002200 ) ) ;
#210 = LINE ( 'NONE', #209, #208 ) ;
#211 = DIRECTION ( 'NONE',  ( 0.0000000000000000000, -1.000000000000000000, 0.0000000000000000000 ) ) ;
#212 = VECTOR ( 'NONE', #211, 1000.000000000000000 ) ;
#213 = CARTESIAN_POINT ( 'NONE',  ( -0.1250000000000001700, -0.1249999999999996300, 0.5000000000000002200 ) ) ;
#214 = LINE ( 'NONE', #213, #212 ) ;
#215 = DIRECTION ( 'NONE',  ( 4.336808689942015800E-016, 1.000000000000000000, 0.0000000000000000000 ) ) ;
#216 = VECTOR ( 'NONE', #215, 1000.000000000000000 ) ;
#217 = CARTESIAN_POINT ( 'NONE',  ( 0.1249999999999996300, -0.4999999999999995600, 0.5000000000000002200 ) ) ;
#218 = LINE ( 'NONE', #217, #216 ) ;
#219 = CARTESIAN_POINT ( 'NONE',  ( -0.1250000000000001700, -0.1249999999999996300, 0.5000000000000002200 ) ) ;
#220 = CARTESIAN_POINT ( 'NONE',  ( -0.1250000000000001700, -0.4999999999999995600, 0.5000000000000002200 ) ) ;
#221 = DIRECTION ( 'NONE',  ( 1.000000000000000000, -5.782411586589359600E-016, 0.0000000000000000000 ) ) ;
#222 = VECTOR ( 'NONE', #221, 1000.000000000000000 ) ;
#223 = CARTESIAN_POINT ( 'NONE',  ( -0.5000000000000000000, -0.1249999999999994000, 0.5000000000000002200 ) ) ;
#224 = LINE ( 'NONE', #223, #222 ) ;
#225 = DIRECTION ( 'NONE',  ( -1.000000000000000000, 0.0000000000000000000, 0.0000000000000000000 ) ) ;
#226 = DIRECTION ( 'NONE',  ( 0.0000000000000000000, 0.0000000000000000000, 1.000000000000000000 ) ) ;
#227 = CARTESIAN_POINT ( 'NONE',  ( 0.0000000000000000000, 0.0000000000000000000, 0.5000000000000002200 ) ) ;
#228 = AXIS2_PLACEMENT_3D ( 'NONE', #227, #226, #225 ) ;
#229 = CIRCLE ( 'NONE', #228, 1.653589838486225800 ) ;
#230 = DIRECTION ( 'NONE',  ( 1.000000000000000000, -5.782411586589356700E-016, 0.0000000000000000000 ) ) ;
#231 = VECTOR ( 'NONE', #230, 1000.000000000000000 ) ;
#232 = CARTESIAN_POINT ( 'NONE',  ( 0.1249999999999997900, -0.1249999999999994000, 0.5000000000000002200 ) ) ;
#233 = LINE ( 'NONE', #232, #231 ) ;
#234 = CARTESIAN_POINT ( 'NONE',  ( 0.1249999999999997900, -0.1249999999999994000, 0.5000000000000002200 ) ) ;
#235 = CARTESIAN_POINT ( 'NONE',  ( -0.8000000000000020400, 1.102145718440140800E-016, -8.000000000000000000 ) ) ;
#236 = DIRECTION ( 'NONE',  ( 1.000000000000000000, 0.0000000000000000000, 0.0000000000000000000 ) ) ;
#237 = DIRECTION ( 'NONE',  ( 0.0000000000000000000, 0.0000000000000000000, 1.000000000000000000 ) ) ;
#238 = AXIS2_PLACEMENT_3D ( 'NONE', #245, #237, #236 ) ;
#239 = CYLINDRICAL_SURFACE ( 'NONE', #238, 1.000000000000000000 ) ;
#240 = FACE_OUTER_BOUND ( 'NONE', #664, .T. ) ;
#241 = DIRECTION ( 'NONE',  ( 1.000000000000000000, 0.0000000000000000000, 0.0000000000000000000 ) ) ;
#242 = DIRECTION ( 'NONE',  ( 0.0000000000000000000, 0.0000000000000000000, 1.000000000000000000 ) ) ;
#243 = CARTESIAN_POINT ( 'NONE',  ( 0.0000000000000000000, 0.0000000000000000000, -7.800000000000001600 ) ) ;
#244 = AXIS2_PLACEMENT_3D ( 'NONE', #243, #242, #241 ) ;
#245 = CARTESIAN_POINT ( 'NONE',  ( 0.0000000000000000000, 0.0000000000000000000, 15.33464249748237100 ) ) ;
#246 = CONICAL_SURFACE ( 'NONE', #244, 1.000000000000000000, 0.7853981633974461700 ) ;
#247 = FACE_OUTER_BOUND ( 'NONE', #621, .T. ) ;
#248 = CARTESIAN_POINT ( 'NONE',  ( -2.000000000000000000, 2.449212707644754500E-016, 0.2999999999999999300 ) ) ;
#249 = DIRECTION ( 'NONE',  ( -1.000000000000000000, 0.0000000000000000000, 0.0000000000000000000 ) ) ;
#250 = DIRECTION ( 'NONE',  ( 0.0000000000000000000, 0.0000000000000000000, -1.000000000000000000 ) ) ;
#251 = CARTESIAN_POINT ( 'NONE',  ( 0.0000000000000000000, 0.0000000000000000000, 0.2999999999999999300 ) ) ;
#252 = AXIS2_PLACEMENT_3D ( 'NONE', #251, #250, #249 ) ;
#253 = CIRCLE ( 'NONE', #252, 2.000000000000000000 ) ;
#254 = CARTESIAN_POINT ( 'NONE',  ( 2.000000000000000000, 0.0000000000000000000, 0.2999999999999999300 ) ) ;
#255 = DIRECTION ( 'NONE',  ( 0.8660254037844376000, 1.060540212046012100E-016, -0.5000000000000017800 ) ) ;
#256 = VECTOR ( 'NONE', #255, 1000.000000000000100 ) ;
#257 = CARTESIAN_POINT ( 'NONE',  ( 1.653589838486225300, 2.024996622826350000E-016, 0.5000000000000004400 ) ) ;
#258 = LINE ( 'NONE', #257, #256 ) ;
#259 = DIRECTION ( 'NONE',  ( -0.8660254037844376000, 0.0000000000000000000, -0.5000000000000017800 ) ) ;
#260 = VECTOR ( 'NONE', #259, 1000.000000000000100 ) ;
#261 = CARTESIAN_POINT ( 'NONE',  ( -1.653589838486225300, 0.0000000000000000000, 0.5000000000000004400 ) ) ;
#262 = DIRECTION ( 'NONE',  ( 1.000000000000000000, 0.0000000000000000000, 0.0000000000000000000 ) ) ;
#263 = DIRECTION ( 'NONE',  ( 0.0000000000000000000, 0.0000000000000000000, 1.000000000000000000 ) ) ;
#264 = CARTESIAN_POINT ( 'NONE',  ( 0.0000000000000000000, 0.0000000000000000000, 15.33464249748237100 ) ) ;
#265 = AXIS2_PLACEMENT_3D ( 'NONE', #264, #263, #262 ) ;
#266 = LINE ( 'NONE', #261, #260 ) ;
#267 = FACE_BOUND ( 'NONE', #717, .T. ) ;
#268 = FACE_OUTER_BOUND ( 'NONE', #679, .T. ) ;
#269 = DIRECTION ( 'NONE',  ( 0.0000000000000000000, 0.0000000000000000000, 1.000000000000000000 ) ) ;
#270 = VECTOR ( 'NONE', #269, 1000.000000000000000 ) ;
#271 = CARTESIAN_POINT ( 'NONE',  ( 1.000000000000000000, 0.0000000000000000000, 15.33464249748237100 ) ) ;
#272 = LINE ( 'NONE', #271, #270 ) ;
#273 = DIRECTION ( 'NONE',  ( 1.000000000000000000, 0.0000000000000000000, 0.0000000000000000000 ) ) ;
#274 = DIRECTION ( 'NONE',  ( 0.0000000000000000000, 0.0000000000000000000, 1.000000000000000000 ) ) ;
#275 = CARTESIAN_POINT ( 'NONE',  ( 0.0000000000000000000, 0.0000000000000000000, 0.0000000000000000000 ) ) ;
#276 = AXIS2_PLACEMENT_3D ( 'NONE', #275, #274, #273 ) ;
#277 = CIRCLE ( 'NONE', #276, 2.000000000000000000 ) ;
#278 = DIRECTION ( 'NONE',  ( 1.000000000000000000, 0.0000000000000000000, 0.0000000000000000000 ) ) ;
#279 = DIRECTION ( 'NONE',  ( 0.0000000000000000000, 0.0000000000000000000, 1.000000000000000000 ) ) ;
#280 = CARTESIAN_POINT ( 'NONE',  ( 0.0000000000000000000, 0.0000000000000000000, 0.0000000000000000000 ) ) ;
#281 = AXIS2_PLACEMENT_3D ( 'NONE', #280, #279, #278 ) ;
#282 = CIRCLE ( 'NONE', #281, 1.000000000000000000 ) ;
#283 = CARTESIAN_POINT ( 'NONE',  ( -2.000000000000000000, 2.449212707644754500E-016, 0.0000000000000000000 ) ) ;
#284 = DIRECTION ( 'NONE',  ( 0.0000000000000000000, 0.0000000000000000000, 1.000000000000000000 ) ) ;
#285 = VECTOR ( 'NONE', #284, 1000.000000000000000 ) ;
#286 = CARTESIAN_POINT ( 'NONE',  ( -1.000000000000000000, 1.224606353822377300E-016, 15.33464249748237100 ) ) ;
#287 = LINE ( 'NONE', #286, #285 ) ;
#288 = DIRECTION ( 'NONE',  ( 0.0000000000000000000, 0.0000000000000000000, 1.000000000000000000 ) ) ;
#289 = VECTOR ( 'NONE', #288, 1000.000000000000000 ) ;
#290 = CARTESIAN_POINT ( 'NONE',  ( -2.000000000000000000, 2.449212707644754500E-016, 15.33464249748237100 ) ) ;
#291 = LINE ( 'NONE', #290, #289 ) ;
#292 = ORIENTED_EDGE ( 'NONE', *, *, #114, .F. ) ;
#293 = DIRECTION ( 'NONE',  ( 0.0000000000000000000, 0.0000000000000000000, 1.000000000000000000 ) ) ;
#294 = VECTOR ( 'NONE', #293, 1000.000000000000000 ) ;
#295 = CARTESIAN_POINT ( 'NONE',  ( 2.000000000000000000, 0.0000000000000000000, 15.33464249748237100 ) ) ;
#296 = LINE ( 'NONE', #295, #294 ) ;
#297 = CARTESIAN_POINT ( 'NONE',  ( -1.000000000000000000, 1.224606353822377300E-016, 0.0000000000000000000 ) ) ;
#298 = DIRECTION ( 'NONE',  ( 0.0000000000000000000, 0.0000000000000000000, 1.000000000000000000 ) ) ;
#299 = EDGE_LOOP ( 'NONE', ( #555, #713, #704, #706 ) ) ;
#300 = AXIS2_PLACEMENT_3D ( 'NONE', #306, #298, #362 ) ;
#301 = CIRCLE ( 'NONE', #300, 1.000000000000000000 ) ;
#302 = DIRECTION ( 'NONE',  ( 1.000000000000000000, 0.0000000000000000000, 0.0000000000000000000 ) ) ;
#303 = DIRECTION ( 'NONE',  ( 0.0000000000000000000, 0.0000000000000000000, 1.000000000000000000 ) ) ;
#304 = AXIS2_PLACEMENT_3D ( 'NONE', #307, #303, #302 ) ;
#305 = CYLINDRICAL_SURFACE ( 'NONE', #304, 1.000000000000000000 ) ;
#306 = CARTESIAN_POINT ( 'NONE',  ( 0.0000000000000000000, 0.0000000000000000000, -7.800000000000001600 ) ) ;
#307 = CARTESIAN_POINT ( 'NONE',  ( 0.0000000000000000000, 0.0000000000000000000, 15.33464249748237100 ) ) ;
#308 = DIRECTION ( 'NONE',  ( 1.000000000000000000, 0.0000000000000000000, 0.0000000000000000000 ) ) ;
#309 = DIRECTION ( 'NONE',  ( 0.0000000000000000000, 0.0000000000000000000, 1.000000000000000000 ) ) ;
#310 = CARTESIAN_POINT ( 'NONE',  ( 0.0000000000000000000, 1.000000000000000000, -8.000000000000000000 ) ) ;
#311 = AXIS2_PLACEMENT_3D ( 'NONE', #310, #309, #308 ) ;
#312 = FACE_OUTER_BOUND ( 'NONE', #689, .T. ) ;
#313 = PLANE ( 'NONE',  #311 ) ;
#314 = FACE_OUTER_BOUND ( 'NONE', #676, .T. ) ;
#315 = CARTESIAN_POINT ( 'NONE',  ( 2.000000000000000000, 0.0000000000000000000, 0.0000000000000000000 ) ) ;
#316 = CARTESIAN_POINT ( 'NONE',  ( 1.000000000000000000, 0.0000000000000000000, 0.0000000000000000000 ) ) ;
#317 = DIRECTION ( 'NONE',  ( 1.000000000000000000, 0.0000000000000000000, 0.0000000000000000000 ) ) ;
#318 = DIRECTION ( 'NONE',  ( 0.0000000000000000000, 0.0000000000000000000, -1.000000000000000000 ) ) ;
#319 = CARTESIAN_POINT ( 'NONE',  ( 0.0000000000000000000, 0.0000000000000000000, -8.000000000000000000 ) ) ;
#320 = AXIS2_PLACEMENT_3D ( 'NONE', #319, #318, #317 ) ;
#321 = CIRCLE ( 'NONE', #320, 0.8000000000000020400 ) ;
#322 = DIRECTION ( 'NONE',  ( 1.000000000000000000, 0.0000000000000000000, 0.0000000000000000000 ) ) ;
#323 = DIRECTION ( 'NONE',  ( 0.0000000000000000000, 0.0000000000000000000, 1.000000000000000000 ) ) ;
#324 = CARTESIAN_POINT ( 'NONE',  ( 0.0000000000000000000, 0.0000000000000000000, 0.0000000000000000000 ) ) ;
#325 = AXIS2_PLACEMENT_3D ( 'NONE', #324, #323, #322 ) ;
#326 = CIRCLE ( 'NONE', #325, 2.000000000000000000 ) ;
#327 = DIRECTION ( 'NONE',  ( 1.000000000000000000, 0.0000000000000000000, 0.0000000000000000000 ) ) ;
#328 = DIRECTION ( 'NONE',  ( 0.0000000000000000000, 0.0000000000000000000, 1.000000000000000000 ) ) ;
#329 = CARTESIAN_POINT ( 'NONE',  ( 0.0000000000000000000, 2.000000000000000000, -2.921111703219070800E-016 ) ) ;
#330 = AXIS2_PLACEMENT_3D ( 'NONE', #329, #328, #327 ) ;
#331 = PLANE ( 'NONE',  #330 ) ;
#332 = VERTEX_POINT ( 'NONE', #21 ) ;
#333 = FACE_OUTER_BOUND ( 'NONE', #732, .T. ) ;
#334 = DIRECTION ( 'NONE',  ( 1.000000000000000000, -5.782411586589356700E-016, 0.0000000000000000000 ) ) ;
#335 = VECTOR ( 'NONE', #334, 1000.000000000000000 ) ;
#336 = CARTESIAN_POINT ( 'NONE',  ( 0.1249999999999997900, -0.1249999999999994000, -0.1999999999999997600 ) ) ;
#337 = LINE ( 'NONE', #336, #335 ) ;
#338 = CARTESIAN_POINT ( 'NONE',  ( -0.5000000000000000000, -0.1249999999999994000, 0.5000000000000002200 ) ) ;
#339 = DIRECTION ( 'NONE',  ( 8.673617379884052200E-016, -1.000000000000000000, 0.0000000000000000000 ) ) ;
#340 = VECTOR ( 'NONE', #339, 1000.000000000000000 ) ;
#341 = CARTESIAN_POINT ( 'NONE',  ( -0.5000000000000002200, 0.1250000000000001100, 0.5000000000000002200 ) ) ;
#342 = LINE ( 'NONE', #341, #340 ) ;
#343 = CARTESIAN_POINT ( 'NONE',  ( 0.4999999999999997800, -0.1249999999999996300, 0.5000000000000002200 ) ) ;
#344 = DIRECTION ( 'NONE',  ( 0.0000000000000000000, 0.0000000000000000000, 1.000000000000000000 ) ) ;
#345 = VECTOR ( 'NONE', #344, 1000.000000000000000 ) ;
#346 = CARTESIAN_POINT ( 'NONE',  ( 0.1249999999999997900, -0.1249999999999994000, -0.1999999999999997600 ) ) ;
#347 = LINE ( 'NONE', #346, #345 ) ;
#348 = DIRECTION ( 'NONE',  ( -2.891205793294679300E-016, 1.000000000000000000, 0.0000000000000000000 ) ) ;
#349 = VECTOR ( 'NONE', #348, 1000.000000000000000 ) ;
#350 = CARTESIAN_POINT ( 'NONE',  ( 0.1249999999999997900, 0.1250000000000001100, 0.5000000000000002200 ) ) ;
#351 = LINE ( 'NONE', #350, #349 ) ;
#352 = CARTESIAN_POINT ( 'NONE',  ( 0.1249999999999996800, 0.5000000000000000000, 0.5000000000000002200 ) ) ;
#353 = CARTESIAN_POINT ( 'NONE',  ( 0.1249999999999996300, -0.4999999999999995600, -0.1999999999999997600 ) ) ;
#354 = DIRECTION ( 'NONE',  ( 0.0000000000000000000, 0.0000000000000000000, 1.000000000000000000 ) ) ;
#355 = VECTOR ( 'NONE', #354, 1000.000000000000000 ) ;
#356 = CARTESIAN_POINT ( 'NONE',  ( 0.1249999999999996300, -0.4999999999999995600, -0.1999999999999997600 ) ) ;
#357 = LINE ( 'NONE', #356, #355 ) ;
#358 = DIRECTION ( 'NONE',  ( 4.336808689942015800E-016, 1.000000000000000000, 0.0000000000000000000 ) ) ;
#359 = VECTOR ( 'NONE', #358, 1000.000000000000000 ) ;
#360 = CARTESIAN_POINT ( 'NONE',  ( 0.1249999999999996300, -0.4999999999999995600, -0.1999999999999997600 ) ) ;
#361 = LINE ( 'NONE', #360, #359 ) ;
#362 = DIRECTION ( 'NONE',  ( 1.000000000000000000, 0.0000000000000000000, 0.0000000000000000000 ) ) ;
#363 = DIRECTION ( 'NONE',  ( -8.673617379884044300E-016, 1.000000000000000000, 0.0000000000000000000 ) ) ;
#364 = VECTOR ( 'NONE', #363, 1000.000000000000000 ) ;
#365 = CARTESIAN_POINT ( 'NONE',  ( 0.4999999999999997800, -0.1249999999999996300, 0.5000000000000002200 ) ) ;
#366 = LINE ( 'NONE', #365, #364 ) ;
#367 = CARTESIAN_POINT ( 'NONE',  ( 0.1249999999999997900, -0.1249999999999994000, -0.1999999999999997600 ) ) ;
#368 = CARTESIAN_POINT ( 'NONE',  ( 0.4999999999999995600, 0.1250000000000001100, 0.5000000000000002200 ) ) ;
#369 = DIRECTION ( 'NONE',  ( -1.000000000000000000, 0.0000000000000000000, 0.0000000000000000000 ) ) ;
#370 = VECTOR ( 'NONE', #369, 1000.000000000000000 ) ;
#371 = CARTESIAN_POINT ( 'NONE',  ( 0.4999999999999995600, 0.1250000000000001100, 0.5000000000000002200 ) ) ;
#372 = LINE ( 'NONE', #371, #370 ) ;
#373 = CARTESIAN_POINT ( 'NONE',  ( 0.1249999999999997900, 0.1250000000000001100, 0.5000000000000002200 ) ) ;
#374 = DIRECTION ( 'NONE',  ( 1.000000000000000000, 0.0000000000000000000, 0.0000000000000000000 ) ) ;
#375 = DIRECTION ( 'NONE',  ( 0.0000000000000000000, 0.0000000000000000000, 1.000000000000000000 ) ) ;
#376 = CARTESIAN_POINT ( 'NONE',  ( 0.0000000000000000000, 0.0000000000000000000, 15.33464249748237100 ) ) ;
#377 = AXIS2_PLACEMENT_3D ( 'NONE', #376, #375, #374 ) ;
#378 = CYLINDRICAL_SURFACE ( 'NONE', #377, 2.000000000000000000 ) ;
#379 = FACE_OUTER_BOUND ( 'NONE', #714, .T. ) ;
#380 = CARTESIAN_POINT ( 'NONE',  ( -0.1250000000000003300, 0.1250000000000001100, 0.5000000000000002200 ) ) ;
#381 = DIRECTION ( 'NONE',  ( -1.000000000000000000, 0.0000000000000000000, 0.0000000000000000000 ) ) ;
#382 = VECTOR ( 'NONE', #381, 1000.000000000000000 ) ;
#383 = CARTESIAN_POINT ( 'NONE',  ( -0.1250000000000003300, 0.1250000000000001100, 0.5000000000000002200 ) ) ;
#384 = LINE ( 'NONE', #383, #382 ) ;
#385 = DIRECTION ( 'NONE',  ( 1.000000000000000000, 0.0000000000000000000, 0.0000000000000000000 ) ) ;
#386 = DIRECTION ( 'NONE',  ( 0.0000000000000000000, 0.0000000000000000000, 1.000000000000000000 ) ) ;
#387 = CARTESIAN_POINT ( 'NONE',  ( 0.0000000000000000000, 0.0000000000000000000, 0.0000000000000000000 ) ) ;
#388 = AXIS2_PLACEMENT_3D ( 'NONE', #387, #386, #385 ) ;
#389 = CIRCLE ( 'NONE', #388, 1.000000000000000000 ) ;
#390 = DIRECTION ( 'NONE',  ( 4.336808689942015800E-016, 1.000000000000000000, 0.0000000000000000000 ) ) ;
#391 = DIRECTION ( 'NONE',  ( 1.000000000000000000, -4.336808689942015800E-016, 0.0000000000000000000 ) ) ;
#392 = CARTESIAN_POINT ( 'NONE',  ( 0.1249999999999996300, -0.4999999999999995600, -0.1999999999999997600 ) ) ;
#393 = AXIS2_PLACEMENT_3D ( 'NONE', #392, #391, #390 ) ;
#394 = PLANE ( 'NONE',  #393 ) ;
#395 = DIRECTION ( 'NONE',  ( 0.0000000000000000000, 0.0000000000000000000, -1.000000000000000000 ) ) ;
#396 = CARTESIAN_POINT ( 'NONE',  ( 0.0000000000000000000, 0.0000000000000000000, 0.5000000000000004400 ) ) ;
#397 = AXIS2_PLACEMENT_3D ( 'NONE', #396, #395, #440 ) ;
#398 = CONICAL_SURFACE ( 'NONE', #397, 1.653589838486225300, 1.047197551196595600 ) ;
#399 = FACE_OUTER_BOUND ( 'NONE', #758, .T. ) ;
#400 = CARTESIAN_POINT ( 'NONE',  ( -0.1250000000000001700, -0.4999999999999995600, -0.1999999999999997600 ) ) ;
#401 = DIRECTION ( 'NONE',  ( 1.000000000000000000, 0.0000000000000000000, 0.0000000000000000000 ) ) ;
#402 = DIRECTION ( 'NONE',  ( 0.0000000000000000000, 0.0000000000000000000, 1.000000000000000000 ) ) ;
#403 = AXIS2_PLACEMENT_3D ( 'NONE', #405, #402, #401 ) ;
#404 = CONICAL_SURFACE ( 'NONE', #403, 1.000000000000000000, 0.7853981633974461700 ) ;
#405 = CARTESIAN_POINT ( 'NONE',  ( 0.0000000000000000000, 0.0000000000000000000, -7.800000000000001600 ) ) ;
#406 = DIRECTION ( 'NONE',  ( -1.000000000000000000, 0.0000000000000000000, 0.0000000000000000000 ) ) ;
#407 = DIRECTION ( 'NONE',  ( 0.0000000000000000000, 0.0000000000000000000, -1.000000000000000000 ) ) ;
#408 = CARTESIAN_POINT ( 'NONE',  ( 0.0000000000000000000, 0.0000000000000000000, 0.2999999999999999300 ) ) ;
#409 = AXIS2_PLACEMENT_3D ( 'NONE', #408, #407, #406 ) ;
#410 = CIRCLE ( 'NONE', #409, 2.000000000000000000 ) ;
#411 = FACE_OUTER_BOUND ( 'NONE', #751, .T. ) ;
#412 = CARTESIAN_POINT ( 'NONE',  ( -0.5000000000000002200, 0.1250000000000001100, 0.5000000000000002200 ) ) ;
#413 = DIRECTION ( 'NONE',  ( -1.000000000000000000, 0.0000000000000000000, 0.0000000000000000000 ) ) ;
#414 = DIRECTION ( 'NONE',  ( 0.0000000000000000000, 0.0000000000000000000, -1.000000000000000000 ) ) ;
#415 = CARTESIAN_POINT ( 'NONE',  ( 0.0000000000000000000, -1.040915400749020900E-015, 0.5000000000000002200 ) ) ;
#416 = AXIS2_PLACEMENT_3D ( 'NONE', #415, #414, #413 ) ;
#417 = PLANE ( 'NONE',  #416 ) ;
#418 = FACE_OUTER_BOUND ( 'NONE', #637, .T. ) ;
#419 = FACE_BOUND ( 'NONE', #725, .T. ) ;
#420 = DIRECTION ( 'NONE',  ( -1.000000000000000000, 0.0000000000000000000, 0.0000000000000000000 ) ) ;
#421 = VECTOR ( 'NONE', #420, 1000.000000000000000 ) ;
#422 = CARTESIAN_POINT ( 'NONE',  ( 0.1249999999999996800, 0.5000000000000000000, 0.5000000000000002200 ) ) ;
#423 = LINE ( 'NONE', #422, #421 ) ;
#424 = CARTESIAN_POINT ( 'NONE',  ( -0.1250000000000003300, 0.5000000000000000000, 0.5000000000000002200 ) ) ;
#425 = DIRECTION ( 'NONE',  ( 0.0000000000000000000, -1.000000000000000000, 0.0000000000000000000 ) ) ;
#426 = VECTOR ( 'NONE', #425, 1000.000000000000000 ) ;
#427 = CARTESIAN_POINT ( 'NONE',  ( -0.1250000000000003300, 0.5000000000000000000, 0.5000000000000002200 ) ) ;
#428 = LINE ( 'NONE', #427, #426 ) ;
#429 = DIRECTION ( 'NONE',  ( 1.000000000000000000, 0.0000000000000000000, 0.0000000000000000000 ) ) ;
#430 = DIRECTION ( 'NONE',  ( 0.0000000000000000000, 0.0000000000000000000, 1.000000000000000000 ) ) ;
#431 = AXIS2_PLACEMENT_3D ( 'NONE', #438, #430, #429 ) ;
#432 = ADVANCED_BREP_SHAPE_REPRESENTATION ( 'CSPSL-ST3W-M2-8_203', ( #658, #431 ), #433 ) ;
#433 =( GEOMETRIC_REPRESENTATION_CONTEXT ( 3 ) GLOBAL_UNCERTAINTY_ASSIGNED_CONTEXT ( ( #434 ) ) GLOBAL_UNIT_ASSIGNED_CONTEXT ( ( #437, #436, #435 ) ) REPRESENTATION_CONTEXT ( 'NONE', 'WORKASPACE' ) );
#434 = UNCERTAINTY_MEASURE_WITH_UNIT (LENGTH_MEASURE( 1.000000000000000100E-005 ), #437, 'distance_accuracy_value', 'NONE');
#435 =( NAMED_UNIT ( * ) SI_UNIT ( $, .STERADIAN. ) SOLID_ANGLE_UNIT ( ) );
#436 =( NAMED_UNIT ( * ) PLANE_ANGLE_UNIT ( ) SI_UNIT ( $, .RADIAN. ) );
#437 =( LENGTH_UNIT ( ) NAMED_UNIT ( * ) SI_UNIT ( .MILLI., .METRE. ) );
#438 = CARTESIAN_POINT ( 'NONE',  ( 0.0000000000000000000, 0.0000000000000000000, 0.0000000000000000000 ) ) ;
#439 = CARTESIAN_POINT ( 'NONE',  ( 0.4999999999999995600, 0.1250000000000001100, -0.1999999999999997600 ) ) ;
#440 = DIRECTION ( 'NONE',  ( -1.000000000000000000, 0.0000000000000000000, 0.0000000000000000000 ) ) ;
#441 = CC_DESIGN_PERSON_AND_ORGANIZATION_ASSIGNMENT ( #443, #442, ( #446 ) ) ;
#442 = PERSON_AND_ORGANIZATION_ROLE ( 'design_owner' ) ;
#443 = PERSON_AND_ORGANIZATION ( #445, #444 ) ;
#444 = ORGANIZATION ( 'UNSPECIFIED', 'UNSPECIFIED', '' ) ;
#445 = PERSON ( 'UNSPECIFIED', 'UNSPECIFIED', 'UNSPECIFIED', ('UNSPECIFIED'), ('UNSPECIFIED'), ('UNSPECIFIED') ) ;
#446 = PRODUCT ( 'CSPSL-ST3W-M2-8_203', 'CSPSL-ST3W-M2-8_203', '', ( #447 ) ) ;
#447 = MECHANICAL_CONTEXT ( 'NONE', #449, 'mechanical' ) ;
#448 = APPLICATION_PROTOCOL_DEFINITION ( 'international standard', 'config_control_design', 1994, #449 ) ;
#449 = APPLICATION_CONTEXT ( 'configuration controlled 3d designs of mechanical parts and assemblies' ) ;
#450 = EDGE_LOOP ( 'NONE', ( #3, #1, #292, #523 ) ) ;
#451 = CC_DESIGN_PERSON_AND_ORGANIZATION_ASSIGNMENT ( #454, #452, ( #455 ) ) ;
#452 = PERSON_AND_ORGANIZATION_ROLE ( 'classification_officer' ) ;
#453 = ORIENTED_EDGE ( 'NONE', *, *, #742, .T. ) ;
#454 = PERSON_AND_ORGANIZATION ( #445, #444 ) ;
#455 = SECURITY_CLASSIFICATION ( '', '', #456 ) ;
#456 = SECURITY_CLASSIFICATION_LEVEL ( 'unclassified' ) ;
#457 = CC_DESIGN_PERSON_AND_ORGANIZATION_ASSIGNMENT ( #459, #458, ( #474 ) ) ;
#458 = PERSON_AND_ORGANIZATION_ROLE ( 'design_supplier' ) ;
#459 = PERSON_AND_ORGANIZATION ( #445, #444 ) ;
#460 = CC_DESIGN_PERSON_AND_ORGANIZATION_ASSIGNMENT ( #462, #461, ( #474 ) ) ;
#461 = PERSON_AND_ORGANIZATION_ROLE ( 'creator' ) ;
#462 = PERSON_AND_ORGANIZATION ( #445, #444 ) ;
#463 = CC_DESIGN_APPROVAL ( #471, ( #474 ) ) ;
#464 = APPROVAL_DATE_TIME ( #465, #471 ) ;
#465 = DATE_AND_TIME ( #466, #467 ) ;
#466 = CALENDAR_DATE ( 2014, 10, 3 ) ;
#467 = LOCAL_TIME ( 17, 4, 34.00000000000000000, #468 ) ;
#468 = COORDINATED_UNIVERSAL_TIME_OFFSET ( 8, 0, .AHEAD. ) ;
#469 = APPROVAL_PERSON_ORGANIZATION ( #473, #471, #470 ) ;
#470 = APPROVAL_ROLE ( '' ) ;
#471 = APPROVAL ( #472, 'UNSPECIFIED' ) ;
#472 = APPROVAL_STATUS ( 'not_yet_approved' ) ;
#473 = PERSON_AND_ORGANIZATION ( #445, #444 ) ;
#474 = PRODUCT_DEFINITION_FORMATION_WITH_SPECIFIED_SOURCE ( 'ANY', '', #446, .NOT_KNOWN. ) ;
#475 = CC_DESIGN_DATE_AND_TIME_ASSIGNMENT ( #477, #476, ( #495 ) ) ;
#476 = DATE_TIME_ROLE ( 'creation_date' ) ;
#477 = DATE_AND_TIME ( #478, #479 ) ;
#478 = CALENDAR_DATE ( 2014, 10, 3 ) ;
#479 = LOCAL_TIME ( 17, 4, 34.00000000000000000, #480 ) ;
#480 = COORDINATED_UNIVERSAL_TIME_OFFSET ( 8, 0, .AHEAD. ) ;
#481 = CC_DESIGN_PERSON_AND_ORGANIZATION_ASSIGNMENT ( #483, #482, ( #495 ) ) ;
#482 = PERSON_AND_ORGANIZATION_ROLE ( 'creator' ) ;
#483 = PERSON_AND_ORGANIZATION ( #445, #444 ) ;
#484 = CC_DESIGN_APPROVAL ( #492, ( #495 ) ) ;
#485 = APPROVAL_DATE_TIME ( #486, #492 ) ;
#486 = DATE_AND_TIME ( #487, #488 ) ;
#487 = CALENDAR_DATE ( 2014, 10, 3 ) ;
#488 = LOCAL_TIME ( 17, 4, 34.00000000000000000, #489 ) ;
#489 = COORDINATED_UNIVERSAL_TIME_OFFSET ( 8, 0, .AHEAD. ) ;
#490 = APPROVAL_PERSON_ORGANIZATION ( #494, #492, #491 ) ;
#491 = APPROVAL_ROLE ( '' ) ;
#492 = APPROVAL ( #493, 'UNSPECIFIED' ) ;
#493 = APPROVAL_STATUS ( 'not_yet_approved' ) ;
#494 = PERSON_AND_ORGANIZATION ( #445, #444 ) ;
#495 = PRODUCT_DEFINITION ( 'UNKNOWN', '', #474, #496 ) ;
#496 = DESIGN_CONTEXT ( 'detailed design', #498, 'design' ) ;
#497 = APPLICATION_PROTOCOL_DEFINITION ( 'international standard', 'config_control_design', 1994, #498 ) ;
#498 = APPLICATION_CONTEXT ( 'configuration controlled 3d designs of mechanical parts and assemblies' ) ;
#499 = SHAPE_DEFINITION_REPRESENTATION ( #500, #432 ) ;
#500 = PRODUCT_DEFINITION_SHAPE ( 'NONE', 'NONE',  #495 ) ;
#501 = PRODUCT_RELATED_PRODUCT_CATEGORY ( 'detail', '', ( #446 ) ) ;
#502 = CC_DESIGN_SECURITY_CLASSIFICATION ( #455, ( #474 ) ) ;
#503 = CC_DESIGN_APPROVAL ( #511, ( #455 ) ) ;
#504 = APPROVAL_DATE_TIME ( #505, #511 ) ;
#505 = DATE_AND_TIME ( #506, #507 ) ;
#506 = CALENDAR_DATE ( 2014, 10, 3 ) ;
#507 = LOCAL_TIME ( 17, 4, 34.00000000000000000, #508 ) ;
#508 = COORDINATED_UNIVERSAL_TIME_OFFSET ( 8, 0, .AHEAD. ) ;
#509 = APPROVAL_PERSON_ORGANIZATION ( #513, #511, #510 ) ;
#510 = APPROVAL_ROLE ( '' ) ;
#511 = APPROVAL ( #512, 'UNSPECIFIED' ) ;
#512 = APPROVAL_STATUS ( 'not_yet_approved' ) ;
#513 = PERSON_AND_ORGANIZATION ( #445, #444 ) ;
#514 = CC_DESIGN_DATE_AND_TIME_ASSIGNMENT ( #516, #515, ( #455 ) ) ;
#515 = DATE_TIME_ROLE ( 'classification_date' ) ;
#516 = DATE_AND_TIME ( #517, #518 ) ;
#517 = CALENDAR_DATE ( 2014, 10, 3 ) ;
#518 = LOCAL_TIME ( 17, 4, 34.00000000000000000, #519 ) ;
#519 = COORDINATED_UNIVERSAL_TIME_OFFSET ( 8, 0, .AHEAD. ) ;
#520 = ADVANCED_FACE ( 'NONE', ( #20 ), #19, .F. ) ;
#521 = EDGE_CURVE ( 'NONE', #545, #533, #14, .T. ) ;
#522 = ORIENTED_EDGE ( 'NONE', *, *, #521, .F. ) ;
#523 = ORIENTED_EDGE ( 'NONE', *, *, #526, .T. ) ;
#524 = EDGE_LOOP ( 'NONE', ( #453, #538, #548, #542 ) ) ;
#525 = EDGE_LOOP ( 'NONE', ( #550, #546, #522, #528 ) ) ;
#526 = EDGE_CURVE ( 'NONE', #332, #720, #10, .T. ) ;
#527 = ADVANCED_FACE ( 'NONE', ( #6 ), #73, .F. ) ;
#528 = ORIENTED_EDGE ( 'NONE', *, *, #530, .T. ) ;
#529 = EDGE_CURVE ( 'NONE', #533, #535, #68, .T. ) ;
#530 = EDGE_CURVE ( 'NONE', #545, #727, #64, .T. ) ;
#531 = EDGE_LOOP ( 'NONE', ( #544, #536, #534, #540 ) ) ;
#532 = EDGE_LOOP ( 'NONE', ( #543, #760, #551, #562 ) ) ;
#533 = VERTEX_POINT ( 'NONE', #60 ) ;
#534 = ORIENTED_EDGE ( 'NONE', *, *, #537, .F. ) ;
#535 = VERTEX_POINT ( 'NONE', #59 ) ;
#536 = ORIENTED_EDGE ( 'NONE', *, *, #526, .F. ) ;
#537 = EDGE_CURVE ( 'NONE', #535, #332, #58, .T. ) ;
#538 = ORIENTED_EDGE ( 'NONE', *, *, #547, .F. ) ;
#539 = ADVANCED_FACE ( 'NONE', ( #54 ), #53, .F. ) ;
#540 = ORIENTED_EDGE ( 'NONE', *, *, #547, .T. ) ;
#541 = EDGE_CURVE ( 'NONE', #533, #701, #48, .T. ) ;
#542 = ORIENTED_EDGE ( 'NONE', *, *, #541, .T. ) ;
#543 = ORIENTED_EDGE ( 'NONE', *, *, #729, .T. ) ;
#544 = ORIENTED_EDGE ( 'NONE', *, *, #739, .T. ) ;
#545 = VERTEX_POINT ( 'NONE', #44 ) ;
#546 = ORIENTED_EDGE ( 'NONE', *, *, #541, .F. ) ;
#547 = EDGE_CURVE ( 'NONE', #535, #740, #42, .T. ) ;
#548 = ORIENTED_EDGE ( 'NONE', *, *, #529, .F. ) ;
#549 = ADVANCED_FACE ( 'NONE', ( #104 ), #103, .F. ) ;
#550 = ORIENTED_EDGE ( 'NONE', *, *, #703, .T. ) ;
#551 = ORIENTED_EDGE ( 'NONE', *, *, #552, .F. ) ;
#552 = EDGE_CURVE ( 'NONE', #761, #545, #98, .T. ) ;
#553 = EDGE_CURVE ( 'NONE', #561, #761, #94, .T. ) ;
#554 = ADVANCED_FACE ( 'NONE', ( #90 ), #89, .F. ) ;
#555 = ORIENTED_EDGE ( 'NONE', *, *, #632, .T. ) ;
#556 = ORIENTED_EDGE ( 'NONE', *, *, #559, .F. ) ;
#557 = EDGE_CURVE ( 'NONE', #561, #707, #84, .T. ) ;
#558 = ORIENTED_EDGE ( 'NONE', *, *, #734, .T. ) ;
#559 = EDGE_CURVE ( 'NONE', #761, #730, #80, .T. ) ;
#560 = ORIENTED_EDGE ( 'NONE', *, *, #557, .T. ) ;
#561 = VERTEX_POINT ( 'NONE', #76 ) ;
#562 = ORIENTED_EDGE ( 'NONE', *, *, #559, .T. ) ;
#563 = ADVANCED_FACE ( 'NONE', ( #75 ), #74, .F. ) ;
#564 = ORIENTED_EDGE ( 'NONE', *, *, #553, .F. ) ;
#565 = EDGE_LOOP ( 'NONE', ( #558, #556, #564, #560 ) ) ;
#566 = ORIENTED_EDGE ( 'NONE', *, *, #567, .T. ) ;
#567 = EDGE_CURVE ( 'NONE', #572, #709, #135, .T. ) ;
#568 = ADVANCED_FACE ( 'NONE', ( #131 ), #130, .F. ) ;
#569 = ORIENTED_EDGE ( 'NONE', *, *, #577, .F. ) ;
#570 = ORIENTED_EDGE ( 'NONE', *, *, #571, .F. ) ;
#571 = EDGE_CURVE ( 'NONE', #572, #578, #125, .T. ) ;
#572 = VERTEX_POINT ( 'NONE', #121 ) ;
#573 = ORIENTED_EDGE ( 'NONE', *, *, #636, .T. ) ;
#574 = EDGE_LOOP ( 'NONE', ( #573, #569, #570, #566 ) ) ;
#575 = ADVANCED_FACE ( 'NONE', ( #120 ), #119, .F. ) ;
#576 = ORIENTED_EDGE ( 'NONE', *, *, #577, .T. ) ;
#577 = EDGE_CURVE ( 'NONE', #578, #640, #113, .T. ) ;
#578 = VERTEX_POINT ( 'NONE', #109 ) ;
#579 = EDGE_LOOP ( 'NONE', ( #598, #601, #597, #596, #592, #591, #590, #589, #588, #587, #581, #753 ) ) ;
#580 = ORIENTED_EDGE ( 'NONE', *, *, #567, .F. ) ;
#581 = ORIENTED_EDGE ( 'NONE', *, *, #529, .T. ) ;
#582 = ORIENTED_EDGE ( 'NONE', *, *, #708, .T. ) ;
#583 = ORIENTED_EDGE ( 'NONE', *, *, #585, .F. ) ;
#584 = ADVANCED_FACE ( 'NONE', ( #108 ), #107, .F. ) ;
#585 = EDGE_CURVE ( 'NONE', #23, #572, #169, .T. ) ;
#586 = ORIENTED_EDGE ( 'NONE', *, *, #4, .T. ) ;
#587 = ORIENTED_EDGE ( 'NONE', *, *, #521, .T. ) ;
#588 = ORIENTED_EDGE ( 'NONE', *, *, #552, .T. ) ;
#589 = ORIENTED_EDGE ( 'NONE', *, *, #553, .T. ) ;
#590 = ORIENTED_EDGE ( 'NONE', *, *, #711, .T. ) ;
#591 = ORIENTED_EDGE ( 'NONE', *, *, #694, .T. ) ;
#592 = ORIENTED_EDGE ( 'NONE', *, *, #608, .T. ) ;
#593 = EDGE_LOOP ( 'NONE', ( #594, #595, #755, #609 ) ) ;
#594 = ORIENTED_EDGE ( 'NONE', *, *, #646, .T. ) ;
#595 = ORIENTED_EDGE ( 'NONE', *, *, #697, .F. ) ;
#596 = ORIENTED_EDGE ( 'NONE', *, *, #600, .T. ) ;
#597 = ORIENTED_EDGE ( 'NONE', *, *, #571, .T. ) ;
#598 = ORIENTED_EDGE ( 'NONE', *, *, #114, .T. ) ;
#599 = ORIENTED_EDGE ( 'NONE', *, *, #600, .F. ) ;
#600 = EDGE_CURVE ( 'NONE', #578, #756, #165, .T. ) ;
#601 = ORIENTED_EDGE ( 'NONE', *, *, #585, .T. ) ;
#602 = ADVANCED_FACE ( 'NONE', ( #161 ), #160, .T. ) ;
#603 = EDGE_LOOP ( 'NONE', ( #604, #605, #599, #576 ) ) ;
#604 = ORIENTED_EDGE ( 'NONE', *, *, #645, .T. ) ;
#605 = ORIENTED_EDGE ( 'NONE', *, *, #607, .F. ) ;
#606 = ADVANCED_FACE ( 'NONE', ( #155 ), #154, .F. ) ;
#607 = EDGE_CURVE ( 'NONE', #756, #638, #149, .T. ) ;
#608 = EDGE_CURVE ( 'NONE', #756, #699, #145, .T. ) ;
#609 = ORIENTED_EDGE ( 'NONE', *, *, #607, .T. ) ;
#610 = VERTEX_POINT ( 'NONE', #141 ) ;
#611 = VERTEX_POINT ( 'NONE', #140 ) ;
#612 = EDGE_LOOP ( 'NONE', ( #620, #653, #655, #651 ) ) ;
#613 = EDGE_CURVE ( 'NONE', #626, #623, #204, .T. ) ;
#614 = EDGE_CURVE ( 'NONE', #628, #626, #200, .T. ) ;
#615 = ORIENTED_EDGE ( 'NONE', *, *, #613, .F. ) ;
#616 = ORIENTED_EDGE ( 'NONE', *, *, #617, .F. ) ;
#617 = EDGE_CURVE ( 'NONE', #623, #625, #195, .T. ) ;
#618 = VERTEX_POINT ( 'NONE', #190 ) ;
#619 = EDGE_CURVE ( 'NONE', #618, #611, #188, .T. ) ;
#620 = ORIENTED_EDGE ( 'NONE', *, *, #619, .F. ) ;
#621 = EDGE_LOOP ( 'NONE', ( #627, #629, #616, #615 ) ) ;
#622 = ADVANCED_FACE ( 'NONE', ( #189 ), #182, .T. ) ;
#623 = VERTEX_POINT ( 'NONE', #178 ) ;
#624 = EDGE_CURVE ( 'NONE', #628, #625, #177, .T. ) ;
#625 = VERTEX_POINT ( 'NONE', #173 ) ;
#626 = VERTEX_POINT ( 'NONE', #172 ) ;
#627 = ORIENTED_EDGE ( 'NONE', *, *, #614, .F. ) ;
#628 = VERTEX_POINT ( 'NONE', #235 ) ;
#629 = ORIENTED_EDGE ( 'NONE', *, *, #624, .T. ) ;
#630 = VERTEX_POINT ( 'NONE', #234 ) ;
#631 = ORIENTED_EDGE ( 'NONE', *, *, #632, .F. ) ;
#632 = EDGE_CURVE ( 'NONE', #630, #707, #233, .T. ) ;
#633 = ORIENTED_EDGE ( 'NONE', *, *, #619, .T. ) ;
#634 = EDGE_CURVE ( 'NONE', #611, #618, #229, .T. ) ;
#635 = ORIENTED_EDGE ( 'NONE', *, *, #634, .T. ) ;
#636 = EDGE_CURVE ( 'NONE', #709, #640, #224, .T. ) ;
#637 = EDGE_LOOP ( 'NONE', ( #635, #633 ) ) ;
#638 = VERTEX_POINT ( 'NONE', #220 ) ;
#639 = ORIENTED_EDGE ( 'NONE', *, *, #636, .F. ) ;
#640 = VERTEX_POINT ( 'NONE', #219 ) ;
#641 = EDGE_CURVE ( 'NONE', #610, #630, #218, .T. ) ;
#642 = ORIENTED_EDGE ( 'NONE', *, *, #646, .F. ) ;
#643 = ORIENTED_EDGE ( 'NONE', *, *, #641, .F. ) ;
#644 = ORIENTED_EDGE ( 'NONE', *, *, #645, .F. ) ;
#645 = EDGE_CURVE ( 'NONE', #640, #638, #214, .T. ) ;
#646 = EDGE_CURVE ( 'NONE', #638, #610, #210, .T. ) ;
#647 = ADVANCED_FACE ( 'NONE', ( #206 ), #205, .T. ) ;
#648 = EDGE_CURVE ( 'NONE', #611, #657, #266, .T. ) ;
#649 = EDGE_LOOP ( 'NONE', ( #670, #675, #674, #665 ) ) ;
#650 = EDGE_CURVE ( 'NONE', #618, #654, #258, .T. ) ;
#651 = ORIENTED_EDGE ( 'NONE', *, *, #648, .F. ) ;
#652 = ORIENTED_EDGE ( 'NONE', *, *, #734, .F. ) ;
#653 = ORIENTED_EDGE ( 'NONE', *, *, #650, .T. ) ;
#654 = VERTEX_POINT ( 'NONE', #254 ) ;
#655 = ORIENTED_EDGE ( 'NONE', *, *, #656, .F. ) ;
#656 = EDGE_CURVE ( 'NONE', #657, #654, #253, .T. ) ;
#657 = VERTEX_POINT ( 'NONE', #248 ) ;
#658 = MANIFOLD_SOLID_BREP ( 'NONE', #746 ) ;
#659 = ADVANCED_FACE ( 'NONE', ( #247 ), #246, .T. ) ;
#660 = ORIENTED_EDGE ( 'NONE', *, *, #617, .T. ) ;
#661 = ADVANCED_FACE ( 'NONE', ( #240 ), #239, .T. ) ;
#662 = ORIENTED_EDGE ( 'NONE', *, *, #668, .T. ) ;
#663 = VERTEX_POINT ( 'NONE', #297 ) ;
#664 = EDGE_LOOP ( 'NONE', ( #660, #662, #671, #684 ) ) ;
#665 = ORIENTED_EDGE ( 'NONE', *, *, #666, .F. ) ;
#666 = EDGE_CURVE ( 'NONE', #686, #654, #296, .T. ) ;
#667 = EDGE_CURVE ( 'NONE', #669, #657, #291, .T. ) ;
#668 = EDGE_CURVE ( 'NONE', #625, #663, #287, .T. ) ;
#669 = VERTEX_POINT ( 'NONE', #283 ) ;
#670 = ORIENTED_EDGE ( 'NONE', *, *, #673, .T. ) ;
#671 = ORIENTED_EDGE ( 'NONE', *, *, #672, .F. ) ;
#672 = EDGE_CURVE ( 'NONE', #685, #663, #282, .T. ) ;
#673 = EDGE_CURVE ( 'NONE', #686, #669, #277, .T. ) ;
#674 = ORIENTED_EDGE ( 'NONE', *, *, #656, .T. ) ;
#675 = ORIENTED_EDGE ( 'NONE', *, *, #667, .T. ) ;
#676 = EDGE_LOOP ( 'NONE', ( #687, #690 ) ) ;
#677 = EDGE_CURVE ( 'NONE', #623, #685, #272, .T. ) ;
#678 = ADVANCED_FACE ( 'NONE', ( #268, #267 ), #331, .F. ) ;
#679 = EDGE_LOOP ( 'NONE', ( #680, #681 ) ) ;
#680 = ORIENTED_EDGE ( 'NONE', *, *, #673, .F. ) ;
#681 = ORIENTED_EDGE ( 'NONE', *, *, #682, .F. ) ;
#682 = EDGE_CURVE ( 'NONE', #669, #686, #326, .T. ) ;
#683 = EDGE_CURVE ( 'NONE', #626, #628, #321, .T. ) ;
#684 = ORIENTED_EDGE ( 'NONE', *, *, #677, .F. ) ;
#685 = VERTEX_POINT ( 'NONE', #316 ) ;
#686 = VERTEX_POINT ( 'NONE', #315 ) ;
#687 = ORIENTED_EDGE ( 'NONE', *, *, #683, .T. ) ;
#688 = ADVANCED_FACE ( 'NONE', ( #314 ), #313, .F. ) ;
#689 = EDGE_LOOP ( 'NONE', ( #715, #738, #692, #731 ) ) ;
#690 = ORIENTED_EDGE ( 'NONE', *, *, #614, .T. ) ;
#691 = ADVANCED_FACE ( 'NONE', ( #312 ), #305, .T. ) ;
#692 = ORIENTED_EDGE ( 'NONE', *, *, #677, .T. ) ;
#693 = EDGE_CURVE ( 'NONE', #625, #623, #301, .T. ) ;
#694 = EDGE_CURVE ( 'NONE', #699, #733, #361, .T. ) ;
#695 = ORIENTED_EDGE ( 'NONE', *, *, #694, .F. ) ;
#696 = ORIENTED_EDGE ( 'NONE', *, *, #697, .T. ) ;
#697 = EDGE_CURVE ( 'NONE', #699, #610, #357, .T. ) ;
#698 = ORIENTED_EDGE ( 'NONE', *, *, #705, .F. ) ;
#699 = VERTEX_POINT ( 'NONE', #353 ) ;
#700 = ORIENTED_EDGE ( 'NONE', *, *, #641, .T. ) ;
#701 = VERTEX_POINT ( 'NONE', #352 ) ;
#702 = ORIENTED_EDGE ( 'NONE', *, *, #703, .F. ) ;
#703 = EDGE_CURVE ( 'NONE', #727, #701, #351, .T. ) ;
#704 = ORIENTED_EDGE ( 'NONE', *, *, #711, .F. ) ;
#705 = EDGE_CURVE ( 'NONE', #733, #630, #347, .T. ) ;
#706 = ORIENTED_EDGE ( 'NONE', *, *, #705, .T. ) ;
#707 = VERTEX_POINT ( 'NONE', #343 ) ;
#708 = EDGE_CURVE ( 'NONE', #744, #709, #342, .T. ) ;
#709 = VERTEX_POINT ( 'NONE', #338 ) ;
#710 = ORIENTED_EDGE ( 'NONE', *, *, #719, .F. ) ;
#711 = EDGE_CURVE ( 'NONE', #733, #561, #337, .T. ) ;
#712 = ADVANCED_FACE ( 'NONE', ( #333 ), #394, .F. ) ;
#713 = ORIENTED_EDGE ( 'NONE', *, *, #557, .F. ) ;
#714 = EDGE_LOOP ( 'NONE', ( #716, #736, #735, #737 ) ) ;
#715 = ORIENTED_EDGE ( 'NONE', *, *, #668, .F. ) ;
#716 = ORIENTED_EDGE ( 'NONE', *, *, #667, .F. ) ;
#717 = EDGE_LOOP ( 'NONE', ( #722, #723 ) ) ;
#718 = EDGE_CURVE ( 'NONE', #663, #685, #389, .T. ) ;
#719 = EDGE_CURVE ( 'NONE', #720, #744, #384, .T. ) ;
#720 = VERTEX_POINT ( 'NONE', #380 ) ;
#721 = ORIENTED_EDGE ( 'NONE', *, *, #739, .F. ) ;
#722 = ORIENTED_EDGE ( 'NONE', *, *, #672, .T. ) ;
#723 = ORIENTED_EDGE ( 'NONE', *, *, #718, .T. ) ;
#724 = ADVANCED_FACE ( 'NONE', ( #379 ), #378, .T. ) ;
#725 = EDGE_LOOP ( 'NONE', ( #726, #710, #721, #741, #702, #728, #652, #631, #643, #642, #644, #639 ) ) ;
#726 = ORIENTED_EDGE ( 'NONE', *, *, #708, .F. ) ;
#727 = VERTEX_POINT ( 'NONE', #373 ) ;
#728 = ORIENTED_EDGE ( 'NONE', *, *, #729, .F. ) ;
#729 = EDGE_CURVE ( 'NONE', #730, #727, #372, .T. ) ;
#730 = VERTEX_POINT ( 'NONE', #368 ) ;
#731 = ORIENTED_EDGE ( 'NONE', *, *, #718, .F. ) ;
#732 = EDGE_LOOP ( 'NONE', ( #700, #698, #695, #696 ) ) ;
#733 = VERTEX_POINT ( 'NONE', #367 ) ;
#734 = EDGE_CURVE ( 'NONE', #707, #730, #366, .T. ) ;
#735 = ORIENTED_EDGE ( 'NONE', *, *, #666, .T. ) ;
#736 = ORIENTED_EDGE ( 'NONE', *, *, #682, .T. ) ;
#737 = ORIENTED_EDGE ( 'NONE', *, *, #745, .T. ) ;
#738 = ORIENTED_EDGE ( 'NONE', *, *, #693, .T. ) ;
#739 = EDGE_CURVE ( 'NONE', #740, #720, #428, .T. ) ;
#740 = VERTEX_POINT ( 'NONE', #424 ) ;
#741 = ORIENTED_EDGE ( 'NONE', *, *, #742, .F. ) ;
#742 = EDGE_CURVE ( 'NONE', #701, #740, #423, .T. ) ;
#743 = ADVANCED_FACE ( 'NONE', ( #419, #418 ), #417, .F. ) ;
#744 = VERTEX_POINT ( 'NONE', #412 ) ;
#745 = EDGE_CURVE ( 'NONE', #654, #657, #410, .T. ) ;
#746 = CLOSED_SHELL ( 'NONE', ( #659, #622, #647, #661, #688, #691, #678, #724, #743, #759, #5, #539, #520, #527, #549, #554, #563, #712, #584, #606, #575, #568, #602, #752 ) ) ;
#747 = ORIENTED_EDGE ( 'NONE', *, *, #693, .F. ) ;
#748 = ORIENTED_EDGE ( 'NONE', *, *, #613, .T. ) ;
#749 = ORIENTED_EDGE ( 'NONE', *, *, #683, .F. ) ;
#750 = ORIENTED_EDGE ( 'NONE', *, *, #624, .F. ) ;
#751 = EDGE_LOOP ( 'NONE', ( #750, #749, #748, #747 ) ) ;
#752 = ADVANCED_FACE ( 'NONE', ( #411 ), #404, .T. ) ;
#753 = ORIENTED_EDGE ( 'NONE', *, *, #537, .T. ) ;
#754 = EDGE_LOOP ( 'NONE', ( #582, #580, #583, #586 ) ) ;
#755 = ORIENTED_EDGE ( 'NONE', *, *, #608, .F. ) ;
#756 = VERTEX_POINT ( 'NONE', #400 ) ;
#757 = ORIENTED_EDGE ( 'NONE', *, *, #650, .F. ) ;
#758 = EDGE_LOOP ( 'NONE', ( #757, #2, #28, #43 ) ) ;
#759 = ADVANCED_FACE ( 'NONE', ( #399 ), #398, .T. ) ;
#760 = ORIENTED_EDGE ( 'NONE', *, *, #530, .F. ) ;
#761 = VERTEX_POINT ( 'NONE', #439 ) ;
ENDSEC;
END-ISO-10303-21;
