M48
; DRILL file {KiCad 8.0.5} date 2024-09-18T07:32:04+0900
; FORMAT={-:-/ absolute / metric / decimal}
; #@! TF.CreationDate,2024-09-18T07:32:04+09:00
; #@! TF.GenerationSoftware,Kicad,Pcbnew,8.0.5
; #@! TF.FileFunction,NonPlated,1,2,NPTH
FMAT,2
METRIC
; #@! TA.AperFunction,NonPlated,NPTH,ComponentDrill
T1C1.600
; #@! TA.AperFunction,NonPlated,NPTH,ComponentDrill
T2C3.000
; #@! TA.AperFunction,NonPlated,NPTH,ComponentDrill
T3C5.000
%
G90
G05
T1
X119.627Y-80.483
X146.586Y-80.501
X166.774Y-87.218
X180.244Y-73.748
X186.979Y-13.131
X186.979Y-40.072
X193.715Y-60.278
T2
X118.85Y-93.848
X123.941Y-91.868
X145.808Y-93.865
X150.899Y-91.885
X165.996Y-100.583
X171.087Y-98.603
X179.466Y-87.112
X184.558Y-85.132
X186.202Y-26.496
X186.202Y-53.436
X191.293Y-24.516
X191.293Y-51.457
X192.937Y-73.642
X198.028Y-71.662
T3
X119.734Y-87.66
X146.692Y-87.678
X166.88Y-94.396
X180.35Y-80.925
X187.085Y-20.308
X187.085Y-47.249
X193.821Y-67.455
M30
