G04 #@! TF.GenerationSoftware,KiCad,Pcbnew,8.0.5*
G04 #@! TF.CreationDate,2024-09-18T07:32:08+09:00*
G04 #@! TF.ProjectId,SandyLP_Middle,53616e64-794c-4505-9f4d-6964646c652e,v.0*
G04 #@! TF.SameCoordinates,Original*
G04 #@! TF.FileFunction,AssemblyDrawing,Top*
%FSLAX46Y46*%
G04 Gerber Fmt 4.6, Leading zero omitted, Abs format (unit mm)*
G04 Created by KiCad (PCBNEW 8.0.5) date 2024-09-18 07:32:08*
%MOMM*%
%LPD*%
G01*
G04 APERTURE LIST*
%ADD10C,0.150000*%
G04 APERTURE END LIST*
D10*
X175923644Y-23694520D02*
X175216537Y-22987413D01*
X175553255Y-23324131D02*
X175957316Y-22920070D01*
X176327705Y-23290459D02*
X175620598Y-22583352D01*
X175990988Y-22347650D02*
X175990988Y-22280307D01*
X175990988Y-22280307D02*
X176024659Y-22179291D01*
X176024659Y-22179291D02*
X176193018Y-22010933D01*
X176193018Y-22010933D02*
X176294033Y-21977261D01*
X176294033Y-21977261D02*
X176361377Y-21977261D01*
X176361377Y-21977261D02*
X176462392Y-22010933D01*
X176462392Y-22010933D02*
X176529736Y-22078276D01*
X176529736Y-22078276D02*
X176597079Y-22212963D01*
X176597079Y-22212963D02*
X176597079Y-23021085D01*
X176597079Y-23021085D02*
X177034812Y-22583352D01*
X184342634Y-37164905D02*
X183635527Y-36457798D01*
X183972245Y-36794516D02*
X184376306Y-36390455D01*
X184746695Y-36760844D02*
X184039588Y-36053737D01*
X184915054Y-35649676D02*
X185386458Y-36121081D01*
X184477321Y-35548661D02*
X184814039Y-36222096D01*
X184814039Y-36222096D02*
X185251771Y-35784363D01*
X187710230Y-60738077D02*
X187003123Y-60030970D01*
X187339841Y-60367688D02*
X187743902Y-59963627D01*
X188114291Y-60334016D02*
X187407184Y-59626909D01*
X188046948Y-58987146D02*
X187912261Y-59121833D01*
X187912261Y-59121833D02*
X187878589Y-59222848D01*
X187878589Y-59222848D02*
X187878589Y-59290192D01*
X187878589Y-59290192D02*
X187912261Y-59458551D01*
X187912261Y-59458551D02*
X188013276Y-59626909D01*
X188013276Y-59626909D02*
X188282650Y-59896283D01*
X188282650Y-59896283D02*
X188383665Y-59929955D01*
X188383665Y-59929955D02*
X188451009Y-59929955D01*
X188451009Y-59929955D02*
X188552024Y-59896283D01*
X188552024Y-59896283D02*
X188686711Y-59761596D01*
X188686711Y-59761596D02*
X188720383Y-59660581D01*
X188720383Y-59660581D02*
X188720383Y-59593238D01*
X188720383Y-59593238D02*
X188686711Y-59492222D01*
X188686711Y-59492222D02*
X188518352Y-59323864D01*
X188518352Y-59323864D02*
X188417337Y-59290192D01*
X188417337Y-59290192D02*
X188349993Y-59290192D01*
X188349993Y-59290192D02*
X188248978Y-59323864D01*
X188248978Y-59323864D02*
X188114291Y-59458551D01*
X188114291Y-59458551D02*
X188080619Y-59559566D01*
X188080619Y-59559566D02*
X188080619Y-59626909D01*
X188080619Y-59626909D02*
X188114291Y-59727925D01*
X173397947Y-88520744D02*
X172690840Y-87813637D01*
X173027558Y-88150355D02*
X173431619Y-87746294D01*
X173802008Y-88116683D02*
X173094901Y-87409576D01*
X173364275Y-87140202D02*
X173835680Y-86668798D01*
X173835680Y-86668798D02*
X174239741Y-87678950D01*
X158243765Y-90204542D02*
X157536658Y-89497435D01*
X157873376Y-89834153D02*
X158277437Y-89430092D01*
X158647826Y-89800481D02*
X157940719Y-89093374D01*
X158614154Y-88419939D02*
X158277437Y-88756657D01*
X158277437Y-88756657D02*
X158580483Y-89127046D01*
X158580483Y-89127046D02*
X158580483Y-89059703D01*
X158580483Y-89059703D02*
X158614154Y-88958687D01*
X158614154Y-88958687D02*
X158782513Y-88790329D01*
X158782513Y-88790329D02*
X158883528Y-88756657D01*
X158883528Y-88756657D02*
X158950872Y-88756657D01*
X158950872Y-88756657D02*
X159051887Y-88790329D01*
X159051887Y-88790329D02*
X159220246Y-88958687D01*
X159220246Y-88958687D02*
X159253918Y-89059703D01*
X159253918Y-89059703D02*
X159253918Y-89127046D01*
X159253918Y-89127046D02*
X159220246Y-89228061D01*
X159220246Y-89228061D02*
X159051887Y-89396420D01*
X159051887Y-89396420D02*
X158950872Y-89430092D01*
X158950872Y-89430092D02*
X158883528Y-89430092D01*
X186868331Y-75050360D02*
X186161224Y-74343253D01*
X186497942Y-74679971D02*
X186902003Y-74275910D01*
X187272392Y-74646299D02*
X186565285Y-73939192D01*
X187306064Y-73804505D02*
X187205049Y-73838177D01*
X187205049Y-73838177D02*
X187137705Y-73838177D01*
X187137705Y-73838177D02*
X187036690Y-73804505D01*
X187036690Y-73804505D02*
X187003018Y-73770834D01*
X187003018Y-73770834D02*
X186969346Y-73669818D01*
X186969346Y-73669818D02*
X186969346Y-73602475D01*
X186969346Y-73602475D02*
X187003018Y-73501460D01*
X187003018Y-73501460D02*
X187137705Y-73366773D01*
X187137705Y-73366773D02*
X187238720Y-73333101D01*
X187238720Y-73333101D02*
X187306064Y-73333101D01*
X187306064Y-73333101D02*
X187407079Y-73366773D01*
X187407079Y-73366773D02*
X187440751Y-73400444D01*
X187440751Y-73400444D02*
X187474423Y-73501460D01*
X187474423Y-73501460D02*
X187474423Y-73568803D01*
X187474423Y-73568803D02*
X187440751Y-73669818D01*
X187440751Y-73669818D02*
X187306064Y-73804505D01*
X187306064Y-73804505D02*
X187272392Y-73905521D01*
X187272392Y-73905521D02*
X187272392Y-73972864D01*
X187272392Y-73972864D02*
X187306064Y-74073879D01*
X187306064Y-74073879D02*
X187440751Y-74208566D01*
X187440751Y-74208566D02*
X187541766Y-74242238D01*
X187541766Y-74242238D02*
X187609110Y-74242238D01*
X187609110Y-74242238D02*
X187710125Y-74208566D01*
X187710125Y-74208566D02*
X187844812Y-74073879D01*
X187844812Y-74073879D02*
X187878484Y-73972864D01*
X187878484Y-73972864D02*
X187878484Y-73905521D01*
X187878484Y-73905521D02*
X187844812Y-73804505D01*
X187844812Y-73804505D02*
X187710125Y-73669818D01*
X187710125Y-73669818D02*
X187609110Y-73636147D01*
X187609110Y-73636147D02*
X187541766Y-73636147D01*
X187541766Y-73636147D02*
X187440751Y-73669818D01*
X122042107Y-77576057D02*
X121335000Y-76868950D01*
X121671718Y-77205668D02*
X122075779Y-76801607D01*
X122446168Y-77171996D02*
X121739061Y-76464889D01*
X123153275Y-76464889D02*
X122749214Y-76868950D01*
X122951244Y-76666920D02*
X122244138Y-75959813D01*
X122244138Y-75959813D02*
X122277809Y-76128172D01*
X122277809Y-76128172D02*
X122277809Y-76262859D01*
X122277809Y-76262859D02*
X122244138Y-76363874D01*
X135512492Y-85995047D02*
X134805385Y-85287940D01*
X135142103Y-85624658D02*
X135546164Y-85220597D01*
X135916553Y-85590986D02*
X135209446Y-84883879D01*
X135478820Y-84614505D02*
X135916553Y-84176773D01*
X135916553Y-84176773D02*
X135950225Y-84681849D01*
X135950225Y-84681849D02*
X136051240Y-84580834D01*
X136051240Y-84580834D02*
X136152255Y-84547162D01*
X136152255Y-84547162D02*
X136219599Y-84547162D01*
X136219599Y-84547162D02*
X136320614Y-84580834D01*
X136320614Y-84580834D02*
X136488973Y-84749192D01*
X136488973Y-84749192D02*
X136522645Y-84850208D01*
X136522645Y-84850208D02*
X136522645Y-84917551D01*
X136522645Y-84917551D02*
X136488973Y-85018566D01*
X136488973Y-85018566D02*
X136286942Y-85220597D01*
X136286942Y-85220597D02*
X136185927Y-85254269D01*
X136185927Y-85254269D02*
X136118584Y-85254269D01*
X183214064Y-67454815D02*
X193820666Y-56848213D01*
X193820666Y-78061417D02*
X183214064Y-67454815D01*
X189790157Y-67101262D02*
X187527416Y-64838520D01*
X189790157Y-67101262D02*
X193467113Y-63424306D01*
X191204371Y-61161565D02*
X187527416Y-64838520D01*
X193467113Y-63424306D02*
X191204371Y-61161565D01*
X193820666Y-56848213D02*
X204427268Y-67454815D01*
X204427268Y-67454815D02*
X193820666Y-78061417D01*
X176478872Y-20308470D02*
X187085474Y-9701868D01*
X187085474Y-30915072D02*
X176478872Y-20308470D01*
X183054965Y-19954917D02*
X180792224Y-17692175D01*
X183054965Y-19954917D02*
X186731921Y-16277961D01*
X184469179Y-14015220D02*
X180792224Y-17692175D01*
X186731921Y-16277961D02*
X184469179Y-14015220D01*
X187085474Y-9701868D02*
X197692076Y-20308470D01*
X197692076Y-20308470D02*
X187085474Y-30915072D01*
X136085426Y-87678097D02*
X146692028Y-77071495D01*
X146692028Y-98284699D02*
X136085426Y-87678097D01*
X142661519Y-87324544D02*
X140398778Y-85061802D01*
X142661519Y-87324544D02*
X146338475Y-83647588D01*
X144075733Y-81384847D02*
X140398778Y-85061802D01*
X146338475Y-83647588D02*
X144075733Y-81384847D01*
X146692028Y-77071495D02*
X157298630Y-87678097D01*
X157298630Y-87678097D02*
X146692028Y-98284699D01*
X176478872Y-47249239D02*
X187085474Y-36642637D01*
X187085474Y-57855841D02*
X176478872Y-47249239D01*
X183054965Y-46895686D02*
X180792224Y-44632944D01*
X183054965Y-46895686D02*
X186731921Y-43218730D01*
X184469179Y-40955989D02*
X180792224Y-44632944D01*
X186731921Y-43218730D02*
X184469179Y-40955989D01*
X187085474Y-36642637D02*
X197692076Y-47249239D01*
X197692076Y-47249239D02*
X187085474Y-57855841D01*
X109126951Y-87660391D02*
X119733553Y-77053789D01*
X119733553Y-98266993D02*
X109126951Y-87660391D01*
X115703044Y-87306838D02*
X113440303Y-85044096D01*
X115703044Y-87306838D02*
X119380000Y-83629882D01*
X117117258Y-81367141D02*
X113440303Y-85044096D01*
X119380000Y-83629882D02*
X117117258Y-81367141D01*
X119733553Y-77053789D02*
X130340155Y-87660391D01*
X130340155Y-87660391D02*
X119733553Y-98266993D01*
X156273296Y-94395583D02*
X166879898Y-83788981D01*
X166879898Y-105002185D02*
X156273296Y-94395583D01*
X162849389Y-94042030D02*
X160586648Y-91779288D01*
X162849389Y-94042030D02*
X166526345Y-90365074D01*
X164263603Y-88102333D02*
X160586648Y-91779288D01*
X166526345Y-90365074D02*
X164263603Y-88102333D01*
X166879898Y-83788981D02*
X177486500Y-94395583D01*
X177486500Y-94395583D02*
X166879898Y-105002185D01*
X169743680Y-80925199D02*
X180350282Y-70318597D01*
X180350282Y-91531801D02*
X169743680Y-80925199D01*
X176319773Y-80571646D02*
X174057032Y-78308904D01*
X176319773Y-80571646D02*
X179996729Y-76894690D01*
X177733987Y-74631949D02*
X174057032Y-78308904D01*
X179996729Y-76894690D02*
X177733987Y-74631949D01*
X180350282Y-70318597D02*
X190956884Y-80925199D01*
X190956884Y-80925199D02*
X180350282Y-91531801D01*
M02*
