M48
; DRILL file {KiCad 8.0.5} date 2024-09-18T06:53:54+0900
; FORMAT={-:-/ absolute / metric / decimal}
; #@! TF.CreationDate,2024-09-18T06:53:54+09:00
; #@! TF.GenerationSoftware,Kicad,Pcbnew,8.0.5
; #@! TF.FileFunction,Plated,1,2,PTH
FMAT,2
METRIC
; #@! TA.AperFunction,Plated,PTH,ViaDrill
T1C0.400
; #@! TA.AperFunction,Plated,PTH,ComponentDrill
T2C0.400
; #@! TA.AperFunction,Plated,PTH,ComponentDrill
T3C1.000
; #@! TA.AperFunction,Plated,PTH,ComponentDrill
T4C2.200
%
G90
G05
T1
X121.666Y-35.338
X121.666Y-47.244
X121.666Y-53.792
X138.93Y-35.338
X138.93Y-46.053
X138.93Y-53.792
X140.716Y-66.294
X140.716Y-72.842
X151.73Y-68.972
X153.68Y-50.353
X156.88Y-48.928
X157.98Y-35.338
X157.98Y-55.578
X157.98Y-72.842
X160.88Y-63.728
X170.505Y-53.878
X175.244Y-72.842
X177.03Y-35.338
X177.03Y-46.053
X177.03Y-53.792
X194.294Y-35.338
X194.294Y-53.792
T2
X121.205Y-48.453
X121.205Y-51.253
X140.255Y-67.503
X140.255Y-70.303
T3
X128.215Y-41.291
X147.265Y-60.341
X166.315Y-41.291
X173.458Y-68.675
X187.746Y-41.291
T4
X138.93Y-40.1
X142.502Y-55.578
X157.98Y-46.053
X157.98Y-65.103
X173.458Y-55.578
X177.03Y-40.1
M30
