G04 #@! TF.GenerationSoftware,KiCad,Pcbnew,8.0.5*
G04 #@! TF.CreationDate,2024-09-18T06:53:56+09:00*
G04 #@! TF.ProjectId,SandyLP_Top,53616e64-794c-4505-9f54-6f702e6b6963,v.0*
G04 #@! TF.SameCoordinates,Original*
G04 #@! TF.FileFunction,Soldermask,Bot*
G04 #@! TF.FilePolarity,Negative*
%FSLAX46Y46*%
G04 Gerber Fmt 4.6, Leading zero omitted, Abs format (unit mm)*
G04 Created by KiCad (PCBNEW 8.0.5) date 2024-09-18 06:53:56*
%MOMM*%
%LPD*%
G01*
G04 APERTURE LIST*
%ADD10C,3.000000*%
%ADD11C,5.000000*%
%ADD12C,1.600000*%
%ADD13R,2.600000X2.600000*%
%ADD14C,0.800000*%
%ADD15R,1.625000X3.600000*%
%ADD16C,3.600000*%
%ADD17C,4.400000*%
%ADD18R,1.200000X0.900000*%
%ADD19C,2.000000*%
G04 APERTURE END LIST*
D10*
X143455310Y-68853405D03*
D11*
X148455310Y-65103405D03*
D10*
X148455310Y-71053405D03*
D12*
X153455310Y-59953405D03*
D13*
X151730310Y-71053405D03*
D14*
X140255310Y-67503405D03*
X140255310Y-70303405D03*
D15*
X140667810Y-68903405D03*
D10*
X143455310Y-49803405D03*
D11*
X148455310Y-46053405D03*
D10*
X148455310Y-52003405D03*
D12*
X153455310Y-40903405D03*
D13*
X151730310Y-52003405D03*
X140180310Y-49803405D03*
D16*
X142502185Y-55578405D03*
D17*
X142502185Y-55578405D03*
D10*
X181555310Y-49803405D03*
D11*
X186555310Y-46053405D03*
D10*
X186555310Y-52003405D03*
D12*
X191555310Y-40903405D03*
D13*
X189830310Y-52003405D03*
X178280310Y-49803405D03*
D16*
X177030310Y-40100280D03*
D17*
X177030310Y-40100280D03*
D10*
X124405310Y-49803405D03*
D11*
X129405310Y-46053405D03*
D10*
X129405310Y-52003405D03*
D12*
X134405310Y-40903405D03*
D13*
X132680310Y-52003405D03*
D14*
X121205310Y-48453405D03*
X121205310Y-51253405D03*
D15*
X121617810Y-49853405D03*
D16*
X157980310Y-65103405D03*
D17*
X157980310Y-65103405D03*
D16*
X157980310Y-46053405D03*
D17*
X157980310Y-46053405D03*
D16*
X138930310Y-40100280D03*
D17*
X138930310Y-40100280D03*
D10*
X162505310Y-49803405D03*
D11*
X167505310Y-46053405D03*
D10*
X167505310Y-52003405D03*
D12*
X172505310Y-40903405D03*
D13*
X170780310Y-52003405D03*
X159230310Y-49803405D03*
D16*
X173458435Y-55578405D03*
D17*
X173458435Y-55578405D03*
D10*
X162505310Y-68853405D03*
D11*
X167505310Y-65103405D03*
D10*
X167505310Y-71053405D03*
D12*
X172505310Y-59953405D03*
D13*
X170780310Y-71053405D03*
X159230310Y-68853405D03*
D18*
X143692810Y-62262780D03*
X143692810Y-65562780D03*
X181792810Y-43212780D03*
X181792810Y-46512780D03*
X162742810Y-61531530D03*
X162742810Y-64831530D03*
X162742810Y-42228405D03*
X162742810Y-45528405D03*
X124642810Y-42481530D03*
X124642810Y-45781530D03*
D19*
X128214685Y-41290905D03*
X187745935Y-41290905D03*
X166314685Y-41290905D03*
X173458435Y-68675280D03*
X147264685Y-60340905D03*
D18*
X143692810Y-43212780D03*
X143692810Y-46512780D03*
M02*
