M48
; DRILL file {KiCad 8.0.5} date 2024-09-18T06:53:54+0900
; FORMAT={-:-/ absolute / metric / decimal}
; #@! TF.CreationDate,2024-09-18T06:53:54+09:00
; #@! TF.GenerationSoftware,Kicad,Pcbnew,8.0.5
; #@! TF.FileFunction,NonPlated,1,2,NPTH
FMAT,2
METRIC
; #@! TA.AperFunction,NonPlated,NPTH,ComponentDrill
T1C1.600
; #@! TA.AperFunction,NonPlated,NPTH,ComponentDrill
T2C3.000
; #@! TA.AperFunction,NonPlated,NPTH,ComponentDrill
T3C5.000
%
G90
G05
T1
X134.405Y-40.903
X153.455Y-40.903
X153.455Y-59.953
X172.505Y-40.903
X172.505Y-59.953
X191.555Y-40.903
T2
X124.405Y-49.803
X129.405Y-52.003
X143.455Y-49.803
X143.455Y-68.853
X148.455Y-52.003
X148.455Y-71.053
X162.505Y-49.803
X162.505Y-68.853
X167.505Y-52.003
X167.505Y-71.053
X181.555Y-49.803
X186.555Y-52.003
T3
X129.405Y-46.053
X148.455Y-46.053
X148.455Y-65.103
X167.505Y-46.053
X167.505Y-65.103
X186.555Y-46.053
M30
