G04 #@! TF.GenerationSoftware,KiCad,Pcbnew,8.0.5*
G04 #@! TF.CreationDate,2024-09-18T06:53:56+09:00*
G04 #@! TF.ProjectId,SandyLP_Top,53616e64-794c-4505-9f54-6f702e6b6963,v.0*
G04 #@! TF.SameCoordinates,Original*
G04 #@! TF.FileFunction,AssemblyDrawing,Bot*
%FSLAX46Y46*%
G04 Gerber Fmt 4.6, Leading zero omitted, Abs format (unit mm)*
G04 Created by KiCad (PCBNEW 8.0.5) date 2024-09-18 06:53:56*
%MOMM*%
%LPD*%
G01*
G04 APERTURE LIST*
%ADD10C,0.150000*%
%ADD11C,0.120000*%
%ADD12C,0.100000*%
G04 APERTURE END LIST*
D10*
X147407690Y-70510605D02*
X147264833Y-70558224D01*
X147264833Y-70558224D02*
X147026738Y-70558224D01*
X147026738Y-70558224D02*
X146931500Y-70510605D01*
X146931500Y-70510605D02*
X146883881Y-70462985D01*
X146883881Y-70462985D02*
X146836262Y-70367747D01*
X146836262Y-70367747D02*
X146836262Y-70272509D01*
X146836262Y-70272509D02*
X146883881Y-70177271D01*
X146883881Y-70177271D02*
X146931500Y-70129652D01*
X146931500Y-70129652D02*
X147026738Y-70082033D01*
X147026738Y-70082033D02*
X147217214Y-70034414D01*
X147217214Y-70034414D02*
X147312452Y-69986795D01*
X147312452Y-69986795D02*
X147360071Y-69939176D01*
X147360071Y-69939176D02*
X147407690Y-69843938D01*
X147407690Y-69843938D02*
X147407690Y-69748700D01*
X147407690Y-69748700D02*
X147360071Y-69653462D01*
X147360071Y-69653462D02*
X147312452Y-69605843D01*
X147312452Y-69605843D02*
X147217214Y-69558224D01*
X147217214Y-69558224D02*
X146979119Y-69558224D01*
X146979119Y-69558224D02*
X146836262Y-69605843D01*
X146502928Y-69558224D02*
X146264833Y-70558224D01*
X146264833Y-70558224D02*
X146074357Y-69843938D01*
X146074357Y-69843938D02*
X145883881Y-70558224D01*
X145883881Y-70558224D02*
X145645786Y-69558224D01*
X145502929Y-70653462D02*
X144741024Y-70653462D01*
X144455309Y-70510605D02*
X144455309Y-70558224D01*
X144455309Y-70558224D02*
X144502928Y-70653462D01*
X144502928Y-70653462D02*
X144550547Y-70701081D01*
X144502928Y-69939176D02*
X144455309Y-69986795D01*
X144455309Y-69986795D02*
X144502928Y-70034414D01*
X144502928Y-70034414D02*
X144550547Y-69986795D01*
X144550547Y-69986795D02*
X144502928Y-69939176D01*
X144502928Y-69939176D02*
X144502928Y-70034414D01*
X143502929Y-70558224D02*
X144074357Y-70558224D01*
X143788643Y-70558224D02*
X143788643Y-69558224D01*
X143788643Y-69558224D02*
X143883881Y-69701081D01*
X143883881Y-69701081D02*
X143979119Y-69796319D01*
X143979119Y-69796319D02*
X144074357Y-69843938D01*
X147502928Y-51460605D02*
X147360071Y-51508224D01*
X147360071Y-51508224D02*
X147121976Y-51508224D01*
X147121976Y-51508224D02*
X147026738Y-51460605D01*
X147026738Y-51460605D02*
X146979119Y-51412985D01*
X146979119Y-51412985D02*
X146931500Y-51317747D01*
X146931500Y-51317747D02*
X146931500Y-51222509D01*
X146931500Y-51222509D02*
X146979119Y-51127271D01*
X146979119Y-51127271D02*
X147026738Y-51079652D01*
X147026738Y-51079652D02*
X147121976Y-51032033D01*
X147121976Y-51032033D02*
X147312452Y-50984414D01*
X147312452Y-50984414D02*
X147407690Y-50936795D01*
X147407690Y-50936795D02*
X147455309Y-50889176D01*
X147455309Y-50889176D02*
X147502928Y-50793938D01*
X147502928Y-50793938D02*
X147502928Y-50698700D01*
X147502928Y-50698700D02*
X147455309Y-50603462D01*
X147455309Y-50603462D02*
X147407690Y-50555843D01*
X147407690Y-50555843D02*
X147312452Y-50508224D01*
X147312452Y-50508224D02*
X147074357Y-50508224D01*
X147074357Y-50508224D02*
X146931500Y-50555843D01*
X146598166Y-50508224D02*
X146360071Y-51508224D01*
X146360071Y-51508224D02*
X146169595Y-50793938D01*
X146169595Y-50793938D02*
X145979119Y-51508224D01*
X145979119Y-51508224D02*
X145741024Y-50508224D01*
X145598167Y-51603462D02*
X144836262Y-51603462D01*
X144693404Y-51841557D02*
X144455309Y-51841557D01*
X144455309Y-51841557D02*
X144455309Y-50412985D01*
X144455309Y-50412985D02*
X144693404Y-50412985D01*
X143407690Y-51508224D02*
X143979118Y-51508224D01*
X143693404Y-51508224D02*
X143693404Y-50508224D01*
X143693404Y-50508224D02*
X143788642Y-50651081D01*
X143788642Y-50651081D02*
X143883880Y-50746319D01*
X143883880Y-50746319D02*
X143979118Y-50793938D01*
X185650547Y-51460605D02*
X185507690Y-51508224D01*
X185507690Y-51508224D02*
X185269595Y-51508224D01*
X185269595Y-51508224D02*
X185174357Y-51460605D01*
X185174357Y-51460605D02*
X185126738Y-51412985D01*
X185126738Y-51412985D02*
X185079119Y-51317747D01*
X185079119Y-51317747D02*
X185079119Y-51222509D01*
X185079119Y-51222509D02*
X185126738Y-51127271D01*
X185126738Y-51127271D02*
X185174357Y-51079652D01*
X185174357Y-51079652D02*
X185269595Y-51032033D01*
X185269595Y-51032033D02*
X185460071Y-50984414D01*
X185460071Y-50984414D02*
X185555309Y-50936795D01*
X185555309Y-50936795D02*
X185602928Y-50889176D01*
X185602928Y-50889176D02*
X185650547Y-50793938D01*
X185650547Y-50793938D02*
X185650547Y-50698700D01*
X185650547Y-50698700D02*
X185602928Y-50603462D01*
X185602928Y-50603462D02*
X185555309Y-50555843D01*
X185555309Y-50555843D02*
X185460071Y-50508224D01*
X185460071Y-50508224D02*
X185221976Y-50508224D01*
X185221976Y-50508224D02*
X185079119Y-50555843D01*
X184745785Y-50508224D02*
X184507690Y-51508224D01*
X184507690Y-51508224D02*
X184317214Y-50793938D01*
X184317214Y-50793938D02*
X184126738Y-51508224D01*
X184126738Y-51508224D02*
X183888643Y-50508224D01*
X183745786Y-51603462D02*
X182983881Y-51603462D01*
X182888642Y-50508224D02*
X182317214Y-50508224D01*
X182602928Y-51508224D02*
X182602928Y-50508224D01*
X181460071Y-51508224D02*
X182031499Y-51508224D01*
X181745785Y-51508224D02*
X181745785Y-50508224D01*
X181745785Y-50508224D02*
X181841023Y-50651081D01*
X181841023Y-50651081D02*
X181936261Y-50746319D01*
X181936261Y-50746319D02*
X182031499Y-50793938D01*
X128452928Y-51460605D02*
X128310071Y-51508224D01*
X128310071Y-51508224D02*
X128071976Y-51508224D01*
X128071976Y-51508224D02*
X127976738Y-51460605D01*
X127976738Y-51460605D02*
X127929119Y-51412985D01*
X127929119Y-51412985D02*
X127881500Y-51317747D01*
X127881500Y-51317747D02*
X127881500Y-51222509D01*
X127881500Y-51222509D02*
X127929119Y-51127271D01*
X127929119Y-51127271D02*
X127976738Y-51079652D01*
X127976738Y-51079652D02*
X128071976Y-51032033D01*
X128071976Y-51032033D02*
X128262452Y-50984414D01*
X128262452Y-50984414D02*
X128357690Y-50936795D01*
X128357690Y-50936795D02*
X128405309Y-50889176D01*
X128405309Y-50889176D02*
X128452928Y-50793938D01*
X128452928Y-50793938D02*
X128452928Y-50698700D01*
X128452928Y-50698700D02*
X128405309Y-50603462D01*
X128405309Y-50603462D02*
X128357690Y-50555843D01*
X128357690Y-50555843D02*
X128262452Y-50508224D01*
X128262452Y-50508224D02*
X128024357Y-50508224D01*
X128024357Y-50508224D02*
X127881500Y-50555843D01*
X127548166Y-50508224D02*
X127310071Y-51508224D01*
X127310071Y-51508224D02*
X127119595Y-50793938D01*
X127119595Y-50793938D02*
X126929119Y-51508224D01*
X126929119Y-51508224D02*
X126691024Y-50508224D01*
X126548167Y-51603462D02*
X125786262Y-51603462D01*
X125262452Y-51841557D02*
X125500547Y-51841557D01*
X125500547Y-51841557D02*
X125500547Y-50412985D01*
X125500547Y-50412985D02*
X125262452Y-50412985D01*
X124357690Y-51508224D02*
X124929118Y-51508224D01*
X124643404Y-51508224D02*
X124643404Y-50508224D01*
X124643404Y-50508224D02*
X124738642Y-50651081D01*
X124738642Y-50651081D02*
X124833880Y-50746319D01*
X124833880Y-50746319D02*
X124929118Y-50793938D01*
X166648166Y-51460605D02*
X166505309Y-51508224D01*
X166505309Y-51508224D02*
X166267214Y-51508224D01*
X166267214Y-51508224D02*
X166171976Y-51460605D01*
X166171976Y-51460605D02*
X166124357Y-51412985D01*
X166124357Y-51412985D02*
X166076738Y-51317747D01*
X166076738Y-51317747D02*
X166076738Y-51222509D01*
X166076738Y-51222509D02*
X166124357Y-51127271D01*
X166124357Y-51127271D02*
X166171976Y-51079652D01*
X166171976Y-51079652D02*
X166267214Y-51032033D01*
X166267214Y-51032033D02*
X166457690Y-50984414D01*
X166457690Y-50984414D02*
X166552928Y-50936795D01*
X166552928Y-50936795D02*
X166600547Y-50889176D01*
X166600547Y-50889176D02*
X166648166Y-50793938D01*
X166648166Y-50793938D02*
X166648166Y-50698700D01*
X166648166Y-50698700D02*
X166600547Y-50603462D01*
X166600547Y-50603462D02*
X166552928Y-50555843D01*
X166552928Y-50555843D02*
X166457690Y-50508224D01*
X166457690Y-50508224D02*
X166219595Y-50508224D01*
X166219595Y-50508224D02*
X166076738Y-50555843D01*
X165743404Y-50508224D02*
X165505309Y-51508224D01*
X165505309Y-51508224D02*
X165314833Y-50793938D01*
X165314833Y-50793938D02*
X165124357Y-51508224D01*
X165124357Y-51508224D02*
X164886262Y-50508224D01*
X164743405Y-51603462D02*
X163981500Y-51603462D01*
X163552928Y-51032033D02*
X163552928Y-51508224D01*
X163886261Y-50508224D02*
X163552928Y-51032033D01*
X163552928Y-51032033D02*
X163219595Y-50508224D01*
X162362452Y-51508224D02*
X162933880Y-51508224D01*
X162648166Y-51508224D02*
X162648166Y-50508224D01*
X162648166Y-50508224D02*
X162743404Y-50651081D01*
X162743404Y-50651081D02*
X162838642Y-50746319D01*
X162838642Y-50746319D02*
X162933880Y-50793938D01*
X166457690Y-70510605D02*
X166314833Y-70558224D01*
X166314833Y-70558224D02*
X166076738Y-70558224D01*
X166076738Y-70558224D02*
X165981500Y-70510605D01*
X165981500Y-70510605D02*
X165933881Y-70462985D01*
X165933881Y-70462985D02*
X165886262Y-70367747D01*
X165886262Y-70367747D02*
X165886262Y-70272509D01*
X165886262Y-70272509D02*
X165933881Y-70177271D01*
X165933881Y-70177271D02*
X165981500Y-70129652D01*
X165981500Y-70129652D02*
X166076738Y-70082033D01*
X166076738Y-70082033D02*
X166267214Y-70034414D01*
X166267214Y-70034414D02*
X166362452Y-69986795D01*
X166362452Y-69986795D02*
X166410071Y-69939176D01*
X166410071Y-69939176D02*
X166457690Y-69843938D01*
X166457690Y-69843938D02*
X166457690Y-69748700D01*
X166457690Y-69748700D02*
X166410071Y-69653462D01*
X166410071Y-69653462D02*
X166362452Y-69605843D01*
X166362452Y-69605843D02*
X166267214Y-69558224D01*
X166267214Y-69558224D02*
X166029119Y-69558224D01*
X166029119Y-69558224D02*
X165886262Y-69605843D01*
X165552928Y-69558224D02*
X165314833Y-70558224D01*
X165314833Y-70558224D02*
X165124357Y-69843938D01*
X165124357Y-69843938D02*
X164933881Y-70558224D01*
X164933881Y-70558224D02*
X164695786Y-69558224D01*
X164552929Y-70653462D02*
X163791024Y-70653462D01*
X163505309Y-69558224D02*
X163600547Y-69748700D01*
X162552929Y-70558224D02*
X163124357Y-70558224D01*
X162838643Y-70558224D02*
X162838643Y-69558224D01*
X162838643Y-69558224D02*
X162933881Y-69701081D01*
X162933881Y-69701081D02*
X163029119Y-69796319D01*
X163029119Y-69796319D02*
X163124357Y-69843938D01*
X142147629Y-63174685D02*
X141147629Y-63174685D01*
X141147629Y-63174685D02*
X141147629Y-63412780D01*
X141147629Y-63412780D02*
X141195248Y-63555637D01*
X141195248Y-63555637D02*
X141290486Y-63650875D01*
X141290486Y-63650875D02*
X141385724Y-63698494D01*
X141385724Y-63698494D02*
X141576200Y-63746113D01*
X141576200Y-63746113D02*
X141719057Y-63746113D01*
X141719057Y-63746113D02*
X141909533Y-63698494D01*
X141909533Y-63698494D02*
X142004771Y-63650875D01*
X142004771Y-63650875D02*
X142100010Y-63555637D01*
X142100010Y-63555637D02*
X142147629Y-63412780D01*
X142147629Y-63412780D02*
X142147629Y-63174685D01*
X141147629Y-64650875D02*
X141147629Y-64174685D01*
X141147629Y-64174685D02*
X141623819Y-64127066D01*
X141623819Y-64127066D02*
X141576200Y-64174685D01*
X141576200Y-64174685D02*
X141528581Y-64269923D01*
X141528581Y-64269923D02*
X141528581Y-64508018D01*
X141528581Y-64508018D02*
X141576200Y-64603256D01*
X141576200Y-64603256D02*
X141623819Y-64650875D01*
X141623819Y-64650875D02*
X141719057Y-64698494D01*
X141719057Y-64698494D02*
X141957152Y-64698494D01*
X141957152Y-64698494D02*
X142052390Y-64650875D01*
X142052390Y-64650875D02*
X142100010Y-64603256D01*
X142100010Y-64603256D02*
X142147629Y-64508018D01*
X142147629Y-64508018D02*
X142147629Y-64269923D01*
X142147629Y-64269923D02*
X142100010Y-64174685D01*
X142100010Y-64174685D02*
X142052390Y-64127066D01*
X180247629Y-44124685D02*
X179247629Y-44124685D01*
X179247629Y-44124685D02*
X179247629Y-44362780D01*
X179247629Y-44362780D02*
X179295248Y-44505637D01*
X179295248Y-44505637D02*
X179390486Y-44600875D01*
X179390486Y-44600875D02*
X179485724Y-44648494D01*
X179485724Y-44648494D02*
X179676200Y-44696113D01*
X179676200Y-44696113D02*
X179819057Y-44696113D01*
X179819057Y-44696113D02*
X180009533Y-44648494D01*
X180009533Y-44648494D02*
X180104771Y-44600875D01*
X180104771Y-44600875D02*
X180200010Y-44505637D01*
X180200010Y-44505637D02*
X180247629Y-44362780D01*
X180247629Y-44362780D02*
X180247629Y-44124685D01*
X179580962Y-45553256D02*
X180247629Y-45553256D01*
X179200010Y-45315161D02*
X179914295Y-45077066D01*
X179914295Y-45077066D02*
X179914295Y-45696113D01*
X161197629Y-62443435D02*
X160197629Y-62443435D01*
X160197629Y-62443435D02*
X160197629Y-62681530D01*
X160197629Y-62681530D02*
X160245248Y-62824387D01*
X160245248Y-62824387D02*
X160340486Y-62919625D01*
X160340486Y-62919625D02*
X160435724Y-62967244D01*
X160435724Y-62967244D02*
X160626200Y-63014863D01*
X160626200Y-63014863D02*
X160769057Y-63014863D01*
X160769057Y-63014863D02*
X160959533Y-62967244D01*
X160959533Y-62967244D02*
X161054771Y-62919625D01*
X161054771Y-62919625D02*
X161150010Y-62824387D01*
X161150010Y-62824387D02*
X161197629Y-62681530D01*
X161197629Y-62681530D02*
X161197629Y-62443435D01*
X160197629Y-63872006D02*
X160197629Y-63681530D01*
X160197629Y-63681530D02*
X160245248Y-63586292D01*
X160245248Y-63586292D02*
X160292867Y-63538673D01*
X160292867Y-63538673D02*
X160435724Y-63443435D01*
X160435724Y-63443435D02*
X160626200Y-63395816D01*
X160626200Y-63395816D02*
X161007152Y-63395816D01*
X161007152Y-63395816D02*
X161102390Y-63443435D01*
X161102390Y-63443435D02*
X161150010Y-63491054D01*
X161150010Y-63491054D02*
X161197629Y-63586292D01*
X161197629Y-63586292D02*
X161197629Y-63776768D01*
X161197629Y-63776768D02*
X161150010Y-63872006D01*
X161150010Y-63872006D02*
X161102390Y-63919625D01*
X161102390Y-63919625D02*
X161007152Y-63967244D01*
X161007152Y-63967244D02*
X160769057Y-63967244D01*
X160769057Y-63967244D02*
X160673819Y-63919625D01*
X160673819Y-63919625D02*
X160626200Y-63872006D01*
X160626200Y-63872006D02*
X160578581Y-63776768D01*
X160578581Y-63776768D02*
X160578581Y-63586292D01*
X160578581Y-63586292D02*
X160626200Y-63491054D01*
X160626200Y-63491054D02*
X160673819Y-63443435D01*
X160673819Y-63443435D02*
X160769057Y-63395816D01*
X161197629Y-43140310D02*
X160197629Y-43140310D01*
X160197629Y-43140310D02*
X160197629Y-43378405D01*
X160197629Y-43378405D02*
X160245248Y-43521262D01*
X160245248Y-43521262D02*
X160340486Y-43616500D01*
X160340486Y-43616500D02*
X160435724Y-43664119D01*
X160435724Y-43664119D02*
X160626200Y-43711738D01*
X160626200Y-43711738D02*
X160769057Y-43711738D01*
X160769057Y-43711738D02*
X160959533Y-43664119D01*
X160959533Y-43664119D02*
X161054771Y-43616500D01*
X161054771Y-43616500D02*
X161150010Y-43521262D01*
X161150010Y-43521262D02*
X161197629Y-43378405D01*
X161197629Y-43378405D02*
X161197629Y-43140310D01*
X160197629Y-44045072D02*
X160197629Y-44664119D01*
X160197629Y-44664119D02*
X160578581Y-44330786D01*
X160578581Y-44330786D02*
X160578581Y-44473643D01*
X160578581Y-44473643D02*
X160626200Y-44568881D01*
X160626200Y-44568881D02*
X160673819Y-44616500D01*
X160673819Y-44616500D02*
X160769057Y-44664119D01*
X160769057Y-44664119D02*
X161007152Y-44664119D01*
X161007152Y-44664119D02*
X161102390Y-44616500D01*
X161102390Y-44616500D02*
X161150010Y-44568881D01*
X161150010Y-44568881D02*
X161197629Y-44473643D01*
X161197629Y-44473643D02*
X161197629Y-44187929D01*
X161197629Y-44187929D02*
X161150010Y-44092691D01*
X161150010Y-44092691D02*
X161102390Y-44045072D01*
X123097629Y-43393435D02*
X122097629Y-43393435D01*
X122097629Y-43393435D02*
X122097629Y-43631530D01*
X122097629Y-43631530D02*
X122145248Y-43774387D01*
X122145248Y-43774387D02*
X122240486Y-43869625D01*
X122240486Y-43869625D02*
X122335724Y-43917244D01*
X122335724Y-43917244D02*
X122526200Y-43964863D01*
X122526200Y-43964863D02*
X122669057Y-43964863D01*
X122669057Y-43964863D02*
X122859533Y-43917244D01*
X122859533Y-43917244D02*
X122954771Y-43869625D01*
X122954771Y-43869625D02*
X123050010Y-43774387D01*
X123050010Y-43774387D02*
X123097629Y-43631530D01*
X123097629Y-43631530D02*
X123097629Y-43393435D01*
X123097629Y-44917244D02*
X123097629Y-44345816D01*
X123097629Y-44631530D02*
X122097629Y-44631530D01*
X122097629Y-44631530D02*
X122240486Y-44536292D01*
X122240486Y-44536292D02*
X122335724Y-44441054D01*
X122335724Y-44441054D02*
X122383343Y-44345816D01*
X131024208Y-39221914D02*
X130690875Y-39221914D01*
X130548018Y-39745724D02*
X131024208Y-39745724D01*
X131024208Y-39745724D02*
X131024208Y-38745724D01*
X131024208Y-38745724D02*
X130548018Y-38745724D01*
X130214684Y-38745724D02*
X129548018Y-39745724D01*
X129548018Y-38745724D02*
X130214684Y-39745724D01*
X129309922Y-38745724D02*
X128738494Y-38745724D01*
X129024208Y-39745724D02*
X129024208Y-38745724D01*
X128643256Y-39840962D02*
X127881351Y-39840962D01*
X127786112Y-38745724D02*
X127214684Y-38745724D01*
X127500398Y-39745724D02*
X127500398Y-38745724D01*
X126309922Y-39745724D02*
X126643255Y-39269533D01*
X126881350Y-39745724D02*
X126881350Y-38745724D01*
X126881350Y-38745724D02*
X126500398Y-38745724D01*
X126500398Y-38745724D02*
X126405160Y-38793343D01*
X126405160Y-38793343D02*
X126357541Y-38840962D01*
X126357541Y-38840962D02*
X126309922Y-38936200D01*
X126309922Y-38936200D02*
X126309922Y-39079057D01*
X126309922Y-39079057D02*
X126357541Y-39174295D01*
X126357541Y-39174295D02*
X126405160Y-39221914D01*
X126405160Y-39221914D02*
X126500398Y-39269533D01*
X126500398Y-39269533D02*
X126881350Y-39269533D01*
X125690874Y-38745724D02*
X125595636Y-38745724D01*
X125595636Y-38745724D02*
X125500398Y-38793343D01*
X125500398Y-38793343D02*
X125452779Y-38840962D01*
X125452779Y-38840962D02*
X125405160Y-38936200D01*
X125405160Y-38936200D02*
X125357541Y-39126676D01*
X125357541Y-39126676D02*
X125357541Y-39364771D01*
X125357541Y-39364771D02*
X125405160Y-39555247D01*
X125405160Y-39555247D02*
X125452779Y-39650485D01*
X125452779Y-39650485D02*
X125500398Y-39698105D01*
X125500398Y-39698105D02*
X125595636Y-39745724D01*
X125595636Y-39745724D02*
X125690874Y-39745724D01*
X125690874Y-39745724D02*
X125786112Y-39698105D01*
X125786112Y-39698105D02*
X125833731Y-39650485D01*
X125833731Y-39650485D02*
X125881350Y-39555247D01*
X125881350Y-39555247D02*
X125928969Y-39364771D01*
X125928969Y-39364771D02*
X125928969Y-39126676D01*
X125928969Y-39126676D02*
X125881350Y-38936200D01*
X125881350Y-38936200D02*
X125833731Y-38840962D01*
X125833731Y-38840962D02*
X125786112Y-38793343D01*
X125786112Y-38793343D02*
X125690874Y-38745724D01*
X190555458Y-39221914D02*
X190222125Y-39221914D01*
X190079268Y-39745724D02*
X190555458Y-39745724D01*
X190555458Y-39745724D02*
X190555458Y-38745724D01*
X190555458Y-38745724D02*
X190079268Y-38745724D01*
X189745934Y-38745724D02*
X189079268Y-39745724D01*
X189079268Y-38745724D02*
X189745934Y-39745724D01*
X188841172Y-38745724D02*
X188269744Y-38745724D01*
X188555458Y-39745724D02*
X188555458Y-38745724D01*
X188174506Y-39840962D02*
X187412601Y-39840962D01*
X187317362Y-38745724D02*
X186745934Y-38745724D01*
X187031648Y-39745724D02*
X187031648Y-38745724D01*
X185841172Y-39745724D02*
X186174505Y-39269533D01*
X186412600Y-39745724D02*
X186412600Y-38745724D01*
X186412600Y-38745724D02*
X186031648Y-38745724D01*
X186031648Y-38745724D02*
X185936410Y-38793343D01*
X185936410Y-38793343D02*
X185888791Y-38840962D01*
X185888791Y-38840962D02*
X185841172Y-38936200D01*
X185841172Y-38936200D02*
X185841172Y-39079057D01*
X185841172Y-39079057D02*
X185888791Y-39174295D01*
X185888791Y-39174295D02*
X185936410Y-39221914D01*
X185936410Y-39221914D02*
X186031648Y-39269533D01*
X186031648Y-39269533D02*
X186412600Y-39269533D01*
X184984029Y-39079057D02*
X184984029Y-39745724D01*
X185222124Y-38698105D02*
X185460219Y-39412390D01*
X185460219Y-39412390D02*
X184841172Y-39412390D01*
X169124208Y-39221914D02*
X168790875Y-39221914D01*
X168648018Y-39745724D02*
X169124208Y-39745724D01*
X169124208Y-39745724D02*
X169124208Y-38745724D01*
X169124208Y-38745724D02*
X168648018Y-38745724D01*
X168314684Y-38745724D02*
X167648018Y-39745724D01*
X167648018Y-38745724D02*
X168314684Y-39745724D01*
X167409922Y-38745724D02*
X166838494Y-38745724D01*
X167124208Y-39745724D02*
X167124208Y-38745724D01*
X166743256Y-39840962D02*
X165981351Y-39840962D01*
X165886112Y-38745724D02*
X165314684Y-38745724D01*
X165600398Y-39745724D02*
X165600398Y-38745724D01*
X164409922Y-39650485D02*
X164457541Y-39698105D01*
X164457541Y-39698105D02*
X164600398Y-39745724D01*
X164600398Y-39745724D02*
X164695636Y-39745724D01*
X164695636Y-39745724D02*
X164838493Y-39698105D01*
X164838493Y-39698105D02*
X164933731Y-39602866D01*
X164933731Y-39602866D02*
X164981350Y-39507628D01*
X164981350Y-39507628D02*
X165028969Y-39317152D01*
X165028969Y-39317152D02*
X165028969Y-39174295D01*
X165028969Y-39174295D02*
X164981350Y-38983819D01*
X164981350Y-38983819D02*
X164933731Y-38888581D01*
X164933731Y-38888581D02*
X164838493Y-38793343D01*
X164838493Y-38793343D02*
X164695636Y-38745724D01*
X164695636Y-38745724D02*
X164600398Y-38745724D01*
X164600398Y-38745724D02*
X164457541Y-38793343D01*
X164457541Y-38793343D02*
X164409922Y-38840962D01*
X164076588Y-38745724D02*
X163457541Y-38745724D01*
X163457541Y-38745724D02*
X163790874Y-39126676D01*
X163790874Y-39126676D02*
X163648017Y-39126676D01*
X163648017Y-39126676D02*
X163552779Y-39174295D01*
X163552779Y-39174295D02*
X163505160Y-39221914D01*
X163505160Y-39221914D02*
X163457541Y-39317152D01*
X163457541Y-39317152D02*
X163457541Y-39555247D01*
X163457541Y-39555247D02*
X163505160Y-39650485D01*
X163505160Y-39650485D02*
X163552779Y-39698105D01*
X163552779Y-39698105D02*
X163648017Y-39745724D01*
X163648017Y-39745724D02*
X163933731Y-39745724D01*
X163933731Y-39745724D02*
X164028969Y-39698105D01*
X164028969Y-39698105D02*
X164076588Y-39650485D01*
X176267958Y-66606289D02*
X175934625Y-66606289D01*
X175791768Y-67130099D02*
X176267958Y-67130099D01*
X176267958Y-67130099D02*
X176267958Y-66130099D01*
X176267958Y-66130099D02*
X175791768Y-66130099D01*
X175458434Y-66130099D02*
X174791768Y-67130099D01*
X174791768Y-66130099D02*
X175458434Y-67130099D01*
X174553672Y-66130099D02*
X173982244Y-66130099D01*
X174267958Y-67130099D02*
X174267958Y-66130099D01*
X173887006Y-67225337D02*
X173125101Y-67225337D01*
X173029862Y-66130099D02*
X172458434Y-66130099D01*
X172744148Y-67130099D02*
X172744148Y-66130099D01*
X171553672Y-67034860D02*
X171601291Y-67082480D01*
X171601291Y-67082480D02*
X171744148Y-67130099D01*
X171744148Y-67130099D02*
X171839386Y-67130099D01*
X171839386Y-67130099D02*
X171982243Y-67082480D01*
X171982243Y-67082480D02*
X172077481Y-66987241D01*
X172077481Y-66987241D02*
X172125100Y-66892003D01*
X172125100Y-66892003D02*
X172172719Y-66701527D01*
X172172719Y-66701527D02*
X172172719Y-66558670D01*
X172172719Y-66558670D02*
X172125100Y-66368194D01*
X172125100Y-66368194D02*
X172077481Y-66272956D01*
X172077481Y-66272956D02*
X171982243Y-66177718D01*
X171982243Y-66177718D02*
X171839386Y-66130099D01*
X171839386Y-66130099D02*
X171744148Y-66130099D01*
X171744148Y-66130099D02*
X171601291Y-66177718D01*
X171601291Y-66177718D02*
X171553672Y-66225337D01*
X170696529Y-66463432D02*
X170696529Y-67130099D01*
X170934624Y-66082480D02*
X171172719Y-66796765D01*
X171172719Y-66796765D02*
X170553672Y-66796765D01*
X150074208Y-58271914D02*
X149740875Y-58271914D01*
X149598018Y-58795724D02*
X150074208Y-58795724D01*
X150074208Y-58795724D02*
X150074208Y-57795724D01*
X150074208Y-57795724D02*
X149598018Y-57795724D01*
X149264684Y-57795724D02*
X148598018Y-58795724D01*
X148598018Y-57795724D02*
X149264684Y-58795724D01*
X148359922Y-57795724D02*
X147788494Y-57795724D01*
X148074208Y-58795724D02*
X148074208Y-57795724D01*
X147693256Y-58890962D02*
X146931351Y-58890962D01*
X146836112Y-57795724D02*
X146264684Y-57795724D01*
X146550398Y-58795724D02*
X146550398Y-57795724D01*
X145359922Y-58795724D02*
X145693255Y-58319533D01*
X145931350Y-58795724D02*
X145931350Y-57795724D01*
X145931350Y-57795724D02*
X145550398Y-57795724D01*
X145550398Y-57795724D02*
X145455160Y-57843343D01*
X145455160Y-57843343D02*
X145407541Y-57890962D01*
X145407541Y-57890962D02*
X145359922Y-57986200D01*
X145359922Y-57986200D02*
X145359922Y-58129057D01*
X145359922Y-58129057D02*
X145407541Y-58224295D01*
X145407541Y-58224295D02*
X145455160Y-58271914D01*
X145455160Y-58271914D02*
X145550398Y-58319533D01*
X145550398Y-58319533D02*
X145931350Y-58319533D01*
X144407541Y-58795724D02*
X144978969Y-58795724D01*
X144693255Y-58795724D02*
X144693255Y-57795724D01*
X144693255Y-57795724D02*
X144788493Y-57938581D01*
X144788493Y-57938581D02*
X144883731Y-58033819D01*
X144883731Y-58033819D02*
X144978969Y-58081438D01*
X142147629Y-44124685D02*
X141147629Y-44124685D01*
X141147629Y-44124685D02*
X141147629Y-44362780D01*
X141147629Y-44362780D02*
X141195248Y-44505637D01*
X141195248Y-44505637D02*
X141290486Y-44600875D01*
X141290486Y-44600875D02*
X141385724Y-44648494D01*
X141385724Y-44648494D02*
X141576200Y-44696113D01*
X141576200Y-44696113D02*
X141719057Y-44696113D01*
X141719057Y-44696113D02*
X141909533Y-44648494D01*
X141909533Y-44648494D02*
X142004771Y-44600875D01*
X142004771Y-44600875D02*
X142100010Y-44505637D01*
X142100010Y-44505637D02*
X142147629Y-44362780D01*
X142147629Y-44362780D02*
X142147629Y-44124685D01*
X141242867Y-45077066D02*
X141195248Y-45124685D01*
X141195248Y-45124685D02*
X141147629Y-45219923D01*
X141147629Y-45219923D02*
X141147629Y-45458018D01*
X141147629Y-45458018D02*
X141195248Y-45553256D01*
X141195248Y-45553256D02*
X141242867Y-45600875D01*
X141242867Y-45600875D02*
X141338105Y-45648494D01*
X141338105Y-45648494D02*
X141433343Y-45648494D01*
X141433343Y-45648494D02*
X141576200Y-45600875D01*
X141576200Y-45600875D02*
X142147629Y-45029447D01*
X142147629Y-45029447D02*
X142147629Y-45648494D01*
D11*
X139855310Y-67603405D02*
X141455310Y-67603405D01*
X139855310Y-70103405D02*
X139855310Y-67603405D01*
X141455310Y-66603405D02*
X141455310Y-71303405D01*
X141455310Y-70103405D02*
X139855310Y-70103405D01*
D10*
X141455310Y-71303405D02*
X145955310Y-71303405D01*
X145955310Y-66603405D02*
X141455310Y-66603405D01*
X145955310Y-67303405D02*
X145955310Y-66603405D01*
X146455310Y-71803405D02*
X146455310Y-72803405D01*
X146955310Y-73303405D02*
X146455310Y-72803405D01*
X149955310Y-68803405D02*
X147455310Y-68803405D01*
X149955310Y-73303405D02*
X146955310Y-73303405D01*
X150455310Y-69303405D02*
X149955310Y-68803405D01*
D11*
X150455310Y-69353405D02*
X150455310Y-72803405D01*
X150455310Y-69853405D02*
X152955310Y-69853405D01*
D10*
X150455310Y-72803405D02*
X149955310Y-73303405D01*
D11*
X152955310Y-69853405D02*
X152955310Y-72353405D01*
X152955310Y-72353405D02*
X150455310Y-72353405D01*
D10*
X145955310Y-71303405D02*
G75*
G02*
X146455310Y-71803405I-1J-500001D01*
G01*
X147455310Y-68803405D02*
G75*
G02*
X145955310Y-67303405I1J1500001D01*
G01*
D11*
X138955310Y-48553405D02*
X141455310Y-48553405D01*
X138955310Y-51053405D02*
X138955310Y-48553405D01*
X141455310Y-47553405D02*
X141455310Y-52253405D01*
X141455310Y-51053405D02*
X138955310Y-51053405D01*
D10*
X141455310Y-52253405D02*
X145955310Y-52253405D01*
X145955310Y-47553405D02*
X141455310Y-47553405D01*
X145955310Y-48253405D02*
X145955310Y-47553405D01*
X146455310Y-52753405D02*
X146455310Y-53753405D01*
X146955310Y-54253405D02*
X146455310Y-53753405D01*
X149955310Y-49753405D02*
X147455310Y-49753405D01*
X149955310Y-54253405D02*
X146955310Y-54253405D01*
X150455310Y-50253405D02*
X149955310Y-49753405D01*
D11*
X150455310Y-50303405D02*
X150455310Y-53753405D01*
X150455310Y-50803405D02*
X152955310Y-50803405D01*
D10*
X150455310Y-53753405D02*
X149955310Y-54253405D01*
D11*
X152955310Y-50803405D02*
X152955310Y-53303405D01*
X152955310Y-53303405D02*
X150455310Y-53303405D01*
D10*
X145955310Y-52253405D02*
G75*
G02*
X146455310Y-52753405I-1J-500001D01*
G01*
X147455310Y-49753405D02*
G75*
G02*
X145955310Y-48253405I1J1500001D01*
G01*
D11*
X177055310Y-48553405D02*
X179555310Y-48553405D01*
X177055310Y-51053405D02*
X177055310Y-48553405D01*
X179555310Y-47553405D02*
X179555310Y-52253405D01*
X179555310Y-51053405D02*
X177055310Y-51053405D01*
D10*
X179555310Y-52253405D02*
X184055310Y-52253405D01*
X184055310Y-47553405D02*
X179555310Y-47553405D01*
X184055310Y-48253405D02*
X184055310Y-47553405D01*
X184555310Y-52753405D02*
X184555310Y-53753405D01*
X185055310Y-54253405D02*
X184555310Y-53753405D01*
X188055310Y-49753405D02*
X185555310Y-49753405D01*
X188055310Y-54253405D02*
X185055310Y-54253405D01*
X188555310Y-50253405D02*
X188055310Y-49753405D01*
D11*
X188555310Y-50303405D02*
X188555310Y-53753405D01*
X188555310Y-50803405D02*
X191055310Y-50803405D01*
D10*
X188555310Y-53753405D02*
X188055310Y-54253405D01*
D11*
X191055310Y-50803405D02*
X191055310Y-53303405D01*
X191055310Y-53303405D02*
X188555310Y-53303405D01*
D10*
X184055310Y-52253405D02*
G75*
G02*
X184555310Y-52753405I-1J-500001D01*
G01*
X185555310Y-49753405D02*
G75*
G02*
X184055310Y-48253405I1J1500001D01*
G01*
D11*
X120805310Y-48553405D02*
X122405310Y-48553405D01*
X120805310Y-51053405D02*
X120805310Y-48553405D01*
X122405310Y-47553405D02*
X122405310Y-52253405D01*
X122405310Y-51053405D02*
X120805310Y-51053405D01*
D10*
X122405310Y-52253405D02*
X126905310Y-52253405D01*
X126905310Y-47553405D02*
X122405310Y-47553405D01*
X126905310Y-48253405D02*
X126905310Y-47553405D01*
X127405310Y-52753405D02*
X127405310Y-53753405D01*
X127905310Y-54253405D02*
X127405310Y-53753405D01*
X130905310Y-49753405D02*
X128405310Y-49753405D01*
X130905310Y-54253405D02*
X127905310Y-54253405D01*
X131405310Y-50253405D02*
X130905310Y-49753405D01*
D11*
X131405310Y-50303405D02*
X131405310Y-53753405D01*
X131405310Y-50803405D02*
X133905310Y-50803405D01*
D10*
X131405310Y-53753405D02*
X130905310Y-54253405D01*
D11*
X133905310Y-50803405D02*
X133905310Y-53303405D01*
X133905310Y-53303405D02*
X131405310Y-53303405D01*
D10*
X126905310Y-52253405D02*
G75*
G02*
X127405310Y-52753405I-1J-500001D01*
G01*
X128405310Y-49753405D02*
G75*
G02*
X126905310Y-48253405I1J1500001D01*
G01*
D11*
X158005310Y-48553405D02*
X160505310Y-48553405D01*
X158005310Y-51053405D02*
X158005310Y-48553405D01*
X160505310Y-47553405D02*
X160505310Y-52253405D01*
X160505310Y-51053405D02*
X158005310Y-51053405D01*
D10*
X160505310Y-52253405D02*
X165005310Y-52253405D01*
X165005310Y-47553405D02*
X160505310Y-47553405D01*
X165005310Y-48253405D02*
X165005310Y-47553405D01*
X165505310Y-52753405D02*
X165505310Y-53753405D01*
X166005310Y-54253405D02*
X165505310Y-53753405D01*
X169005310Y-49753405D02*
X166505310Y-49753405D01*
X169005310Y-54253405D02*
X166005310Y-54253405D01*
X169505310Y-50253405D02*
X169005310Y-49753405D01*
D11*
X169505310Y-50303405D02*
X169505310Y-53753405D01*
X169505310Y-50803405D02*
X172005310Y-50803405D01*
D10*
X169505310Y-53753405D02*
X169005310Y-54253405D01*
D11*
X172005310Y-50803405D02*
X172005310Y-53303405D01*
X172005310Y-53303405D02*
X169505310Y-53303405D01*
D10*
X165005310Y-52253405D02*
G75*
G02*
X165505310Y-52753405I-1J-500001D01*
G01*
X166505310Y-49753405D02*
G75*
G02*
X165005310Y-48253405I1J1500001D01*
G01*
D11*
X158005310Y-67603405D02*
X160505310Y-67603405D01*
X158005310Y-70103405D02*
X158005310Y-67603405D01*
X160505310Y-66603405D02*
X160505310Y-71303405D01*
X160505310Y-70103405D02*
X158005310Y-70103405D01*
D10*
X160505310Y-71303405D02*
X165005310Y-71303405D01*
X165005310Y-66603405D02*
X160505310Y-66603405D01*
X165005310Y-67303405D02*
X165005310Y-66603405D01*
X165505310Y-71803405D02*
X165505310Y-72803405D01*
X166005310Y-73303405D02*
X165505310Y-72803405D01*
X169005310Y-68803405D02*
X166505310Y-68803405D01*
X169005310Y-73303405D02*
X166005310Y-73303405D01*
X169505310Y-69303405D02*
X169005310Y-68803405D01*
D11*
X169505310Y-69353405D02*
X169505310Y-72803405D01*
X169505310Y-69853405D02*
X172005310Y-69853405D01*
D10*
X169505310Y-72803405D02*
X169005310Y-73303405D01*
D11*
X172005310Y-69853405D02*
X172005310Y-72353405D01*
X172005310Y-72353405D02*
X169505310Y-72353405D01*
D10*
X165005310Y-71303405D02*
G75*
G02*
X165505310Y-71803405I-1J-500001D01*
G01*
X166505310Y-68803405D02*
G75*
G02*
X165005310Y-67303405I1J1500001D01*
G01*
D12*
X142792810Y-62512780D02*
X144592810Y-62512780D01*
X142792810Y-65312780D02*
X142792810Y-62512780D01*
X143142810Y-63562780D02*
X143692810Y-63562780D01*
X143292810Y-64162780D02*
X143692810Y-63562780D01*
X143692810Y-63562780D02*
X143692810Y-63162780D01*
X143692810Y-63562780D02*
X144092810Y-64162780D01*
X143692810Y-64662780D02*
X143692810Y-64162780D01*
X144092810Y-64162780D02*
X143292810Y-64162780D01*
X144242810Y-63562780D02*
X143692810Y-63562780D01*
X144592810Y-62512780D02*
X144592810Y-65312780D01*
X144592810Y-65312780D02*
X142792810Y-65312780D01*
X180892810Y-43462780D02*
X182692810Y-43462780D01*
X180892810Y-46262780D02*
X180892810Y-43462780D01*
X181242810Y-44512780D02*
X181792810Y-44512780D01*
X181392810Y-45112780D02*
X181792810Y-44512780D01*
X181792810Y-44512780D02*
X181792810Y-44112780D01*
X181792810Y-44512780D02*
X182192810Y-45112780D01*
X181792810Y-45612780D02*
X181792810Y-45112780D01*
X182192810Y-45112780D02*
X181392810Y-45112780D01*
X182342810Y-44512780D02*
X181792810Y-44512780D01*
X182692810Y-43462780D02*
X182692810Y-46262780D01*
X182692810Y-46262780D02*
X180892810Y-46262780D01*
X161842810Y-61781530D02*
X163642810Y-61781530D01*
X161842810Y-64581530D02*
X161842810Y-61781530D01*
X162192810Y-62831530D02*
X162742810Y-62831530D01*
X162342810Y-63431530D02*
X162742810Y-62831530D01*
X162742810Y-62831530D02*
X162742810Y-62431530D01*
X162742810Y-62831530D02*
X163142810Y-63431530D01*
X162742810Y-63931530D02*
X162742810Y-63431530D01*
X163142810Y-63431530D02*
X162342810Y-63431530D01*
X163292810Y-62831530D02*
X162742810Y-62831530D01*
X163642810Y-61781530D02*
X163642810Y-64581530D01*
X163642810Y-64581530D02*
X161842810Y-64581530D01*
X161842810Y-42478405D02*
X163642810Y-42478405D01*
X161842810Y-45278405D02*
X161842810Y-42478405D01*
X162192810Y-43528405D02*
X162742810Y-43528405D01*
X162342810Y-44128405D02*
X162742810Y-43528405D01*
X162742810Y-43528405D02*
X162742810Y-43128405D01*
X162742810Y-43528405D02*
X163142810Y-44128405D01*
X162742810Y-44628405D02*
X162742810Y-44128405D01*
X163142810Y-44128405D02*
X162342810Y-44128405D01*
X163292810Y-43528405D02*
X162742810Y-43528405D01*
X163642810Y-42478405D02*
X163642810Y-45278405D01*
X163642810Y-45278405D02*
X161842810Y-45278405D01*
X123742810Y-42731530D02*
X125542810Y-42731530D01*
X123742810Y-45531530D02*
X123742810Y-42731530D01*
X124092810Y-43781530D02*
X124642810Y-43781530D01*
X124242810Y-44381530D02*
X124642810Y-43781530D01*
X124642810Y-43781530D02*
X124642810Y-43381530D01*
X124642810Y-43781530D02*
X125042810Y-44381530D01*
X124642810Y-44881530D02*
X124642810Y-44381530D01*
X125042810Y-44381530D02*
X124242810Y-44381530D01*
X125192810Y-43781530D02*
X124642810Y-43781530D01*
X125542810Y-42731530D02*
X125542810Y-45531530D01*
X125542810Y-45531530D02*
X123742810Y-45531530D01*
X142792810Y-43462780D02*
X144592810Y-43462780D01*
X142792810Y-46262780D02*
X142792810Y-43462780D01*
X143142810Y-44512780D02*
X143692810Y-44512780D01*
X143292810Y-45112780D02*
X143692810Y-44512780D01*
X143692810Y-44512780D02*
X143692810Y-44112780D01*
X143692810Y-44512780D02*
X144092810Y-45112780D01*
X143692810Y-45612780D02*
X143692810Y-45112780D01*
X144092810Y-45112780D02*
X143292810Y-45112780D01*
X144242810Y-44512780D02*
X143692810Y-44512780D01*
X144592810Y-43462780D02*
X144592810Y-46262780D01*
X144592810Y-46262780D02*
X142792810Y-46262780D01*
M02*
