M48
; DRILL file {KiCad 8.0.5} date 2024-09-18T07:36:15+0900
; FORMAT={-:-/ absolute / metric / decimal}
; #@! TF.CreationDate,2024-09-18T07:36:15+09:00
; #@! TF.GenerationSoftware,Kicad,Pcbnew,8.0.5
; #@! TF.FileFunction,Plated,1,2,PTH
FMAT,2
METRIC
; #@! TA.AperFunction,Plated,PTH,ViaDrill
T1C0.400
; #@! TA.AperFunction,Plated,PTH,ComponentDrill
T2C0.400
; #@! TA.AperFunction,Plated,PTH,ComponentDrill
T3C1.000
; #@! TA.AperFunction,Plated,PTH,ComponentDrill
T4C2.200
%
G90
G05
T1
X27.012Y-41.291
X27.012Y-53.792
X31.179Y-57.96
X32.965Y-38.91
X32.965Y-44.863
X36.537Y-51.411
X39.683Y-41.519
X46.657Y-50.221
X47.252Y-38.91
X49.633Y-55.419
X49.633Y-57.96
X53.205Y-47.839
X63.326Y-38.91
X63.326Y-42.482
X65.707Y-57.96
X67.493Y-43.077
X67.493Y-50.816
X67.493Y-56.174
T2
X67.358Y-52.025
X67.358Y-54.825
T3
X30.583Y-44.863
X30.583Y-49.625
X49.633Y-42.482
T4
X28.658Y-56.25
X30.258Y-40.65
X49.633Y-49.625
X65.758Y-40.65
M30
