G04 #@! TF.GenerationSoftware,KiCad,Pcbnew,8.0.5*
G04 #@! TF.CreationDate,2024-09-18T07:36:17+09:00*
G04 #@! TF.ProjectId,SandyLP_Middle_Isolated_Area,53616e64-794c-4505-9f4d-6964646c655f,v.0*
G04 #@! TF.SameCoordinates,Original*
G04 #@! TF.FileFunction,AssemblyDrawing,Bot*
%FSLAX46Y46*%
G04 Gerber Fmt 4.6, Leading zero omitted, Abs format (unit mm)*
G04 Created by KiCad (PCBNEW 8.0.5) date 2024-09-18 07:36:17*
%MOMM*%
%LPD*%
G01*
G04 APERTURE LIST*
%ADD10C,0.150000*%
%ADD11C,0.120000*%
%ADD12C,0.100000*%
G04 APERTURE END LIST*
D10*
X40132244Y-55032480D02*
X39989387Y-55080099D01*
X39989387Y-55080099D02*
X39751292Y-55080099D01*
X39751292Y-55080099D02*
X39656054Y-55032480D01*
X39656054Y-55032480D02*
X39608435Y-54984860D01*
X39608435Y-54984860D02*
X39560816Y-54889622D01*
X39560816Y-54889622D02*
X39560816Y-54794384D01*
X39560816Y-54794384D02*
X39608435Y-54699146D01*
X39608435Y-54699146D02*
X39656054Y-54651527D01*
X39656054Y-54651527D02*
X39751292Y-54603908D01*
X39751292Y-54603908D02*
X39941768Y-54556289D01*
X39941768Y-54556289D02*
X40037006Y-54508670D01*
X40037006Y-54508670D02*
X40084625Y-54461051D01*
X40084625Y-54461051D02*
X40132244Y-54365813D01*
X40132244Y-54365813D02*
X40132244Y-54270575D01*
X40132244Y-54270575D02*
X40084625Y-54175337D01*
X40084625Y-54175337D02*
X40037006Y-54127718D01*
X40037006Y-54127718D02*
X39941768Y-54080099D01*
X39941768Y-54080099D02*
X39703673Y-54080099D01*
X39703673Y-54080099D02*
X39560816Y-54127718D01*
X39227482Y-54080099D02*
X38989387Y-55080099D01*
X38989387Y-55080099D02*
X38798911Y-54365813D01*
X38798911Y-54365813D02*
X38608435Y-55080099D01*
X38608435Y-55080099D02*
X38370340Y-54080099D01*
X38227483Y-55175337D02*
X37465578Y-55175337D01*
X37370339Y-54080099D02*
X36798911Y-54080099D01*
X37084625Y-55080099D02*
X37084625Y-54080099D01*
X36513196Y-54794384D02*
X36037006Y-54794384D01*
X36608434Y-55080099D02*
X36275101Y-54080099D01*
X36275101Y-54080099D02*
X35941768Y-55080099D01*
X35275101Y-54556289D02*
X35132244Y-54603908D01*
X35132244Y-54603908D02*
X35084625Y-54651527D01*
X35084625Y-54651527D02*
X35037006Y-54746765D01*
X35037006Y-54746765D02*
X35037006Y-54889622D01*
X35037006Y-54889622D02*
X35084625Y-54984860D01*
X35084625Y-54984860D02*
X35132244Y-55032480D01*
X35132244Y-55032480D02*
X35227482Y-55080099D01*
X35227482Y-55080099D02*
X35608434Y-55080099D01*
X35608434Y-55080099D02*
X35608434Y-54080099D01*
X35608434Y-54080099D02*
X35275101Y-54080099D01*
X35275101Y-54080099D02*
X35179863Y-54127718D01*
X35179863Y-54127718D02*
X35132244Y-54175337D01*
X35132244Y-54175337D02*
X35084625Y-54270575D01*
X35084625Y-54270575D02*
X35084625Y-54365813D01*
X35084625Y-54365813D02*
X35132244Y-54461051D01*
X35132244Y-54461051D02*
X35179863Y-54508670D01*
X35179863Y-54508670D02*
X35275101Y-54556289D01*
X35275101Y-54556289D02*
X35608434Y-54556289D01*
X34084625Y-55080099D02*
X34656053Y-55080099D01*
X34370339Y-55080099D02*
X34370339Y-54080099D01*
X34370339Y-54080099D02*
X34465577Y-54222956D01*
X34465577Y-54222956D02*
X34560815Y-54318194D01*
X34560815Y-54318194D02*
X34656053Y-54365813D01*
X58396529Y-55032480D02*
X58253672Y-55080099D01*
X58253672Y-55080099D02*
X58015577Y-55080099D01*
X58015577Y-55080099D02*
X57920339Y-55032480D01*
X57920339Y-55032480D02*
X57872720Y-54984860D01*
X57872720Y-54984860D02*
X57825101Y-54889622D01*
X57825101Y-54889622D02*
X57825101Y-54794384D01*
X57825101Y-54794384D02*
X57872720Y-54699146D01*
X57872720Y-54699146D02*
X57920339Y-54651527D01*
X57920339Y-54651527D02*
X58015577Y-54603908D01*
X58015577Y-54603908D02*
X58206053Y-54556289D01*
X58206053Y-54556289D02*
X58301291Y-54508670D01*
X58301291Y-54508670D02*
X58348910Y-54461051D01*
X58348910Y-54461051D02*
X58396529Y-54365813D01*
X58396529Y-54365813D02*
X58396529Y-54270575D01*
X58396529Y-54270575D02*
X58348910Y-54175337D01*
X58348910Y-54175337D02*
X58301291Y-54127718D01*
X58301291Y-54127718D02*
X58206053Y-54080099D01*
X58206053Y-54080099D02*
X57967958Y-54080099D01*
X57967958Y-54080099D02*
X57825101Y-54127718D01*
X57491767Y-54080099D02*
X57253672Y-55080099D01*
X57253672Y-55080099D02*
X57063196Y-54365813D01*
X57063196Y-54365813D02*
X56872720Y-55080099D01*
X56872720Y-55080099D02*
X56634625Y-54080099D01*
X56491768Y-55175337D02*
X55729863Y-55175337D01*
X54825101Y-55175337D02*
X54920339Y-55127718D01*
X54920339Y-55127718D02*
X55015577Y-55032480D01*
X55015577Y-55032480D02*
X55158434Y-54889622D01*
X55158434Y-54889622D02*
X55253672Y-54842003D01*
X55253672Y-54842003D02*
X55348910Y-54842003D01*
X55301291Y-55080099D02*
X55396529Y-55032480D01*
X55396529Y-55032480D02*
X55491767Y-54937241D01*
X55491767Y-54937241D02*
X55539386Y-54746765D01*
X55539386Y-54746765D02*
X55539386Y-54413432D01*
X55539386Y-54413432D02*
X55491767Y-54222956D01*
X55491767Y-54222956D02*
X55396529Y-54127718D01*
X55396529Y-54127718D02*
X55301291Y-54080099D01*
X55301291Y-54080099D02*
X55110815Y-54080099D01*
X55110815Y-54080099D02*
X55015577Y-54127718D01*
X55015577Y-54127718D02*
X54920339Y-54222956D01*
X54920339Y-54222956D02*
X54872720Y-54413432D01*
X54872720Y-54413432D02*
X54872720Y-54746765D01*
X54872720Y-54746765D02*
X54920339Y-54937241D01*
X54920339Y-54937241D02*
X55015577Y-55032480D01*
X55015577Y-55032480D02*
X55110815Y-55080099D01*
X55110815Y-55080099D02*
X55301291Y-55080099D01*
X53920339Y-55080099D02*
X54491767Y-55080099D01*
X54206053Y-55080099D02*
X54206053Y-54080099D01*
X54206053Y-54080099D02*
X54301291Y-54222956D01*
X54301291Y-54222956D02*
X54396529Y-54318194D01*
X54396529Y-54318194D02*
X54491767Y-54365813D01*
X50395339Y-50080099D02*
X50395339Y-49080099D01*
X50395339Y-49556289D02*
X49823911Y-49556289D01*
X49823911Y-50080099D02*
X49823911Y-49080099D01*
X48919149Y-49413432D02*
X48919149Y-50080099D01*
X49157244Y-49032480D02*
X49395339Y-49746765D01*
X49395339Y-49746765D02*
X48776292Y-49746765D01*
X33800754Y-47696560D02*
X32800754Y-47696560D01*
X32800754Y-47696560D02*
X32800754Y-47934655D01*
X32800754Y-47934655D02*
X32848373Y-48077512D01*
X32848373Y-48077512D02*
X32943611Y-48172750D01*
X32943611Y-48172750D02*
X33038849Y-48220369D01*
X33038849Y-48220369D02*
X33229325Y-48267988D01*
X33229325Y-48267988D02*
X33372182Y-48267988D01*
X33372182Y-48267988D02*
X33562658Y-48220369D01*
X33562658Y-48220369D02*
X33657896Y-48172750D01*
X33657896Y-48172750D02*
X33753135Y-48077512D01*
X33753135Y-48077512D02*
X33800754Y-47934655D01*
X33800754Y-47934655D02*
X33800754Y-47696560D01*
X33800754Y-49220369D02*
X33800754Y-48648941D01*
X33800754Y-48934655D02*
X32800754Y-48934655D01*
X32800754Y-48934655D02*
X32943611Y-48839417D01*
X32943611Y-48839417D02*
X33038849Y-48744179D01*
X33038849Y-48744179D02*
X33086468Y-48648941D01*
X52776291Y-39936349D02*
X52204863Y-39936349D01*
X52490577Y-40936349D02*
X52490577Y-39936349D01*
X52109625Y-41031587D02*
X51347720Y-41031587D01*
X50538196Y-40841110D02*
X50585815Y-40888730D01*
X50585815Y-40888730D02*
X50728672Y-40936349D01*
X50728672Y-40936349D02*
X50823910Y-40936349D01*
X50823910Y-40936349D02*
X50966767Y-40888730D01*
X50966767Y-40888730D02*
X51062005Y-40793491D01*
X51062005Y-40793491D02*
X51109624Y-40698253D01*
X51109624Y-40698253D02*
X51157243Y-40507777D01*
X51157243Y-40507777D02*
X51157243Y-40364920D01*
X51157243Y-40364920D02*
X51109624Y-40174444D01*
X51109624Y-40174444D02*
X51062005Y-40079206D01*
X51062005Y-40079206D02*
X50966767Y-39983968D01*
X50966767Y-39983968D02*
X50823910Y-39936349D01*
X50823910Y-39936349D02*
X50728672Y-39936349D01*
X50728672Y-39936349D02*
X50585815Y-39983968D01*
X50585815Y-39983968D02*
X50538196Y-40031587D01*
X49919148Y-39936349D02*
X49823910Y-39936349D01*
X49823910Y-39936349D02*
X49728672Y-39983968D01*
X49728672Y-39983968D02*
X49681053Y-40031587D01*
X49681053Y-40031587D02*
X49633434Y-40126825D01*
X49633434Y-40126825D02*
X49585815Y-40317301D01*
X49585815Y-40317301D02*
X49585815Y-40555396D01*
X49585815Y-40555396D02*
X49633434Y-40745872D01*
X49633434Y-40745872D02*
X49681053Y-40841110D01*
X49681053Y-40841110D02*
X49728672Y-40888730D01*
X49728672Y-40888730D02*
X49823910Y-40936349D01*
X49823910Y-40936349D02*
X49919148Y-40936349D01*
X49919148Y-40936349D02*
X50014386Y-40888730D01*
X50014386Y-40888730D02*
X50062005Y-40841110D01*
X50062005Y-40841110D02*
X50109624Y-40745872D01*
X50109624Y-40745872D02*
X50157243Y-40555396D01*
X50157243Y-40555396D02*
X50157243Y-40317301D01*
X50157243Y-40317301D02*
X50109624Y-40126825D01*
X50109624Y-40126825D02*
X50062005Y-40031587D01*
X50062005Y-40031587D02*
X50014386Y-39983968D01*
X50014386Y-39983968D02*
X49919148Y-39936349D01*
X48442958Y-39888730D02*
X49300100Y-41174444D01*
X47538196Y-40841110D02*
X47585815Y-40888730D01*
X47585815Y-40888730D02*
X47728672Y-40936349D01*
X47728672Y-40936349D02*
X47823910Y-40936349D01*
X47823910Y-40936349D02*
X47966767Y-40888730D01*
X47966767Y-40888730D02*
X48062005Y-40793491D01*
X48062005Y-40793491D02*
X48109624Y-40698253D01*
X48109624Y-40698253D02*
X48157243Y-40507777D01*
X48157243Y-40507777D02*
X48157243Y-40364920D01*
X48157243Y-40364920D02*
X48109624Y-40174444D01*
X48109624Y-40174444D02*
X48062005Y-40079206D01*
X48062005Y-40079206D02*
X47966767Y-39983968D01*
X47966767Y-39983968D02*
X47823910Y-39936349D01*
X47823910Y-39936349D02*
X47728672Y-39936349D01*
X47728672Y-39936349D02*
X47585815Y-39983968D01*
X47585815Y-39983968D02*
X47538196Y-40031587D01*
X46681053Y-39936349D02*
X46871529Y-39936349D01*
X46871529Y-39936349D02*
X46966767Y-39983968D01*
X46966767Y-39983968D02*
X47014386Y-40031587D01*
X47014386Y-40031587D02*
X47109624Y-40174444D01*
X47109624Y-40174444D02*
X47157243Y-40364920D01*
X47157243Y-40364920D02*
X47157243Y-40745872D01*
X47157243Y-40745872D02*
X47109624Y-40841110D01*
X47109624Y-40841110D02*
X47062005Y-40888730D01*
X47062005Y-40888730D02*
X46966767Y-40936349D01*
X46966767Y-40936349D02*
X46776291Y-40936349D01*
X46776291Y-40936349D02*
X46681053Y-40888730D01*
X46681053Y-40888730D02*
X46633434Y-40841110D01*
X46633434Y-40841110D02*
X46585815Y-40745872D01*
X46585815Y-40745872D02*
X46585815Y-40507777D01*
X46585815Y-40507777D02*
X46633434Y-40412539D01*
X46633434Y-40412539D02*
X46681053Y-40364920D01*
X46681053Y-40364920D02*
X46776291Y-40317301D01*
X46776291Y-40317301D02*
X46966767Y-40317301D01*
X46966767Y-40317301D02*
X47062005Y-40364920D01*
X47062005Y-40364920D02*
X47109624Y-40412539D01*
X47109624Y-40412539D02*
X47157243Y-40507777D01*
X29420339Y-56705099D02*
X29420339Y-55705099D01*
X29420339Y-56181289D02*
X28848911Y-56181289D01*
X28848911Y-56705099D02*
X28848911Y-55705099D01*
X28420339Y-55800337D02*
X28372720Y-55752718D01*
X28372720Y-55752718D02*
X28277482Y-55705099D01*
X28277482Y-55705099D02*
X28039387Y-55705099D01*
X28039387Y-55705099D02*
X27944149Y-55752718D01*
X27944149Y-55752718D02*
X27896530Y-55800337D01*
X27896530Y-55800337D02*
X27848911Y-55895575D01*
X27848911Y-55895575D02*
X27848911Y-55990813D01*
X27848911Y-55990813D02*
X27896530Y-56133670D01*
X27896530Y-56133670D02*
X28467958Y-56705099D01*
X28467958Y-56705099D02*
X27848911Y-56705099D01*
X66520339Y-41105099D02*
X66520339Y-40105099D01*
X66520339Y-40581289D02*
X65948911Y-40581289D01*
X65948911Y-41105099D02*
X65948911Y-40105099D01*
X65567958Y-40105099D02*
X64948911Y-40105099D01*
X64948911Y-40105099D02*
X65282244Y-40486051D01*
X65282244Y-40486051D02*
X65139387Y-40486051D01*
X65139387Y-40486051D02*
X65044149Y-40533670D01*
X65044149Y-40533670D02*
X64996530Y-40581289D01*
X64996530Y-40581289D02*
X64948911Y-40676527D01*
X64948911Y-40676527D02*
X64948911Y-40914622D01*
X64948911Y-40914622D02*
X64996530Y-41009860D01*
X64996530Y-41009860D02*
X65044149Y-41057480D01*
X65044149Y-41057480D02*
X65139387Y-41105099D01*
X65139387Y-41105099D02*
X65425101Y-41105099D01*
X65425101Y-41105099D02*
X65520339Y-41057480D01*
X65520339Y-41057480D02*
X65567958Y-41009860D01*
X31020339Y-41105099D02*
X31020339Y-40105099D01*
X31020339Y-40581289D02*
X30448911Y-40581289D01*
X30448911Y-41105099D02*
X30448911Y-40105099D01*
X29448911Y-41105099D02*
X30020339Y-41105099D01*
X29734625Y-41105099D02*
X29734625Y-40105099D01*
X29734625Y-40105099D02*
X29829863Y-40247956D01*
X29829863Y-40247956D02*
X29925101Y-40343194D01*
X29925101Y-40343194D02*
X30020339Y-40390813D01*
X32226291Y-46317599D02*
X31654863Y-46317599D01*
X31940577Y-47317599D02*
X31940577Y-46317599D01*
X31559625Y-47412837D02*
X30797720Y-47412837D01*
X29988196Y-47317599D02*
X30321529Y-46841408D01*
X30559624Y-47317599D02*
X30559624Y-46317599D01*
X30559624Y-46317599D02*
X30178672Y-46317599D01*
X30178672Y-46317599D02*
X30083434Y-46365218D01*
X30083434Y-46365218D02*
X30035815Y-46412837D01*
X30035815Y-46412837D02*
X29988196Y-46508075D01*
X29988196Y-46508075D02*
X29988196Y-46650932D01*
X29988196Y-46650932D02*
X30035815Y-46746170D01*
X30035815Y-46746170D02*
X30083434Y-46793789D01*
X30083434Y-46793789D02*
X30178672Y-46841408D01*
X30178672Y-46841408D02*
X30559624Y-46841408D01*
X29369148Y-46317599D02*
X29273910Y-46317599D01*
X29273910Y-46317599D02*
X29178672Y-46365218D01*
X29178672Y-46365218D02*
X29131053Y-46412837D01*
X29131053Y-46412837D02*
X29083434Y-46508075D01*
X29083434Y-46508075D02*
X29035815Y-46698551D01*
X29035815Y-46698551D02*
X29035815Y-46936646D01*
X29035815Y-46936646D02*
X29083434Y-47127122D01*
X29083434Y-47127122D02*
X29131053Y-47222360D01*
X29131053Y-47222360D02*
X29178672Y-47269980D01*
X29178672Y-47269980D02*
X29273910Y-47317599D01*
X29273910Y-47317599D02*
X29369148Y-47317599D01*
X29369148Y-47317599D02*
X29464386Y-47269980D01*
X29464386Y-47269980D02*
X29512005Y-47222360D01*
X29512005Y-47222360D02*
X29559624Y-47127122D01*
X29559624Y-47127122D02*
X29607243Y-46936646D01*
X29607243Y-46936646D02*
X29607243Y-46698551D01*
X29607243Y-46698551D02*
X29559624Y-46508075D01*
X29559624Y-46508075D02*
X29512005Y-46412837D01*
X29512005Y-46412837D02*
X29464386Y-46365218D01*
X29464386Y-46365218D02*
X29369148Y-46317599D01*
X52850754Y-47696560D02*
X51850754Y-47696560D01*
X51850754Y-47696560D02*
X51850754Y-47934655D01*
X51850754Y-47934655D02*
X51898373Y-48077512D01*
X51898373Y-48077512D02*
X51993611Y-48172750D01*
X51993611Y-48172750D02*
X52088849Y-48220369D01*
X52088849Y-48220369D02*
X52279325Y-48267988D01*
X52279325Y-48267988D02*
X52422182Y-48267988D01*
X52422182Y-48267988D02*
X52612658Y-48220369D01*
X52612658Y-48220369D02*
X52707896Y-48172750D01*
X52707896Y-48172750D02*
X52803135Y-48077512D01*
X52803135Y-48077512D02*
X52850754Y-47934655D01*
X52850754Y-47934655D02*
X52850754Y-47696560D01*
X51945992Y-48648941D02*
X51898373Y-48696560D01*
X51898373Y-48696560D02*
X51850754Y-48791798D01*
X51850754Y-48791798D02*
X51850754Y-49029893D01*
X51850754Y-49029893D02*
X51898373Y-49125131D01*
X51898373Y-49125131D02*
X51945992Y-49172750D01*
X51945992Y-49172750D02*
X52041230Y-49220369D01*
X52041230Y-49220369D02*
X52136468Y-49220369D01*
X52136468Y-49220369D02*
X52279325Y-49172750D01*
X52279325Y-49172750D02*
X52850754Y-48601322D01*
X52850754Y-48601322D02*
X52850754Y-49220369D01*
X32226291Y-51080099D02*
X31654863Y-51080099D01*
X31940577Y-52080099D02*
X31940577Y-51080099D01*
X31559625Y-52175337D02*
X30797720Y-52175337D01*
X29988196Y-52080099D02*
X30321529Y-51603908D01*
X30559624Y-52080099D02*
X30559624Y-51080099D01*
X30559624Y-51080099D02*
X30178672Y-51080099D01*
X30178672Y-51080099D02*
X30083434Y-51127718D01*
X30083434Y-51127718D02*
X30035815Y-51175337D01*
X30035815Y-51175337D02*
X29988196Y-51270575D01*
X29988196Y-51270575D02*
X29988196Y-51413432D01*
X29988196Y-51413432D02*
X30035815Y-51508670D01*
X30035815Y-51508670D02*
X30083434Y-51556289D01*
X30083434Y-51556289D02*
X30178672Y-51603908D01*
X30178672Y-51603908D02*
X30559624Y-51603908D01*
X29131053Y-51413432D02*
X29131053Y-52080099D01*
X29369148Y-51032480D02*
X29607243Y-51746765D01*
X29607243Y-51746765D02*
X28988196Y-51746765D01*
D11*
X30608435Y-52125280D02*
X33108435Y-52125280D01*
X30608435Y-54625280D02*
X30608435Y-52125280D01*
X33108435Y-51125280D02*
X33108435Y-55825280D01*
X33108435Y-54625280D02*
X30608435Y-54625280D01*
D10*
X33108435Y-55825280D02*
X37608435Y-55825280D01*
X37608435Y-51125280D02*
X33108435Y-51125280D01*
X37608435Y-51825280D02*
X37608435Y-51125280D01*
X38108435Y-56325280D02*
X38108435Y-57325280D01*
X38608435Y-57825280D02*
X38108435Y-57325280D01*
X41608435Y-53325280D02*
X39108435Y-53325280D01*
X41608435Y-57825280D02*
X38608435Y-57825280D01*
X42108435Y-53825280D02*
X41608435Y-53325280D01*
D11*
X42108435Y-53875280D02*
X42108435Y-57325280D01*
X42108435Y-54375280D02*
X44608435Y-54375280D01*
D10*
X42108435Y-57325280D02*
X41608435Y-57825280D01*
D11*
X44608435Y-54375280D02*
X44608435Y-56875280D01*
X44608435Y-56875280D02*
X42108435Y-56875280D01*
D10*
X37608435Y-55825280D02*
G75*
G02*
X38108435Y-56325280I-1J-500001D01*
G01*
X39108435Y-53325280D02*
G75*
G02*
X37608435Y-51825280I1J1500001D01*
G01*
D11*
X49658435Y-52125280D02*
X52158435Y-52125280D01*
X49658435Y-54625280D02*
X49658435Y-52125280D01*
X52158435Y-51125280D02*
X52158435Y-55825280D01*
X52158435Y-54625280D02*
X49658435Y-54625280D01*
D10*
X52158435Y-55825280D02*
X56658435Y-55825280D01*
X56658435Y-51125280D02*
X52158435Y-51125280D01*
X56658435Y-51825280D02*
X56658435Y-51125280D01*
X57158435Y-56325280D02*
X57158435Y-57325280D01*
X57658435Y-57825280D02*
X57158435Y-57325280D01*
X60658435Y-53325280D02*
X58158435Y-53325280D01*
X60658435Y-57825280D02*
X57658435Y-57825280D01*
X61158435Y-53825280D02*
X60658435Y-53325280D01*
D11*
X61158435Y-53875280D02*
X61158435Y-57325280D01*
X61158435Y-54375280D02*
X63658435Y-54375280D01*
D10*
X61158435Y-57325280D02*
X60658435Y-57825280D01*
D11*
X63658435Y-54375280D02*
X63658435Y-56875280D01*
X63658435Y-56875280D02*
X61158435Y-56875280D01*
D10*
X56658435Y-55825280D02*
G75*
G02*
X57158435Y-56325280I-1J-500001D01*
G01*
X58158435Y-53325280D02*
G75*
G02*
X56658435Y-51825280I1J1500001D01*
G01*
D12*
X34445935Y-47034655D02*
X36245935Y-47034655D01*
X34445935Y-49834655D02*
X34445935Y-47034655D01*
X34795935Y-48084655D02*
X35345935Y-48084655D01*
X34945935Y-48684655D02*
X35345935Y-48084655D01*
X35345935Y-48084655D02*
X35345935Y-47684655D01*
X35345935Y-48084655D02*
X35745935Y-48684655D01*
X35345935Y-49184655D02*
X35345935Y-48684655D01*
X35745935Y-48684655D02*
X34945935Y-48684655D01*
X35895935Y-48084655D02*
X35345935Y-48084655D01*
X36245935Y-47034655D02*
X36245935Y-49834655D01*
X36245935Y-49834655D02*
X34445935Y-49834655D01*
D10*
X51658435Y-42125280D02*
X66658435Y-42125280D01*
X51658435Y-57125280D02*
X51658435Y-42125280D01*
X56558435Y-43325280D02*
X56558435Y-46525280D01*
X56558435Y-46525280D02*
X61758435Y-46525280D01*
X61758435Y-43325280D02*
X56558435Y-43325280D01*
X61758435Y-43325280D02*
X61758435Y-46525280D01*
X66658435Y-42125280D02*
X66658435Y-57125280D01*
X66658435Y-57125280D02*
X51658435Y-57125280D01*
D12*
X53495935Y-47034655D02*
X55295935Y-47034655D01*
X53495935Y-49834655D02*
X53495935Y-47034655D01*
X53845935Y-48084655D02*
X54395935Y-48084655D01*
X53995935Y-48684655D02*
X54395935Y-48084655D01*
X54395935Y-48084655D02*
X54395935Y-47684655D01*
X54395935Y-48084655D02*
X54795935Y-48684655D01*
X54395935Y-49184655D02*
X54395935Y-48684655D01*
X54795935Y-48684655D02*
X53995935Y-48684655D01*
X54945935Y-48084655D02*
X54395935Y-48084655D01*
X55295935Y-47034655D02*
X55295935Y-49834655D01*
X55295935Y-49834655D02*
X53495935Y-49834655D01*
D10*
X32608435Y-42125280D02*
X47608435Y-42125280D01*
X32608435Y-57125280D02*
X32608435Y-42125280D01*
X37508435Y-43325280D02*
X37508435Y-46525280D01*
X37508435Y-46525280D02*
X42708435Y-46525280D01*
X42708435Y-43325280D02*
X37508435Y-43325280D01*
X42708435Y-43325280D02*
X42708435Y-46525280D01*
X47608435Y-42125280D02*
X47608435Y-57125280D01*
X47608435Y-57125280D02*
X32608435Y-57125280D01*
M02*
