G04 #@! TF.GenerationSoftware,KiCad,Pcbnew,8.0.5*
G04 #@! TF.CreationDate,2024-09-18T07:36:17+09:00*
G04 #@! TF.ProjectId,SandyLP_Middle_Isolated_Area,53616e64-794c-4505-9f4d-6964646c655f,v.0*
G04 #@! TF.SameCoordinates,Original*
G04 #@! TF.FileFunction,Legend,Bot*
G04 #@! TF.FilePolarity,Positive*
%FSLAX46Y46*%
G04 Gerber Fmt 4.6, Leading zero omitted, Abs format (unit mm)*
G04 Created by KiCad (PCBNEW 8.0.5) date 2024-09-18 07:36:17*
%MOMM*%
%LPD*%
G01*
G04 APERTURE LIST*
G04 Aperture macros list*
%AMFreePoly0*
4,1,18,0.629926,1.692426,0.637215,1.683591,0.881507,1.322037,1.335531,0.983935,1.781286,0.836983,1.816077,0.807010,1.822500,0.780000,1.822500,-0.950000,1.804926,-0.992426,1.762500,-1.010000,-0.837500,-1.010000,-0.879926,-0.992426,-0.897500,-0.950000,-0.897500,1.650000,-0.879926,1.692426,-0.837500,1.710000,0.587500,1.710000,0.629926,1.692426,0.629926,1.692426,$1*%
G04 Aperture macros list end*
%ADD10C,0.200000*%
%ADD11C,0.130000*%
%ADD12C,0.150000*%
%ADD13C,0.120000*%
%ADD14C,3.000000*%
%ADD15C,5.000000*%
%ADD16C,1.600000*%
%ADD17FreePoly0,0.000000*%
%ADD18R,2.600000X2.600000*%
%ADD19C,4.400000*%
%ADD20R,1.200000X0.900000*%
%ADD21C,2.000000*%
%ADD22C,0.800000*%
G04 APERTURE END LIST*
D10*
G36*
X60571217Y-45848003D02*
G01*
X60590726Y-45849924D01*
X60901706Y-45849924D01*
X60996521Y-45894543D01*
X61052568Y-45984217D01*
X61063442Y-46071213D01*
X61035350Y-46146124D01*
X60965727Y-46183257D01*
X60679746Y-46183257D01*
X60608125Y-46149553D01*
X60570388Y-45847659D01*
X60571217Y-45848003D01*
G37*
G36*
X62410782Y-46183257D02*
G01*
X62013079Y-46183257D01*
X61904705Y-46132257D01*
X61851240Y-46084732D01*
X61787217Y-45982297D01*
X61768009Y-45828634D01*
X61802968Y-45735411D01*
X61831897Y-45702350D01*
X61982622Y-45649924D01*
X62344115Y-45649924D01*
X62410782Y-46183257D01*
G37*
G36*
X62319115Y-45449924D02*
G01*
X61988080Y-45449924D01*
X61879703Y-45398922D01*
X61826241Y-45351401D01*
X61762217Y-45248963D01*
X61751343Y-45161967D01*
X61786302Y-45068744D01*
X61820600Y-45029546D01*
X61907393Y-44983257D01*
X62260782Y-44983257D01*
X62319115Y-45449924D01*
G37*
G36*
X62779357Y-46538813D02*
G01*
X57752782Y-46538813D01*
X57752782Y-45336208D01*
X57908338Y-45336208D01*
X57910629Y-45375159D01*
X57927652Y-45410268D01*
X57940957Y-45424665D01*
X58327827Y-45768549D01*
X58039259Y-46230257D01*
X58030548Y-46247819D01*
X58024105Y-46286301D01*
X58032879Y-46324320D01*
X58055534Y-46356088D01*
X58088621Y-46376768D01*
X58127103Y-46383211D01*
X58165122Y-46374437D01*
X58196890Y-46351782D01*
X58208859Y-46336257D01*
X58479444Y-45903320D01*
X58512832Y-45932998D01*
X58558165Y-46295660D01*
X58562491Y-46314780D01*
X58581779Y-46348698D01*
X58612578Y-46372653D01*
X58650200Y-46382998D01*
X58688917Y-46378159D01*
X58722834Y-46358871D01*
X58746789Y-46328072D01*
X58757134Y-46290450D01*
X58756621Y-46270853D01*
X58648602Y-45406698D01*
X59049550Y-45406698D01*
X59053338Y-45445532D01*
X59071700Y-45479960D01*
X59101839Y-45504740D01*
X59139166Y-45516100D01*
X59178000Y-45512312D01*
X59196118Y-45504826D01*
X59299059Y-45449924D01*
X59518372Y-45449924D01*
X59626748Y-45500924D01*
X59680211Y-45548446D01*
X59744234Y-45650882D01*
X59788442Y-46004547D01*
X59753483Y-46097770D01*
X59719186Y-46136968D01*
X59632394Y-46183257D01*
X59413079Y-46183257D01*
X59291638Y-46126109D01*
X59273168Y-46119540D01*
X59234193Y-46117702D01*
X59197482Y-46130918D01*
X59168622Y-46157178D01*
X59152008Y-46192482D01*
X59150170Y-46231457D01*
X59163386Y-46268168D01*
X59189646Y-46297028D01*
X59206480Y-46307073D01*
X59348147Y-46373739D01*
X59366617Y-46380308D01*
X59369007Y-46380420D01*
X59371217Y-46381336D01*
X59390726Y-46383257D01*
X59657393Y-46383257D01*
X59676902Y-46381336D01*
X59681442Y-46379455D01*
X59686334Y-46378978D01*
X59704451Y-46371492D01*
X59829451Y-46304827D01*
X59841587Y-46296734D01*
X59843359Y-46295858D01*
X59844481Y-46294804D01*
X59845761Y-46293951D01*
X59847014Y-46292425D01*
X59857651Y-46282441D01*
X59915984Y-46215774D01*
X59924312Y-46204125D01*
X59925710Y-46202629D01*
X59926432Y-46201159D01*
X59927385Y-46199827D01*
X59928040Y-46197888D01*
X59934359Y-46185036D01*
X59984359Y-46051703D01*
X59989410Y-46032762D01*
X59989254Y-46028192D01*
X59990467Y-46023784D01*
X59989954Y-46004188D01*
X59939954Y-45604188D01*
X59935628Y-45585067D01*
X59934585Y-45583233D01*
X59934237Y-45581153D01*
X59925526Y-45563591D01*
X59912489Y-45542731D01*
X60332652Y-45542731D01*
X60333165Y-45562328D01*
X60424832Y-46295661D01*
X60429158Y-46314781D01*
X60448446Y-46348698D01*
X60479245Y-46372653D01*
X60516867Y-46382998D01*
X60555584Y-46378159D01*
X60586656Y-46360488D01*
X60614814Y-46373739D01*
X60633284Y-46380308D01*
X60635674Y-46380420D01*
X60637884Y-46381336D01*
X60657393Y-46383257D01*
X60990726Y-46383257D01*
X61010235Y-46381336D01*
X61014775Y-46379455D01*
X61019667Y-46378978D01*
X61037784Y-46371492D01*
X61162784Y-46304827D01*
X61171692Y-46298886D01*
X61174072Y-46297805D01*
X61175324Y-46296464D01*
X61179094Y-46293951D01*
X61189508Y-46281284D01*
X61200710Y-46269296D01*
X61202710Y-46265227D01*
X61203874Y-46263812D01*
X61204634Y-46261312D01*
X61209359Y-46251703D01*
X61259359Y-46118369D01*
X61264410Y-46099428D01*
X61264254Y-46094859D01*
X61265467Y-46090451D01*
X61264954Y-46070854D01*
X61248288Y-45937521D01*
X61243962Y-45918401D01*
X61242918Y-45916565D01*
X61242570Y-45914485D01*
X61233860Y-45896924D01*
X61150526Y-45763591D01*
X61138557Y-45748065D01*
X61131208Y-45742824D01*
X61125140Y-45736155D01*
X61108306Y-45726109D01*
X60966640Y-45659442D01*
X60948170Y-45652874D01*
X60945781Y-45652761D01*
X60943569Y-45651845D01*
X60924060Y-45649924D01*
X60613080Y-45649924D01*
X60541458Y-45616219D01*
X60534676Y-45561967D01*
X60562768Y-45487057D01*
X60632393Y-45449924D01*
X60851706Y-45449924D01*
X60973146Y-45507073D01*
X60991616Y-45513642D01*
X61030591Y-45515480D01*
X61067303Y-45502264D01*
X61096163Y-45476005D01*
X61112777Y-45440701D01*
X61114615Y-45401726D01*
X61101399Y-45365015D01*
X61075140Y-45336155D01*
X61058306Y-45326109D01*
X60916640Y-45259442D01*
X60898170Y-45252874D01*
X60895781Y-45252761D01*
X60893569Y-45251845D01*
X60874060Y-45249924D01*
X60607393Y-45249924D01*
X60587884Y-45251845D01*
X60583343Y-45253725D01*
X60578452Y-45254203D01*
X60560334Y-45261689D01*
X60435334Y-45328356D01*
X60426431Y-45334292D01*
X60424048Y-45335376D01*
X60422794Y-45336718D01*
X60419024Y-45339232D01*
X60408609Y-45351899D01*
X60397409Y-45363886D01*
X60395408Y-45367954D01*
X60394244Y-45369371D01*
X60393483Y-45371871D01*
X60388760Y-45381478D01*
X60338760Y-45514812D01*
X60333709Y-45533753D01*
X60333864Y-45538322D01*
X60332652Y-45542731D01*
X59912489Y-45542731D01*
X59842193Y-45430257D01*
X59838156Y-45425021D01*
X59837134Y-45422912D01*
X59833494Y-45418973D01*
X59830224Y-45414732D01*
X59828316Y-45413371D01*
X59823829Y-45408516D01*
X59748829Y-45341850D01*
X59743398Y-45337902D01*
X59741807Y-45336154D01*
X59737253Y-45333437D01*
X59732972Y-45330325D01*
X59730741Y-45329551D01*
X59724973Y-45326109D01*
X59583306Y-45259442D01*
X59564836Y-45252873D01*
X59562444Y-45252760D01*
X59560235Y-45251845D01*
X59540726Y-45249924D01*
X59274059Y-45249924D01*
X59254550Y-45251845D01*
X59250009Y-45253725D01*
X59245118Y-45254203D01*
X59227000Y-45261689D01*
X59102000Y-45328356D01*
X59085690Y-45339232D01*
X59060910Y-45369371D01*
X59049550Y-45406698D01*
X58648602Y-45406698D01*
X58615606Y-45142730D01*
X61549319Y-45142730D01*
X61549832Y-45162327D01*
X61566498Y-45295660D01*
X61570824Y-45314781D01*
X61571866Y-45316614D01*
X61572215Y-45318695D01*
X61580926Y-45336257D01*
X61664260Y-45469591D01*
X61668297Y-45474828D01*
X61669319Y-45476935D01*
X61672952Y-45480866D01*
X61676229Y-45485117D01*
X61678139Y-45486479D01*
X61682624Y-45491332D01*
X61725468Y-45529415D01*
X61723413Y-45530365D01*
X61718724Y-45534539D01*
X61713095Y-45537323D01*
X61698803Y-45550740D01*
X61640469Y-45617406D01*
X61632140Y-45629054D01*
X61630742Y-45630552D01*
X61630018Y-45632023D01*
X61629068Y-45633353D01*
X61628413Y-45635289D01*
X61622093Y-45648145D01*
X61572093Y-45781479D01*
X61567042Y-45800420D01*
X61567197Y-45804989D01*
X61565985Y-45809398D01*
X61566498Y-45828994D01*
X61591498Y-46028994D01*
X61595824Y-46048114D01*
X61596867Y-46049949D01*
X61597216Y-46052030D01*
X61605926Y-46069591D01*
X61689260Y-46202924D01*
X61693297Y-46208161D01*
X61694319Y-46210268D01*
X61697953Y-46214201D01*
X61701229Y-46218450D01*
X61703137Y-46219810D01*
X61707623Y-46224665D01*
X61782624Y-46291332D01*
X61788054Y-46295279D01*
X61789646Y-46297028D01*
X61794199Y-46299744D01*
X61798481Y-46302857D01*
X61800711Y-46303630D01*
X61806480Y-46307073D01*
X61948146Y-46373739D01*
X61966616Y-46380308D01*
X61969007Y-46380420D01*
X61971217Y-46381336D01*
X61990726Y-46383257D01*
X62524060Y-46383257D01*
X62543569Y-46381336D01*
X62549361Y-46378936D01*
X62555584Y-46378159D01*
X62567237Y-46371532D01*
X62579617Y-46366404D01*
X62584050Y-46361970D01*
X62589501Y-46358871D01*
X62597729Y-46348291D01*
X62607207Y-46338814D01*
X62609606Y-46333021D01*
X62613456Y-46328072D01*
X62617009Y-46315150D01*
X62622139Y-46302766D01*
X62622139Y-46296494D01*
X62623801Y-46290450D01*
X62623288Y-46270853D01*
X62448288Y-44870854D01*
X62447139Y-44865775D01*
X62447139Y-44863748D01*
X62446128Y-44861307D01*
X62443962Y-44851733D01*
X62437335Y-44840079D01*
X62432207Y-44827700D01*
X62427773Y-44823266D01*
X62424674Y-44817816D01*
X62414094Y-44809587D01*
X62404617Y-44800110D01*
X62398824Y-44797710D01*
X62393875Y-44793861D01*
X62380953Y-44790307D01*
X62368569Y-44785178D01*
X62358798Y-44784215D01*
X62356253Y-44783516D01*
X62354242Y-44783767D01*
X62349060Y-44783257D01*
X61882393Y-44783257D01*
X61862884Y-44785178D01*
X61858343Y-44787058D01*
X61853452Y-44787536D01*
X61835334Y-44795022D01*
X61710334Y-44861689D01*
X61698198Y-44869781D01*
X61696428Y-44870657D01*
X61695306Y-44871709D01*
X61694024Y-44872565D01*
X61692767Y-44874092D01*
X61682135Y-44884074D01*
X61623802Y-44950741D01*
X61615473Y-44962390D01*
X61614076Y-44963886D01*
X61613353Y-44965356D01*
X61612401Y-44966688D01*
X61611745Y-44968626D01*
X61605427Y-44981478D01*
X61555427Y-45114812D01*
X61550376Y-45133753D01*
X61550531Y-45138321D01*
X61549319Y-45142730D01*
X58615606Y-45142730D01*
X58581621Y-44870854D01*
X58577295Y-44851733D01*
X58558007Y-44817816D01*
X58527208Y-44793861D01*
X58489586Y-44783516D01*
X58450869Y-44788355D01*
X58416952Y-44807643D01*
X58392997Y-44838442D01*
X58382652Y-44876064D01*
X58383165Y-44895660D01*
X58475202Y-45631958D01*
X58073829Y-45275183D01*
X58057972Y-45263658D01*
X58021109Y-45250869D01*
X57982158Y-45253160D01*
X57947049Y-45270183D01*
X57921127Y-45299345D01*
X57908338Y-45336208D01*
X57752782Y-45336208D01*
X57752782Y-44009827D01*
X59825980Y-44009827D01*
X59825980Y-44048845D01*
X59840912Y-44084893D01*
X59868502Y-44112483D01*
X59904550Y-44127415D01*
X59924059Y-44129336D01*
X60590726Y-44129336D01*
X60610235Y-44127415D01*
X60616027Y-44125015D01*
X60622250Y-44124238D01*
X60633903Y-44117611D01*
X60646283Y-44112483D01*
X60650716Y-44108049D01*
X60656167Y-44104950D01*
X60664395Y-44094370D01*
X60673873Y-44084893D01*
X60676272Y-44079100D01*
X60680122Y-44074151D01*
X60683675Y-44061229D01*
X60688805Y-44048845D01*
X60688805Y-44042573D01*
X60690467Y-44036529D01*
X60689954Y-44016932D01*
X60514954Y-42616933D01*
X60510628Y-42597812D01*
X60491340Y-42563895D01*
X60460541Y-42539940D01*
X60422919Y-42529595D01*
X60384202Y-42534434D01*
X60350285Y-42553722D01*
X60326330Y-42584521D01*
X60315985Y-42622143D01*
X60316498Y-42641739D01*
X60477448Y-43929336D01*
X59924059Y-43929336D01*
X59904550Y-43931257D01*
X59868502Y-43946189D01*
X59840912Y-43973779D01*
X59825980Y-44009827D01*
X57752782Y-44009827D01*
X57752782Y-42374039D01*
X62779357Y-42374039D01*
X62779357Y-46538813D01*
G37*
D11*
X63007432Y-38803250D02*
X62293147Y-38803250D01*
X62721718Y-38374678D02*
X63007432Y-39660393D01*
X62388385Y-39231821D02*
X63102670Y-39231821D01*
X62674099Y-39660393D02*
X62388385Y-38374678D01*
X62007432Y-39422298D02*
X61864575Y-39469917D01*
X61864575Y-39469917D02*
X61626480Y-39469917D01*
X61626480Y-39469917D02*
X61531242Y-39422298D01*
X61531242Y-39422298D02*
X61483623Y-39374678D01*
X61483623Y-39374678D02*
X61436004Y-39279440D01*
X61436004Y-39279440D02*
X61436004Y-39184202D01*
X61436004Y-39184202D02*
X61483623Y-39088964D01*
X61483623Y-39088964D02*
X61531242Y-39041345D01*
X61531242Y-39041345D02*
X61626480Y-38993726D01*
X61626480Y-38993726D02*
X61816956Y-38946107D01*
X61816956Y-38946107D02*
X61912194Y-38898488D01*
X61912194Y-38898488D02*
X61959813Y-38850869D01*
X61959813Y-38850869D02*
X62007432Y-38755631D01*
X62007432Y-38755631D02*
X62007432Y-38660393D01*
X62007432Y-38660393D02*
X61959813Y-38565155D01*
X61959813Y-38565155D02*
X61912194Y-38517536D01*
X61912194Y-38517536D02*
X61816956Y-38469917D01*
X61816956Y-38469917D02*
X61578861Y-38469917D01*
X61578861Y-38469917D02*
X61436004Y-38517536D01*
X60578861Y-39469917D02*
X60578861Y-38946107D01*
X60578861Y-38946107D02*
X60626480Y-38850869D01*
X60626480Y-38850869D02*
X60721718Y-38803250D01*
X60721718Y-38803250D02*
X60912194Y-38803250D01*
X60912194Y-38803250D02*
X61007432Y-38850869D01*
X60578861Y-39422298D02*
X60674099Y-39469917D01*
X60674099Y-39469917D02*
X60912194Y-39469917D01*
X60912194Y-39469917D02*
X61007432Y-39422298D01*
X61007432Y-39422298D02*
X61055051Y-39327059D01*
X61055051Y-39327059D02*
X61055051Y-39231821D01*
X61055051Y-39231821D02*
X61007432Y-39136583D01*
X61007432Y-39136583D02*
X60912194Y-39088964D01*
X60912194Y-39088964D02*
X60674099Y-39088964D01*
X60674099Y-39088964D02*
X60578861Y-39041345D01*
X60102670Y-38803250D02*
X60102670Y-39469917D01*
X60102670Y-38898488D02*
X60055051Y-38850869D01*
X60055051Y-38850869D02*
X59959813Y-38803250D01*
X59959813Y-38803250D02*
X59816956Y-38803250D01*
X59816956Y-38803250D02*
X59721718Y-38850869D01*
X59721718Y-38850869D02*
X59674099Y-38946107D01*
X59674099Y-38946107D02*
X59674099Y-39469917D01*
X58769337Y-39469917D02*
X58769337Y-38469917D01*
X58769337Y-39422298D02*
X58864575Y-39469917D01*
X58864575Y-39469917D02*
X59055051Y-39469917D01*
X59055051Y-39469917D02*
X59150289Y-39422298D01*
X59150289Y-39422298D02*
X59197908Y-39374678D01*
X59197908Y-39374678D02*
X59245527Y-39279440D01*
X59245527Y-39279440D02*
X59245527Y-38993726D01*
X59245527Y-38993726D02*
X59197908Y-38898488D01*
X59197908Y-38898488D02*
X59150289Y-38850869D01*
X59150289Y-38850869D02*
X59055051Y-38803250D01*
X59055051Y-38803250D02*
X58864575Y-38803250D01*
X58864575Y-38803250D02*
X58769337Y-38850869D01*
X58388384Y-38803250D02*
X58150289Y-39469917D01*
X57912194Y-38803250D02*
X58150289Y-39469917D01*
X58150289Y-39469917D02*
X58245527Y-39708012D01*
X58245527Y-39708012D02*
X58293146Y-39755631D01*
X58293146Y-39755631D02*
X58388384Y-39803250D01*
X57055051Y-39469917D02*
X57531241Y-39469917D01*
X57531241Y-39469917D02*
X57531241Y-38469917D01*
X56721717Y-39469917D02*
X56721717Y-38469917D01*
X56721717Y-38469917D02*
X56340765Y-38469917D01*
X56340765Y-38469917D02*
X56245527Y-38517536D01*
X56245527Y-38517536D02*
X56197908Y-38565155D01*
X56197908Y-38565155D02*
X56150289Y-38660393D01*
X56150289Y-38660393D02*
X56150289Y-38803250D01*
X56150289Y-38803250D02*
X56197908Y-38898488D01*
X56197908Y-38898488D02*
X56245527Y-38946107D01*
X56245527Y-38946107D02*
X56340765Y-38993726D01*
X56340765Y-38993726D02*
X56721717Y-38993726D01*
X55959813Y-39565155D02*
X55197908Y-39565155D01*
X54959812Y-39469917D02*
X54959812Y-38469917D01*
X54864574Y-39088964D02*
X54578860Y-39469917D01*
X54578860Y-38803250D02*
X54959812Y-39184202D01*
X54150288Y-39469917D02*
X54150288Y-38469917D01*
X54150288Y-38850869D02*
X54055050Y-38803250D01*
X54055050Y-38803250D02*
X53864574Y-38803250D01*
X53864574Y-38803250D02*
X53769336Y-38850869D01*
X53769336Y-38850869D02*
X53721717Y-38898488D01*
X53721717Y-38898488D02*
X53674098Y-38993726D01*
X53674098Y-38993726D02*
X53674098Y-39279440D01*
X53674098Y-39279440D02*
X53721717Y-39374678D01*
X53721717Y-39374678D02*
X53769336Y-39422298D01*
X53769336Y-39422298D02*
X53864574Y-39469917D01*
X53864574Y-39469917D02*
X54055050Y-39469917D01*
X54055050Y-39469917D02*
X54150288Y-39422298D01*
X52816955Y-39469917D02*
X52816955Y-38469917D01*
X52816955Y-39422298D02*
X52912193Y-39469917D01*
X52912193Y-39469917D02*
X53102669Y-39469917D01*
X53102669Y-39469917D02*
X53197907Y-39422298D01*
X53197907Y-39422298D02*
X53245526Y-39374678D01*
X53245526Y-39374678D02*
X53293145Y-39279440D01*
X53293145Y-39279440D02*
X53293145Y-38993726D01*
X53293145Y-38993726D02*
X53245526Y-38898488D01*
X53245526Y-38898488D02*
X53197907Y-38850869D01*
X53197907Y-38850869D02*
X53102669Y-38803250D01*
X53102669Y-38803250D02*
X52912193Y-38803250D01*
X52912193Y-38803250D02*
X52816955Y-38850869D01*
X51578859Y-39469917D02*
X51578859Y-38469917D01*
X51578859Y-38469917D02*
X51340764Y-38469917D01*
X51340764Y-38469917D02*
X51197907Y-38517536D01*
X51197907Y-38517536D02*
X51102669Y-38612774D01*
X51102669Y-38612774D02*
X51055050Y-38708012D01*
X51055050Y-38708012D02*
X51007431Y-38898488D01*
X51007431Y-38898488D02*
X51007431Y-39041345D01*
X51007431Y-39041345D02*
X51055050Y-39231821D01*
X51055050Y-39231821D02*
X51102669Y-39327059D01*
X51102669Y-39327059D02*
X51197907Y-39422298D01*
X51197907Y-39422298D02*
X51340764Y-39469917D01*
X51340764Y-39469917D02*
X51578859Y-39469917D01*
X50578859Y-39469917D02*
X50578859Y-38469917D01*
X50578859Y-38469917D02*
X50007431Y-39469917D01*
X50007431Y-39469917D02*
X50007431Y-38469917D01*
X49340764Y-38469917D02*
X49245526Y-38469917D01*
X49245526Y-38469917D02*
X49150288Y-38517536D01*
X49150288Y-38517536D02*
X49102669Y-38565155D01*
X49102669Y-38565155D02*
X49055050Y-38660393D01*
X49055050Y-38660393D02*
X49007431Y-38850869D01*
X49007431Y-38850869D02*
X49007431Y-39088964D01*
X49007431Y-39088964D02*
X49055050Y-39279440D01*
X49055050Y-39279440D02*
X49102669Y-39374678D01*
X49102669Y-39374678D02*
X49150288Y-39422298D01*
X49150288Y-39422298D02*
X49245526Y-39469917D01*
X49245526Y-39469917D02*
X49340764Y-39469917D01*
X49340764Y-39469917D02*
X49436002Y-39422298D01*
X49436002Y-39422298D02*
X49483621Y-39374678D01*
X49483621Y-39374678D02*
X49531240Y-39279440D01*
X49531240Y-39279440D02*
X49578859Y-39088964D01*
X49578859Y-39088964D02*
X49578859Y-38850869D01*
X49578859Y-38850869D02*
X49531240Y-38660393D01*
X49531240Y-38660393D02*
X49483621Y-38565155D01*
X49483621Y-38565155D02*
X49436002Y-38517536D01*
X49436002Y-38517536D02*
X49340764Y-38469917D01*
X48388383Y-38469917D02*
X48293145Y-38469917D01*
X48293145Y-38469917D02*
X48197907Y-38517536D01*
X48197907Y-38517536D02*
X48150288Y-38565155D01*
X48150288Y-38565155D02*
X48102669Y-38660393D01*
X48102669Y-38660393D02*
X48055050Y-38850869D01*
X48055050Y-38850869D02*
X48055050Y-39088964D01*
X48055050Y-39088964D02*
X48102669Y-39279440D01*
X48102669Y-39279440D02*
X48150288Y-39374678D01*
X48150288Y-39374678D02*
X48197907Y-39422298D01*
X48197907Y-39422298D02*
X48293145Y-39469917D01*
X48293145Y-39469917D02*
X48388383Y-39469917D01*
X48388383Y-39469917D02*
X48483621Y-39422298D01*
X48483621Y-39422298D02*
X48531240Y-39374678D01*
X48531240Y-39374678D02*
X48578859Y-39279440D01*
X48578859Y-39279440D02*
X48626478Y-39088964D01*
X48626478Y-39088964D02*
X48626478Y-38850869D01*
X48626478Y-38850869D02*
X48578859Y-38660393D01*
X48578859Y-38660393D02*
X48531240Y-38565155D01*
X48531240Y-38565155D02*
X48483621Y-38517536D01*
X48483621Y-38517536D02*
X48388383Y-38469917D01*
X47102669Y-39469917D02*
X47674097Y-39469917D01*
X47388383Y-39469917D02*
X47388383Y-38469917D01*
X47388383Y-38469917D02*
X47483621Y-38612774D01*
X47483621Y-38612774D02*
X47578859Y-38708012D01*
X47578859Y-38708012D02*
X47674097Y-38755631D01*
X46483621Y-38469917D02*
X46388383Y-38469917D01*
X46388383Y-38469917D02*
X46293145Y-38517536D01*
X46293145Y-38517536D02*
X46245526Y-38565155D01*
X46245526Y-38565155D02*
X46197907Y-38660393D01*
X46197907Y-38660393D02*
X46150288Y-38850869D01*
X46150288Y-38850869D02*
X46150288Y-39088964D01*
X46150288Y-39088964D02*
X46197907Y-39279440D01*
X46197907Y-39279440D02*
X46245526Y-39374678D01*
X46245526Y-39374678D02*
X46293145Y-39422298D01*
X46293145Y-39422298D02*
X46388383Y-39469917D01*
X46388383Y-39469917D02*
X46483621Y-39469917D01*
X46483621Y-39469917D02*
X46578859Y-39422298D01*
X46578859Y-39422298D02*
X46626478Y-39374678D01*
X46626478Y-39374678D02*
X46674097Y-39279440D01*
X46674097Y-39279440D02*
X46721716Y-39088964D01*
X46721716Y-39088964D02*
X46721716Y-38850869D01*
X46721716Y-38850869D02*
X46674097Y-38660393D01*
X46674097Y-38660393D02*
X46626478Y-38565155D01*
X46626478Y-38565155D02*
X46578859Y-38517536D01*
X46578859Y-38517536D02*
X46483621Y-38469917D01*
X62959813Y-41079861D02*
X62959813Y-40079861D01*
X62959813Y-40079861D02*
X62626480Y-40794146D01*
X62626480Y-40794146D02*
X62293147Y-40079861D01*
X62293147Y-40079861D02*
X62293147Y-41079861D01*
X61816956Y-41079861D02*
X61816956Y-40413194D01*
X61816956Y-40079861D02*
X61864575Y-40127480D01*
X61864575Y-40127480D02*
X61816956Y-40175099D01*
X61816956Y-40175099D02*
X61769337Y-40127480D01*
X61769337Y-40127480D02*
X61816956Y-40079861D01*
X61816956Y-40079861D02*
X61816956Y-40175099D01*
X60912195Y-41079861D02*
X60912195Y-40079861D01*
X60912195Y-41032242D02*
X61007433Y-41079861D01*
X61007433Y-41079861D02*
X61197909Y-41079861D01*
X61197909Y-41079861D02*
X61293147Y-41032242D01*
X61293147Y-41032242D02*
X61340766Y-40984622D01*
X61340766Y-40984622D02*
X61388385Y-40889384D01*
X61388385Y-40889384D02*
X61388385Y-40603670D01*
X61388385Y-40603670D02*
X61340766Y-40508432D01*
X61340766Y-40508432D02*
X61293147Y-40460813D01*
X61293147Y-40460813D02*
X61197909Y-40413194D01*
X61197909Y-40413194D02*
X61007433Y-40413194D01*
X61007433Y-40413194D02*
X60912195Y-40460813D01*
X60436004Y-40698908D02*
X59674100Y-40698908D01*
X59197909Y-41079861D02*
X59197909Y-40079861D01*
X58769338Y-41032242D02*
X58674100Y-41079861D01*
X58674100Y-41079861D02*
X58483624Y-41079861D01*
X58483624Y-41079861D02*
X58388386Y-41032242D01*
X58388386Y-41032242D02*
X58340767Y-40937003D01*
X58340767Y-40937003D02*
X58340767Y-40889384D01*
X58340767Y-40889384D02*
X58388386Y-40794146D01*
X58388386Y-40794146D02*
X58483624Y-40746527D01*
X58483624Y-40746527D02*
X58626481Y-40746527D01*
X58626481Y-40746527D02*
X58721719Y-40698908D01*
X58721719Y-40698908D02*
X58769338Y-40603670D01*
X58769338Y-40603670D02*
X58769338Y-40556051D01*
X58769338Y-40556051D02*
X58721719Y-40460813D01*
X58721719Y-40460813D02*
X58626481Y-40413194D01*
X58626481Y-40413194D02*
X58483624Y-40413194D01*
X58483624Y-40413194D02*
X58388386Y-40460813D01*
X57769338Y-41079861D02*
X57864576Y-41032242D01*
X57864576Y-41032242D02*
X57912195Y-40984622D01*
X57912195Y-40984622D02*
X57959814Y-40889384D01*
X57959814Y-40889384D02*
X57959814Y-40603670D01*
X57959814Y-40603670D02*
X57912195Y-40508432D01*
X57912195Y-40508432D02*
X57864576Y-40460813D01*
X57864576Y-40460813D02*
X57769338Y-40413194D01*
X57769338Y-40413194D02*
X57626481Y-40413194D01*
X57626481Y-40413194D02*
X57531243Y-40460813D01*
X57531243Y-40460813D02*
X57483624Y-40508432D01*
X57483624Y-40508432D02*
X57436005Y-40603670D01*
X57436005Y-40603670D02*
X57436005Y-40889384D01*
X57436005Y-40889384D02*
X57483624Y-40984622D01*
X57483624Y-40984622D02*
X57531243Y-41032242D01*
X57531243Y-41032242D02*
X57626481Y-41079861D01*
X57626481Y-41079861D02*
X57769338Y-41079861D01*
X56245528Y-41079861D02*
X56245528Y-40079861D01*
X56245528Y-40460813D02*
X56150290Y-40413194D01*
X56150290Y-40413194D02*
X55959814Y-40413194D01*
X55959814Y-40413194D02*
X55864576Y-40460813D01*
X55864576Y-40460813D02*
X55816957Y-40508432D01*
X55816957Y-40508432D02*
X55769338Y-40603670D01*
X55769338Y-40603670D02*
X55769338Y-40889384D01*
X55769338Y-40889384D02*
X55816957Y-40984622D01*
X55816957Y-40984622D02*
X55864576Y-41032242D01*
X55864576Y-41032242D02*
X55959814Y-41079861D01*
X55959814Y-41079861D02*
X56150290Y-41079861D01*
X56150290Y-41079861D02*
X56245528Y-41032242D01*
X55436004Y-40413194D02*
X55197909Y-41079861D01*
X54959814Y-40413194D02*
X55197909Y-41079861D01*
X55197909Y-41079861D02*
X55293147Y-41317956D01*
X55293147Y-41317956D02*
X55340766Y-41365575D01*
X55340766Y-41365575D02*
X55436004Y-41413194D01*
X53197909Y-40603670D02*
X53245528Y-40556051D01*
X53245528Y-40556051D02*
X53340766Y-40508432D01*
X53340766Y-40508432D02*
X53436004Y-40508432D01*
X53436004Y-40508432D02*
X53531242Y-40556051D01*
X53531242Y-40556051D02*
X53578861Y-40603670D01*
X53578861Y-40603670D02*
X53626480Y-40698908D01*
X53626480Y-40698908D02*
X53626480Y-40794146D01*
X53626480Y-40794146D02*
X53578861Y-40889384D01*
X53578861Y-40889384D02*
X53531242Y-40937003D01*
X53531242Y-40937003D02*
X53436004Y-40984622D01*
X53436004Y-40984622D02*
X53340766Y-40984622D01*
X53340766Y-40984622D02*
X53245528Y-40937003D01*
X53245528Y-40937003D02*
X53197909Y-40889384D01*
X53197909Y-40508432D02*
X53197909Y-40889384D01*
X53197909Y-40889384D02*
X53150290Y-40937003D01*
X53150290Y-40937003D02*
X53102671Y-40937003D01*
X53102671Y-40937003D02*
X53007432Y-40889384D01*
X53007432Y-40889384D02*
X52959813Y-40794146D01*
X52959813Y-40794146D02*
X52959813Y-40556051D01*
X52959813Y-40556051D02*
X53055052Y-40413194D01*
X53055052Y-40413194D02*
X53197909Y-40317956D01*
X53197909Y-40317956D02*
X53388385Y-40270337D01*
X53388385Y-40270337D02*
X53578861Y-40317956D01*
X53578861Y-40317956D02*
X53721718Y-40413194D01*
X53721718Y-40413194D02*
X53816956Y-40556051D01*
X53816956Y-40556051D02*
X53864575Y-40746527D01*
X53864575Y-40746527D02*
X53816956Y-40937003D01*
X53816956Y-40937003D02*
X53721718Y-41079861D01*
X53721718Y-41079861D02*
X53578861Y-41175099D01*
X53578861Y-41175099D02*
X53388385Y-41222718D01*
X53388385Y-41222718D02*
X53197909Y-41175099D01*
X53197909Y-41175099D02*
X53055052Y-41079861D01*
X52531242Y-40413194D02*
X52531242Y-41270337D01*
X52531242Y-41270337D02*
X52578861Y-41365575D01*
X52578861Y-41365575D02*
X52674099Y-41413194D01*
X52674099Y-41413194D02*
X52721718Y-41413194D01*
X52531242Y-40079861D02*
X52578861Y-40127480D01*
X52578861Y-40127480D02*
X52531242Y-40175099D01*
X52531242Y-40175099D02*
X52483623Y-40127480D01*
X52483623Y-40127480D02*
X52531242Y-40079861D01*
X52531242Y-40079861D02*
X52531242Y-40175099D01*
X52055052Y-40413194D02*
X52055052Y-41413194D01*
X52055052Y-40460813D02*
X51959814Y-40413194D01*
X51959814Y-40413194D02*
X51769338Y-40413194D01*
X51769338Y-40413194D02*
X51674100Y-40460813D01*
X51674100Y-40460813D02*
X51626481Y-40508432D01*
X51626481Y-40508432D02*
X51578862Y-40603670D01*
X51578862Y-40603670D02*
X51578862Y-40889384D01*
X51578862Y-40889384D02*
X51626481Y-40984622D01*
X51626481Y-40984622D02*
X51674100Y-41032242D01*
X51674100Y-41032242D02*
X51769338Y-41079861D01*
X51769338Y-41079861D02*
X51959814Y-41079861D01*
X51959814Y-41079861D02*
X52055052Y-41032242D01*
X51197909Y-41032242D02*
X51102671Y-41079861D01*
X51102671Y-41079861D02*
X50912195Y-41079861D01*
X50912195Y-41079861D02*
X50816957Y-41032242D01*
X50816957Y-41032242D02*
X50769338Y-40937003D01*
X50769338Y-40937003D02*
X50769338Y-40889384D01*
X50769338Y-40889384D02*
X50816957Y-40794146D01*
X50816957Y-40794146D02*
X50912195Y-40746527D01*
X50912195Y-40746527D02*
X51055052Y-40746527D01*
X51055052Y-40746527D02*
X51150290Y-40698908D01*
X51150290Y-40698908D02*
X51197909Y-40603670D01*
X51197909Y-40603670D02*
X51197909Y-40556051D01*
X51197909Y-40556051D02*
X51150290Y-40460813D01*
X51150290Y-40460813D02*
X51055052Y-40413194D01*
X51055052Y-40413194D02*
X50912195Y-40413194D01*
X50912195Y-40413194D02*
X50816957Y-40460813D01*
X50340766Y-41079861D02*
X50340766Y-40079861D01*
X50245528Y-40698908D02*
X49959814Y-41079861D01*
X49959814Y-40413194D02*
X50340766Y-40794146D01*
X49150290Y-41032242D02*
X49245528Y-41079861D01*
X49245528Y-41079861D02*
X49436004Y-41079861D01*
X49436004Y-41079861D02*
X49531242Y-41032242D01*
X49531242Y-41032242D02*
X49578861Y-40937003D01*
X49578861Y-40937003D02*
X49578861Y-40556051D01*
X49578861Y-40556051D02*
X49531242Y-40460813D01*
X49531242Y-40460813D02*
X49436004Y-40413194D01*
X49436004Y-40413194D02*
X49245528Y-40413194D01*
X49245528Y-40413194D02*
X49150290Y-40460813D01*
X49150290Y-40460813D02*
X49102671Y-40556051D01*
X49102671Y-40556051D02*
X49102671Y-40651289D01*
X49102671Y-40651289D02*
X49578861Y-40746527D01*
X48674099Y-40413194D02*
X48674099Y-41079861D01*
X48674099Y-40508432D02*
X48626480Y-40460813D01*
X48626480Y-40460813D02*
X48531242Y-40413194D01*
X48531242Y-40413194D02*
X48388385Y-40413194D01*
X48388385Y-40413194D02*
X48293147Y-40460813D01*
X48293147Y-40460813D02*
X48245528Y-40556051D01*
X48245528Y-40556051D02*
X48245528Y-41079861D01*
X47769337Y-40413194D02*
X47769337Y-41079861D01*
X47769337Y-40508432D02*
X47721718Y-40460813D01*
X47721718Y-40460813D02*
X47626480Y-40413194D01*
X47626480Y-40413194D02*
X47483623Y-40413194D01*
X47483623Y-40413194D02*
X47388385Y-40460813D01*
X47388385Y-40460813D02*
X47340766Y-40556051D01*
X47340766Y-40556051D02*
X47340766Y-41079861D01*
D12*
X38041379Y-45315310D02*
X37041379Y-45315310D01*
X37041379Y-45315310D02*
X37041379Y-45553405D01*
X37041379Y-45553405D02*
X37088998Y-45696262D01*
X37088998Y-45696262D02*
X37184236Y-45791500D01*
X37184236Y-45791500D02*
X37279474Y-45839119D01*
X37279474Y-45839119D02*
X37469950Y-45886738D01*
X37469950Y-45886738D02*
X37612807Y-45886738D01*
X37612807Y-45886738D02*
X37803283Y-45839119D01*
X37803283Y-45839119D02*
X37898521Y-45791500D01*
X37898521Y-45791500D02*
X37993760Y-45696262D01*
X37993760Y-45696262D02*
X38041379Y-45553405D01*
X38041379Y-45553405D02*
X38041379Y-45315310D01*
X38041379Y-46839119D02*
X38041379Y-46267691D01*
X38041379Y-46553405D02*
X37041379Y-46553405D01*
X37041379Y-46553405D02*
X37184236Y-46458167D01*
X37184236Y-46458167D02*
X37279474Y-46362929D01*
X37279474Y-46362929D02*
X37327093Y-46267691D01*
X52776291Y-44317599D02*
X52204863Y-44317599D01*
X52490577Y-45317599D02*
X52490577Y-44317599D01*
X52109625Y-45412837D02*
X51347720Y-45412837D01*
X50538196Y-45222360D02*
X50585815Y-45269980D01*
X50585815Y-45269980D02*
X50728672Y-45317599D01*
X50728672Y-45317599D02*
X50823910Y-45317599D01*
X50823910Y-45317599D02*
X50966767Y-45269980D01*
X50966767Y-45269980D02*
X51062005Y-45174741D01*
X51062005Y-45174741D02*
X51109624Y-45079503D01*
X51109624Y-45079503D02*
X51157243Y-44889027D01*
X51157243Y-44889027D02*
X51157243Y-44746170D01*
X51157243Y-44746170D02*
X51109624Y-44555694D01*
X51109624Y-44555694D02*
X51062005Y-44460456D01*
X51062005Y-44460456D02*
X50966767Y-44365218D01*
X50966767Y-44365218D02*
X50823910Y-44317599D01*
X50823910Y-44317599D02*
X50728672Y-44317599D01*
X50728672Y-44317599D02*
X50585815Y-44365218D01*
X50585815Y-44365218D02*
X50538196Y-44412837D01*
X49919148Y-44317599D02*
X49823910Y-44317599D01*
X49823910Y-44317599D02*
X49728672Y-44365218D01*
X49728672Y-44365218D02*
X49681053Y-44412837D01*
X49681053Y-44412837D02*
X49633434Y-44508075D01*
X49633434Y-44508075D02*
X49585815Y-44698551D01*
X49585815Y-44698551D02*
X49585815Y-44936646D01*
X49585815Y-44936646D02*
X49633434Y-45127122D01*
X49633434Y-45127122D02*
X49681053Y-45222360D01*
X49681053Y-45222360D02*
X49728672Y-45269980D01*
X49728672Y-45269980D02*
X49823910Y-45317599D01*
X49823910Y-45317599D02*
X49919148Y-45317599D01*
X49919148Y-45317599D02*
X50014386Y-45269980D01*
X50014386Y-45269980D02*
X50062005Y-45222360D01*
X50062005Y-45222360D02*
X50109624Y-45127122D01*
X50109624Y-45127122D02*
X50157243Y-44936646D01*
X50157243Y-44936646D02*
X50157243Y-44698551D01*
X50157243Y-44698551D02*
X50109624Y-44508075D01*
X50109624Y-44508075D02*
X50062005Y-44412837D01*
X50062005Y-44412837D02*
X50014386Y-44365218D01*
X50014386Y-44365218D02*
X49919148Y-44317599D01*
X48442958Y-44269980D02*
X49300100Y-45555694D01*
X47538196Y-45222360D02*
X47585815Y-45269980D01*
X47585815Y-45269980D02*
X47728672Y-45317599D01*
X47728672Y-45317599D02*
X47823910Y-45317599D01*
X47823910Y-45317599D02*
X47966767Y-45269980D01*
X47966767Y-45269980D02*
X48062005Y-45174741D01*
X48062005Y-45174741D02*
X48109624Y-45079503D01*
X48109624Y-45079503D02*
X48157243Y-44889027D01*
X48157243Y-44889027D02*
X48157243Y-44746170D01*
X48157243Y-44746170D02*
X48109624Y-44555694D01*
X48109624Y-44555694D02*
X48062005Y-44460456D01*
X48062005Y-44460456D02*
X47966767Y-44365218D01*
X47966767Y-44365218D02*
X47823910Y-44317599D01*
X47823910Y-44317599D02*
X47728672Y-44317599D01*
X47728672Y-44317599D02*
X47585815Y-44365218D01*
X47585815Y-44365218D02*
X47538196Y-44412837D01*
X46681053Y-44317599D02*
X46871529Y-44317599D01*
X46871529Y-44317599D02*
X46966767Y-44365218D01*
X46966767Y-44365218D02*
X47014386Y-44412837D01*
X47014386Y-44412837D02*
X47109624Y-44555694D01*
X47109624Y-44555694D02*
X47157243Y-44746170D01*
X47157243Y-44746170D02*
X47157243Y-45127122D01*
X47157243Y-45127122D02*
X47109624Y-45222360D01*
X47109624Y-45222360D02*
X47062005Y-45269980D01*
X47062005Y-45269980D02*
X46966767Y-45317599D01*
X46966767Y-45317599D02*
X46776291Y-45317599D01*
X46776291Y-45317599D02*
X46681053Y-45269980D01*
X46681053Y-45269980D02*
X46633434Y-45222360D01*
X46633434Y-45222360D02*
X46585815Y-45127122D01*
X46585815Y-45127122D02*
X46585815Y-44889027D01*
X46585815Y-44889027D02*
X46633434Y-44793789D01*
X46633434Y-44793789D02*
X46681053Y-44746170D01*
X46681053Y-44746170D02*
X46776291Y-44698551D01*
X46776291Y-44698551D02*
X46966767Y-44698551D01*
X46966767Y-44698551D02*
X47062005Y-44746170D01*
X47062005Y-44746170D02*
X47109624Y-44793789D01*
X47109624Y-44793789D02*
X47157243Y-44889027D01*
X28363254Y-43219923D02*
X28363254Y-43791351D01*
X29363254Y-43505637D02*
X28363254Y-43505637D01*
X29458492Y-43886590D02*
X29458492Y-44648494D01*
X29363254Y-45458018D02*
X28887063Y-45124685D01*
X29363254Y-44886590D02*
X28363254Y-44886590D01*
X28363254Y-44886590D02*
X28363254Y-45267542D01*
X28363254Y-45267542D02*
X28410873Y-45362780D01*
X28410873Y-45362780D02*
X28458492Y-45410399D01*
X28458492Y-45410399D02*
X28553730Y-45458018D01*
X28553730Y-45458018D02*
X28696587Y-45458018D01*
X28696587Y-45458018D02*
X28791825Y-45410399D01*
X28791825Y-45410399D02*
X28839444Y-45362780D01*
X28839444Y-45362780D02*
X28887063Y-45267542D01*
X28887063Y-45267542D02*
X28887063Y-44886590D01*
X28363254Y-46077066D02*
X28363254Y-46172304D01*
X28363254Y-46172304D02*
X28410873Y-46267542D01*
X28410873Y-46267542D02*
X28458492Y-46315161D01*
X28458492Y-46315161D02*
X28553730Y-46362780D01*
X28553730Y-46362780D02*
X28744206Y-46410399D01*
X28744206Y-46410399D02*
X28982301Y-46410399D01*
X28982301Y-46410399D02*
X29172777Y-46362780D01*
X29172777Y-46362780D02*
X29268015Y-46315161D01*
X29268015Y-46315161D02*
X29315635Y-46267542D01*
X29315635Y-46267542D02*
X29363254Y-46172304D01*
X29363254Y-46172304D02*
X29363254Y-46077066D01*
X29363254Y-46077066D02*
X29315635Y-45981828D01*
X29315635Y-45981828D02*
X29268015Y-45934209D01*
X29268015Y-45934209D02*
X29172777Y-45886590D01*
X29172777Y-45886590D02*
X28982301Y-45838971D01*
X28982301Y-45838971D02*
X28744206Y-45838971D01*
X28744206Y-45838971D02*
X28553730Y-45886590D01*
X28553730Y-45886590D02*
X28458492Y-45934209D01*
X28458492Y-45934209D02*
X28410873Y-45981828D01*
X28410873Y-45981828D02*
X28363254Y-46077066D01*
X56891379Y-45315310D02*
X55891379Y-45315310D01*
X55891379Y-45315310D02*
X55891379Y-45553405D01*
X55891379Y-45553405D02*
X55938998Y-45696262D01*
X55938998Y-45696262D02*
X56034236Y-45791500D01*
X56034236Y-45791500D02*
X56129474Y-45839119D01*
X56129474Y-45839119D02*
X56319950Y-45886738D01*
X56319950Y-45886738D02*
X56462807Y-45886738D01*
X56462807Y-45886738D02*
X56653283Y-45839119D01*
X56653283Y-45839119D02*
X56748521Y-45791500D01*
X56748521Y-45791500D02*
X56843760Y-45696262D01*
X56843760Y-45696262D02*
X56891379Y-45553405D01*
X56891379Y-45553405D02*
X56891379Y-45315310D01*
X55986617Y-46267691D02*
X55938998Y-46315310D01*
X55938998Y-46315310D02*
X55891379Y-46410548D01*
X55891379Y-46410548D02*
X55891379Y-46648643D01*
X55891379Y-46648643D02*
X55938998Y-46743881D01*
X55938998Y-46743881D02*
X55986617Y-46791500D01*
X55986617Y-46791500D02*
X56081855Y-46839119D01*
X56081855Y-46839119D02*
X56177093Y-46839119D01*
X56177093Y-46839119D02*
X56319950Y-46791500D01*
X56319950Y-46791500D02*
X56891379Y-46220072D01*
X56891379Y-46220072D02*
X56891379Y-46839119D01*
X28363254Y-47982423D02*
X28363254Y-48553851D01*
X29363254Y-48268137D02*
X28363254Y-48268137D01*
X29458492Y-48649090D02*
X29458492Y-49410994D01*
X29363254Y-50220518D02*
X28887063Y-49887185D01*
X29363254Y-49649090D02*
X28363254Y-49649090D01*
X28363254Y-49649090D02*
X28363254Y-50030042D01*
X28363254Y-50030042D02*
X28410873Y-50125280D01*
X28410873Y-50125280D02*
X28458492Y-50172899D01*
X28458492Y-50172899D02*
X28553730Y-50220518D01*
X28553730Y-50220518D02*
X28696587Y-50220518D01*
X28696587Y-50220518D02*
X28791825Y-50172899D01*
X28791825Y-50172899D02*
X28839444Y-50125280D01*
X28839444Y-50125280D02*
X28887063Y-50030042D01*
X28887063Y-50030042D02*
X28887063Y-49649090D01*
X28696587Y-51077661D02*
X29363254Y-51077661D01*
X28315635Y-50839566D02*
X29029920Y-50601471D01*
X29029920Y-50601471D02*
X29029920Y-51220518D01*
X33108435Y-51125280D02*
X33108435Y-51625280D01*
X33108435Y-55225280D02*
X33108435Y-55825280D01*
X33108435Y-55825280D02*
X37608435Y-55825280D01*
X37608435Y-51125280D02*
X33108435Y-51125280D01*
X37608435Y-51825280D02*
X37608435Y-51125280D01*
X38108435Y-56325280D02*
X38108435Y-57325280D01*
X38608435Y-57825280D02*
X38108435Y-57325280D01*
X41608435Y-53325280D02*
X39108435Y-53325280D01*
X41608435Y-57825280D02*
X38608435Y-57825280D01*
X42108435Y-53825280D02*
X41608435Y-53325280D01*
X42108435Y-57325280D02*
X41608435Y-57825280D01*
X37608435Y-55825280D02*
G75*
G02*
X38108435Y-56325280I-1J-500001D01*
G01*
X39108435Y-53325280D02*
G75*
G02*
X37608435Y-51825280I1J1500001D01*
G01*
X52158435Y-51125280D02*
X52158435Y-51625280D01*
X52158435Y-55225280D02*
X52158435Y-55825280D01*
X52158435Y-55825280D02*
X56658435Y-55825280D01*
X56658435Y-51125280D02*
X52158435Y-51125280D01*
X56658435Y-51825280D02*
X56658435Y-51125280D01*
X57158435Y-56325280D02*
X57158435Y-57325280D01*
X57658435Y-57825280D02*
X57158435Y-57325280D01*
X60658435Y-53325280D02*
X58158435Y-53325280D01*
X60658435Y-57825280D02*
X57658435Y-57825280D01*
X61158435Y-53825280D02*
X60658435Y-53325280D01*
X61158435Y-57325280D02*
X60658435Y-57825280D01*
X56658435Y-55825280D02*
G75*
G02*
X57158435Y-56325280I-1J-500001D01*
G01*
X58158435Y-53325280D02*
G75*
G02*
X56658435Y-51825280I1J1500001D01*
G01*
D13*
X34345935Y-50084655D02*
X34345935Y-46084655D01*
X36345935Y-50084655D02*
X36345935Y-46084655D01*
X36345935Y-45769655D02*
X34345935Y-45769655D01*
X34345935Y-46059655D01*
X36345935Y-46059655D01*
X36345935Y-45769655D01*
G36*
X36345935Y-45769655D02*
G01*
X34345935Y-45769655D01*
X34345935Y-46059655D01*
X36345935Y-46059655D01*
X36345935Y-45769655D01*
G37*
X36107935Y-48942655D02*
X34583935Y-48942655D01*
X35345935Y-47799655D01*
X36107935Y-48942655D01*
G36*
X36107935Y-48942655D02*
G01*
X34583935Y-48942655D01*
X35345935Y-47799655D01*
X36107935Y-48942655D01*
G37*
X53395935Y-50084655D02*
X53395935Y-46084655D01*
X55395935Y-50084655D02*
X55395935Y-46084655D01*
X55395935Y-45769655D02*
X53395935Y-45769655D01*
X53395935Y-46059655D01*
X55395935Y-46059655D01*
X55395935Y-45769655D01*
G36*
X55395935Y-45769655D02*
G01*
X53395935Y-45769655D01*
X53395935Y-46059655D01*
X55395935Y-46059655D01*
X55395935Y-45769655D01*
G37*
X55157935Y-48942655D02*
X53633935Y-48942655D01*
X54395935Y-47799655D01*
X55157935Y-48942655D01*
G36*
X55157935Y-48942655D02*
G01*
X53633935Y-48942655D01*
X54395935Y-47799655D01*
X55157935Y-48942655D01*
G37*
D12*
X33108435Y-56625280D02*
X33108435Y-56025280D01*
%LPC*%
D14*
X35108435Y-53375280D03*
D15*
X40108435Y-49625280D03*
D14*
X40108435Y-55575280D03*
D16*
X45108435Y-44475280D03*
D17*
X42920935Y-55925280D03*
D18*
X31833435Y-53375280D03*
D14*
X54158435Y-53375280D03*
D15*
X59158435Y-49625280D03*
D14*
X59158435Y-55575280D03*
D16*
X64158435Y-44475280D03*
D17*
X61970935Y-55925280D03*
D18*
X50883435Y-53375280D03*
D19*
X49633435Y-49625280D03*
D20*
X35345935Y-46784655D03*
X35345935Y-50084655D03*
D21*
X49633435Y-42481530D03*
D14*
X64158435Y-53375280D03*
D16*
X54158435Y-44475280D03*
D22*
X67358435Y-54825280D03*
X67358435Y-52025280D03*
D19*
X28658435Y-56250280D03*
X65758435Y-40650280D03*
X30258435Y-40650280D03*
D21*
X30583435Y-44862780D03*
D20*
X54395935Y-46784655D03*
X54395935Y-50084655D03*
D14*
X45108435Y-53375280D03*
D16*
X35108435Y-44475280D03*
D21*
X30583435Y-49625280D03*
%LPD*%
M02*
