G04 #@! TF.GenerationSoftware,KiCad,Pcbnew,8.0.5*
G04 #@! TF.CreationDate,2024-09-18T07:36:17+09:00*
G04 #@! TF.ProjectId,SandyLP_Middle_Isolated_Area,53616e64-794c-4505-9f4d-6964646c655f,v.0*
G04 #@! TF.SameCoordinates,Original*
G04 #@! TF.FileFunction,Copper,L2,Bot*
G04 #@! TF.FilePolarity,Positive*
%FSLAX46Y46*%
G04 Gerber Fmt 4.6, Leading zero omitted, Abs format (unit mm)*
G04 Created by KiCad (PCBNEW 8.0.5) date 2024-09-18 07:36:17*
%MOMM*%
%LPD*%
G01*
G04 APERTURE LIST*
G04 Aperture macros list*
%AMFreePoly0*
4,1,18,0.629926,1.692426,0.637215,1.683591,0.881507,1.322037,1.335531,0.983935,1.781286,0.836983,1.816077,0.807010,1.822500,0.780000,1.822500,-0.950000,1.804926,-0.992426,1.762500,-1.010000,-0.837500,-1.010000,-0.879926,-0.992426,-0.897500,-0.950000,-0.897500,1.650000,-0.879926,1.692426,-0.837500,1.710000,0.587500,1.710000,0.629926,1.692426,0.629926,1.692426,$1*%
G04 Aperture macros list end*
G04 #@! TA.AperFunction,SMDPad,CuDef*
%ADD10FreePoly0,0.000000*%
G04 #@! TD*
G04 #@! TA.AperFunction,SMDPad,CuDef*
%ADD11R,2.600000X2.600000*%
G04 #@! TD*
G04 #@! TA.AperFunction,ComponentPad*
%ADD12C,4.400000*%
G04 #@! TD*
G04 #@! TA.AperFunction,SMDPad,CuDef*
%ADD13R,1.200000X0.900000*%
G04 #@! TD*
G04 #@! TA.AperFunction,ComponentPad*
%ADD14C,2.000000*%
G04 #@! TD*
G04 #@! TA.AperFunction,ComponentPad*
%ADD15C,0.800000*%
G04 #@! TD*
G04 #@! TA.AperFunction,ViaPad*
%ADD16C,0.800000*%
G04 #@! TD*
G04 #@! TA.AperFunction,Conductor*
%ADD17C,0.250000*%
G04 #@! TD*
G04 APERTURE END LIST*
D10*
X42920935Y-55925280D03*
D11*
X31833435Y-53375280D03*
D10*
X61970935Y-55925280D03*
D11*
X50883435Y-53375280D03*
D12*
X49633435Y-49625280D03*
D13*
X35345935Y-46784655D03*
X35345935Y-50084655D03*
D14*
X49633435Y-42481530D03*
D15*
X67358435Y-54825280D03*
X67358435Y-52025280D03*
D12*
X28658435Y-56250280D03*
X65758435Y-40650280D03*
X30258435Y-40650280D03*
D14*
X30583435Y-44862780D03*
D13*
X54395935Y-46784655D03*
X54395935Y-50084655D03*
D14*
X30583435Y-49625280D03*
D16*
X32964655Y-38909656D03*
X27011525Y-41290908D03*
X39683435Y-41519030D03*
X67492809Y-56173733D03*
X47252167Y-38909656D03*
X67492809Y-50815916D03*
X27011525Y-53792481D03*
X49633435Y-57959655D03*
X31178716Y-57959672D03*
X46656854Y-50220603D03*
X67492809Y-43076847D03*
X32964655Y-44862786D03*
X63325618Y-42481534D03*
X65706870Y-57959672D03*
X49633419Y-55419030D03*
X53205297Y-47839351D03*
X36536533Y-51411229D03*
X63325618Y-38909656D03*
D17*
X31833435Y-53375280D02*
X32055310Y-53375280D01*
X32055310Y-53375280D02*
X35345935Y-50084655D01*
X50883435Y-53375280D02*
X54174060Y-50084655D01*
X54174060Y-50084655D02*
X54395935Y-50084655D01*
X32089685Y-42481530D02*
X30258435Y-40650280D01*
X56080549Y-42481530D02*
X62033435Y-48434416D01*
X60445935Y-57450280D02*
X61970935Y-55925280D01*
X62033435Y-48434416D02*
X62033435Y-55862780D01*
X49633435Y-42481530D02*
X32089685Y-42481530D01*
X49633435Y-42481530D02*
X56080549Y-42481530D01*
X42920935Y-55925280D02*
X43314685Y-56319030D01*
X57250535Y-56319030D02*
X58381785Y-57450280D01*
X62033435Y-55862780D02*
X61970935Y-55925280D01*
X58381785Y-57450280D02*
X60445935Y-57450280D01*
X43314685Y-56319030D02*
X57250535Y-56319030D01*
X54395935Y-46784655D02*
X54361560Y-46750280D01*
X34205310Y-49625280D02*
X30583435Y-49625280D01*
X53614685Y-46750280D02*
X52783435Y-45919030D01*
X54361560Y-46750280D02*
X53614685Y-46750280D01*
X37911560Y-45919030D02*
X34205310Y-49625280D01*
X52783435Y-45919030D02*
X37911560Y-45919030D01*
X32505310Y-46784655D02*
X30583435Y-44862780D01*
X35345935Y-46784655D02*
X32505310Y-46784655D01*
G04 #@! TA.AperFunction,Conductor*
G36*
X65043111Y-38188397D02*
G01*
X65079075Y-38237897D01*
X65079075Y-38299083D01*
X65043111Y-38348583D01*
X65017977Y-38361389D01*
X65018065Y-38361610D01*
X65015729Y-38362534D01*
X65015515Y-38362644D01*
X65015171Y-38362755D01*
X64734334Y-38473946D01*
X64469648Y-38619459D01*
X64469627Y-38619472D01*
X64225275Y-38797003D01*
X64225272Y-38797005D01*
X64005090Y-39003771D01*
X64005080Y-39003782D01*
X63812549Y-39236512D01*
X63650709Y-39491530D01*
X63650702Y-39491543D01*
X63522096Y-39764843D01*
X63505165Y-39816952D01*
X63439517Y-40018997D01*
X63428755Y-40052118D01*
X63428752Y-40052128D01*
X63372155Y-40348817D01*
X63353189Y-40650280D01*
X63372155Y-40951742D01*
X63419532Y-41200099D01*
X63428754Y-41248440D01*
X63522094Y-41535710D01*
X63522096Y-41535716D01*
X63650702Y-41809016D01*
X63650709Y-41809029D01*
X63812549Y-42064047D01*
X64005080Y-42296777D01*
X64005090Y-42296788D01*
X64225272Y-42503554D01*
X64225275Y-42503556D01*
X64469627Y-42681087D01*
X64469631Y-42681089D01*
X64469640Y-42681096D01*
X64734331Y-42826612D01*
X65015173Y-42937805D01*
X65307737Y-43012922D01*
X65507517Y-43038160D01*
X65607407Y-43050780D01*
X65607408Y-43050780D01*
X65909463Y-43050780D01*
X65959407Y-43044470D01*
X66209133Y-43012922D01*
X66501697Y-42937805D01*
X66782539Y-42826612D01*
X67047230Y-42681096D01*
X67291597Y-42503554D01*
X67511784Y-42296784D01*
X67704320Y-42064048D01*
X67866168Y-41809016D01*
X67994776Y-41535710D01*
X68023915Y-41446028D01*
X68059877Y-41396532D01*
X68118067Y-41377624D01*
X68176258Y-41396531D01*
X68212222Y-41446030D01*
X68217068Y-41476683D01*
X68207961Y-56804827D01*
X68207935Y-56805065D01*
X68207935Y-56847043D01*
X68207723Y-56853517D01*
X68192539Y-57085217D01*
X68190849Y-57098056D01*
X68146183Y-57322615D01*
X68142831Y-57335123D01*
X68069243Y-57551915D01*
X68064288Y-57563879D01*
X67963023Y-57769231D01*
X67956548Y-57780446D01*
X67829355Y-57970809D01*
X67821472Y-57981083D01*
X67670514Y-58153223D01*
X67661357Y-58162380D01*
X67489226Y-58313339D01*
X67478953Y-58321223D01*
X67288590Y-58448423D01*
X67277375Y-58454898D01*
X67072026Y-58556168D01*
X67060062Y-58561123D01*
X66843269Y-58634719D01*
X66830761Y-58638071D01*
X66606211Y-58682741D01*
X66593371Y-58684432D01*
X66362520Y-58699566D01*
X66356007Y-58699778D01*
X29546053Y-58686112D01*
X29487870Y-58667183D01*
X29451924Y-58617670D01*
X29451947Y-58556484D01*
X29487929Y-58506998D01*
X29509639Y-58495067D01*
X29682539Y-58426612D01*
X29947230Y-58281096D01*
X30191597Y-58103554D01*
X30411784Y-57896784D01*
X30604320Y-57664048D01*
X30766168Y-57409016D01*
X30894776Y-57135710D01*
X30988116Y-56848440D01*
X31044715Y-56551737D01*
X31063681Y-56250280D01*
X31044715Y-55948823D01*
X30988116Y-55652120D01*
X30894776Y-55364850D01*
X30766168Y-55091544D01*
X30725732Y-55027827D01*
X30710516Y-54968564D01*
X30733040Y-54911675D01*
X30784701Y-54878890D01*
X30809321Y-54875780D01*
X33153182Y-54875780D01*
X33153183Y-54875780D01*
X33211666Y-54864147D01*
X33277987Y-54819832D01*
X33322302Y-54753511D01*
X33333935Y-54695028D01*
X33333935Y-54163241D01*
X33352842Y-54105050D01*
X33402342Y-54069086D01*
X33463528Y-54069086D01*
X33513028Y-54105050D01*
X33524399Y-54125356D01*
X33535087Y-54151160D01*
X33535089Y-54151163D01*
X33535091Y-54151168D01*
X33649824Y-54349892D01*
X33789516Y-54531941D01*
X33951774Y-54694199D01*
X34133823Y-54833891D01*
X34332547Y-54948624D01*
X34332548Y-54948624D01*
X34332551Y-54948626D01*
X34428602Y-54988411D01*
X34544548Y-55036438D01*
X34766197Y-55095828D01*
X34993701Y-55125780D01*
X34993702Y-55125780D01*
X35223168Y-55125780D01*
X35223169Y-55125780D01*
X35450673Y-55095828D01*
X35672322Y-55036438D01*
X35884323Y-54948624D01*
X36083047Y-54833891D01*
X36265096Y-54694199D01*
X36427354Y-54531941D01*
X36567046Y-54349892D01*
X36681779Y-54151168D01*
X36769593Y-53939167D01*
X36828983Y-53717518D01*
X36858935Y-53490014D01*
X36858935Y-53260546D01*
X36828983Y-53033042D01*
X36769593Y-52811393D01*
X36717471Y-52685560D01*
X36681781Y-52599396D01*
X36597586Y-52453566D01*
X36567046Y-52400668D01*
X36427354Y-52218619D01*
X36265096Y-52056361D01*
X36201577Y-52007621D01*
X36083046Y-51916668D01*
X35884318Y-51801933D01*
X35672320Y-51714121D01*
X35450673Y-51654732D01*
X35223169Y-51624780D01*
X34993701Y-51624780D01*
X34993700Y-51624780D01*
X34766196Y-51654732D01*
X34544546Y-51714122D01*
X34376574Y-51783698D01*
X34315577Y-51788498D01*
X34263408Y-51756529D01*
X34239994Y-51700001D01*
X34254278Y-51640506D01*
X34268681Y-51622234D01*
X35126765Y-50764151D01*
X35181282Y-50736374D01*
X35196769Y-50735155D01*
X35965682Y-50735155D01*
X35965683Y-50735155D01*
X36024166Y-50723522D01*
X36090487Y-50679207D01*
X36134802Y-50612886D01*
X36146435Y-50554403D01*
X36146435Y-49614907D01*
X36134802Y-49556424D01*
X36090487Y-49490103D01*
X36061618Y-49470813D01*
X37357935Y-49470813D01*
X37357935Y-49779746D01*
X37392523Y-50086730D01*
X37461267Y-50387917D01*
X37563298Y-50679505D01*
X37697340Y-50957846D01*
X37785184Y-51097648D01*
X37861700Y-51219423D01*
X38054315Y-51460954D01*
X38272761Y-51679400D01*
X38514292Y-51872015D01*
X38607738Y-51930731D01*
X38758210Y-52025279D01*
X38775870Y-52036375D01*
X39054206Y-52170415D01*
X39345799Y-52272448D01*
X39646983Y-52341191D01*
X39953970Y-52375780D01*
X39953971Y-52375780D01*
X40262899Y-52375780D01*
X40262900Y-52375780D01*
X40569887Y-52341191D01*
X40871071Y-52272448D01*
X41162664Y-52170415D01*
X41441000Y-52036375D01*
X41702578Y-51872015D01*
X41944109Y-51679400D01*
X42162555Y-51460954D01*
X42355170Y-51219423D01*
X42519530Y-50957845D01*
X42653570Y-50679509D01*
X42755603Y-50387916D01*
X42824346Y-50086732D01*
X42858935Y-49779745D01*
X42858935Y-49625280D01*
X47128492Y-49625280D01*
X47148244Y-49939238D01*
X47207187Y-50248225D01*
X47207190Y-50248235D01*
X47304400Y-50547417D01*
X47438337Y-50832045D01*
X47438344Y-50832058D01*
X47606893Y-51097648D01*
X47697720Y-51207439D01*
X48697143Y-50208015D01*
X48794402Y-50341882D01*
X48916833Y-50464313D01*
X49050697Y-50561570D01*
X48048408Y-51563859D01*
X48291229Y-51740280D01*
X48566880Y-51891819D01*
X48566883Y-51891821D01*
X48859364Y-52007621D01*
X49164053Y-52085852D01*
X49164065Y-52085855D01*
X49296342Y-52102565D01*
X49351705Y-52128616D01*
X49381181Y-52182233D01*
X49382935Y-52200784D01*
X49382935Y-54695026D01*
X49382936Y-54695038D01*
X49394567Y-54753507D01*
X49394568Y-54753511D01*
X49438883Y-54819832D01*
X49505204Y-54864147D01*
X49549666Y-54872991D01*
X49563676Y-54875778D01*
X49563681Y-54875778D01*
X49563687Y-54875780D01*
X49563688Y-54875780D01*
X52203182Y-54875780D01*
X52203183Y-54875780D01*
X52261666Y-54864147D01*
X52327987Y-54819832D01*
X52372302Y-54753511D01*
X52383935Y-54695028D01*
X52383935Y-54163241D01*
X52402842Y-54105050D01*
X52452342Y-54069086D01*
X52513528Y-54069086D01*
X52563028Y-54105050D01*
X52574399Y-54125356D01*
X52585087Y-54151160D01*
X52585089Y-54151163D01*
X52585091Y-54151168D01*
X52699824Y-54349892D01*
X52839516Y-54531941D01*
X53001774Y-54694199D01*
X53183823Y-54833891D01*
X53382547Y-54948624D01*
X53382548Y-54948624D01*
X53382551Y-54948626D01*
X53478602Y-54988411D01*
X53594548Y-55036438D01*
X53816197Y-55095828D01*
X54043701Y-55125780D01*
X54043702Y-55125780D01*
X54273168Y-55125780D01*
X54273169Y-55125780D01*
X54500673Y-55095828D01*
X54722322Y-55036438D01*
X54934323Y-54948624D01*
X55133047Y-54833891D01*
X55315096Y-54694199D01*
X55477354Y-54531941D01*
X55617046Y-54349892D01*
X55731779Y-54151168D01*
X55819593Y-53939167D01*
X55878983Y-53717518D01*
X55908935Y-53490014D01*
X55908935Y-53260546D01*
X55878983Y-53033042D01*
X55819593Y-52811393D01*
X55767471Y-52685560D01*
X55731781Y-52599396D01*
X55647586Y-52453566D01*
X55617046Y-52400668D01*
X55477354Y-52218619D01*
X55315096Y-52056361D01*
X55251577Y-52007621D01*
X55133046Y-51916668D01*
X54934318Y-51801933D01*
X54722320Y-51714121D01*
X54500673Y-51654732D01*
X54273169Y-51624780D01*
X54043701Y-51624780D01*
X54043700Y-51624780D01*
X53816196Y-51654732D01*
X53594549Y-51714121D01*
X53382551Y-51801933D01*
X53183823Y-51916668D01*
X53001777Y-52056358D01*
X52839513Y-52218622D01*
X52699823Y-52400668D01*
X52585088Y-52599396D01*
X52574399Y-52625204D01*
X52534662Y-52671730D01*
X52475167Y-52686013D01*
X52418639Y-52662598D01*
X52386670Y-52610429D01*
X52383935Y-52587318D01*
X52383935Y-52376114D01*
X52402842Y-52317923D01*
X52412931Y-52306110D01*
X53954890Y-50764151D01*
X54009407Y-50736374D01*
X54024894Y-50735155D01*
X55015682Y-50735155D01*
X55015683Y-50735155D01*
X55074166Y-50723522D01*
X55140487Y-50679207D01*
X55184802Y-50612886D01*
X55196435Y-50554403D01*
X55196435Y-49614907D01*
X55184802Y-49556424D01*
X55140487Y-49490103D01*
X55111618Y-49470813D01*
X55074168Y-49445789D01*
X55074166Y-49445788D01*
X55074163Y-49445787D01*
X55074162Y-49445787D01*
X55015693Y-49434156D01*
X55015683Y-49434155D01*
X53776187Y-49434155D01*
X53776186Y-49434155D01*
X53776176Y-49434156D01*
X53717707Y-49445787D01*
X53717701Y-49445789D01*
X53651386Y-49490100D01*
X53651380Y-49490106D01*
X53607069Y-49556421D01*
X53607067Y-49556427D01*
X53595436Y-49614896D01*
X53595435Y-49614908D01*
X53595435Y-50161945D01*
X53576528Y-50220136D01*
X53566439Y-50231949D01*
X51952604Y-51845784D01*
X51898087Y-51873561D01*
X51882600Y-51874780D01*
X51095208Y-51874780D01*
X51037017Y-51855873D01*
X51001053Y-51806373D01*
X51001053Y-51745187D01*
X51037017Y-51695687D01*
X51218461Y-51563859D01*
X50216172Y-50561570D01*
X50350037Y-50464313D01*
X50472468Y-50341882D01*
X50569725Y-50208016D01*
X51569148Y-51207439D01*
X51659976Y-51097648D01*
X51828525Y-50832058D01*
X51828532Y-50832045D01*
X51962469Y-50547417D01*
X52059679Y-50248235D01*
X52059682Y-50248225D01*
X52118625Y-49939238D01*
X52138377Y-49625280D01*
X52118625Y-49311321D01*
X52059682Y-49002334D01*
X52059679Y-49002324D01*
X51962469Y-48703142D01*
X51828532Y-48418514D01*
X51828525Y-48418501D01*
X51659976Y-48152911D01*
X51569148Y-48043119D01*
X50569725Y-49042541D01*
X50472468Y-48908678D01*
X50350037Y-48786247D01*
X50216170Y-48688988D01*
X51218460Y-47686699D01*
X50975640Y-47510279D01*
X50699989Y-47358740D01*
X50699986Y-47358738D01*
X50407505Y-47242938D01*
X50102810Y-47164705D01*
X49790722Y-47125280D01*
X49476148Y-47125280D01*
X49164059Y-47164705D01*
X48859364Y-47242938D01*
X48566883Y-47358738D01*
X48566880Y-47358740D01*
X48291233Y-47510277D01*
X48291214Y-47510289D01*
X48048407Y-47686698D01*
X49050698Y-48688989D01*
X48916833Y-48786247D01*
X48794402Y-48908678D01*
X48697144Y-49042543D01*
X47697720Y-48043119D01*
X47606893Y-48152911D01*
X47438338Y-48418513D01*
X47438337Y-48418514D01*
X47304400Y-48703142D01*
X47207190Y-49002324D01*
X47207187Y-49002334D01*
X47148244Y-49311321D01*
X47128492Y-49625280D01*
X42858935Y-49625280D01*
X42858935Y-49470815D01*
X42824346Y-49163828D01*
X42755603Y-48862644D01*
X42653570Y-48571051D01*
X42519530Y-48292715D01*
X42355170Y-48031137D01*
X42162555Y-47789606D01*
X41944109Y-47571160D01*
X41702578Y-47378545D01*
X41441001Y-47214185D01*
X41162660Y-47080143D01*
X40871072Y-46978112D01*
X40569885Y-46909368D01*
X40262901Y-46874780D01*
X40262900Y-46874780D01*
X39953970Y-46874780D01*
X39953968Y-46874780D01*
X39646984Y-46909368D01*
X39345797Y-46978112D01*
X39054209Y-47080143D01*
X38775868Y-47214185D01*
X38514291Y-47378545D01*
X38272762Y-47571159D01*
X38054314Y-47789607D01*
X37861700Y-48031136D01*
X37697340Y-48292713D01*
X37563298Y-48571054D01*
X37461267Y-48862642D01*
X37392523Y-49163829D01*
X37357935Y-49470813D01*
X36061618Y-49470813D01*
X36024168Y-49445789D01*
X36024166Y-49445788D01*
X36024163Y-49445787D01*
X36024162Y-49445787D01*
X35965693Y-49434156D01*
X35965683Y-49434155D01*
X35965682Y-49434155D01*
X35095770Y-49434155D01*
X35037579Y-49415248D01*
X35001615Y-49365748D01*
X35001615Y-49304562D01*
X35025766Y-49265151D01*
X38017391Y-46273526D01*
X38071908Y-46245749D01*
X38087395Y-46244530D01*
X52607600Y-46244530D01*
X52665791Y-46263437D01*
X52677604Y-46273526D01*
X53414823Y-47010745D01*
X53414825Y-47010746D01*
X53414826Y-47010747D01*
X53414827Y-47010748D01*
X53489042Y-47053596D01*
X53489043Y-47053597D01*
X53489045Y-47053597D01*
X53489046Y-47053598D01*
X53522058Y-47062443D01*
X53573371Y-47095764D01*
X53595299Y-47152885D01*
X53595435Y-47158069D01*
X53595435Y-47254401D01*
X53595436Y-47254413D01*
X53607067Y-47312882D01*
X53607069Y-47312888D01*
X53651380Y-47379203D01*
X53651383Y-47379207D01*
X53717704Y-47423522D01*
X53762166Y-47432366D01*
X53776176Y-47435153D01*
X53776181Y-47435153D01*
X53776187Y-47435155D01*
X53776188Y-47435155D01*
X55015682Y-47435155D01*
X55015683Y-47435155D01*
X55074166Y-47423522D01*
X55140487Y-47379207D01*
X55184802Y-47312886D01*
X55196435Y-47254403D01*
X55196435Y-46314907D01*
X55184802Y-46256424D01*
X55140487Y-46190103D01*
X55137898Y-46188373D01*
X55074168Y-46145789D01*
X55074166Y-46145788D01*
X55074163Y-46145787D01*
X55074162Y-46145787D01*
X55015693Y-46134156D01*
X55015683Y-46134155D01*
X53776187Y-46134155D01*
X53776186Y-46134155D01*
X53776176Y-46134156D01*
X53717707Y-46145787D01*
X53717701Y-46145789D01*
X53643276Y-46195520D01*
X53642212Y-46193928D01*
X53598587Y-46216152D01*
X53538155Y-46206574D01*
X53513105Y-46188373D01*
X53263909Y-45939177D01*
X52983297Y-45658565D01*
X52983294Y-45658563D01*
X52983293Y-45658562D01*
X52983292Y-45658561D01*
X52909077Y-45615713D01*
X52909079Y-45615713D01*
X52876956Y-45607106D01*
X52826288Y-45593530D01*
X45650833Y-45593530D01*
X45592642Y-45574623D01*
X45556678Y-45525123D01*
X45556678Y-45463937D01*
X45592642Y-45414437D01*
X45604165Y-45407220D01*
X45606028Y-45406224D01*
X45606031Y-45406221D01*
X45606033Y-45406221D01*
X45778090Y-45291257D01*
X45924412Y-45144935D01*
X46039376Y-44972878D01*
X46118565Y-44781700D01*
X46158935Y-44578745D01*
X46158935Y-44371815D01*
X46158934Y-44371812D01*
X53107935Y-44371812D01*
X53107935Y-44578747D01*
X53148304Y-44781698D01*
X53227493Y-44972877D01*
X53227494Y-44972878D01*
X53342458Y-45144935D01*
X53488780Y-45291257D01*
X53660837Y-45406221D01*
X53852015Y-45485410D01*
X54054970Y-45525780D01*
X54054971Y-45525780D01*
X54261899Y-45525780D01*
X54261900Y-45525780D01*
X54464855Y-45485410D01*
X54656033Y-45406221D01*
X54828090Y-45291257D01*
X54974412Y-45144935D01*
X55089376Y-44972878D01*
X55168565Y-44781700D01*
X55208935Y-44578745D01*
X55208935Y-44371815D01*
X55168565Y-44168860D01*
X55089376Y-43977682D01*
X54974412Y-43805625D01*
X54828090Y-43659303D01*
X54800919Y-43641148D01*
X54656032Y-43544338D01*
X54464853Y-43465149D01*
X54261902Y-43424780D01*
X54261900Y-43424780D01*
X54054970Y-43424780D01*
X54054967Y-43424780D01*
X53852016Y-43465149D01*
X53660837Y-43544338D01*
X53488783Y-43659300D01*
X53342455Y-43805628D01*
X53227493Y-43977682D01*
X53148304Y-44168861D01*
X53107935Y-44371812D01*
X46158934Y-44371812D01*
X46118565Y-44168860D01*
X46039376Y-43977682D01*
X45924412Y-43805625D01*
X45778090Y-43659303D01*
X45750919Y-43641148D01*
X45606032Y-43544338D01*
X45414853Y-43465149D01*
X45211902Y-43424780D01*
X45211900Y-43424780D01*
X45004970Y-43424780D01*
X45004967Y-43424780D01*
X44802016Y-43465149D01*
X44610837Y-43544338D01*
X44438783Y-43659300D01*
X44292455Y-43805628D01*
X44177493Y-43977682D01*
X44098304Y-44168861D01*
X44057935Y-44371812D01*
X44057935Y-44578747D01*
X44098304Y-44781698D01*
X44177493Y-44972877D01*
X44177494Y-44972878D01*
X44292458Y-45144935D01*
X44438780Y-45291257D01*
X44438783Y-45291259D01*
X44610841Y-45406224D01*
X44612705Y-45407220D01*
X44613374Y-45407916D01*
X44614881Y-45408923D01*
X44614660Y-45409253D01*
X44655112Y-45451326D01*
X44663495Y-45511934D01*
X44634653Y-45565895D01*
X44579601Y-45592596D01*
X44566037Y-45593530D01*
X37954413Y-45593530D01*
X37868707Y-45593530D01*
X37818038Y-45607106D01*
X37785916Y-45615713D01*
X37711702Y-45658561D01*
X36315439Y-47054824D01*
X36260922Y-47082601D01*
X36200490Y-47073030D01*
X36157225Y-47029765D01*
X36146435Y-46984820D01*
X36146435Y-46314908D01*
X36146433Y-46314896D01*
X36139101Y-46278036D01*
X36134802Y-46256424D01*
X36090487Y-46190103D01*
X36087898Y-46188373D01*
X36024168Y-46145789D01*
X36024166Y-46145788D01*
X36024163Y-46145787D01*
X36024162Y-46145787D01*
X35965693Y-46134156D01*
X35965683Y-46134155D01*
X34726187Y-46134155D01*
X34726186Y-46134155D01*
X34726176Y-46134156D01*
X34667707Y-46145787D01*
X34667701Y-46145789D01*
X34601386Y-46190100D01*
X34601380Y-46190106D01*
X34557069Y-46256421D01*
X34557067Y-46256427D01*
X34545436Y-46314896D01*
X34545435Y-46314908D01*
X34545435Y-46360155D01*
X34526528Y-46418346D01*
X34477028Y-46454310D01*
X34446435Y-46459155D01*
X32681144Y-46459155D01*
X32622953Y-46440248D01*
X32611140Y-46430159D01*
X31682116Y-45501134D01*
X31654339Y-45446617D01*
X31663498Y-45387002D01*
X31707664Y-45298308D01*
X31768550Y-45084316D01*
X31789078Y-44862780D01*
X31768550Y-44641244D01*
X31707664Y-44427252D01*
X31680058Y-44371812D01*
X34057935Y-44371812D01*
X34057935Y-44578747D01*
X34098304Y-44781698D01*
X34177493Y-44972877D01*
X34177494Y-44972878D01*
X34292458Y-45144935D01*
X34438780Y-45291257D01*
X34610837Y-45406221D01*
X34802015Y-45485410D01*
X35004970Y-45525780D01*
X35004971Y-45525780D01*
X35211899Y-45525780D01*
X35211900Y-45525780D01*
X35414855Y-45485410D01*
X35606033Y-45406221D01*
X35778090Y-45291257D01*
X35924412Y-45144935D01*
X36039376Y-44972878D01*
X36118565Y-44781700D01*
X36158935Y-44578745D01*
X36158935Y-44371815D01*
X36118565Y-44168860D01*
X36039376Y-43977682D01*
X35924412Y-43805625D01*
X35778090Y-43659303D01*
X35750919Y-43641148D01*
X35606032Y-43544338D01*
X35414853Y-43465149D01*
X35211902Y-43424780D01*
X35211900Y-43424780D01*
X35004970Y-43424780D01*
X35004967Y-43424780D01*
X34802016Y-43465149D01*
X34610837Y-43544338D01*
X34438783Y-43659300D01*
X34292455Y-43805628D01*
X34177493Y-43977682D01*
X34098304Y-44168861D01*
X34057935Y-44371812D01*
X31680058Y-44371812D01*
X31608493Y-44228091D01*
X31474416Y-44050544D01*
X31309997Y-43900656D01*
X31120836Y-43783533D01*
X30913375Y-43703162D01*
X30913374Y-43703161D01*
X30913372Y-43703161D01*
X30694678Y-43662280D01*
X30472192Y-43662280D01*
X30253497Y-43703161D01*
X30177232Y-43732706D01*
X30046034Y-43783533D01*
X29856873Y-43900656D01*
X29692455Y-44050543D01*
X29558378Y-44228089D01*
X29558373Y-44228098D01*
X29486810Y-44371816D01*
X29459206Y-44427252D01*
X29398320Y-44641244D01*
X29377792Y-44862780D01*
X29398320Y-45084316D01*
X29459206Y-45298308D01*
X29558377Y-45497469D01*
X29692454Y-45675016D01*
X29856873Y-45824904D01*
X30046034Y-45942027D01*
X30253495Y-46022398D01*
X30472192Y-46063280D01*
X30694678Y-46063280D01*
X30913375Y-46022398D01*
X31119442Y-45942566D01*
X31180531Y-45939177D01*
X31225207Y-45964878D01*
X32244843Y-46984514D01*
X32244845Y-46984517D01*
X32305448Y-47045120D01*
X32342557Y-47066544D01*
X32342559Y-47066546D01*
X32366113Y-47080145D01*
X32379671Y-47087973D01*
X32462457Y-47110156D01*
X32462459Y-47110156D01*
X32554226Y-47110156D01*
X32554242Y-47110155D01*
X34446435Y-47110155D01*
X34504626Y-47129062D01*
X34540590Y-47178562D01*
X34545435Y-47209155D01*
X34545435Y-47254401D01*
X34545436Y-47254413D01*
X34557067Y-47312882D01*
X34557069Y-47312888D01*
X34601380Y-47379203D01*
X34601383Y-47379207D01*
X34667704Y-47423522D01*
X34712166Y-47432366D01*
X34726176Y-47435153D01*
X34726181Y-47435153D01*
X34726187Y-47435155D01*
X35696100Y-47435155D01*
X35754291Y-47454062D01*
X35790255Y-47503562D01*
X35790255Y-47564748D01*
X35766104Y-47604159D01*
X34099479Y-49270784D01*
X34044962Y-49298561D01*
X34029475Y-49299780D01*
X31813731Y-49299780D01*
X31755540Y-49280873D01*
X31719576Y-49231373D01*
X31718510Y-49227873D01*
X31707664Y-49189752D01*
X31608493Y-48990591D01*
X31474416Y-48813044D01*
X31309997Y-48663156D01*
X31120836Y-48546033D01*
X30913375Y-48465662D01*
X30913374Y-48465661D01*
X30913372Y-48465661D01*
X30694678Y-48424780D01*
X30472192Y-48424780D01*
X30253497Y-48465661D01*
X30177232Y-48495206D01*
X30046034Y-48546033D01*
X29856873Y-48663156D01*
X29692455Y-48813043D01*
X29558378Y-48990589D01*
X29558373Y-48990598D01*
X29472114Y-49163829D01*
X29459206Y-49189752D01*
X29398320Y-49403744D01*
X29377792Y-49625280D01*
X29398320Y-49846816D01*
X29459206Y-50060808D01*
X29558377Y-50259969D01*
X29692454Y-50437516D01*
X29856873Y-50587404D01*
X30046034Y-50704527D01*
X30253495Y-50784898D01*
X30472192Y-50825780D01*
X30694678Y-50825780D01*
X30913375Y-50784898D01*
X31120836Y-50704527D01*
X31309997Y-50587404D01*
X31474416Y-50437516D01*
X31608493Y-50259969D01*
X31707664Y-50060808D01*
X31718510Y-50022685D01*
X31752621Y-49971892D01*
X31810073Y-49950848D01*
X31813731Y-49950780D01*
X34248161Y-49950780D01*
X34248163Y-49950780D01*
X34330949Y-49928598D01*
X34396934Y-49890500D01*
X34456782Y-49877779D01*
X34512678Y-49902665D01*
X34543271Y-49955653D01*
X34545435Y-49976237D01*
X34545435Y-50383820D01*
X34526528Y-50442011D01*
X34516439Y-50453824D01*
X33124479Y-51845784D01*
X33069962Y-51873561D01*
X33054475Y-51874780D01*
X30513687Y-51874780D01*
X30513686Y-51874780D01*
X30513676Y-51874781D01*
X30455207Y-51886412D01*
X30455201Y-51886414D01*
X30388886Y-51930725D01*
X30388880Y-51930731D01*
X30344569Y-51997046D01*
X30344567Y-51997052D01*
X30332936Y-52055521D01*
X30332935Y-52055533D01*
X30332935Y-54305395D01*
X30314028Y-54363586D01*
X30264528Y-54399550D01*
X30203342Y-54399550D01*
X30175745Y-54385488D01*
X29947242Y-54219472D01*
X29947235Y-54219467D01*
X29947230Y-54219464D01*
X29682539Y-54073948D01*
X29682537Y-54073947D01*
X29682535Y-54073946D01*
X29401697Y-53962755D01*
X29109133Y-53887638D01*
X29109126Y-53887637D01*
X29109130Y-53887637D01*
X28809463Y-53849780D01*
X28809462Y-53849780D01*
X28507408Y-53849780D01*
X28507407Y-53849780D01*
X28207741Y-53887637D01*
X27915172Y-53962755D01*
X27634334Y-54073946D01*
X27369648Y-54219459D01*
X27369627Y-54219472D01*
X27125275Y-54397003D01*
X27125272Y-54397005D01*
X26905090Y-54603771D01*
X26905080Y-54603782D01*
X26712549Y-54836512D01*
X26550709Y-55091530D01*
X26550702Y-55091543D01*
X26422093Y-55364850D01*
X26414589Y-55387946D01*
X26378625Y-55437446D01*
X26320434Y-55456353D01*
X26262244Y-55437445D01*
X26226280Y-55387945D01*
X26221435Y-55357353D01*
X26221435Y-42783655D01*
X26221529Y-42779337D01*
X26225818Y-42681096D01*
X26238797Y-42383829D01*
X26239547Y-42375253D01*
X26290939Y-41984896D01*
X26292438Y-41976400D01*
X26321161Y-41846841D01*
X26377649Y-41592033D01*
X26379883Y-41583698D01*
X26395013Y-41535714D01*
X26498275Y-41208207D01*
X26501227Y-41200099D01*
X26651889Y-40836366D01*
X26655531Y-40828554D01*
X26837332Y-40479318D01*
X26841639Y-40471857D01*
X27053194Y-40139781D01*
X27058133Y-40132730D01*
X27297810Y-39820376D01*
X27303348Y-39813775D01*
X27569355Y-39523479D01*
X27575437Y-39517398D01*
X27865719Y-39251403D01*
X27872310Y-39245872D01*
X28184676Y-39006184D01*
X28191727Y-39001246D01*
X28328518Y-38914101D01*
X28387754Y-38898783D01*
X28444682Y-38921207D01*
X28477557Y-38972810D01*
X28473821Y-39033882D01*
X28457991Y-39060703D01*
X28312549Y-39236512D01*
X28150709Y-39491530D01*
X28150702Y-39491543D01*
X28022096Y-39764843D01*
X28005165Y-39816952D01*
X27939517Y-40018997D01*
X27928755Y-40052118D01*
X27928752Y-40052128D01*
X27872155Y-40348817D01*
X27853189Y-40650280D01*
X27872155Y-40951742D01*
X27919532Y-41200099D01*
X27928754Y-41248440D01*
X28022094Y-41535710D01*
X28022096Y-41535716D01*
X28150702Y-41809016D01*
X28150709Y-41809029D01*
X28312549Y-42064047D01*
X28505080Y-42296777D01*
X28505090Y-42296788D01*
X28725272Y-42503554D01*
X28725275Y-42503556D01*
X28969627Y-42681087D01*
X28969631Y-42681089D01*
X28969640Y-42681096D01*
X29234331Y-42826612D01*
X29515173Y-42937805D01*
X29807737Y-43012922D01*
X30007517Y-43038160D01*
X30107407Y-43050780D01*
X30107408Y-43050780D01*
X30409463Y-43050780D01*
X30459407Y-43044470D01*
X30709133Y-43012922D01*
X31001697Y-42937805D01*
X31282539Y-42826612D01*
X31547230Y-42681096D01*
X31641981Y-42612254D01*
X31700168Y-42593348D01*
X31758359Y-42612255D01*
X31770173Y-42622344D01*
X31829218Y-42681389D01*
X31829220Y-42681392D01*
X31889823Y-42741995D01*
X31889825Y-42741996D01*
X31958220Y-42781485D01*
X31958229Y-42781488D01*
X31958231Y-42781490D01*
X31964047Y-42784848D01*
X32046833Y-42807031D01*
X32046835Y-42807031D01*
X32138601Y-42807031D01*
X32138617Y-42807030D01*
X48403139Y-42807030D01*
X48461330Y-42825937D01*
X48497294Y-42875437D01*
X48498352Y-42878913D01*
X48509206Y-42917058D01*
X48608377Y-43116219D01*
X48742454Y-43293766D01*
X48906873Y-43443654D01*
X49096034Y-43560777D01*
X49303495Y-43641148D01*
X49522192Y-43682030D01*
X49744678Y-43682030D01*
X49963375Y-43641148D01*
X50170836Y-43560777D01*
X50359997Y-43443654D01*
X50524416Y-43293766D01*
X50658493Y-43116219D01*
X50757664Y-42917058D01*
X50768510Y-42878935D01*
X50802621Y-42828142D01*
X50860073Y-42807098D01*
X50863731Y-42807030D01*
X55904714Y-42807030D01*
X55962905Y-42825937D01*
X55974718Y-42836026D01*
X59931702Y-46793010D01*
X59959479Y-46847527D01*
X59949908Y-46907959D01*
X59906643Y-46951224D01*
X59846211Y-46960795D01*
X59839669Y-46959532D01*
X59619885Y-46909368D01*
X59312901Y-46874780D01*
X59312900Y-46874780D01*
X59003970Y-46874780D01*
X59003968Y-46874780D01*
X58696984Y-46909368D01*
X58395797Y-46978112D01*
X58104209Y-47080143D01*
X57825868Y-47214185D01*
X57564291Y-47378545D01*
X57322762Y-47571159D01*
X57104314Y-47789607D01*
X56911700Y-48031136D01*
X56747340Y-48292713D01*
X56613298Y-48571054D01*
X56511267Y-48862642D01*
X56442523Y-49163829D01*
X56407935Y-49470813D01*
X56407935Y-49779746D01*
X56442523Y-50086730D01*
X56511267Y-50387917D01*
X56613298Y-50679505D01*
X56747340Y-50957846D01*
X56835184Y-51097648D01*
X56911700Y-51219423D01*
X57104315Y-51460954D01*
X57322761Y-51679400D01*
X57564292Y-51872015D01*
X57657738Y-51930731D01*
X57808210Y-52025279D01*
X57825870Y-52036375D01*
X58104206Y-52170415D01*
X58395799Y-52272448D01*
X58696983Y-52341191D01*
X59003970Y-52375780D01*
X59003971Y-52375780D01*
X59312899Y-52375780D01*
X59312900Y-52375780D01*
X59619887Y-52341191D01*
X59921071Y-52272448D01*
X60212664Y-52170415D01*
X60491000Y-52036375D01*
X60752578Y-51872015D01*
X60994109Y-51679400D01*
X61212555Y-51460954D01*
X61405170Y-51219423D01*
X61525110Y-51028539D01*
X61572078Y-50989328D01*
X61633124Y-50985212D01*
X61684932Y-51017764D01*
X61707711Y-51074551D01*
X61707935Y-51081211D01*
X61707935Y-53905780D01*
X61689028Y-53963971D01*
X61639528Y-53999935D01*
X61608935Y-54004780D01*
X61133434Y-54004780D01*
X61054792Y-54020423D01*
X61008834Y-54039459D01*
X60950538Y-54076089D01*
X60897615Y-54150677D01*
X60878578Y-54196640D01*
X60862935Y-54275279D01*
X60862935Y-54657087D01*
X60844028Y-54715278D01*
X60794528Y-54751242D01*
X60733342Y-54751242D01*
X60683842Y-54715278D01*
X60678198Y-54706587D01*
X60671530Y-54695038D01*
X60617046Y-54600668D01*
X60477354Y-54418619D01*
X60315096Y-54256361D01*
X60237265Y-54196639D01*
X60133046Y-54116668D01*
X59934318Y-54001933D01*
X59722320Y-53914121D01*
X59500673Y-53854732D01*
X59273169Y-53824780D01*
X59043701Y-53824780D01*
X59043700Y-53824780D01*
X58816196Y-53854732D01*
X58594549Y-53914121D01*
X58382551Y-54001933D01*
X58183823Y-54116668D01*
X58001777Y-54256358D01*
X57839513Y-54418622D01*
X57699823Y-54600668D01*
X57585088Y-54799396D01*
X57497276Y-55011394D01*
X57437887Y-55233041D01*
X57407935Y-55460545D01*
X57407935Y-55690015D01*
X57434204Y-55889547D01*
X57423054Y-55949708D01*
X57378672Y-55991825D01*
X57318010Y-55999811D01*
X57310429Y-55998096D01*
X57308649Y-55997619D01*
X57293388Y-55993530D01*
X57293387Y-55993530D01*
X45052935Y-55993530D01*
X44994744Y-55974623D01*
X44958780Y-55925123D01*
X44953935Y-55894530D01*
X44953935Y-55224780D01*
X44972842Y-55166589D01*
X45022342Y-55130625D01*
X45052935Y-55125780D01*
X45223168Y-55125780D01*
X45223169Y-55125780D01*
X45450673Y-55095828D01*
X45672322Y-55036438D01*
X45884323Y-54948624D01*
X46083047Y-54833891D01*
X46265096Y-54694199D01*
X46427354Y-54531941D01*
X46567046Y-54349892D01*
X46681779Y-54151168D01*
X46769593Y-53939167D01*
X46828983Y-53717518D01*
X46858935Y-53490014D01*
X46858935Y-53260546D01*
X46828983Y-53033042D01*
X46769593Y-52811393D01*
X46717471Y-52685560D01*
X46681781Y-52599396D01*
X46597586Y-52453566D01*
X46567046Y-52400668D01*
X46427354Y-52218619D01*
X46265096Y-52056361D01*
X46201577Y-52007621D01*
X46083046Y-51916668D01*
X45884318Y-51801933D01*
X45672320Y-51714121D01*
X45450673Y-51654732D01*
X45223169Y-51624780D01*
X44993701Y-51624780D01*
X44993700Y-51624780D01*
X44766196Y-51654732D01*
X44544549Y-51714121D01*
X44332551Y-51801933D01*
X44133823Y-51916668D01*
X43951777Y-52056358D01*
X43789513Y-52218622D01*
X43649823Y-52400668D01*
X43535088Y-52599396D01*
X43447276Y-52811394D01*
X43387887Y-53033041D01*
X43387887Y-53033042D01*
X43357935Y-53260546D01*
X43357935Y-53490014D01*
X43387887Y-53717518D01*
X43431465Y-53880158D01*
X43428263Y-53941258D01*
X43389758Y-53988808D01*
X43335839Y-54004780D01*
X42083434Y-54004780D01*
X42004792Y-54020423D01*
X41958834Y-54039459D01*
X41900538Y-54076089D01*
X41847615Y-54150677D01*
X41828578Y-54196640D01*
X41812935Y-54275279D01*
X41812935Y-54657087D01*
X41794028Y-54715278D01*
X41744528Y-54751242D01*
X41683342Y-54751242D01*
X41633842Y-54715278D01*
X41628198Y-54706587D01*
X41621530Y-54695038D01*
X41567046Y-54600668D01*
X41427354Y-54418619D01*
X41265096Y-54256361D01*
X41187265Y-54196639D01*
X41083046Y-54116668D01*
X40884318Y-54001933D01*
X40672320Y-53914121D01*
X40450673Y-53854732D01*
X40223169Y-53824780D01*
X39993701Y-53824780D01*
X39993700Y-53824780D01*
X39766196Y-53854732D01*
X39544549Y-53914121D01*
X39332551Y-54001933D01*
X39133823Y-54116668D01*
X38951777Y-54256358D01*
X38789513Y-54418622D01*
X38649823Y-54600668D01*
X38535088Y-54799396D01*
X38447276Y-55011394D01*
X38387887Y-55233041D01*
X38357935Y-55460545D01*
X38357935Y-55690014D01*
X38387887Y-55917518D01*
X38447276Y-56139165D01*
X38535088Y-56351163D01*
X38649823Y-56549891D01*
X38667519Y-56572953D01*
X38789516Y-56731941D01*
X38951774Y-56894199D01*
X39133823Y-57033891D01*
X39332547Y-57148624D01*
X39332548Y-57148624D01*
X39332551Y-57148626D01*
X39393665Y-57173940D01*
X39544548Y-57236438D01*
X39766197Y-57295828D01*
X39993701Y-57325780D01*
X39993702Y-57325780D01*
X40223168Y-57325780D01*
X40223169Y-57325780D01*
X40450673Y-57295828D01*
X40672322Y-57236438D01*
X40884323Y-57148624D01*
X41083047Y-57033891D01*
X41265096Y-56894199D01*
X41427354Y-56731941D01*
X41567046Y-56549892D01*
X41628199Y-56443970D01*
X41673668Y-56403031D01*
X41734518Y-56396635D01*
X41787506Y-56427228D01*
X41812393Y-56483123D01*
X41812935Y-56493472D01*
X41812935Y-56875280D01*
X41828578Y-56953922D01*
X41847614Y-56999880D01*
X41847616Y-56999883D01*
X41884244Y-57058176D01*
X41958832Y-57111099D01*
X42004794Y-57130137D01*
X42083435Y-57145780D01*
X42083436Y-57145780D01*
X44683434Y-57145780D01*
X44683435Y-57145780D01*
X44762076Y-57130137D01*
X44808038Y-57111099D01*
X44866331Y-57074471D01*
X44919254Y-56999883D01*
X44938292Y-56953921D01*
X44953935Y-56875280D01*
X44953935Y-56743530D01*
X44972842Y-56685339D01*
X45022342Y-56649375D01*
X45052935Y-56644530D01*
X57074700Y-56644530D01*
X57132891Y-56663437D01*
X57144704Y-56673526D01*
X58181923Y-57710745D01*
X58181925Y-57710746D01*
X58181926Y-57710747D01*
X58181927Y-57710748D01*
X58256142Y-57753596D01*
X58256140Y-57753596D01*
X58256144Y-57753597D01*
X58256146Y-57753598D01*
X58338932Y-57775780D01*
X58338934Y-57775780D01*
X60488786Y-57775780D01*
X60488788Y-57775780D01*
X60571574Y-57753598D01*
X60571576Y-57753596D01*
X60571578Y-57753596D01*
X60645792Y-57710748D01*
X60645792Y-57710747D01*
X60645797Y-57710745D01*
X61181766Y-57174776D01*
X61236283Y-57146999D01*
X61251770Y-57145780D01*
X63733434Y-57145780D01*
X63733435Y-57145780D01*
X63812076Y-57130137D01*
X63858038Y-57111099D01*
X63916331Y-57074471D01*
X63969254Y-56999883D01*
X63988292Y-56953921D01*
X64003935Y-56875280D01*
X64003935Y-55224780D01*
X64022842Y-55166589D01*
X64072342Y-55130625D01*
X64102935Y-55125780D01*
X64273168Y-55125780D01*
X64273169Y-55125780D01*
X64500673Y-55095828D01*
X64722322Y-55036438D01*
X64934323Y-54948624D01*
X65133047Y-54833891D01*
X65144270Y-54825279D01*
X66752753Y-54825279D01*
X66752753Y-54825280D01*
X66773390Y-54982038D01*
X66773392Y-54982046D01*
X66833897Y-55128118D01*
X66833897Y-55128119D01*
X66914407Y-55233042D01*
X66930153Y-55253562D01*
X67055594Y-55349816D01*
X67201673Y-55410324D01*
X67319244Y-55425802D01*
X67358434Y-55430962D01*
X67358435Y-55430962D01*
X67358436Y-55430962D01*
X67389787Y-55426834D01*
X67515197Y-55410324D01*
X67661276Y-55349816D01*
X67786717Y-55253562D01*
X67882971Y-55128121D01*
X67943479Y-54982042D01*
X67964117Y-54825280D01*
X67943479Y-54668518D01*
X67938744Y-54657087D01*
X67882972Y-54522441D01*
X67882972Y-54522440D01*
X67786721Y-54397003D01*
X67786720Y-54397002D01*
X67786717Y-54396998D01*
X67786712Y-54396994D01*
X67786711Y-54396993D01*
X67661273Y-54300742D01*
X67515201Y-54240237D01*
X67515193Y-54240235D01*
X67358436Y-54219598D01*
X67358434Y-54219598D01*
X67201676Y-54240235D01*
X67201668Y-54240237D01*
X67055596Y-54300742D01*
X67055595Y-54300742D01*
X66930158Y-54396993D01*
X66930148Y-54397003D01*
X66833897Y-54522440D01*
X66833897Y-54522441D01*
X66773392Y-54668513D01*
X66773390Y-54668521D01*
X66752753Y-54825279D01*
X65144270Y-54825279D01*
X65315096Y-54694199D01*
X65477354Y-54531941D01*
X65617046Y-54349892D01*
X65731779Y-54151168D01*
X65819593Y-53939167D01*
X65878983Y-53717518D01*
X65908935Y-53490014D01*
X65908935Y-53260546D01*
X65878983Y-53033042D01*
X65819593Y-52811393D01*
X65767471Y-52685560D01*
X65731781Y-52599396D01*
X65647586Y-52453566D01*
X65617046Y-52400668D01*
X65477354Y-52218619D01*
X65315096Y-52056361D01*
X65274589Y-52025279D01*
X66752753Y-52025279D01*
X66752753Y-52025280D01*
X66773390Y-52182038D01*
X66773392Y-52182046D01*
X66833897Y-52328118D01*
X66833897Y-52328119D01*
X66870725Y-52376114D01*
X66930153Y-52453562D01*
X67055594Y-52549816D01*
X67055595Y-52549816D01*
X67055596Y-52549817D01*
X67201668Y-52610322D01*
X67201673Y-52610324D01*
X67319244Y-52625802D01*
X67358434Y-52630962D01*
X67358435Y-52630962D01*
X67358436Y-52630962D01*
X67389787Y-52626834D01*
X67515197Y-52610324D01*
X67661276Y-52549816D01*
X67786717Y-52453562D01*
X67882971Y-52328121D01*
X67943479Y-52182042D01*
X67964117Y-52025280D01*
X67943479Y-51868518D01*
X67882972Y-51722441D01*
X67882972Y-51722440D01*
X67786721Y-51597003D01*
X67786720Y-51597002D01*
X67786717Y-51596998D01*
X67786712Y-51596994D01*
X67786711Y-51596993D01*
X67661273Y-51500742D01*
X67515201Y-51440237D01*
X67515193Y-51440235D01*
X67358436Y-51419598D01*
X67358434Y-51419598D01*
X67201676Y-51440235D01*
X67201668Y-51440237D01*
X67055596Y-51500742D01*
X67055595Y-51500742D01*
X66930158Y-51596993D01*
X66930148Y-51597003D01*
X66833897Y-51722440D01*
X66833897Y-51722441D01*
X66773392Y-51868513D01*
X66773390Y-51868521D01*
X66752753Y-52025279D01*
X65274589Y-52025279D01*
X65251577Y-52007621D01*
X65133046Y-51916668D01*
X64934318Y-51801933D01*
X64722320Y-51714121D01*
X64500673Y-51654732D01*
X64273169Y-51624780D01*
X64043701Y-51624780D01*
X64043700Y-51624780D01*
X63816196Y-51654732D01*
X63594549Y-51714121D01*
X63382551Y-51801933D01*
X63183823Y-51916668D01*
X63001777Y-52056358D01*
X62839513Y-52218622D01*
X62699823Y-52400668D01*
X62585088Y-52599396D01*
X62549399Y-52685560D01*
X62509662Y-52732085D01*
X62450168Y-52746369D01*
X62393640Y-52722954D01*
X62361670Y-52670785D01*
X62358935Y-52647674D01*
X62358935Y-48391564D01*
X62358935Y-48391563D01*
X62336753Y-48308778D01*
X62336753Y-48308777D01*
X62336753Y-48308776D01*
X62293903Y-48234558D01*
X62293901Y-48234556D01*
X62293900Y-48234554D01*
X58431158Y-44371812D01*
X63107935Y-44371812D01*
X63107935Y-44578747D01*
X63148304Y-44781698D01*
X63227493Y-44972877D01*
X63227494Y-44972878D01*
X63342458Y-45144935D01*
X63488780Y-45291257D01*
X63660837Y-45406221D01*
X63852015Y-45485410D01*
X64054970Y-45525780D01*
X64054971Y-45525780D01*
X64261899Y-45525780D01*
X64261900Y-45525780D01*
X64464855Y-45485410D01*
X64656033Y-45406221D01*
X64828090Y-45291257D01*
X64974412Y-45144935D01*
X65089376Y-44972878D01*
X65168565Y-44781700D01*
X65208935Y-44578745D01*
X65208935Y-44371815D01*
X65168565Y-44168860D01*
X65089376Y-43977682D01*
X64974412Y-43805625D01*
X64828090Y-43659303D01*
X64800919Y-43641148D01*
X64656032Y-43544338D01*
X64464853Y-43465149D01*
X64261902Y-43424780D01*
X64261900Y-43424780D01*
X64054970Y-43424780D01*
X64054967Y-43424780D01*
X63852016Y-43465149D01*
X63660837Y-43544338D01*
X63488783Y-43659300D01*
X63342455Y-43805628D01*
X63227493Y-43977682D01*
X63148304Y-44168861D01*
X63107935Y-44371812D01*
X58431158Y-44371812D01*
X56280411Y-42221065D01*
X56280408Y-42221063D01*
X56280406Y-42221061D01*
X56206191Y-42178213D01*
X56206193Y-42178213D01*
X56174070Y-42169606D01*
X56123402Y-42156030D01*
X56123400Y-42156030D01*
X50863731Y-42156030D01*
X50805540Y-42137123D01*
X50769576Y-42087623D01*
X50768510Y-42084123D01*
X50757664Y-42046002D01*
X50658493Y-41846841D01*
X50524416Y-41669294D01*
X50359997Y-41519406D01*
X50170836Y-41402283D01*
X49963375Y-41321912D01*
X49963374Y-41321911D01*
X49963372Y-41321911D01*
X49744678Y-41281030D01*
X49522192Y-41281030D01*
X49303497Y-41321911D01*
X49227232Y-41351456D01*
X49096034Y-41402283D01*
X48906873Y-41519406D01*
X48742455Y-41669293D01*
X48608378Y-41846839D01*
X48608373Y-41846848D01*
X48530129Y-42003983D01*
X48509206Y-42046002D01*
X48504072Y-42064048D01*
X48498360Y-42084123D01*
X48464249Y-42134918D01*
X48406797Y-42155962D01*
X48403139Y-42156030D01*
X32326027Y-42156030D01*
X32267836Y-42137123D01*
X32231872Y-42087623D01*
X32231872Y-42026437D01*
X32242439Y-42003983D01*
X32366160Y-41809029D01*
X32366161Y-41809026D01*
X32366168Y-41809016D01*
X32494776Y-41535710D01*
X32588116Y-41248440D01*
X32644715Y-40951737D01*
X32663681Y-40650280D01*
X32644715Y-40348823D01*
X32588116Y-40052120D01*
X32494776Y-39764850D01*
X32366168Y-39491544D01*
X32366164Y-39491539D01*
X32366160Y-39491530D01*
X32204320Y-39236512D01*
X32011789Y-39003782D01*
X32011779Y-39003771D01*
X31791597Y-38797005D01*
X31791594Y-38797003D01*
X31547242Y-38619472D01*
X31547235Y-38619467D01*
X31547230Y-38619464D01*
X31282539Y-38473948D01*
X31282537Y-38473947D01*
X31282535Y-38473946D01*
X31001698Y-38362755D01*
X31001355Y-38362644D01*
X31001281Y-38362590D01*
X30998805Y-38361610D01*
X30999056Y-38360974D01*
X30951856Y-38326679D01*
X30932950Y-38268488D01*
X30951859Y-38210297D01*
X31001360Y-38174335D01*
X31031950Y-38169490D01*
X64984920Y-38169490D01*
X65043111Y-38188397D01*
G37*
G04 #@! TD.AperFunction*
M02*
