ISO-10303-21;
HEADER;
/* Generated by software containing ST-Developer
 * from STEP Tools, Inc. (www.steptools.com) 
 */
/* OPTION: using custom renumber hook */

FILE_DESCRIPTION(
/* description */ ('STEP AP203'),
/* implementation_level */ '2;1');

FILE_NAME(
/* name */ 'C-CBSAR2-3',
/* time_stamp */ '2025-01-05T01:43:44+01:00',
/* author */ ('License CC BY-ND 4.0'),
/* organization */ ('CADENAS'),
/* preprocessor_version */ 'ST-DEVELOPER v19.3',
/* originating_system */ 'PARTsolutions',
/* authorisation */ '  ');

FILE_SCHEMA (('CONFIG_CONTROL_DESIGN'));
ENDSEC;

DATA;
#10=PROPERTY_DEFINITION_REPRESENTATION(#14,#12);
#11=PROPERTY_DEFINITION_REPRESENTATION(#15,#13);
#12=REPRESENTATION('',(#16),#945);
#13=REPRESENTATION('',(#17),#945);
#14=PROPERTY_DEFINITION('pmi validation property','',#950);
#15=PROPERTY_DEFINITION('pmi validation property','',#950);
#16=VALUE_REPRESENTATION_ITEM('number of annotations',COUNT_MEASURE(0.));
#17=VALUE_REPRESENTATION_ITEM('number of views',COUNT_MEASURE(0.));
#18=SHAPE_REPRESENTATION_RELATIONSHIP('','',#537,#19);
#19=ADVANCED_BREP_SHAPE_REPRESENTATION('',(#535),#945);
#20=DEGENERATE_TOROIDAL_SURFACE('',#580,0.0101859705007679,0.440000000000001,
 .T.);
#21=B_SPLINE_CURVE_WITH_KNOTS('',3,(#783,#784,#785,#786),.UNSPECIFIED.,
 .F.,.F.,(4,4),(0.00115280493503339,0.00175314418926416),.UNSPECIFIED.);
#22=B_SPLINE_CURVE_WITH_KNOTS('',3,(#790,#791,#792,#793),.UNSPECIFIED.,
 .F.,.F.,(4,4),(3.50300059541545E-7,0.000225382307868866),.UNSPECIFIED.);
#23=B_SPLINE_CURVE_WITH_KNOTS('',3,(#797,#798,#799,#800),.UNSPECIFIED.,
 .F.,.F.,(4,4),(2.93546114701001E-7,0.000225448287732442),.UNSPECIFIED.);
#24=B_SPLINE_CURVE_WITH_KNOTS('',3,(#802,#803,#804,#805),.UNSPECIFIED.,
 .F.,.F.,(4,4),(2.95091467637E-7,0.000242670672258617),.UNSPECIFIED.);
#25=B_SPLINE_CURVE_WITH_KNOTS('',3,(#809,#810,#811,#812),.UNSPECIFIED.,
 .F.,.F.,(4,4),(0.000959210160096284,0.00156077522729521),.UNSPECIFIED.);
#26=B_SPLINE_CURVE_WITH_KNOTS('',3,(#816,#817,#818,#819),.UNSPECIFIED.,
 .F.,.F.,(4,4),(0.000982783403235658,0.00128043973870836),.UNSPECIFIED.);
#27=B_SPLINE_CURVE_WITH_KNOTS('',3,(#823,#824,#825,#826),.UNSPECIFIED.,
 .F.,.F.,(4,4),(0.00115280493503338,0.00175314418926416),.UNSPECIFIED.);
#28=B_SPLINE_CURVE_WITH_KNOTS('',3,(#828,#829,#830,#831),.UNSPECIFIED.,
 .F.,.F.,(4,4),(3.50300059546418E-7,0.000225382307868862),.UNSPECIFIED.);
#29=B_SPLINE_CURVE_WITH_KNOTS('',3,(#835,#836,#837,#838),.UNSPECIFIED.,
 .F.,.F.,(4,4),(2.93546170267016E-7,0.00022544828778804),.UNSPECIFIED.);
#30=B_SPLINE_CURVE_WITH_KNOTS('',3,(#840,#841,#842,#843),.UNSPECIFIED.,
 .F.,.F.,(4,4),(2.95091465334215E-7,0.000242670672256264),.UNSPECIFIED.);
#31=B_SPLINE_CURVE_WITH_KNOTS('',3,(#847,#848,#849,#850),.UNSPECIFIED.,
 .F.,.F.,(4,4),(0.000959210160096282,0.0015607752272952),.UNSPECIFIED.);
#32=B_SPLINE_CURVE_WITH_KNOTS('',3,(#854,#855,#856,#857),.UNSPECIFIED.,
 .F.,.F.,(4,4),(0.000982783403235652,0.00128043973870835),.UNSPECIFIED.);
#33=B_SPLINE_CURVE_WITH_KNOTS('',3,(#861,#862,#863,#864),.UNSPECIFIED.,
 .F.,.F.,(4,4),(0.00115280493503337,0.00175314418926414),.UNSPECIFIED.);
#34=B_SPLINE_CURVE_WITH_KNOTS('',3,(#866,#867,#868,#869),.UNSPECIFIED.,
 .F.,.F.,(4,4),(3.50300059546418E-7,0.000225382307868879),.UNSPECIFIED.);
#35=B_SPLINE_CURVE_WITH_KNOTS('',3,(#873,#874,#875,#876),.UNSPECIFIED.,
 .F.,.F.,(4,4),(2.93546170267075E-7,0.000225448287788045),.UNSPECIFIED.);
#36=B_SPLINE_CURVE_WITH_KNOTS('',3,(#878,#879,#880,#881),.UNSPECIFIED.,
 .F.,.F.,(4,4),(2.95091465334135E-7,0.0002426706722562),.UNSPECIFIED.);
#37=B_SPLINE_CURVE_WITH_KNOTS('',3,(#885,#886,#887,#888),.UNSPECIFIED.,
 .F.,.F.,(4,4),(0.000959210160096281,0.0015607752272952),.UNSPECIFIED.);
#38=B_SPLINE_CURVE_WITH_KNOTS('',3,(#892,#893,#894,#895),.UNSPECIFIED.,
 .F.,.F.,(4,4),(0.000982783403235657,0.00128043973870836),.UNSPECIFIED.);
#39=B_SPLINE_CURVE_WITH_KNOTS('',3,(#899,#900,#901,#902),.UNSPECIFIED.,
 .F.,.F.,(4,4),(0.00115280493503338,0.00175314418926414),.UNSPECIFIED.);
#40=B_SPLINE_CURVE_WITH_KNOTS('',3,(#904,#905,#906,#907),.UNSPECIFIED.,
 .F.,.F.,(4,4),(3.50300059543494E-7,0.000225382307868972),.UNSPECIFIED.);
#41=B_SPLINE_CURVE_WITH_KNOTS('',3,(#911,#912,#913,#914),.UNSPECIFIED.,
 .F.,.F.,(4,4),(2.9354611470256E-7,0.000225448287732458),.UNSPECIFIED.);
#42=B_SPLINE_CURVE_WITH_KNOTS('',3,(#916,#917,#918,#919),.UNSPECIFIED.,
 .F.,.F.,(4,4),(2.95091467636992E-7,0.000242670672258481),.UNSPECIFIED.);
#43=B_SPLINE_CURVE_WITH_KNOTS('',3,(#923,#924,#925,#926),.UNSPECIFIED.,
 .F.,.F.,(4,4),(0.000959210160096281,0.0015607752272952),.UNSPECIFIED.);
#44=B_SPLINE_CURVE_WITH_KNOTS('',3,(#928,#929,#930,#931),.UNSPECIFIED.,
 .F.,.F.,(4,4),(0.000982783403235649,0.00128043973870834),.UNSPECIFIED.);
#45=TOROIDAL_SURFACE('',#551,0.974999999999997,0.1);
#46=CYLINDRICAL_SURFACE('',#547,2.);
#47=CYLINDRICAL_SURFACE('',#553,0.874999999999996);
#48=CYLINDRICAL_SURFACE('',#557,0.99999999999999);
#49=CYLINDRICAL_SURFACE('',#563,0.32);
#50=CYLINDRICAL_SURFACE('',#567,0.32);
#51=CYLINDRICAL_SURFACE('',#571,0.32);
#52=CYLINDRICAL_SURFACE('',#575,0.32);
#53=CONICAL_SURFACE('',#545,1.52000000000001,1.0471975511966);
#54=CONICAL_SURFACE('',#555,0.874999999999994,0.302884868375004);
#55=CONICAL_SURFACE('',#559,0.999999999999987,0.785398163397453);
#56=CONICAL_SURFACE('',#585,0.835010957557707,0.577389823144764);
#57=CONICAL_SURFACE('',#586,0.835010957557707,0.577389823144764);
#58=CONICAL_SURFACE('',#587,0.835010957557707,0.577389823144764);
#59=CONICAL_SURFACE('',#588,0.835010957557707,0.577389823144764);
#60=LINE('',#723,#88);
#61=LINE('',#726,#89);
#62=LINE('',#728,#90);
#63=LINE('',#732,#91);
#64=LINE('',#734,#92);
#65=LINE('',#736,#93);
#66=LINE('',#740,#94);
#67=LINE('',#742,#95);
#68=LINE('',#744,#96);
#69=LINE('',#748,#97);
#70=LINE('',#750,#98);
#71=LINE('',#752,#99);
#72=LINE('',#781,#100);
#73=LINE('',#788,#101);
#74=LINE('',#795,#102);
#75=LINE('',#807,#103);
#76=LINE('',#814,#104);
#77=LINE('',#821,#105);
#78=LINE('',#833,#106);
#79=LINE('',#845,#107);
#80=LINE('',#852,#108);
#81=LINE('',#859,#109);
#82=LINE('',#871,#110);
#83=LINE('',#883,#111);
#84=LINE('',#890,#112);
#85=LINE('',#897,#113);
#86=LINE('',#909,#114);
#87=LINE('',#921,#115);
#88=VECTOR('',#595,1000.);
#89=VECTOR('',#596,1000.);
#90=VECTOR('',#597,1000.);
#91=VECTOR('',#600,1000.);
#92=VECTOR('',#601,1000.);
#93=VECTOR('',#602,1000.);
#94=VECTOR('',#605,1000.);
#95=VECTOR('',#606,1000.);
#96=VECTOR('',#607,1000.);
#97=VECTOR('',#610,1000.);
#98=VECTOR('',#611,1000.);
#99=VECTOR('',#612,1000.);
#100=VECTOR('',#651,1000.);
#101=VECTOR('',#652,1000.);
#102=VECTOR('',#655,1000.);
#103=VECTOR('',#658,1000.);
#104=VECTOR('',#661,1000.);
#105=VECTOR('',#664,1000.);
#106=VECTOR('',#667,1000.);
#107=VECTOR('',#670,1000.);
#108=VECTOR('',#673,1000.);
#109=VECTOR('',#676,1000.);
#110=VECTOR('',#679,1000.);
#111=VECTOR('',#682,1000.);
#112=VECTOR('',#685,1000.);
#113=VECTOR('',#688,1000.);
#114=VECTOR('',#691,1000.);
#115=VECTOR('',#694,1000.);
#116=ORIENTED_EDGE('',*,*,#256,.F.);
#117=ORIENTED_EDGE('',*,*,#257,.T.);
#118=ORIENTED_EDGE('',*,*,#258,.T.);
#119=ORIENTED_EDGE('',*,*,#259,.T.);
#120=ORIENTED_EDGE('',*,*,#260,.F.);
#121=ORIENTED_EDGE('',*,*,#261,.T.);
#122=ORIENTED_EDGE('',*,*,#262,.T.);
#123=ORIENTED_EDGE('',*,*,#263,.T.);
#124=ORIENTED_EDGE('',*,*,#264,.F.);
#125=ORIENTED_EDGE('',*,*,#265,.T.);
#126=ORIENTED_EDGE('',*,*,#266,.T.);
#127=ORIENTED_EDGE('',*,*,#267,.T.);
#128=ORIENTED_EDGE('',*,*,#268,.F.);
#129=ORIENTED_EDGE('',*,*,#269,.T.);
#130=ORIENTED_EDGE('',*,*,#270,.T.);
#131=ORIENTED_EDGE('',*,*,#271,.T.);
#132=ORIENTED_EDGE('',*,*,#272,.F.);
#133=ORIENTED_EDGE('',*,*,#273,.F.);
#134=ORIENTED_EDGE('',*,*,#256,.T.);
#135=ORIENTED_EDGE('',*,*,#274,.F.);
#136=ORIENTED_EDGE('',*,*,#273,.T.);
#137=ORIENTED_EDGE('',*,*,#275,.F.);
#138=ORIENTED_EDGE('',*,*,#274,.T.);
#139=ORIENTED_EDGE('',*,*,#276,.F.);
#140=ORIENTED_EDGE('',*,*,#275,.T.);
#141=ORIENTED_EDGE('',*,*,#277,.F.);
#142=ORIENTED_EDGE('',*,*,#276,.T.);
#143=ORIENTED_EDGE('',*,*,#278,.F.);
#144=ORIENTED_EDGE('',*,*,#277,.T.);
#145=ORIENTED_EDGE('',*,*,#279,.F.);
#146=ORIENTED_EDGE('',*,*,#278,.T.);
#147=ORIENTED_EDGE('',*,*,#280,.F.);
#148=ORIENTED_EDGE('',*,*,#279,.T.);
#149=ORIENTED_EDGE('',*,*,#280,.T.);
#150=ORIENTED_EDGE('',*,*,#281,.F.);
#151=ORIENTED_EDGE('',*,*,#282,.T.);
#152=ORIENTED_EDGE('',*,*,#283,.T.);
#153=ORIENTED_EDGE('',*,*,#257,.F.);
#154=ORIENTED_EDGE('',*,*,#284,.F.);
#155=ORIENTED_EDGE('',*,*,#281,.T.);
#156=ORIENTED_EDGE('',*,*,#272,.T.);
#157=ORIENTED_EDGE('',*,*,#285,.F.);
#158=ORIENTED_EDGE('',*,*,#286,.F.);
#159=ORIENTED_EDGE('',*,*,#287,.T.);
#160=ORIENTED_EDGE('',*,*,#288,.F.);
#161=ORIENTED_EDGE('',*,*,#289,.T.);
#162=ORIENTED_EDGE('',*,*,#285,.T.);
#163=ORIENTED_EDGE('',*,*,#271,.F.);
#164=ORIENTED_EDGE('',*,*,#290,.F.);
#165=ORIENTED_EDGE('',*,*,#291,.T.);
#166=ORIENTED_EDGE('',*,*,#288,.T.);
#167=ORIENTED_EDGE('',*,*,#270,.F.);
#168=ORIENTED_EDGE('',*,*,#292,.F.);
#169=ORIENTED_EDGE('',*,*,#293,.T.);
#170=ORIENTED_EDGE('',*,*,#290,.T.);
#171=ORIENTED_EDGE('',*,*,#269,.F.);
#172=ORIENTED_EDGE('',*,*,#294,.F.);
#173=ORIENTED_EDGE('',*,*,#292,.T.);
#174=ORIENTED_EDGE('',*,*,#268,.T.);
#175=ORIENTED_EDGE('',*,*,#295,.F.);
#176=ORIENTED_EDGE('',*,*,#296,.F.);
#177=ORIENTED_EDGE('',*,*,#297,.T.);
#178=ORIENTED_EDGE('',*,*,#298,.F.);
#179=ORIENTED_EDGE('',*,*,#299,.T.);
#180=ORIENTED_EDGE('',*,*,#295,.T.);
#181=ORIENTED_EDGE('',*,*,#267,.F.);
#182=ORIENTED_EDGE('',*,*,#300,.F.);
#183=ORIENTED_EDGE('',*,*,#301,.T.);
#184=ORIENTED_EDGE('',*,*,#298,.T.);
#185=ORIENTED_EDGE('',*,*,#266,.F.);
#186=ORIENTED_EDGE('',*,*,#302,.F.);
#187=ORIENTED_EDGE('',*,*,#303,.T.);
#188=ORIENTED_EDGE('',*,*,#300,.T.);
#189=ORIENTED_EDGE('',*,*,#265,.F.);
#190=ORIENTED_EDGE('',*,*,#304,.F.);
#191=ORIENTED_EDGE('',*,*,#302,.T.);
#192=ORIENTED_EDGE('',*,*,#264,.T.);
#193=ORIENTED_EDGE('',*,*,#305,.F.);
#194=ORIENTED_EDGE('',*,*,#306,.F.);
#195=ORIENTED_EDGE('',*,*,#307,.T.);
#196=ORIENTED_EDGE('',*,*,#308,.F.);
#197=ORIENTED_EDGE('',*,*,#309,.T.);
#198=ORIENTED_EDGE('',*,*,#305,.T.);
#199=ORIENTED_EDGE('',*,*,#263,.F.);
#200=ORIENTED_EDGE('',*,*,#310,.F.);
#201=ORIENTED_EDGE('',*,*,#311,.T.);
#202=ORIENTED_EDGE('',*,*,#308,.T.);
#203=ORIENTED_EDGE('',*,*,#262,.F.);
#204=ORIENTED_EDGE('',*,*,#312,.F.);
#205=ORIENTED_EDGE('',*,*,#313,.T.);
#206=ORIENTED_EDGE('',*,*,#310,.T.);
#207=ORIENTED_EDGE('',*,*,#261,.F.);
#208=ORIENTED_EDGE('',*,*,#314,.F.);
#209=ORIENTED_EDGE('',*,*,#312,.T.);
#210=ORIENTED_EDGE('',*,*,#260,.T.);
#211=ORIENTED_EDGE('',*,*,#315,.F.);
#212=ORIENTED_EDGE('',*,*,#316,.F.);
#213=ORIENTED_EDGE('',*,*,#317,.T.);
#214=ORIENTED_EDGE('',*,*,#318,.F.);
#215=ORIENTED_EDGE('',*,*,#319,.T.);
#216=ORIENTED_EDGE('',*,*,#315,.T.);
#217=ORIENTED_EDGE('',*,*,#259,.F.);
#218=ORIENTED_EDGE('',*,*,#283,.F.);
#219=ORIENTED_EDGE('',*,*,#320,.T.);
#220=ORIENTED_EDGE('',*,*,#318,.T.);
#221=ORIENTED_EDGE('',*,*,#258,.F.);
#222=ORIENTED_EDGE('',*,*,#321,.F.);
#223=ORIENTED_EDGE('',*,*,#322,.F.);
#224=ORIENTED_EDGE('',*,*,#297,.F.);
#225=ORIENTED_EDGE('',*,*,#323,.F.);
#226=ORIENTED_EDGE('',*,*,#307,.F.);
#227=ORIENTED_EDGE('',*,*,#324,.F.);
#228=ORIENTED_EDGE('',*,*,#317,.F.);
#229=ORIENTED_EDGE('',*,*,#325,.F.);
#230=ORIENTED_EDGE('',*,*,#287,.F.);
#231=ORIENTED_EDGE('',*,*,#321,.T.);
#232=ORIENTED_EDGE('',*,*,#282,.F.);
#233=ORIENTED_EDGE('',*,*,#284,.T.);
#234=ORIENTED_EDGE('',*,*,#325,.T.);
#235=ORIENTED_EDGE('',*,*,#316,.T.);
#236=ORIENTED_EDGE('',*,*,#319,.F.);
#237=ORIENTED_EDGE('',*,*,#320,.F.);
#238=ORIENTED_EDGE('',*,*,#324,.T.);
#239=ORIENTED_EDGE('',*,*,#306,.T.);
#240=ORIENTED_EDGE('',*,*,#309,.F.);
#241=ORIENTED_EDGE('',*,*,#311,.F.);
#242=ORIENTED_EDGE('',*,*,#313,.F.);
#243=ORIENTED_EDGE('',*,*,#314,.T.);
#244=ORIENTED_EDGE('',*,*,#323,.T.);
#245=ORIENTED_EDGE('',*,*,#296,.T.);
#246=ORIENTED_EDGE('',*,*,#299,.F.);
#247=ORIENTED_EDGE('',*,*,#301,.F.);
#248=ORIENTED_EDGE('',*,*,#303,.F.);
#249=ORIENTED_EDGE('',*,*,#304,.T.);
#250=ORIENTED_EDGE('',*,*,#291,.F.);
#251=ORIENTED_EDGE('',*,*,#293,.F.);
#252=ORIENTED_EDGE('',*,*,#294,.T.);
#253=ORIENTED_EDGE('',*,*,#322,.T.);
#254=ORIENTED_EDGE('',*,*,#286,.T.);
#255=ORIENTED_EDGE('',*,*,#289,.F.);
#256=EDGE_CURVE('',#326,#326,#376,.T.);
#257=EDGE_CURVE('',#327,#328,#60,.T.);
#258=EDGE_CURVE('',#328,#329,#61,.T.);
#259=EDGE_CURVE('',#329,#330,#62,.T.);
#260=EDGE_CURVE('',#331,#330,#377,.T.);
#261=EDGE_CURVE('',#331,#332,#63,.T.);
#262=EDGE_CURVE('',#332,#333,#64,.T.);
#263=EDGE_CURVE('',#333,#334,#65,.T.);
#264=EDGE_CURVE('',#335,#334,#378,.T.);
#265=EDGE_CURVE('',#335,#336,#66,.T.);
#266=EDGE_CURVE('',#336,#337,#67,.T.);
#267=EDGE_CURVE('',#337,#338,#68,.T.);
#268=EDGE_CURVE('',#339,#338,#379,.T.);
#269=EDGE_CURVE('',#339,#340,#69,.T.);
#270=EDGE_CURVE('',#340,#341,#70,.T.);
#271=EDGE_CURVE('',#341,#342,#71,.T.);
#272=EDGE_CURVE('',#327,#342,#380,.T.);
#273=EDGE_CURVE('',#343,#343,#381,.T.);
#274=EDGE_CURVE('',#344,#344,#382,.T.);
#275=EDGE_CURVE('',#345,#345,#383,.T.);
#276=EDGE_CURVE('',#346,#346,#384,.T.);
#277=EDGE_CURVE('',#347,#347,#385,.T.);
#278=EDGE_CURVE('',#348,#348,#386,.T.);
#279=EDGE_CURVE('',#349,#349,#387,.T.);
#280=EDGE_CURVE('',#350,#350,#388,.T.);
#281=EDGE_CURVE('',#351,#327,#72,.T.);
#282=EDGE_CURVE('',#351,#352,#21,.T.);
#283=EDGE_CURVE('',#352,#328,#73,.T.);
#284=EDGE_CURVE('',#351,#353,#22,.T.);
#285=EDGE_CURVE('',#354,#342,#74,.T.);
#286=EDGE_CURVE('',#355,#354,#23,.T.);
#287=EDGE_CURVE('',#355,#353,#24,.T.);
#288=EDGE_CURVE('',#356,#341,#75,.T.);
#289=EDGE_CURVE('',#356,#354,#25,.T.);
#290=EDGE_CURVE('',#357,#340,#76,.T.);
#291=EDGE_CURVE('',#357,#356,#26,.T.);
#292=EDGE_CURVE('',#358,#339,#77,.T.);
#293=EDGE_CURVE('',#358,#357,#27,.T.);
#294=EDGE_CURVE('',#358,#359,#28,.T.);
#295=EDGE_CURVE('',#360,#338,#78,.T.);
#296=EDGE_CURVE('',#361,#360,#29,.T.);
#297=EDGE_CURVE('',#361,#359,#30,.T.);
#298=EDGE_CURVE('',#362,#337,#79,.T.);
#299=EDGE_CURVE('',#362,#360,#31,.T.);
#300=EDGE_CURVE('',#363,#336,#80,.T.);
#301=EDGE_CURVE('',#363,#362,#32,.T.);
#302=EDGE_CURVE('',#364,#335,#81,.T.);
#303=EDGE_CURVE('',#364,#363,#33,.T.);
#304=EDGE_CURVE('',#364,#365,#34,.T.);
#305=EDGE_CURVE('',#366,#334,#82,.T.);
#306=EDGE_CURVE('',#367,#366,#35,.T.);
#307=EDGE_CURVE('',#367,#365,#36,.T.);
#308=EDGE_CURVE('',#368,#333,#83,.T.);
#309=EDGE_CURVE('',#368,#366,#37,.T.);
#310=EDGE_CURVE('',#369,#332,#84,.T.);
#311=EDGE_CURVE('',#369,#368,#38,.T.);
#312=EDGE_CURVE('',#370,#331,#85,.T.);
#313=EDGE_CURVE('',#370,#369,#39,.T.);
#314=EDGE_CURVE('',#370,#371,#40,.T.);
#315=EDGE_CURVE('',#372,#330,#86,.T.);
#316=EDGE_CURVE('',#373,#372,#41,.T.);
#317=EDGE_CURVE('',#373,#371,#42,.T.);
#318=EDGE_CURVE('',#374,#329,#87,.T.);
#319=EDGE_CURVE('',#374,#372,#43,.T.);
#320=EDGE_CURVE('',#352,#374,#44,.T.);
#321=EDGE_CURVE('',#375,#375,#389,.T.);
#322=EDGE_CURVE('',#359,#355,#390,.T.);
#323=EDGE_CURVE('',#365,#361,#391,.T.);
#324=EDGE_CURVE('',#371,#367,#392,.T.);
#325=EDGE_CURVE('',#353,#373,#393,.T.);
#326=VERTEX_POINT('',#722);
#327=VERTEX_POINT('',#724);
#328=VERTEX_POINT('',#725);
#329=VERTEX_POINT('',#727);
#330=VERTEX_POINT('',#729);
#331=VERTEX_POINT('',#731);
#332=VERTEX_POINT('',#733);
#333=VERTEX_POINT('',#735);
#334=VERTEX_POINT('',#737);
#335=VERTEX_POINT('',#739);
#336=VERTEX_POINT('',#741);
#337=VERTEX_POINT('',#743);
#338=VERTEX_POINT('',#745);
#339=VERTEX_POINT('',#747);
#340=VERTEX_POINT('',#749);
#341=VERTEX_POINT('',#751);
#342=VERTEX_POINT('',#753);
#343=VERTEX_POINT('',#757);
#344=VERTEX_POINT('',#760);
#345=VERTEX_POINT('',#763);
#346=VERTEX_POINT('',#766);
#347=VERTEX_POINT('',#769);
#348=VERTEX_POINT('',#772);
#349=VERTEX_POINT('',#775);
#350=VERTEX_POINT('',#778);
#351=VERTEX_POINT('',#782);
#352=VERTEX_POINT('',#787);
#353=VERTEX_POINT('',#794);
#354=VERTEX_POINT('',#796);
#355=VERTEX_POINT('',#801);
#356=VERTEX_POINT('',#808);
#357=VERTEX_POINT('',#815);
#358=VERTEX_POINT('',#822);
#359=VERTEX_POINT('',#832);
#360=VERTEX_POINT('',#834);
#361=VERTEX_POINT('',#839);
#362=VERTEX_POINT('',#846);
#363=VERTEX_POINT('',#853);
#364=VERTEX_POINT('',#860);
#365=VERTEX_POINT('',#870);
#366=VERTEX_POINT('',#872);
#367=VERTEX_POINT('',#877);
#368=VERTEX_POINT('',#884);
#369=VERTEX_POINT('',#891);
#370=VERTEX_POINT('',#898);
#371=VERTEX_POINT('',#908);
#372=VERTEX_POINT('',#910);
#373=VERTEX_POINT('',#915);
#374=VERTEX_POINT('',#922);
#375=VERTEX_POINT('',#934);
#376=CIRCLE('',#540,1.52000000000001);
#377=CIRCLE('',#541,0.32);
#378=CIRCLE('',#542,0.32);
#379=CIRCLE('',#543,0.32);
#380=CIRCLE('',#544,0.32);
#381=CIRCLE('',#546,2.);
#382=CIRCLE('',#548,2.);
#383=CIRCLE('',#550,0.974999999999992);
#384=CIRCLE('',#552,0.874999999999997);
#385=CIRCLE('',#554,0.874999999999994);
#386=CIRCLE('',#556,0.999999999999993);
#387=CIRCLE('',#558,0.999999999999987);
#388=CIRCLE('',#560,0.754499999999986);
#389=CIRCLE('',#579,0.170000000000002);
#390=CIRCLE('',#581,0.378857734150003);
#391=CIRCLE('',#582,0.378857734150003);
#392=CIRCLE('',#583,0.378857734150003);
#393=CIRCLE('',#584,0.378857734150003);
#394=EDGE_LOOP('',(#116));
#395=EDGE_LOOP('',(#117,#118,#119,#120,#121,#122,#123,#124,#125,#126,#127,
#128,#129,#130,#131,#132));
#396=EDGE_LOOP('',(#133));
#397=EDGE_LOOP('',(#134));
#398=EDGE_LOOP('',(#135));
#399=EDGE_LOOP('',(#136));
#400=EDGE_LOOP('',(#137));
#401=EDGE_LOOP('',(#138));
#402=EDGE_LOOP('',(#139));
#403=EDGE_LOOP('',(#140));
#404=EDGE_LOOP('',(#141));
#405=EDGE_LOOP('',(#142));
#406=EDGE_LOOP('',(#143));
#407=EDGE_LOOP('',(#144));
#408=EDGE_LOOP('',(#145));
#409=EDGE_LOOP('',(#146));
#410=EDGE_LOOP('',(#147));
#411=EDGE_LOOP('',(#148));
#412=EDGE_LOOP('',(#149));
#413=EDGE_LOOP('',(#150,#151,#152,#153));
#414=EDGE_LOOP('',(#154,#155,#156,#157,#158,#159));
#415=EDGE_LOOP('',(#160,#161,#162,#163));
#416=EDGE_LOOP('',(#164,#165,#166,#167));
#417=EDGE_LOOP('',(#168,#169,#170,#171));
#418=EDGE_LOOP('',(#172,#173,#174,#175,#176,#177));
#419=EDGE_LOOP('',(#178,#179,#180,#181));
#420=EDGE_LOOP('',(#182,#183,#184,#185));
#421=EDGE_LOOP('',(#186,#187,#188,#189));
#422=EDGE_LOOP('',(#190,#191,#192,#193,#194,#195));
#423=EDGE_LOOP('',(#196,#197,#198,#199));
#424=EDGE_LOOP('',(#200,#201,#202,#203));
#425=EDGE_LOOP('',(#204,#205,#206,#207));
#426=EDGE_LOOP('',(#208,#209,#210,#211,#212,#213));
#427=EDGE_LOOP('',(#214,#215,#216,#217));
#428=EDGE_LOOP('',(#218,#219,#220,#221));
#429=EDGE_LOOP('',(#222));
#430=EDGE_LOOP('',(#223,#224,#225,#226,#227,#228,#229,#230));
#431=EDGE_LOOP('',(#231));
#432=EDGE_LOOP('',(#232,#233,#234,#235,#236,#237));
#433=EDGE_LOOP('',(#238,#239,#240,#241,#242,#243));
#434=EDGE_LOOP('',(#244,#245,#246,#247,#248,#249));
#435=EDGE_LOOP('',(#250,#251,#252,#253,#254,#255));
#436=FACE_BOUND('',#394,.T.);
#437=FACE_BOUND('',#395,.T.);
#438=FACE_BOUND('',#396,.T.);
#439=FACE_BOUND('',#397,.T.);
#440=FACE_BOUND('',#398,.T.);
#441=FACE_BOUND('',#399,.T.);
#442=FACE_BOUND('',#400,.T.);
#443=FACE_BOUND('',#401,.T.);
#444=FACE_BOUND('',#402,.T.);
#445=FACE_BOUND('',#403,.T.);
#446=FACE_BOUND('',#404,.T.);
#447=FACE_BOUND('',#405,.T.);
#448=FACE_BOUND('',#406,.T.);
#449=FACE_BOUND('',#407,.T.);
#450=FACE_BOUND('',#408,.T.);
#451=FACE_BOUND('',#409,.T.);
#452=FACE_BOUND('',#410,.T.);
#453=FACE_BOUND('',#411,.T.);
#454=FACE_BOUND('',#412,.T.);
#455=FACE_BOUND('',#413,.T.);
#456=FACE_BOUND('',#414,.T.);
#457=FACE_BOUND('',#415,.T.);
#458=FACE_BOUND('',#416,.T.);
#459=FACE_BOUND('',#417,.T.);
#460=FACE_BOUND('',#418,.T.);
#461=FACE_BOUND('',#419,.T.);
#462=FACE_BOUND('',#420,.T.);
#463=FACE_BOUND('',#421,.T.);
#464=FACE_BOUND('',#422,.T.);
#465=FACE_BOUND('',#423,.T.);
#466=FACE_BOUND('',#424,.T.);
#467=FACE_BOUND('',#425,.T.);
#468=FACE_BOUND('',#426,.T.);
#469=FACE_BOUND('',#427,.T.);
#470=FACE_BOUND('',#428,.T.);
#471=FACE_BOUND('',#429,.T.);
#472=FACE_BOUND('',#430,.T.);
#473=FACE_BOUND('',#431,.T.);
#474=FACE_BOUND('',#432,.T.);
#475=FACE_BOUND('',#433,.T.);
#476=FACE_BOUND('',#434,.T.);
#477=FACE_BOUND('',#435,.T.);
#478=PLANE('',#539);
#479=PLANE('',#549);
#480=PLANE('',#561);
#481=PLANE('',#562);
#482=PLANE('',#564);
#483=PLANE('',#565);
#484=PLANE('',#566);
#485=PLANE('',#568);
#486=PLANE('',#569);
#487=PLANE('',#570);
#488=PLANE('',#572);
#489=PLANE('',#573);
#490=PLANE('',#574);
#491=PLANE('',#576);
#492=PLANE('',#577);
#493=PLANE('',#578);
#494=ADVANCED_FACE('',(#436,#437),#478,.F.);
#495=ADVANCED_FACE('',(#438,#439),#53,.T.);
#496=ADVANCED_FACE('',(#440,#441),#46,.T.);
#497=ADVANCED_FACE('',(#442,#443),#479,.F.);
#498=ADVANCED_FACE('',(#444,#445),#45,.F.);
#499=ADVANCED_FACE('',(#446,#447),#47,.T.);
#500=ADVANCED_FACE('',(#448,#449),#54,.T.);
#501=ADVANCED_FACE('',(#450,#451),#48,.T.);
#502=ADVANCED_FACE('',(#452,#453),#55,.T.);
#503=ADVANCED_FACE('',(#454),#480,.F.);
#504=ADVANCED_FACE('',(#455),#481,.T.);
#505=ADVANCED_FACE('',(#456),#49,.T.);
#506=ADVANCED_FACE('',(#457),#482,.T.);
#507=ADVANCED_FACE('',(#458),#483,.T.);
#508=ADVANCED_FACE('',(#459),#484,.T.);
#509=ADVANCED_FACE('',(#460),#50,.T.);
#510=ADVANCED_FACE('',(#461),#485,.T.);
#511=ADVANCED_FACE('',(#462),#486,.T.);
#512=ADVANCED_FACE('',(#463),#487,.T.);
#513=ADVANCED_FACE('',(#464),#51,.T.);
#514=ADVANCED_FACE('',(#465),#488,.T.);
#515=ADVANCED_FACE('',(#466),#489,.T.);
#516=ADVANCED_FACE('',(#467),#490,.T.);
#517=ADVANCED_FACE('',(#468),#52,.T.);
#518=ADVANCED_FACE('',(#469),#491,.T.);
#519=ADVANCED_FACE('',(#470),#492,.T.);
#520=ADVANCED_FACE('',(#471),#493,.T.);
#521=ADVANCED_FACE('',(#472,#473),#20,.F.);
#522=ADVANCED_FACE('',(#474),#56,.F.);
#523=ADVANCED_FACE('',(#475),#57,.F.);
#524=ADVANCED_FACE('',(#476),#58,.F.);
#525=ADVANCED_FACE('',(#477),#59,.F.);
#526=CLOSED_SHELL('',(#494,#495,#496,#497,#498,#499,#500,#501,#502,#503,
#504,#505,#506,#507,#508,#509,#510,#511,#512,#513,#514,#515,#516,#517,#518,
#519,#520,#521,#522,#523,#524,#525));
#527=STYLED_ITEM('',(#528),#535);
#528=PRESENTATION_STYLE_ASSIGNMENT((#529));
#529=SURFACE_STYLE_USAGE(.BOTH.,#530);
#530=SURFACE_SIDE_STYLE('',(#531));
#531=SURFACE_STYLE_FILL_AREA(#532);
#532=FILL_AREA_STYLE('',(#533));
#533=FILL_AREA_STYLE_COLOUR('',#534);
#534=COLOUR_RGB('',0.689999997615814,0.689999997615814,0.689999997615814);
#535=MANIFOLD_SOLID_BREP('C-CBSAR2-3',#526);
#536=SHAPE_DEFINITION_REPRESENTATION(#950,#537);
#537=SHAPE_REPRESENTATION('C-CBSAR2-3',(#538),#945);
#538=AXIS2_PLACEMENT_3D('',#719,#589,#590);
#539=AXIS2_PLACEMENT_3D('',#720,#591,#592);
#540=AXIS2_PLACEMENT_3D('',#721,#593,#594);
#541=AXIS2_PLACEMENT_3D('',#730,#598,#599);
#542=AXIS2_PLACEMENT_3D('',#738,#603,#604);
#543=AXIS2_PLACEMENT_3D('',#746,#608,#609);
#544=AXIS2_PLACEMENT_3D('',#754,#613,#614);
#545=AXIS2_PLACEMENT_3D('',#755,#615,#616);
#546=AXIS2_PLACEMENT_3D('',#756,#617,#618);
#547=AXIS2_PLACEMENT_3D('',#758,#619,#620);
#548=AXIS2_PLACEMENT_3D('',#759,#621,#622);
#549=AXIS2_PLACEMENT_3D('',#761,#623,#624);
#550=AXIS2_PLACEMENT_3D('',#762,#625,#626);
#551=AXIS2_PLACEMENT_3D('',#764,#627,#628);
#552=AXIS2_PLACEMENT_3D('',#765,#629,#630);
#553=AXIS2_PLACEMENT_3D('',#767,#631,#632);
#554=AXIS2_PLACEMENT_3D('',#768,#633,#634);
#555=AXIS2_PLACEMENT_3D('',#770,#635,#636);
#556=AXIS2_PLACEMENT_3D('',#771,#637,#638);
#557=AXIS2_PLACEMENT_3D('',#773,#639,#640);
#558=AXIS2_PLACEMENT_3D('',#774,#641,#642);
#559=AXIS2_PLACEMENT_3D('',#776,#643,#644);
#560=AXIS2_PLACEMENT_3D('',#777,#645,#646);
#561=AXIS2_PLACEMENT_3D('',#779,#647,#648);
#562=AXIS2_PLACEMENT_3D('',#780,#649,#650);
#563=AXIS2_PLACEMENT_3D('',#789,#653,#654);
#564=AXIS2_PLACEMENT_3D('',#806,#656,#657);
#565=AXIS2_PLACEMENT_3D('',#813,#659,#660);
#566=AXIS2_PLACEMENT_3D('',#820,#662,#663);
#567=AXIS2_PLACEMENT_3D('',#827,#665,#666);
#568=AXIS2_PLACEMENT_3D('',#844,#668,#669);
#569=AXIS2_PLACEMENT_3D('',#851,#671,#672);
#570=AXIS2_PLACEMENT_3D('',#858,#674,#675);
#571=AXIS2_PLACEMENT_3D('',#865,#677,#678);
#572=AXIS2_PLACEMENT_3D('',#882,#680,#681);
#573=AXIS2_PLACEMENT_3D('',#889,#683,#684);
#574=AXIS2_PLACEMENT_3D('',#896,#686,#687);
#575=AXIS2_PLACEMENT_3D('',#903,#689,#690);
#576=AXIS2_PLACEMENT_3D('',#920,#692,#693);
#577=AXIS2_PLACEMENT_3D('',#927,#695,#696);
#578=AXIS2_PLACEMENT_3D('',#932,#697,#698);
#579=AXIS2_PLACEMENT_3D('',#933,#699,#700);
#580=AXIS2_PLACEMENT_3D('',#935,#701,#702);
#581=AXIS2_PLACEMENT_3D('',#936,#703,#704);
#582=AXIS2_PLACEMENT_3D('',#937,#705,#706);
#583=AXIS2_PLACEMENT_3D('',#938,#707,#708);
#584=AXIS2_PLACEMENT_3D('',#939,#709,#710);
#585=AXIS2_PLACEMENT_3D('',#940,#711,#712);
#586=AXIS2_PLACEMENT_3D('',#941,#713,#714);
#587=AXIS2_PLACEMENT_3D('',#942,#715,#716);
#588=AXIS2_PLACEMENT_3D('',#943,#717,#718);
#589=DIRECTION('',(0.,0.,1.));
#590=DIRECTION('',(1.,0.,0.));
#591=DIRECTION('',(1.,3.94745964311167E-15,0.));
#592=DIRECTION('',(-3.94745964311167E-15,1.,0.));
#593=DIRECTION('',(1.,3.94745964311167E-15,0.));
#594=DIRECTION('',(-3.94745964311167E-15,1.,0.));
#595=DIRECTION('',(0.,-1.61821219773955E-16,1.));
#596=DIRECTION('',(0.,-1.,0.));
#597=DIRECTION('',(0.,1.61821219773955E-16,-1.));
#598=DIRECTION('',(1.,0.,0.));
#599=DIRECTION('',(0.,0.,-1.));
#600=DIRECTION('',(0.,-1.,0.));
#601=DIRECTION('',(0.,0.,-1.));
#602=DIRECTION('',(0.,1.,0.));
#603=DIRECTION('',(1.,0.,0.));
#604=DIRECTION('',(0.,0.,-1.));
#605=DIRECTION('',(0.,-1.61821219773956E-16,-1.));
#606=DIRECTION('',(0.,1.,0.));
#607=DIRECTION('',(0.,1.61821219773956E-16,1.));
#608=DIRECTION('',(1.,0.,0.));
#609=DIRECTION('',(0.,0.,-1.));
#610=DIRECTION('',(0.,1.,0.));
#611=DIRECTION('',(0.,0.,1.));
#612=DIRECTION('',(0.,-1.,0.));
#613=DIRECTION('',(1.,0.,0.));
#614=DIRECTION('',(0.,0.,-1.));
#615=DIRECTION('',(1.,3.94745964311167E-15,0.));
#616=DIRECTION('',(-3.94745964311167E-15,1.,0.));
#617=DIRECTION('',(1.,3.94745964311167E-15,0.));
#618=DIRECTION('',(-3.94745964311167E-15,1.,0.));
#619=DIRECTION('',(1.,3.94745964311167E-15,0.));
#620=DIRECTION('',(-3.94745964311167E-15,1.,0.));
#621=DIRECTION('',(1.,3.94745964311167E-15,0.));
#622=DIRECTION('',(-3.94745964311167E-15,1.,0.));
#623=DIRECTION('',(-1.,-3.94745964311167E-15,0.));
#624=DIRECTION('',(3.94745964311167E-15,-1.,0.));
#625=DIRECTION('',(1.,3.94745964311167E-15,0.));
#626=DIRECTION('',(-3.94745964311167E-15,1.,0.));
#627=DIRECTION('',(1.,3.94745964311167E-15,0.));
#628=DIRECTION('',(-3.94745964311167E-15,1.,0.));
#629=DIRECTION('',(1.,3.94745964311167E-15,0.));
#630=DIRECTION('',(-3.94745964311167E-15,1.,0.));
#631=DIRECTION('',(1.,3.94745964311167E-15,0.));
#632=DIRECTION('',(-3.94745964311167E-15,1.,0.));
#633=DIRECTION('',(1.,3.94745964311167E-15,0.));
#634=DIRECTION('',(-3.94745964311167E-15,1.,0.));
#635=DIRECTION('',(1.,3.94745964311167E-15,0.));
#636=DIRECTION('',(-3.94745964311167E-15,1.,0.));
#637=DIRECTION('',(1.,3.94745964311167E-15,0.));
#638=DIRECTION('',(-3.94745964311167E-15,1.,0.));
#639=DIRECTION('',(1.,3.94745964311167E-15,0.));
#640=DIRECTION('',(-3.94745964311167E-15,1.,0.));
#641=DIRECTION('',(1.,3.94745964311167E-15,0.));
#642=DIRECTION('',(-3.94745964311167E-15,1.,0.));
#643=DIRECTION('',(-1.,-3.94745964311167E-15,0.));
#644=DIRECTION('',(3.94745964311167E-15,-1.,0.));
#645=DIRECTION('',(1.,3.94745964311167E-15,0.));
#646=DIRECTION('',(-3.94745964311167E-15,1.,0.));
#647=DIRECTION('',(-1.,-3.94745964311167E-15,0.));
#648=DIRECTION('',(3.94745964311167E-15,-1.,0.));
#649=DIRECTION('',(0.,-1.,-1.61821219773955E-16));
#650=DIRECTION('',(0.,1.61821219773955E-16,-1.));
#651=DIRECTION('',(-1.,0.,0.));
#652=DIRECTION('',(-1.,0.,0.));
#653=DIRECTION('',(-1.,0.,0.));
#654=DIRECTION('',(0.,0.,1.));
#655=DIRECTION('',(-1.,0.,0.));
#656=DIRECTION('',(0.,0.,-1.));
#657=DIRECTION('',(-1.,0.,0.));
#658=DIRECTION('',(-1.,0.,0.));
#659=DIRECTION('',(0.,-1.,0.));
#660=DIRECTION('',(0.,0.,-1.));
#661=DIRECTION('',(-1.,0.,0.));
#662=DIRECTION('',(0.,0.,1.));
#663=DIRECTION('',(1.,0.,0.));
#664=DIRECTION('',(-1.,0.,0.));
#665=DIRECTION('',(-1.,0.,0.));
#666=DIRECTION('',(0.,0.,1.));
#667=DIRECTION('',(-1.,0.,0.));
#668=DIRECTION('',(0.,-1.,1.61821219773956E-16));
#669=DIRECTION('',(0.,-1.61821219773956E-16,-1.));
#670=DIRECTION('',(-1.,0.,0.));
#671=DIRECTION('',(0.,0.,1.));
#672=DIRECTION('',(1.,0.,0.));
#673=DIRECTION('',(-1.,0.,0.));
#674=DIRECTION('',(0.,1.,-1.61821219773956E-16));
#675=DIRECTION('',(0.,1.61821219773956E-16,1.));
#676=DIRECTION('',(-1.,0.,0.));
#677=DIRECTION('',(-1.,0.,0.));
#678=DIRECTION('',(0.,0.,1.));
#679=DIRECTION('',(-1.,0.,0.));
#680=DIRECTION('',(0.,0.,1.));
#681=DIRECTION('',(1.,0.,0.));
#682=DIRECTION('',(-1.,0.,0.));
#683=DIRECTION('',(0.,1.,0.));
#684=DIRECTION('',(0.,0.,1.));
#685=DIRECTION('',(-1.,0.,0.));
#686=DIRECTION('',(0.,0.,-1.));
#687=DIRECTION('',(-1.,0.,0.));
#688=DIRECTION('',(-1.,0.,0.));
#689=DIRECTION('',(-1.,0.,0.));
#690=DIRECTION('',(0.,0.,1.));
#691=DIRECTION('',(-1.,0.,0.));
#692=DIRECTION('',(0.,1.,1.61821219773955E-16));
#693=DIRECTION('',(0.,-1.61821219773955E-16,1.));
#694=DIRECTION('',(-1.,0.,0.));
#695=DIRECTION('',(0.,0.,-1.));
#696=DIRECTION('',(-1.,0.,0.));
#697=DIRECTION('',(-1.,0.,0.));
#698=DIRECTION('',(0.,0.,1.));
#699=DIRECTION('',(1.,0.,0.));
#700=DIRECTION('',(0.,0.,-1.));
#701=DIRECTION('',(1.,0.,0.));
#702=DIRECTION('',(0.,0.,-1.));
#703=DIRECTION('',(1.,0.,0.));
#704=DIRECTION('',(0.,0.,-1.));
#705=DIRECTION('',(1.,0.,0.));
#706=DIRECTION('',(0.,0.,-1.));
#707=DIRECTION('',(1.,0.,0.));
#708=DIRECTION('',(0.,0.,-1.));
#709=DIRECTION('',(1.,0.,0.));
#710=DIRECTION('',(0.,0.,-1.));
#711=DIRECTION('',(-1.,0.,0.));
#712=DIRECTION('',(0.,0.,1.));
#713=DIRECTION('',(-1.,0.,0.));
#714=DIRECTION('',(0.,0.,1.));
#715=DIRECTION('',(-1.,0.,0.));
#716=DIRECTION('',(0.,0.,1.));
#717=DIRECTION('',(-1.,0.,0.));
#718=DIRECTION('',(0.,0.,1.));
#719=CARTESIAN_POINT('',(0.,0.,0.));
#720=CARTESIAN_POINT('',(-0.599999999999997,1.18426526018365E-29,0.));
#721=CARTESIAN_POINT('',(-0.599999999999994,2.46519032881566E-29,0.));
#722=CARTESIAN_POINT('',(-0.6,1.52000000000001,0.));
#723=CARTESIAN_POINT('',(-0.6,0.149999999999992,0.469999999999999));
#724=CARTESIAN_POINT('',(-0.6,0.149999999999992,0.469999999999999));
#725=CARTESIAN_POINT('',(-0.6,0.149999999999991,0.805));
#726=CARTESIAN_POINT('',(-0.6,0.149999999999991,0.805));
#727=CARTESIAN_POINT('',(-0.6,-0.149999999999999,0.805));
#728=CARTESIAN_POINT('',(-0.6,-0.149999999999999,0.805));
#729=CARTESIAN_POINT('',(-0.6,-0.149999999999999,0.469999999999999));
#730=CARTESIAN_POINT('',(-0.6,-0.469999999999999,0.469999999999999));
#731=CARTESIAN_POINT('',(-0.6,-0.469999999999999,0.149999999999999));
#732=CARTESIAN_POINT('',(-0.6,-0.469999999999999,0.149999999999999));
#733=CARTESIAN_POINT('',(-0.6,-0.805,0.149999999999999));
#734=CARTESIAN_POINT('',(-0.6,-0.805,0.149999999999999));
#735=CARTESIAN_POINT('',(-0.6,-0.805,-0.15));
#736=CARTESIAN_POINT('',(-0.6,-0.805,-0.15));
#737=CARTESIAN_POINT('',(-0.6,-0.469999999999999,-0.15));
#738=CARTESIAN_POINT('',(-0.6,-0.469999999999998,-0.47));
#739=CARTESIAN_POINT('',(-0.6,-0.149999999999998,-0.47));
#740=CARTESIAN_POINT('',(-0.6,-0.149999999999999,-0.47));
#741=CARTESIAN_POINT('',(-0.6,-0.149999999999999,-0.805));
#742=CARTESIAN_POINT('',(-0.6,-0.149999999999999,-0.805));
#743=CARTESIAN_POINT('',(-0.6,0.149999999999991,-0.805));
#744=CARTESIAN_POINT('',(-0.6,0.149999999999991,-0.805));
#745=CARTESIAN_POINT('',(-0.6,0.149999999999992,-0.47));
#746=CARTESIAN_POINT('',(-0.6,0.469999999999991,-0.47));
#747=CARTESIAN_POINT('',(-0.6,0.469999999999991,-0.15));
#748=CARTESIAN_POINT('',(-0.6,0.469999999999992,-0.15));
#749=CARTESIAN_POINT('',(-0.6,0.805,-0.15));
#750=CARTESIAN_POINT('',(-0.6,0.805,-0.15));
#751=CARTESIAN_POINT('',(-0.6,0.805,0.149999999999999));
#752=CARTESIAN_POINT('',(-0.6,0.805,0.149999999999999));
#753=CARTESIAN_POINT('',(-0.6,0.469999999999992,0.149999999999999));
#754=CARTESIAN_POINT('',(-0.6,0.469999999999992,0.469999999999999));
#755=CARTESIAN_POINT('',(-0.599999999999994,2.46519032881566E-29,0.));
#756=CARTESIAN_POINT('',(-0.322871870788979,1.09395210603154E-15,0.));
#757=CARTESIAN_POINT('',(-0.322871870788987,2.,0.));
#758=CARTESIAN_POINT('',(3.,1.4210854715202E-14,0.));
#759=CARTESIAN_POINT('',(7.80625564189563E-15,2.36847578586703E-15,0.));
#760=CARTESIAN_POINT('',(-8.86636443276942E-17,2.,0.));
#761=CARTESIAN_POINT('',(-2.05017812140688E-15,2.,0.));
#762=CARTESIAN_POINT('',(3.90312782094782E-15,2.36847578586702E-15,0.));
#763=CARTESIAN_POINT('',(5.43546689139717E-17,0.974999999999994,0.));
#764=CARTESIAN_POINT('',(0.100000000000004,2.71050543121376E-15,0.));
#765=CARTESIAN_POINT('',(0.100000000000003,2.76322175017818E-15,0.));
#766=CARTESIAN_POINT('',(0.0999999999999998,0.875,0.));
#767=CARTESIAN_POINT('',(3.,1.4210854715202E-14,0.));
#768=CARTESIAN_POINT('',(0.800000000000015,5.52644350035639E-15,0.));
#769=CARTESIAN_POINT('',(0.800000000000011,0.875,0.));
#770=CARTESIAN_POINT('',(0.800000000000015,5.52644350035639E-15,0.));
#771=CARTESIAN_POINT('',(1.19999999999996,7.10542735760086E-15,0.));
#772=CARTESIAN_POINT('',(1.19999999999996,1.,0.));
#773=CARTESIAN_POINT('',(3.,1.4210854715202E-14,0.));
#774=CARTESIAN_POINT('',(2.7545,1.32417533728181E-14,0.));
#775=CARTESIAN_POINT('',(2.7545,1.,0.));
#776=CARTESIAN_POINT('',(2.7545,1.32417533728181E-14,0.));
#777=CARTESIAN_POINT('',(3.,1.4210854715202E-14,0.));
#778=CARTESIAN_POINT('',(3.,0.7545,0.));
#779=CARTESIAN_POINT('',(3.,0.7545,0.));
#780=CARTESIAN_POINT('',(0.6,0.149999999999992,0.469999999999999));
#781=CARTESIAN_POINT('',(0.6,0.149999999999992,0.469999999999999));
#782=CARTESIAN_POINT('',(-0.0755420509365688,0.149999999999992,0.469999999999999));
#783=CARTESIAN_POINT('',(-0.0755420509365686,0.149999999999992,0.469999999999999));
#784=CARTESIAN_POINT('',(-0.241046333398362,0.149999999999992,0.583174583068611));
#785=CARTESIAN_POINT('',(-0.408041630191536,0.149999999999992,0.694230540342979));
#786=CARTESIAN_POINT('',(-0.575201179540649,0.149999999999991,0.805));
#787=CARTESIAN_POINT('',(-0.575201179540649,0.149999999999991,0.805));
#788=CARTESIAN_POINT('',(0.6,0.149999999999991,0.805));
#789=CARTESIAN_POINT('',(0.6,0.469999999999992,0.469999999999999));
#790=CARTESIAN_POINT('',(-0.0755420509365689,0.149999999999992,0.469999999999999));
#791=CARTESIAN_POINT('',(-0.0129100433831446,0.149999999999992,0.427171190762115));
#792=CARTESIAN_POINT('',(0.0486422461081592,0.156435275026354,0.384406903805828));
#793=CARTESIAN_POINT('',(0.100218385311468,0.180855740293865,0.332902964733018));
#794=CARTESIAN_POINT('',(0.100218385311468,0.180855740293865,0.332902964733018));
#795=CARTESIAN_POINT('',(0.6,0.469999999999992,0.149999999999999));
#796=CARTESIAN_POINT('',(-0.0755420509365617,0.469999999999991,0.149999999999999));
#797=CARTESIAN_POINT('',(0.100218385311468,0.332902964733015,0.18085574029387));
#798=CARTESIAN_POINT('',(0.0490658284705896,0.383983914405612,0.156635834403805));
#799=CARTESIAN_POINT('',(-0.0130860907349923,0.42729157487151,0.149999999999999));
#800=CARTESIAN_POINT('',(-0.0755420509365618,0.469999999999991,0.149999999999999));
#801=CARTESIAN_POINT('',(0.100218385311468,0.332902964733015,0.18085574029387));
#802=CARTESIAN_POINT('',(0.100218385311468,0.332902964733015,0.18085574029387));
#803=CARTESIAN_POINT('',(0.154928309402515,0.278269656929999,0.206759988001343));
#804=CARTESIAN_POINT('',(0.154960345819023,0.206775156716754,0.278237665377591));
#805=CARTESIAN_POINT('',(0.100218385311468,0.180855740293865,0.332902964733018));
#806=CARTESIAN_POINT('',(0.6,0.805,0.149999999999999));
#807=CARTESIAN_POINT('',(0.6,0.805,0.149999999999999));
#808=CARTESIAN_POINT('',(-0.575201179540627,0.805,0.150000000000033));
#809=CARTESIAN_POINT('',(-0.575201179540598,0.805000000000043,0.149999999999999));
#810=CARTESIAN_POINT('',(-0.408047962005506,0.694234736164442,0.149999999999999));
#811=CARTESIAN_POINT('',(-0.241077086560277,0.583195612592595,0.149999999999999));
#812=CARTESIAN_POINT('',(-0.0755420509365618,0.469999999999992,0.149999999999999));
#813=CARTESIAN_POINT('',(0.6,0.805,-0.15));
#814=CARTESIAN_POINT('',(0.6,0.805,-0.15));
#815=CARTESIAN_POINT('',(-0.575201179540651,0.805,-0.15));
#816=CARTESIAN_POINT('',(-0.575201179539977,0.805,-0.150000000000244));
#817=CARTESIAN_POINT('',(-0.548056156125431,0.805,-0.0534652474995588));
#818=CARTESIAN_POINT('',(-0.547705245524433,0.805,0.0522173182723799));
#819=CARTESIAN_POINT('',(-0.575201179540646,0.805,0.150000000000025));
#820=CARTESIAN_POINT('',(0.6,0.469999999999992,-0.15));
#821=CARTESIAN_POINT('',(0.6,0.469999999999991,-0.15));
#822=CARTESIAN_POINT('',(-0.0755420509365585,0.469999999999993,-0.15));
#823=CARTESIAN_POINT('',(-0.0755420509365602,0.469999999999991,-0.15));
#824=CARTESIAN_POINT('',(-0.241046333398357,0.583174583068606,-0.15));
#825=CARTESIAN_POINT('',(-0.408041630191534,0.694230540342976,-0.15));
#826=CARTESIAN_POINT('',(-0.575201179540651,0.805,-0.15));
#827=CARTESIAN_POINT('',(0.6,0.469999999999991,-0.47));
#828=CARTESIAN_POINT('',(-0.0755420509365608,0.46999999999999,-0.15));
#829=CARTESIAN_POINT('',(-0.0129100433836546,0.427171190762461,-0.15));
#830=CARTESIAN_POINT('',(0.0486422461075318,0.384406903806452,-0.156435275026064));
#831=CARTESIAN_POINT('',(0.100218385311468,0.332902964733014,-0.180855740293871));
#832=CARTESIAN_POINT('',(0.100218385311468,0.332902964733014,-0.180855740293872));
#833=CARTESIAN_POINT('',(0.6,0.149999999999992,-0.47));
#834=CARTESIAN_POINT('',(-0.0755420509365709,0.149999999999992,-0.47));
#835=CARTESIAN_POINT('',(0.100218385311468,0.180855740293865,-0.332902964733017));
#836=CARTESIAN_POINT('',(0.0490658284720958,0.156635834404513,-0.383983914404111));
#837=CARTESIAN_POINT('',(-0.0130860907348738,0.149999999999992,-0.427291574871432));
#838=CARTESIAN_POINT('',(-0.0755420509365709,0.149999999999992,-0.47));
#839=CARTESIAN_POINT('',(0.100218385311468,0.180855740293866,-0.332902964733017));
#840=CARTESIAN_POINT('',(0.100218385311468,0.180855740293866,-0.332902964733017));
#841=CARTESIAN_POINT('',(0.154928309402594,0.206759988001378,-0.278269656929922));
#842=CARTESIAN_POINT('',(0.154960345819016,0.278237665377593,-0.206775156716757));
#843=CARTESIAN_POINT('',(0.100218385311468,0.332902964733014,-0.180855740293872));
#844=CARTESIAN_POINT('',(0.6,0.149999999999991,-0.805));
#845=CARTESIAN_POINT('',(0.6,0.149999999999991,-0.805));
#846=CARTESIAN_POINT('',(-0.575201179540625,0.150000000000026,-0.805));
#847=CARTESIAN_POINT('',(-0.575201179540596,0.149999999999991,-0.805000000000043));
#848=CARTESIAN_POINT('',(-0.408047962005508,0.149999999999992,-0.694234736164445));
#849=CARTESIAN_POINT('',(-0.241077086560283,0.149999999999992,-0.5831956125926));
#850=CARTESIAN_POINT('',(-0.075542050936571,0.149999999999992,-0.47));
#851=CARTESIAN_POINT('',(0.6,-0.149999999999999,-0.805));
#852=CARTESIAN_POINT('',(0.6,-0.149999999999999,-0.805));
#853=CARTESIAN_POINT('',(-0.575201179540651,-0.149999999999999,-0.805));
#854=CARTESIAN_POINT('',(-0.575201179539977,-0.150000000000243,-0.805));
#855=CARTESIAN_POINT('',(-0.548056156125432,-0.0534652474995601,-0.805));
#856=CARTESIAN_POINT('',(-0.547705245524433,0.0522173182723751,-0.805));
#857=CARTESIAN_POINT('',(-0.575201179540644,0.150000000000018,-0.805));
#858=CARTESIAN_POINT('',(0.6,-0.149999999999999,-0.47));
#859=CARTESIAN_POINT('',(0.6,-0.149999999999998,-0.47));
#860=CARTESIAN_POINT('',(-0.0755420509365702,-0.149999999999998,-0.470000000000002));
#861=CARTESIAN_POINT('',(-0.075542050936572,-0.149999999999999,-0.469999999999999));
#862=CARTESIAN_POINT('',(-0.241046333398365,-0.149999999999999,-0.583174583068611));
#863=CARTESIAN_POINT('',(-0.408041630191537,-0.149999999999999,-0.694230540342979));
#864=CARTESIAN_POINT('',(-0.575201179540651,-0.149999999999999,-0.805));
#865=CARTESIAN_POINT('',(0.6,-0.469999999999998,-0.47));
#866=CARTESIAN_POINT('',(-0.0755420509365726,-0.149999999999998,-0.469999999999999));
#867=CARTESIAN_POINT('',(-0.0129100433836618,-0.149999999999999,-0.427171190762466));
#868=CARTESIAN_POINT('',(0.0486422461075294,-0.156435275026063,-0.384406903806455));
#869=CARTESIAN_POINT('',(0.100218385311468,-0.180855740293875,-0.332902964733012));
#870=CARTESIAN_POINT('',(0.100218385311468,-0.180855740293875,-0.332902964733012));
#871=CARTESIAN_POINT('',(0.6,-0.469999999999999,-0.15));
#872=CARTESIAN_POINT('',(-0.0755420509365728,-0.469999999999998,-0.15));
#873=CARTESIAN_POINT('',(0.100218385311468,-0.332902964733011,-0.180855740293876));
#874=CARTESIAN_POINT('',(0.0490658284720965,-0.383983914404107,-0.156635834404522));
#875=CARTESIAN_POINT('',(-0.0130860907348744,-0.427291574871429,-0.15));
#876=CARTESIAN_POINT('',(-0.0755420509365727,-0.469999999999998,-0.15));
#877=CARTESIAN_POINT('',(0.100218385311468,-0.332902964733011,-0.180855740293876));
#878=CARTESIAN_POINT('',(0.100218385311468,-0.332902964733012,-0.180855740293876));
#879=CARTESIAN_POINT('',(0.154928309402578,-0.27826965692993,-0.206759988001383));
#880=CARTESIAN_POINT('',(0.154960345819095,-0.206775156716801,-0.278237665377509));
#881=CARTESIAN_POINT('',(0.100218385311468,-0.180855740293875,-0.332902964733012));
#882=CARTESIAN_POINT('',(0.6,-0.805,-0.15));
#883=CARTESIAN_POINT('',(0.6,-0.805,-0.15));
#884=CARTESIAN_POINT('',(-0.575201179540627,-0.805,-0.150000000000034));
#885=CARTESIAN_POINT('',(-0.575201179540599,-0.805000000000043,-0.15));
#886=CARTESIAN_POINT('',(-0.40804796200551,-0.694234736164444,-0.15));
#887=CARTESIAN_POINT('',(-0.241077086560284,-0.583195612592599,-0.15));
#888=CARTESIAN_POINT('',(-0.0755420509365723,-0.469999999999999,-0.15));
#889=CARTESIAN_POINT('',(0.6,-0.805,0.149999999999999));
#890=CARTESIAN_POINT('',(0.6,-0.805,0.149999999999999));
#891=CARTESIAN_POINT('',(-0.575201179540651,-0.805,0.149999999999999));
#892=CARTESIAN_POINT('',(-0.575201179539977,-0.805,0.150000000000243));
#893=CARTESIAN_POINT('',(-0.548056156125431,-0.805,0.0534652474995573));
#894=CARTESIAN_POINT('',(-0.547705245524433,-0.805,-0.0522173182723813));
#895=CARTESIAN_POINT('',(-0.575201179540646,-0.805,-0.150000000000027));
#896=CARTESIAN_POINT('',(0.6,-0.469999999999999,0.149999999999999));
#897=CARTESIAN_POINT('',(0.6,-0.469999999999999,0.149999999999999));
#898=CARTESIAN_POINT('',(-0.0755420509365682,-0.47,0.149999999999998));
#899=CARTESIAN_POINT('',(-0.07554205093657,-0.469999999999998,0.149999999999999));
#900=CARTESIAN_POINT('',(-0.241046333398364,-0.58317458306861,0.149999999999999));
#901=CARTESIAN_POINT('',(-0.408041630191537,-0.694230540342978,0.149999999999999));
#902=CARTESIAN_POINT('',(-0.575201179540651,-0.805,0.149999999999999));
#903=CARTESIAN_POINT('',(0.6,-0.469999999999999,0.469999999999999));
#904=CARTESIAN_POINT('',(-0.0755420509365704,-0.469999999999997,0.149999999999999));
#905=CARTESIAN_POINT('',(-0.0129100433831173,-0.427171190762094,0.149999999999999));
#906=CARTESIAN_POINT('',(0.0486422461082174,-0.38440690380579,0.156435275026363));
#907=CARTESIAN_POINT('',(0.100218385311537,-0.332902964732944,0.180855740293907));
#908=CARTESIAN_POINT('',(0.100218385311587,-0.332902964732996,0.180855740293849));
#909=CARTESIAN_POINT('',(0.6,-0.149999999999999,0.469999999999999));
#910=CARTESIAN_POINT('',(-0.0755420509365722,-0.149999999999999,0.469999999999999));
#911=CARTESIAN_POINT('',(0.100218385311468,-0.180855740293874,0.332902964733012));
#912=CARTESIAN_POINT('',(0.049065828470588,-0.156635834403806,0.383983914405614));
#913=CARTESIAN_POINT('',(-0.0130860907349987,-0.149999999999999,0.427291574871515));
#914=CARTESIAN_POINT('',(-0.0755420509365723,-0.149999999999999,0.469999999999999));
#915=CARTESIAN_POINT('',(0.100218385311468,-0.180855740293874,0.332902964733013));
#916=CARTESIAN_POINT('',(0.100218385311468,-0.180855740293874,0.332902964733013));
#917=CARTESIAN_POINT('',(0.154928309402483,-0.206759988001336,0.278269656930026));
#918=CARTESIAN_POINT('',(0.154960345819112,-0.278237665377462,0.206775156716834));
#919=CARTESIAN_POINT('',(0.100218385311516,-0.332902964732965,0.180855740293897));
#920=CARTESIAN_POINT('',(0.6,-0.149999999999999,0.805));
#921=CARTESIAN_POINT('',(0.6,-0.149999999999999,0.805));
#922=CARTESIAN_POINT('',(-0.575201179540627,-0.150000000000033,0.805));
#923=CARTESIAN_POINT('',(-0.575201179540598,-0.149999999999999,0.805000000000043));
#924=CARTESIAN_POINT('',(-0.40804796200551,-0.149999999999999,0.694234736164444));
#925=CARTESIAN_POINT('',(-0.241077086560284,-0.149999999999999,0.583195612592599));
#926=CARTESIAN_POINT('',(-0.0755420509365719,-0.149999999999999,0.469999999999999));
#927=CARTESIAN_POINT('',(0.6,0.149999999999991,0.805));
#928=CARTESIAN_POINT('',(-0.575201179539975,0.150000000000236,0.805));
#929=CARTESIAN_POINT('',(-0.548056156125431,0.0534652474995527,0.805));
#930=CARTESIAN_POINT('',(-0.547705245524433,-0.0522173182723813,0.805));
#931=CARTESIAN_POINT('',(-0.575201179540646,-0.150000000000024,0.805));
#932=CARTESIAN_POINT('',(0.27,0.170000000000002,0.));
#933=CARTESIAN_POINT('',(0.27,0.,0.));
#934=CARTESIAN_POINT('',(0.27,0.,-0.170000000000002));
#935=CARTESIAN_POINT('',(-0.139950577478821,0.,0.));
#936=CARTESIAN_POINT('',(0.100218385311468,0.,0.));
#937=CARTESIAN_POINT('',(0.100218385311468,0.,0.));
#938=CARTESIAN_POINT('',(0.100218385311468,0.,0.));
#939=CARTESIAN_POINT('',(0.100218385311468,0.,0.));
#940=CARTESIAN_POINT('',(-0.6,0.,0.));
#941=CARTESIAN_POINT('',(-0.6,0.,0.));
#942=CARTESIAN_POINT('',(-0.6,0.,0.));
#943=CARTESIAN_POINT('',(-0.6,0.,0.));
#944=MECHANICAL_DESIGN_GEOMETRIC_PRESENTATION_REPRESENTATION('',(#527),
#945);
#945=(
GEOMETRIC_REPRESENTATION_CONTEXT(3)
GLOBAL_UNCERTAINTY_ASSIGNED_CONTEXT((#946))
GLOBAL_UNIT_ASSIGNED_CONTEXT((#949,#948,#947))
REPRESENTATION_CONTEXT('C-CBSAR2-3','TOP_LEVEL_ASSEMBLY_PART')
);
#946=UNCERTAINTY_MEASURE_WITH_UNIT(LENGTH_MEASURE(0.005),#949,
'DISTANCE_ACCURACY_VALUE','Maximum Tolerance applied to model');
#947=(
NAMED_UNIT(*)
SI_UNIT($,.STERADIAN.)
SOLID_ANGLE_UNIT()
);
#948=(
NAMED_UNIT(*)
PLANE_ANGLE_UNIT()
SI_UNIT($,.RADIAN.)
);
#949=(
LENGTH_UNIT()
NAMED_UNIT(*)
SI_UNIT(.MILLI.,.METRE.)
);
#950=PRODUCT_DEFINITION_SHAPE('','',#951);
#951=PRODUCT_DEFINITION('','',#953,#952);
#952=DESIGN_CONTEXT('',#959,'design');
#953=PRODUCT_DEFINITION_FORMATION_WITH_SPECIFIED_SOURCE('','',#955,
 .NOT_KNOWN.);
#954=PRODUCT_RELATED_PRODUCT_CATEGORY('','',(#955));
#955=PRODUCT('C-CBSAR2-3','C-CBSAR2-3','C-CBSAR2-3',(#957));
#956=PRODUCT_CATEGORY('','');
#957=MECHANICAL_CONTEXT('',#959,'mechanical');
#958=APPLICATION_PROTOCOL_DEFINITION('international standard',
'config_control_design',2010,#959);
#959=APPLICATION_CONTEXT(
'configuration controlled 3D designs of mechanical parts and assemblie
s');
ENDSEC;
END-ISO-10303-21;
