ISO-10303-21;
HEADER;
FILE_DESCRIPTION (( 'STEP AP203' ),
    '1' );
FILE_NAME ('CSPPNR-RENY-M2-5_203.STEP',
    '2014-03-11T08:17:06',
    ( 'guan-li' ),
    ( '' ),
    'SwSTEP 2.0',
    'SolidWorks 2007',
    '' );
FILE_SCHEMA (( 'CONFIG_CONTROL_DESIGN' ));
ENDSEC;

DATA;
#1 = EDGE_CURVE ( 'NONE', #855, #73, #134, .T. ) ;
#2 = EDGE_CURVE ( 'NONE', #73, #765, #130, .T. ) ;
#3 = ORIENTED_EDGE ( 'NONE', *, *, #1, .F. ) ;
#4 = ADVANCED_FACE ( 'NONE', ( #126 ), #125, .T. ) ;
#5 = ORIENTED_EDGE ( 'NONE', *, *, #18, .T. ) ;
#6 = ORIENTED_EDGE ( 'NONE', *, *, #925, .T. ) ;
#7 = EDGE_LOOP ( 'NONE', ( #6, #9, #8, #5, #726 ) ) ;
#8 = ORIENTED_EDGE ( 'NONE', *, *, #2, .F. ) ;
#9 = ORIENTED_EDGE ( 'NONE', *, *, #767, .T. ) ;
#10 = EDGE_CURVE ( 'NONE', #855, #903, #120, .T. ) ;
#11 = ORIENTED_EDGE ( 'NONE', *, *, #99, .T. ) ;
#12 = EDGE_CURVE ( 'NONE', #802, #923, #116, .T. ) ;
#13 = EDGE_LOOP ( 'NONE', ( #11, #15, #17, #803, #805 ) ) ;
#14 = ORIENTED_EDGE ( 'NONE', *, *, #26, .F. ) ;
#15 = ORIENTED_EDGE ( 'NONE', *, *, #927, .T. ) ;
#16 = ADVANCED_FACE ( 'NONE', ( #112 ), #111, .T. ) ;
#17 = ORIENTED_EDGE ( 'NONE', *, *, #12, .F. ) ;
#18 = EDGE_CURVE ( 'NONE', #73, #802, #106, .T. ) ;
#19 = CARTESIAN_POINT ( 'NONE',  ( 0.1671597256434764800, -0.9999999999999991100, 1.181262574866139600 ) ) ;
#20 = CARTESIAN_POINT ( 'NONE',  ( 0.2499999999999993600, -0.9999999999999991100, 1.175384852654416200 ) ) ;
#21 = ORIENTED_EDGE ( 'NONE', *, *, #888, .T. ) ;
#22 = ORIENTED_EDGE ( 'NONE', *, *, #26, .T. ) ;
#23 = EDGE_CURVE ( 'NONE', #63, #743, #166, .T. ) ;
#24 = EDGE_CURVE ( 'NONE', #63, #922, #162, .T. ) ;
#25 = ORIENTED_EDGE ( 'NONE', *, *, #896, .T. ) ;
#26 = EDGE_CURVE ( 'NONE', #807, #63, #158, .T. ) ;
#27 = ADVANCED_FACE ( 'NONE', ( #154 ), #153, .T. ) ;
#28 = ORIENTED_EDGE ( 'NONE', *, *, #916, .T. ) ;
#29 = EDGE_LOOP ( 'NONE', ( #65, #46, #50, #42, #54 ) ) ;
#30 = ADVANCED_FACE ( 'NONE', ( #148 ), #147, .T. ) ;
#31 = ORIENTED_EDGE ( 'NONE', *, *, #36, .T. ) ;
#32 = VERTEX_POINT ( 'NONE', #142 ) ;
#33 = ADVANCED_FACE ( 'NONE', ( #141 ), #140, .T. ) ;
#34 = EDGE_CURVE ( 'NONE', #783, #32, #139, .T. ) ;
#35 = ORIENTED_EDGE ( 'NONE', *, *, #879, .T. ) ;
#36 = EDGE_CURVE ( 'NONE', #32, #912, #197, .T. ) ;
#37 = ORIENTED_EDGE ( 'NONE', *, *, #910, .T. ) ;
#38 = ORIENTED_EDGE ( 'NONE', *, *, #787, .F. ) ;
#39 = ORIENTED_EDGE ( 'NONE', *, *, #47, .T. ) ;
#40 = ORIENTED_EDGE ( 'NONE', *, *, #860, .F. ) ;
#41 = ORIENTED_EDGE ( 'NONE', *, *, #34, .T. ) ;
#42 = ORIENTED_EDGE ( 'NONE', *, *, #43, .T. ) ;
#43 = EDGE_CURVE ( 'NONE', #32, #836, #193, .T. ) ;
#44 = EDGE_LOOP ( 'NONE', ( #52, #40, #51, #39, #48 ) ) ;
#45 = ADVANCED_FACE ( 'NONE', ( #189 ), #188, .T. ) ;
#46 = ORIENTED_EDGE ( 'NONE', *, *, #750, .T. ) ;
#47 = EDGE_CURVE ( 'NONE', #49, #753, #183, .T. ) ;
#48 = ORIENTED_EDGE ( 'NONE', *, *, #757, .T. ) ;
#49 = VERTEX_POINT ( 'NONE', #179 ) ;
#50 = ORIENTED_EDGE ( 'NONE', *, *, #36, .F. ) ;
#51 = ORIENTED_EDGE ( 'NONE', *, *, #55, .T. ) ;
#52 = ORIENTED_EDGE ( 'NONE', *, *, #913, .T. ) ;
#53 = ADVANCED_FACE ( 'NONE', ( #178 ), #177, .T. ) ;
#54 = ORIENTED_EDGE ( 'NONE', *, *, #835, .T. ) ;
#55 = EDGE_CURVE ( 'NONE', #837, #49, #171, .T. ) ;
#56 = ORIENTED_EDGE ( 'NONE', *, *, #23, .T. ) ;
#57 = ORIENTED_EDGE ( 'NONE', *, *, #852, .T. ) ;
#58 = ORIENTED_EDGE ( 'NONE', *, *, #24, .T. ) ;
#59 = ORIENTED_EDGE ( 'NONE', *, *, #24, .F. ) ;
#60 = ORIENTED_EDGE ( 'NONE', *, *, #804, .F. ) ;
#61 = ADVANCED_FACE ( 'NONE', ( #167 ), #172, .T. ) ;
#62 = EDGE_LOOP ( 'NONE', ( #35, #38, #41, #31, #37 ) ) ;
#63 = VERTEX_POINT ( 'NONE', #228 ) ;
#64 = ADVANCED_FACE ( 'NONE', ( #227 ), #226, .T. ) ;
#65 = ORIENTED_EDGE ( 'NONE', *, *, #894, .T. ) ;
#66 = EDGE_CURVE ( 'NONE', #49, #786, #225, .T. ) ;
#67 = ORIENTED_EDGE ( 'NONE', *, *, #47, .F. ) ;
#68 = ORIENTED_EDGE ( 'NONE', *, *, #905, .T. ) ;
#69 = ORIENTED_EDGE ( 'NONE', *, *, #854, .T. ) ;
#70 = ORIENTED_EDGE ( 'NONE', *, *, #898, .T. ) ;
#71 = ORIENTED_EDGE ( 'NONE', *, *, #66, .T. ) ;
#72 = EDGE_LOOP ( 'NONE', ( #70, #77, #75, #76, #78 ) ) ;
#73 = VERTEX_POINT ( 'NONE', #217 ) ;
#74 = ORIENTED_EDGE ( 'NONE', *, *, #755, .T. ) ;
#75 = ORIENTED_EDGE ( 'NONE', *, *, #1, .T. ) ;
#76 = ORIENTED_EDGE ( 'NONE', *, *, #2, .T. ) ;
#77 = ORIENTED_EDGE ( 'NONE', *, *, #10, .F. ) ;
#78 = ORIENTED_EDGE ( 'NONE', *, *, #763, .T. ) ;
#79 = EDGE_LOOP ( 'NONE', ( #892, #884, #882, #94, #90, #911, #902, #908, #899, #748, #929, #924 ) ) ;
#80 = EDGE_CURVE ( 'NONE', #887, #95, #216, .T. ) ;
#81 = ADVANCED_FACE ( 'NONE', ( #211 ), #210, .T. ) ;
#82 = ORIENTED_EDGE ( 'NONE', *, *, #102, .F. ) ;
#83 = ADVANCED_FACE ( 'NONE', ( #205 ), #204, .T. ) ;
#84 = VERTEX_POINT ( 'NONE', #257 ) ;
#85 = EDGE_CURVE ( 'NONE', #864, #84, #256, .T. ) ;
#86 = ORIENTED_EDGE ( 'NONE', *, *, #85, .F. ) ;
#87 = VERTEX_POINT ( 'NONE', #251 ) ;
#88 = ORIENTED_EDGE ( 'NONE', *, *, #888, .F. ) ;
#89 = VERTEX_POINT ( 'NONE', #250 ) ;
#90 = ORIENTED_EDGE ( 'NONE', *, *, #913, .F. ) ;
#91 = EDGE_CURVE ( 'NONE', #89, #84, #249, .T. ) ;
#92 = ORIENTED_EDGE ( 'NONE', *, *, #889, .F. ) ;
#93 = ORIENTED_EDGE ( 'NONE', *, *, #99, .F. ) ;
#94 = ORIENTED_EDGE ( 'NONE', *, *, #91, .F. ) ;
#95 = VERTEX_POINT ( 'NONE', #248 ) ;
#96 = VERTEX_POINT ( 'NONE', #247 ) ;
#97 = ORIENTED_EDGE ( 'NONE', *, *, #98, .F. ) ;
#98 = EDGE_CURVE ( 'NONE', #96, #891, #240, .T. ) ;
#99 = EDGE_CURVE ( 'NONE', #100, #101, #235, .T. ) ;
#100 = VERTEX_POINT ( 'NONE', #234 ) ;
#101 = VERTEX_POINT ( 'NONE', #233 ) ;
#102 = EDGE_CURVE ( 'NONE', #817, #875, #284, .T. ) ;
#103 = DIRECTION ( 'NONE',  ( -1.000000000000000000, 0.0000000000000000000, 0.0000000000000000000 ) ) ;
#104 = VECTOR ( 'NONE', #103, 1000.000000000000000 ) ;
#105 = CARTESIAN_POINT ( 'NONE',  ( -1.000000000000000000, -0.2499999999999993600, 0.6500000000000000200 ) ) ;
#106 = LINE ( 'NONE', #105, #104 ) ;
#107 = DIRECTION ( 'NONE',  ( 0.0000000000000000000, 0.0000000000000000000, -1.000000000000000000 ) ) ;
#108 = DIRECTION ( 'NONE',  ( 1.000000000000000000, 0.0000000000000000000, 0.0000000000000000000 ) ) ;
#109 = CARTESIAN_POINT ( 'NONE',  ( -1.000000000000000000, 0.2499999999999997800, 0.6500000000000000200 ) ) ;
#110 = AXIS2_PLACEMENT_3D ( 'NONE', #109, #108, #107 ) ;
#111 = PLANE ( 'NONE',  #110 ) ;
#112 = FACE_OUTER_BOUND ( 'NONE', #13, .T. ) ;
#113 = DIRECTION ( 'NONE',  ( 0.0000000000000000000, 0.0000000000000000000, 1.000000000000000000 ) ) ;
#114 = VECTOR ( 'NONE', #113, 1000.000000000000000 ) ;
#115 = CARTESIAN_POINT ( 'NONE',  ( -1.000000000000000000, -0.2499999999999993600, 0.6500000000000000200 ) ) ;
#116 = LINE ( 'NONE', #115, #114 ) ;
#117 = DIRECTION ( 'NONE',  ( 0.0000000000000000000, 0.0000000000000000000, 1.000000000000000000 ) ) ;
#118 = VECTOR ( 'NONE', #117, 1000.000000000000000 ) ;
#119 = CARTESIAN_POINT ( 'NONE',  ( -0.2500000000000006700, -0.9999999999999991100, 0.6500000000000000200 ) ) ;
#120 = LINE ( 'NONE', #119, #118 ) ;
#121 = DIRECTION ( 'NONE',  ( 0.0000000000000000000, 0.0000000000000000000, 1.000000000000000000 ) ) ;
#122 = DIRECTION ( 'NONE',  ( 0.0000000000000000000, 1.000000000000000000, 0.0000000000000000000 ) ) ;
#123 = CARTESIAN_POINT ( 'NONE',  ( -1.000000000000000000, -0.2499999999999993600, 0.6500000000000000200 ) ) ;
#124 = AXIS2_PLACEMENT_3D ( 'NONE', #123, #122, #121 ) ;
#125 = PLANE ( 'NONE',  #124 ) ;
#126 = FACE_OUTER_BOUND ( 'NONE', #7, .T. ) ;
#127 = DIRECTION ( 'NONE',  ( 0.0000000000000000000, 0.0000000000000000000, 1.000000000000000000 ) ) ;
#128 = VECTOR ( 'NONE', #127, 1000.000000000000000 ) ;
#129 = CARTESIAN_POINT ( 'NONE',  ( -0.2500000000000003300, -0.2499999999999993600, 0.6500000000000000200 ) ) ;
#130 = LINE ( 'NONE', #129, #128 ) ;
#131 = DIRECTION ( 'NONE',  ( 4.336808689942018700E-016, 1.000000000000000000, 0.0000000000000000000 ) ) ;
#132 = VECTOR ( 'NONE', #131, 1000.000000000000000 ) ;
#133 = CARTESIAN_POINT ( 'NONE',  ( -0.2500000000000003300, -0.2499999999999993600, 0.6500000000000000200 ) ) ;
#134 = LINE ( 'NONE', #133, #132 ) ;
#135 = DIRECTION ( 'NONE',  ( 0.0000000000000000000, 0.0000000000000000000, -1.000000000000000000 ) ) ;
#136 = DIRECTION ( 'NONE',  ( 0.0000000000000000000, -1.000000000000000000, 0.0000000000000000000 ) ) ;
#137 = CARTESIAN_POINT ( 'NONE',  ( -0.2500000000000011100, 0.2499999999999997800, 0.6500000000000000200 ) ) ;
#138 = AXIS2_PLACEMENT_3D ( 'NONE', #137, #136, #135 ) ;
#139 = LINE ( 'NONE', #200, #199 ) ;
#140 = PLANE ( 'NONE',  #138 ) ;
#141 = FACE_OUTER_BOUND ( 'NONE', #811, .T. ) ;
#142 = CARTESIAN_POINT ( 'NONE',  ( 0.2499999999999993600, 0.2499999999999997800, 0.6500000000000000200 ) ) ;
#143 = DIRECTION ( 'NONE',  ( 1.000000000000000000, 2.891205793294682800E-016, 0.0000000000000000000 ) ) ;
#144 = DIRECTION ( 'NONE',  ( 2.891205793294682800E-016, -1.000000000000000000, 0.0000000000000000000 ) ) ;
#145 = CARTESIAN_POINT ( 'NONE',  ( 0.9999999999999983300, 0.2500000000000000000, 0.6500000000000000200 ) ) ;
#146 = AXIS2_PLACEMENT_3D ( 'NONE', #145, #144, #143 ) ;
#147 = PLANE ( 'NONE',  #146 ) ;
#148 = FACE_OUTER_BOUND ( 'NONE', #29, .T. ) ;
#149 = DIRECTION ( 'NONE',  ( 1.156482317317872300E-015, 1.000000000000000000, 0.0000000000000000000 ) ) ;
#150 = DIRECTION ( 'NONE',  ( 1.000000000000000000, -1.156482317317872300E-015, 0.0000000000000000000 ) ) ;
#151 = CARTESIAN_POINT ( 'NONE',  ( -0.2500000000000002200, 0.9999999999999991100, 0.6500000000000000200 ) ) ;
#152 = AXIS2_PLACEMENT_3D ( 'NONE', #151, #150, #149 ) ;
#153 = PLANE ( 'NONE',  #152 ) ;
#154 = FACE_OUTER_BOUND ( 'NONE', #812, .T. ) ;
#155 = DIRECTION ( 'NONE',  ( 1.000000000000000000, 0.0000000000000000000, 0.0000000000000000000 ) ) ;
#156 = VECTOR ( 'NONE', #155, 1000.000000000000000 ) ;
#157 = CARTESIAN_POINT ( 'NONE',  ( -0.2500000000000011100, 0.2499999999999997800, 0.6500000000000000200 ) ) ;
#158 = LINE ( 'NONE', #157, #156 ) ;
#159 = DIRECTION ( 'NONE',  ( 0.0000000000000000000, 0.0000000000000000000, 1.000000000000000000 ) ) ;
#160 = VECTOR ( 'NONE', #159, 1000.000000000000000 ) ;
#161 = CARTESIAN_POINT ( 'NONE',  ( -0.2500000000000011100, 0.2499999999999997800, 0.6500000000000000200 ) ) ;
#162 = LINE ( 'NONE', #161, #160 ) ;
#163 = DIRECTION ( 'NONE',  ( 1.156482317317872300E-015, 1.000000000000000000, 0.0000000000000000000 ) ) ;
#164 = VECTOR ( 'NONE', #163, 1000.000000000000000 ) ;
#165 = CARTESIAN_POINT ( 'NONE',  ( -0.2500000000000002200, 0.9999999999999991100, 0.6500000000000000200 ) ) ;
#166 = LINE ( 'NONE', #165, #164 ) ;
#167 = FACE_OUTER_BOUND ( 'NONE', #62, .T. ) ;
#168 = DIRECTION ( 'NONE',  ( -1.000000000000000000, -2.891205793294682800E-016, 0.0000000000000000000 ) ) ;
#169 = VECTOR ( 'NONE', #168, 1000.000000000000000 ) ;
#170 = CARTESIAN_POINT ( 'NONE',  ( 0.2499999999999993600, -0.2499999999999994700, 0.6500000000000000200 ) ) ;
#171 = LINE ( 'NONE', #170, #169 ) ;
#172 = PLANE ( 'NONE',  #232 ) ;
#173 = DIRECTION ( 'NONE',  ( 0.0000000000000000000, 0.0000000000000000000, 1.000000000000000000 ) ) ;
#174 = DIRECTION ( 'NONE',  ( -1.000000000000000000, 0.0000000000000000000, 0.0000000000000000000 ) ) ;
#175 = CARTESIAN_POINT ( 'NONE',  ( 0.2499999999999993600, -0.9999999999999991100, 0.6500000000000000200 ) ) ;
#176 = AXIS2_PLACEMENT_3D ( 'NONE', #175, #174, #173 ) ;
#177 = PLANE ( 'NONE',  #176 ) ;
#178 = FACE_OUTER_BOUND ( 'NONE', #806, .T. ) ;
#179 = CARTESIAN_POINT ( 'NONE',  ( 0.2499999999999993600, -0.2499999999999994700, 0.6500000000000000200 ) ) ;
#180 = DIRECTION ( 'NONE',  ( 0.0000000000000000000, 0.0000000000000000000, 1.000000000000000000 ) ) ;
#181 = VECTOR ( 'NONE', #180, 1000.000000000000000 ) ;
#182 = CARTESIAN_POINT ( 'NONE',  ( 0.2499999999999993600, -0.2499999999999994700, 0.6500000000000000200 ) ) ;
#183 = LINE ( 'NONE', #182, #181 ) ;
#184 = DIRECTION ( 'NONE',  ( -1.000000000000000000, -2.891205793294682800E-016, 0.0000000000000000000 ) ) ;
#185 = DIRECTION ( 'NONE',  ( -2.891205793294682800E-016, 1.000000000000000000, 0.0000000000000000000 ) ) ;
#186 = CARTESIAN_POINT ( 'NONE',  ( 0.2499999999999993600, -0.2499999999999994700, 0.6500000000000000200 ) ) ;
#187 = AXIS2_PLACEMENT_3D ( 'NONE', #186, #185, #184 ) ;
#188 = PLANE ( 'NONE',  #187 ) ;
#189 = FACE_OUTER_BOUND ( 'NONE', #44, .T. ) ;
#190 = DIRECTION ( 'NONE',  ( 1.000000000000000000, 2.891205793294682800E-016, 0.0000000000000000000 ) ) ;
#191 = VECTOR ( 'NONE', #190, 1000.000000000000000 ) ;
#192 = CARTESIAN_POINT ( 'NONE',  ( 0.9999999999999983300, 0.2500000000000000000, 0.6500000000000000200 ) ) ;
#193 = LINE ( 'NONE', #192, #191 ) ;
#194 = DIRECTION ( 'NONE',  ( 0.0000000000000000000, 0.0000000000000000000, 1.000000000000000000 ) ) ;
#195 = VECTOR ( 'NONE', #194, 1000.000000000000000 ) ;
#196 = CARTESIAN_POINT ( 'NONE',  ( 0.2499999999999993600, 0.2499999999999997800, 0.6500000000000000200 ) ) ;
#197 = LINE ( 'NONE', #196, #195 ) ;
#198 = DIRECTION ( 'NONE',  ( -5.782411586589361600E-016, -1.000000000000000000, 0.0000000000000000000 ) ) ;
#199 = VECTOR ( 'NONE', #198, 1000.000000000000000 ) ;
#200 = CARTESIAN_POINT ( 'NONE',  ( 0.2499999999999993600, 0.2499999999999997800, 0.6500000000000000200 ) ) ;
#201 = DIRECTION ( 'NONE',  ( 0.0000000000000000000, 0.0000000000000000000, 1.000000000000000000 ) ) ;
#202 = CARTESIAN_POINT ( 'NONE',  ( 0.0000000000000000000, 0.0000000000000000000, 0.2156116452720447700 ) ) ;
#203 = AXIS2_PLACEMENT_3D ( 'NONE', #202, #201, #258 ) ;
#204 = TOROIDAL_SURFACE ( 'NONE', #203, 0.7499999999999997800, 1.000000000000000200 ) ;
#205 = FACE_OUTER_BOUND ( 'NONE', #79, .T. ) ;
#206 = DIRECTION ( 'NONE',  ( 1.000000000000000000, 0.0000000000000000000, 0.0000000000000000000 ) ) ;
#207 = DIRECTION ( 'NONE',  ( 0.0000000000000000000, 0.0000000000000000000, 1.000000000000000000 ) ) ;
#208 = CARTESIAN_POINT ( 'NONE',  ( 0.0000000000000000000, 0.0000000000000000000, 0.2156116452720447700 ) ) ;
#209 = AXIS2_PLACEMENT_3D ( 'NONE', #208, #207, #206 ) ;
#210 = TOROIDAL_SURFACE ( 'NONE', #209, 0.7499999999999997800, 1.000000000000000200 ) ;
#211 = FACE_OUTER_BOUND ( 'NONE', #872, .T. ) ;
#212 = DIRECTION ( 'NONE',  ( 1.000000000000000000, 0.0000000000000000000, 0.0000000000000000000 ) ) ;
#213 = DIRECTION ( 'NONE',  ( 0.0000000000000000000, 0.0000000000000000000, 1.000000000000000000 ) ) ;
#214 = CARTESIAN_POINT ( 'NONE',  ( 0.0000000000000000000, 0.0000000000000000000, 1.190607688315616000 ) ) ;
#215 = AXIS2_PLACEMENT_3D ( 'NONE', #214, #213, #212 ) ;
#216 = CIRCLE ( 'NONE', #215, 0.9722222222222217700 ) ;
#217 = CARTESIAN_POINT ( 'NONE',  ( -0.2500000000000003300, -0.2499999999999993600, 0.6500000000000000200 ) ) ;
#218 = DIRECTION ( 'NONE',  ( 0.0000000000000000000, -1.000000000000000000, 0.0000000000000000000 ) ) ;
#219 = VECTOR ( 'NONE', #218, 1000.000000000000000 ) ;
#220 = CARTESIAN_POINT ( 'NONE',  ( 0.2499999999999993600, -0.9999999999999991100, 0.6500000000000000200 ) ) ;
#221 = DIRECTION ( 'NONE',  ( 4.336808689942018700E-016, 1.000000000000000000, 0.0000000000000000000 ) ) ;
#222 = DIRECTION ( 'NONE',  ( 1.000000000000000000, -4.336808689942018700E-016, 0.0000000000000000000 ) ) ;
#223 = CARTESIAN_POINT ( 'NONE',  ( -0.2500000000000003300, -0.2499999999999993600, 0.6500000000000000200 ) ) ;
#224 = AXIS2_PLACEMENT_3D ( 'NONE', #223, #222, #221 ) ;
#225 = LINE ( 'NONE', #220, #219 ) ;
#226 = PLANE ( 'NONE',  #224 ) ;
#227 = FACE_OUTER_BOUND ( 'NONE', #72, .T. ) ;
#228 = CARTESIAN_POINT ( 'NONE',  ( -0.2500000000000011100, 0.2499999999999997800, 0.6500000000000000200 ) ) ;
#229 = DIRECTION ( 'NONE',  ( -5.782411586589361600E-016, -1.000000000000000000, 0.0000000000000000000 ) ) ;
#230 = DIRECTION ( 'NONE',  ( -1.000000000000000000, 5.782411586589361600E-016, 0.0000000000000000000 ) ) ;
#231 = CARTESIAN_POINT ( 'NONE',  ( 0.2499999999999993600, 0.2499999999999997800, 0.6500000000000000200 ) ) ;
#232 = AXIS2_PLACEMENT_3D ( 'NONE', #231, #230, #229 ) ;
#233 = CARTESIAN_POINT ( 'NONE',  ( -1.000000000000000000, 1.224606353822377500E-016, 1.183857481823899200 ) ) ;
#234 = CARTESIAN_POINT ( 'NONE',  ( -1.000000000000000000, 0.2499999999999997800, 1.175384852653157800 ) ) ;
#235 = B_SPLINE_CURVE_WITH_KNOTS ( 'NONE', 3,
 ( #290, #289, #288, #287, #286, #285 ),
 .UNSPECIFIED., .F., .F.,
 ( 4, 2, 4 ),
 ( 0.007479671739848160400, 0.007603916809292979500, 0.007728161878737797700 ),
 .UNSPECIFIED. ) ;
#236 = DIRECTION ( 'NONE',  ( 1.000000000000000000, 0.0000000000000000000, 0.0000000000000000000 ) ) ;
#237 = DIRECTION ( 'NONE',  ( 0.0000000000000000000, 0.0000000000000000000, 1.000000000000000000 ) ) ;
#238 = CARTESIAN_POINT ( 'NONE',  ( 0.0000000000000000000, 0.0000000000000000000, 1.190607688315616000 ) ) ;
#239 = AXIS2_PLACEMENT_3D ( 'NONE', #238, #237, #236 ) ;
#240 = CIRCLE ( 'NONE', #239, 0.9722222222222217700 ) ;
#241 = CARTESIAN_POINT ( 'NONE',  ( 0.9999999999999983300, 0.0000000000000000000, 1.183857481823899600 ) ) ;
#242 = CARTESIAN_POINT ( 'NONE',  ( 0.9999999999999983300, -0.04166445655489305100, 1.183857481823899800 ) ) ;
#243 = CARTESIAN_POINT ( 'NONE',  ( 0.9999999999999981100, -0.08345215481450557500, 1.183191002207642400 ) ) ;
#244 = CARTESIAN_POINT ( 'NONE',  ( 0.9999999999999985600, -0.1667889907638172600, 1.180430397986000000 ) ) ;
#245 = CARTESIAN_POINT ( 'NONE',  ( 0.9999999999999985600, -0.2084180407337614900, 1.178335195436360300 ) ) ;
#246 = CARTESIAN_POINT ( 'NONE',  ( 0.9999999999999983300, -0.2499999999999992500, 1.175384852653153800 ) ) ;
#247 = CARTESIAN_POINT ( 'NONE',  ( 0.9395296958493146700, 0.2500000000000000000, 1.190607688315616000 ) ) ;
#248 = CARTESIAN_POINT ( 'NONE',  ( -0.9395296958493147800, 0.2499999999999997800, 1.190607688315616000 ) ) ;
#249 = B_SPLINE_CURVE_WITH_KNOTS ( 'NONE', 3,
 ( #246, #245, #244, #243, #242, #241 ),
 .UNSPECIFIED., .F., .F.,
 ( 4, 2, 4 ),
 ( 0.007479671739848168200, 0.007603916809292987300, 0.007728161878737806400 ),
 .UNSPECIFIED. ) ;
#250 = CARTESIAN_POINT ( 'NONE',  ( 0.9999999999999983300, -0.2499999999999992500, 1.175384852653153800 ) ) ;
#251 = CARTESIAN_POINT ( 'NONE',  ( 0.2499999999999997800, 0.9999999999999991100, 1.175384852653153400 ) ) ;
#252 = DIRECTION ( 'NONE',  ( 0.0000000000000000000, 0.0000000000000000000, -1.000000000000000000 ) ) ;
#253 = DIRECTION ( 'NONE',  ( 0.0000000000000000000, -1.000000000000000000, 0.0000000000000000000 ) ) ;
#254 = CARTESIAN_POINT ( 'NONE',  ( 0.7499999999999997800, 0.0000000000000000000, 0.2156116452720447700 ) ) ;
#255 = AXIS2_PLACEMENT_3D ( 'NONE', #254, #253, #252 ) ;
#256 = CIRCLE ( 'NONE', #255, 1.000000000000000200 ) ;
#257 = CARTESIAN_POINT ( 'NONE',  ( 0.9999999999999983300, 0.0000000000000000000, 1.183857481823899600 ) ) ;
#258 = DIRECTION ( 'NONE',  ( 1.000000000000000000, 0.0000000000000000000, 0.0000000000000000000 ) ) ;
#259 = CARTESIAN_POINT ( 'NONE',  ( 0.0000000000000000000, 0.0000000000000000000, -3.074999999999998000 ) ) ;
#260 = DIRECTION ( 'NONE',  ( 1.000000000000000000, 2.854567181967087000E-016, 0.0000000000000000000 ) ) ;
#261 = DIRECTION ( 'NONE',  ( 2.891205793294682800E-016, -1.000000000000000000, 0.0000000000000000000 ) ) ;
#262 = CARTESIAN_POINT ( 'NONE',  ( -7.228014483236699500E-017, 0.2499999999999997200, -3.074999999999998000 ) ) ;
#263 = AXIS2_PLACEMENT_3D ( 'NONE', #262, #261, #260 ) ;
#264 = CIRCLE ( 'NONE', #263, 4.367851302414034200 ) ;
#265 = FACE_OUTER_BOUND ( 'NONE', #791, .T. ) ;
#266 = CARTESIAN_POINT ( 'NONE',  ( 0.9395296958493147800, -0.2499999999999992500, 1.190607688315616000 ) ) ;
#267 = CARTESIAN_POINT ( 'NONE',  ( -0.2500000000000006100, -0.9395296958493145600, 1.190607688315616000 ) ) ;
#268 = CARTESIAN_POINT ( 'NONE',  ( -0.2500000000000002200, 0.9999999999999991100, 0.6500000000000000200 ) ) ;
#269 = DIRECTION ( 'NONE',  ( 1.000000000000000000, 0.0000000000000000000, 0.0000000000000000000 ) ) ;
#270 = DIRECTION ( 'NONE',  ( 0.0000000000000000000, 0.0000000000000000000, 1.000000000000000000 ) ) ;
#271 = CARTESIAN_POINT ( 'NONE',  ( 0.0000000000000000000, 0.0000000000000000000, -3.499999999999996000 ) ) ;
#272 = AXIS2_PLACEMENT_3D ( 'NONE', #271, #270, #269 ) ;
#273 = CONICAL_SURFACE ( 'NONE', #272, 0.9999999999999985600, 0.7853981633974597100 ) ;
#274 = FACE_OUTER_BOUND ( 'NONE', #739, .T. ) ;
#275 = DIRECTION ( 'NONE',  ( 1.000000000000000000, 0.0000000000000000000, 0.0000000000000000000 ) ) ;
#276 = DIRECTION ( 'NONE',  ( 0.0000000000000000000, 0.0000000000000000000, 1.000000000000000000 ) ) ;
#277 = CARTESIAN_POINT ( 'NONE',  ( -1.000000000000000000, 0.2499999999999997800, 0.6500000000000000200 ) ) ;
#278 = AXIS2_PLACEMENT_3D ( 'NONE', #277, #276, #275 ) ;
#279 = PLANE ( 'NONE',  #278 ) ;
#280 = FACE_OUTER_BOUND ( 'NONE', #725, .T. ) ;
#281 = DIRECTION ( 'NONE',  ( 0.0000000000000000000, 0.0000000000000000000, 1.000000000000000000 ) ) ;
#282 = VECTOR ( 'NONE', #281, 1000.000000000000000 ) ;
#283 = CARTESIAN_POINT ( 'NONE',  ( 0.9999999999999985600, 0.0000000000000000000, 32.83086675276936000 ) ) ;
#284 = LINE ( 'NONE', #283, #282 ) ;
#285 = CARTESIAN_POINT ( 'NONE',  ( -1.000000000000000000, 1.224606353822377500E-016, 1.183857481823899200 ) ) ;
#286 = CARTESIAN_POINT ( 'NONE',  ( -1.000000000000000000, 0.04166445655489360600, 1.183857481823898900 ) ) ;
#287 = CARTESIAN_POINT ( 'NONE',  ( -1.000000000000000000, 0.08345215481450649100, 1.183191002207642400 ) ) ;
#288 = CARTESIAN_POINT ( 'NONE',  ( -1.000000000000000200, 0.1667889907638179800, 1.180430397985999600 ) ) ;
#289 = CARTESIAN_POINT ( 'NONE',  ( -1.000000000000000200, 0.2084180407337617200, 1.178335195436360300 ) ) ;
#290 = CARTESIAN_POINT ( 'NONE',  ( -1.000000000000000000, 0.2499999999999997800, 1.175384852653157800 ) ) ;
#291 = CIRCLE ( 'NONE', #358, 4.367851302414034200 ) ;
#292 = CARTESIAN_POINT ( 'NONE',  ( -0.2500000000000003300, -0.2499999999999993600, 1.285690885628100200 ) ) ;
#293 = DIRECTION ( 'NONE',  ( 4.343906581254263000E-016, 1.000000000000000000, 0.0000000000000000000 ) ) ;
#294 = DIRECTION ( 'NONE',  ( 1.000000000000000000, -4.336808689942018700E-016, 0.0000000000000000000 ) ) ;
#295 = CARTESIAN_POINT ( 'NONE',  ( -0.2500000000000002200, 1.084202172485505700E-016, -3.074999999999998000 ) ) ;
#296 = AXIS2_PLACEMENT_3D ( 'NONE', #295, #294, #293 ) ;
#297 = CIRCLE ( 'NONE', #296, 4.367851302414034200 ) ;
#298 = DIRECTION ( 'NONE',  ( 0.0000000000000000000, 1.000000000000000000, 0.0000000000000000000 ) ) ;
#299 = DIRECTION ( 'NONE',  ( -1.000000000000000000, 0.0000000000000000000, 0.0000000000000000000 ) ) ;
#300 = CARTESIAN_POINT ( 'NONE',  ( 0.0000000000000000000, 0.0000000000000000000, -3.074999999999998000 ) ) ;
#301 = AXIS2_PLACEMENT_3D ( 'NONE', #300, #299, #298 ) ;
#302 = SPHERICAL_SURFACE ( 'NONE', #301, 4.374999999999997300 ) ;
#303 = FACE_OUTER_BOUND ( 'NONE', #764, .T. ) ;
#304 = DIRECTION ( 'NONE',  ( 1.000000000000000000, 0.0000000000000000000, 0.0000000000000000000 ) ) ;
#305 = DIRECTION ( 'NONE',  ( 0.0000000000000000000, 0.0000000000000000000, 1.000000000000000000 ) ) ;
#306 = CARTESIAN_POINT ( 'NONE',  ( 0.0000000000000000000, 0.0000000000000000000, -3.699999999999998400 ) ) ;
#307 = AXIS2_PLACEMENT_3D ( 'NONE', #306, #305, #304 ) ;
#308 = PLANE ( 'NONE',  #307 ) ;
#309 = FACE_OUTER_BOUND ( 'NONE', #758, .T. ) ;
#310 = DIRECTION ( 'NONE',  ( -1.000000000000000000, -2.854567181967087000E-016, 0.0000000000000000000 ) ) ;
#311 = DIRECTION ( 'NONE',  ( -2.891205793294682800E-016, 1.000000000000000000, 0.0000000000000000000 ) ) ;
#312 = CARTESIAN_POINT ( 'NONE',  ( 7.228014483236693400E-017, -0.2499999999999995300, -3.074999999999998000 ) ) ;
#313 = AXIS2_PLACEMENT_3D ( 'NONE', #312, #311, #310 ) ;
#314 = CIRCLE ( 'NONE', #313, 4.367851302414034200 ) ;
#315 = DIRECTION ( 'NONE',  ( 0.0000000000000000000, 0.0000000000000000000, 1.000000000000000000 ) ) ;
#316 = DIRECTION ( 'NONE',  ( -1.000000000000000000, 0.0000000000000000000, 0.0000000000000000000 ) ) ;
#317 = CARTESIAN_POINT ( 'NONE',  ( 0.2499999999999993600, 0.0000000000000000000, -3.074999999999998000 ) ) ;
#318 = AXIS2_PLACEMENT_3D ( 'NONE', #317, #316, #315 ) ;
#319 = CIRCLE ( 'NONE', #318, 4.367851302414034200 ) ;
#320 = CARTESIAN_POINT ( 'NONE',  ( 0.2499999999999993600, -0.2499999999999994700, 1.285690885628101100 ) ) ;
#321 = DIRECTION ( 'NONE',  ( 0.0000000000000000000, 1.000000000000000000, 0.0000000000000000000 ) ) ;
#322 = DIRECTION ( 'NONE',  ( -1.000000000000000000, 0.0000000000000000000, 0.0000000000000000000 ) ) ;
#323 = AXIS2_PLACEMENT_3D ( 'NONE', #259, #322, #321 ) ;
#324 = SPHERICAL_SURFACE ( 'NONE', #323, 4.374999999999997300 ) ;
#325 = CARTESIAN_POINT ( 'NONE',  ( 0.08395749075947669900, -0.9999999999999988900, 1.183847272836183300 ) ) ;
#326 = CARTESIAN_POINT ( 'NONE',  ( -0.08301294739750426900, -0.9999999999999991100, 1.183867633222784700 ) ) ;
#327 = DIRECTION ( 'NONE',  ( 1.000000000000000000, 0.0000000000000000000, 0.0000000000000000000 ) ) ;
#328 = DIRECTION ( 'NONE',  ( 0.0000000000000000000, 0.0000000000000000000, -1.000000000000000000 ) ) ;
#329 = CARTESIAN_POINT ( 'NONE',  ( 0.0000000000000000000, 0.0000000000000000000, -3.699999999999998400 ) ) ;
#330 = AXIS2_PLACEMENT_3D ( 'NONE', #329, #328, #327 ) ;
#331 = CIRCLE ( 'NONE', #330, 0.7999999999999917200 ) ;
#332 = CARTESIAN_POINT ( 'NONE',  ( -0.1666789682265487900, -0.9999999999999991100, 1.181296685792325500 ) ) ;
#333 = DIRECTION ( 'NONE',  ( 1.000000000000000000, 0.0000000000000000000, 0.0000000000000000000 ) ) ;
#334 = DIRECTION ( 'NONE',  ( 0.0000000000000000000, 0.0000000000000000000, 1.000000000000000000 ) ) ;
#335 = CARTESIAN_POINT ( 'NONE',  ( 0.0000000000000000000, 0.0000000000000000000, 0.0000000000000000000 ) ) ;
#336 = AXIS2_PLACEMENT_3D ( 'NONE', #335, #334, #333 ) ;
#337 = CIRCLE ( 'NONE', #336, 0.9999999999999983300 ) ;
#338 = DIRECTION ( 'NONE',  ( 1.000000000000000000, 0.0000000000000000000, 0.0000000000000000000 ) ) ;
#339 = DIRECTION ( 'NONE',  ( 0.0000000000000000000, 0.0000000000000000000, 1.000000000000000000 ) ) ;
#340 = CARTESIAN_POINT ( 'NONE',  ( 0.0000000000000000000, 0.0000000000000000000, -3.499999999999996000 ) ) ;
#341 = AXIS2_PLACEMENT_3D ( 'NONE', #340, #339, #338 ) ;
#342 = DIRECTION ( 'NONE',  ( 1.000000000000000000, 0.0000000000000000000, 0.0000000000000000000 ) ) ;
#343 = DIRECTION ( 'NONE',  ( 0.0000000000000000000, 0.0000000000000000000, 1.000000000000000000 ) ) ;
#344 = CARTESIAN_POINT ( 'NONE',  ( 0.0000000000000000000, 0.0000000000000000000, 32.83086675276936000 ) ) ;
#345 = AXIS2_PLACEMENT_3D ( 'NONE', #344, #343, #342 ) ;
#346 = CIRCLE ( 'NONE', #341, 0.9999999999999985600 ) ;
#347 = CYLINDRICAL_SURFACE ( 'NONE', #345, 0.9999999999999985600 ) ;
#348 = FACE_OUTER_BOUND ( 'NONE', #774, .T. ) ;
#349 = DIRECTION ( 'NONE',  ( 1.000000000000000000, 0.0000000000000000000, 0.0000000000000000000 ) ) ;
#350 = DIRECTION ( 'NONE',  ( 0.0000000000000000000, 0.0000000000000000000, 1.000000000000000000 ) ) ;
#351 = CARTESIAN_POINT ( 'NONE',  ( 0.0000000000000000000, 0.9999999999999983300, 0.0000000000000000000 ) ) ;
#352 = AXIS2_PLACEMENT_3D ( 'NONE', #351, #350, #349 ) ;
#353 = PLANE ( 'NONE',  #352 ) ;
#354 = FACE_BOUND ( 'NONE', #843, .T. ) ;
#355 = DIRECTION ( 'NONE',  ( 0.0000000000000000000, 0.0000000000000000000, 1.000000000000000000 ) ) ;
#356 = DIRECTION ( 'NONE',  ( 0.0000000000000000000, 1.000000000000000000, 0.0000000000000000000 ) ) ;
#357 = CARTESIAN_POINT ( 'NONE',  ( 0.0000000000000000000, -0.2499999999999993600, -3.074999999999998000 ) ) ;
#358 = AXIS2_PLACEMENT_3D ( 'NONE', #357, #356, #355 ) ;
#359 = FACE_OUTER_BOUND ( 'NONE', #771, .T. ) ;
#360 = CARTESIAN_POINT ( 'NONE',  ( -1.000000000000000000, 0.2499999999999997800, 0.6500000000000000200 ) ) ;
#361 = LINE ( 'NONE', #360, #420 ) ;
#362 = CARTESIAN_POINT ( 'NONE',  ( -1.000000000000000000, -0.2499999999999993600, 0.6500000000000000200 ) ) ;
#363 = DIRECTION ( 'NONE',  ( 0.0000000000000000000, 0.0000000000000000000, 1.000000000000000000 ) ) ;
#364 = DIRECTION ( 'NONE',  ( -1.000000000000000000, 0.0000000000000000000, 0.0000000000000000000 ) ) ;
#365 = CARTESIAN_POINT ( 'NONE',  ( 0.9999999999999983300, -0.2499999999999992500, 0.6500000000000000200 ) ) ;
#366 = AXIS2_PLACEMENT_3D ( 'NONE', #365, #364, #363 ) ;
#367 = PLANE ( 'NONE',  #366 ) ;
#368 = FACE_OUTER_BOUND ( 'NONE', #789, .T. ) ;
#369 = DIRECTION ( 'NONE',  ( 1.000000000000000000, 0.0000000000000000000, 0.0000000000000000000 ) ) ;
#370 = VECTOR ( 'NONE', #369, 1000.000000000000000 ) ;
#371 = CARTESIAN_POINT ( 'NONE',  ( 0.2499999999999997800, 0.9999999999999991100, 0.6500000000000000200 ) ) ;
#372 = LINE ( 'NONE', #371, #370 ) ;
#373 = DIRECTION ( 'NONE',  ( 0.7071067811865555700, 0.0000000000000000000, 0.7071067811865393600 ) ) ;
#374 = VECTOR ( 'NONE', #373, 1000.000000000000100 ) ;
#375 = CARTESIAN_POINT ( 'NONE',  ( 0.9999999999999985600, 0.0000000000000000000, -3.499999999999996000 ) ) ;
#376 = LINE ( 'NONE', #375, #374 ) ;
#377 = DIRECTION ( 'NONE',  ( 1.000000000000000000, 0.0000000000000000000, 0.0000000000000000000 ) ) ;
#378 = DIRECTION ( 'NONE',  ( 0.0000000000000000000, 0.0000000000000000000, -1.000000000000000000 ) ) ;
#379 = CARTESIAN_POINT ( 'NONE',  ( 0.0000000000000000000, 0.0000000000000000000, -3.699999999999998400 ) ) ;
#380 = AXIS2_PLACEMENT_3D ( 'NONE', #379, #378, #377 ) ;
#381 = CIRCLE ( 'NONE', #380, 0.7999999999999917200 ) ;
#382 = CARTESIAN_POINT ( 'NONE',  ( -0.7999999999999917200, 1.102145718440133600E-016, -3.699999999999998400 ) ) ;
#383 = DIRECTION ( 'NONE',  ( 0.0000000000000000000, 0.0000000000000000000, 1.000000000000000000 ) ) ;
#384 = VECTOR ( 'NONE', #383, 1000.000000000000000 ) ;
#385 = CARTESIAN_POINT ( 'NONE',  ( 0.2499999999999997800, 0.9999999999999991100, 0.6500000000000000200 ) ) ;
#386 = LINE ( 'NONE', #385, #384 ) ;
#387 = CARTESIAN_POINT ( 'NONE',  ( 0.2499999999999993600, -0.9999999999999991100, 0.6500000000000000200 ) ) ;
#388 = CARTESIAN_POINT ( 'NONE',  ( 0.7999999999999917200, 0.0000000000000000000, -3.699999999999998400 ) ) ;
#389 = CARTESIAN_POINT ( 'NONE',  ( 0.2499999999999997800, 0.9999999999999991100, 0.6500000000000000200 ) ) ;
#390 = LINE ( 'NONE', #453, #452 ) ;
#391 = CARTESIAN_POINT ( 'NONE',  ( 1.749999999999999800, 0.0000000000000000000, 0.0000000000000000000 ) ) ;
#392 = CARTESIAN_POINT ( 'NONE',  ( -1.749999999999999800, 2.143061119189160000E-016, 0.0000000000000000000 ) ) ;
#393 = CARTESIAN_POINT ( 'NONE',  ( -0.9999999999999985600, 1.224606353822375500E-016, -3.499999999999996000 ) ) ;
#394 = DIRECTION ( 'NONE',  ( 1.000000000000000000, 0.0000000000000000000, 0.0000000000000000000 ) ) ;
#395 = DIRECTION ( 'NONE',  ( 0.0000000000000000000, 0.0000000000000000000, 1.000000000000000000 ) ) ;
#396 = CARTESIAN_POINT ( 'NONE',  ( 0.0000000000000000000, 0.0000000000000000000, 0.0000000000000000000 ) ) ;
#397 = AXIS2_PLACEMENT_3D ( 'NONE', #396, #395, #394 ) ;
#398 = CIRCLE ( 'NONE', #397, 1.749999999999999800 ) ;
#399 = CARTESIAN_POINT ( 'NONE',  ( 0.9999999999999985600, 0.0000000000000000000, -3.499999999999996000 ) ) ;
#400 = DIRECTION ( 'NONE',  ( -0.7071067811865555700, 8.659274570719455300E-017, 0.7071067811865393600 ) ) ;
#401 = VECTOR ( 'NONE', #400, 1000.000000000000100 ) ;
#402 = CARTESIAN_POINT ( 'NONE',  ( -0.9999999999999985600, 1.224606353822375500E-016, -3.499999999999996000 ) ) ;
#403 = LINE ( 'NONE', #402, #401 ) ;
#404 = DIRECTION ( 'NONE',  ( 1.000000000000000000, 0.0000000000000000000, 0.0000000000000000000 ) ) ;
#405 = DIRECTION ( 'NONE',  ( 0.0000000000000000000, 0.0000000000000000000, 1.000000000000000000 ) ) ;
#406 = CARTESIAN_POINT ( 'NONE',  ( 0.0000000000000000000, 0.0000000000000000000, -3.499999999999996000 ) ) ;
#407 = AXIS2_PLACEMENT_3D ( 'NONE', #406, #405, #404 ) ;
#408 = CIRCLE ( 'NONE', #407, 0.9999999999999985600 ) ;
#409 = DIRECTION ( 'NONE',  ( 1.000000000000000000, 0.0000000000000000000, 0.0000000000000000000 ) ) ;
#410 = DIRECTION ( 'NONE',  ( 0.0000000000000000000, 0.0000000000000000000, 1.000000000000000000 ) ) ;
#411 = CARTESIAN_POINT ( 'NONE',  ( 0.0000000000000000000, 0.0000000000000000000, 1.190607688315616000 ) ) ;
#412 = AXIS2_PLACEMENT_3D ( 'NONE', #411, #410, #409 ) ;
#413 = CIRCLE ( 'NONE', #412, 0.9722222222222217700 ) ;
#414 = DIRECTION ( 'NONE',  ( 0.0000000000000000000, 1.000000000000000000, 0.0000000000000000000 ) ) ;
#415 = VECTOR ( 'NONE', #414, 1000.000000000000000 ) ;
#416 = CARTESIAN_POINT ( 'NONE',  ( -1.000000000000000000, 0.2499999999999997800, 0.6500000000000000200 ) ) ;
#417 = LINE ( 'NONE', #416, #415 ) ;
#418 = CARTESIAN_POINT ( 'NONE',  ( -1.000000000000000000, 0.2499999999999997800, 0.6500000000000000200 ) ) ;
#419 = DIRECTION ( 'NONE',  ( 0.0000000000000000000, 0.0000000000000000000, 1.000000000000000000 ) ) ;
#420 = VECTOR ( 'NONE', #419, 1000.000000000000000 ) ;
#421 = FACE_OUTER_BOUND ( 'NONE', #846, .T. ) ;
#422 = DIRECTION ( 'NONE',  ( 0.0000000000000000000, -1.000000000000000000, 0.0000000000000000000 ) ) ;
#423 = VECTOR ( 'NONE', #422, 1000.000000000000000 ) ;
#424 = CARTESIAN_POINT ( 'NONE',  ( 0.9999999999999983300, -0.2499999999999992500, 0.6500000000000000200 ) ) ;
#425 = LINE ( 'NONE', #424, #423 ) ;
#426 = DIRECTION ( 'NONE',  ( 0.0000000000000000000, 0.0000000000000000000, -1.000000000000000000 ) ) ;
#427 = DIRECTION ( 'NONE',  ( 0.0000000000000000000, -1.000000000000000000, 0.0000000000000000000 ) ) ;
#428 = CARTESIAN_POINT ( 'NONE',  ( 0.2499999999999997800, 0.9999999999999991100, 0.6500000000000000200 ) ) ;
#429 = AXIS2_PLACEMENT_3D ( 'NONE', #428, #427, #426 ) ;
#430 = PLANE ( 'NONE',  #429 ) ;
#431 = FACE_OUTER_BOUND ( 'NONE', #839, .T. ) ;
#432 = CARTESIAN_POINT ( 'NONE',  ( 0.9999999999999983300, -0.2499999999999992500, 0.6500000000000000200 ) ) ;
#433 = CARTESIAN_POINT ( 'NONE',  ( 0.9999999999999983300, 0.2500000000000000000, 0.6500000000000000200 ) ) ;
#434 = DIRECTION ( 'NONE',  ( 0.0000000000000000000, 0.0000000000000000000, 1.000000000000000000 ) ) ;
#435 = VECTOR ( 'NONE', #434, 1000.000000000000000 ) ;
#436 = CARTESIAN_POINT ( 'NONE',  ( 0.9999999999999983300, 0.2500000000000000000, 0.6500000000000000200 ) ) ;
#437 = LINE ( 'NONE', #436, #435 ) ;
#438 = DIRECTION ( 'NONE',  ( 1.000000000000000000, 0.0000000000000000000, 0.0000000000000000000 ) ) ;
#439 = DIRECTION ( 'NONE',  ( 0.0000000000000000000, 0.0000000000000000000, 1.000000000000000000 ) ) ;
#440 = CARTESIAN_POINT ( 'NONE',  ( 0.0000000000000000000, 0.0000000000000000000, -3.499999999999996000 ) ) ;
#441 = AXIS2_PLACEMENT_3D ( 'NONE', #440, #439, #438 ) ;
#442 = CONICAL_SURFACE ( 'NONE', #441, 0.9999999999999985600, 0.7853981633974597100 ) ;
#443 = FACE_OUTER_BOUND ( 'NONE', #832, .T. ) ;
#444 = CARTESIAN_POINT ( 'NONE',  ( -1.749999999999999800, 2.143061119189160000E-016, 0.2156116452720416300 ) ) ;
#445 = DIRECTION ( 'NONE',  ( 1.000000000000000000, 0.0000000000000000000, 0.0000000000000000000 ) ) ;
#446 = DIRECTION ( 'NONE',  ( 0.0000000000000000000, 0.0000000000000000000, 1.000000000000000000 ) ) ;
#447 = CARTESIAN_POINT ( 'NONE',  ( 0.0000000000000000000, 0.0000000000000000000, 32.83086675276936000 ) ) ;
#448 = AXIS2_PLACEMENT_3D ( 'NONE', #447, #446, #445 ) ;
#449 = CYLINDRICAL_SURFACE ( 'NONE', #448, 1.749999999999999800 ) ;
#450 = FACE_OUTER_BOUND ( 'NONE', #826, .T. ) ;
#451 = DIRECTION ( 'NONE',  ( 0.0000000000000000000, 0.0000000000000000000, 1.000000000000000000 ) ) ;
#452 = VECTOR ( 'NONE', #451, 1000.000000000000000 ) ;
#453 = CARTESIAN_POINT ( 'NONE',  ( -1.749999999999999800, 2.143061119189160000E-016, 32.83086675276936000 ) ) ;
#454 = DIRECTION ( 'NONE',  ( 0.0000000000000000000, 0.0000000000000000000, 1.000000000000000000 ) ) ;
#455 = CARTESIAN_POINT ( 'NONE',  ( 0.0000000000000000000, 0.0000000000000000000, 0.0000000000000000000 ) ) ;
#456 = AXIS2_PLACEMENT_3D ( 'NONE', #455, #454, #514 ) ;
#457 = CIRCLE ( 'NONE', #456, 1.749999999999999800 ) ;
#458 = DIRECTION ( 'NONE',  ( 0.0000000000000000000, 0.0000000000000000000, 1.000000000000000000 ) ) ;
#459 = VECTOR ( 'NONE', #458, 1000.000000000000000 ) ;
#460 = CARTESIAN_POINT ( 'NONE',  ( 0.9999999999999983300, -0.2499999999999992500, 0.6500000000000000200 ) ) ;
#461 = LINE ( 'NONE', #460, #459 ) ;
#462 = DIRECTION ( 'NONE',  ( 0.0000000000000000000, 0.0000000000000000000, 1.000000000000000000 ) ) ;
#463 = DIRECTION ( 'NONE',  ( 0.0000000000000000000, 1.000000000000000000, 0.0000000000000000000 ) ) ;
#464 = CARTESIAN_POINT ( 'NONE',  ( -0.2500000000000006700, -0.9999999999999991100, 0.6500000000000000200 ) ) ;
#465 = AXIS2_PLACEMENT_3D ( 'NONE', #464, #463, #462 ) ;
#466 = PLANE ( 'NONE',  #465 ) ;
#467 = FACE_OUTER_BOUND ( 'NONE', #794, .T. ) ;
#468 = DIRECTION ( 'NONE',  ( -1.000000000000000000, 0.0000000000000000000, 0.0000000000000000000 ) ) ;
#469 = VECTOR ( 'NONE', #468, 1000.000000000000000 ) ;
#470 = CARTESIAN_POINT ( 'NONE',  ( -0.2500000000000006700, -0.9999999999999991100, 0.6500000000000000200 ) ) ;
#471 = LINE ( 'NONE', #470, #469 ) ;
#472 = CARTESIAN_POINT ( 'NONE',  ( -0.2500000000000006700, -0.9999999999999991100, 0.6500000000000000200 ) ) ;
#473 = DIRECTION ( 'NONE',  ( 0.0000000000000000000, 0.0000000000000000000, 1.000000000000000000 ) ) ;
#474 = VECTOR ( 'NONE', #473, 1000.000000000000000 ) ;
#475 = CARTESIAN_POINT ( 'NONE',  ( 0.2499999999999993600, -0.9999999999999991100, 0.6500000000000000200 ) ) ;
#476 = LINE ( 'NONE', #475, #474 ) ;
#477 = DIRECTION ( 'NONE',  ( 0.0000000000000000000, 0.0000000000000000000, 1.000000000000000000 ) ) ;
#478 = VECTOR ( 'NONE', #477, 1000.000000000000000 ) ;
#479 = CARTESIAN_POINT ( 'NONE',  ( -0.2500000000000002200, 0.9999999999999991100, 0.6500000000000000200 ) ) ;
#480 = DIRECTION ( 'NONE',  ( 1.000000000000000000, 0.0000000000000000000, 0.0000000000000000000 ) ) ;
#481 = DIRECTION ( 'NONE',  ( 0.0000000000000000000, 0.0000000000000000000, 1.000000000000000000 ) ) ;
#482 = CARTESIAN_POINT ( 'NONE',  ( 0.0000000000000000000, 0.0000000000000000000, 32.83086675276936000 ) ) ;
#483 = AXIS2_PLACEMENT_3D ( 'NONE', #482, #481, #480 ) ;
#484 = CYLINDRICAL_SURFACE ( 'NONE', #483, 1.749999999999999800 ) ;
#485 = LINE ( 'NONE', #479, #478 ) ;
#486 = B_SPLINE_CURVE_WITH_KNOTS ( 'NONE', 3,
 ( #537, #536, #535, #534, #533 ),
 .UNSPECIFIED., .F., .F.,
 ( 4, 1, 4 ),
 ( 0.0003446846353624305200, 0.0003757366378751003900, 0.0004067886403877702100 ),
 .UNSPECIFIED. ) ;
#487 = CARTESIAN_POINT ( 'NONE',  ( 0.9999999999999983300, 0.0000000000000000000, 0.0000000000000000000 ) ) ;
#488 = DIRECTION ( 'NONE',  ( 1.000000000000000000, 0.0000000000000000000, 0.0000000000000000000 ) ) ;
#489 = DIRECTION ( 'NONE',  ( 0.0000000000000000000, 0.0000000000000000000, 1.000000000000000000 ) ) ;
#490 = CARTESIAN_POINT ( 'NONE',  ( 0.0000000000000000000, 0.0000000000000000000, 0.0000000000000000000 ) ) ;
#491 = AXIS2_PLACEMENT_3D ( 'NONE', #490, #489, #488 ) ;
#492 = CIRCLE ( 'NONE', #491, 0.9999999999999983300 ) ;
#493 = DIRECTION ( 'NONE',  ( 0.0000000000000000000, 0.0000000000000000000, 1.000000000000000000 ) ) ;
#494 = VECTOR ( 'NONE', #493, 1000.000000000000000 ) ;
#495 = CARTESIAN_POINT ( 'NONE',  ( -0.9999999999999985600, 1.224606353822375500E-016, 32.83086675276936000 ) ) ;
#496 = DIRECTION ( 'NONE',  ( 1.000000000000000000, 0.0000000000000000000, 0.0000000000000000000 ) ) ;
#497 = DIRECTION ( 'NONE',  ( 0.0000000000000000000, 0.0000000000000000000, 1.000000000000000000 ) ) ;
#498 = CARTESIAN_POINT ( 'NONE',  ( 0.0000000000000000000, 0.0000000000000000000, 32.83086675276936000 ) ) ;
#499 = AXIS2_PLACEMENT_3D ( 'NONE', #498, #497, #496 ) ;
#500 = CYLINDRICAL_SURFACE ( 'NONE', #499, 0.9999999999999985600 ) ;
#501 = LINE ( 'NONE', #495, #494 ) ;
#502 = FACE_OUTER_BOUND ( 'NONE', #866, .T. ) ;
#503 = DIRECTION ( 'NONE',  ( 0.0000000000000000000, 0.0000000000000000000, 1.000000000000000000 ) ) ;
#504 = VECTOR ( 'NONE', #503, 1000.000000000000000 ) ;
#505 = CARTESIAN_POINT ( 'NONE',  ( 1.749999999999999800, 0.0000000000000000000, 32.83086675276936000 ) ) ;
#506 = DIRECTION ( 'NONE',  ( 1.000000000000000000, 0.0000000000000000000, 0.0000000000000000000 ) ) ;
#507 = DIRECTION ( 'NONE',  ( 0.0000000000000000000, 0.0000000000000000000, 1.000000000000000000 ) ) ;
#508 = CARTESIAN_POINT ( 'NONE',  ( 0.0000000000000000000, 0.0000000000000000000, 0.2156116452720416300 ) ) ;
#509 = AXIS2_PLACEMENT_3D ( 'NONE', #508, #507, #506 ) ;
#510 = CIRCLE ( 'NONE', #509, 1.749999999999999800 ) ;
#511 = LINE ( 'NONE', #505, #504 ) ;
#512 = CARTESIAN_POINT ( 'NONE',  ( 1.749999999999999800, 0.0000000000000000000, 0.2156116452720416300 ) ) ;
#513 = CARTESIAN_POINT ( 'NONE',  ( -0.9999999999999983300, 1.224606353822375500E-016, 0.0000000000000000000 ) ) ;
#514 = DIRECTION ( 'NONE',  ( 1.000000000000000000, 0.0000000000000000000, 0.0000000000000000000 ) ) ;
#515 = B_SPLINE_CURVE_WITH_KNOTS ( 'NONE', 3,
 ( #560, #559, #558, #557, #556 ),
 .UNSPECIFIED., .F., .F.,
 ( 4, 1, 4 ),
 ( 0.008832565764069383000, 0.008863701354130375900, 0.008894836944191370600 ),
 .UNSPECIFIED. ) ;
#516 = CARTESIAN_POINT ( 'NONE',  ( -0.2500000000000002200, 0.9395296958493147800, 1.190607688315616000 ) ) ;
#517 = DIRECTION ( 'NONE',  ( -1.000000000000000000, 1.224606353822377300E-016, 0.0000000000000000000 ) ) ;
#518 = DIRECTION ( 'NONE',  ( 1.224606353822377300E-016, 1.000000000000000000, 0.0000000000000000000 ) ) ;
#519 = AXIS2_PLACEMENT_3D ( 'NONE', #527, #518, #517 ) ;
#520 = CIRCLE ( 'NONE', #519, 1.000000000000000200 ) ;
#521 = CARTESIAN_POINT ( 'NONE',  ( 0.9999999999999983300, 0.2500000000000000000, 1.175384852654416200 ) ) ;
#522 = CARTESIAN_POINT ( 'NONE',  ( 0.9999999999999983300, 0.2085017594682711500, 1.178329255386009200 ) ) ;
#523 = CARTESIAN_POINT ( 'NONE',  ( 0.9999999999999981100, 0.1669102360828379800, 1.180424994588674200 ) ) ;
#524 = CARTESIAN_POINT ( 'NONE',  ( 0.9999999999999985600, 0.08357022743573497300, 1.183188474015583100 ) ) ;
#525 = CARTESIAN_POINT ( 'NONE',  ( 0.9999999999999985600, 0.04182188150355817300, 1.183857481823899800 ) ) ;
#526 = CARTESIAN_POINT ( 'NONE',  ( 0.9999999999999983300, 0.0000000000000000000, 1.183857481823899600 ) ) ;
#527 = CARTESIAN_POINT ( 'NONE',  ( -0.7499999999999997800, 9.184547653667827000E-017, 0.2156116452720447700 ) ) ;
#528 = B_SPLINE_CURVE_WITH_KNOTS ( 'NONE', 3,
 ( #526, #525, #524, #523, #522, #521 ),
 .UNSPECIFIED., .F., .F.,
 ( 4, 2, 4 ),
 ( 4.103649001588016500E-019, 0.0001247145169138718900, 0.0002494290338277434100 ),
 .UNSPECIFIED. ) ;
#529 = DIRECTION ( 'NONE',  ( 1.000000000000000000, 0.0000000000000000000, 0.0000000000000000000 ) ) ;
#530 = DIRECTION ( 'NONE',  ( 0.0000000000000000000, 0.0000000000000000000, 1.000000000000000000 ) ) ;
#531 = CARTESIAN_POINT ( 'NONE',  ( 0.0000000000000000000, 0.0000000000000000000, 0.2156116452720416300 ) ) ;
#532 = AXIS2_PLACEMENT_3D ( 'NONE', #531, #530, #529 ) ;
#533 = CARTESIAN_POINT ( 'NONE',  ( 0.2499999999999997800, 0.9999999999999991100, 1.175384852653153400 ) ) ;
#534 = CARTESIAN_POINT ( 'NONE',  ( 0.2499999999999998300, 0.9900380025176993600, 1.178212166026276800 ) ) ;
#535 = CARTESIAN_POINT ( 'NONE',  ( 0.2499999999999997800, 0.9699981083484048300, 1.183577833704390500 ) ) ;
#536 = CARTESIAN_POINT ( 'NONE',  ( 0.2499999999999996700, 0.9497250178236861200, 1.188362097897184700 ) ) ;
#537 = CARTESIAN_POINT ( 'NONE',  ( 0.2499999999999996700, 0.9395296958493147800, 1.190607688315616000 ) ) ;
#538 = CIRCLE ( 'NONE', #532, 1.749999999999999800 ) ;
#539 = CARTESIAN_POINT ( 'NONE',  ( -0.2500000000000002200, 0.9999999999999991100, 1.175384852654415900 ) ) ;
#540 = B_SPLINE_CURVE_WITH_KNOTS ( 'NONE', 3,
 ( #586, #585, #584, #583, #582 ),
 .UNSPECIFIED., .F., .F.,
 ( 4, 1, 4 ),
 ( 0.0003446846353624291100, 0.0003757366378750985500, 0.0004067886403877679300 ),
 .UNSPECIFIED. ) ;
#541 = CARTESIAN_POINT ( 'NONE',  ( 0.9395296958493146700, 0.2500000000000000000, 1.190607688315616000 ) ) ;
#542 = CARTESIAN_POINT ( 'NONE',  ( 0.9496824450760186200, 0.2500000000000000600, 1.188371474840304900 ) ) ;
#543 = CARTESIAN_POINT ( 'NONE',  ( 0.9699138094637174100, 0.2500000000000000000, 1.183599057401267100 ) ) ;
#544 = CARTESIAN_POINT ( 'NONE',  ( 0.9899962523672141100, 0.2500000000000000000, 1.178224015131743400 ) ) ;
#545 = CARTESIAN_POINT ( 'NONE',  ( 0.9999999999999983300, 0.2500000000000000000, 1.175384852654416200 ) ) ;
#546 = B_SPLINE_CURVE_WITH_KNOTS ( 'NONE', 3,
 ( #545, #544, #543, #542, #541 ),
 .UNSPECIFIED., .F., .F.,
 ( 4, 1, 4 ),
 ( 0.008832565764069561600, 0.008863701354130556300, 0.008894836944191551000 ),
 .UNSPECIFIED. ) ;
#547 = CARTESIAN_POINT ( 'NONE',  ( -0.2500000000000002200, 0.9999999999999991100, 1.175384852654415900 ) ) ;
#548 = CARTESIAN_POINT ( 'NONE',  ( -0.1671597256434773600, 0.9999999999999991100, 1.181262574866138900 ) ) ;
#549 = CARTESIAN_POINT ( 'NONE',  ( -0.08395749075947761500, 0.9999999999999988900, 1.183847272836183100 ) ) ;
#550 = CARTESIAN_POINT ( 'NONE',  ( 0.08301294739750328400, 0.9999999999999991100, 1.183867633222784700 ) ) ;
#551 = CARTESIAN_POINT ( 'NONE',  ( 0.1666789682265477100, 0.9999999999999991100, 1.181296685792325300 ) ) ;
#552 = CARTESIAN_POINT ( 'NONE',  ( 0.2499999999999997800, 0.9999999999999991100, 1.175384852653153400 ) ) ;
#553 = CARTESIAN_POINT ( 'NONE',  ( 0.2499999999999996700, 0.9395296958493147800, 1.190607688315616000 ) ) ;
#554 = B_SPLINE_CURVE_WITH_KNOTS ( 'NONE', 3,
 ( #552, #551, #550, #549, #548, #547 ),
 .UNSPECIFIED., .F., .F.,
 ( 4, 2, 4 ),
 ( 0.007479671739848160400, 0.007728631326206851200, 0.007977590912565541900 ),
 .UNSPECIFIED. ) ;
#555 = CARTESIAN_POINT ( 'NONE',  ( 0.9999999999999983300, 0.2500000000000000000, 1.175384852654416200 ) ) ;
#556 = CARTESIAN_POINT ( 'NONE',  ( -0.2500000000000002200, 0.9395296958493147800, 1.190607688315616000 ) ) ;
#557 = CARTESIAN_POINT ( 'NONE',  ( -0.2500000000000003300, 0.9496824450760189600, 1.188371474840304900 ) ) ;
#558 = CARTESIAN_POINT ( 'NONE',  ( -0.2500000000000002800, 0.9699138094637197400, 1.183599057401266500 ) ) ;
#559 = CARTESIAN_POINT ( 'NONE',  ( -0.2500000000000002200, 0.9899962523672150000, 1.178224015131742900 ) ) ;
#560 = CARTESIAN_POINT ( 'NONE',  ( -0.2500000000000002200, 0.9999999999999991100, 1.175384852654415900 ) ) ;
#561 = CARTESIAN_POINT ( 'NONE',  ( -0.2500000000000006700, -0.9999999999999991100, 1.175384852653153400 ) ) ;
#562 = CARTESIAN_POINT ( 'NONE',  ( 0.2499999999999993600, -0.9395296958493147800, 1.190607688315616000 ) ) ;
#563 = CARTESIAN_POINT ( 'NONE',  ( 0.2499999999999994200, -0.9496824450760195100, 1.188371474840304900 ) ) ;
#564 = CARTESIAN_POINT ( 'NONE',  ( 0.2499999999999993600, -0.9699138094637191900, 1.183599057401266900 ) ) ;
#565 = CARTESIAN_POINT ( 'NONE',  ( 0.2499999999999993600, -0.9899962523672160000, 1.178224015131742500 ) ) ;
#566 = CARTESIAN_POINT ( 'NONE',  ( 0.2499999999999993600, -0.9999999999999991100, 1.175384852654416200 ) ) ;
#567 = CARTESIAN_POINT ( 'NONE',  ( 0.2499999999999993600, -0.9999999999999991100, 1.175384852654416200 ) ) ;
#568 = B_SPLINE_CURVE_WITH_KNOTS ( 'NONE', 3,
 ( #566, #565, #564, #563, #562 ),
 .UNSPECIFIED., .F., .F.,
 ( 4, 1, 4 ),
 ( 0.008832565764069662300, 0.008863701354130658700, 0.008894836944191655100 ),
 .UNSPECIFIED. ) ;
#569 = CARTESIAN_POINT ( 'NONE',  ( 0.2499999999999993600, -0.9395296958493147800, 1.190607688315616000 ) ) ;
#570 = DIRECTION ( 'NONE',  ( 1.000000000000000000, 0.0000000000000000000, 0.0000000000000000000 ) ) ;
#571 = DIRECTION ( 'NONE',  ( 0.0000000000000000000, 0.0000000000000000000, 1.000000000000000000 ) ) ;
#572 = CARTESIAN_POINT ( 'NONE',  ( 0.0000000000000000000, 0.0000000000000000000, 1.190607688315616000 ) ) ;
#573 = AXIS2_PLACEMENT_3D ( 'NONE', #572, #571, #570 ) ;
#574 = CARTESIAN_POINT ( 'NONE',  ( -0.2500000000000006700, -0.9999999999999991100, 1.175384852653153400 ) ) ;
#575 = CARTESIAN_POINT ( 'NONE',  ( -0.2500000000000006700, -0.9999999999999991100, 1.175384852653153400 ) ) ;
#576 = CARTESIAN_POINT ( 'NONE',  ( -0.2500000000000006100, -0.9900380025176993600, 1.178212166026276500 ) ) ;
#577 = CARTESIAN_POINT ( 'NONE',  ( -0.2500000000000007200, -0.9699981084372648600, 1.183577833925936400 ) ) ;
#578 = CARTESIAN_POINT ( 'NONE',  ( -0.2500000000000007200, -0.9497250178236862400, 1.188362097897184900 ) ) ;
#579 = CARTESIAN_POINT ( 'NONE',  ( -0.2500000000000006100, -0.9395296958493145600, 1.190607688315616000 ) ) ;
#580 = CIRCLE ( 'NONE', #573, 0.9722222222222217700 ) ;
#581 = B_SPLINE_CURVE_WITH_KNOTS ( 'NONE', 3,
 ( #579, #578, #577, #576, #575 ),
 .UNSPECIFIED., .F., .F.,
 ( 4, 1, 4 ),
 ( 0.0003446846353624303100, 0.0003757366378751004500, 0.0004067886403877703100 ),
 .UNSPECIFIED. ) ;
#582 = CARTESIAN_POINT ( 'NONE',  ( -1.000000000000000000, 0.2499999999999997800, 1.175384852653157800 ) ) ;
#583 = CARTESIAN_POINT ( 'NONE',  ( -0.9900380025176989100, 0.2499999999999998300, 1.178212166026277000 ) ) ;
#584 = CARTESIAN_POINT ( 'NONE',  ( -0.9699981083484046100, 0.2499999999999997800, 1.183577833704390700 ) ) ;
#585 = CARTESIAN_POINT ( 'NONE',  ( -0.9497250178236860100, 0.2499999999999997800, 1.188362097897184700 ) ) ;
#586 = CARTESIAN_POINT ( 'NONE',  ( -0.9395296958493147800, 0.2499999999999997800, 1.190607688315616000 ) ) ;
#587 = DIRECTION ( 'NONE',  ( 0.0000000000000000000, 0.0000000000000000000, -1.000000000000000000 ) ) ;
#588 = DIRECTION ( 'NONE',  ( 0.0000000000000000000, -1.000000000000000000, 0.0000000000000000000 ) ) ;
#589 = CARTESIAN_POINT ( 'NONE',  ( 0.0000000000000000000, 0.2499999999999997800, -3.074999999999998000 ) ) ;
#590 = AXIS2_PLACEMENT_3D ( 'NONE', #589, #588, #587 ) ;
#591 = CIRCLE ( 'NONE', #590, 4.367851302414034200 ) ;
#592 = DIRECTION ( 'NONE',  ( 0.0000000000000000000, 1.000000000000000000, 0.0000000000000000000 ) ) ;
#593 = DIRECTION ( 'NONE',  ( -1.000000000000000000, 0.0000000000000000000, 0.0000000000000000000 ) ) ;
#594 = AXIS2_PLACEMENT_3D ( 'NONE', #596, #593, #592 ) ;
#595 = SPHERICAL_SURFACE ( 'NONE', #594, 4.374999999999997300 ) ;
#596 = CARTESIAN_POINT ( 'NONE',  ( 0.0000000000000000000, 0.0000000000000000000, -3.074999999999998000 ) ) ;
#597 = DIRECTION ( 'NONE',  ( 1.154238034447561300E-015, 1.000000000000000000, 0.0000000000000000000 ) ) ;
#598 = DIRECTION ( 'NONE',  ( 1.000000000000000000, -1.156482317317872300E-015, 0.0000000000000000000 ) ) ;
#599 = CARTESIAN_POINT ( 'NONE',  ( -0.2500000000000013900, 2.891205793294696600E-016, -3.074999999999998000 ) ) ;
#600 = AXIS2_PLACEMENT_3D ( 'NONE', #599, #598, #597 ) ;
#601 = FACE_OUTER_BOUND ( 'NONE', #914, .T. ) ;
#602 = CARTESIAN_POINT ( 'NONE',  ( 0.9999999999999983300, -0.2499999999999992500, 1.175384852653153800 ) ) ;
#603 = CARTESIAN_POINT ( 'NONE',  ( 0.9900380025176984700, -0.2499999999999992000, 1.178212166026276800 ) ) ;
#604 = CARTESIAN_POINT ( 'NONE',  ( 0.9699981083484046100, -0.2499999999999992000, 1.183577833704390300 ) ) ;
#605 = CARTESIAN_POINT ( 'NONE',  ( 0.9497250178236859000, -0.2499999999999992500, 1.188362097897184900 ) ) ;
#606 = CARTESIAN_POINT ( 'NONE',  ( 0.9395296958493147800, -0.2499999999999992500, 1.190607688315616000 ) ) ;
#607 = CIRCLE ( 'NONE', #600, 4.367851302414034200 ) ;
#608 = B_SPLINE_CURVE_WITH_KNOTS ( 'NONE', 3,
 ( #606, #605, #604, #603, #602 ),
 .UNSPECIFIED., .F., .F.,
 ( 4, 1, 4 ),
 ( 0.0003446846353624315500, 0.0003757366378751007200, 0.0004067886403877702100 ),
 .UNSPECIFIED. ) ;
#609 = CARTESIAN_POINT ( 'NONE',  ( 0.2499999999999993600, 0.2499999999999997800, 1.285690885628101100 ) ) ;
#610 = DIRECTION ( 'NONE',  ( -5.833245980541438600E-016, -1.000000000000000000, 0.0000000000000000000 ) ) ;
#611 = DIRECTION ( 'NONE',  ( -1.000000000000000000, 5.782411586589361600E-016, 0.0000000000000000000 ) ) ;
#612 = CARTESIAN_POINT ( 'NONE',  ( 0.2499999999999992000, -1.445602896647335700E-016, -3.074999999999998000 ) ) ;
#613 = AXIS2_PLACEMENT_3D ( 'NONE', #612, #611, #610 ) ;
#614 = CIRCLE ( 'NONE', #613, 4.367851302414034200 ) ;
#615 =( LENGTH_UNIT ( ) NAMED_UNIT ( * ) SI_UNIT ( .MILLI., .METRE. ) );
#616 = CARTESIAN_POINT ( 'NONE',  ( -1.000000000000000000, -0.2499999999999993600, 1.175384852654415900 ) ) ;
#617 = CARTESIAN_POINT ( 'NONE',  ( -1.000000000000000000, -0.2085017594682704300, 1.178329255386008700 ) ) ;
#618 = CARTESIAN_POINT ( 'NONE',  ( -1.000000000000000000, -0.1669102360828371200, 1.180424994588673800 ) ) ;
#619 = CARTESIAN_POINT ( 'NONE',  ( -1.000000000000000200, -0.08357022743573407100, 1.183188474015582700 ) ) ;
#620 = CARTESIAN_POINT ( 'NONE',  ( -1.000000000000000200, -0.04182188150355754800, 1.183857481823899600 ) ) ;
#621 = CARTESIAN_POINT ( 'NONE',  ( -1.000000000000000000, 1.224606353822377500E-016, 1.183857481823899200 ) ) ;
#622 = AXIS2_PLACEMENT_3D ( 'NONE', #641, #640, #639 ) ;
#623 = CARTESIAN_POINT ( 'NONE',  ( -0.9395296958493147800, -0.2499999999999993600, 1.190607688315616000 ) ) ;
#624 = B_SPLINE_CURVE_WITH_KNOTS ( 'NONE', 3,
 ( #621, #620, #619, #618, #617, #616 ),
 .UNSPECIFIED., .F., .F.,
 ( 4, 2, 4 ),
 ( 1.134954790930501300E-019, 0.0001247145169138717600, 0.0002494290338277433500 ),
 .UNSPECIFIED. ) ;
#625 = DIRECTION ( 'NONE',  ( 0.0000000000000000000, 1.000000000000000000, 0.0000000000000000000 ) ) ;
#626 = DIRECTION ( 'NONE',  ( -1.000000000000000000, 0.0000000000000000000, 0.0000000000000000000 ) ) ;
#627 = CARTESIAN_POINT ( 'NONE',  ( 0.0000000000000000000, 0.0000000000000000000, -3.074999999999998000 ) ) ;
#628 = CARTESIAN_POINT ( 'NONE',  ( -0.9395296958493147800, -0.2499999999999993600, 1.190607688315616000 ) ) ;
#629 = CARTESIAN_POINT ( 'NONE',  ( -0.9496824450760202900, -0.2499999999999994200, 1.188371474840304700 ) ) ;
#630 = CARTESIAN_POINT ( 'NONE',  ( -0.9699138094637216300, -0.2499999999999993600, 1.183599057401266500 ) ) ;
#631 = CARTESIAN_POINT ( 'NONE',  ( -0.9899962523672168900, -0.2499999999999993600, 1.178224015131742200 ) ) ;
#632 = CARTESIAN_POINT ( 'NONE',  ( -1.000000000000000000, -0.2499999999999993600, 1.175384852654415900 ) ) ;
#633 = SPHERICAL_SURFACE ( 'NONE', #635, 4.374999999999997300 ) ;
#634 = B_SPLINE_CURVE_WITH_KNOTS ( 'NONE', 3,
 ( #632, #631, #630, #629, #628 ),
 .UNSPECIFIED., .F., .F.,
 ( 4, 1, 4 ),
 ( 0.008832565764069761100, 0.008863701354130757600, 0.008894836944191755700 ),
 .UNSPECIFIED. ) ;
#635 = AXIS2_PLACEMENT_3D ( 'NONE', #627, #626, #625 ) ;
#636 = FACE_OUTER_BOUND ( 'NONE', #919, .T. ) ;
#637 = CARTESIAN_POINT ( 'NONE',  ( -1.000000000000000000, -0.2499999999999993600, 1.175384852654415900 ) ) ;
#638 = CARTESIAN_POINT ( 'NONE',  ( -0.2500000000000011100, 0.2499999999999997800, 1.285690885628101100 ) ) ;
#639 = DIRECTION ( 'NONE',  ( 1.000000000000000000, 0.0000000000000000000, 0.0000000000000000000 ) ) ;
#640 = DIRECTION ( 'NONE',  ( 0.0000000000000000000, 0.0000000000000000000, 1.000000000000000000 ) ) ;
#641 = CARTESIAN_POINT ( 'NONE',  ( 0.0000000000000000000, 0.0000000000000000000, 0.0000000000000000000 ) ) ;
#642 = SHAPE_DEFINITION_REPRESENTATION ( #713, #643 ) ;
#643 = ADVANCED_BREP_SHAPE_REPRESENTATION ( 'CSPPNR-RENY-M2-5_203', ( #831, #622 ), #644 ) ;
#644 =( GEOMETRIC_REPRESENTATION_CONTEXT ( 3 ) GLOBAL_UNCERTAINTY_ASSIGNED_CONTEXT ( ( #645 ) ) GLOBAL_UNIT_ASSIGNED_CONTEXT ( ( #615, #647, #646 ) ) REPRESENTATION_CONTEXT ( 'NONE', 'WORKASPACE' ) );
#645 = UNCERTAINTY_MEASURE_WITH_UNIT (LENGTH_MEASURE( 1.000000000000000100E-005 ), #615, 'distance_accuracy_value', 'NONE');
#646 =( NAMED_UNIT ( * ) SI_UNIT ( $, .STERADIAN. ) SOLID_ANGLE_UNIT ( ) );
#647 =( NAMED_UNIT ( * ) PLANE_ANGLE_UNIT ( ) SI_UNIT ( $, .RADIAN. ) );
#648 = APPROVAL_DATE_TIME ( #649, #655 ) ;
#649 = DATE_AND_TIME ( #650, #651 ) ;
#650 = CALENDAR_DATE ( 2014, 11, 3 ) ;
#651 = LOCAL_TIME ( 16, 17, 6.000000000000000000, #652 ) ;
#652 = COORDINATED_UNIVERSAL_TIME_OFFSET ( 8, 0, .AHEAD. ) ;
#653 = APPROVAL_PERSON_ORGANIZATION ( #657, #655, #654 ) ;
#654 = APPROVAL_ROLE ( '' ) ;
#655 = APPROVAL ( #656, 'UNSPECIFIED' ) ;
#656 = APPROVAL_STATUS ( 'not_yet_approved' ) ;
#657 = PERSON_AND_ORGANIZATION ( #666, #665 ) ;
#658 = PRODUCT_DEFINITION ( 'UNKNOWN', '', #702, #659 ) ;
#659 = DESIGN_CONTEXT ( 'detailed design', #661, 'design' ) ;
#660 = APPLICATION_PROTOCOL_DEFINITION ( 'international standard', 'config_control_design', 1994, #661 ) ;
#661 = APPLICATION_CONTEXT ( 'configuration controlled 3d designs of mechanical parts and assemblies' ) ;
#662 = CC_DESIGN_PERSON_AND_ORGANIZATION_ASSIGNMENT ( #664, #663, ( #667 ) ) ;
#663 = PERSON_AND_ORGANIZATION_ROLE ( 'design_owner' ) ;
#664 = PERSON_AND_ORGANIZATION ( #666, #665 ) ;
#665 = ORGANIZATION ( 'UNSPECIFIED', 'UNSPECIFIED', '' ) ;
#666 = PERSON ( 'UNSPECIFIED', 'UNSPECIFIED', 'UNSPECIFIED', ('UNSPECIFIED'), ('UNSPECIFIED'), ('UNSPECIFIED') ) ;
#667 = PRODUCT ( 'CSPPNR-RENY-M2-5_203', 'CSPPNR-RENY-M2-5_203', '', ( #668 ) ) ;
#668 = MECHANICAL_CONTEXT ( 'NONE', #670, 'mechanical' ) ;
#669 = APPLICATION_PROTOCOL_DEFINITION ( 'international standard', 'config_control_design', 1994, #670 ) ;
#670 = APPLICATION_CONTEXT ( 'configuration controlled 3d designs of mechanical parts and assemblies' ) ;
#671 = APPROVAL ( #672, 'UNSPECIFIED' ) ;
#672 = APPROVAL_STATUS ( 'not_yet_approved' ) ;
#673 = PERSON_AND_ORGANIZATION ( #666, #665 ) ;
#674 = CC_DESIGN_DATE_AND_TIME_ASSIGNMENT ( #676, #675, ( #683 ) ) ;
#675 = DATE_TIME_ROLE ( 'classification_date' ) ;
#676 = DATE_AND_TIME ( #677, #678 ) ;
#677 = CALENDAR_DATE ( 2014, 11, 3 ) ;
#678 = LOCAL_TIME ( 16, 17, 6.000000000000000000, #679 ) ;
#679 = COORDINATED_UNIVERSAL_TIME_OFFSET ( 8, 0, .AHEAD. ) ;
#680 = CC_DESIGN_PERSON_AND_ORGANIZATION_ASSIGNMENT ( #682, #681, ( #683 ) ) ;
#681 = PERSON_AND_ORGANIZATION_ROLE ( 'classification_officer' ) ;
#682 = PERSON_AND_ORGANIZATION ( #666, #665 ) ;
#683 = SECURITY_CLASSIFICATION ( '', '', #684 ) ;
#684 = SECURITY_CLASSIFICATION_LEVEL ( 'unclassified' ) ;
#685 = CC_DESIGN_PERSON_AND_ORGANIZATION_ASSIGNMENT ( #687, #686, ( #702 ) ) ;
#686 = PERSON_AND_ORGANIZATION_ROLE ( 'design_supplier' ) ;
#687 = PERSON_AND_ORGANIZATION ( #666, #665 ) ;
#688 = CC_DESIGN_PERSON_AND_ORGANIZATION_ASSIGNMENT ( #690, #689, ( #702 ) ) ;
#689 = PERSON_AND_ORGANIZATION_ROLE ( 'creator' ) ;
#690 = PERSON_AND_ORGANIZATION ( #666, #665 ) ;
#691 = CC_DESIGN_APPROVAL ( #699, ( #702 ) ) ;
#692 = APPROVAL_DATE_TIME ( #693, #699 ) ;
#693 = DATE_AND_TIME ( #694, #695 ) ;
#694 = CALENDAR_DATE ( 2014, 11, 3 ) ;
#695 = LOCAL_TIME ( 16, 17, 6.000000000000000000, #696 ) ;
#696 = COORDINATED_UNIVERSAL_TIME_OFFSET ( 8, 0, .AHEAD. ) ;
#697 = APPROVAL_PERSON_ORGANIZATION ( #701, #699, #698 ) ;
#698 = APPROVAL_ROLE ( '' ) ;
#699 = APPROVAL ( #700, 'UNSPECIFIED' ) ;
#700 = APPROVAL_STATUS ( 'not_yet_approved' ) ;
#701 = PERSON_AND_ORGANIZATION ( #666, #665 ) ;
#702 = PRODUCT_DEFINITION_FORMATION_WITH_SPECIFIED_SOURCE ( 'ANY', '', #667, .NOT_KNOWN. ) ;
#703 = CC_DESIGN_DATE_AND_TIME_ASSIGNMENT ( #705, #704, ( #658 ) ) ;
#704 = DATE_TIME_ROLE ( 'creation_date' ) ;
#705 = DATE_AND_TIME ( #706, #707 ) ;
#706 = CALENDAR_DATE ( 2014, 11, 3 ) ;
#707 = LOCAL_TIME ( 16, 17, 6.000000000000000000, #708 ) ;
#708 = COORDINATED_UNIVERSAL_TIME_OFFSET ( 8, 0, .AHEAD. ) ;
#709 = CC_DESIGN_PERSON_AND_ORGANIZATION_ASSIGNMENT ( #711, #710, ( #658 ) ) ;
#710 = PERSON_AND_ORGANIZATION_ROLE ( 'creator' ) ;
#711 = PERSON_AND_ORGANIZATION ( #666, #665 ) ;
#712 = CC_DESIGN_APPROVAL ( #655, ( #658 ) ) ;
#713 = PRODUCT_DEFINITION_SHAPE ( 'NONE', 'NONE',  #658 ) ;
#714 = PRODUCT_RELATED_PRODUCT_CATEGORY ( 'detail', '', ( #667 ) ) ;
#715 = CC_DESIGN_SECURITY_CLASSIFICATION ( #683, ( #702 ) ) ;
#716 = CC_DESIGN_APPROVAL ( #671, ( #683 ) ) ;
#717 = APPROVAL_DATE_TIME ( #718, #671 ) ;
#718 = DATE_AND_TIME ( #719, #720 ) ;
#719 = CALENDAR_DATE ( 2014, 11, 3 ) ;
#720 = LOCAL_TIME ( 16, 17, 6.000000000000000000, #721 ) ;
#721 = COORDINATED_UNIVERSAL_TIME_OFFSET ( 8, 0, .AHEAD. ) ;
#722 = APPROVAL_PERSON_ORGANIZATION ( #673, #671, #723 ) ;
#723 = APPROVAL_ROLE ( '' ) ;
#724 = ADVANCED_FACE ( 'NONE', ( #280 ), #279, .T. ) ;
#725 = EDGE_LOOP ( 'NONE', ( #14, #732, #734, #3, #735, #728, #731, #729, #727, #733, #730, #736 ) ) ;
#726 = ORIENTED_EDGE ( 'NONE', *, *, #12, .T. ) ;
#727 = ORIENTED_EDGE ( 'NONE', *, *, #43, .F. ) ;
#728 = ORIENTED_EDGE ( 'NONE', *, *, #66, .F. ) ;
#729 = ORIENTED_EDGE ( 'NONE', *, *, #848, .F. ) ;
#730 = ORIENTED_EDGE ( 'NONE', *, *, #796, .F. ) ;
#731 = ORIENTED_EDGE ( 'NONE', *, *, #55, .F. ) ;
#732 = ORIENTED_EDGE ( 'NONE', *, *, #808, .F. ) ;
#733 = ORIENTED_EDGE ( 'NONE', *, *, #34, .F. ) ;
#734 = ORIENTED_EDGE ( 'NONE', *, *, #18, .F. ) ;
#735 = ORIENTED_EDGE ( 'NONE', *, *, #856, .F. ) ;
#736 = ORIENTED_EDGE ( 'NONE', *, *, #23, .F. ) ;
#737 = CLOSED_SHELL ( 'NONE', ( #830, #825, #869, #81, #83, #926, #918, #752, #761, #760, #776, #770, #851, #845, #798, #857, #16, #33, #27, #61, #30, #45, #53, #64, #4, #724, #741 ) ) ;
#738 = ORIENTED_EDGE ( 'NONE', *, *, #815, .F. ) ;
#739 = EDGE_LOOP ( 'NONE', ( #738, #746, #740, #744 ) ) ;
#740 = ORIENTED_EDGE ( 'NONE', *, *, #793, .T. ) ;
#741 = ADVANCED_FACE ( 'NONE', ( #274 ), #273, .T. ) ;
#742 = ORIENTED_EDGE ( 'NONE', *, *, #861, .T. ) ;
#743 = VERTEX_POINT ( 'NONE', #268 ) ;
#744 = ORIENTED_EDGE ( 'NONE', *, *, #779, .F. ) ;
#745 = ORIENTED_EDGE ( 'NONE', *, *, #824, .F. ) ;
#746 = ORIENTED_EDGE ( 'NONE', *, *, #782, .F. ) ;
#747 = VERTEX_POINT ( 'NONE', #267 ) ;
#748 = ORIENTED_EDGE ( 'NONE', *, *, #809, .F. ) ;
#749 = VERTEX_POINT ( 'NONE', #266 ) ;
#750 = EDGE_CURVE ( 'NONE', #96, #912, #264, .T. ) ;
#751 = ORIENTED_EDGE ( 'NONE', *, *, #750, .F. ) ;
#752 = ADVANCED_FACE ( 'NONE', ( #265 ), #324, .T. ) ;
#753 = VERTEX_POINT ( 'NONE', #320 ) ;
#754 = ORIENTED_EDGE ( 'NONE', *, *, #755, .F. ) ;
#755 = EDGE_CURVE ( 'NONE', #904, #753, #319, .T. ) ;
#756 = ORIENTED_EDGE ( 'NONE', *, *, #98, .T. ) ;
#757 = EDGE_CURVE ( 'NONE', #753, #749, #314, .T. ) ;
#758 = EDGE_LOOP ( 'NONE', ( #784, #772 ) ) ;
#759 = ORIENTED_EDGE ( 'NONE', *, *, #757, .F. ) ;
#760 = ADVANCED_FACE ( 'NONE', ( #309 ), #308, .F. ) ;
#761 = ADVANCED_FACE ( 'NONE', ( #303 ), #302, .T. ) ;
#762 = ORIENTED_EDGE ( 'NONE', *, *, #763, .F. ) ;
#763 = EDGE_CURVE ( 'NONE', #765, #747, #297, .T. ) ;
#764 = EDGE_LOOP ( 'NONE', ( #762, #766, #768 ) ) ;
#765 = VERTEX_POINT ( 'NONE', #292 ) ;
#766 = ORIENTED_EDGE ( 'NONE', *, *, #767, .F. ) ;
#767 = EDGE_CURVE ( 'NONE', #928, #765, #291, .T. ) ;
#768 = ORIENTED_EDGE ( 'NONE', *, *, #809, .T. ) ;
#769 = ORIENTED_EDGE ( 'NONE', *, *, #901, .T. ) ;
#770 = ADVANCED_FACE ( 'NONE', ( #359, #354 ), #353, .F. ) ;
#771 = EDGE_LOOP ( 'NONE', ( #850, #847 ) ) ;
#772 = ORIENTED_EDGE ( 'NONE', *, *, #792, .T. ) ;
#773 = ORIENTED_EDGE ( 'NONE', *, *, #781, .F. ) ;
#774 = EDGE_LOOP ( 'NONE', ( #777, #778, #775, #773 ) ) ;
#775 = ORIENTED_EDGE ( 'NONE', *, *, #102, .T. ) ;
#776 = ADVANCED_FACE ( 'NONE', ( #348 ), #347, .T. ) ;
#777 = ORIENTED_EDGE ( 'NONE', *, *, #871, .F. ) ;
#778 = ORIENTED_EDGE ( 'NONE', *, *, #779, .T. ) ;
#779 = EDGE_CURVE ( 'NONE', #819, #817, #346, .T. ) ;
#780 = ORIENTED_EDGE ( 'NONE', *, *, #907, .T. ) ;
#781 = EDGE_CURVE ( 'NONE', #863, #875, #337, .T. ) ;
#782 = EDGE_CURVE ( 'NONE', #785, #790, #331, .T. ) ;
#783 = VERTEX_POINT ( 'NONE', #389 ) ;
#784 = ORIENTED_EDGE ( 'NONE', *, *, #782, .T. ) ;
#785 = VERTEX_POINT ( 'NONE', #388 ) ;
#786 = VERTEX_POINT ( 'NONE', #387 ) ;
#787 = EDGE_CURVE ( 'NONE', #783, #87, #386, .T. ) ;
#788 = ORIENTED_EDGE ( 'NONE', *, *, #856, .T. ) ;
#789 = EDGE_LOOP ( 'NONE', ( #800, #799, #853, #834, #859 ) ) ;
#790 = VERTEX_POINT ( 'NONE', #382 ) ;
#791 = EDGE_LOOP ( 'NONE', ( #759, #754, #769 ) ) ;
#792 = EDGE_CURVE ( 'NONE', #790, #785, #381, .T. ) ;
#793 = EDGE_CURVE ( 'NONE', #785, #817, #376, .T. ) ;
#794 = EDGE_LOOP ( 'NONE', ( #780, #858, #788, #838 ) ) ;
#795 = ORIENTED_EDGE ( 'NONE', *, *, #792, .F. ) ;
#796 = EDGE_CURVE ( 'NONE', #743, #783, #372, .T. ) ;
#797 = ORIENTED_EDGE ( 'NONE', *, *, #787, .T. ) ;
#798 = ADVANCED_FACE ( 'NONE', ( #368 ), #367, .T. ) ;
#799 = ORIENTED_EDGE ( 'NONE', *, *, #885, .T. ) ;
#800 = ORIENTED_EDGE ( 'NONE', *, *, #91, .T. ) ;
#801 = ORIENTED_EDGE ( 'NONE', *, *, #815, .T. ) ;
#802 = VERTEX_POINT ( 'NONE', #362 ) ;
#803 = ORIENTED_EDGE ( 'NONE', *, *, #808, .T. ) ;
#804 = EDGE_CURVE ( 'NONE', #807, #100, #361, .T. ) ;
#805 = ORIENTED_EDGE ( 'NONE', *, *, #804, .T. ) ;
#806 = EDGE_LOOP ( 'NONE', ( #68, #74, #67, #71, #69 ) ) ;
#807 = VERTEX_POINT ( 'NONE', #418 ) ;
#808 = EDGE_CURVE ( 'NONE', #802, #807, #417, .T. ) ;
#809 = EDGE_CURVE ( 'NONE', #928, #747, #413, .T. ) ;
#810 = ORIENTED_EDGE ( 'NONE', *, *, #920, .T. ) ;
#811 = EDGE_LOOP ( 'NONE', ( #25, #60, #22, #58, #810 ) ) ;
#812 = EDGE_LOOP ( 'NONE', ( #21, #28, #59, #56, #57 ) ) ;
#813 = EDGE_CURVE ( 'NONE', #817, #819, #408, .T. ) ;
#814 = ORIENTED_EDGE ( 'NONE', *, *, #793, .F. ) ;
#815 = EDGE_CURVE ( 'NONE', #790, #819, #403, .T. ) ;
#816 = ORIENTED_EDGE ( 'NONE', *, *, #813, .F. ) ;
#817 = VERTEX_POINT ( 'NONE', #399 ) ;
#818 = EDGE_CURVE ( 'NONE', #823, #821, #398, .T. ) ;
#819 = VERTEX_POINT ( 'NONE', #393 ) ;
#820 = ORIENTED_EDGE ( 'NONE', *, *, #824, .T. ) ;
#821 = VERTEX_POINT ( 'NONE', #392 ) ;
#822 = ORIENTED_EDGE ( 'NONE', *, *, #818, .T. ) ;
#823 = VERTEX_POINT ( 'NONE', #391 ) ;
#824 = EDGE_CURVE ( 'NONE', #821, #827, #390, .T. ) ;
#825 = ADVANCED_FACE ( 'NONE', ( #450 ), #449, .T. ) ;
#826 = EDGE_LOOP ( 'NONE', ( #822, #820, #829, #865 ) ) ;
#827 = VERTEX_POINT ( 'NONE', #444 ) ;
#828 = ORIENTED_EDGE ( 'NONE', *, *, #796, .T. ) ;
#829 = ORIENTED_EDGE ( 'NONE', *, *, #867, .F. ) ;
#830 = ADVANCED_FACE ( 'NONE', ( #443 ), #442, .T. ) ;
#831 = MANIFOLD_SOLID_BREP ( 'NONE', #737 ) ;
#832 = EDGE_LOOP ( 'NONE', ( #795, #801, #816, #814 ) ) ;
#833 = ORIENTED_EDGE ( 'NONE', *, *, #873, .T. ) ;
#834 = ORIENTED_EDGE ( 'NONE', *, *, #848, .T. ) ;
#835 = EDGE_CURVE ( 'NONE', #836, #893, #437, .T. ) ;
#836 = VERTEX_POINT ( 'NONE', #433 ) ;
#837 = VERTEX_POINT ( 'NONE', #432 ) ;
#838 = ORIENTED_EDGE ( 'NONE', *, *, #10, .T. ) ;
#839 = EDGE_LOOP ( 'NONE', ( #841, #842, #828, #797 ) ) ;
#840 = ORIENTED_EDGE ( 'NONE', *, *, #868, .T. ) ;
#841 = ORIENTED_EDGE ( 'NONE', *, *, #889, .T. ) ;
#842 = ORIENTED_EDGE ( 'NONE', *, *, #852, .F. ) ;
#843 = EDGE_LOOP ( 'NONE', ( #833, #844 ) ) ;
#844 = ORIENTED_EDGE ( 'NONE', *, *, #781, .T. ) ;
#845 = ADVANCED_FACE ( 'NONE', ( #431 ), #430, .T. ) ;
#846 = EDGE_LOOP ( 'NONE', ( #745, #742, #840, #849 ) ) ;
#847 = ORIENTED_EDGE ( 'NONE', *, *, #861, .F. ) ;
#848 = EDGE_CURVE ( 'NONE', #836, #837, #425, .T. ) ;
#849 = ORIENTED_EDGE ( 'NONE', *, *, #883, .F. ) ;
#850 = ORIENTED_EDGE ( 'NONE', *, *, #818, .F. ) ;
#851 = ADVANCED_FACE ( 'NONE', ( #421 ), #484, .T. ) ;
#852 = EDGE_CURVE ( 'NONE', #743, #897, #485, .T. ) ;
#853 = ORIENTED_EDGE ( 'NONE', *, *, #835, .F. ) ;
#854 = EDGE_CURVE ( 'NONE', #786, #906, #476, .T. ) ;
#855 = VERTEX_POINT ( 'NONE', #472 ) ;
#856 = EDGE_CURVE ( 'NONE', #786, #855, #471, .T. ) ;
#857 = ADVANCED_FACE ( 'NONE', ( #467 ), #466, .T. ) ;
#858 = ORIENTED_EDGE ( 'NONE', *, *, #854, .F. ) ;
#859 = ORIENTED_EDGE ( 'NONE', *, *, #860, .T. ) ;
#860 = EDGE_CURVE ( 'NONE', #837, #89, #461, .T. ) ;
#861 = EDGE_CURVE ( 'NONE', #821, #823, #457, .T. ) ;
#862 = ORIENTED_EDGE ( 'NONE', *, *, #813, .T. ) ;
#863 = VERTEX_POINT ( 'NONE', #513 ) ;
#864 = VERTEX_POINT ( 'NONE', #512 ) ;
#865 = ORIENTED_EDGE ( 'NONE', *, *, #868, .F. ) ;
#866 = EDGE_LOOP ( 'NONE', ( #862, #870, #876, #82 ) ) ;
#867 = EDGE_CURVE ( 'NONE', #864, #827, #510, .T. ) ;
#868 = EDGE_CURVE ( 'NONE', #823, #864, #511, .T. ) ;
#869 = ADVANCED_FACE ( 'NONE', ( #502 ), #500, .T. ) ;
#870 = ORIENTED_EDGE ( 'NONE', *, *, #871, .T. ) ;
#871 = EDGE_CURVE ( 'NONE', #819, #863, #501, .T. ) ;
#872 = EDGE_LOOP ( 'NONE', ( #874, #880, #93, #881, #900, #88, #92, #890, #97, #895, #877, #86 ) ) ;
#873 = EDGE_CURVE ( 'NONE', #875, #863, #492, .T. ) ;
#874 = ORIENTED_EDGE ( 'NONE', *, *, #867, .T. ) ;
#875 = VERTEX_POINT ( 'NONE', #487 ) ;
#876 = ORIENTED_EDGE ( 'NONE', *, *, #873, .F. ) ;
#877 = ORIENTED_EDGE ( 'NONE', *, *, #885, .F. ) ;
#878 = B_SPLINE_CURVE_WITH_KNOTS ( 'NONE', 3,
 ( #561, #332, #326, #325, #19, #20 ),
 .UNSPECIFIED., .F., .F.,
 ( 4, 2, 4 ),
 ( 0.007479671739848167300, 0.007728631326206858100, 0.007977590912565548900 ),
 .UNSPECIFIED. ) ;
#879 = EDGE_CURVE ( 'NONE', #891, #87, #486, .T. ) ;
#880 = ORIENTED_EDGE ( 'NONE', *, *, #886, .T. ) ;
#881 = ORIENTED_EDGE ( 'NONE', *, *, #896, .F. ) ;
#882 = ORIENTED_EDGE ( 'NONE', *, *, #85, .T. ) ;
#883 = EDGE_CURVE ( 'NONE', #827, #864, #538, .T. ) ;
#884 = ORIENTED_EDGE ( 'NONE', *, *, #883, .T. ) ;
#885 = EDGE_CURVE ( 'NONE', #84, #893, #528, .T. ) ;
#886 = EDGE_CURVE ( 'NONE', #827, #101, #520, .T. ) ;
#887 = VERTEX_POINT ( 'NONE', #516 ) ;
#888 = EDGE_CURVE ( 'NONE', #897, #887, #515, .T. ) ;
#889 = EDGE_CURVE ( 'NONE', #87, #897, #554, .T. ) ;
#890 = ORIENTED_EDGE ( 'NONE', *, *, #879, .F. ) ;
#891 = VERTEX_POINT ( 'NONE', #553 ) ;
#892 = ORIENTED_EDGE ( 'NONE', *, *, #886, .F. ) ;
#893 = VERTEX_POINT ( 'NONE', #555 ) ;
#894 = EDGE_CURVE ( 'NONE', #893, #96, #546, .T. ) ;
#895 = ORIENTED_EDGE ( 'NONE', *, *, #894, .F. ) ;
#896 = EDGE_CURVE ( 'NONE', #95, #100, #540, .T. ) ;
#897 = VERTEX_POINT ( 'NONE', #539 ) ;
#898 = EDGE_CURVE ( 'NONE', #747, #903, #581, .T. ) ;
#899 = ORIENTED_EDGE ( 'NONE', *, *, #898, .F. ) ;
#900 = ORIENTED_EDGE ( 'NONE', *, *, #80, .F. ) ;
#901 = EDGE_CURVE ( 'NONE', #904, #749, #580, .T. ) ;
#902 = ORIENTED_EDGE ( 'NONE', *, *, #905, .F. ) ;
#903 = VERTEX_POINT ( 'NONE', #574 ) ;
#904 = VERTEX_POINT ( 'NONE', #569 ) ;
#905 = EDGE_CURVE ( 'NONE', #906, #904, #568, .T. ) ;
#906 = VERTEX_POINT ( 'NONE', #567 ) ;
#907 = EDGE_CURVE ( 'NONE', #903, #906, #878, .T. ) ;
#908 = ORIENTED_EDGE ( 'NONE', *, *, #907, .F. ) ;
#909 = ORIENTED_EDGE ( 'NONE', *, *, #910, .F. ) ;
#910 = EDGE_CURVE ( 'NONE', #912, #891, #614, .T. ) ;
#911 = ORIENTED_EDGE ( 'NONE', *, *, #901, .F. ) ;
#912 = VERTEX_POINT ( 'NONE', #609 ) ;
#913 = EDGE_CURVE ( 'NONE', #749, #89, #608, .T. ) ;
#914 = EDGE_LOOP ( 'NONE', ( #909, #751, #756 ) ) ;
#915 = ORIENTED_EDGE ( 'NONE', *, *, #916, .F. ) ;
#916 = EDGE_CURVE ( 'NONE', #887, #922, #607, .T. ) ;
#917 = ORIENTED_EDGE ( 'NONE', *, *, #80, .T. ) ;
#918 = ADVANCED_FACE ( 'NONE', ( #601 ), #595, .T. ) ;
#919 = EDGE_LOOP ( 'NONE', ( #921, #915, #917 ) ) ;
#920 = EDGE_CURVE ( 'NONE', #922, #95, #591, .T. ) ;
#921 = ORIENTED_EDGE ( 'NONE', *, *, #920, .F. ) ;
#922 = VERTEX_POINT ( 'NONE', #638 ) ;
#923 = VERTEX_POINT ( 'NONE', #637 ) ;
#924 = ORIENTED_EDGE ( 'NONE', *, *, #927, .F. ) ;
#925 = EDGE_CURVE ( 'NONE', #923, #928, #634, .T. ) ;
#926 = ADVANCED_FACE ( 'NONE', ( #636 ), #633, .T. ) ;
#927 = EDGE_CURVE ( 'NONE', #101, #923, #624, .T. ) ;
#928 = VERTEX_POINT ( 'NONE', #623 ) ;
#929 = ORIENTED_EDGE ( 'NONE', *, *, #925, .F. ) ;
ENDSEC;
END-ISO-10303-21;
