ISO-10303-21;
HEADER;
FILE_DESCRIPTION (( 'STEP AP214' ),
    '1' );
FILE_NAME ('CSPPNR-RENY-M2-5_214.STEP',
    '2014-03-11T08:17:07',
    ( 'guan-li' ),
    ( '' ),
    'SwSTEP 2.0',
    'SolidWorks 2007',
    '' );
FILE_SCHEMA (( 'AUTOMOTIVE_DESIGN' ));
ENDSEC;

DATA;
#1 = CARTESIAN_POINT ( 'NONE',  ( 0.9999999999999981100, 0.1669102360828379800, 1.180424994588674200 ) ) ;
#2 = CARTESIAN_POINT ( 'NONE',  ( 0.9999999999999983300, 0.2500000000000000000, 1.175384852654416200 ) ) ;
#3 = CARTESIAN_POINT ( 'NONE',  ( 0.9999999999999983300, 0.2085017594682711500, 1.178329255386009200 ) ) ;
#4 = CARTESIAN_POINT ( 'NONE',  ( 0.08301294739750328400, 0.9999999999999991100, 1.183867633222784700 ) ) ;
#5 = CARTESIAN_POINT ( 'NONE',  ( -0.08395749075947761500, 0.9999999999999988900, 1.183847272836183100 ) ) ;
#6 = CARTESIAN_POINT ( 'NONE',  ( -0.1671597256434773600, 0.9999999999999991100, 1.181262574866138900 ) ) ;
#7 = CARTESIAN_POINT ( 'NONE',  ( -0.2500000000000002200, 0.9999999999999991100, 1.175384852654415900 ) ) ;
#8 = CARTESIAN_POINT ( 'NONE',  ( 0.9999999999999983300, 0.0000000000000000000, 1.183857481823899600 ) ) ;
#9 = AXIS2_PLACEMENT_3D ( 'NONE', #14, #13, #12 ) ;
#10 = TOROIDAL_SURFACE ( 'NONE', #9, 0.7499999999999997800, 1.000000000000000200 ) ;
#11 = CARTESIAN_POINT ( 'NONE',  ( 0.7499999999999997800, 0.0000000000000000000, 0.2156116452720447700 ) ) ;
#12 = DIRECTION ( 'NONE',  ( 1.000000000000000000, 0.0000000000000000000, 0.0000000000000000000 ) ) ;
#13 = DIRECTION ( 'NONE',  ( 0.0000000000000000000, 0.0000000000000000000, 1.000000000000000000 ) ) ;
#14 = CARTESIAN_POINT ( 'NONE',  ( 0.0000000000000000000, 0.0000000000000000000, 0.2156116452720447700 ) ) ;
#15 = CIRCLE ( 'NONE', #19, 1.000000000000000200 ) ;
#16 = FACE_OUTER_BOUND ( 'NONE', #30, .T. ) ;
#17 = DIRECTION ( 'NONE',  ( 0.0000000000000000000, 0.0000000000000000000, -1.000000000000000000 ) ) ;
#18 = DIRECTION ( 'NONE',  ( 0.0000000000000000000, -1.000000000000000000, 0.0000000000000000000 ) ) ;
#19 = AXIS2_PLACEMENT_3D ( 'NONE', #11, #18, #17 ) ;
#20 = B_SPLINE_CURVE_WITH_KNOTS ( 'NONE', 3,
 ( #875, #876, #4, #5, #6, #7 ),
 .UNSPECIFIED., .F., .F.,
 ( 4, 2, 4 ),
 ( 0.007479671739848160400, 0.007728631326206851200, 0.007977590912565541900 ),
 .UNSPECIFIED. ) ;
#21 = ORIENTED_EDGE ( 'NONE', *, *, #736, .F. ) ;
#22 = VERTEX_POINT ( 'NONE', #37 ) ;
#23 = ORIENTED_EDGE ( 'NONE', *, *, #24, .F. ) ;
#24 = EDGE_CURVE ( 'NONE', #39, #716, #77, .T. ) ;
#25 = ORIENTED_EDGE ( 'NONE', *, *, #27, .F. ) ;
#26 = ORIENTED_EDGE ( 'NONE', *, *, #35, .T. ) ;
#27 = EDGE_CURVE ( 'NONE', #22, #31, #76, .T. ) ;
#28 = ORIENTED_EDGE ( 'NONE', *, *, #29, .T. ) ;
#29 = EDGE_CURVE ( 'NONE', #720, #718, #869, .T. ) ;
#30 = EDGE_LOOP ( 'NONE', ( #21, #28, #26, #25, #288, #290, #287, #284, #273, #275, #280, #261 ) ) ;
#31 = VERTEX_POINT ( 'NONE', #870 ) ;
#32 = EDGE_CURVE ( 'NONE', #31, #745, #877, .T. ) ;
#33 = ORIENTED_EDGE ( 'NONE', *, *, #35, .F. ) ;
#34 = ORIENTED_EDGE ( 'NONE', *, *, #32, .F. ) ;
#35 = EDGE_CURVE ( 'NONE', #718, #31, #15, .T. ) ;
#36 = ADVANCED_FACE ( 'NONE', ( #16 ), #10, .T. ) ;
#37 = CARTESIAN_POINT ( 'NONE',  ( 0.9999999999999983300, -0.2499999999999992500, 1.175384852653153800 ) ) ;
#38 = EDGE_CURVE ( 'NONE', #41, #39, #20, .T. ) ;
#39 = VERTEX_POINT ( 'NONE', #123 ) ;
#40 = ORIENTED_EDGE ( 'NONE', *, *, #38, .F. ) ;
#41 = VERTEX_POINT ( 'NONE', #122 ) ;
#42 = LINE ( 'NONE', #43, #44 ) ;
#43 = CARTESIAN_POINT ( 'NONE',  ( 0.2499999999999997800, 0.9999999999999991100, 0.6500000000000000200 ) ) ;
#44 = VECTOR ( 'NONE', #45, 1000.000000000000000 ) ;
#45 = DIRECTION ( 'NONE',  ( 0.0000000000000000000, 0.0000000000000000000, 1.000000000000000000 ) ) ;
#46 = DIRECTION ( 'NONE',  ( 0.0000000000000000000, 0.0000000000000000000, 1.000000000000000000 ) ) ;
#47 = VECTOR ( 'NONE', #46, 1000.000000000000000 ) ;
#48 = CARTESIAN_POINT ( 'NONE',  ( 0.2499999999999993600, -0.9999999999999991100, 0.6500000000000000200 ) ) ;
#49 = LINE ( 'NONE', #48, #47 ) ;
#50 = CARTESIAN_POINT ( 'NONE',  ( 0.2499999999999993600, -0.9999999999999991100, 0.6500000000000000200 ) ) ;
#51 = CARTESIAN_POINT ( 'NONE',  ( 0.9999999999999985600, -0.2084180407337614900, 1.178335195436360300 ) ) ;
#52 = CARTESIAN_POINT ( 'NONE',  ( 0.9999999999999985600, -0.1667889907638172600, 1.180430397986000000 ) ) ;
#53 = CARTESIAN_POINT ( 'NONE',  ( -0.2500000000000011100, 0.2499999999999997800, 0.6500000000000000200 ) ) ;
#54 = AXIS2_PLACEMENT_3D ( 'NONE', #53, #89, #84 ) ;
#55 = PLANE ( 'NONE',  #56 ) ;
#56 = AXIS2_PLACEMENT_3D ( 'NONE', #64, #63, #62 ) ;
#57 = FACE_OUTER_BOUND ( 'NONE', #161, .T. ) ;
#58 = DIRECTION ( 'NONE',  ( -5.782411586589361600E-016, -1.000000000000000000, 0.0000000000000000000 ) ) ;
#59 = DIRECTION ( 'NONE',  ( -1.000000000000000000, 5.782411586589361600E-016, 0.0000000000000000000 ) ) ;
#60 = CARTESIAN_POINT ( 'NONE',  ( 0.2499999999999993600, 0.2499999999999997800, 0.6500000000000000200 ) ) ;
#61 = AXIS2_PLACEMENT_3D ( 'NONE', #60, #59, #58 ) ;
#62 = DIRECTION ( 'NONE',  ( 1.156482317317872300E-015, 1.000000000000000000, 0.0000000000000000000 ) ) ;
#63 = DIRECTION ( 'NONE',  ( 1.000000000000000000, -1.156482317317872300E-015, 0.0000000000000000000 ) ) ;
#64 = CARTESIAN_POINT ( 'NONE',  ( -0.2500000000000002200, 0.9999999999999991100, 0.6500000000000000200 ) ) ;
#65 = LINE ( 'NONE', #71, #70 ) ;
#66 = PLANE ( 'NONE',  #54 ) ;
#67 = PLANE ( 'NONE',  #61 ) ;
#68 = FACE_OUTER_BOUND ( 'NONE', #159, .T. ) ;
#69 = DIRECTION ( 'NONE',  ( 1.156482317317872300E-015, 1.000000000000000000, 0.0000000000000000000 ) ) ;
#70 = VECTOR ( 'NONE', #69, 1000.000000000000000 ) ;
#71 = CARTESIAN_POINT ( 'NONE',  ( -0.2500000000000002200, 0.9999999999999991100, 0.6500000000000000200 ) ) ;
#72 = CARTESIAN_POINT ( 'NONE',  ( 0.9999999999999981100, -0.08345215481450557500, 1.183191002207642400 ) ) ;
#73 = FACE_OUTER_BOUND ( 'NONE', #151, .T. ) ;
#74 = CARTESIAN_POINT ( 'NONE',  ( -0.2500000000000002200, 0.9899962523672150000, 1.178224015131742900 ) ) ;
#75 = CARTESIAN_POINT ( 'NONE',  ( -0.2500000000000002200, 0.9999999999999991100, 1.175384852654415900 ) ) ;
#76 = B_SPLINE_CURVE_WITH_KNOTS ( 'NONE', 3,
 ( #78, #51, #52, #72, #82, #83 ),
 .UNSPECIFIED., .F., .F.,
 ( 4, 2, 4 ),
 ( 0.007479671739848168200, 0.007603916809292987300, 0.007728161878737806400 ),
 .UNSPECIFIED. ) ;
#77 = B_SPLINE_CURVE_WITH_KNOTS ( 'NONE', 3,
 ( #75, #74, #81, #80, #79 ),
 .UNSPECIFIED., .F., .F.,
 ( 4, 1, 4 ),
 ( 0.008832565764069383000, 0.008863701354130375900, 0.008894836944191370600 ),
 .UNSPECIFIED. ) ;
#78 = CARTESIAN_POINT ( 'NONE',  ( 0.9999999999999983300, -0.2499999999999992500, 1.175384852653153800 ) ) ;
#79 = CARTESIAN_POINT ( 'NONE',  ( -0.2500000000000002200, 0.9395296958493147800, 1.190607688315616000 ) ) ;
#80 = CARTESIAN_POINT ( 'NONE',  ( -0.2500000000000003300, 0.9496824450760189600, 1.188371474840304900 ) ) ;
#81 = CARTESIAN_POINT ( 'NONE',  ( -0.2500000000000002800, 0.9699138094637197400, 1.183599057401266500 ) ) ;
#82 = CARTESIAN_POINT ( 'NONE',  ( 0.9999999999999983300, -0.04166445655489305100, 1.183857481823899800 ) ) ;
#83 = CARTESIAN_POINT ( 'NONE',  ( 0.9999999999999983300, 0.0000000000000000000, 1.183857481823899600 ) ) ;
#84 = DIRECTION ( 'NONE',  ( 0.0000000000000000000, 0.0000000000000000000, -1.000000000000000000 ) ) ;
#85 = VECTOR ( 'NONE', #88, 1000.000000000000000 ) ;
#86 = CARTESIAN_POINT ( 'NONE',  ( -0.2500000000000011100, 0.2499999999999997800, 0.6500000000000000200 ) ) ;
#87 = LINE ( 'NONE', #92, #93 ) ;
#88 = DIRECTION ( 'NONE',  ( 1.000000000000000000, 0.0000000000000000000, 0.0000000000000000000 ) ) ;
#89 = DIRECTION ( 'NONE',  ( 0.0000000000000000000, -1.000000000000000000, 0.0000000000000000000 ) ) ;
#90 = CARTESIAN_POINT ( 'NONE',  ( -0.2500000000000011100, 0.2499999999999997800, 0.6500000000000000200 ) ) ;
#91 = LINE ( 'NONE', #86, #85 ) ;
#92 = CARTESIAN_POINT ( 'NONE',  ( -1.000000000000000000, 0.2499999999999997800, 0.6500000000000000200 ) ) ;
#93 = VECTOR ( 'NONE', #94, 1000.000000000000000 ) ;
#94 = DIRECTION ( 'NONE',  ( 0.0000000000000000000, 0.0000000000000000000, 1.000000000000000000 ) ) ;
#95 = AXIS2_PLACEMENT_3D ( 'NONE', #104, #103, #102 ) ;
#96 = PLANE ( 'NONE',  #95 ) ;
#97 = CARTESIAN_POINT ( 'NONE',  ( -1.000000000000000000, 0.2499999999999997800, 0.6500000000000000200 ) ) ;
#98 = DIRECTION ( 'NONE',  ( 0.0000000000000000000, 1.000000000000000000, 0.0000000000000000000 ) ) ;
#99 = VECTOR ( 'NONE', #98, 1000.000000000000000 ) ;
#100 = CARTESIAN_POINT ( 'NONE',  ( -1.000000000000000000, 0.2499999999999997800, 0.6500000000000000200 ) ) ;
#101 = LINE ( 'NONE', #100, #99 ) ;
#102 = DIRECTION ( 'NONE',  ( 0.0000000000000000000, 0.0000000000000000000, 1.000000000000000000 ) ) ;
#103 = DIRECTION ( 'NONE',  ( 0.0000000000000000000, 1.000000000000000000, 0.0000000000000000000 ) ) ;
#104 = CARTESIAN_POINT ( 'NONE',  ( -0.2500000000000006700, -0.9999999999999991100, 0.6500000000000000200 ) ) ;
#105 = FACE_OUTER_BOUND ( 'NONE', #174, .T. ) ;
#106 = CARTESIAN_POINT ( 'NONE',  ( 0.2499999999999997800, 0.9999999999999991100, 0.6500000000000000200 ) ) ;
#107 = DIRECTION ( 'NONE',  ( 0.0000000000000000000, 0.0000000000000000000, 1.000000000000000000 ) ) ;
#108 = VECTOR ( 'NONE', #107, 1000.000000000000000 ) ;
#109 = CARTESIAN_POINT ( 'NONE',  ( -0.2500000000000011100, 0.2499999999999997800, 0.6500000000000000200 ) ) ;
#110 = LINE ( 'NONE', #109, #108 ) ;
#111 = DIRECTION ( 'NONE',  ( -1.000000000000000000, -2.891205793294682800E-016, 0.0000000000000000000 ) ) ;
#112 = ORIENTED_EDGE ( 'NONE', *, *, #295, .T. ) ;
#113 = ORIENTED_EDGE ( 'NONE', *, *, #748, .T. ) ;
#114 = CARTESIAN_POINT ( 'NONE',  ( 0.2499999999999993600, -0.2499999999999994700, 0.6500000000000000200 ) ) ;
#115 = ORIENTED_EDGE ( 'NONE', *, *, #181, .F. ) ;
#116 = LINE ( 'NONE', #114, #117 ) ;
#117 = VECTOR ( 'NONE', #111, 1000.000000000000000 ) ;
#118 = VERTEX_POINT ( 'NONE', #121 ) ;
#119 = EDGE_CURVE ( 'NONE', #191, #118, #116, .T. ) ;
#120 = ORIENTED_EDGE ( 'NONE', *, *, #119, .T. ) ;
#121 = CARTESIAN_POINT ( 'NONE',  ( 0.2499999999999993600, -0.2499999999999994700, 0.6500000000000000200 ) ) ;
#122 = CARTESIAN_POINT ( 'NONE',  ( 0.2499999999999997800, 0.9999999999999991100, 1.175384852653153400 ) ) ;
#123 = CARTESIAN_POINT ( 'NONE',  ( -0.2500000000000002200, 0.9999999999999991100, 1.175384852654415900 ) ) ;
#124 = ORIENTED_EDGE ( 'NONE', *, *, #193, .F. ) ;
#125 = ORIENTED_EDGE ( 'NONE', *, *, #291, .T. ) ;
#126 = EDGE_LOOP ( 'NONE', ( #125, #124, #120, #112, #841 ) ) ;
#127 = EDGE_CURVE ( 'NONE', #139, #188, #442, .T. ) ;
#128 = ADVANCED_FACE ( 'NONE', ( #437 ), #443, .T. ) ;
#129 = ORIENTED_EDGE ( 'NONE', *, *, #127, .T. ) ;
#130 = ORIENTED_EDGE ( 'NONE', *, *, #187, .T. ) ;
#131 = ORIENTED_EDGE ( 'NONE', *, *, #141, .F. ) ;
#132 = ORIENTED_EDGE ( 'NONE', *, *, #727, .T. ) ;
#133 = ORIENTED_EDGE ( 'NONE', *, *, #224, .F. ) ;
#134 = ORIENTED_EDGE ( 'NONE', *, *, #237, .F. ) ;
#135 = CLOSED_SHELL ( 'NONE', ( #700, #732, #711, #702, #36, #263, #272, #252, #249, #226, #209, #228, #219, #239, #182, #173, #199, #160, #150, #158, #143, #128, #836, #834, #853, #842, #868 ) ) ;
#136 = ORIENTED_EDGE ( 'NONE', *, *, #862, .F. ) ;
#137 = ORIENTED_EDGE ( 'NONE', *, *, #138, .T. ) ;
#138 = EDGE_CURVE ( 'NONE', #172, #139, #422, .T. ) ;
#139 = VERTEX_POINT ( 'NONE', #431 ) ;
#140 = ORIENTED_EDGE ( 'NONE', *, *, #141, .T. ) ;
#141 = EDGE_CURVE ( 'NONE', #139, #257, #432, .T. ) ;
#142 = ORIENTED_EDGE ( 'NONE', *, *, #256, .T. ) ;
#143 = ADVANCED_FACE ( 'NONE', ( #433 ), #429, .T. ) ;
#144 = EDGE_LOOP ( 'NONE', ( #145, #146, #131, #129, #130 ) ) ;
#145 = ORIENTED_EDGE ( 'NONE', *, *, #746, .T. ) ;
#146 = ORIENTED_EDGE ( 'NONE', *, *, #259, .T. ) ;
#147 = ORIENTED_EDGE ( 'NONE', *, *, #148, .T. ) ;
#148 = EDGE_CURVE ( 'NONE', #166, #268, #110, .T. ) ;
#149 = ORIENTED_EDGE ( 'NONE', *, *, #267, .T. ) ;
#150 = ADVANCED_FACE ( 'NONE', ( #73 ), #55, .T. ) ;
#151 = EDGE_LOOP ( 'NONE', ( #152, #153, #154, #155, #157 ) ) ;
#152 = ORIENTED_EDGE ( 'NONE', *, *, #24, .T. ) ;
#153 = ORIENTED_EDGE ( 'NONE', *, *, #265, .T. ) ;
#154 = ORIENTED_EDGE ( 'NONE', *, *, #148, .F. ) ;
#155 = ORIENTED_EDGE ( 'NONE', *, *, #156, .T. ) ;
#156 = EDGE_CURVE ( 'NONE', #166, #235, #65, .T. ) ;
#157 = ORIENTED_EDGE ( 'NONE', *, *, #234, .T. ) ;
#158 = ADVANCED_FACE ( 'NONE', ( #68 ), #67, .T. ) ;
#159 = EDGE_LOOP ( 'NONE', ( #113, #115, #137, #140, #142 ) ) ;
#160 = ADVANCED_FACE ( 'NONE', ( #57 ), #66, .T. ) ;
#161 = EDGE_LOOP ( 'NONE', ( #162, #163, #164, #147, #149 ) ) ;
#162 = ORIENTED_EDGE ( 'NONE', *, *, #740, .T. ) ;
#163 = ORIENTED_EDGE ( 'NONE', *, *, #167, .F. ) ;
#164 = ORIENTED_EDGE ( 'NONE', *, *, #165, .T. ) ;
#165 = EDGE_CURVE ( 'NONE', #170, #166, #91, .T. ) ;
#166 = VERTEX_POINT ( 'NONE', #90 ) ;
#167 = EDGE_CURVE ( 'NONE', #170, #737, #87, .T. ) ;
#168 = EDGE_CURVE ( 'NONE', #294, #170, #101, .T. ) ;
#169 = ORIENTED_EDGE ( 'NONE', *, *, #167, .T. ) ;
#170 = VERTEX_POINT ( 'NONE', #97 ) ;
#171 = ORIENTED_EDGE ( 'NONE', *, *, #168, .T. ) ;
#172 = VERTEX_POINT ( 'NONE', #106 ) ;
#173 = ADVANCED_FACE ( 'NONE', ( #105 ), #96, .T. ) ;
#174 = EDGE_LOOP ( 'NONE', ( #175, #176, #179, #197 ) ) ;
#175 = ORIENTED_EDGE ( 'NONE', *, *, #285, .T. ) ;
#176 = ORIENTED_EDGE ( 'NONE', *, *, #177, .F. ) ;
#177 = EDGE_CURVE ( 'NONE', #178, #282, #49, .T. ) ;
#178 = VERTEX_POINT ( 'NONE', #50 ) ;
#179 = ORIENTED_EDGE ( 'NONE', *, *, #195, .T. ) ;
#180 = ORIENTED_EDGE ( 'NONE', *, *, #181, .T. ) ;
#181 = EDGE_CURVE ( 'NONE', #172, #41, #42, .T. ) ;
#182 = ADVANCED_FACE ( 'NONE', ( #462 ), #459, .T. ) ;
#183 = EDGE_LOOP ( 'NONE', ( #184, #185, #186, #189, #192 ) ) ;
#184 = ORIENTED_EDGE ( 'NONE', *, *, #27, .T. ) ;
#185 = ORIENTED_EDGE ( 'NONE', *, *, #32, .T. ) ;
#186 = ORIENTED_EDGE ( 'NONE', *, *, #187, .F. ) ;
#187 = EDGE_CURVE ( 'NONE', #188, #745, #454, .T. ) ;
#188 = VERTEX_POINT ( 'NONE', #450 ) ;
#189 = ORIENTED_EDGE ( 'NONE', *, *, #190, .T. ) ;
#190 = EDGE_CURVE ( 'NONE', #188, #191, #448, .T. ) ;
#191 = VERTEX_POINT ( 'NONE', #465 ) ;
#192 = ORIENTED_EDGE ( 'NONE', *, *, #193, .T. ) ;
#193 = EDGE_CURVE ( 'NONE', #191, #22, #487, .T. ) ;
#194 = EDGE_CURVE ( 'NONE', #235, #172, #473, .T. ) ;
#195 = EDGE_CURVE ( 'NONE', #178, #196, #485, .T. ) ;
#196 = VERTEX_POINT ( 'NONE', #472 ) ;
#197 = ORIENTED_EDGE ( 'NONE', *, *, #198, .T. ) ;
#198 = EDGE_CURVE ( 'NONE', #196, #292, #503, .T. ) ;
#199 = ADVANCED_FACE ( 'NONE', ( #480 ), #479, .T. ) ;
#200 = EDGE_LOOP ( 'NONE', ( #201, #202, #203, #171, #169 ) ) ;
#201 = ORIENTED_EDGE ( 'NONE', *, *, #739, .T. ) ;
#202 = ORIENTED_EDGE ( 'NONE', *, *, #270, .T. ) ;
#203 = ORIENTED_EDGE ( 'NONE', *, *, #204, .F. ) ;
#204 = EDGE_CURVE ( 'NONE', #294, #293, #511, .T. ) ;
#205 = EDGE_CURVE ( 'NONE', #717, #705, #496, .T. ) ;
#206 = ORIENTED_EDGE ( 'NONE', *, *, #756, .T. ) ;
#207 = EDGE_CURVE ( 'NONE', #728, #726, #508, .T. ) ;
#208 = EDGE_LOOP ( 'NONE', ( #217, #218 ) ) ;
#209 = ADVANCED_FACE ( 'NONE', ( #509 ), #491, .T. ) ;
#210 = ORIENTED_EDGE ( 'NONE', *, *, #276, .T. ) ;
#211 = ORIENTED_EDGE ( 'NONE', *, *, #724, .F. ) ;
#212 = ORIENTED_EDGE ( 'NONE', *, *, #207, .T. ) ;
#213 = ORIENTED_EDGE ( 'NONE', *, *, #710, .T. ) ;
#214 = ORIENTED_EDGE ( 'NONE', *, *, #221, .F. ) ;
#215 = ORIENTED_EDGE ( 'NONE', *, *, #733, .F. ) ;
#216 = ORIENTED_EDGE ( 'NONE', *, *, #207, .F. ) ;
#217 = ORIENTED_EDGE ( 'NONE', *, *, #707, .T. ) ;
#218 = ORIENTED_EDGE ( 'NONE', *, *, #205, .T. ) ;
#219 = ADVANCED_FACE ( 'NONE', ( #492 ), #471, .T. ) ;
#220 = EDGE_LOOP ( 'NONE', ( #211, #212, #213, #238 ) ) ;
#221 = EDGE_CURVE ( 'NONE', #278, #242, #449, .T. ) ;
#222 = ORIENTED_EDGE ( 'NONE', *, *, #205, .F. ) ;
#223 = EDGE_LOOP ( 'NONE', ( #227, #206 ) ) ;
#224 = EDGE_CURVE ( 'NONE', #757, #754, #517, .T. ) ;
#225 = EDGE_LOOP ( 'NONE', ( #229, #231, #241, #222 ) ) ;
#226 = ADVANCED_FACE ( 'NONE', ( #532 ), #541, .F. ) ;
#227 = ORIENTED_EDGE ( 'NONE', *, *, #224, .T. ) ;
#228 = ADVANCED_FACE ( 'NONE', ( #535, #519 ), #518, .F. ) ;
#229 = ORIENTED_EDGE ( 'NONE', *, *, #715, .F. ) ;
#230 = EDGE_LOOP ( 'NONE', ( #215, #216 ) ) ;
#231 = ORIENTED_EDGE ( 'NONE', *, *, #237, .T. ) ;
#232 = ORIENTED_EDGE ( 'NONE', *, *, #38, .T. ) ;
#233 = ORIENTED_EDGE ( 'NONE', *, *, #234, .F. ) ;
#234 = EDGE_CURVE ( 'NONE', #235, #39, #540, .T. ) ;
#235 = VERTEX_POINT ( 'NONE', #536 ) ;
#236 = ORIENTED_EDGE ( 'NONE', *, *, #194, .T. ) ;
#237 = EDGE_CURVE ( 'NONE', #863, #866, #530, .T. ) ;
#238 = ORIENTED_EDGE ( 'NONE', *, *, #29, .F. ) ;
#239 = ADVANCED_FACE ( 'NONE', ( #585 ), #566, .T. ) ;
#240 = EDGE_LOOP ( 'NONE', ( #232, #233, #236, #180 ) ) ;
#241 = ORIENTED_EDGE ( 'NONE', *, *, #704, .T. ) ;
#242 = VERTEX_POINT ( 'NONE', #561 ) ;
#243 = VERTEX_POINT ( 'NONE', #560 ) ;
#244 = EDGE_CURVE ( 'NONE', #242, #279, #552, .T. ) ;
#245 = EDGE_CURVE ( 'NONE', #281, #243, #571, .T. ) ;
#246 = ORIENTED_EDGE ( 'NONE', *, *, #245, .F. ) ;
#247 = ORIENTED_EDGE ( 'NONE', *, *, #244, .F. ) ;
#248 = EDGE_CURVE ( 'NONE', #243, #289, #543, .T. ) ;
#249 = ADVANCED_FACE ( 'NONE', ( #579 ), #588, .T. ) ;
#250 = ORIENTED_EDGE ( 'NONE', *, *, #286, .T. ) ;
#251 = EDGE_LOOP ( 'NONE', ( #247, #214, #210 ) ) ;
#252 = ADVANCED_FACE ( 'NONE', ( #589 ), #591, .T. ) ;
#253 = ORIENTED_EDGE ( 'NONE', *, *, #248, .F. ) ;
#254 = EDGE_LOOP ( 'NONE', ( #253, #246, #250 ) ) ;
#255 = ORIENTED_EDGE ( 'NONE', *, *, #259, .F. ) ;
#256 = EDGE_CURVE ( 'NONE', #257, #747, #570, .T. ) ;
#257 = VERTEX_POINT ( 'NONE', #562 ) ;
#258 = ORIENTED_EDGE ( 'NONE', *, *, #256, .F. ) ;
#259 = EDGE_CURVE ( 'NONE', #750, #257, #576, .T. ) ;
#260 = ORIENTED_EDGE ( 'NONE', *, *, #752, .T. ) ;
#261 = ORIENTED_EDGE ( 'NONE', *, *, #270, .F. ) ;
#262 = EDGE_LOOP ( 'NONE', ( #266, #264, #271 ) ) ;
#263 = ADVANCED_FACE ( 'NONE', ( #546 ), #582, .T. ) ;
#264 = ORIENTED_EDGE ( 'NONE', *, *, #265, .F. ) ;
#265 = EDGE_CURVE ( 'NONE', #716, #268, #608, .T. ) ;
#266 = ORIENTED_EDGE ( 'NONE', *, *, #267, .F. ) ;
#267 = EDGE_CURVE ( 'NONE', #268, #719, #609, .T. ) ;
#268 = VERTEX_POINT ( 'NONE', #610 ) ;
#269 = EDGE_LOOP ( 'NONE', ( #258, #255, #260 ) ) ;
#270 = EDGE_CURVE ( 'NONE', #742, #293, #605, .T. ) ;
#271 = ORIENTED_EDGE ( 'NONE', *, *, #734, .T. ) ;
#272 = ADVANCED_FACE ( 'NONE', ( #623 ), #617, .T. ) ;
#273 = ORIENTED_EDGE ( 'NONE', *, *, #277, .F. ) ;
#274 = EDGE_CURVE ( 'NONE', #293, #278, #622, .T. ) ;
#275 = ORIENTED_EDGE ( 'NONE', *, *, #276, .F. ) ;
#276 = EDGE_CURVE ( 'NONE', #278, #279, #636, .T. ) ;
#277 = EDGE_CURVE ( 'NONE', #279, #292, #631, .T. ) ;
#278 = VERTEX_POINT ( 'NONE', #644 ) ;
#279 = VERTEX_POINT ( 'NONE', #632 ) ;
#280 = ORIENTED_EDGE ( 'NONE', *, *, #274, .F. ) ;
#281 = VERTEX_POINT ( 'NONE', #627 ) ;
#282 = VERTEX_POINT ( 'NONE', #643 ) ;
#283 = EDGE_CURVE ( 'NONE', #282, #281, #648, .T. ) ;
#284 = ORIENTED_EDGE ( 'NONE', *, *, #285, .F. ) ;
#285 = EDGE_CURVE ( 'NONE', #292, #282, #646, .T. ) ;
#286 = EDGE_CURVE ( 'NONE', #281, #289, #660, .T. ) ;
#287 = ORIENTED_EDGE ( 'NONE', *, *, #283, .F. ) ;
#288 = ORIENTED_EDGE ( 'NONE', *, *, #291, .F. ) ;
#289 = VERTEX_POINT ( 'NONE', #679 ) ;
#290 = ORIENTED_EDGE ( 'NONE', *, *, #286, .F. ) ;
#291 = EDGE_CURVE ( 'NONE', #289, #22, #667, .T. ) ;
#292 = VERTEX_POINT ( 'NONE', #666 ) ;
#293 = VERTEX_POINT ( 'NONE', #680 ) ;
#294 = VERTEX_POINT ( 'NONE', #676 ) ;
#295 = EDGE_CURVE ( 'NONE', #118, #243, #681, .T. ) ;
#296 = CARTESIAN_POINT ( 'NONE',  ( 0.2499999999999996700, 0.9395296958493147800, 1.190607688315616000 ) ) ;
#297 = B_SPLINE_CURVE_WITH_KNOTS ( 'NONE', 3,
 ( #347, #346, #345, #344, #343 ),
 .UNSPECIFIED., .F., .F.,
 ( 4, 1, 4 ),
 ( 0.008832565764069561600, 0.008863701354130556300, 0.008894836944191551000 ),
 .UNSPECIFIED. ) ;
#298 = CARTESIAN_POINT ( 'NONE',  ( -1.000000000000000000, 0.2499999999999997800, 1.175384852653157800 ) ) ;
#299 = CARTESIAN_POINT ( 'NONE',  ( -0.9900380025176989100, 0.2499999999999998300, 1.178212166026277000 ) ) ;
#300 = CARTESIAN_POINT ( 'NONE',  ( -0.9699981083484046100, 0.2499999999999997800, 1.183577833704390700 ) ) ;
#301 = CARTESIAN_POINT ( 'NONE',  ( -0.9497250178236860100, 0.2499999999999997800, 1.188362097897184700 ) ) ;
#302 = CARTESIAN_POINT ( 'NONE',  ( -0.9395296958493147800, 0.2499999999999997800, 1.190607688315616000 ) ) ;
#303 = CARTESIAN_POINT ( 'NONE',  ( 0.9999999999999983300, 0.2500000000000000000, 1.175384852654416200 ) ) ;
#304 = B_SPLINE_CURVE_WITH_KNOTS ( 'NONE', 3,
 ( #302, #301, #300, #299, #298 ),
 .UNSPECIFIED., .F., .F.,
 ( 4, 1, 4 ),
 ( 0.0003446846353624291100, 0.0003757366378750985500, 0.0004067886403877679300 ),
 .UNSPECIFIED. ) ;
#305 = CARTESIAN_POINT ( 'NONE',  ( -1.000000000000000000, 1.224606353822377500E-016, 1.183857481823899200 ) ) ;
#306 = CARTESIAN_POINT ( 'NONE',  ( -1.000000000000000000, 1.224606353822377500E-016, 1.183857481823899200 ) ) ;
#307 = CARTESIAN_POINT ( 'NONE',  ( -1.000000000000000000, 0.04166445655489360600, 1.183857481823898900 ) ) ;
#308 = CARTESIAN_POINT ( 'NONE',  ( -1.000000000000000000, 0.08345215481450649100, 1.183191002207642400 ) ) ;
#309 = CARTESIAN_POINT ( 'NONE',  ( -1.000000000000000200, 0.1667889907638179800, 1.180430397985999600 ) ) ;
#310 = CARTESIAN_POINT ( 'NONE',  ( -1.000000000000000200, 0.2084180407337617200, 1.178335195436360300 ) ) ;
#311 = CARTESIAN_POINT ( 'NONE',  ( -1.000000000000000000, 0.2499999999999997800, 1.175384852653157800 ) ) ;
#312 = B_SPLINE_CURVE_WITH_KNOTS ( 'NONE', 3,
 ( #311, #310, #309, #308, #307, #306 ),
 .UNSPECIFIED., .F., .F.,
 ( 4, 2, 4 ),
 ( 0.007479671739848160400, 0.007603916809292979500, 0.007728161878737797700 ),
 .UNSPECIFIED. ) ;
#313 = CARTESIAN_POINT ( 'NONE',  ( -1.000000000000000000, 0.2499999999999997800, 1.175384852653157800 ) ) ;
#314 = DIRECTION ( 'NONE',  ( -1.000000000000000000, 1.224606353822377300E-016, 0.0000000000000000000 ) ) ;
#315 = DIRECTION ( 'NONE',  ( 1.224606353822377300E-016, 1.000000000000000000, 0.0000000000000000000 ) ) ;
#316 = CARTESIAN_POINT ( 'NONE',  ( -0.7499999999999997800, 9.184547653667827000E-017, 0.2156116452720447700 ) ) ;
#317 = AXIS2_PLACEMENT_3D ( 'NONE', #316, #315, #314 ) ;
#318 = CIRCLE ( 'NONE', #317, 1.000000000000000200 ) ;
#319 = FACE_OUTER_BOUND ( 'NONE', #829, .T. ) ;
#320 = DIRECTION ( 'NONE',  ( 0.0000000000000000000, -1.000000000000000000, 0.0000000000000000000 ) ) ;
#321 = VECTOR ( 'NONE', #320, 1000.000000000000000 ) ;
#322 = CARTESIAN_POINT ( 'NONE',  ( 0.2499999999999993600, -0.9999999999999991100, 0.6500000000000000200 ) ) ;
#323 = LINE ( 'NONE', #322, #321 ) ;
#324 = CARTESIAN_POINT ( 'NONE',  ( 0.7999999999999917200, 0.0000000000000000000, -3.699999999999998400 ) ) ;
#325 = DIRECTION ( 'NONE',  ( 1.000000000000000000, 0.0000000000000000000, 0.0000000000000000000 ) ) ;
#326 = DIRECTION ( 'NONE',  ( 0.0000000000000000000, 0.0000000000000000000, -1.000000000000000000 ) ) ;
#327 = CARTESIAN_POINT ( 'NONE',  ( 0.0000000000000000000, 0.0000000000000000000, -3.699999999999998400 ) ) ;
#328 = AXIS2_PLACEMENT_3D ( 'NONE', #327, #326, #325 ) ;
#329 = CIRCLE ( 'NONE', #328, 0.7999999999999917200 ) ;
#330 = CARTESIAN_POINT ( 'NONE',  ( -0.7999999999999917200, 1.102145718440133600E-016, -3.699999999999998400 ) ) ;
#331 = DIRECTION ( 'NONE',  ( 1.000000000000000000, 0.0000000000000000000, 0.0000000000000000000 ) ) ;
#332 = DIRECTION ( 'NONE',  ( 0.0000000000000000000, 0.0000000000000000000, 1.000000000000000000 ) ) ;
#333 = AXIS2_PLACEMENT_3D ( 'NONE', #341, #332, #331 ) ;
#334 = CARTESIAN_POINT ( 'NONE',  ( 0.2499999999999997800, 0.9999999999999991100, 1.175384852653153400 ) ) ;
#335 = CARTESIAN_POINT ( 'NONE',  ( 0.2499999999999998300, 0.9900380025176993600, 1.178212166026276800 ) ) ;
#336 = CARTESIAN_POINT ( 'NONE',  ( 0.2499999999999997800, 0.9699981083484048300, 1.183577833704390500 ) ) ;
#337 = CARTESIAN_POINT ( 'NONE',  ( 0.2499999999999996700, 0.9497250178236861200, 1.188362097897184700 ) ) ;
#338 = CARTESIAN_POINT ( 'NONE',  ( 0.2499999999999996700, 0.9395296958493147800, 1.190607688315616000 ) ) ;
#339 = CIRCLE ( 'NONE', #333, 0.9722222222222217700 ) ;
#340 = B_SPLINE_CURVE_WITH_KNOTS ( 'NONE', 3,
 ( #338, #337, #336, #335, #334 ),
 .UNSPECIFIED., .F., .F.,
 ( 4, 1, 4 ),
 ( 0.0003446846353624305200, 0.0003757366378751003900, 0.0004067886403877702100 ),
 .UNSPECIFIED. ) ;
#341 = CARTESIAN_POINT ( 'NONE',  ( 0.0000000000000000000, 0.0000000000000000000, 1.190607688315616000 ) ) ;
#342 = CARTESIAN_POINT ( 'NONE',  ( 0.9395296958493146700, 0.2500000000000000000, 1.190607688315616000 ) ) ;
#343 = CARTESIAN_POINT ( 'NONE',  ( 0.9395296958493146700, 0.2500000000000000000, 1.190607688315616000 ) ) ;
#344 = CARTESIAN_POINT ( 'NONE',  ( 0.9496824450760186200, 0.2500000000000000600, 1.188371474840304900 ) ) ;
#345 = CARTESIAN_POINT ( 'NONE',  ( 0.9699138094637174100, 0.2500000000000000000, 1.183599057401267100 ) ) ;
#346 = CARTESIAN_POINT ( 'NONE',  ( 0.9899962523672141100, 0.2500000000000000000, 1.178224015131743400 ) ) ;
#347 = CARTESIAN_POINT ( 'NONE',  ( 0.9999999999999983300, 0.2500000000000000000, 1.175384852654416200 ) ) ;
#348 = LINE ( 'NONE', #403, #402 ) ;
#349 = DIRECTION ( 'NONE',  ( 0.0000000000000000000, 0.0000000000000000000, 1.000000000000000000 ) ) ;
#350 = VECTOR ( 'NONE', #349, 1000.000000000000000 ) ;
#351 = CARTESIAN_POINT ( 'NONE',  ( -0.2500000000000003300, -0.2499999999999993600, 0.6500000000000000200 ) ) ;
#352 = LINE ( 'NONE', #351, #350 ) ;
#353 = CARTESIAN_POINT ( 'NONE',  ( -0.2500000000000003300, -0.2499999999999993600, 0.6500000000000000200 ) ) ;
#354 = DIRECTION ( 'NONE',  ( 0.0000000000000000000, 0.0000000000000000000, 1.000000000000000000 ) ) ;
#355 = DIRECTION ( 'NONE',  ( 0.0000000000000000000, 1.000000000000000000, 0.0000000000000000000 ) ) ;
#356 = CARTESIAN_POINT ( 'NONE',  ( -1.000000000000000000, -0.2499999999999993600, 0.6500000000000000200 ) ) ;
#357 = AXIS2_PLACEMENT_3D ( 'NONE', #356, #355, #354 ) ;
#358 = PLANE ( 'NONE',  #357 ) ;
#359 = FACE_OUTER_BOUND ( 'NONE', #854, .T. ) ;
#360 = DIRECTION ( 'NONE',  ( -1.000000000000000000, 0.0000000000000000000, 0.0000000000000000000 ) ) ;
#361 = VECTOR ( 'NONE', #360, 1000.000000000000000 ) ;
#362 = CARTESIAN_POINT ( 'NONE',  ( -1.000000000000000000, -0.2499999999999993600, 0.6500000000000000200 ) ) ;
#363 = LINE ( 'NONE', #362, #361 ) ;
#364 = DIRECTION ( 'NONE',  ( 1.000000000000000000, 0.0000000000000000000, 0.0000000000000000000 ) ) ;
#365 = DIRECTION ( 'NONE',  ( 0.0000000000000000000, 0.0000000000000000000, 1.000000000000000000 ) ) ;
#366 = CARTESIAN_POINT ( 'NONE',  ( -1.000000000000000000, 0.2499999999999997800, 0.6500000000000000200 ) ) ;
#367 = AXIS2_PLACEMENT_3D ( 'NONE', #366, #365, #364 ) ;
#368 = PLANE ( 'NONE',  #367 ) ;
#369 = FACE_OUTER_BOUND ( 'NONE', #844, .T. ) ;
#370 = DIRECTION ( 'NONE',  ( 0.0000000000000000000, 0.0000000000000000000, 1.000000000000000000 ) ) ;
#371 = DIRECTION ( 'NONE',  ( -1.000000000000000000, 0.0000000000000000000, 0.0000000000000000000 ) ) ;
#372 = CARTESIAN_POINT ( 'NONE',  ( 0.2499999999999993600, -0.9999999999999991100, 0.6500000000000000200 ) ) ;
#373 = AXIS2_PLACEMENT_3D ( 'NONE', #372, #371, #370 ) ;
#374 = PLANE ( 'NONE',  #373 ) ;
#375 = DIRECTION ( 'NONE',  ( 4.336808689942018700E-016, 1.000000000000000000, 0.0000000000000000000 ) ) ;
#376 = DIRECTION ( 'NONE',  ( 1.000000000000000000, -4.336808689942018700E-016, 0.0000000000000000000 ) ) ;
#377 = CARTESIAN_POINT ( 'NONE',  ( -0.2500000000000003300, -0.2499999999999993600, 0.6500000000000000200 ) ) ;
#378 = AXIS2_PLACEMENT_3D ( 'NONE', #377, #376, #375 ) ;
#379 = PLANE ( 'NONE',  #378 ) ;
#380 = FACE_OUTER_BOUND ( 'NONE', #835, .T. ) ;
#381 = SHAPE_DEFINITION_REPRESENTATION ( #411, #382 ) ;
#382 = ADVANCED_BREP_SHAPE_REPRESENTATION ( 'CSPPNR-RENY-M2-5_214', ( #701, #410 ), #383 ) ;
#383 =( GEOMETRIC_REPRESENTATION_CONTEXT ( 3 ) GLOBAL_UNCERTAINTY_ASSIGNED_CONTEXT ( ( #384 ) ) GLOBAL_UNIT_ASSIGNED_CONTEXT ( ( #387, #386, #385 ) ) REPRESENTATION_CONTEXT ( 'NONE', 'WORKASPACE' ) );
#384 = UNCERTAINTY_MEASURE_WITH_UNIT (LENGTH_MEASURE( 1.000000000000000100E-005 ), #387, 'distance_accuracy_value', 'NONE');
#385 =( NAMED_UNIT ( * ) SI_UNIT ( $, .STERADIAN. ) SOLID_ANGLE_UNIT ( ) );
#386 =( NAMED_UNIT ( * ) PLANE_ANGLE_UNIT ( ) SI_UNIT ( $, .RADIAN. ) );
#387 =( LENGTH_UNIT ( ) NAMED_UNIT ( * ) SI_UNIT ( .MILLI., .METRE. ) );
#388 = DIRECTION ( 'NONE',  ( 1.000000000000000000, 0.0000000000000000000, 0.0000000000000000000 ) ) ;
#389 = DIRECTION ( 'NONE',  ( 0.0000000000000000000, 0.0000000000000000000, 1.000000000000000000 ) ) ;
#390 = AXIS2_PLACEMENT_3D ( 'NONE', #393, #389, #388 ) ;
#391 = CONICAL_SURFACE ( 'NONE', #390, 0.9999999999999985600, 0.7853981633974597100 ) ;
#392 = CARTESIAN_POINT ( 'NONE',  ( 0.0000000000000000000, 0.0000000000000000000, 0.0000000000000000000 ) ) ;
#393 = CARTESIAN_POINT ( 'NONE',  ( 0.0000000000000000000, 0.0000000000000000000, -3.499999999999996000 ) ) ;
#394 = FACE_OUTER_BOUND ( 'NONE', #418, .T. ) ;
#395 = CARTESIAN_POINT ( 'NONE',  ( 0.9999999999999985600, 0.0000000000000000000, -3.499999999999996000 ) ) ;
#396 = CARTESIAN_POINT ( 'NONE',  ( -0.9999999999999985600, 1.224606353822375500E-016, -3.499999999999996000 ) ) ;
#397 = DIRECTION ( 'NONE',  ( -0.7071067811865555700, 8.659274570719455300E-017, 0.7071067811865393600 ) ) ;
#398 = VECTOR ( 'NONE', #397, 1000.000000000000100 ) ;
#399 = CARTESIAN_POINT ( 'NONE',  ( -0.9999999999999985600, 1.224606353822375500E-016, -3.499999999999996000 ) ) ;
#400 = LINE ( 'NONE', #399, #398 ) ;
#401 = DIRECTION ( 'NONE',  ( 4.336808689942018700E-016, 1.000000000000000000, 0.0000000000000000000 ) ) ;
#402 = VECTOR ( 'NONE', #401, 1000.000000000000000 ) ;
#403 = CARTESIAN_POINT ( 'NONE',  ( -0.2500000000000003300, -0.2499999999999993600, 0.6500000000000000200 ) ) ;
#404 = PRODUCT ( 'CSPPNR-RENY-M2-5_214', 'CSPPNR-RENY-M2-5_214', '', ( #405 ) ) ;
#405 = PRODUCT_CONTEXT ( 'NONE', #407, 'mechanical' ) ;
#406 = APPLICATION_PROTOCOL_DEFINITION ( 'draft international standard', 'automotive_design', 1998, #407 ) ;
#407 = APPLICATION_CONTEXT ( 'automotive_design' ) ;
#408 = DIRECTION ( 'NONE',  ( 1.000000000000000000, 0.0000000000000000000, 0.0000000000000000000 ) ) ;
#409 = DIRECTION ( 'NONE',  ( 0.0000000000000000000, 0.0000000000000000000, 1.000000000000000000 ) ) ;
#410 = AXIS2_PLACEMENT_3D ( 'NONE', #392, #409, #408 ) ;
#411 = PRODUCT_DEFINITION_SHAPE ( 'NONE', 'NONE',  #414 ) ;
#412 = PRODUCT_RELATED_PRODUCT_CATEGORY ( 'part', '', ( #404 ) ) ;
#413 = PRODUCT_DEFINITION_FORMATION_WITH_SPECIFIED_SOURCE ( 'ANY', '', #404, .NOT_KNOWN. ) ;
#414 = PRODUCT_DEFINITION ( 'UNKNOWN', '', #413, #415 ) ;
#415 = PRODUCT_DEFINITION_CONTEXT ( 'detailed design', #417, 'design' ) ;
#416 = APPLICATION_PROTOCOL_DEFINITION ( 'draft international standard', 'automotive_design', 1998, #417 ) ;
#417 = APPLICATION_CONTEXT ( 'automotive_design' ) ;
#418 = EDGE_LOOP ( 'NONE', ( #136, #133, #132, #134 ) ) ;
#419 = DIRECTION ( 'NONE',  ( -5.782411586589361600E-016, -1.000000000000000000, 0.0000000000000000000 ) ) ;
#420 = VECTOR ( 'NONE', #419, 1000.000000000000000 ) ;
#421 = CARTESIAN_POINT ( 'NONE',  ( 0.2499999999999993600, 0.2499999999999997800, 0.6500000000000000200 ) ) ;
#422 = LINE ( 'NONE', #421, #420 ) ;
#423 = CARTESIAN_POINT ( 'NONE',  ( 0.2499999999999993600, -0.2499999999999994700, 0.6500000000000000200 ) ) ;
#424 = DIRECTION ( 'NONE',  ( -2.891205793294682800E-016, 1.000000000000000000, 0.0000000000000000000 ) ) ;
#425 = DIRECTION ( 'NONE',  ( -1.000000000000000000, -2.891205793294682800E-016, 0.0000000000000000000 ) ) ;
#426 = CARTESIAN_POINT ( 'NONE',  ( 0.9999999999999983300, 0.2500000000000000000, 0.6500000000000000200 ) ) ;
#427 = DIRECTION ( 'NONE',  ( 2.891205793294682800E-016, -1.000000000000000000, 0.0000000000000000000 ) ) ;
#428 = DIRECTION ( 'NONE',  ( 1.000000000000000000, 2.891205793294682800E-016, 0.0000000000000000000 ) ) ;
#429 = PLANE ( 'NONE',  #430 ) ;
#430 = AXIS2_PLACEMENT_3D ( 'NONE', #426, #427, #428 ) ;
#431 = CARTESIAN_POINT ( 'NONE',  ( 0.2499999999999993600, 0.2499999999999997800, 0.6500000000000000200 ) ) ;
#432 = LINE ( 'NONE', #436, #435 ) ;
#433 = FACE_OUTER_BOUND ( 'NONE', #144, .T. ) ;
#434 = DIRECTION ( 'NONE',  ( 0.0000000000000000000, 0.0000000000000000000, 1.000000000000000000 ) ) ;
#435 = VECTOR ( 'NONE', #434, 1000.000000000000000 ) ;
#436 = CARTESIAN_POINT ( 'NONE',  ( 0.2499999999999993600, 0.2499999999999997800, 0.6500000000000000200 ) ) ;
#437 = FACE_OUTER_BOUND ( 'NONE', #126, .T. ) ;
#438 = DIRECTION ( 'NONE',  ( 1.000000000000000000, 2.891205793294682800E-016, 0.0000000000000000000 ) ) ;
#439 = VECTOR ( 'NONE', #438, 1000.000000000000000 ) ;
#440 = AXIS2_PLACEMENT_3D ( 'NONE', #423, #424, #425 ) ;
#441 = CARTESIAN_POINT ( 'NONE',  ( 0.9999999999999983300, 0.2500000000000000000, 0.6500000000000000200 ) ) ;
#442 = LINE ( 'NONE', #441, #439 ) ;
#443 = PLANE ( 'NONE',  #440 ) ;
#444 = DIRECTION ( 'NONE',  ( 1.000000000000000000, 0.0000000000000000000, 0.0000000000000000000 ) ) ;
#445 = DIRECTION ( 'NONE',  ( 0.0000000000000000000, -1.000000000000000000, 0.0000000000000000000 ) ) ;
#446 = VECTOR ( 'NONE', #445, 1000.000000000000000 ) ;
#447 = CARTESIAN_POINT ( 'NONE',  ( 0.9999999999999983300, -0.2499999999999992500, 0.6500000000000000200 ) ) ;
#448 = LINE ( 'NONE', #447, #446 ) ;
#449 = CIRCLE ( 'NONE', #461, 4.367851302414034200 ) ;
#450 = CARTESIAN_POINT ( 'NONE',  ( 0.9999999999999983300, 0.2500000000000000000, 0.6500000000000000200 ) ) ;
#451 = DIRECTION ( 'NONE',  ( 0.0000000000000000000, 0.0000000000000000000, 1.000000000000000000 ) ) ;
#452 = VECTOR ( 'NONE', #451, 1000.000000000000000 ) ;
#453 = CARTESIAN_POINT ( 'NONE',  ( 0.9999999999999983300, 0.2500000000000000000, 0.6500000000000000200 ) ) ;
#454 = LINE ( 'NONE', #453, #452 ) ;
#455 = DIRECTION ( 'NONE',  ( 0.0000000000000000000, 0.0000000000000000000, 1.000000000000000000 ) ) ;
#456 = DIRECTION ( 'NONE',  ( -1.000000000000000000, 0.0000000000000000000, 0.0000000000000000000 ) ) ;
#457 = CARTESIAN_POINT ( 'NONE',  ( 0.9999999999999983300, -0.2499999999999992500, 0.6500000000000000200 ) ) ;
#458 = AXIS2_PLACEMENT_3D ( 'NONE', #457, #456, #455 ) ;
#459 = PLANE ( 'NONE',  #458 ) ;
#460 = CARTESIAN_POINT ( 'NONE',  ( 0.0000000000000000000, -0.2499999999999993600, -3.074999999999998000 ) ) ;
#461 = AXIS2_PLACEMENT_3D ( 'NONE', #460, #466, #522 ) ;
#462 = FACE_OUTER_BOUND ( 'NONE', #183, .T. ) ;
#463 = DIRECTION ( 'NONE',  ( 0.0000000000000000000, 0.0000000000000000000, 1.000000000000000000 ) ) ;
#464 = VECTOR ( 'NONE', #463, 1000.000000000000000 ) ;
#465 = CARTESIAN_POINT ( 'NONE',  ( 0.9999999999999983300, -0.2499999999999992500, 0.6500000000000000200 ) ) ;
#466 = DIRECTION ( 'NONE',  ( 0.0000000000000000000, 1.000000000000000000, 0.0000000000000000000 ) ) ;
#467 = DIRECTION ( 'NONE',  ( 1.000000000000000000, 0.0000000000000000000, 0.0000000000000000000 ) ) ;
#468 = DIRECTION ( 'NONE',  ( 0.0000000000000000000, 0.0000000000000000000, 1.000000000000000000 ) ) ;
#469 = CARTESIAN_POINT ( 'NONE',  ( 0.0000000000000000000, 0.0000000000000000000, 32.83086675276936000 ) ) ;
#470 = AXIS2_PLACEMENT_3D ( 'NONE', #469, #468, #467 ) ;
#471 = CYLINDRICAL_SURFACE ( 'NONE', #470, 1.749999999999999800 ) ;
#472 = CARTESIAN_POINT ( 'NONE',  ( -0.2500000000000006700, -0.9999999999999991100, 0.6500000000000000200 ) ) ;
#473 = LINE ( 'NONE', #506, #505 ) ;
#474 = DIRECTION ( 'NONE',  ( 0.0000000000000000000, 0.0000000000000000000, 1.000000000000000000 ) ) ;
#475 = CARTESIAN_POINT ( 'NONE',  ( 0.0000000000000000000, 0.0000000000000000000, 32.83086675276936000 ) ) ;
#476 = DIRECTION ( 'NONE',  ( 1.000000000000000000, 0.0000000000000000000, 0.0000000000000000000 ) ) ;
#477 = DIRECTION ( 'NONE',  ( 0.0000000000000000000, 0.0000000000000000000, 1.000000000000000000 ) ) ;
#478 = VECTOR ( 'NONE', #474, 1000.000000000000000 ) ;
#479 = PLANE ( 'NONE',  #499 ) ;
#480 = FACE_OUTER_BOUND ( 'NONE', #200, .T. ) ;
#481 = DIRECTION ( 'NONE',  ( 0.0000000000000000000, 0.0000000000000000000, 1.000000000000000000 ) ) ;
#482 = DIRECTION ( 'NONE',  ( -1.000000000000000000, 0.0000000000000000000, 0.0000000000000000000 ) ) ;
#483 = VECTOR ( 'NONE', #482, 1000.000000000000000 ) ;
#484 = CARTESIAN_POINT ( 'NONE',  ( -0.2500000000000006700, -0.9999999999999991100, 0.6500000000000000200 ) ) ;
#485 = LINE ( 'NONE', #484, #483 ) ;
#486 = CARTESIAN_POINT ( 'NONE',  ( 0.9999999999999983300, -0.2499999999999992500, 0.6500000000000000200 ) ) ;
#487 = LINE ( 'NONE', #486, #478 ) ;
#488 = DIRECTION ( 'NONE',  ( 1.000000000000000000, 0.0000000000000000000, 0.0000000000000000000 ) ) ;
#489 = DIRECTION ( 'NONE',  ( 0.0000000000000000000, 0.0000000000000000000, 1.000000000000000000 ) ) ;
#490 = AXIS2_PLACEMENT_3D ( 'NONE', #475, #489, #488 ) ;
#491 = CYLINDRICAL_SURFACE ( 'NONE', #490, 0.9999999999999985600 ) ;
#492 = FACE_OUTER_BOUND ( 'NONE', #220, .T. ) ;
#493 = DIRECTION ( 'NONE',  ( 0.0000000000000000000, 0.0000000000000000000, 1.000000000000000000 ) ) ;
#494 = CARTESIAN_POINT ( 'NONE',  ( 0.0000000000000000000, 0.0000000000000000000, 0.0000000000000000000 ) ) ;
#495 = AXIS2_PLACEMENT_3D ( 'NONE', #494, #493, #510 ) ;
#496 = CIRCLE ( 'NONE', #495, 0.9999999999999983300 ) ;
#497 = CARTESIAN_POINT ( 'NONE',  ( 0.0000000000000000000, 0.0000000000000000000, 0.0000000000000000000 ) ) ;
#498 = CARTESIAN_POINT ( 'NONE',  ( -1.000000000000000000, 0.2499999999999997800, 0.6500000000000000200 ) ) ;
#499 = AXIS2_PLACEMENT_3D ( 'NONE', #498, #513, #512 ) ;
#500 = CARTESIAN_POINT ( 'NONE',  ( -1.000000000000000000, -0.2499999999999993600, 0.6500000000000000200 ) ) ;
#501 = VECTOR ( 'NONE', #481, 1000.000000000000000 ) ;
#502 = CARTESIAN_POINT ( 'NONE',  ( -0.2500000000000006700, -0.9999999999999991100, 0.6500000000000000200 ) ) ;
#503 = LINE ( 'NONE', #502, #501 ) ;
#504 = DIRECTION ( 'NONE',  ( 1.000000000000000000, 0.0000000000000000000, 0.0000000000000000000 ) ) ;
#505 = VECTOR ( 'NONE', #504, 1000.000000000000000 ) ;
#506 = CARTESIAN_POINT ( 'NONE',  ( 0.2499999999999997800, 0.9999999999999991100, 0.6500000000000000200 ) ) ;
#507 = AXIS2_PLACEMENT_3D ( 'NONE', #497, #477, #476 ) ;
#508 = CIRCLE ( 'NONE', #507, 1.749999999999999800 ) ;
#509 = FACE_OUTER_BOUND ( 'NONE', #225, .T. ) ;
#510 = DIRECTION ( 'NONE',  ( 1.000000000000000000, 0.0000000000000000000, 0.0000000000000000000 ) ) ;
#511 = LINE ( 'NONE', #500, #464 ) ;
#512 = DIRECTION ( 'NONE',  ( 0.0000000000000000000, 0.0000000000000000000, -1.000000000000000000 ) ) ;
#513 = DIRECTION ( 'NONE',  ( 1.000000000000000000, 0.0000000000000000000, 0.0000000000000000000 ) ) ;
#514 = DIRECTION ( 'NONE',  ( 0.0000000000000000000, 0.0000000000000000000, -1.000000000000000000 ) ) ;
#515 = CARTESIAN_POINT ( 'NONE',  ( 0.0000000000000000000, 0.0000000000000000000, -3.699999999999998400 ) ) ;
#516 = AXIS2_PLACEMENT_3D ( 'NONE', #515, #514, #542 ) ;
#517 = CIRCLE ( 'NONE', #516, 0.7999999999999917200 ) ;
#518 = PLANE ( 'NONE',  #526 ) ;
#519 = FACE_BOUND ( 'NONE', #208, .T. ) ;
#520 = DIRECTION ( 'NONE',  ( 1.000000000000000000, 0.0000000000000000000, 0.0000000000000000000 ) ) ;
#521 = DIRECTION ( 'NONE',  ( 0.0000000000000000000, 0.0000000000000000000, 1.000000000000000000 ) ) ;
#522 = DIRECTION ( 'NONE',  ( 0.0000000000000000000, 0.0000000000000000000, 1.000000000000000000 ) ) ;
#523 = DIRECTION ( 'NONE',  ( 1.000000000000000000, 0.0000000000000000000, 0.0000000000000000000 ) ) ;
#524 = DIRECTION ( 'NONE',  ( 0.0000000000000000000, 0.0000000000000000000, 1.000000000000000000 ) ) ;
#525 = CARTESIAN_POINT ( 'NONE',  ( 0.0000000000000000000, 0.9999999999999983300, 0.0000000000000000000 ) ) ;
#526 = AXIS2_PLACEMENT_3D ( 'NONE', #525, #524, #523 ) ;
#527 = DIRECTION ( 'NONE',  ( 0.0000000000000000000, 0.0000000000000000000, 1.000000000000000000 ) ) ;
#528 = CARTESIAN_POINT ( 'NONE',  ( 0.0000000000000000000, 0.0000000000000000000, -3.499999999999996000 ) ) ;
#529 = AXIS2_PLACEMENT_3D ( 'NONE', #528, #527, #444 ) ;
#530 = CIRCLE ( 'NONE', #529, 0.9999999999999985600 ) ;
#531 = DIRECTION ( 'NONE',  ( 0.0000000000000000000, 1.000000000000000000, 0.0000000000000000000 ) ) ;
#532 = FACE_OUTER_BOUND ( 'NONE', #223, .T. ) ;
#533 = CARTESIAN_POINT ( 'NONE',  ( 0.0000000000000000000, 0.0000000000000000000, -3.699999999999998400 ) ) ;
#534 = AXIS2_PLACEMENT_3D ( 'NONE', #533, #521, #520 ) ;
#535 = FACE_OUTER_BOUND ( 'NONE', #230, .T. ) ;
#536 = CARTESIAN_POINT ( 'NONE',  ( -0.2500000000000002200, 0.9999999999999991100, 0.6500000000000000200 ) ) ;
#537 = DIRECTION ( 'NONE',  ( 0.0000000000000000000, 0.0000000000000000000, 1.000000000000000000 ) ) ;
#538 = VECTOR ( 'NONE', #537, 1000.000000000000000 ) ;
#539 = CARTESIAN_POINT ( 'NONE',  ( -0.2500000000000002200, 0.9999999999999991100, 0.6500000000000000200 ) ) ;
#540 = LINE ( 'NONE', #539, #538 ) ;
#541 = PLANE ( 'NONE',  #534 ) ;
#542 = DIRECTION ( 'NONE',  ( 1.000000000000000000, 0.0000000000000000000, 0.0000000000000000000 ) ) ;
#543 = CIRCLE ( 'NONE', #578, 4.367851302414034200 ) ;
#544 = DIRECTION ( 'NONE',  ( 0.0000000000000000000, 0.0000000000000000000, 1.000000000000000000 ) ) ;
#545 = DIRECTION ( 'NONE',  ( -1.000000000000000000, 0.0000000000000000000, 0.0000000000000000000 ) ) ;
#546 = FACE_OUTER_BOUND ( 'NONE', #262, .T. ) ;
#547 = DIRECTION ( 'NONE',  ( 0.0000000000000000000, 1.000000000000000000, 0.0000000000000000000 ) ) ;
#548 = DIRECTION ( 'NONE',  ( 0.0000000000000000000, 1.000000000000000000, 0.0000000000000000000 ) ) ;
#549 = DIRECTION ( 'NONE',  ( -1.000000000000000000, 0.0000000000000000000, 0.0000000000000000000 ) ) ;
#550 = CARTESIAN_POINT ( 'NONE',  ( 0.0000000000000000000, 0.0000000000000000000, -3.074999999999998000 ) ) ;
#551 = AXIS2_PLACEMENT_3D ( 'NONE', #550, #549, #548 ) ;
#552 = CIRCLE ( 'NONE', #556, 4.367851302414034200 ) ;
#553 = CARTESIAN_POINT ( 'NONE',  ( 0.2499999999999993600, 0.0000000000000000000, -3.074999999999998000 ) ) ;
#554 = DIRECTION ( 'NONE',  ( 1.000000000000000000, -4.336808689942018700E-016, 0.0000000000000000000 ) ) ;
#555 = CARTESIAN_POINT ( 'NONE',  ( -0.2500000000000002200, 1.084202172485505700E-016, -3.074999999999998000 ) ) ;
#556 = AXIS2_PLACEMENT_3D ( 'NONE', #555, #554, #592 ) ;
#557 = DIRECTION ( 'NONE',  ( -1.000000000000000000, 0.0000000000000000000, 0.0000000000000000000 ) ) ;
#558 = DIRECTION ( 'NONE',  ( -1.000000000000000000, -2.854567181967087000E-016, 0.0000000000000000000 ) ) ;
#559 = DIRECTION ( 'NONE',  ( -2.891205793294682800E-016, 1.000000000000000000, 0.0000000000000000000 ) ) ;
#560 = CARTESIAN_POINT ( 'NONE',  ( 0.2499999999999993600, -0.2499999999999994700, 1.285690885628101100 ) ) ;
#561 = CARTESIAN_POINT ( 'NONE',  ( -0.2500000000000003300, -0.2499999999999993600, 1.285690885628100200 ) ) ;
#562 = CARTESIAN_POINT ( 'NONE',  ( 0.2499999999999993600, 0.2499999999999997800, 1.285690885628101100 ) ) ;
#563 = DIRECTION ( 'NONE',  ( -5.833245980541438600E-016, -1.000000000000000000, 0.0000000000000000000 ) ) ;
#564 = DIRECTION ( 'NONE',  ( 0.0000000000000000000, 0.0000000000000000000, -1.000000000000000000 ) ) ;
#565 = DIRECTION ( 'NONE',  ( 0.0000000000000000000, -1.000000000000000000, 0.0000000000000000000 ) ) ;
#566 = PLANE ( 'NONE',  #594 ) ;
#567 = DIRECTION ( 'NONE',  ( -1.000000000000000000, 5.782411586589361600E-016, 0.0000000000000000000 ) ) ;
#568 = CARTESIAN_POINT ( 'NONE',  ( 0.2499999999999992000, -1.445602896647335700E-016, -3.074999999999998000 ) ) ;
#569 = AXIS2_PLACEMENT_3D ( 'NONE', #568, #567, #563 ) ;
#570 = CIRCLE ( 'NONE', #569, 4.367851302414034200 ) ;
#571 = CIRCLE ( 'NONE', #590, 4.367851302414034200 ) ;
#572 = DIRECTION ( 'NONE',  ( 1.000000000000000000, 2.854567181967087000E-016, 0.0000000000000000000 ) ) ;
#573 = DIRECTION ( 'NONE',  ( 2.891205793294682800E-016, -1.000000000000000000, 0.0000000000000000000 ) ) ;
#574 = CARTESIAN_POINT ( 'NONE',  ( -7.228014483236699500E-017, 0.2499999999999997200, -3.074999999999998000 ) ) ;
#575 = AXIS2_PLACEMENT_3D ( 'NONE', #574, #573, #572 ) ;
#576 = CIRCLE ( 'NONE', #575, 4.367851302414034200 ) ;
#577 = CARTESIAN_POINT ( 'NONE',  ( 7.228014483236693400E-017, -0.2499999999999995300, -3.074999999999998000 ) ) ;
#578 = AXIS2_PLACEMENT_3D ( 'NONE', #577, #559, #558 ) ;
#579 = FACE_OUTER_BOUND ( 'NONE', #251, .T. ) ;
#580 = DIRECTION ( 'NONE',  ( -1.000000000000000000, 0.0000000000000000000, 0.0000000000000000000 ) ) ;
#581 = AXIS2_PLACEMENT_3D ( 'NONE', #584, #580, #531 ) ;
#582 = SPHERICAL_SURFACE ( 'NONE', #581, 4.374999999999997300 ) ;
#583 = CARTESIAN_POINT ( 'NONE',  ( -1.000000000000000000, -0.1669102360828371200, 1.180424994588673800 ) ) ;
#584 = CARTESIAN_POINT ( 'NONE',  ( 0.0000000000000000000, 0.0000000000000000000, -3.074999999999998000 ) ) ;
#585 = FACE_OUTER_BOUND ( 'NONE', #240, .T. ) ;
#586 = CARTESIAN_POINT ( 'NONE',  ( 0.2499999999999997800, 0.9999999999999991100, 0.6500000000000000200 ) ) ;
#587 = AXIS2_PLACEMENT_3D ( 'NONE', #593, #557, #547 ) ;
#588 = SPHERICAL_SURFACE ( 'NONE', #587, 4.374999999999997300 ) ;
#589 = FACE_OUTER_BOUND ( 'NONE', #254, .T. ) ;
#590 = AXIS2_PLACEMENT_3D ( 'NONE', #553, #545, #544 ) ;
#591 = SPHERICAL_SURFACE ( 'NONE', #551, 4.374999999999997300 ) ;
#592 = DIRECTION ( 'NONE',  ( 4.343906581254263000E-016, 1.000000000000000000, 0.0000000000000000000 ) ) ;
#593 = CARTESIAN_POINT ( 'NONE',  ( 0.0000000000000000000, 0.0000000000000000000, -3.074999999999998000 ) ) ;
#594 = AXIS2_PLACEMENT_3D ( 'NONE', #586, #565, #564 ) ;
#595 = CARTESIAN_POINT ( 'NONE',  ( -0.2500000000000013900, 2.891205793294696600E-016, -3.074999999999998000 ) ) ;
#596 = CARTESIAN_POINT ( 'NONE',  ( -1.000000000000000200, -0.08357022743573407100, 1.183188474015582700 ) ) ;
#597 = CARTESIAN_POINT ( 'NONE',  ( -1.000000000000000200, -0.04182188150355754800, 1.183857481823899600 ) ) ;
#598 = CARTESIAN_POINT ( 'NONE',  ( -1.000000000000000000, 1.224606353822377500E-016, 1.183857481823899200 ) ) ;
#599 = CARTESIAN_POINT ( 'NONE',  ( 0.2499999999999993600, -0.9395296958493147800, 1.190607688315616000 ) ) ;
#600 = CARTESIAN_POINT ( 'NONE',  ( 0.2499999999999994200, -0.9496824450760195100, 1.188371474840304900 ) ) ;
#601 = CARTESIAN_POINT ( 'NONE',  ( 0.2499999999999993600, -0.9699138094637191900, 1.183599057401266900 ) ) ;
#602 = CARTESIAN_POINT ( 'NONE',  ( 0.2499999999999993600, -0.9999999999999991100, 1.175384852654416200 ) ) ;
#603 = DIRECTION ( 'NONE',  ( 1.154238034447561300E-015, 1.000000000000000000, 0.0000000000000000000 ) ) ;
#604 = DIRECTION ( 'NONE',  ( 1.000000000000000000, -1.156482317317872300E-015, 0.0000000000000000000 ) ) ;
#605 = B_SPLINE_CURVE_WITH_KNOTS ( 'NONE', 3,
 ( #598, #597, #596, #583, #615, #616 ),
 .UNSPECIFIED., .F., .F.,
 ( 4, 2, 4 ),
 ( 1.134954790930501300E-019, 0.0001247145169138717600, 0.0002494290338277433500 ),
 .UNSPECIFIED. ) ;
#606 = CARTESIAN_POINT ( 'NONE',  ( 0.2499999999999993600, -0.9899962523672160000, 1.178224015131742500 ) ) ;
#607 = AXIS2_PLACEMENT_3D ( 'NONE', #595, #604, #603 ) ;
#608 = CIRCLE ( 'NONE', #607, 4.367851302414034200 ) ;
#609 = CIRCLE ( 'NONE', #614, 4.367851302414034200 ) ;
#610 = CARTESIAN_POINT ( 'NONE',  ( -0.2500000000000011100, 0.2499999999999997800, 1.285690885628101100 ) ) ;
#611 = DIRECTION ( 'NONE',  ( 0.0000000000000000000, 0.0000000000000000000, -1.000000000000000000 ) ) ;
#612 = DIRECTION ( 'NONE',  ( 0.0000000000000000000, -1.000000000000000000, 0.0000000000000000000 ) ) ;
#613 = CARTESIAN_POINT ( 'NONE',  ( 0.0000000000000000000, 0.2499999999999997800, -3.074999999999998000 ) ) ;
#614 = AXIS2_PLACEMENT_3D ( 'NONE', #613, #612, #611 ) ;
#615 = CARTESIAN_POINT ( 'NONE',  ( -1.000000000000000000, -0.2085017594682704300, 1.178329255386008700 ) ) ;
#616 = CARTESIAN_POINT ( 'NONE',  ( -1.000000000000000000, -0.2499999999999993600, 1.175384852654415900 ) ) ;
#617 = SPHERICAL_SURFACE ( 'NONE', #618, 4.374999999999997300 ) ;
#618 = AXIS2_PLACEMENT_3D ( 'NONE', #619, #624, #625 ) ;
#619 = CARTESIAN_POINT ( 'NONE',  ( 0.0000000000000000000, 0.0000000000000000000, -3.074999999999998000 ) ) ;
#620 = CARTESIAN_POINT ( 'NONE',  ( -0.9699138094637216300, -0.2499999999999993600, 1.183599057401266500 ) ) ;
#621 = CARTESIAN_POINT ( 'NONE',  ( -0.9899962523672168900, -0.2499999999999993600, 1.178224015131742200 ) ) ;
#622 = B_SPLINE_CURVE_WITH_KNOTS ( 'NONE', 3,
 ( #635, #621, #620, #634, #633 ),
 .UNSPECIFIED., .F., .F.,
 ( 4, 1, 4 ),
 ( 0.008832565764069761100, 0.008863701354130757600, 0.008894836944191755700 ),
 .UNSPECIFIED. ) ;
#623 = FACE_OUTER_BOUND ( 'NONE', #269, .T. ) ;
#624 = DIRECTION ( 'NONE',  ( -1.000000000000000000, 0.0000000000000000000, 0.0000000000000000000 ) ) ;
#625 = DIRECTION ( 'NONE',  ( 0.0000000000000000000, 1.000000000000000000, 0.0000000000000000000 ) ) ;
#626 = CARTESIAN_POINT ( 'NONE',  ( -0.2500000000000006100, -0.9395296958493145600, 1.190607688315616000 ) ) ;
#627 = CARTESIAN_POINT ( 'NONE',  ( 0.2499999999999993600, -0.9395296958493147800, 1.190607688315616000 ) ) ;
#628 = DIRECTION ( 'NONE',  ( 1.000000000000000000, 0.0000000000000000000, 0.0000000000000000000 ) ) ;
#629 = DIRECTION ( 'NONE',  ( 0.0000000000000000000, 0.0000000000000000000, 1.000000000000000000 ) ) ;
#630 = AXIS2_PLACEMENT_3D ( 'NONE', #637, #629, #628 ) ;
#631 = B_SPLINE_CURVE_WITH_KNOTS ( 'NONE', 3,
 ( #626, #641, #640, #639, #638 ),
 .UNSPECIFIED., .F., .F.,
 ( 4, 1, 4 ),
 ( 0.0003446846353624303100, 0.0003757366378751004500, 0.0004067886403877703100 ),
 .UNSPECIFIED. ) ;
#632 = CARTESIAN_POINT ( 'NONE',  ( -0.2500000000000006100, -0.9395296958493145600, 1.190607688315616000 ) ) ;
#633 = CARTESIAN_POINT ( 'NONE',  ( -0.9395296958493147800, -0.2499999999999993600, 1.190607688315616000 ) ) ;
#634 = CARTESIAN_POINT ( 'NONE',  ( -0.9496824450760202900, -0.2499999999999994200, 1.188371474840304700 ) ) ;
#635 = CARTESIAN_POINT ( 'NONE',  ( -1.000000000000000000, -0.2499999999999993600, 1.175384852654415900 ) ) ;
#636 = CIRCLE ( 'NONE', #630, 0.9722222222222217700 ) ;
#637 = CARTESIAN_POINT ( 'NONE',  ( 0.0000000000000000000, 0.0000000000000000000, 1.190607688315616000 ) ) ;
#638 = CARTESIAN_POINT ( 'NONE',  ( -0.2500000000000006700, -0.9999999999999991100, 1.175384852653153400 ) ) ;
#639 = CARTESIAN_POINT ( 'NONE',  ( -0.2500000000000006100, -0.9900380025176993600, 1.178212166026276500 ) ) ;
#640 = CARTESIAN_POINT ( 'NONE',  ( -0.2500000000000007200, -0.9699981084372648600, 1.183577833925936400 ) ) ;
#641 = CARTESIAN_POINT ( 'NONE',  ( -0.2500000000000007200, -0.9497250178236862400, 1.188362097897184900 ) ) ;
#642 = CARTESIAN_POINT ( 'NONE',  ( 0.08395749075947669900, -0.9999999999999988900, 1.183847272836183300 ) ) ;
#643 = CARTESIAN_POINT ( 'NONE',  ( 0.2499999999999993600, -0.9999999999999991100, 1.175384852654416200 ) ) ;
#644 = CARTESIAN_POINT ( 'NONE',  ( -0.9395296958493147800, -0.2499999999999993600, 1.190607688315616000 ) ) ;
#645 = AXIS2_PLACEMENT_3D ( 'NONE', #654, #653, #652 ) ;
#646 = B_SPLINE_CURVE_WITH_KNOTS ( 'NONE', 3,
 ( #650, #656, #655, #642, #658, #659 ),
 .UNSPECIFIED., .F., .F.,
 ( 4, 2, 4 ),
 ( 0.007479671739848167300, 0.007728631326206858100, 0.007977590912565548900 ),
 .UNSPECIFIED. ) ;
#647 = DIRECTION ( 'NONE',  ( 0.0000000000000000000, 0.0000000000000000000, 1.000000000000000000 ) ) ;
#648 = B_SPLINE_CURVE_WITH_KNOTS ( 'NONE', 3,
 ( #602, #606, #601, #600, #599 ),
 .UNSPECIFIED., .F., .F.,
 ( 4, 1, 4 ),
 ( 0.008832565764069662300, 0.008863701354130658700, 0.008894836944191655100 ),
 .UNSPECIFIED. ) ;
#649 = DIRECTION ( 'NONE',  ( 1.000000000000000000, 0.0000000000000000000, 0.0000000000000000000 ) ) ;
#650 = CARTESIAN_POINT ( 'NONE',  ( -0.2500000000000006700, -0.9999999999999991100, 1.175384852653153400 ) ) ;
#651 = TOROIDAL_SURFACE ( 'NONE', #657, 0.7499999999999997800, 1.000000000000000200 ) ;
#652 = DIRECTION ( 'NONE',  ( 1.000000000000000000, 0.0000000000000000000, 0.0000000000000000000 ) ) ;
#653 = DIRECTION ( 'NONE',  ( 0.0000000000000000000, 0.0000000000000000000, 1.000000000000000000 ) ) ;
#654 = CARTESIAN_POINT ( 'NONE',  ( 0.0000000000000000000, 0.0000000000000000000, -3.499999999999996000 ) ) ;
#655 = CARTESIAN_POINT ( 'NONE',  ( -0.08301294739750426900, -0.9999999999999991100, 1.183867633222784700 ) ) ;
#656 = CARTESIAN_POINT ( 'NONE',  ( -0.1666789682265487900, -0.9999999999999991100, 1.181296685792325500 ) ) ;
#657 = AXIS2_PLACEMENT_3D ( 'NONE', #664, #663, #665 ) ;
#658 = CARTESIAN_POINT ( 'NONE',  ( 0.1671597256434764800, -0.9999999999999991100, 1.181262574866139600 ) ) ;
#659 = CARTESIAN_POINT ( 'NONE',  ( 0.2499999999999993600, -0.9999999999999991100, 1.175384852654416200 ) ) ;
#660 = CIRCLE ( 'NONE', #662, 0.9722222222222217700 ) ;
#661 = CARTESIAN_POINT ( 'NONE',  ( 0.0000000000000000000, 0.0000000000000000000, 1.190607688315616000 ) ) ;
#662 = AXIS2_PLACEMENT_3D ( 'NONE', #661, #647, #649 ) ;
#663 = DIRECTION ( 'NONE',  ( 0.0000000000000000000, 0.0000000000000000000, 1.000000000000000000 ) ) ;
#664 = CARTESIAN_POINT ( 'NONE',  ( 0.0000000000000000000, 0.0000000000000000000, 0.2156116452720447700 ) ) ;
#665 = DIRECTION ( 'NONE',  ( 1.000000000000000000, 0.0000000000000000000, 0.0000000000000000000 ) ) ;
#666 = CARTESIAN_POINT ( 'NONE',  ( -0.2500000000000006700, -0.9999999999999991100, 1.175384852653153400 ) ) ;
#667 = B_SPLINE_CURVE_WITH_KNOTS ( 'NONE', 3,
 ( #668, #678, #670, #669, #677 ),
 .UNSPECIFIED., .F., .F.,
 ( 4, 1, 4 ),
 ( 0.0003446846353624315500, 0.0003757366378751007200, 0.0004067886403877702100 ),
 .UNSPECIFIED. ) ;
#668 = CARTESIAN_POINT ( 'NONE',  ( 0.9395296958493147800, -0.2499999999999992500, 1.190607688315616000 ) ) ;
#669 = CARTESIAN_POINT ( 'NONE',  ( 0.9900380025176984700, -0.2499999999999992000, 1.178212166026276800 ) ) ;
#670 = CARTESIAN_POINT ( 'NONE',  ( 0.9699981083484046100, -0.2499999999999992000, 1.183577833704390300 ) ) ;
#671 = CONICAL_SURFACE ( 'NONE', #645, 0.9999999999999985600, 0.7853981633974597100 ) ;
#672 = FACE_OUTER_BOUND ( 'NONE', #699, .T. ) ;
#673 = DIRECTION ( 'NONE',  ( 0.0000000000000000000, 0.0000000000000000000, 1.000000000000000000 ) ) ;
#674 = VECTOR ( 'NONE', #673, 1000.000000000000000 ) ;
#675 = CARTESIAN_POINT ( 'NONE',  ( 0.2499999999999993600, -0.2499999999999994700, 0.6500000000000000200 ) ) ;
#676 = CARTESIAN_POINT ( 'NONE',  ( -1.000000000000000000, -0.2499999999999993600, 0.6500000000000000200 ) ) ;
#677 = CARTESIAN_POINT ( 'NONE',  ( 0.9999999999999983300, -0.2499999999999992500, 1.175384852653153800 ) ) ;
#678 = CARTESIAN_POINT ( 'NONE',  ( 0.9497250178236859000, -0.2499999999999992500, 1.188362097897184900 ) ) ;
#679 = CARTESIAN_POINT ( 'NONE',  ( 0.9395296958493147800, -0.2499999999999992500, 1.190607688315616000 ) ) ;
#680 = CARTESIAN_POINT ( 'NONE',  ( -1.000000000000000000, -0.2499999999999993600, 1.175384852654415900 ) ) ;
#681 = LINE ( 'NONE', #675, #674 ) ;
#682 = UNCERTAINTY_MEASURE_WITH_UNIT (LENGTH_MEASURE( 1.000000000000000100E-005 ), #689, 'distance_accuracy_value', 'NONE');
#683 =( NAMED_UNIT ( * ) SI_UNIT ( $, .STERADIAN. ) SOLID_ANGLE_UNIT ( ) );
#684 = FACE_OUTER_BOUND ( 'NONE', #703, .T. ) ;
#685 =( GEOMETRIC_REPRESENTATION_CONTEXT ( 3 ) GLOBAL_UNCERTAINTY_ASSIGNED_CONTEXT ( ( #682 ) ) GLOBAL_UNIT_ASSIGNED_CONTEXT ( ( #689, #697, #683 ) ) REPRESENTATION_CONTEXT ( 'NONE', 'WORKASPACE' ) );
#686 = SURFACE_STYLE_USAGE ( .BOTH. , #687 ) ;
#687 = SURFACE_SIDE_STYLE ('',( #695 ) ) ;
#688 = MECHANICAL_DESIGN_GEOMETRIC_PRESENTATION_REPRESENTATION (  '', ( #693 ), #685 ) ;
#689 =( LENGTH_UNIT ( ) NAMED_UNIT ( * ) SI_UNIT ( .MILLI., .METRE. ) );
#690 = COLOUR_RGB ( '',0.7529411764705882200, 0.7529411764705882200, 0.7529411764705882200 ) ;
#691 = FILL_AREA_STYLE_COLOUR ( '', #690 ) ;
#692 = PRESENTATION_LAYER_ASSIGNMENT (  '', '', ( #693 ) ) ;
#693 = STYLED_ITEM ( 'NONE', ( #694 ), #701 ) ;
#694 = PRESENTATION_STYLE_ASSIGNMENT (( #686 ) ) ;
#695 = SURFACE_STYLE_FILL_AREA ( #696 ) ;
#696 = FILL_AREA_STYLE ('',( #691 ) ) ;
#697 =( NAMED_UNIT ( * ) PLANE_ANGLE_UNIT ( ) SI_UNIT ( $, .RADIAN. ) );
#698 = ORIENTED_EDGE ( 'NONE', *, *, #756, .F. ) ;
#699 = EDGE_LOOP ( 'NONE', ( #698, #755, #864, #731 ) ) ;
#700 = ADVANCED_FACE ( 'NONE', ( #672 ), #671, .T. ) ;
#701 = MANIFOLD_SOLID_BREP ( 'NONE', #135 ) ;
#702 = ADVANCED_FACE ( 'NONE', ( #684 ), #651, .T. ) ;
#703 = EDGE_LOOP ( 'NONE', ( #743, #744, #741, #738, #735, #23, #40, #753, #749, #751, #34, #33 ) ) ;
#704 = EDGE_CURVE ( 'NONE', #866, #705, #774, .T. ) ;
#705 = VERTEX_POINT ( 'NONE', #777 ) ;
#706 = ORIENTED_EDGE ( 'NONE', *, *, #704, .F. ) ;
#707 = EDGE_CURVE ( 'NONE', #705, #717, #786, .T. ) ;
#708 = ORIENTED_EDGE ( 'NONE', *, *, #707, .F. ) ;
#709 = ORIENTED_EDGE ( 'NONE', *, *, #710, .F. ) ;
#710 = EDGE_CURVE ( 'NONE', #726, #718, #776, .T. ) ;
#711 = ADVANCED_FACE ( 'NONE', ( #770 ), #763, .T. ) ;
#712 = EDGE_LOOP ( 'NONE', ( #713, #714, #708, #706 ) ) ;
#713 = ORIENTED_EDGE ( 'NONE', *, *, #723, .T. ) ;
#714 = ORIENTED_EDGE ( 'NONE', *, *, #715, .T. ) ;
#715 = EDGE_CURVE ( 'NONE', #863, #717, #765, .T. ) ;
#716 = VERTEX_POINT ( 'NONE', #766 ) ;
#717 = VERTEX_POINT ( 'NONE', #782 ) ;
#718 = VERTEX_POINT ( 'NONE', #781 ) ;
#719 = VERTEX_POINT ( 'NONE', #780 ) ;
#720 = VERTEX_POINT ( 'NONE', #779 ) ;
#721 = ORIENTED_EDGE ( 'NONE', *, *, #722, .F. ) ;
#722 = EDGE_CURVE ( 'NONE', #718, #720, #812, .T. ) ;
#723 = EDGE_CURVE ( 'NONE', #866, #863, #813, .T. ) ;
#724 = EDGE_CURVE ( 'NONE', #728, #720, #788, .T. ) ;
#725 = ORIENTED_EDGE ( 'NONE', *, *, #733, .T. ) ;
#726 = VERTEX_POINT ( 'NONE', #808 ) ;
#727 = EDGE_CURVE ( 'NONE', #757, #866, #803, .T. ) ;
#728 = VERTEX_POINT ( 'NONE', #804 ) ;
#729 = ORIENTED_EDGE ( 'NONE', *, *, #724, .T. ) ;
#730 = EDGE_LOOP ( 'NONE', ( #725, #729, #721, #709 ) ) ;
#731 = ORIENTED_EDGE ( 'NONE', *, *, #727, .F. ) ;
#732 = ADVANCED_FACE ( 'NONE', ( #816 ), #815, .T. ) ;
#733 = EDGE_CURVE ( 'NONE', #726, #728, #811, .T. ) ;
#734 = EDGE_CURVE ( 'NONE', #716, #719, #822, .T. ) ;
#735 = ORIENTED_EDGE ( 'NONE', *, *, #734, .F. ) ;
#736 = EDGE_CURVE ( 'NONE', #720, #742, #318, .T. ) ;
#737 = VERTEX_POINT ( 'NONE', #313 ) ;
#738 = ORIENTED_EDGE ( 'NONE', *, *, #740, .F. ) ;
#739 = EDGE_CURVE ( 'NONE', #737, #742, #312, .T. ) ;
#740 = EDGE_CURVE ( 'NONE', #719, #737, #304, .T. ) ;
#741 = ORIENTED_EDGE ( 'NONE', *, *, #739, .F. ) ;
#742 = VERTEX_POINT ( 'NONE', #305 ) ;
#743 = ORIENTED_EDGE ( 'NONE', *, *, #722, .T. ) ;
#744 = ORIENTED_EDGE ( 'NONE', *, *, #736, .T. ) ;
#745 = VERTEX_POINT ( 'NONE', #303 ) ;
#746 = EDGE_CURVE ( 'NONE', #745, #750, #297, .T. ) ;
#747 = VERTEX_POINT ( 'NONE', #296 ) ;
#748 = EDGE_CURVE ( 'NONE', #747, #41, #340, .T. ) ;
#749 = ORIENTED_EDGE ( 'NONE', *, *, #752, .F. ) ;
#750 = VERTEX_POINT ( 'NONE', #342 ) ;
#751 = ORIENTED_EDGE ( 'NONE', *, *, #746, .F. ) ;
#752 = EDGE_CURVE ( 'NONE', #750, #747, #339, .T. ) ;
#753 = ORIENTED_EDGE ( 'NONE', *, *, #748, .F. ) ;
#754 = VERTEX_POINT ( 'NONE', #330 ) ;
#755 = ORIENTED_EDGE ( 'NONE', *, *, #862, .T. ) ;
#756 = EDGE_CURVE ( 'NONE', #754, #757, #329, .T. ) ;
#757 = VERTEX_POINT ( 'NONE', #324 ) ;
#758 = VECTOR ( 'NONE', #778, 1000.000000000000000 ) ;
#759 = DIRECTION ( 'NONE',  ( 1.000000000000000000, 0.0000000000000000000, 0.0000000000000000000 ) ) ;
#760 = DIRECTION ( 'NONE',  ( 0.0000000000000000000, 0.0000000000000000000, 1.000000000000000000 ) ) ;
#761 = CARTESIAN_POINT ( 'NONE',  ( 0.9999999999999985600, 0.0000000000000000000, 32.83086675276936000 ) ) ;
#762 = AXIS2_PLACEMENT_3D ( 'NONE', #769, #768, #767 ) ;
#763 = CYLINDRICAL_SURFACE ( 'NONE', #762, 0.9999999999999985600 ) ;
#764 = CARTESIAN_POINT ( 'NONE',  ( -0.9999999999999985600, 1.224606353822375500E-016, 32.83086675276936000 ) ) ;
#765 = LINE ( 'NONE', #764, #784 ) ;
#766 = CARTESIAN_POINT ( 'NONE',  ( -0.2500000000000002200, 0.9395296958493147800, 1.190607688315616000 ) ) ;
#767 = DIRECTION ( 'NONE',  ( 1.000000000000000000, 0.0000000000000000000, 0.0000000000000000000 ) ) ;
#768 = DIRECTION ( 'NONE',  ( 0.0000000000000000000, 0.0000000000000000000, 1.000000000000000000 ) ) ;
#769 = CARTESIAN_POINT ( 'NONE',  ( 0.0000000000000000000, 0.0000000000000000000, 32.83086675276936000 ) ) ;
#770 = FACE_OUTER_BOUND ( 'NONE', #712, .T. ) ;
#771 = DIRECTION ( 'NONE',  ( 0.0000000000000000000, 0.0000000000000000000, 1.000000000000000000 ) ) ;
#772 = VECTOR ( 'NONE', #771, 1000.000000000000000 ) ;
#773 = CARTESIAN_POINT ( 'NONE',  ( 1.749999999999999800, 0.0000000000000000000, 32.83086675276936000 ) ) ;
#774 = LINE ( 'NONE', #761, #758 ) ;
#775 = CARTESIAN_POINT ( 'NONE',  ( 0.0000000000000000000, 0.0000000000000000000, 0.0000000000000000000 ) ) ;
#776 = LINE ( 'NONE', #773, #772 ) ;
#777 = CARTESIAN_POINT ( 'NONE',  ( 0.9999999999999983300, 0.0000000000000000000, 0.0000000000000000000 ) ) ;
#778 = DIRECTION ( 'NONE',  ( 0.0000000000000000000, 0.0000000000000000000, 1.000000000000000000 ) ) ;
#779 = CARTESIAN_POINT ( 'NONE',  ( -1.749999999999999800, 2.143061119189160000E-016, 0.2156116452720416300 ) ) ;
#780 = CARTESIAN_POINT ( 'NONE',  ( -0.9395296958493147800, 0.2499999999999997800, 1.190607688315616000 ) ) ;
#781 = CARTESIAN_POINT ( 'NONE',  ( 1.749999999999999800, 0.0000000000000000000, 0.2156116452720416300 ) ) ;
#782 = CARTESIAN_POINT ( 'NONE',  ( -0.9999999999999983300, 1.224606353822375500E-016, 0.0000000000000000000 ) ) ;
#783 = DIRECTION ( 'NONE',  ( 0.0000000000000000000, 0.0000000000000000000, 1.000000000000000000 ) ) ;
#784 = VECTOR ( 'NONE', #783, 1000.000000000000000 ) ;
#785 = AXIS2_PLACEMENT_3D ( 'NONE', #775, #760, #759 ) ;
#786 = CIRCLE ( 'NONE', #785, 0.9999999999999983300 ) ;
#787 = DIRECTION ( 'NONE',  ( 0.0000000000000000000, 0.0000000000000000000, 1.000000000000000000 ) ) ;
#788 = LINE ( 'NONE', #807, #806 ) ;
#789 = DIRECTION ( 'NONE',  ( 1.000000000000000000, 0.0000000000000000000, 0.0000000000000000000 ) ) ;
#790 = DIRECTION ( 'NONE',  ( 1.000000000000000000, 0.0000000000000000000, 0.0000000000000000000 ) ) ;
#791 = DIRECTION ( 'NONE',  ( 0.0000000000000000000, 0.0000000000000000000, 1.000000000000000000 ) ) ;
#792 = CARTESIAN_POINT ( 'NONE',  ( 0.0000000000000000000, 0.0000000000000000000, 0.2156116452720416300 ) ) ;
#793 = CARTESIAN_POINT ( 'NONE',  ( 0.0000000000000000000, 0.0000000000000000000, 32.83086675276936000 ) ) ;
#794 = AXIS2_PLACEMENT_3D ( 'NONE', #793, #791, #790 ) ;
#795 = CARTESIAN_POINT ( 'NONE',  ( 0.0000000000000000000, 0.0000000000000000000, -3.499999999999996000 ) ) ;
#796 = DIRECTION ( 'NONE',  ( 1.000000000000000000, 0.0000000000000000000, 0.0000000000000000000 ) ) ;
#797 = DIRECTION ( 'NONE',  ( 0.0000000000000000000, 0.0000000000000000000, 1.000000000000000000 ) ) ;
#798 = AXIS2_PLACEMENT_3D ( 'NONE', #792, #814, #800 ) ;
#799 = AXIS2_PLACEMENT_3D ( 'NONE', #795, #787, #789 ) ;
#800 = DIRECTION ( 'NONE',  ( 1.000000000000000000, 0.0000000000000000000, 0.0000000000000000000 ) ) ;
#801 = VECTOR ( 'NONE', #817, 1000.000000000000100 ) ;
#802 = CARTESIAN_POINT ( 'NONE',  ( 0.9999999999999985600, 0.0000000000000000000, -3.499999999999996000 ) ) ;
#803 = LINE ( 'NONE', #802, #801 ) ;
#804 = CARTESIAN_POINT ( 'NONE',  ( -1.749999999999999800, 2.143061119189160000E-016, 0.0000000000000000000 ) ) ;
#805 = DIRECTION ( 'NONE',  ( 0.0000000000000000000, 0.0000000000000000000, 1.000000000000000000 ) ) ;
#806 = VECTOR ( 'NONE', #805, 1000.000000000000000 ) ;
#807 = CARTESIAN_POINT ( 'NONE',  ( -1.749999999999999800, 2.143061119189160000E-016, 32.83086675276936000 ) ) ;
#808 = CARTESIAN_POINT ( 'NONE',  ( 1.749999999999999800, 0.0000000000000000000, 0.0000000000000000000 ) ) ;
#809 = CARTESIAN_POINT ( 'NONE',  ( 0.0000000000000000000, 0.0000000000000000000, 0.0000000000000000000 ) ) ;
#810 = AXIS2_PLACEMENT_3D ( 'NONE', #809, #797, #796 ) ;
#811 = CIRCLE ( 'NONE', #810, 1.749999999999999800 ) ;
#812 = CIRCLE ( 'NONE', #798, 1.749999999999999800 ) ;
#813 = CIRCLE ( 'NONE', #799, 0.9999999999999985600 ) ;
#814 = DIRECTION ( 'NONE',  ( 0.0000000000000000000, 0.0000000000000000000, 1.000000000000000000 ) ) ;
#815 = CYLINDRICAL_SURFACE ( 'NONE', #794, 1.749999999999999800 ) ;
#816 = FACE_OUTER_BOUND ( 'NONE', #730, .T. ) ;
#817 = DIRECTION ( 'NONE',  ( 0.7071067811865555700, 0.0000000000000000000, 0.7071067811865393600 ) ) ;
#818 = DIRECTION ( 'NONE',  ( 1.000000000000000000, 0.0000000000000000000, 0.0000000000000000000 ) ) ;
#819 = DIRECTION ( 'NONE',  ( 0.0000000000000000000, 0.0000000000000000000, 1.000000000000000000 ) ) ;
#820 = CARTESIAN_POINT ( 'NONE',  ( 0.0000000000000000000, 0.0000000000000000000, 1.190607688315616000 ) ) ;
#821 = AXIS2_PLACEMENT_3D ( 'NONE', #820, #819, #818 ) ;
#822 = CIRCLE ( 'NONE', #821, 0.9722222222222217700 ) ;
#823 = ORIENTED_EDGE ( 'NONE', *, *, #156, .F. ) ;
#824 = ORIENTED_EDGE ( 'NONE', *, *, #127, .F. ) ;
#825 = ORIENTED_EDGE ( 'NONE', *, *, #194, .F. ) ;
#826 = ORIENTED_EDGE ( 'NONE', *, *, #138, .F. ) ;
#827 = ORIENTED_EDGE ( 'NONE', *, *, #190, .F. ) ;
#828 = ORIENTED_EDGE ( 'NONE', *, *, #277, .T. ) ;
#829 = EDGE_LOOP ( 'NONE', ( #828, #865, #867, #858, #860 ) ) ;
#830 = ORIENTED_EDGE ( 'NONE', *, *, #295, .F. ) ;
#831 = ORIENTED_EDGE ( 'NONE', *, *, #832, .T. ) ;
#832 = EDGE_CURVE ( 'NONE', #118, #178, #323, .T. ) ;
#833 = ORIENTED_EDGE ( 'NONE', *, *, #177, .T. ) ;
#834 = ADVANCED_FACE ( 'NONE', ( #319 ), #379, .T. ) ;
#835 = EDGE_LOOP ( 'NONE', ( #837, #838, #830, #831, #833 ) ) ;
#836 = ADVANCED_FACE ( 'NONE', ( #380 ), #374, .T. ) ;
#837 = ORIENTED_EDGE ( 'NONE', *, *, #283, .T. ) ;
#838 = ORIENTED_EDGE ( 'NONE', *, *, #245, .T. ) ;
#839 = ORIENTED_EDGE ( 'NONE', *, *, #119, .F. ) ;
#840 = ORIENTED_EDGE ( 'NONE', *, *, #832, .F. ) ;
#841 = ORIENTED_EDGE ( 'NONE', *, *, #248, .T. ) ;
#842 = ADVANCED_FACE ( 'NONE', ( #369 ), #368, .T. ) ;
#843 = ORIENTED_EDGE ( 'NONE', *, *, #195, .F. ) ;
#844 = EDGE_LOOP ( 'NONE', ( #845, #846, #847, #848, #843, #840, #839, #827, #824, #826, #825, #823 ) ) ;
#845 = ORIENTED_EDGE ( 'NONE', *, *, #165, .F. ) ;
#846 = ORIENTED_EDGE ( 'NONE', *, *, #168, .F. ) ;
#847 = ORIENTED_EDGE ( 'NONE', *, *, #851, .F. ) ;
#848 = ORIENTED_EDGE ( 'NONE', *, *, #861, .F. ) ;
#849 = ORIENTED_EDGE ( 'NONE', *, *, #851, .T. ) ;
#850 = ORIENTED_EDGE ( 'NONE', *, *, #859, .F. ) ;
#851 = EDGE_CURVE ( 'NONE', #857, #294, #363, .T. ) ;
#852 = ORIENTED_EDGE ( 'NONE', *, *, #204, .T. ) ;
#853 = ADVANCED_FACE ( 'NONE', ( #359 ), #358, .T. ) ;
#854 = EDGE_LOOP ( 'NONE', ( #855, #856, #850, #849, #852 ) ) ;
#855 = ORIENTED_EDGE ( 'NONE', *, *, #274, .T. ) ;
#856 = ORIENTED_EDGE ( 'NONE', *, *, #221, .T. ) ;
#857 = VERTEX_POINT ( 'NONE', #353 ) ;
#858 = ORIENTED_EDGE ( 'NONE', *, *, #859, .T. ) ;
#859 = EDGE_CURVE ( 'NONE', #857, #242, #352, .T. ) ;
#860 = ORIENTED_EDGE ( 'NONE', *, *, #244, .T. ) ;
#861 = EDGE_CURVE ( 'NONE', #196, #857, #348, .T. ) ;
#862 = EDGE_CURVE ( 'NONE', #754, #863, #400, .T. ) ;
#863 = VERTEX_POINT ( 'NONE', #396 ) ;
#864 = ORIENTED_EDGE ( 'NONE', *, *, #723, .F. ) ;
#865 = ORIENTED_EDGE ( 'NONE', *, *, #198, .F. ) ;
#866 = VERTEX_POINT ( 'NONE', #395 ) ;
#867 = ORIENTED_EDGE ( 'NONE', *, *, #861, .T. ) ;
#868 = ADVANCED_FACE ( 'NONE', ( #394 ), #391, .T. ) ;
#869 = CIRCLE ( 'NONE', #871, 1.749999999999999800 ) ;
#870 = CARTESIAN_POINT ( 'NONE',  ( 0.9999999999999983300, 0.0000000000000000000, 1.183857481823899600 ) ) ;
#871 = AXIS2_PLACEMENT_3D ( 'NONE', #872, #873, #874 ) ;
#872 = CARTESIAN_POINT ( 'NONE',  ( 0.0000000000000000000, 0.0000000000000000000, 0.2156116452720416300 ) ) ;
#873 = DIRECTION ( 'NONE',  ( 0.0000000000000000000, 0.0000000000000000000, 1.000000000000000000 ) ) ;
#874 = DIRECTION ( 'NONE',  ( 1.000000000000000000, 0.0000000000000000000, 0.0000000000000000000 ) ) ;
#875 = CARTESIAN_POINT ( 'NONE',  ( 0.2499999999999997800, 0.9999999999999991100, 1.175384852653153400 ) ) ;
#876 = CARTESIAN_POINT ( 'NONE',  ( 0.1666789682265477100, 0.9999999999999991100, 1.181296685792325300 ) ) ;
#877 = B_SPLINE_CURVE_WITH_KNOTS ( 'NONE', 3,
 ( #8, #878, #879, #1, #3, #2 ),
 .UNSPECIFIED., .F., .F.,
 ( 4, 2, 4 ),
 ( 4.103649001588016500E-019, 0.0001247145169138718900, 0.0002494290338277434100 ),
 .UNSPECIFIED. ) ;
#878 = CARTESIAN_POINT ( 'NONE',  ( 0.9999999999999985600, 0.04182188150355817300, 1.183857481823899800 ) ) ;
#879 = CARTESIAN_POINT ( 'NONE',  ( 0.9999999999999985600, 0.08357022743573497300, 1.183188474015583100 ) ) ;
ENDSEC;
END-ISO-10303-21;
