ISO-10303-21;
HEADER;
/* Generated by software containing ST-Developer
 * from STEP Tools, Inc. (www.steptools.com) 
 */
/* OPTION: using custom renumber hook */

FILE_DESCRIPTION(
/* description */ ('STEP AP214'),
/* implementation_level */ '2;1');

FILE_NAME(
/* name */ 'SPA-M2-5-P',
/* time_stamp */ '2025-01-05T02:35:34+01:00',
/* author */ ('License CC BY-ND 4.0'),
/* organization */ ('CADENAS'),
/* preprocessor_version */ 'ST-DEVELOPER v19.3',
/* originating_system */ 'PARTsolutions',
/* authorisation */ '  ');

FILE_SCHEMA (('AUTOMOTIVE_DESIGN {1 0 10303 214 3 1 1}'));
ENDSEC;

DATA;
#10=PROPERTY_DEFINITION_REPRESENTATION(#14,#12);
#11=PROPERTY_DEFINITION_REPRESENTATION(#15,#13);
#12=REPRESENTATION('',(#16),#721);
#13=REPRESENTATION('',(#17),#721);
#14=PROPERTY_DEFINITION('pmi validation property','',#726);
#15=PROPERTY_DEFINITION('pmi validation property','',#726);
#16=VALUE_REPRESENTATION_ITEM('number of annotations',COUNT_MEASURE(0.));
#17=VALUE_REPRESENTATION_ITEM('number of views',COUNT_MEASURE(0.));
#18=SHAPE_REPRESENTATION_RELATIONSHIP('','',#421,#19);
#19=ADVANCED_BREP_SHAPE_REPRESENTATION('',(#419),#721);
#20=LINE('',#656,#48);
#21=LINE('',#658,#49);
#22=LINE('',#660,#50);
#23=LINE('',#662,#51);
#24=LINE('',#664,#52);
#25=LINE('',#668,#53);
#26=LINE('',#670,#54);
#27=LINE('',#672,#55);
#28=LINE('',#674,#56);
#29=LINE('',#676,#57);
#30=LINE('',#678,#58);
#31=LINE('',#680,#59);
#32=LINE('',#684,#60);
#33=LINE('',#686,#61);
#34=LINE('',#688,#62);
#35=LINE('',#690,#63);
#36=LINE('',#692,#64);
#37=LINE('',#694,#65);
#38=LINE('',#696,#66);
#39=LINE('',#700,#67);
#40=LINE('',#702,#68);
#41=LINE('',#704,#69);
#42=LINE('',#706,#70);
#43=LINE('',#708,#71);
#44=LINE('',#710,#72);
#45=LINE('',#712,#73);
#46=LINE('',#716,#74);
#47=LINE('',#718,#75);
#48=VECTOR('',#487,1000.);
#49=VECTOR('',#488,1000.);
#50=VECTOR('',#489,1000.);
#51=VECTOR('',#492,1000.);
#52=VECTOR('',#493,1000.);
#53=VECTOR('',#498,1000.);
#54=VECTOR('',#501,1000.);
#55=VECTOR('',#502,1000.);
#56=VECTOR('',#505,1000.);
#57=VECTOR('',#506,1000.);
#58=VECTOR('',#509,1000.);
#59=VECTOR('',#510,1000.);
#60=VECTOR('',#515,1000.);
#61=VECTOR('',#518,1000.);
#62=VECTOR('',#519,1000.);
#63=VECTOR('',#522,1000.);
#64=VECTOR('',#523,1000.);
#65=VECTOR('',#526,1000.);
#66=VECTOR('',#527,1000.);
#67=VECTOR('',#532,1000.);
#68=VECTOR('',#535,1000.);
#69=VECTOR('',#536,1000.);
#70=VECTOR('',#539,1000.);
#71=VECTOR('',#540,1000.);
#72=VECTOR('',#543,1000.);
#73=VECTOR('',#544,1000.);
#74=VECTOR('',#549,1000.);
#75=VECTOR('',#552,1000.);
#76=CONICAL_SURFACE('',#433,1.,0.785398163397448);
#77=PLANE('',#429);
#78=PLANE('',#435);
#79=PLANE('',#436);
#80=PLANE('',#437);
#81=PLANE('',#440);
#82=PLANE('',#441);
#83=PLANE('',#442);
#84=PLANE('',#445);
#85=PLANE('',#446);
#86=PLANE('',#447);
#87=PLANE('',#450);
#88=PLANE('',#451);
#89=PLANE('',#452);
#90=PLANE('',#455);
#91=PLANE('',#456);
#92=CYLINDRICAL_SURFACE('',#427,1.75);
#93=CYLINDRICAL_SURFACE('',#431,1.);
#94=CYLINDRICAL_SURFACE('',#438,0.4375);
#95=CYLINDRICAL_SURFACE('',#443,0.4375);
#96=CYLINDRICAL_SURFACE('',#448,0.4375);
#97=CYLINDRICAL_SURFACE('',#453,0.4375);
#98=TOROIDAL_SURFACE('',#425,1.6,0.15);
#99=CIRCLE('',#424,1.68505299226731);
#100=CIRCLE('',#426,1.75);
#101=CIRCLE('',#428,1.75);
#102=CIRCLE('',#430,1.);
#103=CIRCLE('',#432,1.);
#104=CIRCLE('',#434,0.7545);
#105=CIRCLE('',#439,0.4375);
#106=CIRCLE('',#444,0.4375);
#107=CIRCLE('',#449,0.4375);
#108=CIRCLE('',#454,0.4375);
#109=ORIENTED_EDGE('',*,*,#217,.T.);
#110=ORIENTED_EDGE('',*,*,#218,.T.);
#111=ORIENTED_EDGE('',*,*,#219,.T.);
#112=ORIENTED_EDGE('',*,*,#220,.F.);
#113=ORIENTED_EDGE('',*,*,#221,.T.);
#114=ORIENTED_EDGE('',*,*,#222,.T.);
#115=ORIENTED_EDGE('',*,*,#223,.T.);
#116=ORIENTED_EDGE('',*,*,#224,.F.);
#117=ORIENTED_EDGE('',*,*,#225,.T.);
#118=ORIENTED_EDGE('',*,*,#226,.T.);
#119=ORIENTED_EDGE('',*,*,#227,.T.);
#120=ORIENTED_EDGE('',*,*,#228,.F.);
#121=ORIENTED_EDGE('',*,*,#229,.T.);
#122=ORIENTED_EDGE('',*,*,#230,.T.);
#123=ORIENTED_EDGE('',*,*,#231,.T.);
#124=ORIENTED_EDGE('',*,*,#232,.F.);
#125=ORIENTED_EDGE('',*,*,#233,.F.);
#126=ORIENTED_EDGE('',*,*,#233,.T.);
#127=ORIENTED_EDGE('',*,*,#234,.F.);
#128=ORIENTED_EDGE('',*,*,#235,.F.);
#129=ORIENTED_EDGE('',*,*,#234,.T.);
#130=ORIENTED_EDGE('',*,*,#236,.F.);
#131=ORIENTED_EDGE('',*,*,#235,.T.);
#132=ORIENTED_EDGE('',*,*,#237,.F.);
#133=ORIENTED_EDGE('',*,*,#236,.T.);
#134=ORIENTED_EDGE('',*,*,#238,.F.);
#135=ORIENTED_EDGE('',*,*,#237,.T.);
#136=ORIENTED_EDGE('',*,*,#238,.T.);
#137=ORIENTED_EDGE('',*,*,#239,.F.);
#138=ORIENTED_EDGE('',*,*,#240,.T.);
#139=ORIENTED_EDGE('',*,*,#241,.T.);
#140=ORIENTED_EDGE('',*,*,#222,.F.);
#141=ORIENTED_EDGE('',*,*,#241,.F.);
#142=ORIENTED_EDGE('',*,*,#242,.T.);
#143=ORIENTED_EDGE('',*,*,#243,.T.);
#144=ORIENTED_EDGE('',*,*,#223,.F.);
#145=ORIENTED_EDGE('',*,*,#224,.T.);
#146=ORIENTED_EDGE('',*,*,#243,.F.);
#147=ORIENTED_EDGE('',*,*,#244,.F.);
#148=ORIENTED_EDGE('',*,*,#245,.T.);
#149=ORIENTED_EDGE('',*,*,#245,.F.);
#150=ORIENTED_EDGE('',*,*,#246,.T.);
#151=ORIENTED_EDGE('',*,*,#247,.T.);
#152=ORIENTED_EDGE('',*,*,#225,.F.);
#153=ORIENTED_EDGE('',*,*,#247,.F.);
#154=ORIENTED_EDGE('',*,*,#248,.T.);
#155=ORIENTED_EDGE('',*,*,#249,.T.);
#156=ORIENTED_EDGE('',*,*,#226,.F.);
#157=ORIENTED_EDGE('',*,*,#249,.F.);
#158=ORIENTED_EDGE('',*,*,#250,.T.);
#159=ORIENTED_EDGE('',*,*,#251,.T.);
#160=ORIENTED_EDGE('',*,*,#227,.F.);
#161=ORIENTED_EDGE('',*,*,#228,.T.);
#162=ORIENTED_EDGE('',*,*,#251,.F.);
#163=ORIENTED_EDGE('',*,*,#252,.F.);
#164=ORIENTED_EDGE('',*,*,#253,.T.);
#165=ORIENTED_EDGE('',*,*,#253,.F.);
#166=ORIENTED_EDGE('',*,*,#254,.T.);
#167=ORIENTED_EDGE('',*,*,#255,.T.);
#168=ORIENTED_EDGE('',*,*,#229,.F.);
#169=ORIENTED_EDGE('',*,*,#255,.F.);
#170=ORIENTED_EDGE('',*,*,#256,.T.);
#171=ORIENTED_EDGE('',*,*,#257,.T.);
#172=ORIENTED_EDGE('',*,*,#230,.F.);
#173=ORIENTED_EDGE('',*,*,#257,.F.);
#174=ORIENTED_EDGE('',*,*,#258,.T.);
#175=ORIENTED_EDGE('',*,*,#259,.T.);
#176=ORIENTED_EDGE('',*,*,#231,.F.);
#177=ORIENTED_EDGE('',*,*,#232,.T.);
#178=ORIENTED_EDGE('',*,*,#259,.F.);
#179=ORIENTED_EDGE('',*,*,#260,.F.);
#180=ORIENTED_EDGE('',*,*,#261,.T.);
#181=ORIENTED_EDGE('',*,*,#261,.F.);
#182=ORIENTED_EDGE('',*,*,#262,.T.);
#183=ORIENTED_EDGE('',*,*,#263,.T.);
#184=ORIENTED_EDGE('',*,*,#217,.F.);
#185=ORIENTED_EDGE('',*,*,#263,.F.);
#186=ORIENTED_EDGE('',*,*,#264,.T.);
#187=ORIENTED_EDGE('',*,*,#265,.T.);
#188=ORIENTED_EDGE('',*,*,#218,.F.);
#189=ORIENTED_EDGE('',*,*,#265,.F.);
#190=ORIENTED_EDGE('',*,*,#266,.T.);
#191=ORIENTED_EDGE('',*,*,#267,.T.);
#192=ORIENTED_EDGE('',*,*,#219,.F.);
#193=ORIENTED_EDGE('',*,*,#220,.T.);
#194=ORIENTED_EDGE('',*,*,#267,.F.);
#195=ORIENTED_EDGE('',*,*,#268,.F.);
#196=ORIENTED_EDGE('',*,*,#269,.T.);
#197=ORIENTED_EDGE('',*,*,#269,.F.);
#198=ORIENTED_EDGE('',*,*,#270,.T.);
#199=ORIENTED_EDGE('',*,*,#239,.T.);
#200=ORIENTED_EDGE('',*,*,#221,.F.);
#201=ORIENTED_EDGE('',*,*,#240,.F.);
#202=ORIENTED_EDGE('',*,*,#270,.F.);
#203=ORIENTED_EDGE('',*,*,#268,.T.);
#204=ORIENTED_EDGE('',*,*,#266,.F.);
#205=ORIENTED_EDGE('',*,*,#264,.F.);
#206=ORIENTED_EDGE('',*,*,#262,.F.);
#207=ORIENTED_EDGE('',*,*,#260,.T.);
#208=ORIENTED_EDGE('',*,*,#258,.F.);
#209=ORIENTED_EDGE('',*,*,#256,.F.);
#210=ORIENTED_EDGE('',*,*,#254,.F.);
#211=ORIENTED_EDGE('',*,*,#252,.T.);
#212=ORIENTED_EDGE('',*,*,#250,.F.);
#213=ORIENTED_EDGE('',*,*,#248,.F.);
#214=ORIENTED_EDGE('',*,*,#246,.F.);
#215=ORIENTED_EDGE('',*,*,#244,.T.);
#216=ORIENTED_EDGE('',*,*,#242,.F.);
#217=EDGE_CURVE('',#271,#272,#309,.T.);
#218=EDGE_CURVE('',#272,#273,#310,.T.);
#219=EDGE_CURVE('',#273,#274,#311,.T.);
#220=EDGE_CURVE('',#275,#274,#312,.T.);
#221=EDGE_CURVE('',#275,#276,#313,.T.);
#222=EDGE_CURVE('',#276,#277,#314,.T.);
#223=EDGE_CURVE('',#277,#278,#315,.T.);
#224=EDGE_CURVE('',#279,#278,#316,.T.);
#225=EDGE_CURVE('',#279,#280,#317,.T.);
#226=EDGE_CURVE('',#280,#281,#318,.T.);
#227=EDGE_CURVE('',#281,#282,#319,.T.);
#228=EDGE_CURVE('',#283,#282,#320,.T.);
#229=EDGE_CURVE('',#283,#284,#321,.T.);
#230=EDGE_CURVE('',#284,#285,#322,.T.);
#231=EDGE_CURVE('',#285,#286,#323,.T.);
#232=EDGE_CURVE('',#271,#286,#324,.T.);
#233=EDGE_CURVE('',#287,#287,#99,.T.);
#234=EDGE_CURVE('',#288,#288,#100,.T.);
#235=EDGE_CURVE('',#289,#289,#101,.T.);
#236=EDGE_CURVE('',#290,#290,#102,.T.);
#237=EDGE_CURVE('',#291,#291,#103,.T.);
#238=EDGE_CURVE('',#292,#292,#104,.T.);
#239=EDGE_CURVE('',#293,#276,#20,.T.);
#240=EDGE_CURVE('',#293,#294,#21,.T.);
#241=EDGE_CURVE('',#294,#277,#22,.T.);
#242=EDGE_CURVE('',#294,#295,#23,.T.);
#243=EDGE_CURVE('',#295,#278,#24,.T.);
#244=EDGE_CURVE('',#296,#295,#105,.T.);
#245=EDGE_CURVE('',#296,#279,#25,.T.);
#246=EDGE_CURVE('',#296,#297,#26,.T.);
#247=EDGE_CURVE('',#297,#280,#27,.T.);
#248=EDGE_CURVE('',#297,#298,#28,.T.);
#249=EDGE_CURVE('',#298,#281,#29,.T.);
#250=EDGE_CURVE('',#298,#299,#30,.T.);
#251=EDGE_CURVE('',#299,#282,#31,.T.);
#252=EDGE_CURVE('',#300,#299,#106,.T.);
#253=EDGE_CURVE('',#300,#283,#32,.T.);
#254=EDGE_CURVE('',#300,#301,#33,.T.);
#255=EDGE_CURVE('',#301,#284,#34,.T.);
#256=EDGE_CURVE('',#301,#302,#35,.T.);
#257=EDGE_CURVE('',#302,#285,#36,.T.);
#258=EDGE_CURVE('',#302,#303,#37,.T.);
#259=EDGE_CURVE('',#303,#286,#38,.T.);
#260=EDGE_CURVE('',#304,#303,#107,.T.);
#261=EDGE_CURVE('',#304,#271,#39,.T.);
#262=EDGE_CURVE('',#304,#305,#40,.T.);
#263=EDGE_CURVE('',#305,#272,#41,.T.);
#264=EDGE_CURVE('',#305,#306,#42,.T.);
#265=EDGE_CURVE('',#306,#273,#43,.T.);
#266=EDGE_CURVE('',#306,#307,#44,.T.);
#267=EDGE_CURVE('',#307,#274,#45,.T.);
#268=EDGE_CURVE('',#308,#307,#108,.T.);
#269=EDGE_CURVE('',#308,#275,#46,.T.);
#270=EDGE_CURVE('',#308,#293,#47,.T.);
#271=VERTEX_POINT('',#561);
#272=VERTEX_POINT('',#562);
#273=VERTEX_POINT('',#567);
#274=VERTEX_POINT('',#572);
#275=VERTEX_POINT('',#577);
#276=VERTEX_POINT('',#582);
#277=VERTEX_POINT('',#587);
#278=VERTEX_POINT('',#592);
#279=VERTEX_POINT('',#597);
#280=VERTEX_POINT('',#602);
#281=VERTEX_POINT('',#607);
#282=VERTEX_POINT('',#612);
#283=VERTEX_POINT('',#617);
#284=VERTEX_POINT('',#622);
#285=VERTEX_POINT('',#627);
#286=VERTEX_POINT('',#632);
#287=VERTEX_POINT('',#638);
#288=VERTEX_POINT('',#641);
#289=VERTEX_POINT('',#644);
#290=VERTEX_POINT('',#647);
#291=VERTEX_POINT('',#650);
#292=VERTEX_POINT('',#653);
#293=VERTEX_POINT('',#657);
#294=VERTEX_POINT('',#659);
#295=VERTEX_POINT('',#663);
#296=VERTEX_POINT('',#667);
#297=VERTEX_POINT('',#671);
#298=VERTEX_POINT('',#675);
#299=VERTEX_POINT('',#679);
#300=VERTEX_POINT('',#683);
#301=VERTEX_POINT('',#687);
#302=VERTEX_POINT('',#691);
#303=VERTEX_POINT('',#695);
#304=VERTEX_POINT('',#699);
#305=VERTEX_POINT('',#703);
#306=VERTEX_POINT('',#707);
#307=VERTEX_POINT('',#711);
#308=VERTEX_POINT('',#715);
#309=B_SPLINE_CURVE_WITH_KNOTS('',3,(#557,#558,#559,#560),.UNSPECIFIED.,
 .F.,.F.,(4,4),(0.000788609339071869,0.00130609667998237),.UNSPECIFIED.);
#310=B_SPLINE_CURVE_WITH_KNOTS('',3,(#563,#564,#565,#566),.UNSPECIFIED.,
 .F.,.F.,(4,4),(0.00066377755155842,0.00091162361378453),.UNSPECIFIED.);
#311=B_SPLINE_CURVE_WITH_KNOTS('',3,(#568,#569,#570,#571),.UNSPECIFIED.,
 .F.,.F.,(4,4),(0.000896968761713955,0.001408245015368),.UNSPECIFIED.);
#312=B_SPLINE_CURVE_WITH_KNOTS('',3,(#573,#574,#575,#576),.UNSPECIFIED.,
 .F.,.F.,(4,4),(2.0343847091583E-7,0.000692427648686208),.UNSPECIFIED.);
#313=B_SPLINE_CURVE_WITH_KNOTS('',3,(#578,#579,#580,#581),.UNSPECIFIED.,
 .F.,.F.,(4,4),(0.000788609339071823,0.0013060966799824),.UNSPECIFIED.);
#314=B_SPLINE_CURVE_WITH_KNOTS('',3,(#583,#584,#585,#586),.UNSPECIFIED.,
 .F.,.F.,(4,4),(0.000663777551558416,0.00091162361378453),.UNSPECIFIED.);
#315=B_SPLINE_CURVE_WITH_KNOTS('',3,(#588,#589,#590,#591),.UNSPECIFIED.,
 .F.,.F.,(4,4),(0.000896968761713956,0.00140824501536801),.UNSPECIFIED.);
#316=B_SPLINE_CURVE_WITH_KNOTS('',3,(#593,#594,#595,#596),.UNSPECIFIED.,
 .F.,.F.,(4,4),(2.0343847091583E-7,0.000692427648686208),.UNSPECIFIED.);
#317=B_SPLINE_CURVE_WITH_KNOTS('',3,(#598,#599,#600,#601),.UNSPECIFIED.,
 .F.,.F.,(4,4),(0.000788609339071823,0.00130609667998232),.UNSPECIFIED.);
#318=B_SPLINE_CURVE_WITH_KNOTS('',3,(#603,#604,#605,#606),.UNSPECIFIED.,
 .F.,.F.,(4,4),(0.00066377755155842,0.00091162361378453),.UNSPECIFIED.);
#319=B_SPLINE_CURVE_WITH_KNOTS('',3,(#608,#609,#610,#611),.UNSPECIFIED.,
 .F.,.F.,(4,4),(0.000896968761713956,0.00140824501536801),.UNSPECIFIED.);
#320=B_SPLINE_CURVE_WITH_KNOTS('',3,(#613,#614,#615,#616),.UNSPECIFIED.,
 .F.,.F.,(4,4),(2.0343847091583E-7,0.000692427648686208),.UNSPECIFIED.);
#321=B_SPLINE_CURVE_WITH_KNOTS('',3,(#618,#619,#620,#621),.UNSPECIFIED.,
 .F.,.F.,(4,4),(0.000788609339071869,0.00130609667998237),.UNSPECIFIED.);
#322=B_SPLINE_CURVE_WITH_KNOTS('',3,(#623,#624,#625,#626),.UNSPECIFIED.,
 .F.,.F.,(4,4),(0.00066377755155842,0.000911623613784531),.UNSPECIFIED.);
#323=B_SPLINE_CURVE_WITH_KNOTS('',3,(#628,#629,#630,#631),.UNSPECIFIED.,
 .F.,.F.,(4,4),(0.000896968761713954,0.001408245015368),.UNSPECIFIED.);
#324=B_SPLINE_CURVE_WITH_KNOTS('',3,(#633,#634,#635,#636),.UNSPECIFIED.,
 .F.,.F.,(4,4),(2.0343847091583E-7,0.000692427648686208),.UNSPECIFIED.);
#325=EDGE_LOOP('',(#109,#110,#111,#112,#113,#114,#115,#116,#117,#118,#119,
#120,#121,#122,#123,#124));
#326=EDGE_LOOP('',(#125));
#327=EDGE_LOOP('',(#126));
#328=EDGE_LOOP('',(#127));
#329=EDGE_LOOP('',(#128));
#330=EDGE_LOOP('',(#129));
#331=EDGE_LOOP('',(#130));
#332=EDGE_LOOP('',(#131));
#333=EDGE_LOOP('',(#132));
#334=EDGE_LOOP('',(#133));
#335=EDGE_LOOP('',(#134));
#336=EDGE_LOOP('',(#135));
#337=EDGE_LOOP('',(#136));
#338=EDGE_LOOP('',(#137,#138,#139,#140));
#339=EDGE_LOOP('',(#141,#142,#143,#144));
#340=EDGE_LOOP('',(#145,#146,#147,#148));
#341=EDGE_LOOP('',(#149,#150,#151,#152));
#342=EDGE_LOOP('',(#153,#154,#155,#156));
#343=EDGE_LOOP('',(#157,#158,#159,#160));
#344=EDGE_LOOP('',(#161,#162,#163,#164));
#345=EDGE_LOOP('',(#165,#166,#167,#168));
#346=EDGE_LOOP('',(#169,#170,#171,#172));
#347=EDGE_LOOP('',(#173,#174,#175,#176));
#348=EDGE_LOOP('',(#177,#178,#179,#180));
#349=EDGE_LOOP('',(#181,#182,#183,#184));
#350=EDGE_LOOP('',(#185,#186,#187,#188));
#351=EDGE_LOOP('',(#189,#190,#191,#192));
#352=EDGE_LOOP('',(#193,#194,#195,#196));
#353=EDGE_LOOP('',(#197,#198,#199,#200));
#354=EDGE_LOOP('',(#201,#202,#203,#204,#205,#206,#207,#208,#209,#210,#211,
#212,#213,#214,#215,#216));
#355=FACE_BOUND('',#325,.T.);
#356=FACE_BOUND('',#326,.T.);
#357=FACE_BOUND('',#327,.T.);
#358=FACE_BOUND('',#328,.T.);
#359=FACE_BOUND('',#329,.T.);
#360=FACE_BOUND('',#330,.T.);
#361=FACE_BOUND('',#331,.T.);
#362=FACE_BOUND('',#332,.T.);
#363=FACE_BOUND('',#333,.T.);
#364=FACE_BOUND('',#334,.T.);
#365=FACE_BOUND('',#335,.T.);
#366=FACE_BOUND('',#336,.T.);
#367=FACE_BOUND('',#337,.T.);
#368=FACE_BOUND('',#338,.T.);
#369=FACE_BOUND('',#339,.T.);
#370=FACE_BOUND('',#340,.T.);
#371=FACE_BOUND('',#341,.T.);
#372=FACE_BOUND('',#342,.T.);
#373=FACE_BOUND('',#343,.T.);
#374=FACE_BOUND('',#344,.T.);
#375=FACE_BOUND('',#345,.T.);
#376=FACE_BOUND('',#346,.T.);
#377=FACE_BOUND('',#347,.T.);
#378=FACE_BOUND('',#348,.T.);
#379=FACE_BOUND('',#349,.T.);
#380=FACE_BOUND('',#350,.T.);
#381=FACE_BOUND('',#351,.T.);
#382=FACE_BOUND('',#352,.T.);
#383=FACE_BOUND('',#353,.T.);
#384=FACE_BOUND('',#354,.T.);
#385=DEGENERATE_TOROIDAL_SURFACE('',#423,0.299516827303193,3.49999999999999,
 .F.);
#386=ADVANCED_FACE('',(#355,#356),#385,.F.);
#387=ADVANCED_FACE('',(#357,#358),#98,.T.);
#388=ADVANCED_FACE('',(#359,#360),#92,.T.);
#389=ADVANCED_FACE('',(#361,#362),#77,.F.);
#390=ADVANCED_FACE('',(#363,#364),#93,.T.);
#391=ADVANCED_FACE('',(#365,#366),#76,.T.);
#392=ADVANCED_FACE('',(#367),#78,.F.);
#393=ADVANCED_FACE('',(#368),#79,.T.);
#394=ADVANCED_FACE('',(#369),#80,.T.);
#395=ADVANCED_FACE('',(#370),#94,.T.);
#396=ADVANCED_FACE('',(#371),#81,.T.);
#397=ADVANCED_FACE('',(#372),#82,.T.);
#398=ADVANCED_FACE('',(#373),#83,.T.);
#399=ADVANCED_FACE('',(#374),#95,.T.);
#400=ADVANCED_FACE('',(#375),#84,.T.);
#401=ADVANCED_FACE('',(#376),#85,.T.);
#402=ADVANCED_FACE('',(#377),#86,.T.);
#403=ADVANCED_FACE('',(#378),#96,.T.);
#404=ADVANCED_FACE('',(#379),#87,.T.);
#405=ADVANCED_FACE('',(#380),#88,.T.);
#406=ADVANCED_FACE('',(#381),#89,.T.);
#407=ADVANCED_FACE('',(#382),#97,.T.);
#408=ADVANCED_FACE('',(#383),#90,.T.);
#409=ADVANCED_FACE('',(#384),#91,.F.);
#410=CLOSED_SHELL('',(#386,#387,#388,#389,#390,#391,#392,#393,#394,#395,
#396,#397,#398,#399,#400,#401,#402,#403,#404,#405,#406,#407,#408,#409));
#411=STYLED_ITEM('',(#412),#419);
#412=PRESENTATION_STYLE_ASSIGNMENT((#413));
#413=SURFACE_STYLE_USAGE(.BOTH.,#414);
#414=SURFACE_SIDE_STYLE('',(#415));
#415=SURFACE_STYLE_FILL_AREA(#416);
#416=FILL_AREA_STYLE('',(#417));
#417=FILL_AREA_STYLE_COLOUR('',#418);
#418=COLOUR_RGB('',0.689999997615814,0.689999997615814,0.689999997615814);
#419=MANIFOLD_SOLID_BREP('SPA-M2-5-P',#410);
#420=SHAPE_DEFINITION_REPRESENTATION(#726,#421);
#421=SHAPE_REPRESENTATION('SPA-M2-5-P',(#422),#721);
#422=AXIS2_PLACEMENT_3D('',#555,#457,#458);
#423=AXIS2_PLACEMENT_3D('',#556,#459,#460);
#424=AXIS2_PLACEMENT_3D('',#637,#461,#462);
#425=AXIS2_PLACEMENT_3D('',#639,#463,#464);
#426=AXIS2_PLACEMENT_3D('',#640,#465,#466);
#427=AXIS2_PLACEMENT_3D('',#642,#467,#468);
#428=AXIS2_PLACEMENT_3D('',#643,#469,#470);
#429=AXIS2_PLACEMENT_3D('',#645,#471,#472);
#430=AXIS2_PLACEMENT_3D('',#646,#473,#474);
#431=AXIS2_PLACEMENT_3D('',#648,#475,#476);
#432=AXIS2_PLACEMENT_3D('',#649,#477,#478);
#433=AXIS2_PLACEMENT_3D('',#651,#479,#480);
#434=AXIS2_PLACEMENT_3D('',#652,#481,#482);
#435=AXIS2_PLACEMENT_3D('',#654,#483,#484);
#436=AXIS2_PLACEMENT_3D('',#655,#485,#486);
#437=AXIS2_PLACEMENT_3D('',#661,#490,#491);
#438=AXIS2_PLACEMENT_3D('',#665,#494,#495);
#439=AXIS2_PLACEMENT_3D('',#666,#496,#497);
#440=AXIS2_PLACEMENT_3D('',#669,#499,#500);
#441=AXIS2_PLACEMENT_3D('',#673,#503,#504);
#442=AXIS2_PLACEMENT_3D('',#677,#507,#508);
#443=AXIS2_PLACEMENT_3D('',#681,#511,#512);
#444=AXIS2_PLACEMENT_3D('',#682,#513,#514);
#445=AXIS2_PLACEMENT_3D('',#685,#516,#517);
#446=AXIS2_PLACEMENT_3D('',#689,#520,#521);
#447=AXIS2_PLACEMENT_3D('',#693,#524,#525);
#448=AXIS2_PLACEMENT_3D('',#697,#528,#529);
#449=AXIS2_PLACEMENT_3D('',#698,#530,#531);
#450=AXIS2_PLACEMENT_3D('',#701,#533,#534);
#451=AXIS2_PLACEMENT_3D('',#705,#537,#538);
#452=AXIS2_PLACEMENT_3D('',#709,#541,#542);
#453=AXIS2_PLACEMENT_3D('',#713,#545,#546);
#454=AXIS2_PLACEMENT_3D('',#714,#547,#548);
#455=AXIS2_PLACEMENT_3D('',#717,#550,#551);
#456=AXIS2_PLACEMENT_3D('',#719,#553,#554);
#457=DIRECTION('',(0.,0.,1.));
#458=DIRECTION('',(1.,0.,0.));
#459=DIRECTION('',(1.,0.,0.));
#460=DIRECTION('',(0.,0.,-1.));
#461=DIRECTION('',(1.,0.,0.));
#462=DIRECTION('',(0.,0.,-1.));
#463=DIRECTION('',(1.,0.,0.));
#464=DIRECTION('',(0.,0.,-1.));
#465=DIRECTION('',(1.,0.,0.));
#466=DIRECTION('',(0.,0.,-1.));
#467=DIRECTION('',(1.,0.,0.));
#468=DIRECTION('',(0.,0.,-1.));
#469=DIRECTION('',(1.,0.,0.));
#470=DIRECTION('',(0.,0.,-1.));
#471=DIRECTION('',(-1.,0.,0.));
#472=DIRECTION('',(0.,0.,1.));
#473=DIRECTION('',(1.,0.,0.));
#474=DIRECTION('',(0.,0.,-1.));
#475=DIRECTION('',(1.,0.,0.));
#476=DIRECTION('',(0.,0.,-1.));
#477=DIRECTION('',(1.,0.,0.));
#478=DIRECTION('',(0.,0.,-1.));
#479=DIRECTION('',(-1.,0.,0.));
#480=DIRECTION('',(0.,0.,1.));
#481=DIRECTION('',(1.,0.,0.));
#482=DIRECTION('',(0.,0.,-1.));
#483=DIRECTION('',(-1.,0.,0.));
#484=DIRECTION('',(0.,0.,1.));
#485=DIRECTION('',(0.,0.,-1.));
#486=DIRECTION('',(-1.,0.,0.));
#487=DIRECTION('',(-1.,0.,0.));
#488=DIRECTION('',(0.,-1.,0.));
#489=DIRECTION('',(-1.,0.,0.));
#490=DIRECTION('',(0.,1.,-1.11200222819026E-16));
#491=DIRECTION('',(0.,1.11200222819026E-16,1.));
#492=DIRECTION('',(0.,-1.11200222819026E-16,-1.));
#493=DIRECTION('',(-1.,0.,0.));
#494=DIRECTION('',(-1.,0.,0.));
#495=DIRECTION('',(0.,0.,1.));
#496=DIRECTION('',(1.,0.,0.));
#497=DIRECTION('',(0.,0.,-1.));
#498=DIRECTION('',(-1.,0.,0.));
#499=DIRECTION('',(0.,-1.11200222819026E-16,-1.));
#500=DIRECTION('',(0.,1.,-1.11200222819026E-16));
#501=DIRECTION('',(0.,-1.,1.11200222819026E-16));
#502=DIRECTION('',(-1.,0.,0.));
#503=DIRECTION('',(0.,1.,0.));
#504=DIRECTION('',(0.,0.,1.));
#505=DIRECTION('',(0.,0.,-1.));
#506=DIRECTION('',(-1.,0.,0.));
#507=DIRECTION('',(0.,2.22400445638052E-16,1.));
#508=DIRECTION('',(0.,-1.,2.22400445638052E-16));
#509=DIRECTION('',(0.,1.,-2.22400445638052E-16));
#510=DIRECTION('',(-1.,0.,0.));
#511=DIRECTION('',(-1.,0.,0.));
#512=DIRECTION('',(0.,0.,1.));
#513=DIRECTION('',(1.,0.,0.));
#514=DIRECTION('',(0.,0.,-1.));
#515=DIRECTION('',(-1.,0.,0.));
#516=DIRECTION('',(0.,1.,-1.66800334228539E-16));
#517=DIRECTION('',(0.,1.66800334228539E-16,1.));
#518=DIRECTION('',(0.,-1.66800334228539E-16,-1.));
#519=DIRECTION('',(-1.,0.,0.));
#520=DIRECTION('',(0.,0.,1.));
#521=DIRECTION('',(1.,0.,0.));
#522=DIRECTION('',(0.,1.,0.));
#523=DIRECTION('',(-1.,0.,0.));
#524=DIRECTION('',(0.,-1.,-5.5600111409513E-17));
#525=DIRECTION('',(0.,5.5600111409513E-17,-1.));
#526=DIRECTION('',(0.,-5.5600111409513E-17,1.));
#527=DIRECTION('',(-1.,0.,0.));
#528=DIRECTION('',(-1.,0.,0.));
#529=DIRECTION('',(0.,0.,1.));
#530=DIRECTION('',(1.,0.,0.));
#531=DIRECTION('',(0.,0.,-1.));
#532=DIRECTION('',(-1.,0.,0.));
#533=DIRECTION('',(0.,0.,1.));
#534=DIRECTION('',(1.,0.,0.));
#535=DIRECTION('',(0.,1.,0.));
#536=DIRECTION('',(-1.,0.,0.));
#537=DIRECTION('',(0.,-1.,0.));
#538=DIRECTION('',(0.,0.,-1.));
#539=DIRECTION('',(0.,0.,1.));
#540=DIRECTION('',(-1.,0.,0.));
#541=DIRECTION('',(0.,0.,-1.));
#542=DIRECTION('',(-1.,0.,0.));
#543=DIRECTION('',(0.,-1.,0.));
#544=DIRECTION('',(-1.,0.,0.));
#545=DIRECTION('',(-1.,0.,0.));
#546=DIRECTION('',(0.,0.,1.));
#547=DIRECTION('',(1.,0.,0.));
#548=DIRECTION('',(0.,0.,-1.));
#549=DIRECTION('',(-1.,0.,0.));
#550=DIRECTION('',(0.,-1.,5.5600111409513E-17));
#551=DIRECTION('',(0.,-5.5600111409513E-17,-1.));
#552=DIRECTION('',(0.,5.5600111409513E-17,1.));
#553=DIRECTION('',(1.,0.,0.));
#554=DIRECTION('',(0.,0.,-1.));
#555=CARTESIAN_POINT('',(0.,0.,0.));
#556=CARTESIAN_POINT('',(2.18716068889321,0.,0.));
#557=CARTESIAN_POINT('',(-1.20150901056609,0.562500000000001,-0.125));
#558=CARTESIAN_POINT('',(-1.15969324259363,0.728253191208621,-0.125));
#559=CARTESIAN_POINT('',(-1.10490839334035,0.892420770817312,-0.125));
#560=CARTESIAN_POINT('',(-1.03909688267833,1.05000000000001,-0.125));
#561=CARTESIAN_POINT('',(-1.20150901056608,0.5625,-0.125));
#562=CARTESIAN_POINT('',(-1.03909688267831,1.05,-0.125));
#563=CARTESIAN_POINT('',(-1.03909688267831,1.05,-0.125));
#564=CARTESIAN_POINT('',(-1.0432132695986,1.05,-0.0422071967397541));
#565=CARTESIAN_POINT('',(-1.04325960649124,1.05,0.0412752237959581));
#566=CARTESIAN_POINT('',(-1.03909688267831,1.05,0.125));
#567=CARTESIAN_POINT('',(-1.03909688267831,1.05,0.125));
#568=CARTESIAN_POINT('',(-1.03909688267831,1.05,0.125));
#569=CARTESIAN_POINT('',(-1.10517016601521,0.891793981735656,0.125));
#570=CARTESIAN_POINT('',(-1.15977924165216,0.727912300222154,0.125));
#571=CARTESIAN_POINT('',(-1.20150901056608,0.562500000000003,0.125));
#572=CARTESIAN_POINT('',(-1.20150901056607,0.5625,0.125));
#573=CARTESIAN_POINT('',(-1.20150901056608,0.125,0.5625));
#574=CARTESIAN_POINT('',(-1.25873441509275,0.125,0.335664672600393));
#575=CARTESIAN_POINT('',(-1.25875198665993,0.335595020815057,0.124999999986768));
#576=CARTESIAN_POINT('',(-1.2015090105691,0.562499999998836,0.124999999986164));
#577=CARTESIAN_POINT('',(-1.20150901056608,0.125,0.5625));
#578=CARTESIAN_POINT('',(-1.20150901056609,0.125,0.562500000000001));
#579=CARTESIAN_POINT('',(-1.15969324259362,0.125,0.728253191208646));
#580=CARTESIAN_POINT('',(-1.10490839334033,0.125,0.89242077081736));
#581=CARTESIAN_POINT('',(-1.0390968826783,0.125,1.05000000000008));
#582=CARTESIAN_POINT('',(-1.03909688267828,0.125,1.05000000000007));
#583=CARTESIAN_POINT('',(-1.03909688267831,0.125000000000004,1.05));
#584=CARTESIAN_POINT('',(-1.0432132695986,0.0422071967397569,1.05));
#585=CARTESIAN_POINT('',(-1.04325960649124,-0.0412752237959563,1.05));
#586=CARTESIAN_POINT('',(-1.03909688267831,-0.125,1.05));
#587=CARTESIAN_POINT('',(-1.03909688267831,-0.125,1.05));
#588=CARTESIAN_POINT('',(-1.03909688267831,-0.125,1.05));
#589=CARTESIAN_POINT('',(-1.10517016601521,-0.125,0.891793981735656));
#590=CARTESIAN_POINT('',(-1.15977924165216,-0.125,0.727912300222154));
#591=CARTESIAN_POINT('',(-1.20150901056608,-0.125,0.562500000000003));
#592=CARTESIAN_POINT('',(-1.20150901056607,-0.125,0.5625));
#593=CARTESIAN_POINT('',(-1.20150901056608,-0.5625,0.125));
#594=CARTESIAN_POINT('',(-1.25873441509275,-0.335664672600393,0.125));
#595=CARTESIAN_POINT('',(-1.25875198665993,-0.124999999986768,0.335595020815057));
#596=CARTESIAN_POINT('',(-1.2015090105691,-0.124999999986164,0.562499999998836));
#597=CARTESIAN_POINT('',(-1.20150901056608,-0.5625,0.125));
#598=CARTESIAN_POINT('',(-1.20150901056609,-0.562500000000001,0.125));
#599=CARTESIAN_POINT('',(-1.15969324259363,-0.728253191208621,0.125));
#600=CARTESIAN_POINT('',(-1.10490839334035,-0.892420770817311,0.125));
#601=CARTESIAN_POINT('',(-1.03909688267833,-1.05000000000001,0.125));
#602=CARTESIAN_POINT('',(-1.03909688267831,-1.05,0.125));
#603=CARTESIAN_POINT('',(-1.03909688267831,-1.05,0.125));
#604=CARTESIAN_POINT('',(-1.0432132695986,-1.05,0.0422071967397542));
#605=CARTESIAN_POINT('',(-1.04325960649124,-1.05,-0.0412752237959579));
#606=CARTESIAN_POINT('',(-1.03909688267831,-1.05,-0.125));
#607=CARTESIAN_POINT('',(-1.03909688267831,-1.05,-0.125));
#608=CARTESIAN_POINT('',(-1.03909688267831,-1.05,-0.125));
#609=CARTESIAN_POINT('',(-1.10517016601521,-0.891793981735656,-0.125));
#610=CARTESIAN_POINT('',(-1.15977924165216,-0.727912300222153,-0.125));
#611=CARTESIAN_POINT('',(-1.20150901056608,-0.562500000000002,-0.125));
#612=CARTESIAN_POINT('',(-1.20150901056607,-0.5625,-0.125));
#613=CARTESIAN_POINT('',(-1.20150901056608,-0.125,-0.5625));
#614=CARTESIAN_POINT('',(-1.25873441509275,-0.125,-0.335664672600393));
#615=CARTESIAN_POINT('',(-1.25875198665993,-0.335595020815057,-0.124999999986768));
#616=CARTESIAN_POINT('',(-1.2015090105691,-0.562499999998836,-0.124999999986164));
#617=CARTESIAN_POINT('',(-1.20150901056608,-0.125,-0.5625));
#618=CARTESIAN_POINT('',(-1.20150901056609,-0.125,-0.562500000000001));
#619=CARTESIAN_POINT('',(-1.15969324259363,-0.125,-0.728253191208621));
#620=CARTESIAN_POINT('',(-1.10490839334035,-0.125,-0.892420770817311));
#621=CARTESIAN_POINT('',(-1.03909688267833,-0.125,-1.05000000000001));
#622=CARTESIAN_POINT('',(-1.03909688267831,-0.125,-1.05));
#623=CARTESIAN_POINT('',(-1.03909688267831,-0.125,-1.05));
#624=CARTESIAN_POINT('',(-1.0432132695986,-0.0422071967397542,-1.05));
#625=CARTESIAN_POINT('',(-1.04325960649124,0.0412752237959582,-1.05));
#626=CARTESIAN_POINT('',(-1.03909688267831,0.125,-1.05));
#627=CARTESIAN_POINT('',(-1.03909688267831,0.125,-1.05));
#628=CARTESIAN_POINT('',(-1.03909688267831,0.125,-1.05));
#629=CARTESIAN_POINT('',(-1.10517016601521,0.125,-0.891793981735656));
#630=CARTESIAN_POINT('',(-1.15977924165216,0.125,-0.727912300222154));
#631=CARTESIAN_POINT('',(-1.20150901056608,0.125,-0.562500000000003));
#632=CARTESIAN_POINT('',(-1.20150901056607,0.125,-0.5625));
#633=CARTESIAN_POINT('',(-1.20150901056608,0.5625,-0.125));
#634=CARTESIAN_POINT('',(-1.25873441509275,0.335664672600393,-0.125));
#635=CARTESIAN_POINT('',(-1.25875198665993,0.124999999986768,-0.335595020815057));
#636=CARTESIAN_POINT('',(-1.2015090105691,0.124999999986164,-0.562499999998836));
#637=CARTESIAN_POINT('',(-0.695803520258518,0.,0.));
#638=CARTESIAN_POINT('',(-0.695803520258518,0.,-1.68505299226731));
#639=CARTESIAN_POINT('',(-0.572247911294872,0.,0.));
#640=CARTESIAN_POINT('',(-0.572247911294873,0.,0.));
#641=CARTESIAN_POINT('',(-0.572247911294873,0.,-1.75));
#642=CARTESIAN_POINT('',(5.,0.,0.));
#643=CARTESIAN_POINT('',(0.,0.,0.));
#644=CARTESIAN_POINT('',(0.,0.,-1.75));
#645=CARTESIAN_POINT('',(0.,1.75,0.));
#646=CARTESIAN_POINT('',(0.,0.,0.));
#647=CARTESIAN_POINT('',(0.,0.,-1.));
#648=CARTESIAN_POINT('',(5.,0.,0.));
#649=CARTESIAN_POINT('',(4.7545,0.,0.));
#650=CARTESIAN_POINT('',(4.7545,0.,-1.));
#651=CARTESIAN_POINT('',(4.7545,0.,0.));
#652=CARTESIAN_POINT('',(5.,0.,0.));
#653=CARTESIAN_POINT('',(5.,0.,-0.7545));
#654=CARTESIAN_POINT('',(5.,0.7545,0.));
#655=CARTESIAN_POINT('',(-0.65,0.125,1.05));
#656=CARTESIAN_POINT('',(-0.65,0.125,1.05));
#657=CARTESIAN_POINT('',(-0.65,0.125,1.05));
#658=CARTESIAN_POINT('',(-0.65,0.125,1.05));
#659=CARTESIAN_POINT('',(-0.65,-0.125,1.05));
#660=CARTESIAN_POINT('',(-0.65,-0.125,1.05));
#661=CARTESIAN_POINT('',(-0.65,-0.125,1.05));
#662=CARTESIAN_POINT('',(-0.65,-0.125,1.05));
#663=CARTESIAN_POINT('',(-0.65,-0.125,0.5625));
#664=CARTESIAN_POINT('',(-0.65,-0.125,0.5625));
#665=CARTESIAN_POINT('',(-0.65,-0.5625,0.5625));
#666=CARTESIAN_POINT('',(-0.65,-0.5625,0.5625));
#667=CARTESIAN_POINT('',(-0.65,-0.5625,0.125));
#668=CARTESIAN_POINT('',(-0.65,-0.5625,0.125));
#669=CARTESIAN_POINT('',(-0.65,-0.5625,0.125));
#670=CARTESIAN_POINT('',(-0.65,-0.5625,0.125));
#671=CARTESIAN_POINT('',(-0.65,-1.05,0.125));
#672=CARTESIAN_POINT('',(-0.65,-1.05,0.125));
#673=CARTESIAN_POINT('',(-0.65,-1.05,0.125));
#674=CARTESIAN_POINT('',(-0.65,-1.05,0.125));
#675=CARTESIAN_POINT('',(-0.65,-1.05,-0.125));
#676=CARTESIAN_POINT('',(-0.65,-1.05,-0.125));
#677=CARTESIAN_POINT('',(-0.65,-1.05,-0.125));
#678=CARTESIAN_POINT('',(-0.65,-1.05,-0.125));
#679=CARTESIAN_POINT('',(-0.65,-0.5625,-0.125));
#680=CARTESIAN_POINT('',(-0.65,-0.5625,-0.125));
#681=CARTESIAN_POINT('',(-0.65,-0.5625,-0.5625));
#682=CARTESIAN_POINT('',(-0.65,-0.5625,-0.5625));
#683=CARTESIAN_POINT('',(-0.65,-0.125,-0.5625));
#684=CARTESIAN_POINT('',(-0.65,-0.125,-0.5625));
#685=CARTESIAN_POINT('',(-0.65,-0.125,-0.5625));
#686=CARTESIAN_POINT('',(-0.65,-0.125,-0.5625));
#687=CARTESIAN_POINT('',(-0.65,-0.125,-1.05));
#688=CARTESIAN_POINT('',(-0.65,-0.125,-1.05));
#689=CARTESIAN_POINT('',(-0.65,-0.125,-1.05));
#690=CARTESIAN_POINT('',(-0.65,-0.125,-1.05));
#691=CARTESIAN_POINT('',(-0.65,0.125,-1.05));
#692=CARTESIAN_POINT('',(-0.65,0.125,-1.05));
#693=CARTESIAN_POINT('',(-0.65,0.125,-1.05));
#694=CARTESIAN_POINT('',(-0.65,0.125,-1.05));
#695=CARTESIAN_POINT('',(-0.65,0.125,-0.5625));
#696=CARTESIAN_POINT('',(-0.65,0.125,-0.5625));
#697=CARTESIAN_POINT('',(-0.65,0.5625,-0.5625));
#698=CARTESIAN_POINT('',(-0.65,0.5625,-0.5625));
#699=CARTESIAN_POINT('',(-0.65,0.5625,-0.125));
#700=CARTESIAN_POINT('',(-0.65,0.5625,-0.125));
#701=CARTESIAN_POINT('',(-0.65,0.5625,-0.125));
#702=CARTESIAN_POINT('',(-0.65,0.5625,-0.125));
#703=CARTESIAN_POINT('',(-0.65,1.05,-0.125));
#704=CARTESIAN_POINT('',(-0.65,1.05,-0.125));
#705=CARTESIAN_POINT('',(-0.65,1.05,-0.125));
#706=CARTESIAN_POINT('',(-0.65,1.05,-0.125));
#707=CARTESIAN_POINT('',(-0.65,1.05,0.125));
#708=CARTESIAN_POINT('',(-0.65,1.05,0.125));
#709=CARTESIAN_POINT('',(-0.65,1.05,0.125));
#710=CARTESIAN_POINT('',(-0.65,1.05,0.125));
#711=CARTESIAN_POINT('',(-0.65,0.5625,0.125));
#712=CARTESIAN_POINT('',(-0.65,0.5625,0.125));
#713=CARTESIAN_POINT('',(-0.65,0.5625,0.5625));
#714=CARTESIAN_POINT('',(-0.65,0.5625,0.5625));
#715=CARTESIAN_POINT('',(-0.65,0.125,0.5625));
#716=CARTESIAN_POINT('',(-0.65,0.125,0.5625));
#717=CARTESIAN_POINT('',(-0.65,0.125,0.5625));
#718=CARTESIAN_POINT('',(-0.65,0.125,0.5625));
#719=CARTESIAN_POINT('',(-0.65,-0.5625,0.5625));
#720=MECHANICAL_DESIGN_GEOMETRIC_PRESENTATION_REPRESENTATION('',(#411),
#721);
#721=(
GEOMETRIC_REPRESENTATION_CONTEXT(3)
GLOBAL_UNCERTAINTY_ASSIGNED_CONTEXT((#722))
GLOBAL_UNIT_ASSIGNED_CONTEXT((#725,#724,#723))
REPRESENTATION_CONTEXT('SPA-M2-5-P','TOP_LEVEL_ASSEMBLY_PART')
);
#722=UNCERTAINTY_MEASURE_WITH_UNIT(LENGTH_MEASURE(0.005),#725,
'DISTANCE_ACCURACY_VALUE','Maximum Tolerance applied to model');
#723=(
NAMED_UNIT(*)
SI_UNIT($,.STERADIAN.)
SOLID_ANGLE_UNIT()
);
#724=(
NAMED_UNIT(*)
PLANE_ANGLE_UNIT()
SI_UNIT($,.RADIAN.)
);
#725=(
LENGTH_UNIT()
NAMED_UNIT(*)
SI_UNIT(.MILLI.,.METRE.)
);
#726=PRODUCT_DEFINITION_SHAPE('','',#727);
#727=PRODUCT_DEFINITION('','',#729,#728);
#728=PRODUCT_DEFINITION_CONTEXT('',#735,'design');
#729=PRODUCT_DEFINITION_FORMATION_WITH_SPECIFIED_SOURCE('','',#731,
 .NOT_KNOWN.);
#730=PRODUCT_RELATED_PRODUCT_CATEGORY('','',(#731));
#731=PRODUCT('SPA-M2-5-P','SPA-M2-5-P','SPA-M2-5-P',(#733));
#732=PRODUCT_CATEGORY('','');
#733=PRODUCT_CONTEXT('',#735,'mechanical');
#734=APPLICATION_PROTOCOL_DEFINITION('international standard',
'automotive_design',2010,#735);
#735=APPLICATION_CONTEXT(
'core data for automotive mechanical design processes');
ENDSEC;
END-ISO-10303-21;
