ISO-10303-21;
HEADER;
FILE_DESCRIPTION (( 'STEP AP214' ),
    '1' );
FILE_NAME ('M2 x 3 Screw head.STEP',
    '2023-03-23T04:10:29',
    ( '' ),
    ( '' ),
    'SwSTEP 2.0',
    'SolidWorks 2022',
    '' );
FILE_SCHEMA (( 'AUTOMOTIVE_DESIGN' ));
ENDSEC;

DATA;
#1 = AXIS2_PLACEMENT_3D ( 'NONE', #174, #968, #495 ) ;
#2 = CARTESIAN_POINT ( 'NONE',  ( 3.200000000000000178, -8.817456953860942303E-16, 0.000000000000000000 ) ) ;
#3 =( GEOMETRIC_REPRESENTATION_CONTEXT ( 3 ) GLOBAL_UNCERTAINTY_ASSIGNED_CONTEXT ( ( #564 ) ) GLOBAL_UNIT_ASSIGNED_CONTEXT ( ( #822, #636, #493 ) ) REPRESENTATION_CONTEXT ( 'NONE', 'WORKASPACE' ) );
#4 = APPLICATION_CONTEXT ( 'automotive_design' ) ;
#5 = CARTESIAN_POINT ( 'NONE',  ( 1.600000000000000755, 1.224646799147353207E-16, -1.000000000000000000 ) ) ;
#6 =( NAMED_UNIT ( * ) PLANE_ANGLE_UNIT ( ) SI_UNIT ( $, .RADIAN. ) );
#7 = PLANE ( 'NONE',  #507 ) ;
#8 = VERTEX_POINT ( 'NONE', #181 ) ;
#9 = ADVANCED_FACE ( 'NONE', ( #421 ), #357, .T. ) ;
#10 = DIRECTION ( 'NONE',  ( 0.8331258114970213624, 0.5530835219181906570, 0.000000000000000000 ) ) ;
#11 = FACE_BOUND ( 'NONE', #50, .T. ) ;
#12 = ORIENTED_EDGE ( 'NONE', *, *, #927, .T. ) ;
#13 = EDGE_CURVE ( 'NONE', #970, #14, #666, .T. ) ;
#14 = VERTEX_POINT ( 'NONE', #992 ) ;
#15 =( NAMED_UNIT ( * ) PLANE_ANGLE_UNIT ( ) SI_UNIT ( $, .RADIAN. ) );
#16 =( GEOMETRIC_REPRESENTATION_CONTEXT ( 3 ) GLOBAL_UNCERTAINTY_ASSIGNED_CONTEXT ( ( #818 ) ) GLOBAL_UNIT_ASSIGNED_CONTEXT ( ( #156, #248, #431 ) ) REPRESENTATION_CONTEXT ( 'NONE', 'WORKASPACE' ) );
#17 = CIRCLE ( 'NONE', #508, 1.902702702702703030 ) ;
#18 = DIRECTION ( 'NONE',  ( -0.1003315022614175156, 1.659736686760751475E-16, -0.9949540640923917323 ) ) ;
#19 = MECHANICAL_DESIGN_GEOMETRIC_PRESENTATION_REPRESENTATION (  '', ( #458 ), #222 ) ;
#20 = ORIENTED_EDGE ( 'NONE', *, *, #555, .T. ) ;
#21 = VECTOR ( 'NONE', #227, 999.9999999999998863 ) ;
#22 = DIRECTION ( 'NONE',  ( -0.000000000000000000, 1.000000000000000000, 1.224646799147353207E-16 ) ) ;
#23 = SURFACE_STYLE_FILL_AREA ( #408 ) ;
#24 = ADVANCED_FACE ( 'NONE', ( #274 ), #285, .T. ) ;
#25 = ORIENTED_EDGE ( 'NONE', *, *, #142, .F. ) ;
#26 = DIRECTION ( 'NONE',  ( -0.9949540640923917323, 0.000000000000000000, 0.1003315022614175156 ) ) ;
#27 = PRODUCT ( 'M2 x 3 Screw head', 'M2 x 3 Screw head', '', ( #369 ) ) ;
#28 = CARTESIAN_POINT ( 'NONE',  ( 1.380817672985121813, -0.1007578817157856743, -0.1007578817157860490 ) ) ;
#29 = DIRECTION ( 'NONE',  ( 0.9949540640923917323, 0.000000000000000000, 0.1003315022614176544 ) ) ;
#30 = EDGE_LOOP ( 'NONE', ( #486, #262, #773, #713 ) ) ;
#31 = DIRECTION ( 'NONE',  ( -0.9899837497469134995, 0.09983029409212539063, 0.09983029409212561267 ) ) ;
#32 = DIRECTION ( 'NONE',  ( 0.000000000000000000, 0.000000000000000000, 1.000000000000000000 ) ) ;
#33 = PRESENTATION_STYLE_ASSIGNMENT (( #670 ) ) ;
#34 = CIRCLE ( 'NONE', #971, 3.198942222936095536 ) ;
#35 = CARTESIAN_POINT ( 'NONE',  ( 2.640432800705813321, -4.015077347276200792E-15, 0.8428923634937753873 ) ) ;
#36 = VECTOR ( 'NONE', #98, 999.9999999999998863 ) ;
#37 = CIRCLE ( 'NONE', #613, 3.035855235850012601 ) ;
#38 = STYLED_ITEM ( 'NONE', ( #947 ), #1004 ) ;
#39 =( LENGTH_UNIT ( ) NAMED_UNIT ( * ) SI_UNIT ( .MILLI., .METRE. ) );
#40 = ORIENTED_EDGE ( 'NONE', *, *, #179, .F. ) ;
#41 = ORIENTED_EDGE ( 'NONE', *, *, #212, .T. ) ;
#42 = CARTESIAN_POINT ( 'NONE',  ( 0.000000000000000000, -0.9100000000000002531, -0.2399999999999999634 ) ) ;
#43 = ADVANCED_FACE ( 'NONE', ( #109 ), #426, .T. ) ;
#44 = FACE_OUTER_BOUND ( 'NONE', #187, .T. ) ;
#45 = DIRECTION ( 'NONE',  ( -0.8331258114970213624, -1.931080795598999902E-15, 0.5530835219181906570 ) ) ;
#46 =( NAMED_UNIT ( * ) PLANE_ANGLE_UNIT ( ) SI_UNIT ( $, .RADIAN. ) );
#47 = SURFACE_STYLE_FILL_AREA ( #741 ) ;
#48 = PLANE ( 'NONE',  #237 ) ;
#49 = VECTOR ( 'NONE', #511, 1000.000000000000114 ) ;
#50 = EDGE_LOOP ( 'NONE', ( #477, #112 ) ) ;
#51 = CARTESIAN_POINT ( 'NONE',  ( 1.370759493670886231, -1.084202172485504434E-16, 0.1017721518987341478 ) ) ;
#52 = PRESENTATION_LAYER_ASSIGNMENT (  '', '', ( #696 ) ) ;
#53 = EDGE_CURVE ( 'NONE', #196, #314, #356, .T. ) ;
#54 =( LENGTH_UNIT ( ) NAMED_UNIT ( * ) SI_UNIT ( .MILLI., .METRE. ) );
#55 = ORIENTED_EDGE ( 'NONE', *, *, #956, .T. ) ;
#56 = DIRECTION ( 'NONE',  ( 0.000000000000000000, 0.000000000000000000, -1.000000000000000000 ) ) ;
#57 =( NAMED_UNIT ( * ) SI_UNIT ( $, .STERADIAN. ) SOLID_ANGLE_UNIT ( ) );
#58 = PRESENTATION_STYLE_ASSIGNMENT (( #721 ) ) ;
#59 = DIRECTION ( 'NONE',  ( 0.8331258114970213624, 0.5530835219181907680, 0.000000000000000000 ) ) ;
#60 = ORIENTED_EDGE ( 'NONE', *, *, #532, .T. ) ;
#61 = DIRECTION ( 'NONE',  ( -1.000000000000000000, -0.000000000000000000, -0.000000000000000000 ) ) ;
#62 = FACE_OUTER_BOUND ( 'NONE', #138, .T. ) ;
#63 = CARTESIAN_POINT ( 'NONE',  ( 1.370759493670886009, 0.1017721518987341756, 3.553355691683391312E-16 ) ) ;
#64 = MECHANICAL_DESIGN_GEOMETRIC_PRESENTATION_REPRESENTATION (  '', ( #273 ), #232 ) ;
#65 = CIRCLE ( 'NONE', #1013, 3.035855235850012601 ) ;
#66 = VECTOR ( 'NONE', #776, 1000.000000000000000 ) ;
#67 = PRESENTATION_STYLE_ASSIGNMENT (( #932 ) ) ;
#68 =( NAMED_UNIT ( * ) SI_UNIT ( $, .STERADIAN. ) SOLID_ANGLE_UNIT ( ) );
#69 = EDGE_CURVE ( 'NONE', #437, #808, #939, .T. ) ;
#70 = CARTESIAN_POINT ( 'NONE',  ( -25.39999999999996305, 2.449293598294706414E-16, -2.000000000000000000 ) ) ;
#71 = CARTESIAN_POINT ( 'NONE',  ( 3.191745543516252948, -8.792629757930814787E-16, 0.08185669346382384859 ) ) ;
#72 = PRESENTATION_STYLE_ASSIGNMENT (( #228 ) ) ;
#73 = DIRECTION ( 'NONE',  ( -1.000000000000000000, 0.000000000000000000, -0.000000000000000000 ) ) ;
#74 = CARTESIAN_POINT ( 'NONE',  ( 0.000000000000000000, -0.2399999999999965217, -0.9100000000000011413 ) ) ;
#75 =( NAMED_UNIT ( * ) SI_UNIT ( $, .STERADIAN. ) SOLID_ANGLE_UNIT ( ) );
#76 =( GEOMETRIC_REPRESENTATION_CONTEXT ( 3 ) GLOBAL_UNCERTAINTY_ASSIGNED_CONTEXT ( ( #268 ) ) GLOBAL_UNIT_ASSIGNED_CONTEXT ( ( #294, #436, #57 ) ) REPRESENTATION_CONTEXT ( 'NONE', 'WORKASPACE' ) );
#77 = DIRECTION ( 'NONE',  ( -0.1003315022614175156, 1.659736686760751475E-16, -0.9949540640923917323 ) ) ;
#78 = AXIS2_PLACEMENT_3D ( 'NONE', #949, #470, #225 ) ;
#79 = ADVANCED_FACE ( 'NONE', ( #161, #11 ), #7, .F. ) ;
#80 =( GEOMETRIC_REPRESENTATION_CONTEXT ( 3 ) GLOBAL_UNCERTAINTY_ASSIGNED_CONTEXT ( ( #418 ) ) GLOBAL_UNIT_ASSIGNED_CONTEXT ( ( #323, #94, #810 ) ) REPRESENTATION_CONTEXT ( 'NONE', 'WORKASPACE' ) );
#81 = ORIENTED_EDGE ( 'NONE', *, *, #783, .T. ) ;
#82 = DIRECTION ( 'NONE',  ( -1.000000000000000000, -0.000000000000000000, -0.000000000000000000 ) ) ;
#83 = MECHANICAL_DESIGN_GEOMETRIC_PRESENTATION_REPRESENTATION (  '', ( #322 ), #795 ) ;
#84 = ORIENTED_EDGE ( 'NONE', *, *, #195, .T. ) ;
#85 = CARTESIAN_POINT ( 'NONE',  ( 1.189999999999999947, 0.1199999999999999956, 0.1200000000000000094 ) ) ;
#86 = SURFACE_SIDE_STYLE ('',( #801 ) ) ;
#87 = ORIENTED_EDGE ( 'NONE', *, *, #936, .T. ) ;
#88 = PLANE ( 'NONE',  #530 ) ;
#89 = VERTEX_POINT ( 'NONE', #629 ) ;
#90 = SURFACE_SIDE_STYLE ('',( #831 ) ) ;
#91 = ADVANCED_FACE ( 'NONE', ( #946 ), #226, .T. ) ;
#92 = CIRCLE ( 'NONE', #676, 0.2399999999999999911 ) ;
#93 = VERTEX_POINT ( 'NONE', #103 ) ;
#94 =( NAMED_UNIT ( * ) PLANE_ANGLE_UNIT ( ) SI_UNIT ( $, .RADIAN. ) );
#95 = CIRCLE ( 'NONE', #472, 1.902702702702703030 ) ;
#96 = UNCERTAINTY_MEASURE_WITH_UNIT (LENGTH_MEASURE( 1.000000000000000082E-05 ), #552, 'distance_accuracy_value', 'NONE');
#97 =( GEOMETRIC_REPRESENTATION_CONTEXT ( 3 ) GLOBAL_UNCERTAINTY_ASSIGNED_CONTEXT ( ( #651 ) ) GLOBAL_UNIT_ASSIGNED_CONTEXT ( ( #951, #712, #717 ) ) REPRESENTATION_CONTEXT ( 'NONE', 'WORKASPACE' ) );
#98 = DIRECTION ( 'NONE',  ( 0.8302011287295820718, 0.5511419257952691053, -0.08371776088029378449 ) ) ;
#99 = EDGE_CURVE ( 'NONE', #661, #599, #34, .T. ) ;
#100 = ORIENTED_EDGE ( 'NONE', *, *, #326, .T. ) ;
#101 = ORIENTED_EDGE ( 'NONE', *, *, #820, .F. ) ;
#102 = CARTESIAN_POINT ( 'NONE',  ( 2.640432800705813765, -0.8428923634937754983, 0.000000000000000000 ) ) ;
#103 = CARTESIAN_POINT ( 'NONE',  ( 0.1183307166263561638, -0.2280674907603703339, 0.8314443141724181530 ) ) ;
#104 = ORIENTED_EDGE ( 'NONE', *, *, #475, .T. ) ;
#105 = VERTEX_POINT ( 'NONE', #331 ) ;
#106 = UNCERTAINTY_MEASURE_WITH_UNIT (LENGTH_MEASURE( 1.000000000000000082E-05 ), #139, 'distance_accuracy_value', 'NONE');
#107 = PRESENTATION_STYLE_ASSIGNMENT (( #824 ) ) ;
#108 = EDGE_CURVE ( 'NONE', #120, #89, #413, .T. ) ;
#109 = FACE_OUTER_BOUND ( 'NONE', #30, .T. ) ;
#110 = COLOUR_RGB ( '',0.7764705882352941346, 0.7568627450980391913, 0.7372549019607843590 ) ;
#111 = SURFACE_SIDE_STYLE ('',( #133 ) ) ;
#112 = ORIENTED_EDGE ( 'NONE', *, *, #725, .T. ) ;
#113 = PRESENTATION_LAYER_ASSIGNMENT (  '', '', ( #1014 ) ) ;
#114 = MECHANICAL_DESIGN_GEOMETRIC_PRESENTATION_REPRESENTATION (  '', ( #1015 ), #980 ) ;
#115 = CARTESIAN_POINT ( 'NONE',  ( 3.191745543516253392, -0.08185669346382384859, -2.833183980953279627E-16 ) ) ;
#116 = ORIENTED_EDGE ( 'NONE', *, *, #318, .F. ) ;
#117 = EDGE_LOOP ( 'NONE', ( #104, #81, #87 ) ) ;
#118 = DIRECTION ( 'NONE',  ( 0.5530835219181906570, -2.908843223750392223E-15, 0.8331258114970213624 ) ) ;
#119 = SURFACE_SIDE_STYLE ('',( #667 ) ) ;
#120 = VERTEX_POINT ( 'NONE', #907 ) ;
#121 = SURFACE_STYLE_FILL_AREA ( #444 ) ;
#122 = ADVANCED_FACE ( 'NONE', ( #44 ), #655, .T. ) ;
#123 = FILL_AREA_STYLE_COLOUR ( '', #979 ) ;
#124 =( NAMED_UNIT ( * ) SI_UNIT ( $, .STERADIAN. ) SOLID_ANGLE_UNIT ( ) );
#125 = SURFACE_SIDE_STYLE ('',( #261 ) ) ;
#126 = ORIENTED_EDGE ( 'NONE', *, *, #524, .T. ) ;
#127 = CIRCLE ( 'NONE', #220, 3.198942222936095536 ) ;
#128 = VECTOR ( 'NONE', #887, 1000.000000000000114 ) ;
#129 = COLOUR_RGB ( '',0.7764705882352941346, 0.7568627450980391913, 0.7372549019607843590 ) ;
#130 = CIRCLE ( 'NONE', #257, 3.198942222936095980 ) ;
#131 = SHAPE_DEFINITION_REPRESENTATION ( #178, #625 ) ;
#132 = AXIS2_PLACEMENT_3D ( 'NONE', #690, #621, #861 ) ;
#133 = SURFACE_STYLE_FILL_AREA ( #286 ) ;
#134 = ORIENTED_EDGE ( 'NONE', *, *, #894, .T. ) ;
#135 = LINE ( 'NONE', #42, #235 ) ;
#136 = FILL_AREA_STYLE ('',( #521 ) ) ;
#137 = CARTESIAN_POINT ( 'NONE',  ( 1.370759493670886009, 0.1017721518987341756, 3.553355691683391312E-16 ) ) ;
#138 = EDGE_LOOP ( 'NONE', ( #608, #100, #372, #12, #171, #1009, #497, #281, #634, #512, #806 ) ) ;
#139 =( LENGTH_UNIT ( ) NAMED_UNIT ( * ) SI_UNIT ( .MILLI., .METRE. ) );
#140 = CARTESIAN_POINT ( 'NONE',  ( 1.189999999999999947, -0.1199999999999999817, -0.1199999999999999956 ) ) ;
#141 = SURFACE_STYLE_FILL_AREA ( #539 ) ;
#142 = EDGE_CURVE ( 'NONE', #437, #314, #1025, .T. ) ;
#143 = ORIENTED_EDGE ( 'NONE', *, *, #991, .T. ) ;
#144 =( NAMED_UNIT ( * ) SI_UNIT ( $, .STERADIAN. ) SOLID_ANGLE_UNIT ( ) );
#145 = MECHANICAL_DESIGN_GEOMETRIC_PRESENTATION_REPRESENTATION (  '', ( #780 ), #301 ) ;
#146 = AXIS2_PLACEMENT_3D ( 'NONE', #825, #422, #664 ) ;
#147 = CIRCLE ( 'NONE', #915, 3.035855235850013045 ) ;
#148 =( NAMED_UNIT ( * ) SI_UNIT ( $, .STERADIAN. ) SOLID_ANGLE_UNIT ( ) );
#149 = PRESENTATION_STYLE_ASSIGNMENT (( #154 ) ) ;
#150 = CARTESIAN_POINT ( 'NONE',  ( -25.39999999999996305, 0.000000000000000000, 1.000000000000000000 ) ) ;
#151 = EDGE_CURVE ( 'NONE', #845, #346, #722, .T. ) ;
#152 = FILL_AREA_STYLE ('',( #872 ) ) ;
#153 = FACE_OUTER_BOUND ( 'NONE', #769, .T. ) ;
#154 = SURFACE_STYLE_USAGE ( .BOTH. , #315 ) ;
#155 = AXIS2_PLACEMENT_3D ( 'NONE', #398, #473, #448 ) ;
#156 =( LENGTH_UNIT ( ) NAMED_UNIT ( * ) SI_UNIT ( .MILLI., .METRE. ) );
#157 = VECTOR ( 'NONE', #330, 1000.000000000000227 ) ;
#158 = AXIS2_PLACEMENT_3D ( 'NONE', #799, #719, #563 ) ;
#159 = COLOUR_RGB ( '',0.7764705882352941346, 0.7568627450980391913, 0.7372549019607843590 ) ;
#160 = FILL_AREA_STYLE ('',( #644 ) ) ;
#161 = FACE_OUTER_BOUND ( 'NONE', #417, .T. ) ;
#162 = FACE_OUTER_BOUND ( 'NONE', #987, .T. ) ;
#163 = ORIENTED_EDGE ( 'NONE', *, *, #99, .F. ) ;
#164 = DIRECTION ( 'NONE',  ( 0.8302011287295821829, -0.08371776088029590779, 0.5511419257952686612 ) ) ;
#165 = ORIENTED_EDGE ( 'NONE', *, *, #509, .T. ) ;
#166 = CARTESIAN_POINT ( 'NONE',  ( 1.380817672985122035, 0.1007578817157863821, -0.1007578817157860351 ) ) ;
#167 = DIRECTION ( 'NONE',  ( -1.000000000000000000, -0.000000000000000000, -0.000000000000000000 ) ) ;
#168 = SURFACE_STYLE_FILL_AREA ( #243 ) ;
#169 = AXIS2_PLACEMENT_3D ( 'NONE', #343, #504, #985 ) ;
#170 = LINE ( 'NONE', #411, #510 ) ;
#171 = ORIENTED_EDGE ( 'NONE', *, *, #566, .T. ) ;
#172 = UNCERTAINTY_MEASURE_WITH_UNIT (LENGTH_MEASURE( 1.000000000000000082E-05 ), #681, 'distance_accuracy_value', 'NONE');
#173 =( GEOMETRIC_REPRESENTATION_CONTEXT ( 3 ) GLOBAL_UNCERTAINTY_ASSIGNED_CONTEXT ( ( #440 ) ) GLOBAL_UNIT_ASSIGNED_CONTEXT ( ( #761, #194, #427 ) ) REPRESENTATION_CONTEXT ( 'NONE', 'WORKASPACE' ) );
#174 = CARTESIAN_POINT ( 'NONE',  ( 1.600000000000000755, 0.000000000000000000, 0.000000000000000000 ) ) ;
#175 = DIRECTION ( 'NONE',  ( 0.9949540640923917323, 0.000000000000000000, 0.1003315022614176544 ) ) ;
#176 = ORIENTED_EDGE ( 'NONE', *, *, #663, .T. ) ;
#177 = CARTESIAN_POINT ( 'NONE',  ( 0.01778144479759472332, -0.2382069131296549735, 0.2382069131296540854 ) ) ;
#178 = PRODUCT_DEFINITION_SHAPE ( 'NONE', 'NONE',  #903 ) ;
#179 = EDGE_CURVE ( 'NONE', #905, #238, #127, .T. ) ;
#180 = DIRECTION ( 'NONE',  ( -1.000000000000000000, -0.000000000000000000, -0.000000000000000000 ) ) ;
#181 = CARTESIAN_POINT ( 'NONE',  ( 0.8200840350970385328, 0.000000000000000000, 2.000000000000000000 ) ) ;
#182 = CYLINDRICAL_SURFACE ( 'NONE', #381, 2.000000000000000000 ) ;
#183 = CARTESIAN_POINT ( 'NONE',  ( 0.1183307166263566079, 0.8314443141724187081, 0.2280674907603673918 ) ) ;
#184 = DIRECTION ( 'NONE',  ( -0.9949540640923917323, -0.1003315022614175156, 0.000000000000000000 ) ) ;
#185 = VECTOR ( 'NONE', #490, 1000.000000000000000 ) ;
#186 = PRESENTATION_LAYER_ASSIGNMENT (  '', '', ( #792 ) ) ;
#187 = EDGE_LOOP ( 'NONE', ( #434, #1005 ) ) ;
#188 = FACE_OUTER_BOUND ( 'NONE', #952, .T. ) ;
#189 = AXIS2_PLACEMENT_3D ( 'NONE', #542, #953, #778 ) ;
#190 = AXIS2_PLACEMENT_3D ( 'NONE', #533, #623, #857 ) ;
#191 = FILL_AREA_STYLE ('',( #607 ) ) ;
#192 =( GEOMETRIC_REPRESENTATION_CONTEXT ( 3 ) GLOBAL_UNCERTAINTY_ASSIGNED_CONTEXT ( ( #902 ) ) GLOBAL_UNIT_ASSIGNED_CONTEXT ( ( #39, #46, #739 ) ) REPRESENTATION_CONTEXT ( 'NONE', 'WORKASPACE' ) );
#193 = SURFACE_STYLE_FILL_AREA ( #603 ) ;
#194 =( NAMED_UNIT ( * ) PLANE_ANGLE_UNIT ( ) SI_UNIT ( $, .RADIAN. ) );
#195 = EDGE_CURVE ( 'NONE', #238, #333, #392, .T. ) ;
#196 = VERTEX_POINT ( 'NONE', #834 ) ;
#197 = CARTESIAN_POINT ( 'NONE',  ( 0.01778144479759472332, 0.2382069131296551678, -0.2382069131296542797 ) ) ;
#198 = FACE_OUTER_BOUND ( 'NONE', #324, .T. ) ;
#199 =( NAMED_UNIT ( * ) PLANE_ANGLE_UNIT ( ) SI_UNIT ( $, .RADIAN. ) );
#200 = FACE_OUTER_BOUND ( 'NONE', #201, .T. ) ;
#201 = EDGE_LOOP ( 'NONE', ( #439, #60, #718 ) ) ;
#202 = FILL_AREA_STYLE_COLOUR ( '', #638 ) ;
#203 = DIRECTION ( 'NONE',  ( 0.000000000000000000, 0.000000000000000000, 1.000000000000000000 ) ) ;
#204 = CARTESIAN_POINT ( 'NONE',  ( -25.39999999999996305, 0.000000000000000000, 0.000000000000000000 ) ) ;
#205 = COLOUR_RGB ( '',0.7764705882352941346, 0.7568627450980391913, 0.7372549019607843590 ) ;
#206 = VERTEX_POINT ( 'NONE', #611 ) ;
#207 = MECHANICAL_DESIGN_GEOMETRIC_PRESENTATION_REPRESENTATION (  '', ( #792 ), #833 ) ;
#208 = MECHANICAL_DESIGN_GEOMETRIC_PRESENTATION_REPRESENTATION (  '', ( #560 ), #794 ) ;
#209 = SURFACE_STYLE_USAGE ( .BOTH. , #1002 ) ;
#210 =( NAMED_UNIT ( * ) PLANE_ANGLE_UNIT ( ) SI_UNIT ( $, .RADIAN. ) );
#211 = SURFACE_SIDE_STYLE ('',( #121 ) ) ;
#212 = EDGE_CURVE ( 'NONE', #8, #614, #811, .T. ) ;
#213 = CARTESIAN_POINT ( 'NONE',  ( 0.1183307166263566079, 0.2280674907603645329, 0.8314443141724200403 ) ) ;
#214 = SURFACE_STYLE_FILL_AREA ( #554 ) ;
#215 = LINE ( 'NONE', #150, #66 ) ;
#216 = ORIENTED_EDGE ( 'NONE', *, *, #414, .T. ) ;
#217 = DIRECTION ( 'NONE',  ( 0.8302011287295821829, -0.5511419257952689943, 0.08371776088029403429 ) ) ;
#218 = AXIS2_PLACEMENT_3D ( 'NONE', #908, #364, #596 ) ;
#219 = FILL_AREA_STYLE_COLOUR ( '', #205 ) ;
#220 = AXIS2_PLACEMENT_3D ( 'NONE', #264, #587, #184 ) ;
#221 = AXIS2_PLACEMENT_3D ( 'NONE', #347, #669, #601 ) ;
#222 =( GEOMETRIC_REPRESENTATION_CONTEXT ( 3 ) GLOBAL_UNCERTAINTY_ASSIGNED_CONTEXT ( ( #106 ) ) GLOBAL_UNIT_ASSIGNED_CONTEXT ( ( #139, #788, #144 ) ) REPRESENTATION_CONTEXT ( 'NONE', 'WORKASPACE' ) );
#223 = DIRECTION ( 'NONE',  ( 1.000000000000000000, 0.000000000000000000, 0.000000000000000000 ) ) ;
#224 = EDGE_CURVE ( 'NONE', #755, #817, #832, .T. ) ;
#225 = DIRECTION ( 'NONE',  ( 0.000000000000000000, 0.000000000000000000, 1.000000000000000000 ) ) ;
#226 = PLANE ( 'NONE',  #376 ) ;
#227 = DIRECTION ( 'NONE',  ( 0.8302011287295820718, 0.08371776088029185547, 0.5511419257952694384 ) ) ;
#228 = SURFACE_STYLE_USAGE ( .BOTH. , #785 ) ;
#229 = SURFACE_STYLE_USAGE ( .BOTH. , #950 ) ;
#230 = FACE_OUTER_BOUND ( 'NONE', #671, .T. ) ;
#231 = DIRECTION ( 'NONE',  ( 0.000000000000000000, 0.000000000000000000, 1.000000000000000000 ) ) ;
#232 =( GEOMETRIC_REPRESENTATION_CONTEXT ( 3 ) GLOBAL_UNCERTAINTY_ASSIGNED_CONTEXT ( ( #984 ) ) GLOBAL_UNIT_ASSIGNED_CONTEXT ( ( #678, #517, #350 ) ) REPRESENTATION_CONTEXT ( 'NONE', 'WORKASPACE' ) );
#233 = STYLED_ITEM ( 'NONE', ( #515 ), #293 ) ;
#234 = SURFACE_SIDE_STYLE ('',( #1008 ) ) ;
#235 = VECTOR ( 'NONE', #288, 1000.000000000000114 ) ;
#236 = AXIS2_PLACEMENT_3D ( 'NONE', #461, #383, #553 ) ;
#237 = AXIS2_PLACEMENT_3D ( 'NONE', #589, #772, #59 ) ;
#238 = VERTEX_POINT ( 'NONE', #380 ) ;
#239 = CARTESIAN_POINT ( 'NONE',  ( 1.380817672985122258, -0.1007578817157863543, 0.1007578817157859935 ) ) ;
#240 =( NAMED_UNIT ( * ) SI_UNIT ( $, .STERADIAN. ) SOLID_ANGLE_UNIT ( ) );
#241 = DIRECTION ( 'NONE',  ( 0.000000000000000000, 0.000000000000000000, -1.000000000000000000 ) ) ;
#242 = EDGE_CURVE ( 'NONE', #120, #105, #368, .T. ) ;
#243 = FILL_AREA_STYLE ('',( #967 ) ) ;
#244 = FILL_AREA_STYLE ('',( #878 ) ) ;
#245 = LINE ( 'NONE', #166, #128 ) ;
#246 = ORIENTED_EDGE ( 'NONE', *, *, #593, .F. ) ;
#247 = LINE ( 'NONE', #263, #359 ) ;
#248 =( NAMED_UNIT ( * ) PLANE_ANGLE_UNIT ( ) SI_UNIT ( $, .RADIAN. ) );
#249 = AXIS2_PLACEMENT_3D ( 'NONE', #480, #551, #883 ) ;
#250 = PRESENTATION_LAYER_ASSIGNMENT (  '', '', ( #233 ) ) ;
#251 = MECHANICAL_DESIGN_GEOMETRIC_PRESENTATION_REPRESENTATION (  '', ( #891 ), #319 ) ;
#252 = PRESENTATION_LAYER_ASSIGNMENT (  '', '', ( #394 ) ) ;
#253 = ORIENTED_EDGE ( 'NONE', *, *, #13, .F. ) ;
#254 = CARTESIAN_POINT ( 'NONE',  ( 1.370759493670886231, -0.1017721518987341478, -4.637557864168895746E-16 ) ) ;
#255 = VERTEX_POINT ( 'NONE', #928 ) ;
#256 = UNCERTAINTY_MEASURE_WITH_UNIT (LENGTH_MEASURE( 1.000000000000000082E-05 ), #989, 'distance_accuracy_value', 'NONE');
#257 = AXIS2_PLACEMENT_3D ( 'NONE', #71, #385, #452 ) ;
#258 = LINE ( 'NONE', #402, #692 ) ;
#259 = ADVANCED_FACE ( 'NONE', ( #934 ), #876, .T. ) ;
#260 = PLANE ( 'NONE',  #308 ) ;
#261 = SURFACE_STYLE_FILL_AREA ( #847 ) ;
#262 = ORIENTED_EDGE ( 'NONE', *, *, #318, .T. ) ;
#263 = CARTESIAN_POINT ( 'NONE',  ( 0.000000000000000000, 0.9100000000000000311, 0.2399999999999999634 ) ) ;
#264 = CARTESIAN_POINT ( 'NONE',  ( 3.191745543516252948, 0.08185669346382358491, 2.994560754499155813E-16 ) ) ;
#265 =( NAMED_UNIT ( * ) PLANE_ANGLE_UNIT ( ) SI_UNIT ( $, .RADIAN. ) );
#266 = ORIENTED_EDGE ( 'NONE', *, *, #242, .T. ) ;
#267 = EDGE_LOOP ( 'NONE', ( #165, #643, #246, #399, #25 ) ) ;
#268 = UNCERTAINTY_MEASURE_WITH_UNIT (LENGTH_MEASURE( 1.000000000000000082E-05 ), #294, 'distance_accuracy_value', 'NONE');
#269 = CARTESIAN_POINT ( 'NONE',  ( -25.39999999999996305, 1.224646799147353207E-16, -1.000000000000000000 ) ) ;
#270 = DIRECTION ( 'NONE',  ( 0.000000000000000000, 0.000000000000000000, 1.000000000000000000 ) ) ;
#271 = CARTESIAN_POINT ( 'NONE',  ( -25.39999999999996305, 0.000000000000000000, 0.000000000000000000 ) ) ;
#272 = EDGE_CURVE ( 'NONE', #255, #206, #940, .T. ) ;
#273 = STYLED_ITEM ( 'NONE', ( #33 ), #9 ) ;
#274 = FACE_OUTER_BOUND ( 'NONE', #562, .T. ) ;
#275 = AXIS2_PLACEMENT_3D ( 'NONE', #841, #673, #203 ) ;
#276 = CARTESIAN_POINT ( 'NONE',  ( 1.600000000000000755, 0.000000000000000000, 1.000000000000000000 ) ) ;
#277 = CIRCLE ( 'NONE', #708, 0.2399999999999999911 ) ;
#278 = ORIENTED_EDGE ( 'NONE', *, *, #272, .F. ) ;
#279 = PRESENTATION_LAYER_ASSIGNMENT (  '', '', ( #852 ) ) ;
#280 = PRESENTATION_STYLE_ASSIGNMENT (( #665 ) ) ;
#281 = ORIENTED_EDGE ( 'NONE', *, *, #401, .T. ) ;
#282 = DIRECTION ( 'NONE',  ( -0.9949540640923917323, 0.000000000000000000, 0.1003315022614175156 ) ) ;
#283 = PRESENTATION_STYLE_ASSIGNMENT (( #209 ) ) ;
#284 = DIRECTION ( 'NONE',  ( 0.000000000000000000, 0.000000000000000000, 1.000000000000000000 ) ) ;
#285 = PLANE ( 'NONE',  #635 ) ;
#286 = FILL_AREA_STYLE ('',( #749 ) ) ;
#287 = ORIENTED_EDGE ( 'NONE', *, *, #272, .T. ) ;
#288 = DIRECTION ( 'NONE',  ( 0.8302011287295820718, 0.5511419257952689943, 0.08371776088029396490 ) ) ;
#289 = COLOUR_RGB ( '',0.7764705882352941346, 0.7568627450980391913, 0.7372549019607843590 ) ;
#290 =( GEOMETRIC_REPRESENTATION_CONTEXT ( 3 ) GLOBAL_UNCERTAINTY_ASSIGNED_CONTEXT ( ( #172 ) ) GLOBAL_UNIT_ASSIGNED_CONTEXT ( ( #681, #779, #362 ) ) REPRESENTATION_CONTEXT ( 'NONE', 'WORKASPACE' ) );
#291 = CARTESIAN_POINT ( 'NONE',  ( 0.1183307166263566079, 0.2280674907603702228, -0.8314443141724179309 ) ) ;
#292 = PRESENTATION_LAYER_ASSIGNMENT (  '', '', ( #745 ) ) ;
#293 = ADVANCED_FACE ( 'NONE', ( #198 ), #592, .F. ) ;
#294 =( LENGTH_UNIT ( ) NAMED_UNIT ( * ) SI_UNIT ( .MILLI., .METRE. ) );
#295 = COLOUR_RGB ( '',0.7764705882352941346, 0.7568627450980391913, 0.7372549019607843590 ) ;
#296 = CARTESIAN_POINT ( 'NONE',  ( 3.191745543516253392, -8.680907376245244908E-16, -0.08185669346382359879 ) ) ;
#297 = ORIENTED_EDGE ( 'NONE', *, *, #641, .T. ) ;
#298 =( NAMED_UNIT ( * ) PLANE_ANGLE_UNIT ( ) SI_UNIT ( $, .RADIAN. ) );
#299 = DIRECTION ( 'NONE',  ( 0.000000000000000000, 1.000000000000000000, 0.000000000000000000 ) ) ;
#300 = FILL_AREA_STYLE ('',( #863 ) ) ;
#301 =( GEOMETRIC_REPRESENTATION_CONTEXT ( 3 ) GLOBAL_UNCERTAINTY_ASSIGNED_CONTEXT ( ( #645 ) ) GLOBAL_UNIT_ASSIGNED_CONTEXT ( ( #789, #15, #633 ) ) REPRESENTATION_CONTEXT ( 'NONE', 'WORKASPACE' ) );
#302 =( NAMED_UNIT ( * ) SI_UNIT ( $, .STERADIAN. ) SOLID_ANGLE_UNIT ( ) );
#303 = VECTOR ( 'NONE', #938, 1000.000000000000000 ) ;
#304 = PRESENTATION_STYLE_ASSIGNMENT (( #312 ) ) ;
#305 = PRESENTATION_LAYER_ASSIGNMENT (  '', '', ( #765 ) ) ;
#306 = COLOUR_RGB ( '',0.7764705882352941346, 0.7568627450980391913, 0.7372549019607843590 ) ;
#307 = FILL_AREA_STYLE_COLOUR ( '', #306 ) ;
#308 = AXIS2_PLACEMENT_3D ( 'NONE', #748, #516, #594 ) ;
#309 = ADVANCED_FACE ( 'NONE', ( #536 ), #976, .T. ) ;
#310 = CARTESIAN_POINT ( 'NONE',  ( 0.6271178757805834225, 2.389716186444294769E-16, -1.902702702702703030 ) ) ;
#311 = SURFACE_STYLE_FILL_AREA ( #800 ) ;
#312 = SURFACE_STYLE_USAGE ( .BOTH. , #86 ) ;
#313 = PRESENTATION_STYLE_ASSIGNMENT (( #415 ) ) ;
#314 = VERTEX_POINT ( 'NONE', #387 ) ;
#315 = SURFACE_SIDE_STYLE ('',( #714 ) ) ;
#316 = LINE ( 'NONE', #732, #559 ) ;
#317 = PRESENTATION_LAYER_ASSIGNMENT (  '', '', ( #780 ) ) ;
#318 = EDGE_CURVE ( 'NONE', #845, #614, #871, .T. ) ;
#319 =( GEOMETRIC_REPRESENTATION_CONTEXT ( 3 ) GLOBAL_UNCERTAINTY_ASSIGNED_CONTEXT ( ( #995 ) ) GLOBAL_UNIT_ASSIGNED_CONTEXT ( ( #986, #325, #738 ) ) REPRESENTATION_CONTEXT ( 'NONE', 'WORKASPACE' ) );
#320 = COLOUR_RGB ( '',0.7764705882352941346, 0.7568627450980391913, 0.7372549019607843590 ) ;
#321 = COLOUR_RGB ( '',0.7764705882352941346, 0.7568627450980391913, 0.7372549019607843590 ) ;
#322 = STYLED_ITEM ( 'NONE', ( #67 ), #884 ) ;
#323 =( LENGTH_UNIT ( ) NAMED_UNIT ( * ) SI_UNIT ( .MILLI., .METRE. ) );
#324 = EDGE_LOOP ( 'NONE', ( #961, #519, #541, #922 ) ) ;
#325 =( NAMED_UNIT ( * ) PLANE_ANGLE_UNIT ( ) SI_UNIT ( $, .RADIAN. ) );
#326 = EDGE_CURVE ( 'NONE', #196, #803, #612, .T. ) ;
#327 = SURFACE_SIDE_STYLE ('',( #729 ) ) ;
#328 = ORIENTED_EDGE ( 'NONE', *, *, #805, .T. ) ;
#329 = UNCERTAINTY_MEASURE_WITH_UNIT (LENGTH_MEASURE( 1.000000000000000082E-05 ), #377, 'distance_accuracy_value', 'NONE');
#330 = DIRECTION ( 'NONE',  ( -0.9899837497469133885, -0.09983029409212523797, -0.09983029409212573757 ) ) ;
#331 = CARTESIAN_POINT ( 'NONE',  ( 1.189999999999999947, 0.1200000000000004119, -0.1199999999999995515 ) ) ;
#332 = EDGE_CURVE ( 'NONE', #314, #333, #65, .T. ) ;
#333 = VERTEX_POINT ( 'NONE', #620 ) ;
#334 = DIRECTION ( 'NONE',  ( -1.000000000000000000, -0.000000000000000000, -0.000000000000000000 ) ) ;
#335 = SURFACE_STYLE_USAGE ( .BOTH. , #733 ) ;
#336 = STYLED_ITEM ( 'NONE', ( #462 ), #309 ) ;
#337 = FILL_AREA_STYLE_COLOUR ( '', #797 ) ;
#338 = AXIS2_PLACEMENT_3D ( 'NONE', #412, #500, #812 ) ;
#339 = VECTOR ( 'NONE', #680, 1000.000000000000000 ) ;
#340 = FILL_AREA_STYLE_COLOUR ( '', #406 ) ;
#341 = COLOUR_RGB ( '',0.7764705882352941346, 0.7568627450980391913, 0.7372549019607843590 ) ;
#342 = UNCERTAINTY_MEASURE_WITH_UNIT (LENGTH_MEASURE( 1.000000000000000082E-05 ), #836, 'distance_accuracy_value', 'NONE');
#343 = CARTESIAN_POINT ( 'NONE',  ( 3.191745543516252948, 0.08185669346382358491, 2.994560754499155813E-16 ) ) ;
#344 = PRODUCT_DEFINITION_FORMATION_WITH_SPECIFIED_SOURCE ( 'ANY', '', #27, .NOT_KNOWN. ) ;
#345 = PRESENTATION_STYLE_ASSIGNMENT (( #335 ) ) ;
#346 = VERTEX_POINT ( 'NONE', #1018 ) ;
#347 = CARTESIAN_POINT ( 'NONE',  ( 3.191745543516253392, -0.08185669346382384859, -2.833183980953279627E-16 ) ) ;
#348 = DIRECTION ( 'NONE',  ( -0.1003315022614176683, -0.9949540640923918433, -3.443686517116343800E-15 ) ) ;
#349 = SURFACE_SIDE_STYLE ('',( #583 ) ) ;
#350 =( NAMED_UNIT ( * ) SI_UNIT ( $, .STERADIAN. ) SOLID_ANGLE_UNIT ( ) );
#351 = PRODUCT_DEFINITION_CONTEXT ( 'detailed design', #4, 'design' ) ;
#352 = PRESENTATION_STYLE_ASSIGNMENT (( #450 ) ) ;
#353 = DIRECTION ( 'NONE',  ( -1.000000000000000000, -0.000000000000000000, -0.000000000000000000 ) ) ;
#354 = EDGE_CURVE ( 'NONE', #614, #8, #654, .T. ) ;
#355 = APPLICATION_PROTOCOL_DEFINITION ( 'draft international standard', 'automotive_design', 1998, #909 ) ;
#356 = CIRCLE ( 'NONE', #249, 3.200000000000000178 ) ;
#357 = PLANE ( 'NONE',  #218 ) ;
#358 = AXIS2_PLACEMENT_3D ( 'NONE', #990, #855, #451 ) ;
#359 = VECTOR ( 'NONE', #586, 999.9999999999998863 ) ;
#360 = ORIENTED_EDGE ( 'NONE', *, *, #69, .T. ) ;
#361 = CARTESIAN_POINT ( 'NONE',  ( 1.189999999999999947, 0.1199999999999999956, 0.1200000000000000094 ) ) ;
#362 =( NAMED_UNIT ( * ) SI_UNIT ( $, .STERADIAN. ) SOLID_ANGLE_UNIT ( ) );
#363 = FILL_AREA_STYLE ('',( #123 ) ) ;
#364 = DIRECTION ( 'NONE',  ( -0.1003315022614176544, 3.017703066837730067E-17, 0.9949540640923917323 ) ) ;
#365 = ORIENTED_EDGE ( 'NONE', *, *, #991, .F. ) ;
#366 = UNCERTAINTY_MEASURE_WITH_UNIT (LENGTH_MEASURE( 1.000000000000000082E-05 ), #942, 'distance_accuracy_value', 'NONE');
#367 =( NAMED_UNIT ( * ) PLANE_ANGLE_UNIT ( ) SI_UNIT ( $, .RADIAN. ) );
#368 = LINE ( 'NONE', #140, #763 ) ;
#369 = PRODUCT_CONTEXT ( 'NONE', #909, 'mechanical' ) ;
#370 = CARTESIAN_POINT ( 'NONE',  ( 3.191745543516253392, -8.680907376245244908E-16, -0.08185669346382359879 ) ) ;
#371 = ADVANCED_FACE ( 'NONE', ( #955 ), #701, .T. ) ;
#372 = ORIENTED_EDGE ( 'NONE', *, *, #757, .T. ) ;
#373 = SURFACE_STYLE_USAGE ( .BOTH. , #211 ) ;
#374 =( NAMED_UNIT ( * ) PLANE_ANGLE_UNIT ( ) SI_UNIT ( $, .RADIAN. ) );
#375 = STYLED_ITEM ( 'NONE', ( #904 ), #24 ) ;
#376 = AXIS2_PLACEMENT_3D ( 'NONE', #897, #581, #175 ) ;
#377 =( LENGTH_UNIT ( ) NAMED_UNIT ( * ) SI_UNIT ( .MILLI., .METRE. ) );
#378 = PRODUCT_RELATED_PRODUCT_CATEGORY ( 'part', '', ( #27 ) ) ;
#379 = CIRCLE ( 'NONE', #997, 1.902702702702703030 ) ;
#380 = CARTESIAN_POINT ( 'NONE',  ( 0.01778144479759515700, -0.2382069131296532527, -0.2382069131296543074 ) ) ;
#381 = AXIS2_PLACEMENT_3D ( 'NONE', #204, #754, #828 ) ;
#382 = ORIENTED_EDGE ( 'NONE', *, *, #862, .F. ) ;
#383 = DIRECTION ( 'NONE',  ( 0.5530835219181907680, 3.097025893495979597E-15, -0.8331258114970213624 ) ) ;
#384 = EDGE_CURVE ( 'NONE', #14, #105, #479, .T. ) ;
#385 = DIRECTION ( 'NONE',  ( -0.1003315022614176683, 3.017703066837730067E-17, 0.9949540640923918433 ) ) ;
#386 = CARTESIAN_POINT ( 'NONE',  ( 1.600000000000000755, 0.000000000000000000, 0.000000000000000000 ) ) ;
#387 = CARTESIAN_POINT ( 'NONE',  ( 0.1111834437507897427, -0.8361891423839297177, -1.024036356702248742E-16 ) ) ;
#388 =( NAMED_UNIT ( * ) PLANE_ANGLE_UNIT ( ) SI_UNIT ( $, .RADIAN. ) );
#389 =( NAMED_UNIT ( * ) SI_UNIT ( $, .STERADIAN. ) SOLID_ANGLE_UNIT ( ) );
#390 = DIRECTION ( 'NONE',  ( 0.9949540640923917323, -0.1003315022614176544, -3.503055678438373771E-16 ) ) ;
#391 = FILL_AREA_STYLE ('',( #619 ) ) ;
#392 = CIRCLE ( 'NONE', #914, 3.198942222936095980 ) ;
#393 = DIRECTION ( 'NONE',  ( -1.000000000000000000, -0.000000000000000000, -0.000000000000000000 ) ) ;
#394 = STYLED_ITEM ( 'NONE', ( #107 ), #582 ) ;
#395 = FILL_AREA_STYLE_COLOUR ( '', #574 ) ;
#396 = ORIENTED_EDGE ( 'NONE', *, *, #805, .F. ) ;
#397 = CARTESIAN_POINT ( 'NONE',  ( 3.200000000000000178, -8.817456953860942303E-16, 0.000000000000000000 ) ) ;
#398 = CARTESIAN_POINT ( 'NONE',  ( -25.39999999999996305, 0.000000000000000000, 0.000000000000000000 ) ) ;
#399 = ORIENTED_EDGE ( 'NONE', *, *, #332, .F. ) ;
#400 = PRESENTATION_STYLE_ASSIGNMENT (( #572 ) ) ;
#401 = EDGE_CURVE ( 'NONE', #970, #93, #442, .T. ) ;
#402 = CARTESIAN_POINT ( 'NONE',  ( 0.000000000000000000, -0.2400000000000031275, 0.9099999999999991429 ) ) ;
#403 = FILL_AREA_STYLE ('',( #395 ) ) ;
#404 = VERTEX_POINT ( 'NONE', #807 ) ;
#405 = PLANE ( 'NONE',  #424 ) ;
#406 = COLOUR_RGB ( '',0.7764705882352941346, 0.7568627450980391913, 0.7372549019607843590 ) ;
#407 = COLOUR_RGB ( '',0.7764705882352941346, 0.7568627450980391913, 0.7372549019607843590 ) ;
#408 = FILL_AREA_STYLE ('',( #753 ) ) ;
#409 = COLOUR_RGB ( '',0.7764705882352941346, 0.7568627450980391913, 0.7372549019607843590 ) ;
#410 = VERTEX_POINT ( 'NONE', #662 ) ;
#411 = CARTESIAN_POINT ( 'NONE',  ( 1.380817672985122035, 0.1007578817157856743, 0.1007578817157860351 ) ) ;
#412 = CARTESIAN_POINT ( 'NONE',  ( 2.640432800705813321, 2.061197262405805024E-15, -0.8428923634937751652 ) ) ;
#413 = LINE ( 'NONE', #496, #185 ) ;
#414 = EDGE_CURVE ( 'NONE', #661, #105, #245, .T. ) ;
#415 = SURFACE_STYLE_USAGE ( .BOTH. , #888 ) ;
#416 = DIRECTION ( 'NONE',  ( 0.000000000000000000, 0.000000000000000000, 1.000000000000000000 ) ) ;
#417 = EDGE_LOOP ( 'NONE', ( #382, #699 ) ) ;
#418 = UNCERTAINTY_MEASURE_WITH_UNIT (LENGTH_MEASURE( 1.000000000000000082E-05 ), #323, 'distance_accuracy_value', 'NONE');
#419 = DIRECTION ( 'NONE',  ( -0.8331258114970213624, 0.5530835219181906570, 0.000000000000000000 ) ) ;
#420 = DIRECTION ( 'NONE',  ( 0.9949540640923917323, -0.1003315022614176683, 0.000000000000000000 ) ) ;
#421 = FACE_OUTER_BOUND ( 'NONE', #920, .T. ) ;
#422 = DIRECTION ( 'NONE',  ( 0.5530835219181907680, -0.8331258114970213624, -1.881826697455874972E-16 ) ) ;
#423 = MECHANICAL_DESIGN_GEOMETRIC_PRESENTATION_REPRESENTATION (  '', ( #336 ), #973 ) ;
#424 = AXIS2_PLACEMENT_3D ( 'NONE', #51, #610, #282 ) ;
#425 = PRESENTATION_LAYER_ASSIGNMENT (  '', '', ( #677 ) ) ;
#426 = CYLINDRICAL_SURFACE ( 'NONE', #155, 2.000000000000000000 ) ;
#427 =( NAMED_UNIT ( * ) SI_UNIT ( $, .STERADIAN. ) SOLID_ANGLE_UNIT ( ) );
#428 = ORIENTED_EDGE ( 'NONE', *, *, #456, .T. ) ;
#429 = UNCERTAINTY_MEASURE_WITH_UNIT (LENGTH_MEASURE( 1.000000000000000082E-05 ), #759, 'distance_accuracy_value', 'NONE');
#430 = LINE ( 'NONE', #361, #543 ) ;
#431 =( NAMED_UNIT ( * ) SI_UNIT ( $, .STERADIAN. ) SOLID_ANGLE_UNIT ( ) );
#432 = SURFACE_SIDE_STYLE ('',( #47 ) ) ;
#433 = DIRECTION ( 'NONE',  ( -1.000000000000000000, -0.000000000000000000, -0.000000000000000000 ) ) ;
#434 = ORIENTED_EDGE ( 'NONE', *, *, #839, .F. ) ;
#435 = EDGE_CURVE ( 'NONE', #853, #751, #941, .T. ) ;
#436 =( NAMED_UNIT ( * ) PLANE_ANGLE_UNIT ( ) SI_UNIT ( $, .RADIAN. ) );
#437 = VERTEX_POINT ( 'NONE', #646 ) ;
#438 = PRESENTATION_STYLE_ASSIGNMENT (( #919 ) ) ;
#439 = ORIENTED_EDGE ( 'NONE', *, *, #99, .T. ) ;
#440 = UNCERTAINTY_MEASURE_WITH_UNIT (LENGTH_MEASURE( 1.000000000000000082E-05 ), #761, 'distance_accuracy_value', 'NONE');
#441 = STYLED_ITEM ( 'NONE', ( #304 ), #79 ) ;
#442 = CIRCLE ( 'NONE', #338, 3.035855235850013045 ) ;
#443 = ORIENTED_EDGE ( 'NONE', *, *, #332, .T. ) ;
#444 = FILL_AREA_STYLE ('',( #737 ) ) ;
#445 = MECHANICAL_DESIGN_GEOMETRIC_PRESENTATION_REPRESENTATION (  '', ( #38 ), #710 ) ;
#446 = SURFACE_STYLE_FILL_AREA ( #136 ) ;
#447 = EDGE_CURVE ( 'NONE', #410, #707, #17, .T. ) ;
#448 = DIRECTION ( 'NONE',  ( 0.000000000000000000, 0.000000000000000000, 1.000000000000000000 ) ) ;
#449 = ORIENTED_EDGE ( 'NONE', *, *, #53, .T. ) ;
#450 = SURFACE_STYLE_USAGE ( .BOTH. , #924 ) ;
#451 = DIRECTION ( 'NONE',  ( 0.000000000000000000, 0.000000000000000000, 1.000000000000000000 ) ) ;
#452 = DIRECTION ( 'NONE',  ( 0.9949540640923917323, 0.000000000000000000, 0.1003315022614176544 ) ) ;
#453 = ORIENTED_EDGE ( 'NONE', *, *, #555, .F. ) ;
#454 = PRESENTATION_LAYER_ASSIGNMENT (  '', '', ( #864 ) ) ;
#455 = PLANE ( 'NONE',  #236 ) ;
#456 = EDGE_CURVE ( 'NONE', #808, #93, #930, .T. ) ;
#457 = MECHANICAL_DESIGN_GEOMETRIC_PRESENTATION_REPRESENTATION (  '', ( #745 ), #626 ) ;
#458 = STYLED_ITEM ( 'NONE', ( #72 ), #750 ) ;
#459 = CARTESIAN_POINT ( 'NONE',  ( 2.640432800705812877, 0.8428923634937750542, 1.903886940982070610E-16 ) ) ;
#460 =( GEOMETRIC_REPRESENTATION_CONTEXT ( 3 ) GLOBAL_UNCERTAINTY_ASSIGNED_CONTEXT ( ( #923 ) ) GLOBAL_UNIT_ASSIGNED_CONTEXT ( ( #910, #838, #1017 ) ) REPRESENTATION_CONTEXT ( 'NONE', 'WORKASPACE' ) );
#461 = CARTESIAN_POINT ( 'NONE',  ( 0.000000000000000000, 0.2400000000000031275, -0.9099999999999993650 ) ) ;
#462 = PRESENTATION_STYLE_ASSIGNMENT (( #632 ) ) ;
#463 = CARTESIAN_POINT ( 'NONE',  ( 1.599999999999999867, 1.000000000000000000, 0.000000000000000000 ) ) ;
#464 = LINE ( 'NONE', #74, #21 ) ;
#465 = DIRECTION ( 'NONE',  ( -1.000000000000000000, -0.000000000000000000, -0.000000000000000000 ) ) ;
#466 = SURFACE_STYLE_FILL_AREA ( #152 ) ;
#467 = FILL_AREA_STYLE ('',( #307 ) ) ;
#468 = ORIENTED_EDGE ( 'NONE', *, *, #604, .F. ) ;
#469 = AXIS2_PLACEMENT_3D ( 'NONE', #758, #775, #860 ) ;
#470 = DIRECTION ( 'NONE',  ( -1.000000000000000000, -0.000000000000000000, -0.000000000000000000 ) ) ;
#471 = AXIS2_PLACEMENT_3D ( 'NONE', #709, #869, #231 ) ;
#472 = AXIS2_PLACEMENT_3D ( 'NONE', #873, #82, #416 ) ;
#473 = DIRECTION ( 'NONE',  ( -1.000000000000000000, -0.000000000000000000, -0.000000000000000000 ) ) ;
#474 = AXIS2_PLACEMENT_3D ( 'NONE', #296, #547, #937 ) ;
#475 = EDGE_CURVE ( 'NONE', #577, #14, #247, .T. ) ;
#476 = PRESENTATION_STYLE_ASSIGNMENT (( #649 ) ) ;
#477 = ORIENTED_EDGE ( 'NONE', *, *, #435, .T. ) ;
#478 = UNCERTAINTY_MEASURE_WITH_UNIT (LENGTH_MEASURE( 1.000000000000000082E-05 ), #54, 'distance_accuracy_value', 'NONE');
#479 = LINE ( 'NONE', #85, #303 ) ;
#480 = CARTESIAN_POINT ( 'NONE',  ( 3.200000000000000178, -8.817456953860942303E-16, 0.000000000000000000 ) ) ;
#481 = ORIENTED_EDGE ( 'NONE', *, *, #675, .T. ) ;
#482 = CARTESIAN_POINT ( 'NONE',  ( 0.6271178757805834225, 0.000000000000000000, 1.902702702702703030 ) ) ;
#483 = FACE_OUTER_BOUND ( 'NONE', #821, .T. ) ;
#484 =( NAMED_UNIT ( * ) SI_UNIT ( $, .STERADIAN. ) SOLID_ANGLE_UNIT ( ) );
#485 = FACE_OUTER_BOUND ( 'NONE', #590, .T. ) ;
#486 = ORIENTED_EDGE ( 'NONE', *, *, #862, .T. ) ;
#487 = CARTESIAN_POINT ( 'NONE',  ( 0.6271178757805834225, 0.000000000000000000, 0.000000000000000000 ) ) ;
#488 = EDGE_CURVE ( 'NONE', #93, #89, #258, .T. ) ;
#489 = COLOUR_RGB ( '',0.7764705882352941346, 0.7568627450980391913, 0.7372549019607843590 ) ;
#490 = DIRECTION ( 'NONE',  ( 0.000000000000000000, -1.129377263005733868E-16, 1.000000000000000000 ) ) ;
#491 = PRESENTATION_LAYER_ASSIGNMENT (  '', '', ( #977 ) ) ;
#492 = AXIS2_PLACEMENT_3D ( 'NONE', #271, #180, #284 ) ;
#493 =( NAMED_UNIT ( * ) SI_UNIT ( $, .STERADIAN. ) SOLID_ANGLE_UNIT ( ) );
#494 = ORIENTED_EDGE ( 'NONE', *, *, #435, .F. ) ;
#495 = DIRECTION ( 'NONE',  ( 0.000000000000000000, 0.000000000000000000, 1.000000000000000000 ) ) ;
#496 = CARTESIAN_POINT ( 'NONE',  ( 1.189999999999999947, -0.1199999999999999817, -0.1199999999999999956 ) ) ;
#497 = ORIENTED_EDGE ( 'NONE', *, *, #641, .F. ) ;
#498 = CARTESIAN_POINT ( 'NONE',  ( 4.600000000000002309, 0.000000000000000000, 1.000000000000000000 ) ) ;
#499 = ORIENTED_EDGE ( 'NONE', *, *, #384, .F. ) ;
#500 = DIRECTION ( 'NONE',  ( 0.5530835219181906570, -2.908843223750392223E-15, 0.8331258114970213624 ) ) ;
#501 = SURFACE_SIDE_STYLE ('',( #193 ) ) ;
#502 =( NAMED_UNIT ( * ) PLANE_ANGLE_UNIT ( ) SI_UNIT ( $, .RADIAN. ) );
#503 = ORIENTED_EDGE ( 'NONE', *, *, #354, .F. ) ;
#504 = DIRECTION ( 'NONE',  ( -0.1003315022614175156, 0.9949540640923917323, 3.639837216460795373E-15 ) ) ;
#505 = CARTESIAN_POINT ( 'NONE',  ( 3.191745543516252948, -8.792629757930814787E-16, 0.08185669346382384859 ) ) ;
#506 =( GEOMETRIC_REPRESENTATION_CONTEXT ( 3 ) GLOBAL_UNCERTAINTY_ASSIGNED_CONTEXT ( ( #731 ) ) GLOBAL_UNIT_ASSIGNED_CONTEXT ( ( #659, #766, #124 ) ) REPRESENTATION_CONTEXT ( 'NONE', 'WORKASPACE' ) );
#507 = AXIS2_PLACEMENT_3D ( 'NONE', #463, #73, #1024 ) ;
#508 = AXIS2_PLACEMENT_3D ( 'NONE', #487, #744, #32 ) ;
#509 = EDGE_CURVE ( 'NONE', #437, #89, #573, .T. ) ;
#510 = VECTOR ( 'NONE', #31, 1000.000000000000114 ) ;
#511 = DIRECTION ( 'NONE',  ( 0.8302011287295820718, -0.08371776088029207752, -0.5511419257952692163 ) ) ;
#512 = ORIENTED_EDGE ( 'NONE', *, *, #69, .F. ) ;
#513 = UNCERTAINTY_MEASURE_WITH_UNIT (LENGTH_MEASURE( 1.000000000000000082E-05 ), #774, 'distance_accuracy_value', 'NONE');
#514 = CARTESIAN_POINT ( 'NONE',  ( 0.8200840350970380888, 0.000000000000000000, 1.760000000000000009 ) ) ;
#515 = PRESENTATION_STYLE_ASSIGNMENT (( #1011 ) ) ;
#516 = DIRECTION ( 'NONE',  ( 0.5530835219181906570, 0.8331258114970213624, 0.000000000000000000 ) ) ;
#517 =( NAMED_UNIT ( * ) PLANE_ANGLE_UNIT ( ) SI_UNIT ( $, .RADIAN. ) );
#518 = EDGE_CURVE ( 'NONE', #614, #707, #277, .T. ) ;
#519 = ORIENTED_EDGE ( 'NONE', *, *, #604, .T. ) ;
#520 = PRESENTATION_STYLE_ASSIGNMENT (( #373 ) ) ;
#521 = FILL_AREA_STYLE_COLOUR ( '', #489 ) ;
#522 = PLANE ( 'NONE',  #640 ) ;
#523 = ORIENTED_EDGE ( 'NONE', *, *, #179, .T. ) ;
#524 = EDGE_CURVE ( 'NONE', #707, #196, #379, .T. ) ;
#525 = SURFACE_SIDE_STYLE ('',( #674 ) ) ;
#526 = MECHANICAL_DESIGN_GEOMETRIC_PRESENTATION_REPRESENTATION (  '', ( #233 ), #76 ) ;
#527 =( LENGTH_UNIT ( ) NAMED_UNIT ( * ) SI_UNIT ( .MILLI., .METRE. ) );
#528 = AXIS2_PLACEMENT_3D ( 'NONE', #397, #715, #299 ) ;
#529 = FACE_OUTER_BOUND ( 'NONE', #267, .T. ) ;
#530 = AXIS2_PLACEMENT_3D ( 'NONE', #735, #18, #26 ) ;
#531 = SURFACE_STYLE_FILL_AREA ( #191 ) ;
#532 = EDGE_CURVE ( 'NONE', #599, #105, #316, .T. ) ;
#533 = CARTESIAN_POINT ( 'NONE',  ( 1.189999999999999947, 0.1199999999999999956, -0.1200000000000000233 ) ) ;
#534 = ORIENTED_EDGE ( 'NONE', *, *, #447, .T. ) ;
#535 = DIRECTION ( 'NONE',  ( 0.000000000000000000, -1.000000000000000000, -5.646886315028669338E-17 ) ) ;
#536 = FACE_OUTER_BOUND ( 'NONE', #679, .T. ) ;
#537 = FACE_OUTER_BOUND ( 'NONE', #631, .T. ) ;
#538 = SURFACE_SIDE_STYLE ('',( #214 ) ) ;
#539 = FILL_AREA_STYLE ('',( #781 ) ) ;
#540 = PRESENTATION_LAYER_ASSIGNMENT (  '', '', ( #959 ) ) ;
#541 = ORIENTED_EDGE ( 'NONE', *, *, #488, .F. ) ;
#542 = CARTESIAN_POINT ( 'NONE',  ( -25.39999999999996305, 0.000000000000000000, 0.000000000000000000 ) ) ;
#543 = VECTOR ( 'NONE', #535, 1000.000000000000000 ) ;
#544 = VECTOR ( 'NONE', #217, 999.9999999999998863 ) ;
#545 =( GEOMETRIC_REPRESENTATION_CONTEXT ( 3 ) GLOBAL_UNCERTAINTY_ASSIGNED_CONTEXT ( ( #478 ) ) GLOBAL_UNIT_ASSIGNED_CONTEXT ( ( #54, #502, #683 ) ) REPRESENTATION_CONTEXT ( 'NONE', 'WORKASPACE' ) );
#546 =( NAMED_UNIT ( * ) SI_UNIT ( $, .STERADIAN. ) SOLID_ANGLE_UNIT ( ) );
#547 = DIRECTION ( 'NONE',  ( -0.1003315022614175156, 1.659736686760751475E-16, -0.9949540640923917323 ) ) ;
#548 = ORIENTED_EDGE ( 'NONE', *, *, #566, .F. ) ;
#549 = DIRECTION ( 'NONE',  ( 0.000000000000000000, 0.000000000000000000, 1.000000000000000000 ) ) ;
#550 = SURFACE_SIDE_STYLE ('',( #311 ) ) ;
#551 = DIRECTION ( 'NONE',  ( 0.000000000000000000, 1.224646799147353207E-16, -1.000000000000000000 ) ) ;
#552 =( LENGTH_UNIT ( ) NAMED_UNIT ( * ) SI_UNIT ( .MILLI., .METRE. ) );
#553 = DIRECTION ( 'NONE',  ( 0.8331258114970213624, -1.931080795599000297E-15, 0.5530835219181907680 ) ) ;
#554 = FILL_AREA_STYLE ('',( #624 ) ) ;
#555 = EDGE_CURVE ( 'NONE', #120, #238, #893, .T. ) ;
#556 = DIRECTION ( 'NONE',  ( -0.8331258114970213624, 0.000000000000000000, -0.5530835219181907680 ) ) ;
#557 = MECHANICAL_DESIGN_GEOMETRIC_PRESENTATION_REPRESENTATION (  '', ( #959 ), #16 ) ;
#558 = DIRECTION ( 'NONE',  ( 0.5530835219181907680, -0.8331258114970213624, -1.881826697455874972E-16 ) ) ;
#559 = VECTOR ( 'NONE', #164, 1000.000000000000000 ) ;
#560 = STYLED_ITEM ( 'NONE', ( #149 ), #704 ) ;
#561 = PRESENTATION_LAYER_ASSIGNMENT (  '', '', ( #1015 ) ) ;
#562 = EDGE_LOOP ( 'NONE', ( #428, #743, #396 ) ) ;
#563 = DIRECTION ( 'NONE',  ( 0.000000000000000000, 0.000000000000000000, 1.000000000000000000 ) ) ;
#564 = UNCERTAINTY_MEASURE_WITH_UNIT (LENGTH_MEASURE( 1.000000000000000082E-05 ), #822, 'distance_accuracy_value', 'NONE');
#565 = FILL_AREA_STYLE ('',( #652 ) ) ;
#566 = EDGE_CURVE ( 'NONE', #206, #577, #147, .T. ) ;
#567 = ORIENTED_EDGE ( 'NONE', *, *, #524, .F. ) ;
#568 = SURFACE_STYLE_FILL_AREA ( #244 ) ;
#569 = CARTESIAN_POINT ( 'NONE',  ( 0.6271178757805834225, 0.000000000000000000, 0.000000000000000000 ) ) ;
#570 = DIRECTION ( 'NONE',  ( 0.000000000000000000, 0.000000000000000000, 1.000000000000000000 ) ) ;
#571 = DIRECTION ( 'NONE',  ( 0.000000000000000000, 1.000000000000000000, 0.000000000000000000 ) ) ;
#572 = SURFACE_STYLE_USAGE ( .BOTH. , #964 ) ;
#573 = LINE ( 'NONE', #819, #36 ) ;
#574 = COLOUR_RGB ( '',0.7764705882352941346, 0.7568627450980391913, 0.7372549019607843590 ) ;
#575 = AXIS2_PLACEMENT_3D ( 'NONE', #966, #167, #570 ) ;
#576 = AXIS2_PLACEMENT_3D ( 'NONE', #254, #578, #660 ) ;
#577 = VERTEX_POINT ( 'NONE', #183 ) ;
#578 = DIRECTION ( 'NONE',  ( -0.1003315022614175156, 0.9949540640923917323, 3.639837216460794584E-15 ) ) ;
#579 = EDGE_LOOP ( 'NONE', ( #798, #837, #848, #736, #567 ) ) ;
#580 =( NAMED_UNIT ( * ) PLANE_ANGLE_UNIT ( ) SI_UNIT ( $, .RADIAN. ) );
#581 = DIRECTION ( 'NONE',  ( -0.1003315022614176544, 3.017703066837730067E-17, 0.9949540640923917323 ) ) ;
#582 = MANIFOLD_SOLID_BREP ( 'Move Face1', #1023 ) ;
#583 = SURFACE_STYLE_FILL_AREA ( #842 ) ;
#584 = SURFACE_STYLE_USAGE ( .BOTH. , #125 ) ;
#585 = EDGE_LOOP ( 'NONE', ( #534, #126, #449, #443, #892, #40, #963, #163, #911, #287, #609 ) ) ;
#586 = DIRECTION ( 'NONE',  ( 0.8302011287295821829, -0.5511419257952689943, -0.08371776088029399265 ) ) ;
#587 = DIRECTION ( 'NONE',  ( -0.1003315022614175156, 0.9949540640923917323, 3.639837216460795373E-15 ) ) ;
#588 = ADVANCED_FACE ( 'NONE', ( #483 ), #405, .T. ) ;
#589 = CARTESIAN_POINT ( 'NONE',  ( 0.000000000000000000, -0.9100000000000002531, -0.2399999999999999634 ) ) ;
#590 = EDGE_LOOP ( 'NONE', ( #523, #453, #365 ) ) ;
#591 =( NAMED_UNIT ( * ) SI_UNIT ( $, .STERADIAN. ) SOLID_ANGLE_UNIT ( ) );
#592 = PLANE ( 'NONE',  #653 ) ;
#593 = EDGE_CURVE ( 'NONE', #333, #120, #135, .T. ) ;
#594 = DIRECTION ( 'NONE',  ( -0.8331258114970213624, 0.5530835219181906570, 0.000000000000000000 ) ) ;
#595 = AXIS2_PLACEMENT_3D ( 'NONE', #63, #859, #870 ) ;
#596 = DIRECTION ( 'NONE',  ( 0.9949540640923917323, 0.000000000000000000, 0.1003315022614176544 ) ) ;
#597 = FILL_AREA_STYLE_COLOUR ( '', #746 ) ;
#598 = MECHANICAL_DESIGN_GEOMETRIC_PRESENTATION_REPRESENTATION (  '', ( #696 ), #460 ) ;
#599 = VERTEX_POINT ( 'NONE', #291 ) ;
#600 = MECHANICAL_DESIGN_GEOMETRIC_PRESENTATION_REPRESENTATION (  '', ( #796 ), #882 ) ;
#601 = DIRECTION ( 'NONE',  ( 0.9949540640923917323, -0.1003315022614176683, 0.000000000000000000 ) ) ;
#602 = DIRECTION ( 'NONE',  ( 0.000000000000000000, 1.000000000000000000, -1.129377263005733868E-16 ) ) ;
#603 = FILL_AREA_STYLE ('',( #340 ) ) ;
#604 = EDGE_CURVE ( 'NONE', #14, #89, #430, .T. ) ;
#605 = ORIENTED_EDGE ( 'NONE', *, *, #740, .F. ) ;
#606 = SURFACE_STYLE_FILL_AREA ( #1006 ) ;
#607 = FILL_AREA_STYLE_COLOUR ( '', #110 ) ;
#608 = ORIENTED_EDGE ( 'NONE', *, *, #53, .F. ) ;
#609 = ORIENTED_EDGE ( 'NONE', *, *, #927, .F. ) ;
#610 = DIRECTION ( 'NONE',  ( -0.1003315022614175156, 1.659736686760751475E-16, -0.9949540640923917323 ) ) ;
#611 = CARTESIAN_POINT ( 'NONE',  ( 0.1111834437507901729, 0.8361891423839290516, 0.000000000000000000 ) ) ;
#612 = CIRCLE ( 'NONE', #471, 1.902702702702703030 ) ;
#613 = AXIS2_PLACEMENT_3D ( 'NONE', #35, #983, #556 ) ;
#614 = VERTEX_POINT ( 'NONE', #770 ) ;
#615 =( NAMED_UNIT ( * ) PLANE_ANGLE_UNIT ( ) SI_UNIT ( $, .RADIAN. ) );
#616 = AXIS2_PLACEMENT_3D ( 'NONE', #802, #958, #571 ) ;
#617 = CARTESIAN_POINT ( 'NONE',  ( 1.189999999999999947, -0.1200000000000004258, 0.1199999999999995653 ) ) ;
#618 = SURFACE_STYLE_USAGE ( .BOTH. , #630 ) ;
#619 = FILL_AREA_STYLE_COLOUR ( '', #998 ) ;
#620 = CARTESIAN_POINT ( 'NONE',  ( 0.1183307166263561638, -0.8314443141724193742, -0.2280674907603673640 ) ) ;
#621 = DIRECTION ( 'NONE',  ( 0.000000000000000000, 0.000000000000000000, 1.000000000000000000 ) ) ;
#622 = EDGE_CURVE ( 'NONE', #8, #803, #92, .T. ) ;
#623 = DIRECTION ( 'NONE',  ( -1.000000000000000000, 0.000000000000000000, 0.000000000000000000 ) ) ;
#624 = FILL_AREA_STYLE_COLOUR ( '', #320 ) ;
#625 = ADVANCED_BREP_SHAPE_REPRESENTATION ( 'M2 x 3 Screw head', ( #582, #132 ), #192 ) ;
#626 =( GEOMETRIC_REPRESENTATION_CONTEXT ( 3 ) GLOBAL_UNCERTAINTY_ASSIGNED_CONTEXT ( ( #256 ) ) GLOBAL_UNIT_ASSIGNED_CONTEXT ( ( #989, #615, #591 ) ) REPRESENTATION_CONTEXT ( 'NONE', 'WORKASPACE' ) );
#627 = COLOUR_RGB ( '',0.7764705882352941346, 0.7568627450980391913, 0.7372549019607843590 ) ;
#628 =( LENGTH_UNIT ( ) NAMED_UNIT ( * ) SI_UNIT ( .MILLI., .METRE. ) );
#629 = CARTESIAN_POINT ( 'NONE',  ( 1.189999999999999947, -0.1200000000000004258, 0.1199999999999995653 ) ) ;
#630 = SURFACE_SIDE_STYLE ('',( #790 ) ) ;
#631 = EDGE_LOOP ( 'NONE', ( #143, #266, #885, #101 ) ) ;
#632 = SURFACE_STYLE_USAGE ( .BOTH. , #550 ) ;
#633 =( NAMED_UNIT ( * ) SI_UNIT ( $, .STERADIAN. ) SOLID_ANGLE_UNIT ( ) );
#634 = ORIENTED_EDGE ( 'NONE', *, *, #456, .F. ) ;
#635 = AXIS2_PLACEMENT_3D ( 'NONE', #918, #982, #827 ) ;
#636 =( NAMED_UNIT ( * ) PLANE_ANGLE_UNIT ( ) SI_UNIT ( $, .RADIAN. ) );
#637 = AXIS2_PLACEMENT_3D ( 'NONE', #881, #465, #786 ) ;
#638 = COLOUR_RGB ( '',0.7764705882352941346, 0.7568627450980391913, 0.7372549019607843590 ) ;
#639 = FILL_AREA_STYLE_COLOUR ( '', #289 ) ;
#640 = AXIS2_PLACEMENT_3D ( 'NONE', #137, #693, #390 ) ;
#641 = EDGE_CURVE ( 'NONE', #970, #404, #764, .T. ) ;
#642 = CYLINDRICAL_SURFACE ( 'NONE', #492, 1.000000000000000000 ) ;
#643 = ORIENTED_EDGE ( 'NONE', *, *, #108, .F. ) ;
#644 = FILL_AREA_STYLE_COLOUR ( '', #627 ) ;
#645 = UNCERTAINTY_MEASURE_WITH_UNIT (LENGTH_MEASURE( 1.000000000000000082E-05 ), #789, 'distance_accuracy_value', 'NONE');
#646 = CARTESIAN_POINT ( 'NONE',  ( 0.1183307166263566079, -0.8314443141724193742, 0.2280674907603671697 ) ) ;
#647 = CARTESIAN_POINT ( 'NONE',  ( 4.600000000000000533, 1.000000000000000000, 0.000000000000000000 ) ) ;
#648 = SPHERICAL_SURFACE ( 'NONE', #616, 3.200000000000000178 ) ;
#649 = SURFACE_STYLE_USAGE ( .BOTH. , #327 ) ;
#650 = DIRECTION ( 'NONE',  ( 0.8302011287295821829, 0.08371776088029590779, -0.5511419257952685502 ) ) ;
#651 = UNCERTAINTY_MEASURE_WITH_UNIT (LENGTH_MEASURE( 1.000000000000000082E-05 ), #951, 'distance_accuracy_value', 'NONE');
#652 = FILL_AREA_STYLE_COLOUR ( '', #724 ) ;
#653 = AXIS2_PLACEMENT_3D ( 'NONE', #617, #118, #45 ) ;
#654 = CIRCLE ( 'NONE', #637, 2.000000000000000000 ) ;
#655 = PLANE ( 'NONE',  #691 ) ;
#656 = VECTOR ( 'NONE', #900, 1000.000000000000114 ) ;
#657 = CIRCLE ( 'NONE', #768, 3.200000000000000178 ) ;
#658 = COLOUR_RGB ( '',0.7764705882352941346, 0.7568627450980391913, 0.7372549019607843590 ) ;
#659 =( LENGTH_UNIT ( ) NAMED_UNIT ( * ) SI_UNIT ( .MILLI., .METRE. ) );
#660 = DIRECTION ( 'NONE',  ( -0.9949540640923917323, -0.1003315022614175156, -3.503055678438368841E-16 ) ) ;
#661 = VERTEX_POINT ( 'NONE', #197 ) ;
#662 = CARTESIAN_POINT ( 'NONE',  ( 0.6271178757805832005, 1.902702702702704141, 0.000000000000000000 ) ) ;
#663 = EDGE_CURVE ( 'NONE', #755, #751, #672, .T. ) ;
#664 = DIRECTION ( 'NONE',  ( 0.8331258114970213624, 0.5530835219181906570, 0.000000000000000000 ) ) ;
#665 = SURFACE_STYLE_USAGE ( .BOTH. , #349 ) ;
#666 = LINE ( 'NONE', #925, #49 ) ;
#667 = SURFACE_STYLE_FILL_AREA ( #844 ) ;
#668 = ORIENTED_EDGE ( 'NONE', *, *, #593, .T. ) ;
#669 = DIRECTION ( 'NONE',  ( -0.1003315022614176683, -0.9949540640923918433, -3.443686517116343800E-15 ) ) ;
#670 = SURFACE_STYLE_USAGE ( .BOTH. , #432 ) ;
#671 = EDGE_LOOP ( 'NONE', ( #297, #858, #253 ) ) ;
#672 = LINE ( 'NONE', #269, #813 ) ;
#673 = DIRECTION ( 'NONE',  ( -1.000000000000000000, -0.000000000000000000, -0.000000000000000000 ) ) ;
#674 = SURFACE_STYLE_FILL_AREA ( #363 ) ;
#675 = EDGE_CURVE ( 'NONE', #346, #8, #913, .T. ) ;
#676 = AXIS2_PLACEMENT_3D ( 'NONE', #514, #752, #56 ) ;
#677 = STYLED_ITEM ( 'NONE', ( #400 ), #777 ) ;
#678 =( LENGTH_UNIT ( ) NAMED_UNIT ( * ) SI_UNIT ( .MILLI., .METRE. ) );
#679 = EDGE_LOOP ( 'NONE', ( #41, #823, #1021, #889, #954 ) ) ;
#680 = DIRECTION ( 'NONE',  ( -1.000000000000000000, -0.000000000000000000, -0.000000000000000000 ) ) ;
#681 =( LENGTH_UNIT ( ) NAMED_UNIT ( * ) SI_UNIT ( .MILLI., .METRE. ) );
#682 = PRESENTATION_STYLE_ASSIGNMENT (( #1003 ) ) ;
#683 =( NAMED_UNIT ( * ) SI_UNIT ( $, .STERADIAN. ) SOLID_ANGLE_UNIT ( ) );
#684 = ORIENTED_EDGE ( 'NONE', *, *, #384, .T. ) ;
#685 =( NAMED_UNIT ( * ) SI_UNIT ( $, .STERADIAN. ) SOLID_ANGLE_UNIT ( ) );
#686 = FILL_AREA_STYLE ('',( #639 ) ) ;
#687 = FILL_AREA_STYLE_COLOUR ( '', #341 ) ;
#688 = SURFACE_SIDE_STYLE ('',( #446 ) ) ;
#689 = COLOUR_RGB ( '',0.7764705882352941346, 0.7568627450980391913, 0.7372549019607843590 ) ;
#690 = CARTESIAN_POINT ( 'NONE',  ( 0.000000000000000000, 0.000000000000000000, 0.000000000000000000 ) ) ;
#691 = AXIS2_PLACEMENT_3D ( 'NONE', #647, #978, #241 ) ;
#692 = VECTOR ( 'NONE', #650, 1000.000000000000000 ) ;
#693 = DIRECTION ( 'NONE',  ( -0.1003315022614176544, -0.9949540640923917323, -3.443686517116343405E-15 ) ) ;
#694 = MECHANICAL_DESIGN_GEOMETRIC_PRESENTATION_REPRESENTATION (  '', ( #1014 ), #545 ) ;
#695 = LINE ( 'NONE', #948, #544 ) ;
#696 = STYLED_ITEM ( 'NONE', ( #993 ), #868 ) ;
#697 = ADVANCED_FACE ( 'NONE', ( #188 ), #840, .T. ) ;
#698 = PLANE ( 'NONE',  #190 ) ;
#699 = ORIENTED_EDGE ( 'NONE', *, *, #151, .F. ) ;
#700 = CARTESIAN_POINT ( 'NONE',  ( 4.600000000000002309, 1.224646799147353207E-16, -1.000000000000000000 ) ) ;
#701 = SPHERICAL_SURFACE ( 'NONE', #528, 3.200000000000000178 ) ;
#702 = CARTESIAN_POINT ( 'NONE',  ( 0.1183307166263570381, -0.2280674907603642276, -0.8314443141724198183 ) ) ;
#703 = SURFACE_STYLE_USAGE ( .BOTH. , #538 ) ;
#704 = ADVANCED_FACE ( 'NONE', ( #230 ), #866, .T. ) ;
#705 = FACE_OUTER_BOUND ( 'NONE', #762, .T. ) ;
#706 = PRESENTATION_LAYER_ASSIGNMENT (  '', '', ( #273 ) ) ;
#707 = VERTEX_POINT ( 'NONE', #310 ) ;
#708 = AXIS2_PLACEMENT_3D ( 'NONE', #906, #22, #962 ) ;
#709 = CARTESIAN_POINT ( 'NONE',  ( 0.6271178757805834225, 0.000000000000000000, 0.000000000000000000 ) ) ;
#710 =( GEOMETRIC_REPRESENTATION_CONTEXT ( 3 ) GLOBAL_UNCERTAINTY_ASSIGNED_CONTEXT ( ( #96 ) ) GLOBAL_UNIT_ASSIGNED_CONTEXT ( ( #552, #374, #484 ) ) REPRESENTATION_CONTEXT ( 'NONE', 'WORKASPACE' ) );
#711 = DIRECTION ( 'NONE',  ( -0.9949540640923917323, 0.000000000000000000, 0.1003315022614175156 ) ) ;
#712 =( NAMED_UNIT ( * ) PLANE_ANGLE_UNIT ( ) SI_UNIT ( $, .RADIAN. ) );
#713 = ORIENTED_EDGE ( 'NONE', *, *, #675, .F. ) ;
#714 = SURFACE_STYLE_FILL_AREA ( #391 ) ;
#715 = DIRECTION ( 'NONE',  ( -0.000000000000000000, 0.000000000000000000, -1.000000000000000000 ) ) ;
#716 = PRESENTATION_STYLE_ASSIGNMENT (( #229 ) ) ;
#717 =( NAMED_UNIT ( * ) SI_UNIT ( $, .STERADIAN. ) SOLID_ANGLE_UNIT ( ) );
#718 = ORIENTED_EDGE ( 'NONE', *, *, #414, .F. ) ;
#719 = DIRECTION ( 'NONE',  ( -1.000000000000000000, -0.000000000000000000, -0.000000000000000000 ) ) ;
#720 = DIRECTION ( 'NONE',  ( 0.5530835219181906570, 0.8331258114970213624, 0.000000000000000000 ) ) ;
#721 = SURFACE_STYLE_USAGE ( .BOTH. , #234 ) ;
#722 = CIRCLE ( 'NONE', #575, 2.000000000000000000 ) ;
#723 = DIRECTION ( 'NONE',  ( 0.000000000000000000, 0.000000000000000000, 1.000000000000000000 ) ) ;
#724 = COLOUR_RGB ( '',0.7921568627450980005, 0.8196078431372548767, 0.9333333333333333481 ) ;
#725 = EDGE_CURVE ( 'NONE', #751, #853, #931, .T. ) ;
#726 = MECHANICAL_DESIGN_GEOMETRIC_PRESENTATION_REPRESENTATION (  '', ( #977 ), #960 ) ;
#727 = PRESENTATION_LAYER_ASSIGNMENT (  '', '', ( #880 ) ) ;
#728 = ORIENTED_EDGE ( 'NONE', *, *, #740, .T. ) ;
#729 = SURFACE_STYLE_FILL_AREA ( #160 ) ;
#730 = ORIENTED_EDGE ( 'NONE', *, *, #108, .T. ) ;
#731 = UNCERTAINTY_MEASURE_WITH_UNIT (LENGTH_MEASURE( 1.000000000000000082E-05 ), #659, 'distance_accuracy_value', 'NONE');
#732 = CARTESIAN_POINT ( 'NONE',  ( 0.000000000000000000, 0.2400000000000031275, -0.9099999999999993650 ) ) ;
#733 = SURFACE_SIDE_STYLE ('',( #23 ) ) ;
#734 = ORIENTED_EDGE ( 'NONE', *, *, #663, .F. ) ;
#735 = CARTESIAN_POINT ( 'NONE',  ( 1.370759493670886231, -1.084202172485504434E-16, 0.1017721518987341478 ) ) ;
#736 = ORIENTED_EDGE ( 'NONE', *, *, #326, .F. ) ;
#737 = FILL_AREA_STYLE_COLOUR ( '', #409 ) ;
#738 =( NAMED_UNIT ( * ) SI_UNIT ( $, .STERADIAN. ) SOLID_ANGLE_UNIT ( ) );
#739 =( NAMED_UNIT ( * ) SI_UNIT ( $, .STERADIAN. ) SOLID_ANGLE_UNIT ( ) );
#740 = EDGE_CURVE ( 'NONE', #255, #105, #695, .T. ) ;
#741 = FILL_AREA_STYLE ('',( #760 ) ) ;
#742 = LINE ( 'NONE', #239, #656 ) ;
#743 = ORIENTED_EDGE ( 'NONE', *, *, #488, .T. ) ;
#744 = DIRECTION ( 'NONE',  ( -1.000000000000000000, -0.000000000000000000, -0.000000000000000000 ) ) ;
#745 = STYLED_ITEM ( 'NONE', ( #520 ), #588 ) ;
#746 = COLOUR_RGB ( '',0.7764705882352941346, 0.7568627450980391913, 0.7372549019607843590 ) ;
#747 = MECHANICAL_DESIGN_GEOMETRIC_PRESENTATION_REPRESENTATION (  '', ( #880 ), #173 ) ;
#748 = CARTESIAN_POINT ( 'NONE',  ( 1.189999999999999947, 0.1199999999999999956, 0.1200000000000000094 ) ) ;
#749 = FILL_AREA_STYLE_COLOUR ( '', #159 ) ;
#750 = ADVANCED_FACE ( 'NONE', ( #537 ), #455, .F. ) ;
#751 = VERTEX_POINT ( 'NONE', #5 ) ;
#752 = DIRECTION ( 'NONE',  ( 0.000000000000000000, -1.000000000000000000, 0.000000000000000000 ) ) ;
#753 = FILL_AREA_STYLE_COLOUR ( '', #849 ) ;
#754 = DIRECTION ( 'NONE',  ( -1.000000000000000000, -0.000000000000000000, -0.000000000000000000 ) ) ;
#755 = VERTEX_POINT ( 'NONE', #700 ) ;
#756 = UNCERTAINTY_MEASURE_WITH_UNIT (LENGTH_MEASURE( 1.000000000000000082E-05 ), #628, 'distance_accuracy_value', 'NONE');
#757 = EDGE_CURVE ( 'NONE', #803, #410, #95, .T. ) ;
#758 = CARTESIAN_POINT ( 'NONE',  ( 2.640432800705813765, -0.8428923634937754983, 0.000000000000000000 ) ) ;
#759 =( LENGTH_UNIT ( ) NAMED_UNIT ( * ) SI_UNIT ( .MILLI., .METRE. ) );
#760 = FILL_AREA_STYLE_COLOUR ( '', #689 ) ;
#761 =( LENGTH_UNIT ( ) NAMED_UNIT ( * ) SI_UNIT ( .MILLI., .METRE. ) );
#762 = EDGE_LOOP ( 'NONE', ( #829, #176, #494, #899 ) ) ;
#763 = VECTOR ( 'NONE', #602, 1000.000000000000000 ) ;
#764 = CIRCLE ( 'NONE', #221, 3.198942222936095536 ) ;
#765 = STYLED_ITEM ( 'NONE', ( #476 ), #787 ) ;
#766 =( NAMED_UNIT ( * ) PLANE_ANGLE_UNIT ( ) SI_UNIT ( $, .RADIAN. ) );
#767 = DIRECTION ( 'NONE',  ( 0.000000000000000000, 0.000000000000000000, 1.000000000000000000 ) ) ;
#768 = AXIS2_PLACEMENT_3D ( 'NONE', #2, #1020, #223 ) ;
#769 = EDGE_LOOP ( 'NONE', ( #965, #730, #468, #684 ) ) ;
#770 = CARTESIAN_POINT ( 'NONE',  ( 0.8200840350970385328, 2.449293598294706414E-16, -2.000000000000000000 ) ) ;
#771 = CARTESIAN_POINT ( 'NONE',  ( 0.8200840350970385328, 0.000000000000000000, 0.000000000000000000 ) ) ;
#772 = DIRECTION ( 'NONE',  ( 0.5530835219181907680, -0.8331258114970213624, -1.881826697455874725E-16 ) ) ;
#773 = ORIENTED_EDGE ( 'NONE', *, *, #212, .F. ) ;
#774 =( LENGTH_UNIT ( ) NAMED_UNIT ( * ) SI_UNIT ( .MILLI., .METRE. ) );
#775 = DIRECTION ( 'NONE',  ( 0.5530835219181906570, 0.8331258114970213624, 0.000000000000000000 ) ) ;
#776 = DIRECTION ( 'NONE',  ( -1.000000000000000000, -0.000000000000000000, -0.000000000000000000 ) ) ;
#777 = ADVANCED_FACE ( 'NONE', ( #804 ), #88, .T. ) ;
#778 = DIRECTION ( 'NONE',  ( 0.000000000000000000, 0.000000000000000000, 1.000000000000000000 ) ) ;
#779 =( NAMED_UNIT ( * ) PLANE_ANGLE_UNIT ( ) SI_UNIT ( $, .RADIAN. ) );
#780 = STYLED_ITEM ( 'NONE', ( #58 ), #43 ) ;
#781 = FILL_AREA_STYLE_COLOUR ( '', #658 ) ;
#782 = AXIS2_PLACEMENT_3D ( 'NONE', #386, #1022, #549 ) ;
#783 = EDGE_CURVE ( 'NONE', #14, #404, #170, .T. ) ;
#784 = SURFACE_SIDE_STYLE ('',( #141 ) ) ;
#785 = SURFACE_SIDE_STYLE ('',( #935 ) ) ;
#786 = DIRECTION ( 'NONE',  ( 0.000000000000000000, 0.000000000000000000, 1.000000000000000000 ) ) ;
#787 = ADVANCED_FACE ( 'NONE', ( #485 ), #972, .T. ) ;
#788 =( NAMED_UNIT ( * ) PLANE_ANGLE_UNIT ( ) SI_UNIT ( $, .RADIAN. ) );
#789 =( LENGTH_UNIT ( ) NAMED_UNIT ( * ) SI_UNIT ( .MILLI., .METRE. ) );
#790 = SURFACE_STYLE_FILL_AREA ( #467 ) ;
#791 = PRESENTATION_LAYER_ASSIGNMENT (  '', '', ( #891 ) ) ;
#792 = STYLED_ITEM ( 'NONE', ( #945 ), #371 ) ;
#793 =( NAMED_UNIT ( * ) PLANE_ANGLE_UNIT ( ) SI_UNIT ( $, .RADIAN. ) );
#794 =( GEOMETRIC_REPRESENTATION_CONTEXT ( 3 ) GLOBAL_UNCERTAINTY_ASSIGNED_CONTEXT ( ( #329 ) ) GLOBAL_UNIT_ASSIGNED_CONTEXT ( ( #377, #793, #68 ) ) REPRESENTATION_CONTEXT ( 'NONE', 'WORKASPACE' ) );
#795 =( GEOMETRIC_REPRESENTATION_CONTEXT ( 3 ) GLOBAL_UNCERTAINTY_ASSIGNED_CONTEXT ( ( #366 ) ) GLOBAL_UNIT_ASSIGNED_CONTEXT ( ( #942, #210, #148 ) ) REPRESENTATION_CONTEXT ( 'NONE', 'WORKASPACE' ) );
#796 = STYLED_ITEM ( 'NONE', ( #280 ), #625 ) ;
#797 = COLOUR_RGB ( '',0.7921568627450980005, 0.8196078431372548767, 0.9333333333333333481 ) ;
#798 = ORIENTED_EDGE ( 'NONE', *, *, #518, .F. ) ;
#799 = CARTESIAN_POINT ( 'NONE',  ( 4.600000000000002309, 0.000000000000000000, 0.000000000000000000 ) ) ;
#800 = FILL_AREA_STYLE ('',( #219 ) ) ;
#801 = SURFACE_STYLE_FILL_AREA ( #686 ) ;
#802 = CARTESIAN_POINT ( 'NONE',  ( 3.200000000000000178, -8.817456953860942303E-16, 0.000000000000000000 ) ) ;
#803 = VERTEX_POINT ( 'NONE', #482 ) ;
#804 = FACE_OUTER_BOUND ( 'NONE', #117, .T. ) ;
#805 = EDGE_CURVE ( 'NONE', #808, #89, #742, .T. ) ;
#806 = ORIENTED_EDGE ( 'NONE', *, *, #142, .T. ) ;
#807 = CARTESIAN_POINT ( 'NONE',  ( 0.01778144479759559068, 0.2382069131296534192, 0.2382069131296541131 ) ) ;
#808 = VERTEX_POINT ( 'NONE', #177 ) ;
#809 = PRESENTATION_LAYER_ASSIGNMENT (  '', '', ( #375 ) ) ;
#810 =( NAMED_UNIT ( * ) SI_UNIT ( $, .STERADIAN. ) SOLID_ANGLE_UNIT ( ) );
#811 = CIRCLE ( 'NONE', #1012, 2.000000000000000000 ) ;
#812 = DIRECTION ( 'NONE',  ( 0.8331258114970213624, 0.000000000000000000, -0.5530835219181906570 ) ) ;
#813 = VECTOR ( 'NONE', #61, 1000.000000000000000 ) ;
#814 = MECHANICAL_DESIGN_GEOMETRIC_PRESENTATION_REPRESENTATION (  '', ( #677 ), #80 ) ;
#815 = DIRECTION ( 'NONE',  ( -0.1003315022614176683, 3.017703066837730067E-17, 0.9949540640923918433 ) ) ;
#816 = CIRCLE ( 'NONE', #474, 3.198942222936095536 ) ;
#817 = VERTEX_POINT ( 'NONE', #498 ) ;
#818 = UNCERTAINTY_MEASURE_WITH_UNIT (LENGTH_MEASURE( 1.000000000000000082E-05 ), #156, 'distance_accuracy_value', 'NONE');
#819 = CARTESIAN_POINT ( 'NONE',  ( 0.000000000000000000, -0.9100000000000003642, 0.2399999999999996858 ) ) ;
#820 = EDGE_CURVE ( 'NONE', #905, #599, #37, .T. ) ;
#821 = EDGE_LOOP ( 'NONE', ( #360, #328, #988 ) ) ;
#822 =( LENGTH_UNIT ( ) NAMED_UNIT ( * ) SI_UNIT ( .MILLI., .METRE. ) );
#823 = ORIENTED_EDGE ( 'NONE', *, *, #518, .T. ) ;
#824 = SURFACE_STYLE_USAGE ( .BOTH. , #90 ) ;
#825 = CARTESIAN_POINT ( 'NONE',  ( 2.640432800705812877, 0.8428923634937750542, 1.903886940982070610E-16 ) ) ;
#826 = FACE_OUTER_BOUND ( 'NONE', #843, .T. ) ;
#827 = DIRECTION ( 'NONE',  ( -0.9949540640923917323, -0.1003315022614175156, -3.503055678438368841E-16 ) ) ;
#828 = DIRECTION ( 'NONE',  ( 0.000000000000000000, 0.000000000000000000, 1.000000000000000000 ) ) ;
#829 = ORIENTED_EDGE ( 'NONE', *, *, #839, .T. ) ;
#830 = UNCERTAINTY_MEASURE_WITH_UNIT (LENGTH_MEASURE( 1.000000000000000082E-05 ), #975, 'distance_accuracy_value', 'NONE');
#831 = SURFACE_STYLE_FILL_AREA ( #565 ) ;
#832 = CIRCLE ( 'NONE', #275, 1.000000000000000000 ) ;
#833 =( GEOMETRIC_REPRESENTATION_CONTEXT ( 3 ) GLOBAL_UNCERTAINTY_ASSIGNED_CONTEXT ( ( #879 ) ) GLOBAL_UNIT_ASSIGNED_CONTEXT ( ( #874, #6, #75 ) ) REPRESENTATION_CONTEXT ( 'NONE', 'WORKASPACE' ) );
#834 = CARTESIAN_POINT ( 'NONE',  ( 0.6271178757805832005, -1.902702702702705029, -2.330138774593884602E-16 ) ) ;
#835 = PRESENTATION_LAYER_ASSIGNMENT (  '', '', ( #322 ) ) ;
#836 =( LENGTH_UNIT ( ) NAMED_UNIT ( * ) SI_UNIT ( .MILLI., .METRE. ) );
#837 = ORIENTED_EDGE ( 'NONE', *, *, #354, .T. ) ;
#838 =( NAMED_UNIT ( * ) PLANE_ANGLE_UNIT ( ) SI_UNIT ( $, .RADIAN. ) );
#839 = EDGE_CURVE ( 'NONE', #817, #755, #851, .T. ) ;
#840 = CYLINDRICAL_SURFACE ( 'NONE', #189, 1.000000000000000000 ) ;
#841 = CARTESIAN_POINT ( 'NONE',  ( 4.600000000000002309, 0.000000000000000000, 0.000000000000000000 ) ) ;
#842 = FILL_AREA_STYLE ('',( #337 ) ) ;
#843 = EDGE_LOOP ( 'NONE', ( #728, #499, #994, #548, #278 ) ) ;
#844 = FILL_AREA_STYLE ('',( #597 ) ) ;
#845 = VERTEX_POINT ( 'NONE', #886 ) ;
#846 = ADVANCED_FACE ( 'NONE', ( #162 ), #182, .T. ) ;
#847 = FILL_AREA_STYLE ('',( #687 ) ) ;
#848 = ORIENTED_EDGE ( 'NONE', *, *, #622, .T. ) ;
#849 = COLOUR_RGB ( '',0.7764705882352941346, 0.7568627450980391913, 0.7372549019607843590 ) ;
#850 =( GEOMETRIC_REPRESENTATION_CONTEXT ( 3 ) GLOBAL_UNCERTAINTY_ASSIGNED_CONTEXT ( ( #830 ) ) GLOBAL_UNIT_ASSIGNED_CONTEXT ( ( #975, #580, #240 ) ) REPRESENTATION_CONTEXT ( 'NONE', 'WORKASPACE' ) );
#851 = CIRCLE ( 'NONE', #158, 1.000000000000000000 ) ;
#852 = STYLED_ITEM ( 'NONE', ( #313 ), #1016 ) ;
#853 = VERTEX_POINT ( 'NONE', #276 ) ;
#854 = CARTESIAN_POINT ( 'NONE',  ( -25.39999999999996305, 0.000000000000000000, 2.000000000000000000 ) ) ;
#855 = DIRECTION ( 'NONE',  ( -1.000000000000000000, -0.000000000000000000, -0.000000000000000000 ) ) ;
#856 = ADVANCED_FACE ( 'NONE', ( #529 ), #48, .F. ) ;
#857 = DIRECTION ( 'NONE',  ( 0.000000000000000000, 0.000000000000000000, 1.000000000000000000 ) ) ;
#858 = ORIENTED_EDGE ( 'NONE', *, *, #783, .F. ) ;
#859 = DIRECTION ( 'NONE',  ( -0.1003315022614176544, -0.9949540640923917323, -3.443686517116343405E-15 ) ) ;
#860 = DIRECTION ( 'NONE',  ( -0.8331258114970213624, 0.5530835219181906570, 0.000000000000000000 ) ) ;
#861 = DIRECTION ( 'NONE',  ( 1.000000000000000000, 0.000000000000000000, 0.000000000000000000 ) ) ;
#862 = EDGE_CURVE ( 'NONE', #346, #845, #944, .T. ) ;
#863 = FILL_AREA_STYLE_COLOUR ( '', #321 ) ;
#864 = STYLED_ITEM ( 'NONE', ( #283 ), #259 ) ;
#865 = MECHANICAL_DESIGN_GEOMETRIC_PRESENTATION_REPRESENTATION (  '', ( #394 ), #850 ) ;
#866 = PLANE ( 'NONE',  #595 ) ;
#867 = MECHANICAL_DESIGN_GEOMETRIC_PRESENTATION_REPRESENTATION (  '', ( #852 ), #97 ) ;
#868 = ADVANCED_FACE ( 'NONE', ( #200 ), #522, .T. ) ;
#869 = DIRECTION ( 'NONE',  ( -1.000000000000000000, -0.000000000000000000, -0.000000000000000000 ) ) ;
#870 = DIRECTION ( 'NONE',  ( 0.9949540640923917323, -0.1003315022614176544, -3.503055678438373771E-16 ) ) ;
#871 = LINE ( 'NONE', #70, #895 ) ;
#872 = FILL_AREA_STYLE_COLOUR ( '', #407 ) ;
#873 = CARTESIAN_POINT ( 'NONE',  ( 0.6271178757805834225, 0.000000000000000000, 0.000000000000000000 ) ) ;
#874 =( LENGTH_UNIT ( ) NAMED_UNIT ( * ) SI_UNIT ( .MILLI., .METRE. ) );
#875 = PRESENTATION_LAYER_ASSIGNMENT (  '', '', ( #441 ) ) ;
#876 = TOROIDAL_SURFACE ( 'NONE', #358, 1.760000000000000009, 0.2400000000000000466 ) ;
#877 = ORIENTED_EDGE ( 'NONE', *, *, #151, .T. ) ;
#878 = FILL_AREA_STYLE_COLOUR ( '', #129 ) ;
#879 = UNCERTAINTY_MEASURE_WITH_UNIT (LENGTH_MEASURE( 1.000000000000000082E-05 ), #874, 'distance_accuracy_value', 'NONE');
#880 = STYLED_ITEM ( 'NONE', ( #438 ), #856 ) ;
#881 = CARTESIAN_POINT ( 'NONE',  ( 0.8200840350970385328, 0.000000000000000000, 0.000000000000000000 ) ) ;
#882 =( GEOMETRIC_REPRESENTATION_CONTEXT ( 3 ) GLOBAL_UNCERTAINTY_ASSIGNED_CONTEXT ( ( #429 ) ) GLOBAL_UNIT_ASSIGNED_CONTEXT ( ( #759, #199, #389 ) ) REPRESENTATION_CONTEXT ( 'NONE', 'WORKASPACE' ) );
#883 = DIRECTION ( 'NONE',  ( 0.000000000000000000, 1.000000000000000000, 1.224646799147353207E-16 ) ) ;
#884 = ADVANCED_FACE ( 'NONE', ( #153 ), #698, .T. ) ;
#885 = ORIENTED_EDGE ( 'NONE', *, *, #532, .F. ) ;
#886 = CARTESIAN_POINT ( 'NONE',  ( 1.600000000000000755, 2.449293598294706414E-16, -2.000000000000000000 ) ) ;
#887 = DIRECTION ( 'NONE',  ( 0.9899837497469133885, -0.09983029409212607064, 0.09983029409212572369 ) ) ;
#888 = SURFACE_SIDE_STYLE ('',( #168 ) ) ;
#889 = ORIENTED_EDGE ( 'NONE', *, *, #757, .F. ) ;
#890 = AXIS2_PLACEMENT_3D ( 'NONE', #370, #77, #711 ) ;
#891 = STYLED_ITEM ( 'NONE', ( #345 ), #122 ) ;
#892 = ORIENTED_EDGE ( 'NONE', *, *, #195, .F. ) ;
#893 = LINE ( 'NONE', #28, #157 ) ;
#894 = EDGE_CURVE ( 'NONE', #255, #661, #130, .T. ) ;
#895 = VECTOR ( 'NONE', #393, 1000.000000000000000 ) ;
#896 = MECHANICAL_DESIGN_GEOMETRIC_PRESENTATION_REPRESENTATION (  '', ( #765 ), #3 ) ;
#897 = CARTESIAN_POINT ( 'NONE',  ( 1.370759493670886009, 0.000000000000000000, -0.1017721518987341756 ) ) ;
#898 = PRESENTATION_LAYER_ASSIGNMENT (  '', '', ( #38 ) ) ;
#899 = ORIENTED_EDGE ( 'NONE', *, *, #956, .F. ) ;
#900 = DIRECTION ( 'NONE',  ( 0.9899837497469133885, 0.09983029409212594574, -0.09983029409212557104 ) ) ;
#901 = ORIENTED_EDGE ( 'NONE', *, *, #725, .F. ) ;
#902 = UNCERTAINTY_MEASURE_WITH_UNIT (LENGTH_MEASURE( 1.000000000000000082E-05 ), #39, 'distance_accuracy_value', 'NONE');
#903 = PRODUCT_DEFINITION ( 'UNKNOWN', '', #344, #351 ) ;
#904 = PRESENTATION_STYLE_ASSIGNMENT (( #999 ) ) ;
#905 = VERTEX_POINT ( 'NONE', #702 ) ;
#906 = CARTESIAN_POINT ( 'NONE',  ( 0.8200840350970380888, 2.155378366499341556E-16, -1.760000000000000009 ) ) ;
#907 = CARTESIAN_POINT ( 'NONE',  ( 1.189999999999999947, -0.1199999999999999817, -0.1199999999999999956 ) ) ;
#908 = CARTESIAN_POINT ( 'NONE',  ( 1.370759493670886009, 0.000000000000000000, -0.1017721518987341756 ) ) ;
#909 = APPLICATION_CONTEXT ( 'automotive_design' ) ;
#910 =( LENGTH_UNIT ( ) NAMED_UNIT ( * ) SI_UNIT ( .MILLI., .METRE. ) );
#911 = ORIENTED_EDGE ( 'NONE', *, *, #894, .F. ) ;
#912 = UNCERTAINTY_MEASURE_WITH_UNIT (LENGTH_MEASURE( 1.000000000000000082E-05 ), #527, 'distance_accuracy_value', 'NONE');
#913 = LINE ( 'NONE', #854, #339 ) ;
#914 = AXIS2_PLACEMENT_3D ( 'NONE', #505, #815, #29 ) ;
#915 = AXIS2_PLACEMENT_3D ( 'NONE', #102, #720, #419 ) ;
#916 = PRESENTATION_LAYER_ASSIGNMENT (  '', '', ( #458 ) ) ;
#917 = AXIS2_PLACEMENT_3D ( 'NONE', #921, #433, #767 ) ;
#918 = CARTESIAN_POINT ( 'NONE',  ( 1.370759493670886231, -0.1017721518987341478, -4.637557864168895746E-16 ) ) ;
#919 = SURFACE_STYLE_USAGE ( .BOTH. , #111 ) ;
#920 = EDGE_LOOP ( 'NONE', ( #134, #216, #605 ) ) ;
#921 = CARTESIAN_POINT ( 'NONE',  ( 1.600000000000000755, 0.000000000000000000, 0.000000000000000000 ) ) ;
#922 = ORIENTED_EDGE ( 'NONE', *, *, #401, .F. ) ;
#923 = UNCERTAINTY_MEASURE_WITH_UNIT (LENGTH_MEASURE( 1.000000000000000082E-05 ), #910, 'distance_accuracy_value', 'NONE');
#924 = SURFACE_SIDE_STYLE ('',( #606 ) ) ;
#925 = CARTESIAN_POINT ( 'NONE',  ( 0.000000000000000000, 0.2399999999999968547, 0.9100000000000009193 ) ) ;
#926 = SURFACE_STYLE_USAGE ( .BOTH. , #119 ) ;
#927 = EDGE_CURVE ( 'NONE', #410, #206, #657, .T. ) ;
#928 = CARTESIAN_POINT ( 'NONE',  ( 0.1183307166263566079, 0.8314443141724188191, -0.2280674907603674195 ) ) ;
#929 = PRESENTATION_LAYER_ASSIGNMENT (  '', '', ( #336 ) ) ;
#930 = CIRCLE ( 'NONE', #169, 3.198942222936095536 ) ;
#931 = CIRCLE ( 'NONE', #782, 1.000000000000000000 ) ;
#932 = SURFACE_STYLE_USAGE ( .BOTH. , #784 ) ;
#933 = PRESENTATION_LAYER_ASSIGNMENT (  '', '', ( #796 ) ) ;
#934 = FACE_OUTER_BOUND ( 'NONE', #579, .T. ) ;
#935 = SURFACE_STYLE_FILL_AREA ( #300 ) ;
#936 = EDGE_CURVE ( 'NONE', #404, #577, #816, .T. ) ;
#937 = DIRECTION ( 'NONE',  ( -0.9949540640923917323, 0.000000000000000000, 0.1003315022614175156 ) ) ;
#938 = DIRECTION ( 'NONE',  ( 0.000000000000000000, 0.000000000000000000, -1.000000000000000000 ) ) ;
#939 = CIRCLE ( 'NONE', #890, 3.198942222936095536 ) ;
#940 = CIRCLE ( 'NONE', #469, 3.035855235850013045 ) ;
#941 = CIRCLE ( 'NONE', #1, 1.000000000000000000 ) ;
#942 =( LENGTH_UNIT ( ) NAMED_UNIT ( * ) SI_UNIT ( .MILLI., .METRE. ) );
#943 = PRESENTATION_LAYER_ASSIGNMENT (  '', '', ( #560 ) ) ;
#944 = CIRCLE ( 'NONE', #917, 2.000000000000000000 ) ;
#945 = PRESENTATION_STYLE_ASSIGNMENT (( #703 ) ) ;
#946 = FACE_OUTER_BOUND ( 'NONE', #1001, .T. ) ;
#947 = PRESENTATION_STYLE_ASSIGNMENT (( #618 ) ) ;
#948 = CARTESIAN_POINT ( 'NONE',  ( 0.000000000000000000, 0.9100000000000000311, -0.2400000000000000466 ) ) ;
#949 = CARTESIAN_POINT ( 'NONE',  ( 0.8200840350970380888, 0.000000000000000000, 0.000000000000000000 ) ) ;
#950 = SURFACE_SIDE_STYLE ('',( #466 ) ) ;
#951 =( LENGTH_UNIT ( ) NAMED_UNIT ( * ) SI_UNIT ( .MILLI., .METRE. ) );
#952 = EDGE_LOOP ( 'NONE', ( #734, #974, #55, #901 ) ) ;
#953 = DIRECTION ( 'NONE',  ( -1.000000000000000000, -0.000000000000000000, -0.000000000000000000 ) ) ;
#954 = ORIENTED_EDGE ( 'NONE', *, *, #622, .F. ) ;
#955 = FACE_OUTER_BOUND ( 'NONE', #585, .T. ) ;
#956 = EDGE_CURVE ( 'NONE', #817, #853, #215, .T. ) ;
#957 = MECHANICAL_DESIGN_GEOMETRIC_PRESENTATION_REPRESENTATION (  '', ( #375 ), #506 ) ;
#958 = DIRECTION ( 'NONE',  ( -0.000000000000000000, 0.000000000000000000, -1.000000000000000000 ) ) ;
#959 = STYLED_ITEM ( 'NONE', ( #716 ), #91 ) ;
#960 =( GEOMETRIC_REPRESENTATION_CONTEXT ( 3 ) GLOBAL_UNCERTAINTY_ASSIGNED_CONTEXT ( ( #513 ) ) GLOBAL_UNIT_ASSIGNED_CONTEXT ( ( #774, #367, #685 ) ) REPRESENTATION_CONTEXT ( 'NONE', 'WORKASPACE' ) );
#961 = ORIENTED_EDGE ( 'NONE', *, *, #13, .T. ) ;
#962 = DIRECTION ( 'NONE',  ( 0.000000000000000000, -1.224646799147353700E-16, 1.000000000000000000 ) ) ;
#963 = ORIENTED_EDGE ( 'NONE', *, *, #820, .T. ) ;
#964 = SURFACE_SIDE_STYLE ('',( #568 ) ) ;
#965 = ORIENTED_EDGE ( 'NONE', *, *, #242, .F. ) ;
#966 = CARTESIAN_POINT ( 'NONE',  ( 1.600000000000000755, 0.000000000000000000, 0.000000000000000000 ) ) ;
#967 = FILL_AREA_STYLE_COLOUR ( '', #295 ) ;
#968 = DIRECTION ( 'NONE',  ( -1.000000000000000000, -0.000000000000000000, -0.000000000000000000 ) ) ;
#969 = MECHANICAL_DESIGN_GEOMETRIC_PRESENTATION_REPRESENTATION (  '', ( #441 ), #1010 ) ;
#970 = VERTEX_POINT ( 'NONE', #213 ) ;
#971 = AXIS2_PLACEMENT_3D ( 'NONE', #115, #348, #420 ) ;
#972 = PLANE ( 'NONE',  #576 ) ;
#973 =( GEOMETRIC_REPRESENTATION_CONTEXT ( 3 ) GLOBAL_UNCERTAINTY_ASSIGNED_CONTEXT ( ( #756 ) ) GLOBAL_UNIT_ASSIGNED_CONTEXT ( ( #628, #298, #302 ) ) REPRESENTATION_CONTEXT ( 'NONE', 'WORKASPACE' ) );
#974 = ORIENTED_EDGE ( 'NONE', *, *, #224, .T. ) ;
#975 =( LENGTH_UNIT ( ) NAMED_UNIT ( * ) SI_UNIT ( .MILLI., .METRE. ) );
#976 = TOROIDAL_SURFACE ( 'NONE', #78, 1.760000000000000009, 0.2400000000000000466 ) ;
#977 = STYLED_ITEM ( 'NONE', ( #352 ), #697 ) ;
#978 = DIRECTION ( 'NONE',  ( 1.000000000000000000, 0.000000000000000000, 0.000000000000000000 ) ) ;
#979 = COLOUR_RGB ( '',0.7764705882352941346, 0.7568627450980391913, 0.7372549019607843590 ) ;
#980 =( GEOMETRIC_REPRESENTATION_CONTEXT ( 3 ) GLOBAL_UNCERTAINTY_ASSIGNED_CONTEXT ( ( #342 ) ) GLOBAL_UNIT_ASSIGNED_CONTEXT ( ( #836, #265, #981 ) ) REPRESENTATION_CONTEXT ( 'NONE', 'WORKASPACE' ) );
#981 =( NAMED_UNIT ( * ) SI_UNIT ( $, .STERADIAN. ) SOLID_ANGLE_UNIT ( ) );
#982 = DIRECTION ( 'NONE',  ( -0.1003315022614175156, 0.9949540640923917323, 3.639837216460794584E-15 ) ) ;
#983 = DIRECTION ( 'NONE',  ( 0.5530835219181907680, 3.097025893495979597E-15, -0.8331258114970213624 ) ) ;
#984 = UNCERTAINTY_MEASURE_WITH_UNIT (LENGTH_MEASURE( 1.000000000000000082E-05 ), #678, 'distance_accuracy_value', 'NONE');
#985 = DIRECTION ( 'NONE',  ( -0.9949540640923917323, -0.1003315022614175156, 0.000000000000000000 ) ) ;
#986 =( LENGTH_UNIT ( ) NAMED_UNIT ( * ) SI_UNIT ( .MILLI., .METRE. ) );
#987 = EDGE_LOOP ( 'NONE', ( #116, #877, #481, #503 ) ) ;
#988 = ORIENTED_EDGE ( 'NONE', *, *, #509, .F. ) ;
#989 =( LENGTH_UNIT ( ) NAMED_UNIT ( * ) SI_UNIT ( .MILLI., .METRE. ) );
#990 = CARTESIAN_POINT ( 'NONE',  ( 0.8200840350970380888, 0.000000000000000000, 0.000000000000000000 ) ) ;
#991 = EDGE_CURVE ( 'NONE', #905, #120, #464, .T. ) ;
#992 = CARTESIAN_POINT ( 'NONE',  ( 1.189999999999999947, 0.1199999999999999956, 0.1200000000000000094 ) ) ;
#993 = PRESENTATION_STYLE_ASSIGNMENT (( #584 ) ) ;
#994 = ORIENTED_EDGE ( 'NONE', *, *, #475, .F. ) ;
#995 = UNCERTAINTY_MEASURE_WITH_UNIT (LENGTH_MEASURE( 1.000000000000000082E-05 ), #986, 'distance_accuracy_value', 'NONE');
#996 = MECHANICAL_DESIGN_GEOMETRIC_PRESENTATION_REPRESENTATION (  '', ( #864 ), #290 ) ;
#997 = AXIS2_PLACEMENT_3D ( 'NONE', #569, #334, #723 ) ;
#998 = COLOUR_RGB ( '',0.7764705882352941346, 0.7568627450980391913, 0.7372549019607843590 ) ;
#999 = SURFACE_STYLE_USAGE ( .BOTH. , #501 ) ;
#1000 = PRESENTATION_STYLE_ASSIGNMENT (( #926 ) ) ;
#1001 = EDGE_LOOP ( 'NONE', ( #668, #20, #84 ) ) ;
#1002 = SURFACE_SIDE_STYLE ('',( #531 ) ) ;
#1003 = SURFACE_STYLE_USAGE ( .BOTH. , #525 ) ;
#1004 = ADVANCED_FACE ( 'NONE', ( #62 ), #648, .T. ) ;
#1005 = ORIENTED_EDGE ( 'NONE', *, *, #224, .F. ) ;
#1006 = FILL_AREA_STYLE ('',( #202 ) ) ;
#1007 = APPLICATION_PROTOCOL_DEFINITION ( 'draft international standard', 'automotive_design', 1998, #4 ) ;
#1008 = SURFACE_STYLE_FILL_AREA ( #403 ) ;
#1009 = ORIENTED_EDGE ( 'NONE', *, *, #936, .F. ) ;
#1010 =( GEOMETRIC_REPRESENTATION_CONTEXT ( 3 ) GLOBAL_UNCERTAINTY_ASSIGNED_CONTEXT ( ( #912 ) ) GLOBAL_UNIT_ASSIGNED_CONTEXT ( ( #527, #388, #546 ) ) REPRESENTATION_CONTEXT ( 'NONE', 'WORKASPACE' ) );
#1011 = SURFACE_STYLE_USAGE ( .BOTH. , #688 ) ;
#1012 = AXIS2_PLACEMENT_3D ( 'NONE', #771, #353, #270 ) ;
#1013 = AXIS2_PLACEMENT_3D ( 'NONE', #459, #558, #10 ) ;
#1014 = STYLED_ITEM ( 'NONE', ( #1000 ), #846 ) ;
#1015 = STYLED_ITEM ( 'NONE', ( #682 ), #1019 ) ;
#1016 = ADVANCED_FACE ( 'NONE', ( #705 ), #642, .T. ) ;
#1017 =( NAMED_UNIT ( * ) SI_UNIT ( $, .STERADIAN. ) SOLID_ANGLE_UNIT ( ) );
#1018 = CARTESIAN_POINT ( 'NONE',  ( 1.600000000000000755, 0.000000000000000000, 2.000000000000000000 ) ) ;
#1019 = ADVANCED_FACE ( 'NONE', ( #826 ), #260, .F. ) ;
#1020 = DIRECTION ( 'NONE',  ( -0.000000000000000000, 0.000000000000000000, 1.000000000000000000 ) ) ;
#1021 = ORIENTED_EDGE ( 'NONE', *, *, #447, .F. ) ;
#1022 = DIRECTION ( 'NONE',  ( -1.000000000000000000, -0.000000000000000000, -0.000000000000000000 ) ) ;
#1023 = CLOSED_SHELL ( 'NONE', ( #309, #43, #1016, #371, #1004, #9, #91, #777, #588, #697, #79, #846, #259, #122, #1019, #856, #884, #750, #787, #868, #293, #704, #24 ) ) ;
#1024 = DIRECTION ( 'NONE',  ( -0.000000000000000000, 0.000000000000000000, 1.000000000000000000 ) ) ;
#1025 = CIRCLE ( 'NONE', #146, 3.035855235850012601 ) ;
ENDSEC;
END-ISO-10303-21;
