G04 #@! TF.GenerationSoftware,KiCad,Pcbnew,8.0.5*
G04 #@! TF.CreationDate,2024-09-18T07:36:17+09:00*
G04 #@! TF.ProjectId,SandyLP_Middle_Isolated_Area,53616e64-794c-4505-9f4d-6964646c655f,v.0*
G04 #@! TF.SameCoordinates,Original*
G04 #@! TF.FileFunction,AssemblyDrawing,Top*
%FSLAX46Y46*%
G04 Gerber Fmt 4.6, Leading zero omitted, Abs format (unit mm)*
G04 Created by KiCad (PCBNEW 8.0.5) date 2024-09-18 07:36:17*
%MOMM*%
%LPD*%
G01*
G04 APERTURE LIST*
%ADD10C,0.150000*%
%ADD11C,0.100000*%
%ADD12C,0.120000*%
G04 APERTURE END LIST*
D10*
X47325754Y-49172749D02*
X46325754Y-49172749D01*
X46325754Y-49172749D02*
X46325754Y-48934654D01*
X46325754Y-48934654D02*
X46373373Y-48791797D01*
X46373373Y-48791797D02*
X46468611Y-48696559D01*
X46468611Y-48696559D02*
X46563849Y-48648940D01*
X46563849Y-48648940D02*
X46754325Y-48601321D01*
X46754325Y-48601321D02*
X46897182Y-48601321D01*
X46897182Y-48601321D02*
X47087658Y-48648940D01*
X47087658Y-48648940D02*
X47182896Y-48696559D01*
X47182896Y-48696559D02*
X47278135Y-48791797D01*
X47278135Y-48791797D02*
X47325754Y-48934654D01*
X47325754Y-48934654D02*
X47325754Y-49172749D01*
X46659087Y-47744178D02*
X47325754Y-47744178D01*
X46278135Y-47982273D02*
X46992420Y-48220368D01*
X46992420Y-48220368D02*
X46992420Y-47601321D01*
X66375754Y-49172749D02*
X65375754Y-49172749D01*
X65375754Y-49172749D02*
X65375754Y-48934654D01*
X65375754Y-48934654D02*
X65423373Y-48791797D01*
X65423373Y-48791797D02*
X65518611Y-48696559D01*
X65518611Y-48696559D02*
X65613849Y-48648940D01*
X65613849Y-48648940D02*
X65804325Y-48601321D01*
X65804325Y-48601321D02*
X65947182Y-48601321D01*
X65947182Y-48601321D02*
X66137658Y-48648940D01*
X66137658Y-48648940D02*
X66232896Y-48696559D01*
X66232896Y-48696559D02*
X66328135Y-48791797D01*
X66328135Y-48791797D02*
X66375754Y-48934654D01*
X66375754Y-48934654D02*
X66375754Y-49172749D01*
X65375754Y-48267987D02*
X65375754Y-47648940D01*
X65375754Y-47648940D02*
X65756706Y-47982273D01*
X65756706Y-47982273D02*
X65756706Y-47839416D01*
X65756706Y-47839416D02*
X65804325Y-47744178D01*
X65804325Y-47744178D02*
X65851944Y-47696559D01*
X65851944Y-47696559D02*
X65947182Y-47648940D01*
X65947182Y-47648940D02*
X66185277Y-47648940D01*
X66185277Y-47648940D02*
X66280515Y-47696559D01*
X66280515Y-47696559D02*
X66328135Y-47744178D01*
X66328135Y-47744178D02*
X66375754Y-47839416D01*
X66375754Y-47839416D02*
X66375754Y-48125130D01*
X66375754Y-48125130D02*
X66328135Y-48220368D01*
X66328135Y-48220368D02*
X66280515Y-48267987D01*
X59944149Y-55032480D02*
X60087006Y-55080099D01*
X60087006Y-55080099D02*
X60325101Y-55080099D01*
X60325101Y-55080099D02*
X60420339Y-55032480D01*
X60420339Y-55032480D02*
X60467958Y-54984860D01*
X60467958Y-54984860D02*
X60515577Y-54889622D01*
X60515577Y-54889622D02*
X60515577Y-54794384D01*
X60515577Y-54794384D02*
X60467958Y-54699146D01*
X60467958Y-54699146D02*
X60420339Y-54651527D01*
X60420339Y-54651527D02*
X60325101Y-54603908D01*
X60325101Y-54603908D02*
X60134625Y-54556289D01*
X60134625Y-54556289D02*
X60039387Y-54508670D01*
X60039387Y-54508670D02*
X59991768Y-54461051D01*
X59991768Y-54461051D02*
X59944149Y-54365813D01*
X59944149Y-54365813D02*
X59944149Y-54270575D01*
X59944149Y-54270575D02*
X59991768Y-54175337D01*
X59991768Y-54175337D02*
X60039387Y-54127718D01*
X60039387Y-54127718D02*
X60134625Y-54080099D01*
X60134625Y-54080099D02*
X60372720Y-54080099D01*
X60372720Y-54080099D02*
X60515577Y-54127718D01*
X60848911Y-54080099D02*
X61087006Y-55080099D01*
X61087006Y-55080099D02*
X61277482Y-54365813D01*
X61277482Y-54365813D02*
X61467958Y-55080099D01*
X61467958Y-55080099D02*
X61706054Y-54080099D01*
X61848911Y-55175337D02*
X62610815Y-55175337D01*
X62848911Y-55080099D02*
X62848911Y-54080099D01*
X62848911Y-54080099D02*
X63229863Y-54080099D01*
X63229863Y-54080099D02*
X63325101Y-54127718D01*
X63325101Y-54127718D02*
X63372720Y-54175337D01*
X63372720Y-54175337D02*
X63420339Y-54270575D01*
X63420339Y-54270575D02*
X63420339Y-54413432D01*
X63420339Y-54413432D02*
X63372720Y-54508670D01*
X63372720Y-54508670D02*
X63325101Y-54556289D01*
X63325101Y-54556289D02*
X63229863Y-54603908D01*
X63229863Y-54603908D02*
X62848911Y-54603908D01*
X64372720Y-55080099D02*
X63801292Y-55080099D01*
X64087006Y-55080099D02*
X64087006Y-54080099D01*
X64087006Y-54080099D02*
X63991768Y-54222956D01*
X63991768Y-54222956D02*
X63896530Y-54318194D01*
X63896530Y-54318194D02*
X63801292Y-54365813D01*
X40417959Y-55032480D02*
X40560816Y-55080099D01*
X40560816Y-55080099D02*
X40798911Y-55080099D01*
X40798911Y-55080099D02*
X40894149Y-55032480D01*
X40894149Y-55032480D02*
X40941768Y-54984860D01*
X40941768Y-54984860D02*
X40989387Y-54889622D01*
X40989387Y-54889622D02*
X40989387Y-54794384D01*
X40989387Y-54794384D02*
X40941768Y-54699146D01*
X40941768Y-54699146D02*
X40894149Y-54651527D01*
X40894149Y-54651527D02*
X40798911Y-54603908D01*
X40798911Y-54603908D02*
X40608435Y-54556289D01*
X40608435Y-54556289D02*
X40513197Y-54508670D01*
X40513197Y-54508670D02*
X40465578Y-54461051D01*
X40465578Y-54461051D02*
X40417959Y-54365813D01*
X40417959Y-54365813D02*
X40417959Y-54270575D01*
X40417959Y-54270575D02*
X40465578Y-54175337D01*
X40465578Y-54175337D02*
X40513197Y-54127718D01*
X40513197Y-54127718D02*
X40608435Y-54080099D01*
X40608435Y-54080099D02*
X40846530Y-54080099D01*
X40846530Y-54080099D02*
X40989387Y-54127718D01*
X41322721Y-54080099D02*
X41560816Y-55080099D01*
X41560816Y-55080099D02*
X41751292Y-54365813D01*
X41751292Y-54365813D02*
X41941768Y-55080099D01*
X41941768Y-55080099D02*
X42179864Y-54080099D01*
X42322721Y-55175337D02*
X43084625Y-55175337D01*
X43656054Y-54556289D02*
X43798911Y-54603908D01*
X43798911Y-54603908D02*
X43846530Y-54651527D01*
X43846530Y-54651527D02*
X43894149Y-54746765D01*
X43894149Y-54746765D02*
X43894149Y-54889622D01*
X43894149Y-54889622D02*
X43846530Y-54984860D01*
X43846530Y-54984860D02*
X43798911Y-55032480D01*
X43798911Y-55032480D02*
X43703673Y-55080099D01*
X43703673Y-55080099D02*
X43322721Y-55080099D01*
X43322721Y-55080099D02*
X43322721Y-54080099D01*
X43322721Y-54080099D02*
X43656054Y-54080099D01*
X43656054Y-54080099D02*
X43751292Y-54127718D01*
X43751292Y-54127718D02*
X43798911Y-54175337D01*
X43798911Y-54175337D02*
X43846530Y-54270575D01*
X43846530Y-54270575D02*
X43846530Y-54365813D01*
X43846530Y-54365813D02*
X43798911Y-54461051D01*
X43798911Y-54461051D02*
X43751292Y-54508670D01*
X43751292Y-54508670D02*
X43656054Y-54556289D01*
X43656054Y-54556289D02*
X43322721Y-54556289D01*
X44275102Y-55032480D02*
X44417959Y-55080099D01*
X44417959Y-55080099D02*
X44656054Y-55080099D01*
X44656054Y-55080099D02*
X44751292Y-55032480D01*
X44751292Y-55032480D02*
X44798911Y-54984860D01*
X44798911Y-54984860D02*
X44846530Y-54889622D01*
X44846530Y-54889622D02*
X44846530Y-54794384D01*
X44846530Y-54794384D02*
X44798911Y-54699146D01*
X44798911Y-54699146D02*
X44751292Y-54651527D01*
X44751292Y-54651527D02*
X44656054Y-54603908D01*
X44656054Y-54603908D02*
X44465578Y-54556289D01*
X44465578Y-54556289D02*
X44370340Y-54508670D01*
X44370340Y-54508670D02*
X44322721Y-54461051D01*
X44322721Y-54461051D02*
X44275102Y-54365813D01*
X44275102Y-54365813D02*
X44275102Y-54270575D01*
X44275102Y-54270575D02*
X44322721Y-54175337D01*
X44322721Y-54175337D02*
X44370340Y-54127718D01*
X44370340Y-54127718D02*
X44465578Y-54080099D01*
X44465578Y-54080099D02*
X44703673Y-54080099D01*
X44703673Y-54080099D02*
X44846530Y-54127718D01*
X45798911Y-55080099D02*
X45227483Y-55080099D01*
X45513197Y-55080099D02*
X45513197Y-54080099D01*
X45513197Y-54080099D02*
X45417959Y-54222956D01*
X45417959Y-54222956D02*
X45322721Y-54318194D01*
X45322721Y-54318194D02*
X45227483Y-54365813D01*
D11*
X43970935Y-47034655D02*
X45770935Y-47034655D01*
X43970935Y-49834655D02*
X43970935Y-47034655D01*
X44470935Y-48684655D02*
X44870935Y-48084655D01*
X44870935Y-47684655D02*
X44870935Y-48084655D01*
X44870935Y-48084655D02*
X44320935Y-48084655D01*
X44870935Y-48084655D02*
X45270935Y-48684655D01*
X44870935Y-48084655D02*
X45420935Y-48084655D01*
X44870935Y-48684655D02*
X44870935Y-49184655D01*
X45270935Y-48684655D02*
X44470935Y-48684655D01*
X45770935Y-47034655D02*
X45770935Y-49834655D01*
X45770935Y-49834655D02*
X43970935Y-49834655D01*
X63020935Y-47034655D02*
X64820935Y-47034655D01*
X63020935Y-49834655D02*
X63020935Y-47034655D01*
X63520935Y-48684655D02*
X63920935Y-48084655D01*
X63920935Y-47684655D02*
X63920935Y-48084655D01*
X63920935Y-48084655D02*
X63370935Y-48084655D01*
X63920935Y-48084655D02*
X64320935Y-48684655D01*
X63920935Y-48084655D02*
X64470935Y-48084655D01*
X63920935Y-48684655D02*
X63920935Y-49184655D01*
X64320935Y-48684655D02*
X63520935Y-48684655D01*
X64820935Y-47034655D02*
X64820935Y-49834655D01*
X64820935Y-49834655D02*
X63020935Y-49834655D01*
D10*
X32608435Y-42125280D02*
X47608435Y-42125280D01*
X32608435Y-57125280D02*
X32608435Y-42125280D01*
X37508435Y-46525280D02*
X37508435Y-43325280D01*
X37508435Y-46525280D02*
X42708435Y-46525280D01*
X42708435Y-43325280D02*
X37508435Y-43325280D01*
X42708435Y-46525280D02*
X42708435Y-43325280D01*
X47608435Y-42125280D02*
X47608435Y-57125280D01*
X47608435Y-57125280D02*
X32608435Y-57125280D01*
X51658435Y-42125280D02*
X66658435Y-42125280D01*
X51658435Y-57125280D02*
X51658435Y-42125280D01*
X56558435Y-46525280D02*
X56558435Y-43325280D01*
X56558435Y-46525280D02*
X61758435Y-46525280D01*
X61758435Y-43325280D02*
X56558435Y-43325280D01*
X61758435Y-46525280D02*
X61758435Y-43325280D01*
X66658435Y-42125280D02*
X66658435Y-57125280D01*
X66658435Y-57125280D02*
X51658435Y-57125280D01*
D12*
X54658435Y-54375280D02*
X57158435Y-54375280D01*
X54658435Y-56875280D02*
X54658435Y-54375280D01*
X57158435Y-56875280D02*
X54658435Y-56875280D01*
X57158435Y-57325280D02*
X57158435Y-53875280D01*
D10*
X57658435Y-53325280D02*
X57158435Y-53825280D01*
X57658435Y-57825280D02*
X57158435Y-57325280D01*
X60158435Y-53325280D02*
X57658435Y-53325280D01*
X60658435Y-57825280D02*
X57658435Y-57825280D01*
X61158435Y-57325280D02*
X60658435Y-57825280D01*
X61158435Y-57325280D02*
X61158435Y-56325280D01*
X61658435Y-51125280D02*
X61658435Y-51825280D01*
X61658435Y-55825280D02*
X66158435Y-55825280D01*
X66158435Y-51125280D02*
X61658435Y-51125280D01*
D12*
X66158435Y-52125280D02*
X67758435Y-52125280D01*
X66158435Y-55825280D02*
X66158435Y-51125280D01*
X67758435Y-52125280D02*
X67758435Y-54625280D01*
X67758435Y-54625280D02*
X66158435Y-54625280D01*
D10*
X61158435Y-56325280D02*
G75*
G02*
X61658435Y-55825280I500001J-1D01*
G01*
X61658435Y-51825280D02*
G75*
G02*
X60158435Y-53325280I-1500001J1D01*
G01*
D12*
X35608435Y-54375280D02*
X38108435Y-54375280D01*
X35608435Y-56875280D02*
X35608435Y-54375280D01*
X38108435Y-56875280D02*
X35608435Y-56875280D01*
X38108435Y-57325280D02*
X38108435Y-53875280D01*
D10*
X38608435Y-53325280D02*
X38108435Y-53825280D01*
X38608435Y-57825280D02*
X38108435Y-57325280D01*
X41108435Y-53325280D02*
X38608435Y-53325280D01*
X41608435Y-57825280D02*
X38608435Y-57825280D01*
X42108435Y-57325280D02*
X41608435Y-57825280D01*
X42108435Y-57325280D02*
X42108435Y-56325280D01*
X42608435Y-51125280D02*
X42608435Y-51825280D01*
X42608435Y-55825280D02*
X47108435Y-55825280D01*
X47108435Y-51125280D02*
X42608435Y-51125280D01*
D12*
X47108435Y-52125280D02*
X49608435Y-52125280D01*
X47108435Y-55825280D02*
X47108435Y-51125280D01*
X49608435Y-52125280D02*
X49608435Y-54625280D01*
X49608435Y-54625280D02*
X47108435Y-54625280D01*
D10*
X42108435Y-56325280D02*
G75*
G02*
X42608435Y-55825280I500001J-1D01*
G01*
X42608435Y-51825280D02*
G75*
G02*
X41108435Y-53325280I-1500001J1D01*
G01*
M02*
