%TF.GenerationSoftware,KiCad,Pcbnew,8.0.5*%
%TF.CreationDate,2024-09-18T06:53:53+09:00*%
%TF.ProjectId,SandyLP_Top,53616e64-794c-4505-9f54-6f702e6b6963,v.0*%
%TF.SameCoordinates,Original*%
%TF.FileFunction,Drillmap*%
%TF.FilePolarity,Positive*%
%FSLAX45Y45*%
G04 Gerber Fmt 4.5, Leading zero omitted, Abs format (unit mm)*
G04 Created by KiCad (PCBNEW 8.0.5) date 2024-09-18 06:53:53*
%MOMM*%
%LPD*%
G01*
G04 APERTURE LIST*
%ADD10C,0.300000*%
%ADD11C,0.200000*%
%ADD12C,0.100000*%
%ADD13C,0.220000*%
G04 APERTURE END LIST*
D10*
X12050531Y-5280337D02*
X12050531Y-3644707D01*
X12250531Y-5480337D02*
X13755531Y-5480337D01*
X13955531Y-7187626D02*
X13955531Y-5680336D01*
X14155531Y-7387626D02*
X17443022Y-7387415D01*
X17643022Y-7187415D02*
X17640531Y-5674258D01*
X17840531Y-5474258D02*
X19344281Y-5473258D01*
X19344281Y-3444707D02*
X12250531Y-3444707D01*
X19544281Y-5273258D02*
X19544281Y-3644707D01*
X12050531Y-3644707D02*
G75*
G02*
X12250531Y-3444707I200000J0D01*
G01*
X12250531Y-5480337D02*
G75*
G02*
X12050531Y-5280337I0J200000D01*
G01*
X13755531Y-5480337D02*
G75*
G02*
X13955531Y-5680336I0J-200000D01*
G01*
X14155531Y-7387626D02*
G75*
G02*
X13955531Y-7187626I0J200000D01*
G01*
X17640531Y-5674258D02*
G75*
G02*
X17840531Y-5474259I199994J5D01*
G01*
X17643022Y-7187415D02*
G75*
G02*
X17443022Y-7387415I-199992J-8D01*
G01*
X19344281Y-3444707D02*
G75*
G02*
X19544274Y-3644707I0J-199993D01*
G01*
X19544281Y-5273258D02*
G75*
G02*
X19344281Y-5473261I-200010J7D01*
G01*
D11*
D12*
X12146625Y-3513778D02*
X12186625Y-3553778D01*
X12186625Y-3513778D02*
X12146625Y-3553778D01*
X12146625Y-4704404D02*
X12186625Y-4744404D01*
X12186625Y-4704404D02*
X12146625Y-4744404D01*
X12146625Y-5359248D02*
X12186625Y-5399248D01*
X12186625Y-5359248D02*
X12146625Y-5399248D01*
X13873033Y-3513778D02*
X13913033Y-3553778D01*
X13913033Y-3513778D02*
X13873033Y-3553778D01*
X13873033Y-4585341D02*
X13913033Y-4625341D01*
X13913033Y-4585341D02*
X13873033Y-4625341D01*
X13873033Y-5359248D02*
X13913033Y-5399248D01*
X13913033Y-5359248D02*
X13873033Y-5399248D01*
X14051626Y-6609405D02*
X14091626Y-6649405D01*
X14091626Y-6609405D02*
X14051626Y-6649405D01*
X14051626Y-7264250D02*
X14091626Y-7304250D01*
X14091626Y-7264250D02*
X14051626Y-7304250D01*
X15153031Y-6877215D02*
X15193031Y-6917215D01*
X15193031Y-6877215D02*
X15153031Y-6917215D01*
X15348031Y-5015341D02*
X15388031Y-5055341D01*
X15388031Y-5015341D02*
X15348031Y-5055341D01*
X15668031Y-4872841D02*
X15708031Y-4912841D01*
X15708031Y-4872841D02*
X15668031Y-4912841D01*
X15778034Y-3513778D02*
X15818034Y-3553778D01*
X15818034Y-3513778D02*
X15778034Y-3553778D01*
X15778034Y-5537842D02*
X15818034Y-5577842D01*
X15818034Y-5537842D02*
X15778034Y-5577842D01*
X15778034Y-7264250D02*
X15818034Y-7304250D01*
X15818034Y-7264250D02*
X15778034Y-7304250D01*
X16068031Y-6352840D02*
X16108031Y-6392840D01*
X16108031Y-6352840D02*
X16068031Y-6392840D01*
X17030531Y-5367841D02*
X17070531Y-5407841D01*
X17070531Y-5367841D02*
X17030531Y-5407841D01*
X17504442Y-7264250D02*
X17544442Y-7304250D01*
X17544442Y-7264250D02*
X17504442Y-7304250D01*
X17683036Y-3513778D02*
X17723036Y-3553778D01*
X17723036Y-3513778D02*
X17683036Y-3553778D01*
X17683036Y-4585341D02*
X17723036Y-4625341D01*
X17723036Y-4585341D02*
X17683036Y-4625341D01*
X17683036Y-5359248D02*
X17723036Y-5399248D01*
X17723036Y-5359248D02*
X17683036Y-5399248D01*
X19409444Y-3513778D02*
X19449444Y-3553778D01*
X19449444Y-3513778D02*
X19409444Y-3553778D01*
X19409444Y-5359248D02*
X19449444Y-5399248D01*
X19449444Y-5359248D02*
X19409444Y-5399248D01*
X12140531Y-4845341D02*
G75*
G02*
X12100531Y-4845341I-20000J0D01*
G01*
X12100531Y-4845341D02*
G75*
G02*
X12140531Y-4845341I20000J0D01*
G01*
X12140531Y-5125341D02*
G75*
G02*
X12100531Y-5125341I-20000J0D01*
G01*
X12100531Y-5125341D02*
G75*
G02*
X12140531Y-5125341I20000J0D01*
G01*
X14045531Y-6750340D02*
G75*
G02*
X14005531Y-6750340I-20000J0D01*
G01*
X14005531Y-6750340D02*
G75*
G02*
X14045531Y-6750340I20000J0D01*
G01*
X14045531Y-7030340D02*
G75*
G02*
X14005531Y-7030340I-20000J0D01*
G01*
X14005531Y-7030340D02*
G75*
G02*
X14045531Y-7030340I20000J0D01*
G01*
X12821468Y-4079090D02*
X12821468Y-4179090D01*
X12771468Y-4129090D02*
X12871468Y-4129090D01*
X14726468Y-5984090D02*
X14726468Y-6084090D01*
X14676468Y-6034090D02*
X14776468Y-6034090D01*
X16631468Y-4079090D02*
X16631468Y-4179090D01*
X16581468Y-4129090D02*
X16681468Y-4129090D01*
X17345844Y-6817528D02*
X17345844Y-6917528D01*
X17295844Y-6867528D02*
X17395844Y-6867528D01*
X18774594Y-4079090D02*
X18774594Y-4179090D01*
X18724594Y-4129090D02*
X18824594Y-4129090D01*
D13*
X13970813Y-4087810D02*
X13970813Y-3932245D01*
X13815248Y-3932245D01*
X13815248Y-4087810D01*
X13970813Y-4087810D01*
X14328001Y-5635623D02*
X14328001Y-5480058D01*
X14172436Y-5480058D01*
X14172436Y-5635623D01*
X14328001Y-5635623D01*
X15875813Y-4683123D02*
X15875813Y-4527558D01*
X15720248Y-4527558D01*
X15720248Y-4683123D01*
X15875813Y-4683123D01*
X15875813Y-6588123D02*
X15875813Y-6432558D01*
X15720248Y-6432558D01*
X15720248Y-6588123D01*
X15875813Y-6588123D01*
X17423626Y-5635623D02*
X17423626Y-5480058D01*
X17268061Y-5480058D01*
X17268061Y-5635623D01*
X17423626Y-5635623D01*
X17780814Y-4087810D02*
X17780814Y-3932245D01*
X17625249Y-3932245D01*
X17625249Y-4087810D01*
X17780814Y-4087810D01*
D11*
X12296308Y-7714110D02*
X12296308Y-7514110D01*
X12296308Y-7514110D02*
X12343927Y-7514110D01*
X12343927Y-7514110D02*
X12372498Y-7523633D01*
X12372498Y-7523633D02*
X12391546Y-7542681D01*
X12391546Y-7542681D02*
X12401070Y-7561729D01*
X12401070Y-7561729D02*
X12410593Y-7599824D01*
X12410593Y-7599824D02*
X12410593Y-7628395D01*
X12410593Y-7628395D02*
X12401070Y-7666490D01*
X12401070Y-7666490D02*
X12391546Y-7685538D01*
X12391546Y-7685538D02*
X12372498Y-7704586D01*
X12372498Y-7704586D02*
X12343927Y-7714110D01*
X12343927Y-7714110D02*
X12296308Y-7714110D01*
X12496308Y-7714110D02*
X12496308Y-7580776D01*
X12496308Y-7618871D02*
X12505832Y-7599824D01*
X12505832Y-7599824D02*
X12515355Y-7590300D01*
X12515355Y-7590300D02*
X12534403Y-7580776D01*
X12534403Y-7580776D02*
X12553451Y-7580776D01*
X12620117Y-7714110D02*
X12620117Y-7580776D01*
X12620117Y-7514110D02*
X12610593Y-7523633D01*
X12610593Y-7523633D02*
X12620117Y-7533157D01*
X12620117Y-7533157D02*
X12629641Y-7523633D01*
X12629641Y-7523633D02*
X12620117Y-7514110D01*
X12620117Y-7514110D02*
X12620117Y-7533157D01*
X12743927Y-7714110D02*
X12724879Y-7704586D01*
X12724879Y-7704586D02*
X12715355Y-7685538D01*
X12715355Y-7685538D02*
X12715355Y-7514110D01*
X12848689Y-7714110D02*
X12829641Y-7704586D01*
X12829641Y-7704586D02*
X12820117Y-7685538D01*
X12820117Y-7685538D02*
X12820117Y-7514110D01*
X13077260Y-7714110D02*
X13077260Y-7514110D01*
X13077260Y-7514110D02*
X13143927Y-7656967D01*
X13143927Y-7656967D02*
X13210593Y-7514110D01*
X13210593Y-7514110D02*
X13210593Y-7714110D01*
X13391546Y-7714110D02*
X13391546Y-7609348D01*
X13391546Y-7609348D02*
X13382022Y-7590300D01*
X13382022Y-7590300D02*
X13362974Y-7580776D01*
X13362974Y-7580776D02*
X13324879Y-7580776D01*
X13324879Y-7580776D02*
X13305832Y-7590300D01*
X13391546Y-7704586D02*
X13372498Y-7714110D01*
X13372498Y-7714110D02*
X13324879Y-7714110D01*
X13324879Y-7714110D02*
X13305832Y-7704586D01*
X13305832Y-7704586D02*
X13296308Y-7685538D01*
X13296308Y-7685538D02*
X13296308Y-7666490D01*
X13296308Y-7666490D02*
X13305832Y-7647443D01*
X13305832Y-7647443D02*
X13324879Y-7637919D01*
X13324879Y-7637919D02*
X13372498Y-7637919D01*
X13372498Y-7637919D02*
X13391546Y-7628395D01*
X13486784Y-7580776D02*
X13486784Y-7780776D01*
X13486784Y-7590300D02*
X13505832Y-7580776D01*
X13505832Y-7580776D02*
X13543927Y-7580776D01*
X13543927Y-7580776D02*
X13562974Y-7590300D01*
X13562974Y-7590300D02*
X13572498Y-7599824D01*
X13572498Y-7599824D02*
X13582022Y-7618871D01*
X13582022Y-7618871D02*
X13582022Y-7676014D01*
X13582022Y-7676014D02*
X13572498Y-7695062D01*
X13572498Y-7695062D02*
X13562974Y-7704586D01*
X13562974Y-7704586D02*
X13543927Y-7714110D01*
X13543927Y-7714110D02*
X13505832Y-7714110D01*
X13505832Y-7714110D02*
X13486784Y-7704586D01*
X13667736Y-7695062D02*
X13677260Y-7704586D01*
X13677260Y-7704586D02*
X13667736Y-7714110D01*
X13667736Y-7714110D02*
X13658213Y-7704586D01*
X13658213Y-7704586D02*
X13667736Y-7695062D01*
X13667736Y-7695062D02*
X13667736Y-7714110D01*
X13667736Y-7590300D02*
X13677260Y-7599824D01*
X13677260Y-7599824D02*
X13667736Y-7609348D01*
X13667736Y-7609348D02*
X13658213Y-7599824D01*
X13658213Y-7599824D02*
X13667736Y-7590300D01*
X13667736Y-7590300D02*
X13667736Y-7609348D01*
D12*
X11995531Y-8022626D02*
X12035531Y-8062626D01*
X12035531Y-8022626D02*
X11995531Y-8062626D01*
D11*
X12334403Y-7934110D02*
X12353451Y-7934110D01*
X12353451Y-7934110D02*
X12372498Y-7943633D01*
X12372498Y-7943633D02*
X12382022Y-7953157D01*
X12382022Y-7953157D02*
X12391546Y-7972205D01*
X12391546Y-7972205D02*
X12401070Y-8010300D01*
X12401070Y-8010300D02*
X12401070Y-8057919D01*
X12401070Y-8057919D02*
X12391546Y-8096014D01*
X12391546Y-8096014D02*
X12382022Y-8115062D01*
X12382022Y-8115062D02*
X12372498Y-8124586D01*
X12372498Y-8124586D02*
X12353451Y-8134110D01*
X12353451Y-8134110D02*
X12334403Y-8134110D01*
X12334403Y-8134110D02*
X12315355Y-8124586D01*
X12315355Y-8124586D02*
X12305832Y-8115062D01*
X12305832Y-8115062D02*
X12296308Y-8096014D01*
X12296308Y-8096014D02*
X12286784Y-8057919D01*
X12286784Y-8057919D02*
X12286784Y-8010300D01*
X12286784Y-8010300D02*
X12296308Y-7972205D01*
X12296308Y-7972205D02*
X12305832Y-7953157D01*
X12305832Y-7953157D02*
X12315355Y-7943633D01*
X12315355Y-7943633D02*
X12334403Y-7934110D01*
X12486784Y-8115062D02*
X12496308Y-8124586D01*
X12496308Y-8124586D02*
X12486784Y-8134110D01*
X12486784Y-8134110D02*
X12477260Y-8124586D01*
X12477260Y-8124586D02*
X12486784Y-8115062D01*
X12486784Y-8115062D02*
X12486784Y-8134110D01*
X12667736Y-8000776D02*
X12667736Y-8134110D01*
X12620117Y-7924586D02*
X12572498Y-8067443D01*
X12572498Y-8067443D02*
X12696308Y-8067443D01*
X12810593Y-7934110D02*
X12829641Y-7934110D01*
X12829641Y-7934110D02*
X12848689Y-7943633D01*
X12848689Y-7943633D02*
X12858213Y-7953157D01*
X12858213Y-7953157D02*
X12867736Y-7972205D01*
X12867736Y-7972205D02*
X12877260Y-8010300D01*
X12877260Y-8010300D02*
X12877260Y-8057919D01*
X12877260Y-8057919D02*
X12867736Y-8096014D01*
X12867736Y-8096014D02*
X12858213Y-8115062D01*
X12858213Y-8115062D02*
X12848689Y-8124586D01*
X12848689Y-8124586D02*
X12829641Y-8134110D01*
X12829641Y-8134110D02*
X12810593Y-8134110D01*
X12810593Y-8134110D02*
X12791546Y-8124586D01*
X12791546Y-8124586D02*
X12782022Y-8115062D01*
X12782022Y-8115062D02*
X12772498Y-8096014D01*
X12772498Y-8096014D02*
X12762974Y-8057919D01*
X12762974Y-8057919D02*
X12762974Y-8010300D01*
X12762974Y-8010300D02*
X12772498Y-7972205D01*
X12772498Y-7972205D02*
X12782022Y-7953157D01*
X12782022Y-7953157D02*
X12791546Y-7943633D01*
X12791546Y-7943633D02*
X12810593Y-7934110D01*
X13001070Y-7934110D02*
X13020117Y-7934110D01*
X13020117Y-7934110D02*
X13039165Y-7943633D01*
X13039165Y-7943633D02*
X13048689Y-7953157D01*
X13048689Y-7953157D02*
X13058213Y-7972205D01*
X13058213Y-7972205D02*
X13067736Y-8010300D01*
X13067736Y-8010300D02*
X13067736Y-8057919D01*
X13067736Y-8057919D02*
X13058213Y-8096014D01*
X13058213Y-8096014D02*
X13048689Y-8115062D01*
X13048689Y-8115062D02*
X13039165Y-8124586D01*
X13039165Y-8124586D02*
X13020117Y-8134110D01*
X13020117Y-8134110D02*
X13001070Y-8134110D01*
X13001070Y-8134110D02*
X12982022Y-8124586D01*
X12982022Y-8124586D02*
X12972498Y-8115062D01*
X12972498Y-8115062D02*
X12962974Y-8096014D01*
X12962974Y-8096014D02*
X12953451Y-8057919D01*
X12953451Y-8057919D02*
X12953451Y-8010300D01*
X12953451Y-8010300D02*
X12962974Y-7972205D01*
X12962974Y-7972205D02*
X12972498Y-7953157D01*
X12972498Y-7953157D02*
X12982022Y-7943633D01*
X12982022Y-7943633D02*
X13001070Y-7934110D01*
X13153451Y-8134110D02*
X13153451Y-8000776D01*
X13153451Y-8019824D02*
X13162974Y-8010300D01*
X13162974Y-8010300D02*
X13182022Y-8000776D01*
X13182022Y-8000776D02*
X13210594Y-8000776D01*
X13210594Y-8000776D02*
X13229641Y-8010300D01*
X13229641Y-8010300D02*
X13239165Y-8029348D01*
X13239165Y-8029348D02*
X13239165Y-8134110D01*
X13239165Y-8029348D02*
X13248689Y-8010300D01*
X13248689Y-8010300D02*
X13267736Y-8000776D01*
X13267736Y-8000776D02*
X13296308Y-8000776D01*
X13296308Y-8000776D02*
X13315355Y-8010300D01*
X13315355Y-8010300D02*
X13324879Y-8029348D01*
X13324879Y-8029348D02*
X13324879Y-8134110D01*
X13420117Y-8134110D02*
X13420117Y-8000776D01*
X13420117Y-8019824D02*
X13429641Y-8010300D01*
X13429641Y-8010300D02*
X13448689Y-8000776D01*
X13448689Y-8000776D02*
X13477260Y-8000776D01*
X13477260Y-8000776D02*
X13496308Y-8010300D01*
X13496308Y-8010300D02*
X13505832Y-8029348D01*
X13505832Y-8029348D02*
X13505832Y-8134110D01*
X13505832Y-8029348D02*
X13515355Y-8010300D01*
X13515355Y-8010300D02*
X13534403Y-8000776D01*
X13534403Y-8000776D02*
X13562974Y-8000776D01*
X13562974Y-8000776D02*
X13582022Y-8010300D01*
X13582022Y-8010300D02*
X13591546Y-8029348D01*
X13591546Y-8029348D02*
X13591546Y-8134110D01*
X13982022Y-7924586D02*
X13810594Y-8181729D01*
X14239165Y-7934110D02*
X14258213Y-7934110D01*
X14258213Y-7934110D02*
X14277260Y-7943633D01*
X14277260Y-7943633D02*
X14286784Y-7953157D01*
X14286784Y-7953157D02*
X14296308Y-7972205D01*
X14296308Y-7972205D02*
X14305832Y-8010300D01*
X14305832Y-8010300D02*
X14305832Y-8057919D01*
X14305832Y-8057919D02*
X14296308Y-8096014D01*
X14296308Y-8096014D02*
X14286784Y-8115062D01*
X14286784Y-8115062D02*
X14277260Y-8124586D01*
X14277260Y-8124586D02*
X14258213Y-8134110D01*
X14258213Y-8134110D02*
X14239165Y-8134110D01*
X14239165Y-8134110D02*
X14220117Y-8124586D01*
X14220117Y-8124586D02*
X14210594Y-8115062D01*
X14210594Y-8115062D02*
X14201070Y-8096014D01*
X14201070Y-8096014D02*
X14191546Y-8057919D01*
X14191546Y-8057919D02*
X14191546Y-8010300D01*
X14191546Y-8010300D02*
X14201070Y-7972205D01*
X14201070Y-7972205D02*
X14210594Y-7953157D01*
X14210594Y-7953157D02*
X14220117Y-7943633D01*
X14220117Y-7943633D02*
X14239165Y-7934110D01*
X14391546Y-8115062D02*
X14401070Y-8124586D01*
X14401070Y-8124586D02*
X14391546Y-8134110D01*
X14391546Y-8134110D02*
X14382022Y-8124586D01*
X14382022Y-8124586D02*
X14391546Y-8115062D01*
X14391546Y-8115062D02*
X14391546Y-8134110D01*
X14524879Y-7934110D02*
X14543927Y-7934110D01*
X14543927Y-7934110D02*
X14562975Y-7943633D01*
X14562975Y-7943633D02*
X14572498Y-7953157D01*
X14572498Y-7953157D02*
X14582022Y-7972205D01*
X14582022Y-7972205D02*
X14591546Y-8010300D01*
X14591546Y-8010300D02*
X14591546Y-8057919D01*
X14591546Y-8057919D02*
X14582022Y-8096014D01*
X14582022Y-8096014D02*
X14572498Y-8115062D01*
X14572498Y-8115062D02*
X14562975Y-8124586D01*
X14562975Y-8124586D02*
X14543927Y-8134110D01*
X14543927Y-8134110D02*
X14524879Y-8134110D01*
X14524879Y-8134110D02*
X14505832Y-8124586D01*
X14505832Y-8124586D02*
X14496308Y-8115062D01*
X14496308Y-8115062D02*
X14486784Y-8096014D01*
X14486784Y-8096014D02*
X14477260Y-8057919D01*
X14477260Y-8057919D02*
X14477260Y-8010300D01*
X14477260Y-8010300D02*
X14486784Y-7972205D01*
X14486784Y-7972205D02*
X14496308Y-7953157D01*
X14496308Y-7953157D02*
X14505832Y-7943633D01*
X14505832Y-7943633D02*
X14524879Y-7934110D01*
X14782022Y-8134110D02*
X14667737Y-8134110D01*
X14724879Y-8134110D02*
X14724879Y-7934110D01*
X14724879Y-7934110D02*
X14705832Y-7962681D01*
X14705832Y-7962681D02*
X14686784Y-7981729D01*
X14686784Y-7981729D02*
X14667737Y-7991252D01*
X14962975Y-7934110D02*
X14867737Y-7934110D01*
X14867737Y-7934110D02*
X14858213Y-8029348D01*
X14858213Y-8029348D02*
X14867737Y-8019824D01*
X14867737Y-8019824D02*
X14886784Y-8010300D01*
X14886784Y-8010300D02*
X14934403Y-8010300D01*
X14934403Y-8010300D02*
X14953451Y-8019824D01*
X14953451Y-8019824D02*
X14962975Y-8029348D01*
X14962975Y-8029348D02*
X14972498Y-8048395D01*
X14972498Y-8048395D02*
X14972498Y-8096014D01*
X14972498Y-8096014D02*
X14962975Y-8115062D01*
X14962975Y-8115062D02*
X14953451Y-8124586D01*
X14953451Y-8124586D02*
X14934403Y-8134110D01*
X14934403Y-8134110D02*
X14886784Y-8134110D01*
X14886784Y-8134110D02*
X14867737Y-8124586D01*
X14867737Y-8124586D02*
X14858213Y-8115062D01*
X15039165Y-7934110D02*
X15172498Y-7934110D01*
X15172498Y-7934110D02*
X15086784Y-8134110D01*
X15239165Y-7934110D02*
X15239165Y-7972205D01*
X15315356Y-7934110D02*
X15315356Y-7972205D01*
X15610594Y-8210300D02*
X15601070Y-8200776D01*
X15601070Y-8200776D02*
X15582022Y-8172205D01*
X15582022Y-8172205D02*
X15572499Y-8153157D01*
X15572499Y-8153157D02*
X15562975Y-8124586D01*
X15562975Y-8124586D02*
X15553451Y-8076967D01*
X15553451Y-8076967D02*
X15553451Y-8038871D01*
X15553451Y-8038871D02*
X15562975Y-7991252D01*
X15562975Y-7991252D02*
X15572499Y-7962681D01*
X15572499Y-7962681D02*
X15582022Y-7943633D01*
X15582022Y-7943633D02*
X15601070Y-7915062D01*
X15601070Y-7915062D02*
X15610594Y-7905538D01*
X15677260Y-7953157D02*
X15686784Y-7943633D01*
X15686784Y-7943633D02*
X15705832Y-7934110D01*
X15705832Y-7934110D02*
X15753451Y-7934110D01*
X15753451Y-7934110D02*
X15772499Y-7943633D01*
X15772499Y-7943633D02*
X15782022Y-7953157D01*
X15782022Y-7953157D02*
X15791546Y-7972205D01*
X15791546Y-7972205D02*
X15791546Y-7991252D01*
X15791546Y-7991252D02*
X15782022Y-8019824D01*
X15782022Y-8019824D02*
X15667737Y-8134110D01*
X15667737Y-8134110D02*
X15791546Y-8134110D01*
X15867737Y-7953157D02*
X15877260Y-7943633D01*
X15877260Y-7943633D02*
X15896308Y-7934110D01*
X15896308Y-7934110D02*
X15943927Y-7934110D01*
X15943927Y-7934110D02*
X15962975Y-7943633D01*
X15962975Y-7943633D02*
X15972499Y-7953157D01*
X15972499Y-7953157D02*
X15982022Y-7972205D01*
X15982022Y-7972205D02*
X15982022Y-7991252D01*
X15982022Y-7991252D02*
X15972499Y-8019824D01*
X15972499Y-8019824D02*
X15858213Y-8134110D01*
X15858213Y-8134110D02*
X15982022Y-8134110D01*
X16220118Y-8134110D02*
X16220118Y-7934110D01*
X16305832Y-8134110D02*
X16305832Y-8029348D01*
X16305832Y-8029348D02*
X16296308Y-8010300D01*
X16296308Y-8010300D02*
X16277261Y-8000776D01*
X16277261Y-8000776D02*
X16248689Y-8000776D01*
X16248689Y-8000776D02*
X16229641Y-8010300D01*
X16229641Y-8010300D02*
X16220118Y-8019824D01*
X16429641Y-8134110D02*
X16410594Y-8124586D01*
X16410594Y-8124586D02*
X16401070Y-8115062D01*
X16401070Y-8115062D02*
X16391546Y-8096014D01*
X16391546Y-8096014D02*
X16391546Y-8038871D01*
X16391546Y-8038871D02*
X16401070Y-8019824D01*
X16401070Y-8019824D02*
X16410594Y-8010300D01*
X16410594Y-8010300D02*
X16429641Y-8000776D01*
X16429641Y-8000776D02*
X16458213Y-8000776D01*
X16458213Y-8000776D02*
X16477261Y-8010300D01*
X16477261Y-8010300D02*
X16486784Y-8019824D01*
X16486784Y-8019824D02*
X16496308Y-8038871D01*
X16496308Y-8038871D02*
X16496308Y-8096014D01*
X16496308Y-8096014D02*
X16486784Y-8115062D01*
X16486784Y-8115062D02*
X16477261Y-8124586D01*
X16477261Y-8124586D02*
X16458213Y-8134110D01*
X16458213Y-8134110D02*
X16429641Y-8134110D01*
X16610594Y-8134110D02*
X16591546Y-8124586D01*
X16591546Y-8124586D02*
X16582022Y-8105538D01*
X16582022Y-8105538D02*
X16582022Y-7934110D01*
X16762975Y-8124586D02*
X16743927Y-8134110D01*
X16743927Y-8134110D02*
X16705832Y-8134110D01*
X16705832Y-8134110D02*
X16686784Y-8124586D01*
X16686784Y-8124586D02*
X16677261Y-8105538D01*
X16677261Y-8105538D02*
X16677261Y-8029348D01*
X16677261Y-8029348D02*
X16686784Y-8010300D01*
X16686784Y-8010300D02*
X16705832Y-8000776D01*
X16705832Y-8000776D02*
X16743927Y-8000776D01*
X16743927Y-8000776D02*
X16762975Y-8010300D01*
X16762975Y-8010300D02*
X16772499Y-8029348D01*
X16772499Y-8029348D02*
X16772499Y-8048395D01*
X16772499Y-8048395D02*
X16677261Y-8067443D01*
X16848689Y-8124586D02*
X16867737Y-8134110D01*
X16867737Y-8134110D02*
X16905832Y-8134110D01*
X16905832Y-8134110D02*
X16924880Y-8124586D01*
X16924880Y-8124586D02*
X16934404Y-8105538D01*
X16934404Y-8105538D02*
X16934404Y-8096014D01*
X16934404Y-8096014D02*
X16924880Y-8076967D01*
X16924880Y-8076967D02*
X16905832Y-8067443D01*
X16905832Y-8067443D02*
X16877261Y-8067443D01*
X16877261Y-8067443D02*
X16858213Y-8057919D01*
X16858213Y-8057919D02*
X16848689Y-8038871D01*
X16848689Y-8038871D02*
X16848689Y-8029348D01*
X16848689Y-8029348D02*
X16858213Y-8010300D01*
X16858213Y-8010300D02*
X16877261Y-8000776D01*
X16877261Y-8000776D02*
X16905832Y-8000776D01*
X16905832Y-8000776D02*
X16924880Y-8010300D01*
X17001070Y-8210300D02*
X17010594Y-8200776D01*
X17010594Y-8200776D02*
X17029642Y-8172205D01*
X17029642Y-8172205D02*
X17039165Y-8153157D01*
X17039165Y-8153157D02*
X17048689Y-8124586D01*
X17048689Y-8124586D02*
X17058213Y-8076967D01*
X17058213Y-8076967D02*
X17058213Y-8038871D01*
X17058213Y-8038871D02*
X17048689Y-7991252D01*
X17048689Y-7991252D02*
X17039165Y-7962681D01*
X17039165Y-7962681D02*
X17029642Y-7943633D01*
X17029642Y-7943633D02*
X17010594Y-7915062D01*
X17010594Y-7915062D02*
X17001070Y-7905538D01*
D12*
X12035531Y-8306626D02*
G75*
G02*
X11995531Y-8306626I-20000J0D01*
G01*
X11995531Y-8306626D02*
G75*
G02*
X12035531Y-8306626I20000J0D01*
G01*
D11*
X12334403Y-8198110D02*
X12353451Y-8198110D01*
X12353451Y-8198110D02*
X12372498Y-8207633D01*
X12372498Y-8207633D02*
X12382022Y-8217157D01*
X12382022Y-8217157D02*
X12391546Y-8236205D01*
X12391546Y-8236205D02*
X12401070Y-8274300D01*
X12401070Y-8274300D02*
X12401070Y-8321919D01*
X12401070Y-8321919D02*
X12391546Y-8360014D01*
X12391546Y-8360014D02*
X12382022Y-8379062D01*
X12382022Y-8379062D02*
X12372498Y-8388586D01*
X12372498Y-8388586D02*
X12353451Y-8398110D01*
X12353451Y-8398110D02*
X12334403Y-8398110D01*
X12334403Y-8398110D02*
X12315355Y-8388586D01*
X12315355Y-8388586D02*
X12305832Y-8379062D01*
X12305832Y-8379062D02*
X12296308Y-8360014D01*
X12296308Y-8360014D02*
X12286784Y-8321919D01*
X12286784Y-8321919D02*
X12286784Y-8274300D01*
X12286784Y-8274300D02*
X12296308Y-8236205D01*
X12296308Y-8236205D02*
X12305832Y-8217157D01*
X12305832Y-8217157D02*
X12315355Y-8207633D01*
X12315355Y-8207633D02*
X12334403Y-8198110D01*
X12486784Y-8379062D02*
X12496308Y-8388586D01*
X12496308Y-8388586D02*
X12486784Y-8398110D01*
X12486784Y-8398110D02*
X12477260Y-8388586D01*
X12477260Y-8388586D02*
X12486784Y-8379062D01*
X12486784Y-8379062D02*
X12486784Y-8398110D01*
X12667736Y-8264776D02*
X12667736Y-8398110D01*
X12620117Y-8188586D02*
X12572498Y-8331443D01*
X12572498Y-8331443D02*
X12696308Y-8331443D01*
X12810593Y-8198110D02*
X12829641Y-8198110D01*
X12829641Y-8198110D02*
X12848689Y-8207633D01*
X12848689Y-8207633D02*
X12858213Y-8217157D01*
X12858213Y-8217157D02*
X12867736Y-8236205D01*
X12867736Y-8236205D02*
X12877260Y-8274300D01*
X12877260Y-8274300D02*
X12877260Y-8321919D01*
X12877260Y-8321919D02*
X12867736Y-8360014D01*
X12867736Y-8360014D02*
X12858213Y-8379062D01*
X12858213Y-8379062D02*
X12848689Y-8388586D01*
X12848689Y-8388586D02*
X12829641Y-8398110D01*
X12829641Y-8398110D02*
X12810593Y-8398110D01*
X12810593Y-8398110D02*
X12791546Y-8388586D01*
X12791546Y-8388586D02*
X12782022Y-8379062D01*
X12782022Y-8379062D02*
X12772498Y-8360014D01*
X12772498Y-8360014D02*
X12762974Y-8321919D01*
X12762974Y-8321919D02*
X12762974Y-8274300D01*
X12762974Y-8274300D02*
X12772498Y-8236205D01*
X12772498Y-8236205D02*
X12782022Y-8217157D01*
X12782022Y-8217157D02*
X12791546Y-8207633D01*
X12791546Y-8207633D02*
X12810593Y-8198110D01*
X13001070Y-8198110D02*
X13020117Y-8198110D01*
X13020117Y-8198110D02*
X13039165Y-8207633D01*
X13039165Y-8207633D02*
X13048689Y-8217157D01*
X13048689Y-8217157D02*
X13058213Y-8236205D01*
X13058213Y-8236205D02*
X13067736Y-8274300D01*
X13067736Y-8274300D02*
X13067736Y-8321919D01*
X13067736Y-8321919D02*
X13058213Y-8360014D01*
X13058213Y-8360014D02*
X13048689Y-8379062D01*
X13048689Y-8379062D02*
X13039165Y-8388586D01*
X13039165Y-8388586D02*
X13020117Y-8398110D01*
X13020117Y-8398110D02*
X13001070Y-8398110D01*
X13001070Y-8398110D02*
X12982022Y-8388586D01*
X12982022Y-8388586D02*
X12972498Y-8379062D01*
X12972498Y-8379062D02*
X12962974Y-8360014D01*
X12962974Y-8360014D02*
X12953451Y-8321919D01*
X12953451Y-8321919D02*
X12953451Y-8274300D01*
X12953451Y-8274300D02*
X12962974Y-8236205D01*
X12962974Y-8236205D02*
X12972498Y-8217157D01*
X12972498Y-8217157D02*
X12982022Y-8207633D01*
X12982022Y-8207633D02*
X13001070Y-8198110D01*
X13153451Y-8398110D02*
X13153451Y-8264776D01*
X13153451Y-8283824D02*
X13162974Y-8274300D01*
X13162974Y-8274300D02*
X13182022Y-8264776D01*
X13182022Y-8264776D02*
X13210594Y-8264776D01*
X13210594Y-8264776D02*
X13229641Y-8274300D01*
X13229641Y-8274300D02*
X13239165Y-8293348D01*
X13239165Y-8293348D02*
X13239165Y-8398110D01*
X13239165Y-8293348D02*
X13248689Y-8274300D01*
X13248689Y-8274300D02*
X13267736Y-8264776D01*
X13267736Y-8264776D02*
X13296308Y-8264776D01*
X13296308Y-8264776D02*
X13315355Y-8274300D01*
X13315355Y-8274300D02*
X13324879Y-8293348D01*
X13324879Y-8293348D02*
X13324879Y-8398110D01*
X13420117Y-8398110D02*
X13420117Y-8264776D01*
X13420117Y-8283824D02*
X13429641Y-8274300D01*
X13429641Y-8274300D02*
X13448689Y-8264776D01*
X13448689Y-8264776D02*
X13477260Y-8264776D01*
X13477260Y-8264776D02*
X13496308Y-8274300D01*
X13496308Y-8274300D02*
X13505832Y-8293348D01*
X13505832Y-8293348D02*
X13505832Y-8398110D01*
X13505832Y-8293348D02*
X13515355Y-8274300D01*
X13515355Y-8274300D02*
X13534403Y-8264776D01*
X13534403Y-8264776D02*
X13562974Y-8264776D01*
X13562974Y-8264776D02*
X13582022Y-8274300D01*
X13582022Y-8274300D02*
X13591546Y-8293348D01*
X13591546Y-8293348D02*
X13591546Y-8398110D01*
X13982022Y-8188586D02*
X13810594Y-8445729D01*
X14239165Y-8198110D02*
X14258213Y-8198110D01*
X14258213Y-8198110D02*
X14277260Y-8207633D01*
X14277260Y-8207633D02*
X14286784Y-8217157D01*
X14286784Y-8217157D02*
X14296308Y-8236205D01*
X14296308Y-8236205D02*
X14305832Y-8274300D01*
X14305832Y-8274300D02*
X14305832Y-8321919D01*
X14305832Y-8321919D02*
X14296308Y-8360014D01*
X14296308Y-8360014D02*
X14286784Y-8379062D01*
X14286784Y-8379062D02*
X14277260Y-8388586D01*
X14277260Y-8388586D02*
X14258213Y-8398110D01*
X14258213Y-8398110D02*
X14239165Y-8398110D01*
X14239165Y-8398110D02*
X14220117Y-8388586D01*
X14220117Y-8388586D02*
X14210594Y-8379062D01*
X14210594Y-8379062D02*
X14201070Y-8360014D01*
X14201070Y-8360014D02*
X14191546Y-8321919D01*
X14191546Y-8321919D02*
X14191546Y-8274300D01*
X14191546Y-8274300D02*
X14201070Y-8236205D01*
X14201070Y-8236205D02*
X14210594Y-8217157D01*
X14210594Y-8217157D02*
X14220117Y-8207633D01*
X14220117Y-8207633D02*
X14239165Y-8198110D01*
X14391546Y-8379062D02*
X14401070Y-8388586D01*
X14401070Y-8388586D02*
X14391546Y-8398110D01*
X14391546Y-8398110D02*
X14382022Y-8388586D01*
X14382022Y-8388586D02*
X14391546Y-8379062D01*
X14391546Y-8379062D02*
X14391546Y-8398110D01*
X14524879Y-8198110D02*
X14543927Y-8198110D01*
X14543927Y-8198110D02*
X14562975Y-8207633D01*
X14562975Y-8207633D02*
X14572498Y-8217157D01*
X14572498Y-8217157D02*
X14582022Y-8236205D01*
X14582022Y-8236205D02*
X14591546Y-8274300D01*
X14591546Y-8274300D02*
X14591546Y-8321919D01*
X14591546Y-8321919D02*
X14582022Y-8360014D01*
X14582022Y-8360014D02*
X14572498Y-8379062D01*
X14572498Y-8379062D02*
X14562975Y-8388586D01*
X14562975Y-8388586D02*
X14543927Y-8398110D01*
X14543927Y-8398110D02*
X14524879Y-8398110D01*
X14524879Y-8398110D02*
X14505832Y-8388586D01*
X14505832Y-8388586D02*
X14496308Y-8379062D01*
X14496308Y-8379062D02*
X14486784Y-8360014D01*
X14486784Y-8360014D02*
X14477260Y-8321919D01*
X14477260Y-8321919D02*
X14477260Y-8274300D01*
X14477260Y-8274300D02*
X14486784Y-8236205D01*
X14486784Y-8236205D02*
X14496308Y-8217157D01*
X14496308Y-8217157D02*
X14505832Y-8207633D01*
X14505832Y-8207633D02*
X14524879Y-8198110D01*
X14782022Y-8398110D02*
X14667737Y-8398110D01*
X14724879Y-8398110D02*
X14724879Y-8198110D01*
X14724879Y-8198110D02*
X14705832Y-8226681D01*
X14705832Y-8226681D02*
X14686784Y-8245729D01*
X14686784Y-8245729D02*
X14667737Y-8255252D01*
X14962975Y-8198110D02*
X14867737Y-8198110D01*
X14867737Y-8198110D02*
X14858213Y-8293348D01*
X14858213Y-8293348D02*
X14867737Y-8283824D01*
X14867737Y-8283824D02*
X14886784Y-8274300D01*
X14886784Y-8274300D02*
X14934403Y-8274300D01*
X14934403Y-8274300D02*
X14953451Y-8283824D01*
X14953451Y-8283824D02*
X14962975Y-8293348D01*
X14962975Y-8293348D02*
X14972498Y-8312395D01*
X14972498Y-8312395D02*
X14972498Y-8360014D01*
X14972498Y-8360014D02*
X14962975Y-8379062D01*
X14962975Y-8379062D02*
X14953451Y-8388586D01*
X14953451Y-8388586D02*
X14934403Y-8398110D01*
X14934403Y-8398110D02*
X14886784Y-8398110D01*
X14886784Y-8398110D02*
X14867737Y-8388586D01*
X14867737Y-8388586D02*
X14858213Y-8379062D01*
X15039165Y-8198110D02*
X15172498Y-8198110D01*
X15172498Y-8198110D02*
X15086784Y-8398110D01*
X15239165Y-8198110D02*
X15239165Y-8236205D01*
X15315356Y-8198110D02*
X15315356Y-8236205D01*
X15610594Y-8474300D02*
X15601070Y-8464776D01*
X15601070Y-8464776D02*
X15582022Y-8436205D01*
X15582022Y-8436205D02*
X15572499Y-8417157D01*
X15572499Y-8417157D02*
X15562975Y-8388586D01*
X15562975Y-8388586D02*
X15553451Y-8340967D01*
X15553451Y-8340967D02*
X15553451Y-8302871D01*
X15553451Y-8302871D02*
X15562975Y-8255252D01*
X15562975Y-8255252D02*
X15572499Y-8226681D01*
X15572499Y-8226681D02*
X15582022Y-8207633D01*
X15582022Y-8207633D02*
X15601070Y-8179062D01*
X15601070Y-8179062D02*
X15610594Y-8169538D01*
X15772499Y-8264776D02*
X15772499Y-8398110D01*
X15724879Y-8188586D02*
X15677260Y-8331443D01*
X15677260Y-8331443D02*
X15801070Y-8331443D01*
X16029641Y-8398110D02*
X16029641Y-8198110D01*
X16115356Y-8398110D02*
X16115356Y-8293348D01*
X16115356Y-8293348D02*
X16105832Y-8274300D01*
X16105832Y-8274300D02*
X16086784Y-8264776D01*
X16086784Y-8264776D02*
X16058213Y-8264776D01*
X16058213Y-8264776D02*
X16039165Y-8274300D01*
X16039165Y-8274300D02*
X16029641Y-8283824D01*
X16239165Y-8398110D02*
X16220118Y-8388586D01*
X16220118Y-8388586D02*
X16210594Y-8379062D01*
X16210594Y-8379062D02*
X16201070Y-8360014D01*
X16201070Y-8360014D02*
X16201070Y-8302871D01*
X16201070Y-8302871D02*
X16210594Y-8283824D01*
X16210594Y-8283824D02*
X16220118Y-8274300D01*
X16220118Y-8274300D02*
X16239165Y-8264776D01*
X16239165Y-8264776D02*
X16267737Y-8264776D01*
X16267737Y-8264776D02*
X16286784Y-8274300D01*
X16286784Y-8274300D02*
X16296308Y-8283824D01*
X16296308Y-8283824D02*
X16305832Y-8302871D01*
X16305832Y-8302871D02*
X16305832Y-8360014D01*
X16305832Y-8360014D02*
X16296308Y-8379062D01*
X16296308Y-8379062D02*
X16286784Y-8388586D01*
X16286784Y-8388586D02*
X16267737Y-8398110D01*
X16267737Y-8398110D02*
X16239165Y-8398110D01*
X16420118Y-8398110D02*
X16401070Y-8388586D01*
X16401070Y-8388586D02*
X16391546Y-8369538D01*
X16391546Y-8369538D02*
X16391546Y-8198110D01*
X16572499Y-8388586D02*
X16553451Y-8398110D01*
X16553451Y-8398110D02*
X16515356Y-8398110D01*
X16515356Y-8398110D02*
X16496308Y-8388586D01*
X16496308Y-8388586D02*
X16486784Y-8369538D01*
X16486784Y-8369538D02*
X16486784Y-8293348D01*
X16486784Y-8293348D02*
X16496308Y-8274300D01*
X16496308Y-8274300D02*
X16515356Y-8264776D01*
X16515356Y-8264776D02*
X16553451Y-8264776D01*
X16553451Y-8264776D02*
X16572499Y-8274300D01*
X16572499Y-8274300D02*
X16582022Y-8293348D01*
X16582022Y-8293348D02*
X16582022Y-8312395D01*
X16582022Y-8312395D02*
X16486784Y-8331443D01*
X16658213Y-8388586D02*
X16677261Y-8398110D01*
X16677261Y-8398110D02*
X16715356Y-8398110D01*
X16715356Y-8398110D02*
X16734403Y-8388586D01*
X16734403Y-8388586D02*
X16743927Y-8369538D01*
X16743927Y-8369538D02*
X16743927Y-8360014D01*
X16743927Y-8360014D02*
X16734403Y-8340967D01*
X16734403Y-8340967D02*
X16715356Y-8331443D01*
X16715356Y-8331443D02*
X16686784Y-8331443D01*
X16686784Y-8331443D02*
X16667737Y-8321919D01*
X16667737Y-8321919D02*
X16658213Y-8302871D01*
X16658213Y-8302871D02*
X16658213Y-8293348D01*
X16658213Y-8293348D02*
X16667737Y-8274300D01*
X16667737Y-8274300D02*
X16686784Y-8264776D01*
X16686784Y-8264776D02*
X16715356Y-8264776D01*
X16715356Y-8264776D02*
X16734403Y-8274300D01*
X16810594Y-8474300D02*
X16820118Y-8464776D01*
X16820118Y-8464776D02*
X16839165Y-8436205D01*
X16839165Y-8436205D02*
X16848689Y-8417157D01*
X16848689Y-8417157D02*
X16858213Y-8388586D01*
X16858213Y-8388586D02*
X16867737Y-8340967D01*
X16867737Y-8340967D02*
X16867737Y-8302871D01*
X16867737Y-8302871D02*
X16858213Y-8255252D01*
X16858213Y-8255252D02*
X16848689Y-8226681D01*
X16848689Y-8226681D02*
X16839165Y-8207633D01*
X16839165Y-8207633D02*
X16820118Y-8179062D01*
X16820118Y-8179062D02*
X16810594Y-8169538D01*
D12*
X11985531Y-8520626D02*
X11985531Y-8620626D01*
X11935531Y-8570626D02*
X12035531Y-8570626D01*
D11*
X12401070Y-8662110D02*
X12286784Y-8662110D01*
X12343927Y-8662110D02*
X12343927Y-8462110D01*
X12343927Y-8462110D02*
X12324879Y-8490681D01*
X12324879Y-8490681D02*
X12305832Y-8509729D01*
X12305832Y-8509729D02*
X12286784Y-8519252D01*
X12486784Y-8643062D02*
X12496308Y-8652586D01*
X12496308Y-8652586D02*
X12486784Y-8662110D01*
X12486784Y-8662110D02*
X12477260Y-8652586D01*
X12477260Y-8652586D02*
X12486784Y-8643062D01*
X12486784Y-8643062D02*
X12486784Y-8662110D01*
X12620117Y-8462110D02*
X12639165Y-8462110D01*
X12639165Y-8462110D02*
X12658213Y-8471633D01*
X12658213Y-8471633D02*
X12667736Y-8481157D01*
X12667736Y-8481157D02*
X12677260Y-8500205D01*
X12677260Y-8500205D02*
X12686784Y-8538300D01*
X12686784Y-8538300D02*
X12686784Y-8585919D01*
X12686784Y-8585919D02*
X12677260Y-8624014D01*
X12677260Y-8624014D02*
X12667736Y-8643062D01*
X12667736Y-8643062D02*
X12658213Y-8652586D01*
X12658213Y-8652586D02*
X12639165Y-8662110D01*
X12639165Y-8662110D02*
X12620117Y-8662110D01*
X12620117Y-8662110D02*
X12601070Y-8652586D01*
X12601070Y-8652586D02*
X12591546Y-8643062D01*
X12591546Y-8643062D02*
X12582022Y-8624014D01*
X12582022Y-8624014D02*
X12572498Y-8585919D01*
X12572498Y-8585919D02*
X12572498Y-8538300D01*
X12572498Y-8538300D02*
X12582022Y-8500205D01*
X12582022Y-8500205D02*
X12591546Y-8481157D01*
X12591546Y-8481157D02*
X12601070Y-8471633D01*
X12601070Y-8471633D02*
X12620117Y-8462110D01*
X12810593Y-8462110D02*
X12829641Y-8462110D01*
X12829641Y-8462110D02*
X12848689Y-8471633D01*
X12848689Y-8471633D02*
X12858213Y-8481157D01*
X12858213Y-8481157D02*
X12867736Y-8500205D01*
X12867736Y-8500205D02*
X12877260Y-8538300D01*
X12877260Y-8538300D02*
X12877260Y-8585919D01*
X12877260Y-8585919D02*
X12867736Y-8624014D01*
X12867736Y-8624014D02*
X12858213Y-8643062D01*
X12858213Y-8643062D02*
X12848689Y-8652586D01*
X12848689Y-8652586D02*
X12829641Y-8662110D01*
X12829641Y-8662110D02*
X12810593Y-8662110D01*
X12810593Y-8662110D02*
X12791546Y-8652586D01*
X12791546Y-8652586D02*
X12782022Y-8643062D01*
X12782022Y-8643062D02*
X12772498Y-8624014D01*
X12772498Y-8624014D02*
X12762974Y-8585919D01*
X12762974Y-8585919D02*
X12762974Y-8538300D01*
X12762974Y-8538300D02*
X12772498Y-8500205D01*
X12772498Y-8500205D02*
X12782022Y-8481157D01*
X12782022Y-8481157D02*
X12791546Y-8471633D01*
X12791546Y-8471633D02*
X12810593Y-8462110D01*
X13001070Y-8462110D02*
X13020117Y-8462110D01*
X13020117Y-8462110D02*
X13039165Y-8471633D01*
X13039165Y-8471633D02*
X13048689Y-8481157D01*
X13048689Y-8481157D02*
X13058213Y-8500205D01*
X13058213Y-8500205D02*
X13067736Y-8538300D01*
X13067736Y-8538300D02*
X13067736Y-8585919D01*
X13067736Y-8585919D02*
X13058213Y-8624014D01*
X13058213Y-8624014D02*
X13048689Y-8643062D01*
X13048689Y-8643062D02*
X13039165Y-8652586D01*
X13039165Y-8652586D02*
X13020117Y-8662110D01*
X13020117Y-8662110D02*
X13001070Y-8662110D01*
X13001070Y-8662110D02*
X12982022Y-8652586D01*
X12982022Y-8652586D02*
X12972498Y-8643062D01*
X12972498Y-8643062D02*
X12962974Y-8624014D01*
X12962974Y-8624014D02*
X12953451Y-8585919D01*
X12953451Y-8585919D02*
X12953451Y-8538300D01*
X12953451Y-8538300D02*
X12962974Y-8500205D01*
X12962974Y-8500205D02*
X12972498Y-8481157D01*
X12972498Y-8481157D02*
X12982022Y-8471633D01*
X12982022Y-8471633D02*
X13001070Y-8462110D01*
X13153451Y-8662110D02*
X13153451Y-8528776D01*
X13153451Y-8547824D02*
X13162974Y-8538300D01*
X13162974Y-8538300D02*
X13182022Y-8528776D01*
X13182022Y-8528776D02*
X13210594Y-8528776D01*
X13210594Y-8528776D02*
X13229641Y-8538300D01*
X13229641Y-8538300D02*
X13239165Y-8557348D01*
X13239165Y-8557348D02*
X13239165Y-8662110D01*
X13239165Y-8557348D02*
X13248689Y-8538300D01*
X13248689Y-8538300D02*
X13267736Y-8528776D01*
X13267736Y-8528776D02*
X13296308Y-8528776D01*
X13296308Y-8528776D02*
X13315355Y-8538300D01*
X13315355Y-8538300D02*
X13324879Y-8557348D01*
X13324879Y-8557348D02*
X13324879Y-8662110D01*
X13420117Y-8662110D02*
X13420117Y-8528776D01*
X13420117Y-8547824D02*
X13429641Y-8538300D01*
X13429641Y-8538300D02*
X13448689Y-8528776D01*
X13448689Y-8528776D02*
X13477260Y-8528776D01*
X13477260Y-8528776D02*
X13496308Y-8538300D01*
X13496308Y-8538300D02*
X13505832Y-8557348D01*
X13505832Y-8557348D02*
X13505832Y-8662110D01*
X13505832Y-8557348D02*
X13515355Y-8538300D01*
X13515355Y-8538300D02*
X13534403Y-8528776D01*
X13534403Y-8528776D02*
X13562974Y-8528776D01*
X13562974Y-8528776D02*
X13582022Y-8538300D01*
X13582022Y-8538300D02*
X13591546Y-8557348D01*
X13591546Y-8557348D02*
X13591546Y-8662110D01*
X13982022Y-8452586D02*
X13810594Y-8709729D01*
X14239165Y-8462110D02*
X14258213Y-8462110D01*
X14258213Y-8462110D02*
X14277260Y-8471633D01*
X14277260Y-8471633D02*
X14286784Y-8481157D01*
X14286784Y-8481157D02*
X14296308Y-8500205D01*
X14296308Y-8500205D02*
X14305832Y-8538300D01*
X14305832Y-8538300D02*
X14305832Y-8585919D01*
X14305832Y-8585919D02*
X14296308Y-8624014D01*
X14296308Y-8624014D02*
X14286784Y-8643062D01*
X14286784Y-8643062D02*
X14277260Y-8652586D01*
X14277260Y-8652586D02*
X14258213Y-8662110D01*
X14258213Y-8662110D02*
X14239165Y-8662110D01*
X14239165Y-8662110D02*
X14220117Y-8652586D01*
X14220117Y-8652586D02*
X14210594Y-8643062D01*
X14210594Y-8643062D02*
X14201070Y-8624014D01*
X14201070Y-8624014D02*
X14191546Y-8585919D01*
X14191546Y-8585919D02*
X14191546Y-8538300D01*
X14191546Y-8538300D02*
X14201070Y-8500205D01*
X14201070Y-8500205D02*
X14210594Y-8481157D01*
X14210594Y-8481157D02*
X14220117Y-8471633D01*
X14220117Y-8471633D02*
X14239165Y-8462110D01*
X14391546Y-8643062D02*
X14401070Y-8652586D01*
X14401070Y-8652586D02*
X14391546Y-8662110D01*
X14391546Y-8662110D02*
X14382022Y-8652586D01*
X14382022Y-8652586D02*
X14391546Y-8643062D01*
X14391546Y-8643062D02*
X14391546Y-8662110D01*
X14524879Y-8462110D02*
X14543927Y-8462110D01*
X14543927Y-8462110D02*
X14562975Y-8471633D01*
X14562975Y-8471633D02*
X14572498Y-8481157D01*
X14572498Y-8481157D02*
X14582022Y-8500205D01*
X14582022Y-8500205D02*
X14591546Y-8538300D01*
X14591546Y-8538300D02*
X14591546Y-8585919D01*
X14591546Y-8585919D02*
X14582022Y-8624014D01*
X14582022Y-8624014D02*
X14572498Y-8643062D01*
X14572498Y-8643062D02*
X14562975Y-8652586D01*
X14562975Y-8652586D02*
X14543927Y-8662110D01*
X14543927Y-8662110D02*
X14524879Y-8662110D01*
X14524879Y-8662110D02*
X14505832Y-8652586D01*
X14505832Y-8652586D02*
X14496308Y-8643062D01*
X14496308Y-8643062D02*
X14486784Y-8624014D01*
X14486784Y-8624014D02*
X14477260Y-8585919D01*
X14477260Y-8585919D02*
X14477260Y-8538300D01*
X14477260Y-8538300D02*
X14486784Y-8500205D01*
X14486784Y-8500205D02*
X14496308Y-8481157D01*
X14496308Y-8481157D02*
X14505832Y-8471633D01*
X14505832Y-8471633D02*
X14524879Y-8462110D01*
X14658213Y-8462110D02*
X14782022Y-8462110D01*
X14782022Y-8462110D02*
X14715356Y-8538300D01*
X14715356Y-8538300D02*
X14743927Y-8538300D01*
X14743927Y-8538300D02*
X14762975Y-8547824D01*
X14762975Y-8547824D02*
X14772498Y-8557348D01*
X14772498Y-8557348D02*
X14782022Y-8576395D01*
X14782022Y-8576395D02*
X14782022Y-8624014D01*
X14782022Y-8624014D02*
X14772498Y-8643062D01*
X14772498Y-8643062D02*
X14762975Y-8652586D01*
X14762975Y-8652586D02*
X14743927Y-8662110D01*
X14743927Y-8662110D02*
X14686784Y-8662110D01*
X14686784Y-8662110D02*
X14667737Y-8652586D01*
X14667737Y-8652586D02*
X14658213Y-8643062D01*
X14877260Y-8662110D02*
X14915356Y-8662110D01*
X14915356Y-8662110D02*
X14934403Y-8652586D01*
X14934403Y-8652586D02*
X14943927Y-8643062D01*
X14943927Y-8643062D02*
X14962975Y-8614491D01*
X14962975Y-8614491D02*
X14972498Y-8576395D01*
X14972498Y-8576395D02*
X14972498Y-8500205D01*
X14972498Y-8500205D02*
X14962975Y-8481157D01*
X14962975Y-8481157D02*
X14953451Y-8471633D01*
X14953451Y-8471633D02*
X14934403Y-8462110D01*
X14934403Y-8462110D02*
X14896308Y-8462110D01*
X14896308Y-8462110D02*
X14877260Y-8471633D01*
X14877260Y-8471633D02*
X14867737Y-8481157D01*
X14867737Y-8481157D02*
X14858213Y-8500205D01*
X14858213Y-8500205D02*
X14858213Y-8547824D01*
X14858213Y-8547824D02*
X14867737Y-8566872D01*
X14867737Y-8566872D02*
X14877260Y-8576395D01*
X14877260Y-8576395D02*
X14896308Y-8585919D01*
X14896308Y-8585919D02*
X14934403Y-8585919D01*
X14934403Y-8585919D02*
X14953451Y-8576395D01*
X14953451Y-8576395D02*
X14962975Y-8566872D01*
X14962975Y-8566872D02*
X14972498Y-8547824D01*
X15143927Y-8528776D02*
X15143927Y-8662110D01*
X15096308Y-8452586D02*
X15048689Y-8595443D01*
X15048689Y-8595443D02*
X15172498Y-8595443D01*
X15239165Y-8462110D02*
X15239165Y-8500205D01*
X15315356Y-8462110D02*
X15315356Y-8500205D01*
X15610594Y-8738300D02*
X15601070Y-8728776D01*
X15601070Y-8728776D02*
X15582022Y-8700205D01*
X15582022Y-8700205D02*
X15572499Y-8681157D01*
X15572499Y-8681157D02*
X15562975Y-8652586D01*
X15562975Y-8652586D02*
X15553451Y-8604967D01*
X15553451Y-8604967D02*
X15553451Y-8566872D01*
X15553451Y-8566872D02*
X15562975Y-8519252D01*
X15562975Y-8519252D02*
X15572499Y-8490681D01*
X15572499Y-8490681D02*
X15582022Y-8471633D01*
X15582022Y-8471633D02*
X15601070Y-8443062D01*
X15601070Y-8443062D02*
X15610594Y-8433538D01*
X15782022Y-8462110D02*
X15686784Y-8462110D01*
X15686784Y-8462110D02*
X15677260Y-8557348D01*
X15677260Y-8557348D02*
X15686784Y-8547824D01*
X15686784Y-8547824D02*
X15705832Y-8538300D01*
X15705832Y-8538300D02*
X15753451Y-8538300D01*
X15753451Y-8538300D02*
X15772499Y-8547824D01*
X15772499Y-8547824D02*
X15782022Y-8557348D01*
X15782022Y-8557348D02*
X15791546Y-8576395D01*
X15791546Y-8576395D02*
X15791546Y-8624014D01*
X15791546Y-8624014D02*
X15782022Y-8643062D01*
X15782022Y-8643062D02*
X15772499Y-8652586D01*
X15772499Y-8652586D02*
X15753451Y-8662110D01*
X15753451Y-8662110D02*
X15705832Y-8662110D01*
X15705832Y-8662110D02*
X15686784Y-8652586D01*
X15686784Y-8652586D02*
X15677260Y-8643062D01*
X16029641Y-8662110D02*
X16029641Y-8462110D01*
X16115356Y-8662110D02*
X16115356Y-8557348D01*
X16115356Y-8557348D02*
X16105832Y-8538300D01*
X16105832Y-8538300D02*
X16086784Y-8528776D01*
X16086784Y-8528776D02*
X16058213Y-8528776D01*
X16058213Y-8528776D02*
X16039165Y-8538300D01*
X16039165Y-8538300D02*
X16029641Y-8547824D01*
X16239165Y-8662110D02*
X16220118Y-8652586D01*
X16220118Y-8652586D02*
X16210594Y-8643062D01*
X16210594Y-8643062D02*
X16201070Y-8624014D01*
X16201070Y-8624014D02*
X16201070Y-8566872D01*
X16201070Y-8566872D02*
X16210594Y-8547824D01*
X16210594Y-8547824D02*
X16220118Y-8538300D01*
X16220118Y-8538300D02*
X16239165Y-8528776D01*
X16239165Y-8528776D02*
X16267737Y-8528776D01*
X16267737Y-8528776D02*
X16286784Y-8538300D01*
X16286784Y-8538300D02*
X16296308Y-8547824D01*
X16296308Y-8547824D02*
X16305832Y-8566872D01*
X16305832Y-8566872D02*
X16305832Y-8624014D01*
X16305832Y-8624014D02*
X16296308Y-8643062D01*
X16296308Y-8643062D02*
X16286784Y-8652586D01*
X16286784Y-8652586D02*
X16267737Y-8662110D01*
X16267737Y-8662110D02*
X16239165Y-8662110D01*
X16420118Y-8662110D02*
X16401070Y-8652586D01*
X16401070Y-8652586D02*
X16391546Y-8633538D01*
X16391546Y-8633538D02*
X16391546Y-8462110D01*
X16572499Y-8652586D02*
X16553451Y-8662110D01*
X16553451Y-8662110D02*
X16515356Y-8662110D01*
X16515356Y-8662110D02*
X16496308Y-8652586D01*
X16496308Y-8652586D02*
X16486784Y-8633538D01*
X16486784Y-8633538D02*
X16486784Y-8557348D01*
X16486784Y-8557348D02*
X16496308Y-8538300D01*
X16496308Y-8538300D02*
X16515356Y-8528776D01*
X16515356Y-8528776D02*
X16553451Y-8528776D01*
X16553451Y-8528776D02*
X16572499Y-8538300D01*
X16572499Y-8538300D02*
X16582022Y-8557348D01*
X16582022Y-8557348D02*
X16582022Y-8576395D01*
X16582022Y-8576395D02*
X16486784Y-8595443D01*
X16658213Y-8652586D02*
X16677261Y-8662110D01*
X16677261Y-8662110D02*
X16715356Y-8662110D01*
X16715356Y-8662110D02*
X16734403Y-8652586D01*
X16734403Y-8652586D02*
X16743927Y-8633538D01*
X16743927Y-8633538D02*
X16743927Y-8624014D01*
X16743927Y-8624014D02*
X16734403Y-8604967D01*
X16734403Y-8604967D02*
X16715356Y-8595443D01*
X16715356Y-8595443D02*
X16686784Y-8595443D01*
X16686784Y-8595443D02*
X16667737Y-8585919D01*
X16667737Y-8585919D02*
X16658213Y-8566872D01*
X16658213Y-8566872D02*
X16658213Y-8557348D01*
X16658213Y-8557348D02*
X16667737Y-8538300D01*
X16667737Y-8538300D02*
X16686784Y-8528776D01*
X16686784Y-8528776D02*
X16715356Y-8528776D01*
X16715356Y-8528776D02*
X16734403Y-8538300D01*
X16810594Y-8738300D02*
X16820118Y-8728776D01*
X16820118Y-8728776D02*
X16839165Y-8700205D01*
X16839165Y-8700205D02*
X16848689Y-8681157D01*
X16848689Y-8681157D02*
X16858213Y-8652586D01*
X16858213Y-8652586D02*
X16867737Y-8604967D01*
X16867737Y-8604967D02*
X16867737Y-8566872D01*
X16867737Y-8566872D02*
X16858213Y-8519252D01*
X16858213Y-8519252D02*
X16848689Y-8490681D01*
X16848689Y-8490681D02*
X16839165Y-8471633D01*
X16839165Y-8471633D02*
X16820118Y-8443062D01*
X16820118Y-8443062D02*
X16810594Y-8433538D01*
X12006242Y-8905337D02*
X12006242Y-8763914D01*
X11864820Y-8763914D01*
X11864820Y-8905337D01*
X12006242Y-8905337D01*
X12286784Y-8745157D02*
X12296308Y-8735633D01*
X12296308Y-8735633D02*
X12315355Y-8726110D01*
X12315355Y-8726110D02*
X12362974Y-8726110D01*
X12362974Y-8726110D02*
X12382022Y-8735633D01*
X12382022Y-8735633D02*
X12391546Y-8745157D01*
X12391546Y-8745157D02*
X12401070Y-8764205D01*
X12401070Y-8764205D02*
X12401070Y-8783252D01*
X12401070Y-8783252D02*
X12391546Y-8811824D01*
X12391546Y-8811824D02*
X12277260Y-8926110D01*
X12277260Y-8926110D02*
X12401070Y-8926110D01*
X12486784Y-8907062D02*
X12496308Y-8916586D01*
X12496308Y-8916586D02*
X12486784Y-8926110D01*
X12486784Y-8926110D02*
X12477260Y-8916586D01*
X12477260Y-8916586D02*
X12486784Y-8907062D01*
X12486784Y-8907062D02*
X12486784Y-8926110D01*
X12572498Y-8745157D02*
X12582022Y-8735633D01*
X12582022Y-8735633D02*
X12601070Y-8726110D01*
X12601070Y-8726110D02*
X12648689Y-8726110D01*
X12648689Y-8726110D02*
X12667736Y-8735633D01*
X12667736Y-8735633D02*
X12677260Y-8745157D01*
X12677260Y-8745157D02*
X12686784Y-8764205D01*
X12686784Y-8764205D02*
X12686784Y-8783252D01*
X12686784Y-8783252D02*
X12677260Y-8811824D01*
X12677260Y-8811824D02*
X12562974Y-8926110D01*
X12562974Y-8926110D02*
X12686784Y-8926110D01*
X12810593Y-8726110D02*
X12829641Y-8726110D01*
X12829641Y-8726110D02*
X12848689Y-8735633D01*
X12848689Y-8735633D02*
X12858213Y-8745157D01*
X12858213Y-8745157D02*
X12867736Y-8764205D01*
X12867736Y-8764205D02*
X12877260Y-8802300D01*
X12877260Y-8802300D02*
X12877260Y-8849919D01*
X12877260Y-8849919D02*
X12867736Y-8888014D01*
X12867736Y-8888014D02*
X12858213Y-8907062D01*
X12858213Y-8907062D02*
X12848689Y-8916586D01*
X12848689Y-8916586D02*
X12829641Y-8926110D01*
X12829641Y-8926110D02*
X12810593Y-8926110D01*
X12810593Y-8926110D02*
X12791546Y-8916586D01*
X12791546Y-8916586D02*
X12782022Y-8907062D01*
X12782022Y-8907062D02*
X12772498Y-8888014D01*
X12772498Y-8888014D02*
X12762974Y-8849919D01*
X12762974Y-8849919D02*
X12762974Y-8802300D01*
X12762974Y-8802300D02*
X12772498Y-8764205D01*
X12772498Y-8764205D02*
X12782022Y-8745157D01*
X12782022Y-8745157D02*
X12791546Y-8735633D01*
X12791546Y-8735633D02*
X12810593Y-8726110D01*
X13001070Y-8726110D02*
X13020117Y-8726110D01*
X13020117Y-8726110D02*
X13039165Y-8735633D01*
X13039165Y-8735633D02*
X13048689Y-8745157D01*
X13048689Y-8745157D02*
X13058213Y-8764205D01*
X13058213Y-8764205D02*
X13067736Y-8802300D01*
X13067736Y-8802300D02*
X13067736Y-8849919D01*
X13067736Y-8849919D02*
X13058213Y-8888014D01*
X13058213Y-8888014D02*
X13048689Y-8907062D01*
X13048689Y-8907062D02*
X13039165Y-8916586D01*
X13039165Y-8916586D02*
X13020117Y-8926110D01*
X13020117Y-8926110D02*
X13001070Y-8926110D01*
X13001070Y-8926110D02*
X12982022Y-8916586D01*
X12982022Y-8916586D02*
X12972498Y-8907062D01*
X12972498Y-8907062D02*
X12962974Y-8888014D01*
X12962974Y-8888014D02*
X12953451Y-8849919D01*
X12953451Y-8849919D02*
X12953451Y-8802300D01*
X12953451Y-8802300D02*
X12962974Y-8764205D01*
X12962974Y-8764205D02*
X12972498Y-8745157D01*
X12972498Y-8745157D02*
X12982022Y-8735633D01*
X12982022Y-8735633D02*
X13001070Y-8726110D01*
X13153451Y-8926110D02*
X13153451Y-8792776D01*
X13153451Y-8811824D02*
X13162974Y-8802300D01*
X13162974Y-8802300D02*
X13182022Y-8792776D01*
X13182022Y-8792776D02*
X13210594Y-8792776D01*
X13210594Y-8792776D02*
X13229641Y-8802300D01*
X13229641Y-8802300D02*
X13239165Y-8821348D01*
X13239165Y-8821348D02*
X13239165Y-8926110D01*
X13239165Y-8821348D02*
X13248689Y-8802300D01*
X13248689Y-8802300D02*
X13267736Y-8792776D01*
X13267736Y-8792776D02*
X13296308Y-8792776D01*
X13296308Y-8792776D02*
X13315355Y-8802300D01*
X13315355Y-8802300D02*
X13324879Y-8821348D01*
X13324879Y-8821348D02*
X13324879Y-8926110D01*
X13420117Y-8926110D02*
X13420117Y-8792776D01*
X13420117Y-8811824D02*
X13429641Y-8802300D01*
X13429641Y-8802300D02*
X13448689Y-8792776D01*
X13448689Y-8792776D02*
X13477260Y-8792776D01*
X13477260Y-8792776D02*
X13496308Y-8802300D01*
X13496308Y-8802300D02*
X13505832Y-8821348D01*
X13505832Y-8821348D02*
X13505832Y-8926110D01*
X13505832Y-8821348D02*
X13515355Y-8802300D01*
X13515355Y-8802300D02*
X13534403Y-8792776D01*
X13534403Y-8792776D02*
X13562974Y-8792776D01*
X13562974Y-8792776D02*
X13582022Y-8802300D01*
X13582022Y-8802300D02*
X13591546Y-8821348D01*
X13591546Y-8821348D02*
X13591546Y-8926110D01*
X13982022Y-8716586D02*
X13810594Y-8973729D01*
X14239165Y-8726110D02*
X14258213Y-8726110D01*
X14258213Y-8726110D02*
X14277260Y-8735633D01*
X14277260Y-8735633D02*
X14286784Y-8745157D01*
X14286784Y-8745157D02*
X14296308Y-8764205D01*
X14296308Y-8764205D02*
X14305832Y-8802300D01*
X14305832Y-8802300D02*
X14305832Y-8849919D01*
X14305832Y-8849919D02*
X14296308Y-8888014D01*
X14296308Y-8888014D02*
X14286784Y-8907062D01*
X14286784Y-8907062D02*
X14277260Y-8916586D01*
X14277260Y-8916586D02*
X14258213Y-8926110D01*
X14258213Y-8926110D02*
X14239165Y-8926110D01*
X14239165Y-8926110D02*
X14220117Y-8916586D01*
X14220117Y-8916586D02*
X14210594Y-8907062D01*
X14210594Y-8907062D02*
X14201070Y-8888014D01*
X14201070Y-8888014D02*
X14191546Y-8849919D01*
X14191546Y-8849919D02*
X14191546Y-8802300D01*
X14191546Y-8802300D02*
X14201070Y-8764205D01*
X14201070Y-8764205D02*
X14210594Y-8745157D01*
X14210594Y-8745157D02*
X14220117Y-8735633D01*
X14220117Y-8735633D02*
X14239165Y-8726110D01*
X14391546Y-8907062D02*
X14401070Y-8916586D01*
X14401070Y-8916586D02*
X14391546Y-8926110D01*
X14391546Y-8926110D02*
X14382022Y-8916586D01*
X14382022Y-8916586D02*
X14391546Y-8907062D01*
X14391546Y-8907062D02*
X14391546Y-8926110D01*
X14524879Y-8726110D02*
X14543927Y-8726110D01*
X14543927Y-8726110D02*
X14562975Y-8735633D01*
X14562975Y-8735633D02*
X14572498Y-8745157D01*
X14572498Y-8745157D02*
X14582022Y-8764205D01*
X14582022Y-8764205D02*
X14591546Y-8802300D01*
X14591546Y-8802300D02*
X14591546Y-8849919D01*
X14591546Y-8849919D02*
X14582022Y-8888014D01*
X14582022Y-8888014D02*
X14572498Y-8907062D01*
X14572498Y-8907062D02*
X14562975Y-8916586D01*
X14562975Y-8916586D02*
X14543927Y-8926110D01*
X14543927Y-8926110D02*
X14524879Y-8926110D01*
X14524879Y-8926110D02*
X14505832Y-8916586D01*
X14505832Y-8916586D02*
X14496308Y-8907062D01*
X14496308Y-8907062D02*
X14486784Y-8888014D01*
X14486784Y-8888014D02*
X14477260Y-8849919D01*
X14477260Y-8849919D02*
X14477260Y-8802300D01*
X14477260Y-8802300D02*
X14486784Y-8764205D01*
X14486784Y-8764205D02*
X14496308Y-8745157D01*
X14496308Y-8745157D02*
X14505832Y-8735633D01*
X14505832Y-8735633D02*
X14524879Y-8726110D01*
X14705832Y-8811824D02*
X14686784Y-8802300D01*
X14686784Y-8802300D02*
X14677260Y-8792776D01*
X14677260Y-8792776D02*
X14667737Y-8773729D01*
X14667737Y-8773729D02*
X14667737Y-8764205D01*
X14667737Y-8764205D02*
X14677260Y-8745157D01*
X14677260Y-8745157D02*
X14686784Y-8735633D01*
X14686784Y-8735633D02*
X14705832Y-8726110D01*
X14705832Y-8726110D02*
X14743927Y-8726110D01*
X14743927Y-8726110D02*
X14762975Y-8735633D01*
X14762975Y-8735633D02*
X14772498Y-8745157D01*
X14772498Y-8745157D02*
X14782022Y-8764205D01*
X14782022Y-8764205D02*
X14782022Y-8773729D01*
X14782022Y-8773729D02*
X14772498Y-8792776D01*
X14772498Y-8792776D02*
X14762975Y-8802300D01*
X14762975Y-8802300D02*
X14743927Y-8811824D01*
X14743927Y-8811824D02*
X14705832Y-8811824D01*
X14705832Y-8811824D02*
X14686784Y-8821348D01*
X14686784Y-8821348D02*
X14677260Y-8830872D01*
X14677260Y-8830872D02*
X14667737Y-8849919D01*
X14667737Y-8849919D02*
X14667737Y-8888014D01*
X14667737Y-8888014D02*
X14677260Y-8907062D01*
X14677260Y-8907062D02*
X14686784Y-8916586D01*
X14686784Y-8916586D02*
X14705832Y-8926110D01*
X14705832Y-8926110D02*
X14743927Y-8926110D01*
X14743927Y-8926110D02*
X14762975Y-8916586D01*
X14762975Y-8916586D02*
X14772498Y-8907062D01*
X14772498Y-8907062D02*
X14782022Y-8888014D01*
X14782022Y-8888014D02*
X14782022Y-8849919D01*
X14782022Y-8849919D02*
X14772498Y-8830872D01*
X14772498Y-8830872D02*
X14762975Y-8821348D01*
X14762975Y-8821348D02*
X14743927Y-8811824D01*
X14953451Y-8726110D02*
X14915356Y-8726110D01*
X14915356Y-8726110D02*
X14896308Y-8735633D01*
X14896308Y-8735633D02*
X14886784Y-8745157D01*
X14886784Y-8745157D02*
X14867737Y-8773729D01*
X14867737Y-8773729D02*
X14858213Y-8811824D01*
X14858213Y-8811824D02*
X14858213Y-8888014D01*
X14858213Y-8888014D02*
X14867737Y-8907062D01*
X14867737Y-8907062D02*
X14877260Y-8916586D01*
X14877260Y-8916586D02*
X14896308Y-8926110D01*
X14896308Y-8926110D02*
X14934403Y-8926110D01*
X14934403Y-8926110D02*
X14953451Y-8916586D01*
X14953451Y-8916586D02*
X14962975Y-8907062D01*
X14962975Y-8907062D02*
X14972498Y-8888014D01*
X14972498Y-8888014D02*
X14972498Y-8840395D01*
X14972498Y-8840395D02*
X14962975Y-8821348D01*
X14962975Y-8821348D02*
X14953451Y-8811824D01*
X14953451Y-8811824D02*
X14934403Y-8802300D01*
X14934403Y-8802300D02*
X14896308Y-8802300D01*
X14896308Y-8802300D02*
X14877260Y-8811824D01*
X14877260Y-8811824D02*
X14867737Y-8821348D01*
X14867737Y-8821348D02*
X14858213Y-8840395D01*
X15143927Y-8726110D02*
X15105832Y-8726110D01*
X15105832Y-8726110D02*
X15086784Y-8735633D01*
X15086784Y-8735633D02*
X15077260Y-8745157D01*
X15077260Y-8745157D02*
X15058213Y-8773729D01*
X15058213Y-8773729D02*
X15048689Y-8811824D01*
X15048689Y-8811824D02*
X15048689Y-8888014D01*
X15048689Y-8888014D02*
X15058213Y-8907062D01*
X15058213Y-8907062D02*
X15067737Y-8916586D01*
X15067737Y-8916586D02*
X15086784Y-8926110D01*
X15086784Y-8926110D02*
X15124879Y-8926110D01*
X15124879Y-8926110D02*
X15143927Y-8916586D01*
X15143927Y-8916586D02*
X15153451Y-8907062D01*
X15153451Y-8907062D02*
X15162975Y-8888014D01*
X15162975Y-8888014D02*
X15162975Y-8840395D01*
X15162975Y-8840395D02*
X15153451Y-8821348D01*
X15153451Y-8821348D02*
X15143927Y-8811824D01*
X15143927Y-8811824D02*
X15124879Y-8802300D01*
X15124879Y-8802300D02*
X15086784Y-8802300D01*
X15086784Y-8802300D02*
X15067737Y-8811824D01*
X15067737Y-8811824D02*
X15058213Y-8821348D01*
X15058213Y-8821348D02*
X15048689Y-8840395D01*
X15239165Y-8726110D02*
X15239165Y-8764205D01*
X15315356Y-8726110D02*
X15315356Y-8764205D01*
X15610594Y-9002300D02*
X15601070Y-8992776D01*
X15601070Y-8992776D02*
X15582022Y-8964205D01*
X15582022Y-8964205D02*
X15572499Y-8945157D01*
X15572499Y-8945157D02*
X15562975Y-8916586D01*
X15562975Y-8916586D02*
X15553451Y-8868967D01*
X15553451Y-8868967D02*
X15553451Y-8830872D01*
X15553451Y-8830872D02*
X15562975Y-8783252D01*
X15562975Y-8783252D02*
X15572499Y-8754681D01*
X15572499Y-8754681D02*
X15582022Y-8735633D01*
X15582022Y-8735633D02*
X15601070Y-8707062D01*
X15601070Y-8707062D02*
X15610594Y-8697538D01*
X15772499Y-8726110D02*
X15734403Y-8726110D01*
X15734403Y-8726110D02*
X15715356Y-8735633D01*
X15715356Y-8735633D02*
X15705832Y-8745157D01*
X15705832Y-8745157D02*
X15686784Y-8773729D01*
X15686784Y-8773729D02*
X15677260Y-8811824D01*
X15677260Y-8811824D02*
X15677260Y-8888014D01*
X15677260Y-8888014D02*
X15686784Y-8907062D01*
X15686784Y-8907062D02*
X15696308Y-8916586D01*
X15696308Y-8916586D02*
X15715356Y-8926110D01*
X15715356Y-8926110D02*
X15753451Y-8926110D01*
X15753451Y-8926110D02*
X15772499Y-8916586D01*
X15772499Y-8916586D02*
X15782022Y-8907062D01*
X15782022Y-8907062D02*
X15791546Y-8888014D01*
X15791546Y-8888014D02*
X15791546Y-8840395D01*
X15791546Y-8840395D02*
X15782022Y-8821348D01*
X15782022Y-8821348D02*
X15772499Y-8811824D01*
X15772499Y-8811824D02*
X15753451Y-8802300D01*
X15753451Y-8802300D02*
X15715356Y-8802300D01*
X15715356Y-8802300D02*
X15696308Y-8811824D01*
X15696308Y-8811824D02*
X15686784Y-8821348D01*
X15686784Y-8821348D02*
X15677260Y-8840395D01*
X16029641Y-8926110D02*
X16029641Y-8726110D01*
X16115356Y-8926110D02*
X16115356Y-8821348D01*
X16115356Y-8821348D02*
X16105832Y-8802300D01*
X16105832Y-8802300D02*
X16086784Y-8792776D01*
X16086784Y-8792776D02*
X16058213Y-8792776D01*
X16058213Y-8792776D02*
X16039165Y-8802300D01*
X16039165Y-8802300D02*
X16029641Y-8811824D01*
X16239165Y-8926110D02*
X16220118Y-8916586D01*
X16220118Y-8916586D02*
X16210594Y-8907062D01*
X16210594Y-8907062D02*
X16201070Y-8888014D01*
X16201070Y-8888014D02*
X16201070Y-8830872D01*
X16201070Y-8830872D02*
X16210594Y-8811824D01*
X16210594Y-8811824D02*
X16220118Y-8802300D01*
X16220118Y-8802300D02*
X16239165Y-8792776D01*
X16239165Y-8792776D02*
X16267737Y-8792776D01*
X16267737Y-8792776D02*
X16286784Y-8802300D01*
X16286784Y-8802300D02*
X16296308Y-8811824D01*
X16296308Y-8811824D02*
X16305832Y-8830872D01*
X16305832Y-8830872D02*
X16305832Y-8888014D01*
X16305832Y-8888014D02*
X16296308Y-8907062D01*
X16296308Y-8907062D02*
X16286784Y-8916586D01*
X16286784Y-8916586D02*
X16267737Y-8926110D01*
X16267737Y-8926110D02*
X16239165Y-8926110D01*
X16420118Y-8926110D02*
X16401070Y-8916586D01*
X16401070Y-8916586D02*
X16391546Y-8897538D01*
X16391546Y-8897538D02*
X16391546Y-8726110D01*
X16572499Y-8916586D02*
X16553451Y-8926110D01*
X16553451Y-8926110D02*
X16515356Y-8926110D01*
X16515356Y-8926110D02*
X16496308Y-8916586D01*
X16496308Y-8916586D02*
X16486784Y-8897538D01*
X16486784Y-8897538D02*
X16486784Y-8821348D01*
X16486784Y-8821348D02*
X16496308Y-8802300D01*
X16496308Y-8802300D02*
X16515356Y-8792776D01*
X16515356Y-8792776D02*
X16553451Y-8792776D01*
X16553451Y-8792776D02*
X16572499Y-8802300D01*
X16572499Y-8802300D02*
X16582022Y-8821348D01*
X16582022Y-8821348D02*
X16582022Y-8840395D01*
X16582022Y-8840395D02*
X16486784Y-8859443D01*
X16658213Y-8916586D02*
X16677261Y-8926110D01*
X16677261Y-8926110D02*
X16715356Y-8926110D01*
X16715356Y-8926110D02*
X16734403Y-8916586D01*
X16734403Y-8916586D02*
X16743927Y-8897538D01*
X16743927Y-8897538D02*
X16743927Y-8888014D01*
X16743927Y-8888014D02*
X16734403Y-8868967D01*
X16734403Y-8868967D02*
X16715356Y-8859443D01*
X16715356Y-8859443D02*
X16686784Y-8859443D01*
X16686784Y-8859443D02*
X16667737Y-8849919D01*
X16667737Y-8849919D02*
X16658213Y-8830872D01*
X16658213Y-8830872D02*
X16658213Y-8821348D01*
X16658213Y-8821348D02*
X16667737Y-8802300D01*
X16667737Y-8802300D02*
X16686784Y-8792776D01*
X16686784Y-8792776D02*
X16715356Y-8792776D01*
X16715356Y-8792776D02*
X16734403Y-8802300D01*
X16810594Y-9002300D02*
X16820118Y-8992776D01*
X16820118Y-8992776D02*
X16839165Y-8964205D01*
X16839165Y-8964205D02*
X16848689Y-8945157D01*
X16848689Y-8945157D02*
X16858213Y-8916586D01*
X16858213Y-8916586D02*
X16867737Y-8868967D01*
X16867737Y-8868967D02*
X16867737Y-8830872D01*
X16867737Y-8830872D02*
X16858213Y-8783252D01*
X16858213Y-8783252D02*
X16848689Y-8754681D01*
X16848689Y-8754681D02*
X16839165Y-8735633D01*
X16839165Y-8735633D02*
X16820118Y-8707062D01*
X16820118Y-8707062D02*
X16810594Y-8697538D01*
M02*
