G04 #@! TF.GenerationSoftware,KiCad,Pcbnew,8.0.5*
G04 #@! TF.CreationDate,2024-09-18T06:53:56+09:00*
G04 #@! TF.ProjectId,SandyLP_Top,53616e64-794c-4505-9f54-6f702e6b6963,v.0*
G04 #@! TF.SameCoordinates,Original*
G04 #@! TF.FileFunction,Legend,Top*
G04 #@! TF.FilePolarity,Positive*
%FSLAX46Y46*%
G04 Gerber Fmt 4.6, Leading zero omitted, Abs format (unit mm)*
G04 Created by KiCad (PCBNEW 8.0.5) date 2024-09-18 06:53:56*
%MOMM*%
%LPD*%
G01*
G04 APERTURE LIST*
%ADD10C,0.200000*%
%ADD11C,0.060000*%
%ADD12C,0.120000*%
%ADD13C,3.000000*%
%ADD14C,5.000000*%
%ADD15C,1.600000*%
%ADD16C,0.800000*%
%ADD17C,3.600000*%
%ADD18C,2.000000*%
G04 APERTURE END LIST*
D10*
X158233124Y-71017374D02*
X157781655Y-70990905D01*
X158233124Y-71017374D02*
X158081655Y-71490905D01*
X158233124Y-71017374D02*
G75*
G02*
X156181655Y-70065905I-851469J851469D01*
G01*
X169813426Y-58287488D02*
X169361957Y-58261019D01*
X169813426Y-58287488D02*
X169661957Y-58761019D01*
X169813426Y-58287488D02*
G75*
G02*
X167761957Y-57336019I-851469J851469D01*
G01*
X139213426Y-46887488D02*
X138761957Y-46861019D01*
X139213426Y-46887488D02*
X139061957Y-47361019D01*
X139213426Y-46887488D02*
G75*
G02*
X137161957Y-45936019I-851469J851469D01*
G01*
D11*
X156643001Y-70057889D02*
X157693001Y-70057889D01*
X156893001Y-69607889D02*
X157943001Y-69607889D01*
X157143001Y-69157889D02*
X158193001Y-69157889D01*
X157368001Y-68707889D02*
X158418001Y-68707889D01*
D12*
X157468001Y-70557889D02*
X158518001Y-68607889D01*
X157618001Y-68157889D02*
X156518001Y-70157889D01*
D11*
X157907800Y-67732936D02*
X158707800Y-68432936D01*
X158657800Y-67932936D02*
X157907800Y-68182936D01*
D12*
X157290641Y-67790494D02*
G75*
G02*
X157373001Y-67537890I97767J107852D01*
G01*
X157373001Y-67537890D02*
G75*
G02*
X159269183Y-68405085I324059J-1798087D01*
G01*
X157468001Y-70557889D02*
G75*
G02*
X156509423Y-70175047I-317503J596509D01*
G01*
X159183507Y-68644379D02*
G75*
G02*
X157263002Y-67757888I-168063J2159455D01*
G01*
X159265467Y-68408351D02*
G75*
G02*
X159183507Y-68644379I-107866J-94788D01*
G01*
D11*
X168286761Y-57187402D02*
X169336761Y-57187402D01*
X168536761Y-56737402D02*
X169586761Y-56737402D01*
X168786761Y-56287402D02*
X169836761Y-56287402D01*
X169011761Y-55837402D02*
X170061761Y-55837402D01*
D12*
X169111761Y-57687402D02*
X170161761Y-55737402D01*
X169261761Y-55287402D02*
X168161761Y-57287402D01*
D11*
X169551560Y-54862449D02*
X170351560Y-55562449D01*
X170301560Y-55062449D02*
X169551560Y-55312449D01*
D12*
X168934401Y-54920007D02*
G75*
G02*
X169016761Y-54667403I97767J107852D01*
G01*
X169016761Y-54667403D02*
G75*
G02*
X170912943Y-55534598I324059J-1798087D01*
G01*
X169111761Y-57687402D02*
G75*
G02*
X168153183Y-57304560I-317503J596509D01*
G01*
X170827267Y-55773892D02*
G75*
G02*
X168906762Y-54887401I-168063J2159455D01*
G01*
X170909227Y-55537864D02*
G75*
G02*
X170827267Y-55773892I-107866J-94788D01*
G01*
D10*
X146013426Y-58287488D02*
X145561957Y-58261019D01*
X146013426Y-58287488D02*
X145861957Y-58761019D01*
X146013426Y-58287488D02*
G75*
G02*
X143961957Y-57336019I-851469J851469D01*
G01*
D11*
X137686761Y-45787402D02*
X138736761Y-45787402D01*
X137936761Y-45337402D02*
X138986761Y-45337402D01*
X138186761Y-44887402D02*
X139236761Y-44887402D01*
X138411761Y-44437402D02*
X139461761Y-44437402D01*
D12*
X138511761Y-46287402D02*
X139561761Y-44337402D01*
X138661761Y-43887402D02*
X137561761Y-45887402D01*
D11*
X138951560Y-43462449D02*
X139751560Y-44162449D01*
X139701560Y-43662449D02*
X138951560Y-43912449D01*
D12*
X138334401Y-43520007D02*
G75*
G02*
X138416761Y-43267403I97767J107852D01*
G01*
X138416761Y-43267403D02*
G75*
G02*
X140312943Y-44134598I324059J-1798087D01*
G01*
X138511761Y-46287402D02*
G75*
G02*
X137553183Y-45904560I-317503J596509D01*
G01*
X140227267Y-44373892D02*
G75*
G02*
X138306762Y-43487401I-168063J2159455D01*
G01*
X140309227Y-44137864D02*
G75*
G02*
X140227267Y-44373892I-107866J-94788D01*
G01*
D11*
X156486761Y-51787402D02*
X157536761Y-51787402D01*
X156736761Y-51337402D02*
X157786761Y-51337402D01*
X156986761Y-50887402D02*
X158036761Y-50887402D01*
X157211761Y-50437402D02*
X158261761Y-50437402D01*
D12*
X157311761Y-52287402D02*
X158361761Y-50337402D01*
X157461761Y-49887402D02*
X156361761Y-51887402D01*
D11*
X157751560Y-49462449D02*
X158551560Y-50162449D01*
X158501560Y-49662449D02*
X157751560Y-49912449D01*
D12*
X157134401Y-49520007D02*
G75*
G02*
X157216761Y-49267403I97767J107852D01*
G01*
X157216761Y-49267403D02*
G75*
G02*
X159112943Y-50134598I324059J-1798087D01*
G01*
X157311761Y-52287402D02*
G75*
G02*
X156353183Y-51904560I-317503J596509D01*
G01*
X159027267Y-50373892D02*
G75*
G02*
X157106762Y-49487401I-168063J2159455D01*
G01*
X159109227Y-50137864D02*
G75*
G02*
X159027267Y-50373892I-107866J-94788D01*
G01*
D10*
X158013426Y-52887488D02*
X157561957Y-52861019D01*
X158013426Y-52887488D02*
X157861957Y-53361019D01*
X158013426Y-52887488D02*
G75*
G02*
X155961957Y-51936019I-851469J851469D01*
G01*
D11*
X175768001Y-45987402D02*
X176818001Y-45987402D01*
X176018001Y-45537402D02*
X177068001Y-45537402D01*
X176268001Y-45087402D02*
X177318001Y-45087402D01*
X176493001Y-44637402D02*
X177543001Y-44637402D01*
D12*
X176593001Y-46487402D02*
X177643001Y-44537402D01*
X176743001Y-44087402D02*
X175643001Y-46087402D01*
D11*
X177032800Y-43662449D02*
X177832800Y-44362449D01*
X177782800Y-43862449D02*
X177032800Y-44112449D01*
D12*
X176415641Y-43720007D02*
G75*
G02*
X176498001Y-43467403I97767J107852D01*
G01*
X176498001Y-43467403D02*
G75*
G02*
X178394183Y-44334598I324059J-1798087D01*
G01*
X176593001Y-46487402D02*
G75*
G02*
X175634423Y-46104560I-317503J596509D01*
G01*
X178308507Y-44573892D02*
G75*
G02*
X176388002Y-43687401I-168063J2159455D01*
G01*
X178390467Y-44337864D02*
G75*
G02*
X178308507Y-44573892I-107866J-94788D01*
G01*
D11*
X144486761Y-57187402D02*
X145536761Y-57187402D01*
X144736761Y-56737402D02*
X145786761Y-56737402D01*
X144986761Y-56287402D02*
X146036761Y-56287402D01*
X145211761Y-55837402D02*
X146261761Y-55837402D01*
D12*
X145311761Y-57687402D02*
X146361761Y-55737402D01*
X145461761Y-55287402D02*
X144361761Y-57287402D01*
D11*
X145751560Y-54862449D02*
X146551560Y-55562449D01*
X146501560Y-55062449D02*
X145751560Y-55312449D01*
D12*
X145134401Y-54920007D02*
G75*
G02*
X145216761Y-54667403I97767J107852D01*
G01*
X145216761Y-54667403D02*
G75*
G02*
X147112943Y-55534598I324059J-1798087D01*
G01*
X145311761Y-57687402D02*
G75*
G02*
X144353183Y-57304560I-317503J596509D01*
G01*
X147027267Y-55773892D02*
G75*
G02*
X145106762Y-54887401I-168063J2159455D01*
G01*
X147109227Y-55537864D02*
G75*
G02*
X147027267Y-55773892I-107866J-94788D01*
G01*
D10*
X177213426Y-46887488D02*
X176761957Y-46861019D01*
X177213426Y-46887488D02*
X177061957Y-47361019D01*
X177213426Y-46887488D02*
G75*
G02*
X175161957Y-45936019I-851469J851470D01*
G01*
%LPC*%
D13*
X143455310Y-68853405D03*
D14*
X148455310Y-65103405D03*
D13*
X148455310Y-71053405D03*
D15*
X153455310Y-59953405D03*
D16*
X140255310Y-67503405D03*
X140255310Y-70303405D03*
D13*
X143455310Y-49803405D03*
D14*
X148455310Y-46053405D03*
D13*
X148455310Y-52003405D03*
D15*
X153455310Y-40903405D03*
D17*
X142502185Y-55578405D03*
D13*
X181555310Y-49803405D03*
D14*
X186555310Y-46053405D03*
D13*
X186555310Y-52003405D03*
D15*
X191555310Y-40903405D03*
D17*
X177030310Y-40100280D03*
D13*
X124405310Y-49803405D03*
D14*
X129405310Y-46053405D03*
D13*
X129405310Y-52003405D03*
D15*
X134405310Y-40903405D03*
D16*
X121205310Y-48453405D03*
X121205310Y-51253405D03*
D17*
X157980310Y-65103405D03*
X157980310Y-46053405D03*
X138930310Y-40100280D03*
D13*
X162505310Y-49803405D03*
D14*
X167505310Y-46053405D03*
D13*
X167505310Y-52003405D03*
D15*
X172505310Y-40903405D03*
D17*
X173458435Y-55578405D03*
D13*
X162505310Y-68853405D03*
D14*
X167505310Y-65103405D03*
D13*
X167505310Y-71053405D03*
D15*
X172505310Y-59953405D03*
D18*
X128214685Y-41290905D03*
X187745935Y-41290905D03*
X166314685Y-41290905D03*
X173458435Y-68675280D03*
X147264685Y-60340905D03*
%LPD*%
M02*
