G04 #@! TF.GenerationSoftware,KiCad,Pcbnew,8.0.5*
G04 #@! TF.CreationDate,2024-09-18T06:53:56+09:00*
G04 #@! TF.ProjectId,SandyLP_Top,53616e64-794c-4505-9f54-6f702e6b6963,v.0*
G04 #@! TF.SameCoordinates,Original*
G04 #@! TF.FileFunction,AssemblyDrawing,Top*
%FSLAX46Y46*%
G04 Gerber Fmt 4.6, Leading zero omitted, Abs format (unit mm)*
G04 Created by KiCad (PCBNEW 8.0.5) date 2024-09-18 06:53:56*
%MOMM*%
%LPD*%
G01*
G04 APERTURE LIST*
%ADD10C,0.150000*%
G04 APERTURE END LIST*
D10*
X141740280Y-56033224D02*
X141740280Y-55033224D01*
X141740280Y-55509414D02*
X142311708Y-55509414D01*
X142311708Y-56033224D02*
X142311708Y-55033224D01*
X143216470Y-55366557D02*
X143216470Y-56033224D01*
X142978375Y-54985605D02*
X142740280Y-55699890D01*
X142740280Y-55699890D02*
X143359327Y-55699890D01*
X176268405Y-40555099D02*
X176268405Y-39555099D01*
X176268405Y-40031289D02*
X176839833Y-40031289D01*
X176839833Y-40555099D02*
X176839833Y-39555099D01*
X177220786Y-39555099D02*
X177839833Y-39555099D01*
X177839833Y-39555099D02*
X177506500Y-39936051D01*
X177506500Y-39936051D02*
X177649357Y-39936051D01*
X177649357Y-39936051D02*
X177744595Y-39983670D01*
X177744595Y-39983670D02*
X177792214Y-40031289D01*
X177792214Y-40031289D02*
X177839833Y-40126527D01*
X177839833Y-40126527D02*
X177839833Y-40364622D01*
X177839833Y-40364622D02*
X177792214Y-40459860D01*
X177792214Y-40459860D02*
X177744595Y-40507480D01*
X177744595Y-40507480D02*
X177649357Y-40555099D01*
X177649357Y-40555099D02*
X177363643Y-40555099D01*
X177363643Y-40555099D02*
X177268405Y-40507480D01*
X177268405Y-40507480D02*
X177220786Y-40459860D01*
X157218405Y-65558224D02*
X157218405Y-64558224D01*
X157218405Y-65034414D02*
X157789833Y-65034414D01*
X157789833Y-65558224D02*
X157789833Y-64558224D01*
X158694595Y-64558224D02*
X158504119Y-64558224D01*
X158504119Y-64558224D02*
X158408881Y-64605843D01*
X158408881Y-64605843D02*
X158361262Y-64653462D01*
X158361262Y-64653462D02*
X158266024Y-64796319D01*
X158266024Y-64796319D02*
X158218405Y-64986795D01*
X158218405Y-64986795D02*
X158218405Y-65367747D01*
X158218405Y-65367747D02*
X158266024Y-65462985D01*
X158266024Y-65462985D02*
X158313643Y-65510605D01*
X158313643Y-65510605D02*
X158408881Y-65558224D01*
X158408881Y-65558224D02*
X158599357Y-65558224D01*
X158599357Y-65558224D02*
X158694595Y-65510605D01*
X158694595Y-65510605D02*
X158742214Y-65462985D01*
X158742214Y-65462985D02*
X158789833Y-65367747D01*
X158789833Y-65367747D02*
X158789833Y-65129652D01*
X158789833Y-65129652D02*
X158742214Y-65034414D01*
X158742214Y-65034414D02*
X158694595Y-64986795D01*
X158694595Y-64986795D02*
X158599357Y-64939176D01*
X158599357Y-64939176D02*
X158408881Y-64939176D01*
X158408881Y-64939176D02*
X158313643Y-64986795D01*
X158313643Y-64986795D02*
X158266024Y-65034414D01*
X158266024Y-65034414D02*
X158218405Y-65129652D01*
X157218405Y-46508224D02*
X157218405Y-45508224D01*
X157218405Y-45984414D02*
X157789833Y-45984414D01*
X157789833Y-46508224D02*
X157789833Y-45508224D01*
X158218405Y-45603462D02*
X158266024Y-45555843D01*
X158266024Y-45555843D02*
X158361262Y-45508224D01*
X158361262Y-45508224D02*
X158599357Y-45508224D01*
X158599357Y-45508224D02*
X158694595Y-45555843D01*
X158694595Y-45555843D02*
X158742214Y-45603462D01*
X158742214Y-45603462D02*
X158789833Y-45698700D01*
X158789833Y-45698700D02*
X158789833Y-45793938D01*
X158789833Y-45793938D02*
X158742214Y-45936795D01*
X158742214Y-45936795D02*
X158170786Y-46508224D01*
X158170786Y-46508224D02*
X158789833Y-46508224D01*
X138168405Y-40555099D02*
X138168405Y-39555099D01*
X138168405Y-40031289D02*
X138739833Y-40031289D01*
X138739833Y-40555099D02*
X138739833Y-39555099D01*
X139739833Y-40555099D02*
X139168405Y-40555099D01*
X139454119Y-40555099D02*
X139454119Y-39555099D01*
X139454119Y-39555099D02*
X139358881Y-39697956D01*
X139358881Y-39697956D02*
X139263643Y-39793194D01*
X139263643Y-39793194D02*
X139168405Y-39840813D01*
X172696530Y-56033224D02*
X172696530Y-55033224D01*
X172696530Y-55509414D02*
X173267958Y-55509414D01*
X173267958Y-56033224D02*
X173267958Y-55033224D01*
X174220339Y-55033224D02*
X173744149Y-55033224D01*
X173744149Y-55033224D02*
X173696530Y-55509414D01*
X173696530Y-55509414D02*
X173744149Y-55461795D01*
X173744149Y-55461795D02*
X173839387Y-55414176D01*
X173839387Y-55414176D02*
X174077482Y-55414176D01*
X174077482Y-55414176D02*
X174172720Y-55461795D01*
X174172720Y-55461795D02*
X174220339Y-55509414D01*
X174220339Y-55509414D02*
X174267958Y-55604652D01*
X174267958Y-55604652D02*
X174267958Y-55842747D01*
X174267958Y-55842747D02*
X174220339Y-55937985D01*
X174220339Y-55937985D02*
X174172720Y-55985605D01*
X174172720Y-55985605D02*
X174077482Y-56033224D01*
X174077482Y-56033224D02*
X173839387Y-56033224D01*
X173839387Y-56033224D02*
X173744149Y-55985605D01*
X173744149Y-55985605D02*
X173696530Y-55937985D01*
X140955310Y-57603405D02*
X155955310Y-57603405D01*
X140955310Y-72603405D02*
X140955310Y-57603405D01*
X145855310Y-62003405D02*
X145855310Y-58803405D01*
X145855310Y-62003405D02*
X151055310Y-62003405D01*
X151055310Y-58803405D02*
X145855310Y-58803405D01*
X151055310Y-62003405D02*
X151055310Y-58803405D01*
X155955310Y-57603405D02*
X155955310Y-72603405D01*
X155955310Y-72603405D02*
X140955310Y-72603405D01*
X140955310Y-38553405D02*
X155955310Y-38553405D01*
X140955310Y-53553405D02*
X140955310Y-38553405D01*
X145855310Y-42953405D02*
X145855310Y-39753405D01*
X145855310Y-42953405D02*
X151055310Y-42953405D01*
X151055310Y-39753405D02*
X145855310Y-39753405D01*
X151055310Y-42953405D02*
X151055310Y-39753405D01*
X155955310Y-38553405D02*
X155955310Y-53553405D01*
X155955310Y-53553405D02*
X140955310Y-53553405D01*
X179055310Y-38553405D02*
X194055310Y-38553405D01*
X179055310Y-53553405D02*
X179055310Y-38553405D01*
X183955310Y-42953405D02*
X183955310Y-39753405D01*
X183955310Y-42953405D02*
X189155310Y-42953405D01*
X189155310Y-39753405D02*
X183955310Y-39753405D01*
X189155310Y-42953405D02*
X189155310Y-39753405D01*
X194055310Y-38553405D02*
X194055310Y-53553405D01*
X194055310Y-53553405D02*
X179055310Y-53553405D01*
X121905310Y-38553405D02*
X136905310Y-38553405D01*
X121905310Y-53553405D02*
X121905310Y-38553405D01*
X126805310Y-42953405D02*
X126805310Y-39753405D01*
X126805310Y-42953405D02*
X132005310Y-42953405D01*
X132005310Y-39753405D02*
X126805310Y-39753405D01*
X132005310Y-42953405D02*
X132005310Y-39753405D01*
X136905310Y-38553405D02*
X136905310Y-53553405D01*
X136905310Y-53553405D02*
X121905310Y-53553405D01*
X160005310Y-38553405D02*
X175005310Y-38553405D01*
X160005310Y-53553405D02*
X160005310Y-38553405D01*
X164905310Y-42953405D02*
X164905310Y-39753405D01*
X164905310Y-42953405D02*
X170105310Y-42953405D01*
X170105310Y-39753405D02*
X164905310Y-39753405D01*
X170105310Y-42953405D02*
X170105310Y-39753405D01*
X175005310Y-38553405D02*
X175005310Y-53553405D01*
X175005310Y-53553405D02*
X160005310Y-53553405D01*
X160005310Y-57603405D02*
X175005310Y-57603405D01*
X160005310Y-72603405D02*
X160005310Y-57603405D01*
X164905310Y-62003405D02*
X164905310Y-58803405D01*
X164905310Y-62003405D02*
X170105310Y-62003405D01*
X170105310Y-58803405D02*
X164905310Y-58803405D01*
X170105310Y-62003405D02*
X170105310Y-58803405D01*
X175005310Y-57603405D02*
X175005310Y-72603405D01*
X175005310Y-72603405D02*
X160005310Y-72603405D01*
M02*
