G04 #@! TF.GenerationSoftware,KiCad,Pcbnew,8.0.5*
G04 #@! TF.CreationDate,2024-09-18T06:53:56+09:00*
G04 #@! TF.ProjectId,SandyLP_Top,53616e64-794c-4505-9f54-6f702e6b6963,v.0*
G04 #@! TF.SameCoordinates,Original*
G04 #@! TF.FileFunction,Copper,L1,Top*
G04 #@! TF.FilePolarity,Positive*
%FSLAX46Y46*%
G04 Gerber Fmt 4.6, Leading zero omitted, Abs format (unit mm)*
G04 Created by KiCad (PCBNEW 8.0.5) date 2024-09-18 06:53:56*
%MOMM*%
%LPD*%
G01*
G04 APERTURE LIST*
G04 #@! TA.AperFunction,ComponentPad*
%ADD10C,0.800000*%
G04 #@! TD*
G04 #@! TA.AperFunction,ComponentPad*
%ADD11C,3.600000*%
G04 #@! TD*
G04 #@! TA.AperFunction,ComponentPad*
%ADD12C,2.000000*%
G04 #@! TD*
G04 #@! TA.AperFunction,ViaPad*
%ADD13C,0.800000*%
G04 #@! TD*
G04 #@! TA.AperFunction,Conductor*
%ADD14C,0.250000*%
G04 #@! TD*
G04 APERTURE END LIST*
D10*
X140255310Y-67503405D03*
X140255310Y-70303405D03*
D11*
X142502185Y-55578405D03*
X177030310Y-40100280D03*
D10*
X121205310Y-48453405D03*
X121205310Y-51253405D03*
D11*
X157980310Y-65103405D03*
X157980310Y-46053405D03*
X138930310Y-40100280D03*
X173458435Y-55578405D03*
D12*
X128214685Y-41290905D03*
X187745935Y-41290905D03*
X166314685Y-41290905D03*
X173458435Y-68675280D03*
X147264685Y-60340905D03*
D13*
X138930326Y-46053413D03*
X156880310Y-48928405D03*
X157980342Y-72842498D03*
X194294435Y-53792482D03*
X157980342Y-55578421D03*
X140716265Y-66294055D03*
X121666249Y-53792482D03*
X157980342Y-35337779D03*
X138930326Y-35337779D03*
X138930326Y-53792482D03*
X121666249Y-35337779D03*
X177030358Y-46053413D03*
X175244419Y-72842498D03*
X160880310Y-63728405D03*
X194294435Y-35337779D03*
X177030358Y-35337779D03*
X140716265Y-72842498D03*
X121666249Y-47244039D03*
X177030358Y-53792482D03*
X153680310Y-50353405D03*
X151730315Y-68972150D03*
X170505310Y-53878405D03*
D14*
X157980310Y-46053405D02*
X153680310Y-50353405D01*
X151730315Y-68972150D02*
X151730315Y-54278405D01*
X153680310Y-50353405D02*
X151730315Y-52303400D01*
X162742810Y-41290905D02*
X166314685Y-41290905D01*
X157980310Y-46053405D02*
X162742810Y-41290905D01*
X151730315Y-52303400D02*
X151730315Y-54278405D01*
X169205310Y-53878405D02*
X170505310Y-53878405D01*
X157980310Y-65103405D02*
X169205310Y-53878405D01*
G04 #@! TA.AperFunction,Conductor*
G36*
X193446043Y-34597787D02*
G01*
X193677745Y-34612974D01*
X193690574Y-34614663D01*
X193915137Y-34659332D01*
X193927641Y-34662683D01*
X193952620Y-34671162D01*
X194144445Y-34736278D01*
X194156397Y-34741228D01*
X194329936Y-34826809D01*
X194361739Y-34842493D01*
X194372953Y-34848967D01*
X194563318Y-34976164D01*
X194573592Y-34984047D01*
X194745732Y-35135008D01*
X194754884Y-35144160D01*
X194905852Y-35316306D01*
X194913721Y-35326561D01*
X194917702Y-35332518D01*
X195040924Y-35516932D01*
X195047396Y-35528142D01*
X195148665Y-35733489D01*
X195153618Y-35745446D01*
X195227212Y-35962244D01*
X195230564Y-35974752D01*
X195275233Y-36199307D01*
X195276923Y-36212145D01*
X195292098Y-36443613D01*
X195292310Y-36450090D01*
X195292310Y-52729327D01*
X195292098Y-52735806D01*
X195276903Y-52967502D01*
X195275212Y-52980340D01*
X195230540Y-53204879D01*
X195227188Y-53217388D01*
X195153588Y-53434183D01*
X195148633Y-53446145D01*
X195047372Y-53651472D01*
X195040896Y-53662688D01*
X194913693Y-53853049D01*
X194905810Y-53863321D01*
X194754858Y-54035444D01*
X194745701Y-54044601D01*
X194573570Y-54195550D01*
X194563297Y-54203433D01*
X194372935Y-54330626D01*
X194361720Y-54337101D01*
X194156381Y-54438360D01*
X194144418Y-54443315D01*
X193927632Y-54516904D01*
X193915123Y-54520256D01*
X193690573Y-54564921D01*
X193677734Y-54566611D01*
X193474143Y-54579956D01*
X193444989Y-54581867D01*
X193438519Y-54582079D01*
X193398015Y-54582079D01*
X193397753Y-54582108D01*
X178446426Y-54592051D01*
X178446299Y-54592009D01*
X178275230Y-54592009D01*
X178275229Y-54592009D01*
X178275226Y-54592009D01*
X178275221Y-54592009D01*
X178275214Y-54592010D01*
X178016964Y-54623367D01*
X178016953Y-54623369D01*
X177897285Y-54652865D01*
X177764346Y-54685632D01*
X177547183Y-54767992D01*
X177521084Y-54777890D01*
X177290721Y-54898795D01*
X177076604Y-55046594D01*
X176881872Y-55219116D01*
X176709350Y-55413860D01*
X176709347Y-55413864D01*
X176561560Y-55627981D01*
X176440659Y-55858351D01*
X176417601Y-55919157D01*
X176348409Y-56101617D01*
X176348408Y-56101620D01*
X176348408Y-56101621D01*
X176286156Y-56354221D01*
X176286155Y-56354225D01*
X176254805Y-56612499D01*
X176254805Y-56612508D01*
X176254807Y-56703202D01*
X176254745Y-56703851D01*
X176254810Y-56742572D01*
X176254810Y-56742729D01*
X176254812Y-56787539D01*
X176254884Y-56788171D01*
X176279713Y-71870849D01*
X176279501Y-71877484D01*
X176264327Y-72109084D01*
X176262637Y-72121924D01*
X176217974Y-72346478D01*
X176214622Y-72358988D01*
X176141033Y-72575780D01*
X176136078Y-72587744D01*
X176034816Y-72793085D01*
X176028341Y-72804300D01*
X175901147Y-72994661D01*
X175893263Y-73004936D01*
X175742302Y-73177072D01*
X175733144Y-73186229D01*
X175561013Y-73337180D01*
X175550739Y-73345063D01*
X175360376Y-73472256D01*
X175349161Y-73478731D01*
X175143823Y-73579987D01*
X175131858Y-73584943D01*
X174915054Y-73658532D01*
X174902545Y-73661883D01*
X174677999Y-73706540D01*
X174665159Y-73708230D01*
X174432999Y-73723438D01*
X174426528Y-73723650D01*
X174385844Y-73723650D01*
X174385808Y-73723653D01*
X141558553Y-73725757D01*
X141552073Y-73725545D01*
X141320378Y-73710360D01*
X141307539Y-73708670D01*
X141082991Y-73664006D01*
X141070481Y-73660654D01*
X140853683Y-73587060D01*
X140841719Y-73582104D01*
X140837426Y-73579987D01*
X140636379Y-73480841D01*
X140625174Y-73474372D01*
X140434809Y-73347172D01*
X140424537Y-73339291D01*
X140252400Y-73188329D01*
X140243248Y-73179177D01*
X140092278Y-73007025D01*
X140084415Y-72996776D01*
X139957215Y-72806403D01*
X139950743Y-72795194D01*
X139949703Y-72793085D01*
X139849480Y-72589846D01*
X139844529Y-72577894D01*
X139770936Y-72361083D01*
X139767586Y-72348576D01*
X139740037Y-72210066D01*
X139722923Y-72124022D01*
X139721236Y-72111202D01*
X139706022Y-71879008D01*
X139705810Y-71872535D01*
X139705810Y-70938670D01*
X146704810Y-70938670D01*
X146704810Y-71168139D01*
X146734762Y-71395643D01*
X146794151Y-71617290D01*
X146881963Y-71829288D01*
X146984181Y-72006336D01*
X146996699Y-72028017D01*
X147136391Y-72210066D01*
X147298649Y-72372324D01*
X147480698Y-72512016D01*
X147679422Y-72626749D01*
X147679423Y-72626749D01*
X147679426Y-72626751D01*
X147775477Y-72666536D01*
X147891423Y-72714563D01*
X148113072Y-72773953D01*
X148340576Y-72803905D01*
X148340577Y-72803905D01*
X148570043Y-72803905D01*
X148570044Y-72803905D01*
X148797548Y-72773953D01*
X149019197Y-72714563D01*
X149231198Y-72626749D01*
X149429922Y-72512016D01*
X149611971Y-72372324D01*
X149774229Y-72210066D01*
X149913921Y-72028017D01*
X150028654Y-71829293D01*
X150116468Y-71617292D01*
X150175858Y-71395643D01*
X150205810Y-71168139D01*
X150205810Y-70938671D01*
X150205810Y-70938670D01*
X165754810Y-70938670D01*
X165754810Y-71168139D01*
X165784762Y-71395643D01*
X165844151Y-71617290D01*
X165931963Y-71829288D01*
X166034181Y-72006336D01*
X166046699Y-72028017D01*
X166186391Y-72210066D01*
X166348649Y-72372324D01*
X166530698Y-72512016D01*
X166729422Y-72626749D01*
X166729423Y-72626749D01*
X166729426Y-72626751D01*
X166825477Y-72666536D01*
X166941423Y-72714563D01*
X167163072Y-72773953D01*
X167390576Y-72803905D01*
X167390577Y-72803905D01*
X167620043Y-72803905D01*
X167620044Y-72803905D01*
X167847548Y-72773953D01*
X168069197Y-72714563D01*
X168281198Y-72626749D01*
X168479922Y-72512016D01*
X168661971Y-72372324D01*
X168824229Y-72210066D01*
X168963921Y-72028017D01*
X169078654Y-71829293D01*
X169166468Y-71617292D01*
X169225858Y-71395643D01*
X169255810Y-71168139D01*
X169255810Y-70938671D01*
X169225858Y-70711167D01*
X169166468Y-70489518D01*
X169078654Y-70277517D01*
X168963921Y-70078793D01*
X168824229Y-69896744D01*
X168661971Y-69734486D01*
X168479922Y-69594794D01*
X168479923Y-69594794D01*
X168479921Y-69594793D01*
X168281193Y-69480058D01*
X168069195Y-69392246D01*
X167847548Y-69332857D01*
X167620044Y-69302905D01*
X167390576Y-69302905D01*
X167390575Y-69302905D01*
X167163071Y-69332857D01*
X166941424Y-69392246D01*
X166729426Y-69480058D01*
X166530698Y-69594793D01*
X166348652Y-69734483D01*
X166186388Y-69896747D01*
X166046698Y-70078793D01*
X165931963Y-70277521D01*
X165844151Y-70489519D01*
X165784762Y-70711166D01*
X165754810Y-70938670D01*
X150205810Y-70938670D01*
X150175858Y-70711167D01*
X150116468Y-70489518D01*
X150028654Y-70277517D01*
X149913921Y-70078793D01*
X149774229Y-69896744D01*
X149611971Y-69734486D01*
X149429922Y-69594794D01*
X149429923Y-69594794D01*
X149429921Y-69594793D01*
X149231193Y-69480058D01*
X149019195Y-69392246D01*
X148797548Y-69332857D01*
X148570044Y-69302905D01*
X148340576Y-69302905D01*
X148340575Y-69302905D01*
X148113071Y-69332857D01*
X147891424Y-69392246D01*
X147679426Y-69480058D01*
X147480698Y-69594793D01*
X147298652Y-69734483D01*
X147136388Y-69896747D01*
X146996698Y-70078793D01*
X146881963Y-70277521D01*
X146794151Y-70489519D01*
X146734762Y-70711166D01*
X146704810Y-70938670D01*
X139705810Y-70938670D01*
X139705810Y-70839425D01*
X139724717Y-70781234D01*
X139774217Y-70745270D01*
X139835403Y-70745270D01*
X139865077Y-70760883D01*
X139952469Y-70827941D01*
X139952470Y-70827941D01*
X139952471Y-70827942D01*
X140098543Y-70888447D01*
X140098548Y-70888449D01*
X140216119Y-70903927D01*
X140255309Y-70909087D01*
X140255310Y-70909087D01*
X140255311Y-70909087D01*
X140286662Y-70904959D01*
X140412072Y-70888449D01*
X140558151Y-70827941D01*
X140683592Y-70731687D01*
X140779846Y-70606246D01*
X140840354Y-70460167D01*
X140860992Y-70303405D01*
X140840354Y-70146643D01*
X140779847Y-70000566D01*
X140779847Y-70000565D01*
X140683596Y-69875128D01*
X140683595Y-69875127D01*
X140683592Y-69875123D01*
X140683587Y-69875119D01*
X140683586Y-69875118D01*
X140558148Y-69778867D01*
X140412076Y-69718362D01*
X140412068Y-69718360D01*
X140255311Y-69697723D01*
X140255309Y-69697723D01*
X140098551Y-69718360D01*
X140098543Y-69718362D01*
X139952473Y-69778866D01*
X139865077Y-69845927D01*
X139807401Y-69866350D01*
X139748735Y-69848972D01*
X139711488Y-69800430D01*
X139705810Y-69767384D01*
X139705810Y-68738670D01*
X141704810Y-68738670D01*
X141704810Y-68968139D01*
X141734762Y-69195643D01*
X141794151Y-69417290D01*
X141881963Y-69629288D01*
X141980771Y-69800430D01*
X141996699Y-69828017D01*
X142136391Y-70010066D01*
X142298649Y-70172324D01*
X142480698Y-70312016D01*
X142679422Y-70426749D01*
X142679423Y-70426749D01*
X142679426Y-70426751D01*
X142775477Y-70466536D01*
X142891423Y-70514563D01*
X143113072Y-70573953D01*
X143340576Y-70603905D01*
X143340577Y-70603905D01*
X143570043Y-70603905D01*
X143570044Y-70603905D01*
X143797548Y-70573953D01*
X144019197Y-70514563D01*
X144231198Y-70426749D01*
X144429922Y-70312016D01*
X144611971Y-70172324D01*
X144774229Y-70010066D01*
X144913921Y-69828017D01*
X145028654Y-69629293D01*
X145116468Y-69417292D01*
X145175858Y-69195643D01*
X145205282Y-68972149D01*
X151124633Y-68972149D01*
X151124633Y-68972150D01*
X151145270Y-69128908D01*
X151145272Y-69128916D01*
X151205777Y-69274988D01*
X151205777Y-69274989D01*
X151295752Y-69392247D01*
X151302033Y-69400432D01*
X151427474Y-69496686D01*
X151573553Y-69557194D01*
X151691124Y-69572672D01*
X151730314Y-69577832D01*
X151730315Y-69577832D01*
X151730316Y-69577832D01*
X151761667Y-69573704D01*
X151887077Y-69557194D01*
X152033156Y-69496686D01*
X152158597Y-69400432D01*
X152254851Y-69274991D01*
X152315359Y-69128912D01*
X152335997Y-68972150D01*
X152315359Y-68815388D01*
X152283581Y-68738670D01*
X160754810Y-68738670D01*
X160754810Y-68968139D01*
X160784762Y-69195643D01*
X160844151Y-69417290D01*
X160931963Y-69629288D01*
X161030771Y-69800430D01*
X161046699Y-69828017D01*
X161186391Y-70010066D01*
X161348649Y-70172324D01*
X161530698Y-70312016D01*
X161729422Y-70426749D01*
X161729423Y-70426749D01*
X161729426Y-70426751D01*
X161825477Y-70466536D01*
X161941423Y-70514563D01*
X162163072Y-70573953D01*
X162390576Y-70603905D01*
X162390577Y-70603905D01*
X162620043Y-70603905D01*
X162620044Y-70603905D01*
X162847548Y-70573953D01*
X163069197Y-70514563D01*
X163281198Y-70426749D01*
X163479922Y-70312016D01*
X163661971Y-70172324D01*
X163824229Y-70010066D01*
X163963921Y-69828017D01*
X164078654Y-69629293D01*
X164166468Y-69417292D01*
X164225858Y-69195643D01*
X164255810Y-68968139D01*
X164255810Y-68738671D01*
X164247464Y-68675280D01*
X172252792Y-68675280D01*
X172273320Y-68896816D01*
X172334206Y-69110808D01*
X172433377Y-69309969D01*
X172567454Y-69487516D01*
X172731873Y-69637404D01*
X172921034Y-69754527D01*
X173128495Y-69834898D01*
X173347192Y-69875780D01*
X173569678Y-69875780D01*
X173788375Y-69834898D01*
X173995836Y-69754527D01*
X174184997Y-69637404D01*
X174349416Y-69487516D01*
X174483493Y-69309969D01*
X174582664Y-69110808D01*
X174643550Y-68896816D01*
X174664078Y-68675280D01*
X174643550Y-68453744D01*
X174582664Y-68239752D01*
X174483493Y-68040591D01*
X174349416Y-67863044D01*
X174184997Y-67713156D01*
X173995836Y-67596033D01*
X173788375Y-67515662D01*
X173788374Y-67515661D01*
X173788372Y-67515661D01*
X173569678Y-67474780D01*
X173347192Y-67474780D01*
X173128497Y-67515661D01*
X173079905Y-67534486D01*
X172921034Y-67596033D01*
X172758375Y-67696747D01*
X172731873Y-67713156D01*
X172567455Y-67863043D01*
X172433378Y-68040589D01*
X172433373Y-68040598D01*
X172334207Y-68239749D01*
X172334206Y-68239752D01*
X172273320Y-68453744D01*
X172252792Y-68675280D01*
X164247464Y-68675280D01*
X164225858Y-68511167D01*
X164166468Y-68289518D01*
X164091731Y-68109087D01*
X164078656Y-68077521D01*
X164057333Y-68040589D01*
X163963921Y-67878793D01*
X163824229Y-67696744D01*
X163661971Y-67534486D01*
X163479922Y-67394794D01*
X163479923Y-67394794D01*
X163479921Y-67394793D01*
X163281193Y-67280058D01*
X163069195Y-67192246D01*
X162847548Y-67132857D01*
X162620044Y-67102905D01*
X162390576Y-67102905D01*
X162390575Y-67102905D01*
X162163071Y-67132857D01*
X161941424Y-67192246D01*
X161729426Y-67280058D01*
X161530698Y-67394793D01*
X161348652Y-67534483D01*
X161186388Y-67696747D01*
X161046698Y-67878793D01*
X160931963Y-68077521D01*
X160844151Y-68289519D01*
X160784762Y-68511166D01*
X160754810Y-68738670D01*
X152283581Y-68738670D01*
X152254852Y-68669311D01*
X152254852Y-68669310D01*
X152158596Y-68543867D01*
X152094547Y-68494720D01*
X152059892Y-68444295D01*
X152055815Y-68416178D01*
X152055815Y-65103405D01*
X155974700Y-65103405D01*
X155995113Y-65388827D01*
X156055942Y-65668455D01*
X156155943Y-65936567D01*
X156155944Y-65936569D01*
X156293081Y-66187715D01*
X156293084Y-66187720D01*
X156464571Y-66416800D01*
X156666915Y-66619144D01*
X156895995Y-66790631D01*
X156895999Y-66790633D01*
X157092118Y-66897723D01*
X157147149Y-66927772D01*
X157415264Y-67027774D01*
X157694882Y-67088601D01*
X157980310Y-67109015D01*
X158265738Y-67088601D01*
X158545356Y-67027774D01*
X158813471Y-66927772D01*
X159064625Y-66790631D01*
X159293705Y-66619144D01*
X159496049Y-66416800D01*
X159667536Y-66187720D01*
X159804677Y-65936566D01*
X159904679Y-65668451D01*
X159965506Y-65388833D01*
X159985920Y-65103405D01*
X159974872Y-64948938D01*
X164754810Y-64948938D01*
X164754810Y-65257871D01*
X164789398Y-65564855D01*
X164858142Y-65866042D01*
X164960173Y-66157630D01*
X165094215Y-66435971D01*
X165209312Y-66619147D01*
X165258575Y-66697548D01*
X165451190Y-66939079D01*
X165669636Y-67157525D01*
X165911167Y-67350140D01*
X165982232Y-67394793D01*
X166155085Y-67503404D01*
X166172745Y-67514500D01*
X166451081Y-67648540D01*
X166742674Y-67750573D01*
X167043858Y-67819316D01*
X167350845Y-67853905D01*
X167350846Y-67853905D01*
X167659774Y-67853905D01*
X167659775Y-67853905D01*
X167966762Y-67819316D01*
X168267946Y-67750573D01*
X168559539Y-67648540D01*
X168837875Y-67514500D01*
X169099453Y-67350140D01*
X169340984Y-67157525D01*
X169559430Y-66939079D01*
X169752045Y-66697548D01*
X169916405Y-66435970D01*
X170050445Y-66157634D01*
X170152478Y-65866041D01*
X170221221Y-65564857D01*
X170255810Y-65257870D01*
X170255810Y-64948940D01*
X170221221Y-64641953D01*
X170152478Y-64340769D01*
X170050445Y-64049176D01*
X169916405Y-63770840D01*
X169752045Y-63509262D01*
X169559430Y-63267731D01*
X169340984Y-63049285D01*
X169099453Y-62856670D01*
X168837876Y-62692310D01*
X168559535Y-62558268D01*
X168267947Y-62456237D01*
X167966760Y-62387493D01*
X167659776Y-62352905D01*
X167659775Y-62352905D01*
X167350845Y-62352905D01*
X167350843Y-62352905D01*
X167043859Y-62387493D01*
X166742672Y-62456237D01*
X166451084Y-62558268D01*
X166172743Y-62692310D01*
X165911166Y-62856670D01*
X165669637Y-63049284D01*
X165451189Y-63267732D01*
X165258575Y-63509261D01*
X165094215Y-63770838D01*
X164960173Y-64049179D01*
X164858142Y-64340767D01*
X164789398Y-64641954D01*
X164754810Y-64948938D01*
X159974872Y-64948938D01*
X159965506Y-64817977D01*
X159904679Y-64538359D01*
X159804677Y-64270244D01*
X159667536Y-64019090D01*
X159667534Y-64019087D01*
X159657903Y-64006221D01*
X159638166Y-63948306D01*
X159656240Y-63889851D01*
X159667146Y-63876894D01*
X163694104Y-59849937D01*
X171454810Y-59849937D01*
X171454810Y-60056872D01*
X171495179Y-60259823D01*
X171574368Y-60451002D01*
X171574369Y-60451003D01*
X171689333Y-60623060D01*
X171835655Y-60769382D01*
X172007712Y-60884346D01*
X172198890Y-60963535D01*
X172401845Y-61003905D01*
X172401846Y-61003905D01*
X172608774Y-61003905D01*
X172608775Y-61003905D01*
X172811730Y-60963535D01*
X173002908Y-60884346D01*
X173174965Y-60769382D01*
X173321287Y-60623060D01*
X173436251Y-60451003D01*
X173515440Y-60259825D01*
X173555810Y-60056870D01*
X173555810Y-59849940D01*
X173515440Y-59646985D01*
X173436251Y-59455807D01*
X173321287Y-59283750D01*
X173174965Y-59137428D01*
X173002908Y-59022464D01*
X173002909Y-59022464D01*
X173002907Y-59022463D01*
X172811728Y-58943274D01*
X172608777Y-58902905D01*
X172608775Y-58902905D01*
X172401845Y-58902905D01*
X172401842Y-58902905D01*
X172198891Y-58943274D01*
X172007712Y-59022463D01*
X171835658Y-59137425D01*
X171689330Y-59283753D01*
X171574368Y-59455807D01*
X171495179Y-59646986D01*
X171454810Y-59849937D01*
X163694104Y-59849937D01*
X167965641Y-55578401D01*
X171353528Y-55578401D01*
X171353528Y-55578408D01*
X171373132Y-55865019D01*
X171373134Y-55865028D01*
X171431582Y-56146298D01*
X171527793Y-56417007D01*
X171659960Y-56672079D01*
X171805302Y-56877981D01*
X172522142Y-56161140D01*
X172619402Y-56295007D01*
X172741833Y-56417438D01*
X172875697Y-56514695D01*
X172160633Y-57229759D01*
X172244569Y-57298044D01*
X172244583Y-57298054D01*
X172490036Y-57447318D01*
X172490043Y-57447322D01*
X172753542Y-57561775D01*
X173030175Y-57639284D01*
X173030184Y-57639286D01*
X173314791Y-57678404D01*
X173314797Y-57678405D01*
X173602073Y-57678405D01*
X173602078Y-57678404D01*
X173886685Y-57639286D01*
X173886694Y-57639284D01*
X174163327Y-57561775D01*
X174426826Y-57447322D01*
X174426833Y-57447318D01*
X174672286Y-57298054D01*
X174672302Y-57298043D01*
X174756234Y-57229759D01*
X174041171Y-56514696D01*
X174175037Y-56417438D01*
X174297468Y-56295007D01*
X174394726Y-56161141D01*
X175111565Y-56877980D01*
X175256909Y-56672078D01*
X175389076Y-56417007D01*
X175485287Y-56146298D01*
X175543735Y-55865028D01*
X175543737Y-55865019D01*
X175563342Y-55578408D01*
X175563342Y-55578401D01*
X175543737Y-55291790D01*
X175543735Y-55291781D01*
X175485287Y-55010511D01*
X175389076Y-54739802D01*
X175256909Y-54484730D01*
X175111566Y-54278827D01*
X174394725Y-54995667D01*
X174297468Y-54861803D01*
X174175037Y-54739372D01*
X174041171Y-54642113D01*
X174756235Y-53927049D01*
X174672300Y-53858765D01*
X174672286Y-53858755D01*
X174426833Y-53709491D01*
X174426826Y-53709487D01*
X174163327Y-53595034D01*
X173886694Y-53517525D01*
X173886685Y-53517523D01*
X173602078Y-53478405D01*
X173314791Y-53478405D01*
X173030184Y-53517523D01*
X173030175Y-53517525D01*
X172753542Y-53595034D01*
X172490043Y-53709487D01*
X172490036Y-53709491D01*
X172244583Y-53858755D01*
X172244569Y-53858765D01*
X172160634Y-53927049D01*
X172875698Y-54642113D01*
X172741833Y-54739372D01*
X172619402Y-54861803D01*
X172522143Y-54995668D01*
X171805302Y-54278827D01*
X171659960Y-54484730D01*
X171527793Y-54739802D01*
X171431582Y-55010511D01*
X171373134Y-55291781D01*
X171373132Y-55291790D01*
X171353528Y-55578401D01*
X167965641Y-55578401D01*
X169311141Y-54232901D01*
X169365658Y-54205124D01*
X169381145Y-54203905D01*
X169949340Y-54203905D01*
X170007531Y-54222812D01*
X170027880Y-54242636D01*
X170077028Y-54306687D01*
X170202469Y-54402941D01*
X170202470Y-54402941D01*
X170202471Y-54402942D01*
X170287978Y-54438360D01*
X170348548Y-54463449D01*
X170462151Y-54478405D01*
X170505309Y-54484087D01*
X170505310Y-54484087D01*
X170505311Y-54484087D01*
X170548469Y-54478405D01*
X170662072Y-54463449D01*
X170808151Y-54402941D01*
X170933592Y-54306687D01*
X171029846Y-54181246D01*
X171090354Y-54035167D01*
X171110992Y-53878405D01*
X171090354Y-53721643D01*
X171090352Y-53721638D01*
X171029847Y-53575566D01*
X171029847Y-53575565D01*
X170933596Y-53450128D01*
X170933595Y-53450127D01*
X170933592Y-53450123D01*
X170933587Y-53450119D01*
X170933586Y-53450118D01*
X170862414Y-53395506D01*
X170808151Y-53353869D01*
X170808150Y-53353868D01*
X170808148Y-53353867D01*
X170662076Y-53293362D01*
X170662068Y-53293360D01*
X170505311Y-53272723D01*
X170505309Y-53272723D01*
X170348551Y-53293360D01*
X170348543Y-53293362D01*
X170202471Y-53353867D01*
X170202470Y-53353867D01*
X170077033Y-53450118D01*
X170077024Y-53450127D01*
X170027882Y-53514172D01*
X169977458Y-53548828D01*
X169949340Y-53552905D01*
X169248163Y-53552905D01*
X169162457Y-53552905D01*
X169111788Y-53566481D01*
X169079666Y-53575088D01*
X169005452Y-53617936D01*
X169005451Y-53617937D01*
X159206825Y-63416561D01*
X159152308Y-63444338D01*
X159091876Y-63434767D01*
X159077494Y-63425811D01*
X159064632Y-63416183D01*
X159064625Y-63416179D01*
X158813474Y-63279039D01*
X158813472Y-63279038D01*
X158545360Y-63179037D01*
X158545356Y-63179036D01*
X158265738Y-63118209D01*
X158265735Y-63118208D01*
X158265732Y-63118208D01*
X157980310Y-63097795D01*
X157694887Y-63118208D01*
X157415259Y-63179037D01*
X157147147Y-63279038D01*
X157147145Y-63279039D01*
X156895999Y-63416176D01*
X156666919Y-63587662D01*
X156464567Y-63790014D01*
X156293081Y-64019094D01*
X156155944Y-64270240D01*
X156155943Y-64270242D01*
X156055942Y-64538354D01*
X155995113Y-64817982D01*
X155974700Y-65103405D01*
X152055815Y-65103405D01*
X152055815Y-59849937D01*
X152404810Y-59849937D01*
X152404810Y-60056872D01*
X152445179Y-60259823D01*
X152524368Y-60451002D01*
X152524369Y-60451003D01*
X152639333Y-60623060D01*
X152785655Y-60769382D01*
X152957712Y-60884346D01*
X153148890Y-60963535D01*
X153351845Y-61003905D01*
X153351846Y-61003905D01*
X153558774Y-61003905D01*
X153558775Y-61003905D01*
X153761730Y-60963535D01*
X153952908Y-60884346D01*
X154124965Y-60769382D01*
X154271287Y-60623060D01*
X154386251Y-60451003D01*
X154465440Y-60259825D01*
X154505810Y-60056870D01*
X154505810Y-59849940D01*
X154465440Y-59646985D01*
X154386251Y-59455807D01*
X154271287Y-59283750D01*
X154124965Y-59137428D01*
X153952908Y-59022464D01*
X153952909Y-59022464D01*
X153952907Y-59022463D01*
X153761728Y-58943274D01*
X153558777Y-58902905D01*
X153558775Y-58902905D01*
X153351845Y-58902905D01*
X153351842Y-58902905D01*
X153148891Y-58943274D01*
X152957712Y-59022463D01*
X152785658Y-59137425D01*
X152639330Y-59283753D01*
X152524368Y-59455807D01*
X152445179Y-59646986D01*
X152404810Y-59849937D01*
X152055815Y-59849937D01*
X152055815Y-52479234D01*
X152074722Y-52421043D01*
X152084805Y-52409236D01*
X152605371Y-51888670D01*
X165754810Y-51888670D01*
X165754810Y-52118139D01*
X165784762Y-52345643D01*
X165844151Y-52567290D01*
X165931963Y-52779288D01*
X166046698Y-52978016D01*
X166102807Y-53051138D01*
X166186391Y-53160066D01*
X166348649Y-53322324D01*
X166530698Y-53462016D01*
X166729422Y-53576749D01*
X166729423Y-53576749D01*
X166729426Y-53576751D01*
X166825477Y-53616536D01*
X166941423Y-53664563D01*
X167163072Y-53723953D01*
X167390576Y-53753905D01*
X167390577Y-53753905D01*
X167620043Y-53753905D01*
X167620044Y-53753905D01*
X167847548Y-53723953D01*
X168069197Y-53664563D01*
X168281198Y-53576749D01*
X168479922Y-53462016D01*
X168661971Y-53322324D01*
X168824229Y-53160066D01*
X168963921Y-52978017D01*
X169078654Y-52779293D01*
X169166468Y-52567292D01*
X169225858Y-52345643D01*
X169255810Y-52118139D01*
X169255810Y-51888671D01*
X169255810Y-51888670D01*
X184804810Y-51888670D01*
X184804810Y-52118139D01*
X184834762Y-52345643D01*
X184894151Y-52567290D01*
X184981963Y-52779288D01*
X185096698Y-52978016D01*
X185152807Y-53051138D01*
X185236391Y-53160066D01*
X185398649Y-53322324D01*
X185580698Y-53462016D01*
X185779422Y-53576749D01*
X185779423Y-53576749D01*
X185779426Y-53576751D01*
X185875477Y-53616536D01*
X185991423Y-53664563D01*
X186213072Y-53723953D01*
X186440576Y-53753905D01*
X186440577Y-53753905D01*
X186670043Y-53753905D01*
X186670044Y-53753905D01*
X186897548Y-53723953D01*
X187119197Y-53664563D01*
X187331198Y-53576749D01*
X187529922Y-53462016D01*
X187711971Y-53322324D01*
X187874229Y-53160066D01*
X188013921Y-52978017D01*
X188128654Y-52779293D01*
X188216468Y-52567292D01*
X188275858Y-52345643D01*
X188305810Y-52118139D01*
X188305810Y-51888671D01*
X188275858Y-51661167D01*
X188216468Y-51439518D01*
X188128654Y-51227517D01*
X188013921Y-51028793D01*
X187874229Y-50846744D01*
X187711971Y-50684486D01*
X187529922Y-50544794D01*
X187529923Y-50544794D01*
X187529921Y-50544793D01*
X187331193Y-50430058D01*
X187119195Y-50342246D01*
X186897548Y-50282857D01*
X186670044Y-50252905D01*
X186440576Y-50252905D01*
X186440575Y-50252905D01*
X186213071Y-50282857D01*
X185991424Y-50342246D01*
X185779426Y-50430058D01*
X185580698Y-50544793D01*
X185398652Y-50684483D01*
X185236388Y-50846747D01*
X185096698Y-51028793D01*
X184981963Y-51227521D01*
X184894151Y-51439519D01*
X184834762Y-51661166D01*
X184804810Y-51888670D01*
X169255810Y-51888670D01*
X169225858Y-51661167D01*
X169166468Y-51439518D01*
X169078654Y-51227517D01*
X168963921Y-51028793D01*
X168824229Y-50846744D01*
X168661971Y-50684486D01*
X168479922Y-50544794D01*
X168479923Y-50544794D01*
X168479921Y-50544793D01*
X168281193Y-50430058D01*
X168069195Y-50342246D01*
X167847548Y-50282857D01*
X167620044Y-50252905D01*
X167390576Y-50252905D01*
X167390575Y-50252905D01*
X167163071Y-50282857D01*
X166941424Y-50342246D01*
X166729426Y-50430058D01*
X166530698Y-50544793D01*
X166348652Y-50684483D01*
X166186388Y-50846747D01*
X166046698Y-51028793D01*
X165931963Y-51227521D01*
X165844151Y-51439519D01*
X165784762Y-51661166D01*
X165754810Y-51888670D01*
X152605371Y-51888670D01*
X153517345Y-50976695D01*
X153571860Y-50948920D01*
X153600263Y-50948548D01*
X153680310Y-50959087D01*
X153837072Y-50938449D01*
X153983151Y-50877941D01*
X154108592Y-50781687D01*
X154204846Y-50656246D01*
X154265354Y-50510167D01*
X154285992Y-50353405D01*
X154275453Y-50273362D01*
X154286602Y-50213205D01*
X154303599Y-50190441D01*
X154805370Y-49688670D01*
X160754810Y-49688670D01*
X160754810Y-49918139D01*
X160784762Y-50145643D01*
X160844151Y-50367290D01*
X160931963Y-50579288D01*
X161046698Y-50778016D01*
X161049515Y-50781687D01*
X161186391Y-50960066D01*
X161348649Y-51122324D01*
X161530698Y-51262016D01*
X161729422Y-51376749D01*
X161729423Y-51376749D01*
X161729426Y-51376751D01*
X161825477Y-51416536D01*
X161941423Y-51464563D01*
X162163072Y-51523953D01*
X162390576Y-51553905D01*
X162390577Y-51553905D01*
X162620043Y-51553905D01*
X162620044Y-51553905D01*
X162847548Y-51523953D01*
X163069197Y-51464563D01*
X163281198Y-51376749D01*
X163479922Y-51262016D01*
X163661971Y-51122324D01*
X163824229Y-50960066D01*
X163963921Y-50778017D01*
X164078654Y-50579293D01*
X164166468Y-50367292D01*
X164225858Y-50145643D01*
X164255810Y-49918139D01*
X164255810Y-49688671D01*
X164255810Y-49688670D01*
X179804810Y-49688670D01*
X179804810Y-49918139D01*
X179834762Y-50145643D01*
X179894151Y-50367290D01*
X179981963Y-50579288D01*
X180096698Y-50778016D01*
X180099515Y-50781687D01*
X180236391Y-50960066D01*
X180398649Y-51122324D01*
X180580698Y-51262016D01*
X180779422Y-51376749D01*
X180779423Y-51376749D01*
X180779426Y-51376751D01*
X180875477Y-51416536D01*
X180991423Y-51464563D01*
X181213072Y-51523953D01*
X181440576Y-51553905D01*
X181440577Y-51553905D01*
X181670043Y-51553905D01*
X181670044Y-51553905D01*
X181897548Y-51523953D01*
X182119197Y-51464563D01*
X182331198Y-51376749D01*
X182529922Y-51262016D01*
X182711971Y-51122324D01*
X182874229Y-50960066D01*
X183013921Y-50778017D01*
X183128654Y-50579293D01*
X183216468Y-50367292D01*
X183275858Y-50145643D01*
X183305810Y-49918139D01*
X183305810Y-49688671D01*
X183275858Y-49461167D01*
X183216468Y-49239518D01*
X183141731Y-49059087D01*
X183128656Y-49027521D01*
X183106661Y-48989425D01*
X183013921Y-48828793D01*
X182874229Y-48646744D01*
X182711971Y-48484486D01*
X182529922Y-48344794D01*
X182529923Y-48344794D01*
X182529921Y-48344793D01*
X182331193Y-48230058D01*
X182119195Y-48142246D01*
X181897548Y-48082857D01*
X181670044Y-48052905D01*
X181440576Y-48052905D01*
X181440575Y-48052905D01*
X181213071Y-48082857D01*
X180991424Y-48142246D01*
X180779426Y-48230058D01*
X180580698Y-48344793D01*
X180398652Y-48484483D01*
X180236388Y-48646747D01*
X180096698Y-48828793D01*
X179981963Y-49027521D01*
X179894151Y-49239519D01*
X179834762Y-49461166D01*
X179804810Y-49688670D01*
X164255810Y-49688670D01*
X164225858Y-49461167D01*
X164166468Y-49239518D01*
X164091731Y-49059087D01*
X164078656Y-49027521D01*
X164056661Y-48989425D01*
X163963921Y-48828793D01*
X163824229Y-48646744D01*
X163661971Y-48484486D01*
X163479922Y-48344794D01*
X163479923Y-48344794D01*
X163479921Y-48344793D01*
X163281193Y-48230058D01*
X163069195Y-48142246D01*
X162847548Y-48082857D01*
X162620044Y-48052905D01*
X162390576Y-48052905D01*
X162390575Y-48052905D01*
X162163071Y-48082857D01*
X161941424Y-48142246D01*
X161729426Y-48230058D01*
X161530698Y-48344793D01*
X161348652Y-48484483D01*
X161186388Y-48646747D01*
X161046698Y-48828793D01*
X160931963Y-49027521D01*
X160844151Y-49239519D01*
X160784762Y-49461166D01*
X160754810Y-49688670D01*
X154805370Y-49688670D01*
X156753795Y-47740245D01*
X156808310Y-47712470D01*
X156868742Y-47722041D01*
X156883126Y-47730998D01*
X156895482Y-47740247D01*
X156895995Y-47740631D01*
X157147149Y-47877772D01*
X157415264Y-47977774D01*
X157694882Y-48038601D01*
X157980310Y-48059015D01*
X158265738Y-48038601D01*
X158545356Y-47977774D01*
X158813471Y-47877772D01*
X159064625Y-47740631D01*
X159293705Y-47569144D01*
X159496049Y-47366800D01*
X159667536Y-47137720D01*
X159804677Y-46886566D01*
X159904679Y-46618451D01*
X159965506Y-46338833D01*
X159985920Y-46053405D01*
X159974872Y-45898938D01*
X164754810Y-45898938D01*
X164754810Y-46207871D01*
X164789398Y-46514855D01*
X164858142Y-46816042D01*
X164960173Y-47107630D01*
X165094215Y-47385971D01*
X165209312Y-47569147D01*
X165258575Y-47647548D01*
X165451190Y-47889079D01*
X165669636Y-48107525D01*
X165911167Y-48300140D01*
X165982232Y-48344793D01*
X166155085Y-48453404D01*
X166172745Y-48464500D01*
X166451081Y-48598540D01*
X166742674Y-48700573D01*
X167043858Y-48769316D01*
X167350845Y-48803905D01*
X167350846Y-48803905D01*
X167659774Y-48803905D01*
X167659775Y-48803905D01*
X167966762Y-48769316D01*
X168267946Y-48700573D01*
X168559539Y-48598540D01*
X168837875Y-48464500D01*
X169099453Y-48300140D01*
X169340984Y-48107525D01*
X169559430Y-47889079D01*
X169752045Y-47647548D01*
X169916405Y-47385970D01*
X170050445Y-47107634D01*
X170152478Y-46816041D01*
X170221221Y-46514857D01*
X170255810Y-46207870D01*
X170255810Y-45898940D01*
X170255810Y-45898938D01*
X183804810Y-45898938D01*
X183804810Y-46207871D01*
X183839398Y-46514855D01*
X183908142Y-46816042D01*
X184010173Y-47107630D01*
X184144215Y-47385971D01*
X184259312Y-47569147D01*
X184308575Y-47647548D01*
X184501190Y-47889079D01*
X184719636Y-48107525D01*
X184961167Y-48300140D01*
X185032232Y-48344793D01*
X185205085Y-48453404D01*
X185222745Y-48464500D01*
X185501081Y-48598540D01*
X185792674Y-48700573D01*
X186093858Y-48769316D01*
X186400845Y-48803905D01*
X186400846Y-48803905D01*
X186709774Y-48803905D01*
X186709775Y-48803905D01*
X187016762Y-48769316D01*
X187317946Y-48700573D01*
X187609539Y-48598540D01*
X187887875Y-48464500D01*
X188149453Y-48300140D01*
X188390984Y-48107525D01*
X188609430Y-47889079D01*
X188802045Y-47647548D01*
X188966405Y-47385970D01*
X189100445Y-47107634D01*
X189202478Y-46816041D01*
X189271221Y-46514857D01*
X189305810Y-46207870D01*
X189305810Y-45898940D01*
X189271221Y-45591953D01*
X189202478Y-45290769D01*
X189100445Y-44999176D01*
X188966405Y-44720840D01*
X188802045Y-44459262D01*
X188609430Y-44217731D01*
X188390984Y-43999285D01*
X188149453Y-43806670D01*
X187887876Y-43642310D01*
X187609535Y-43508268D01*
X187317947Y-43406237D01*
X187016760Y-43337493D01*
X186709776Y-43302905D01*
X186709775Y-43302905D01*
X186400845Y-43302905D01*
X186400843Y-43302905D01*
X186093859Y-43337493D01*
X185792672Y-43406237D01*
X185501084Y-43508268D01*
X185222743Y-43642310D01*
X184961166Y-43806670D01*
X184719637Y-43999284D01*
X184501189Y-44217732D01*
X184308575Y-44459261D01*
X184144215Y-44720838D01*
X184010173Y-44999179D01*
X183908142Y-45290767D01*
X183839398Y-45591954D01*
X183804810Y-45898938D01*
X170255810Y-45898938D01*
X170221221Y-45591953D01*
X170152478Y-45290769D01*
X170050445Y-44999176D01*
X169916405Y-44720840D01*
X169752045Y-44459262D01*
X169559430Y-44217731D01*
X169340984Y-43999285D01*
X169099453Y-43806670D01*
X168837876Y-43642310D01*
X168559535Y-43508268D01*
X168267947Y-43406237D01*
X167966760Y-43337493D01*
X167659776Y-43302905D01*
X167659775Y-43302905D01*
X167350845Y-43302905D01*
X167350843Y-43302905D01*
X167043859Y-43337493D01*
X166742672Y-43406237D01*
X166451084Y-43508268D01*
X166172743Y-43642310D01*
X165911166Y-43806670D01*
X165669637Y-43999284D01*
X165451189Y-44217732D01*
X165258575Y-44459261D01*
X165094215Y-44720838D01*
X164960173Y-44999179D01*
X164858142Y-45290767D01*
X164789398Y-45591954D01*
X164754810Y-45898938D01*
X159974872Y-45898938D01*
X159965506Y-45767977D01*
X159904679Y-45488359D01*
X159804677Y-45220244D01*
X159667536Y-44969090D01*
X159667534Y-44969087D01*
X159657903Y-44956221D01*
X159638166Y-44898306D01*
X159656240Y-44839851D01*
X159667146Y-44826894D01*
X162848641Y-41645401D01*
X162903158Y-41617624D01*
X162918645Y-41616405D01*
X165084389Y-41616405D01*
X165142580Y-41635312D01*
X165178544Y-41684812D01*
X165179602Y-41688288D01*
X165190456Y-41726433D01*
X165289627Y-41925594D01*
X165423704Y-42103141D01*
X165588123Y-42253029D01*
X165777284Y-42370152D01*
X165984745Y-42450523D01*
X166203442Y-42491405D01*
X166425928Y-42491405D01*
X166644625Y-42450523D01*
X166852086Y-42370152D01*
X167041247Y-42253029D01*
X167205666Y-42103141D01*
X167339743Y-41925594D01*
X167438914Y-41726433D01*
X167499800Y-41512441D01*
X167520328Y-41290905D01*
X167499800Y-41069369D01*
X167438914Y-40855377D01*
X167411308Y-40799937D01*
X171454810Y-40799937D01*
X171454810Y-41006872D01*
X171495179Y-41209823D01*
X171574368Y-41401002D01*
X171582836Y-41413675D01*
X171689333Y-41573060D01*
X171835655Y-41719382D01*
X172007712Y-41834346D01*
X172198890Y-41913535D01*
X172401845Y-41953905D01*
X172401846Y-41953905D01*
X172608774Y-41953905D01*
X172608775Y-41953905D01*
X172811730Y-41913535D01*
X173002908Y-41834346D01*
X173174965Y-41719382D01*
X173321287Y-41573060D01*
X173436251Y-41401003D01*
X173515440Y-41209825D01*
X173555810Y-41006870D01*
X173555810Y-40799940D01*
X173515440Y-40596985D01*
X173436251Y-40405807D01*
X173321287Y-40233750D01*
X173187817Y-40100280D01*
X175024700Y-40100280D01*
X175045113Y-40385702D01*
X175045113Y-40385705D01*
X175045114Y-40385708D01*
X175091075Y-40596986D01*
X175105942Y-40665330D01*
X175205943Y-40933442D01*
X175205944Y-40933444D01*
X175343081Y-41184590D01*
X175343084Y-41184595D01*
X175514571Y-41413675D01*
X175716915Y-41616019D01*
X175945995Y-41787506D01*
X176197149Y-41924647D01*
X176465264Y-42024649D01*
X176744882Y-42085476D01*
X177030310Y-42105890D01*
X177315738Y-42085476D01*
X177595356Y-42024649D01*
X177863471Y-41924647D01*
X178114625Y-41787506D01*
X178343705Y-41616019D01*
X178546049Y-41413675D01*
X178637953Y-41290905D01*
X186540292Y-41290905D01*
X186560820Y-41512441D01*
X186621706Y-41726433D01*
X186720877Y-41925594D01*
X186854954Y-42103141D01*
X187019373Y-42253029D01*
X187208534Y-42370152D01*
X187415995Y-42450523D01*
X187634692Y-42491405D01*
X187857178Y-42491405D01*
X188075875Y-42450523D01*
X188283336Y-42370152D01*
X188472497Y-42253029D01*
X188636916Y-42103141D01*
X188770993Y-41925594D01*
X188870164Y-41726433D01*
X188931050Y-41512441D01*
X188951578Y-41290905D01*
X188931050Y-41069369D01*
X188870164Y-40855377D01*
X188842558Y-40799937D01*
X190504810Y-40799937D01*
X190504810Y-41006872D01*
X190545179Y-41209823D01*
X190624368Y-41401002D01*
X190632836Y-41413675D01*
X190739333Y-41573060D01*
X190885655Y-41719382D01*
X191057712Y-41834346D01*
X191248890Y-41913535D01*
X191451845Y-41953905D01*
X191451846Y-41953905D01*
X191658774Y-41953905D01*
X191658775Y-41953905D01*
X191861730Y-41913535D01*
X192052908Y-41834346D01*
X192224965Y-41719382D01*
X192371287Y-41573060D01*
X192486251Y-41401003D01*
X192565440Y-41209825D01*
X192605810Y-41006870D01*
X192605810Y-40799940D01*
X192565440Y-40596985D01*
X192486251Y-40405807D01*
X192371287Y-40233750D01*
X192224965Y-40087428D01*
X192052908Y-39972464D01*
X192052909Y-39972464D01*
X192052907Y-39972463D01*
X191861728Y-39893274D01*
X191658777Y-39852905D01*
X191658775Y-39852905D01*
X191451845Y-39852905D01*
X191451842Y-39852905D01*
X191248891Y-39893274D01*
X191057712Y-39972463D01*
X190885658Y-40087425D01*
X190739330Y-40233753D01*
X190624368Y-40405807D01*
X190545179Y-40596986D01*
X190504810Y-40799937D01*
X188842558Y-40799937D01*
X188770993Y-40656216D01*
X188636916Y-40478669D01*
X188472497Y-40328781D01*
X188283336Y-40211658D01*
X188075875Y-40131287D01*
X188075874Y-40131286D01*
X188075872Y-40131286D01*
X187857178Y-40090405D01*
X187634692Y-40090405D01*
X187415997Y-40131286D01*
X187339732Y-40160831D01*
X187208534Y-40211658D01*
X187019373Y-40328781D01*
X186854955Y-40478668D01*
X186720878Y-40656214D01*
X186720873Y-40656223D01*
X186649310Y-40799941D01*
X186621706Y-40855377D01*
X186560820Y-41069369D01*
X186540292Y-41290905D01*
X178637953Y-41290905D01*
X178717536Y-41184595D01*
X178854677Y-40933441D01*
X178954679Y-40665326D01*
X179015506Y-40385708D01*
X179035920Y-40100280D01*
X179015506Y-39814852D01*
X178954679Y-39535234D01*
X178854677Y-39267119D01*
X178717536Y-39015965D01*
X178546049Y-38786885D01*
X178343705Y-38584541D01*
X178114625Y-38413054D01*
X178114620Y-38413051D01*
X177863474Y-38275914D01*
X177863472Y-38275913D01*
X177595360Y-38175912D01*
X177595356Y-38175911D01*
X177315738Y-38115084D01*
X177315735Y-38115083D01*
X177315732Y-38115083D01*
X177030310Y-38094670D01*
X176744887Y-38115083D01*
X176465259Y-38175912D01*
X176197147Y-38275913D01*
X176197145Y-38275914D01*
X175945999Y-38413051D01*
X175716919Y-38584537D01*
X175514567Y-38786889D01*
X175343081Y-39015969D01*
X175205944Y-39267115D01*
X175205943Y-39267117D01*
X175105942Y-39535229D01*
X175045113Y-39814857D01*
X175024700Y-40100280D01*
X173187817Y-40100280D01*
X173174965Y-40087428D01*
X173002908Y-39972464D01*
X173002909Y-39972464D01*
X173002907Y-39972463D01*
X172811728Y-39893274D01*
X172608777Y-39852905D01*
X172608775Y-39852905D01*
X172401845Y-39852905D01*
X172401842Y-39852905D01*
X172198891Y-39893274D01*
X172007712Y-39972463D01*
X171835658Y-40087425D01*
X171689330Y-40233753D01*
X171574368Y-40405807D01*
X171495179Y-40596986D01*
X171454810Y-40799937D01*
X167411308Y-40799937D01*
X167339743Y-40656216D01*
X167205666Y-40478669D01*
X167041247Y-40328781D01*
X166852086Y-40211658D01*
X166644625Y-40131287D01*
X166644624Y-40131286D01*
X166644622Y-40131286D01*
X166425928Y-40090405D01*
X166203442Y-40090405D01*
X165984747Y-40131286D01*
X165908482Y-40160831D01*
X165777284Y-40211658D01*
X165588123Y-40328781D01*
X165423705Y-40478668D01*
X165289628Y-40656214D01*
X165289623Y-40656223D01*
X165190457Y-40855374D01*
X165179610Y-40893498D01*
X165145499Y-40944293D01*
X165088047Y-40965337D01*
X165084389Y-40965405D01*
X162785663Y-40965405D01*
X162699957Y-40965405D01*
X162649288Y-40978981D01*
X162617166Y-40987588D01*
X162542952Y-41030436D01*
X162542951Y-41030437D01*
X159206825Y-44366561D01*
X159152308Y-44394338D01*
X159091876Y-44384767D01*
X159077494Y-44375811D01*
X159064632Y-44366183D01*
X159064625Y-44366179D01*
X158813474Y-44229039D01*
X158813472Y-44229038D01*
X158545360Y-44129037D01*
X158545356Y-44129036D01*
X158265738Y-44068209D01*
X158265735Y-44068208D01*
X158265732Y-44068208D01*
X157980310Y-44047795D01*
X157694887Y-44068208D01*
X157415259Y-44129037D01*
X157147147Y-44229038D01*
X157147145Y-44229039D01*
X156895999Y-44366176D01*
X156666919Y-44537662D01*
X156464567Y-44740014D01*
X156293081Y-44969094D01*
X156155944Y-45220240D01*
X156155943Y-45220242D01*
X156055942Y-45488354D01*
X155995113Y-45767982D01*
X155974700Y-46053405D01*
X155995113Y-46338827D01*
X156055942Y-46618455D01*
X156155943Y-46886567D01*
X156155944Y-46886569D01*
X156293084Y-47137720D01*
X156293088Y-47137727D01*
X156302716Y-47150589D01*
X156322452Y-47208504D01*
X156304377Y-47266958D01*
X156293466Y-47279920D01*
X153843275Y-49730111D01*
X153788758Y-49757888D01*
X153760349Y-49758260D01*
X153680311Y-49747723D01*
X153680309Y-49747723D01*
X153523551Y-49768360D01*
X153523543Y-49768362D01*
X153377471Y-49828867D01*
X153377470Y-49828867D01*
X153252033Y-49925118D01*
X153252023Y-49925128D01*
X153155772Y-50050565D01*
X153155772Y-50050566D01*
X153095267Y-50196638D01*
X153095265Y-50196646D01*
X153074628Y-50353404D01*
X153074628Y-50353405D01*
X153085165Y-50433444D01*
X153074015Y-50493605D01*
X153057016Y-50516370D01*
X151469847Y-52103541D01*
X151469846Y-52103542D01*
X151426997Y-52177760D01*
X151426996Y-52177760D01*
X151426997Y-52177761D01*
X151404815Y-52260547D01*
X151404815Y-68416178D01*
X151385908Y-68474369D01*
X151366083Y-68494720D01*
X151302033Y-68543867D01*
X151205777Y-68669310D01*
X151205777Y-68669311D01*
X151145272Y-68815383D01*
X151145270Y-68815391D01*
X151124633Y-68972149D01*
X145205282Y-68972149D01*
X145205810Y-68968139D01*
X145205810Y-68738671D01*
X145175858Y-68511167D01*
X145116468Y-68289518D01*
X145041731Y-68109087D01*
X145028656Y-68077521D01*
X145007333Y-68040589D01*
X144913921Y-67878793D01*
X144774229Y-67696744D01*
X144611971Y-67534486D01*
X144429922Y-67394794D01*
X144429923Y-67394794D01*
X144429921Y-67394793D01*
X144231193Y-67280058D01*
X144019195Y-67192246D01*
X143797548Y-67132857D01*
X143570044Y-67102905D01*
X143340576Y-67102905D01*
X143340575Y-67102905D01*
X143113071Y-67132857D01*
X142891424Y-67192246D01*
X142679426Y-67280058D01*
X142480698Y-67394793D01*
X142298652Y-67534483D01*
X142136388Y-67696747D01*
X141996698Y-67878793D01*
X141881963Y-68077521D01*
X141794151Y-68289519D01*
X141734762Y-68511166D01*
X141704810Y-68738670D01*
X139705810Y-68738670D01*
X139705810Y-68039425D01*
X139724717Y-67981234D01*
X139774217Y-67945270D01*
X139835403Y-67945270D01*
X139865077Y-67960883D01*
X139952469Y-68027941D01*
X139952470Y-68027941D01*
X139952471Y-68027942D01*
X140098543Y-68088447D01*
X140098548Y-68088449D01*
X140216119Y-68103927D01*
X140255309Y-68109087D01*
X140255310Y-68109087D01*
X140255311Y-68109087D01*
X140286662Y-68104959D01*
X140412072Y-68088449D01*
X140558151Y-68027941D01*
X140683592Y-67931687D01*
X140779846Y-67806246D01*
X140840354Y-67660167D01*
X140860992Y-67503405D01*
X140857223Y-67474780D01*
X140840354Y-67346646D01*
X140840354Y-67346643D01*
X140779847Y-67200566D01*
X140779847Y-67200565D01*
X140683596Y-67075128D01*
X140683595Y-67075127D01*
X140683592Y-67075123D01*
X140683587Y-67075119D01*
X140683586Y-67075118D01*
X140558148Y-66978867D01*
X140412076Y-66918362D01*
X140412068Y-66918360D01*
X140255311Y-66897723D01*
X140255309Y-66897723D01*
X140098551Y-66918360D01*
X140098543Y-66918362D01*
X139952473Y-66978866D01*
X139865077Y-67045927D01*
X139807401Y-67066350D01*
X139748735Y-67048972D01*
X139711488Y-67000430D01*
X139705810Y-66967384D01*
X139705810Y-64948938D01*
X145704810Y-64948938D01*
X145704810Y-65257871D01*
X145739398Y-65564855D01*
X145808142Y-65866042D01*
X145910173Y-66157630D01*
X146044215Y-66435971D01*
X146159312Y-66619147D01*
X146208575Y-66697548D01*
X146401190Y-66939079D01*
X146619636Y-67157525D01*
X146861167Y-67350140D01*
X146932232Y-67394793D01*
X147105085Y-67503404D01*
X147122745Y-67514500D01*
X147401081Y-67648540D01*
X147692674Y-67750573D01*
X147993858Y-67819316D01*
X148300845Y-67853905D01*
X148300846Y-67853905D01*
X148609774Y-67853905D01*
X148609775Y-67853905D01*
X148916762Y-67819316D01*
X149217946Y-67750573D01*
X149509539Y-67648540D01*
X149787875Y-67514500D01*
X150049453Y-67350140D01*
X150290984Y-67157525D01*
X150509430Y-66939079D01*
X150702045Y-66697548D01*
X150866405Y-66435970D01*
X151000445Y-66157634D01*
X151102478Y-65866041D01*
X151171221Y-65564857D01*
X151205810Y-65257870D01*
X151205810Y-64948940D01*
X151171221Y-64641953D01*
X151102478Y-64340769D01*
X151000445Y-64049176D01*
X150866405Y-63770840D01*
X150702045Y-63509262D01*
X150509430Y-63267731D01*
X150290984Y-63049285D01*
X150049453Y-62856670D01*
X149787876Y-62692310D01*
X149509535Y-62558268D01*
X149217947Y-62456237D01*
X148916760Y-62387493D01*
X148609776Y-62352905D01*
X148609775Y-62352905D01*
X148300845Y-62352905D01*
X148300843Y-62352905D01*
X147993859Y-62387493D01*
X147692672Y-62456237D01*
X147401084Y-62558268D01*
X147122743Y-62692310D01*
X146861166Y-62856670D01*
X146619637Y-63049284D01*
X146401189Y-63267732D01*
X146208575Y-63509261D01*
X146044215Y-63770838D01*
X145910173Y-64049179D01*
X145808142Y-64340767D01*
X145739398Y-64641954D01*
X145704810Y-64948938D01*
X139705810Y-64948938D01*
X139705810Y-60340905D01*
X146059042Y-60340905D01*
X146079570Y-60562441D01*
X146140456Y-60776433D01*
X146239627Y-60975594D01*
X146373704Y-61153141D01*
X146538123Y-61303029D01*
X146727284Y-61420152D01*
X146934745Y-61500523D01*
X147153442Y-61541405D01*
X147375928Y-61541405D01*
X147594625Y-61500523D01*
X147802086Y-61420152D01*
X147991247Y-61303029D01*
X148155666Y-61153141D01*
X148289743Y-60975594D01*
X148388914Y-60776433D01*
X148449800Y-60562441D01*
X148470328Y-60340905D01*
X148449800Y-60119369D01*
X148388914Y-59905377D01*
X148289743Y-59706216D01*
X148155666Y-59528669D01*
X147991247Y-59378781D01*
X147802086Y-59261658D01*
X147594625Y-59181287D01*
X147594624Y-59181286D01*
X147594622Y-59181286D01*
X147375928Y-59140405D01*
X147153442Y-59140405D01*
X146934747Y-59181286D01*
X146858482Y-59210831D01*
X146727284Y-59261658D01*
X146538123Y-59378781D01*
X146373705Y-59528668D01*
X146239628Y-59706214D01*
X146239623Y-59706223D01*
X146168060Y-59849941D01*
X146140456Y-59905377D01*
X146079570Y-60119369D01*
X146059042Y-60340905D01*
X139705810Y-60340905D01*
X139705810Y-56844394D01*
X139705835Y-56844313D01*
X139705834Y-56788171D01*
X139705833Y-56673281D01*
X139674470Y-56415015D01*
X139612205Y-56162413D01*
X139605013Y-56143451D01*
X139519947Y-55919158D01*
X139519947Y-55919157D01*
X139399041Y-55688795D01*
X139322842Y-55578405D01*
X140496575Y-55578405D01*
X140516988Y-55863827D01*
X140516988Y-55863830D01*
X140516989Y-55863833D01*
X140577816Y-56143451D01*
X140577817Y-56143455D01*
X140677818Y-56411567D01*
X140677819Y-56411569D01*
X140814956Y-56662715D01*
X140814959Y-56662720D01*
X140986446Y-56891800D01*
X141188790Y-57094144D01*
X141417870Y-57265631D01*
X141669024Y-57402772D01*
X141937139Y-57502774D01*
X142216757Y-57563601D01*
X142502185Y-57584015D01*
X142787613Y-57563601D01*
X143067231Y-57502774D01*
X143335346Y-57402772D01*
X143586500Y-57265631D01*
X143815580Y-57094144D01*
X144017924Y-56891800D01*
X144189411Y-56662720D01*
X144326552Y-56411566D01*
X144426554Y-56143451D01*
X144487381Y-55863833D01*
X144507795Y-55578405D01*
X144487381Y-55292977D01*
X144426554Y-55013359D01*
X144326552Y-54745244D01*
X144323580Y-54739802D01*
X144237341Y-54581867D01*
X144189411Y-54494090D01*
X144017924Y-54265010D01*
X143815580Y-54062666D01*
X143586500Y-53891179D01*
X143586495Y-53891176D01*
X143335349Y-53754039D01*
X143335347Y-53754038D01*
X143067235Y-53654037D01*
X143067231Y-53654036D01*
X142787613Y-53593209D01*
X142787610Y-53593208D01*
X142787607Y-53593208D01*
X142502185Y-53572795D01*
X142216762Y-53593208D01*
X142216757Y-53593208D01*
X142216757Y-53593209D01*
X142103084Y-53617937D01*
X141937134Y-53654037D01*
X141669022Y-53754038D01*
X141669020Y-53754039D01*
X141417874Y-53891176D01*
X141188794Y-54062662D01*
X140986442Y-54265014D01*
X140814956Y-54494094D01*
X140677819Y-54745240D01*
X140677818Y-54745242D01*
X140577817Y-55013354D01*
X140573370Y-55033798D01*
X140519821Y-55279961D01*
X140516988Y-55292982D01*
X140496575Y-55578405D01*
X139322842Y-55578405D01*
X139251249Y-55474687D01*
X139251245Y-55474682D01*
X139251238Y-55474673D01*
X139078737Y-55279961D01*
X139078736Y-55279960D01*
X138883995Y-55107436D01*
X138883989Y-55107431D01*
X138669887Y-54959648D01*
X138669879Y-54959643D01*
X138553941Y-54898795D01*
X138439518Y-54838742D01*
X138196262Y-54746487D01*
X137943658Y-54684225D01*
X137943646Y-54684223D01*
X137685404Y-54652866D01*
X137685396Y-54652865D01*
X137685392Y-54652865D01*
X137685388Y-54652865D01*
X122508549Y-54652865D01*
X122502074Y-54652653D01*
X122270377Y-54637467D01*
X122257539Y-54635777D01*
X122032990Y-54591113D01*
X122020480Y-54587761D01*
X121935739Y-54558995D01*
X121803680Y-54514166D01*
X121791717Y-54509211D01*
X121784174Y-54505491D01*
X121586377Y-54407948D01*
X121575172Y-54401479D01*
X121384807Y-54274279D01*
X121374535Y-54266398D01*
X121372952Y-54265010D01*
X121324835Y-54222812D01*
X121202402Y-54115439D01*
X121193246Y-54106282D01*
X121042289Y-53934147D01*
X121034405Y-53923873D01*
X120990902Y-53858765D01*
X120907209Y-53733507D01*
X120900737Y-53722296D01*
X120799477Y-53516954D01*
X120794522Y-53504991D01*
X120785498Y-53478405D01*
X120720932Y-53288194D01*
X120717581Y-53275688D01*
X120672917Y-53051129D01*
X120671230Y-53038308D01*
X120657800Y-52833359D01*
X120656022Y-52806219D01*
X120655810Y-52799746D01*
X120655810Y-51888670D01*
X127654810Y-51888670D01*
X127654810Y-52118139D01*
X127684762Y-52345643D01*
X127744151Y-52567290D01*
X127831963Y-52779288D01*
X127946698Y-52978016D01*
X128002807Y-53051138D01*
X128086391Y-53160066D01*
X128248649Y-53322324D01*
X128430698Y-53462016D01*
X128629422Y-53576749D01*
X128629423Y-53576749D01*
X128629426Y-53576751D01*
X128725477Y-53616536D01*
X128841423Y-53664563D01*
X129063072Y-53723953D01*
X129290576Y-53753905D01*
X129290577Y-53753905D01*
X129520043Y-53753905D01*
X129520044Y-53753905D01*
X129747548Y-53723953D01*
X129969197Y-53664563D01*
X130181198Y-53576749D01*
X130379922Y-53462016D01*
X130561971Y-53322324D01*
X130724229Y-53160066D01*
X130863921Y-52978017D01*
X130978654Y-52779293D01*
X131066468Y-52567292D01*
X131125858Y-52345643D01*
X131155810Y-52118139D01*
X131155810Y-51888671D01*
X131155810Y-51888670D01*
X146704810Y-51888670D01*
X146704810Y-52118139D01*
X146734762Y-52345643D01*
X146794151Y-52567290D01*
X146881963Y-52779288D01*
X146996698Y-52978016D01*
X147052807Y-53051138D01*
X147136391Y-53160066D01*
X147298649Y-53322324D01*
X147480698Y-53462016D01*
X147679422Y-53576749D01*
X147679423Y-53576749D01*
X147679426Y-53576751D01*
X147775477Y-53616536D01*
X147891423Y-53664563D01*
X148113072Y-53723953D01*
X148340576Y-53753905D01*
X148340577Y-53753905D01*
X148570043Y-53753905D01*
X148570044Y-53753905D01*
X148797548Y-53723953D01*
X149019197Y-53664563D01*
X149231198Y-53576749D01*
X149429922Y-53462016D01*
X149611971Y-53322324D01*
X149774229Y-53160066D01*
X149913921Y-52978017D01*
X150028654Y-52779293D01*
X150116468Y-52567292D01*
X150175858Y-52345643D01*
X150205810Y-52118139D01*
X150205810Y-51888671D01*
X150175858Y-51661167D01*
X150116468Y-51439518D01*
X150028654Y-51227517D01*
X149913921Y-51028793D01*
X149774229Y-50846744D01*
X149611971Y-50684486D01*
X149429922Y-50544794D01*
X149429923Y-50544794D01*
X149429921Y-50544793D01*
X149231193Y-50430058D01*
X149019195Y-50342246D01*
X148797548Y-50282857D01*
X148570044Y-50252905D01*
X148340576Y-50252905D01*
X148340575Y-50252905D01*
X148113071Y-50282857D01*
X147891424Y-50342246D01*
X147679426Y-50430058D01*
X147480698Y-50544793D01*
X147298652Y-50684483D01*
X147136388Y-50846747D01*
X146996698Y-51028793D01*
X146881963Y-51227521D01*
X146794151Y-51439519D01*
X146734762Y-51661166D01*
X146704810Y-51888670D01*
X131155810Y-51888670D01*
X131125858Y-51661167D01*
X131066468Y-51439518D01*
X130978654Y-51227517D01*
X130863921Y-51028793D01*
X130724229Y-50846744D01*
X130561971Y-50684486D01*
X130379922Y-50544794D01*
X130379923Y-50544794D01*
X130379921Y-50544793D01*
X130181193Y-50430058D01*
X129969195Y-50342246D01*
X129747548Y-50282857D01*
X129520044Y-50252905D01*
X129290576Y-50252905D01*
X129290575Y-50252905D01*
X129063071Y-50282857D01*
X128841424Y-50342246D01*
X128629426Y-50430058D01*
X128430698Y-50544793D01*
X128248652Y-50684483D01*
X128086388Y-50846747D01*
X127946698Y-51028793D01*
X127831963Y-51227521D01*
X127744151Y-51439519D01*
X127684762Y-51661166D01*
X127654810Y-51888670D01*
X120655810Y-51888670D01*
X120655810Y-51789425D01*
X120674717Y-51731234D01*
X120724217Y-51695270D01*
X120785403Y-51695270D01*
X120815077Y-51710883D01*
X120902469Y-51777941D01*
X120902470Y-51777941D01*
X120902471Y-51777942D01*
X121048543Y-51838447D01*
X121048548Y-51838449D01*
X121166119Y-51853927D01*
X121205309Y-51859087D01*
X121205310Y-51859087D01*
X121205311Y-51859087D01*
X121236662Y-51854959D01*
X121362072Y-51838449D01*
X121508151Y-51777941D01*
X121633592Y-51681687D01*
X121729846Y-51556246D01*
X121790354Y-51410167D01*
X121810992Y-51253405D01*
X121790354Y-51096643D01*
X121733780Y-50960062D01*
X121729847Y-50950566D01*
X121729847Y-50950565D01*
X121633596Y-50825128D01*
X121633595Y-50825127D01*
X121633592Y-50825123D01*
X121633587Y-50825119D01*
X121633586Y-50825118D01*
X121508148Y-50728867D01*
X121362076Y-50668362D01*
X121362068Y-50668360D01*
X121205311Y-50647723D01*
X121205309Y-50647723D01*
X121048551Y-50668360D01*
X121048543Y-50668362D01*
X120902473Y-50728866D01*
X120815077Y-50795927D01*
X120757401Y-50816350D01*
X120698735Y-50798972D01*
X120661488Y-50750430D01*
X120655810Y-50717384D01*
X120655810Y-49688670D01*
X122654810Y-49688670D01*
X122654810Y-49918139D01*
X122684762Y-50145643D01*
X122744151Y-50367290D01*
X122831963Y-50579288D01*
X122946698Y-50778016D01*
X122949515Y-50781687D01*
X123086391Y-50960066D01*
X123248649Y-51122324D01*
X123430698Y-51262016D01*
X123629422Y-51376749D01*
X123629423Y-51376749D01*
X123629426Y-51376751D01*
X123725477Y-51416536D01*
X123841423Y-51464563D01*
X124063072Y-51523953D01*
X124290576Y-51553905D01*
X124290577Y-51553905D01*
X124520043Y-51553905D01*
X124520044Y-51553905D01*
X124747548Y-51523953D01*
X124969197Y-51464563D01*
X125181198Y-51376749D01*
X125379922Y-51262016D01*
X125561971Y-51122324D01*
X125724229Y-50960066D01*
X125863921Y-50778017D01*
X125978654Y-50579293D01*
X126066468Y-50367292D01*
X126125858Y-50145643D01*
X126155810Y-49918139D01*
X126155810Y-49688671D01*
X126155810Y-49688670D01*
X141704810Y-49688670D01*
X141704810Y-49918139D01*
X141734762Y-50145643D01*
X141794151Y-50367290D01*
X141881963Y-50579288D01*
X141996698Y-50778016D01*
X141999515Y-50781687D01*
X142136391Y-50960066D01*
X142298649Y-51122324D01*
X142480698Y-51262016D01*
X142679422Y-51376749D01*
X142679423Y-51376749D01*
X142679426Y-51376751D01*
X142775477Y-51416536D01*
X142891423Y-51464563D01*
X143113072Y-51523953D01*
X143340576Y-51553905D01*
X143340577Y-51553905D01*
X143570043Y-51553905D01*
X143570044Y-51553905D01*
X143797548Y-51523953D01*
X144019197Y-51464563D01*
X144231198Y-51376749D01*
X144429922Y-51262016D01*
X144611971Y-51122324D01*
X144774229Y-50960066D01*
X144913921Y-50778017D01*
X145028654Y-50579293D01*
X145116468Y-50367292D01*
X145175858Y-50145643D01*
X145205810Y-49918139D01*
X145205810Y-49688671D01*
X145175858Y-49461167D01*
X145116468Y-49239518D01*
X145041731Y-49059087D01*
X145028656Y-49027521D01*
X145006661Y-48989425D01*
X144913921Y-48828793D01*
X144774229Y-48646744D01*
X144611971Y-48484486D01*
X144429922Y-48344794D01*
X144429923Y-48344794D01*
X144429921Y-48344793D01*
X144231193Y-48230058D01*
X144019195Y-48142246D01*
X143797548Y-48082857D01*
X143570044Y-48052905D01*
X143340576Y-48052905D01*
X143340575Y-48052905D01*
X143113071Y-48082857D01*
X142891424Y-48142246D01*
X142679426Y-48230058D01*
X142480698Y-48344793D01*
X142298652Y-48484483D01*
X142136388Y-48646747D01*
X141996698Y-48828793D01*
X141881963Y-49027521D01*
X141794151Y-49239519D01*
X141734762Y-49461166D01*
X141704810Y-49688670D01*
X126155810Y-49688670D01*
X126125858Y-49461167D01*
X126066468Y-49239518D01*
X125991731Y-49059087D01*
X125978656Y-49027521D01*
X125956661Y-48989425D01*
X125863921Y-48828793D01*
X125724229Y-48646744D01*
X125561971Y-48484486D01*
X125379922Y-48344794D01*
X125379923Y-48344794D01*
X125379921Y-48344793D01*
X125181193Y-48230058D01*
X124969195Y-48142246D01*
X124747548Y-48082857D01*
X124520044Y-48052905D01*
X124290576Y-48052905D01*
X124290575Y-48052905D01*
X124063071Y-48082857D01*
X123841424Y-48142246D01*
X123629426Y-48230058D01*
X123430698Y-48344793D01*
X123248652Y-48484483D01*
X123086388Y-48646747D01*
X122946698Y-48828793D01*
X122831963Y-49027521D01*
X122744151Y-49239519D01*
X122684762Y-49461166D01*
X122654810Y-49688670D01*
X120655810Y-49688670D01*
X120655810Y-48989425D01*
X120674717Y-48931234D01*
X120724217Y-48895270D01*
X120785403Y-48895270D01*
X120815077Y-48910883D01*
X120902469Y-48977941D01*
X120902470Y-48977941D01*
X120902471Y-48977942D01*
X121048543Y-49038447D01*
X121048548Y-49038449D01*
X121166119Y-49053927D01*
X121205309Y-49059087D01*
X121205310Y-49059087D01*
X121205311Y-49059087D01*
X121236662Y-49054959D01*
X121362072Y-49038449D01*
X121508151Y-48977941D01*
X121633592Y-48881687D01*
X121729846Y-48756246D01*
X121790354Y-48610167D01*
X121810992Y-48453405D01*
X121790354Y-48296643D01*
X121729847Y-48150566D01*
X121729847Y-48150565D01*
X121633596Y-48025128D01*
X121633595Y-48025127D01*
X121633592Y-48025123D01*
X121633587Y-48025119D01*
X121633586Y-48025118D01*
X121508148Y-47928867D01*
X121362076Y-47868362D01*
X121362068Y-47868360D01*
X121205311Y-47847723D01*
X121205309Y-47847723D01*
X121048551Y-47868360D01*
X121048543Y-47868362D01*
X120902473Y-47928866D01*
X120815077Y-47995927D01*
X120757401Y-48016350D01*
X120698735Y-47998972D01*
X120661488Y-47950430D01*
X120655810Y-47917384D01*
X120655810Y-45898938D01*
X126654810Y-45898938D01*
X126654810Y-46207871D01*
X126689398Y-46514855D01*
X126758142Y-46816042D01*
X126860173Y-47107630D01*
X126994215Y-47385971D01*
X127109312Y-47569147D01*
X127158575Y-47647548D01*
X127351190Y-47889079D01*
X127569636Y-48107525D01*
X127811167Y-48300140D01*
X127882232Y-48344793D01*
X128055085Y-48453404D01*
X128072745Y-48464500D01*
X128351081Y-48598540D01*
X128642674Y-48700573D01*
X128943858Y-48769316D01*
X129250845Y-48803905D01*
X129250846Y-48803905D01*
X129559774Y-48803905D01*
X129559775Y-48803905D01*
X129866762Y-48769316D01*
X130167946Y-48700573D01*
X130459539Y-48598540D01*
X130737875Y-48464500D01*
X130999453Y-48300140D01*
X131240984Y-48107525D01*
X131459430Y-47889079D01*
X131652045Y-47647548D01*
X131816405Y-47385970D01*
X131950445Y-47107634D01*
X132052478Y-46816041D01*
X132121221Y-46514857D01*
X132155810Y-46207870D01*
X132155810Y-45898940D01*
X132155810Y-45898938D01*
X145704810Y-45898938D01*
X145704810Y-46207871D01*
X145739398Y-46514855D01*
X145808142Y-46816042D01*
X145910173Y-47107630D01*
X146044215Y-47385971D01*
X146159312Y-47569147D01*
X146208575Y-47647548D01*
X146401190Y-47889079D01*
X146619636Y-48107525D01*
X146861167Y-48300140D01*
X146932232Y-48344793D01*
X147105085Y-48453404D01*
X147122745Y-48464500D01*
X147401081Y-48598540D01*
X147692674Y-48700573D01*
X147993858Y-48769316D01*
X148300845Y-48803905D01*
X148300846Y-48803905D01*
X148609774Y-48803905D01*
X148609775Y-48803905D01*
X148916762Y-48769316D01*
X149217946Y-48700573D01*
X149509539Y-48598540D01*
X149787875Y-48464500D01*
X150049453Y-48300140D01*
X150290984Y-48107525D01*
X150509430Y-47889079D01*
X150702045Y-47647548D01*
X150866405Y-47385970D01*
X151000445Y-47107634D01*
X151102478Y-46816041D01*
X151171221Y-46514857D01*
X151205810Y-46207870D01*
X151205810Y-45898940D01*
X151171221Y-45591953D01*
X151102478Y-45290769D01*
X151000445Y-44999176D01*
X150866405Y-44720840D01*
X150702045Y-44459262D01*
X150509430Y-44217731D01*
X150290984Y-43999285D01*
X150049453Y-43806670D01*
X149787876Y-43642310D01*
X149509535Y-43508268D01*
X149217947Y-43406237D01*
X148916760Y-43337493D01*
X148609776Y-43302905D01*
X148609775Y-43302905D01*
X148300845Y-43302905D01*
X148300843Y-43302905D01*
X147993859Y-43337493D01*
X147692672Y-43406237D01*
X147401084Y-43508268D01*
X147122743Y-43642310D01*
X146861166Y-43806670D01*
X146619637Y-43999284D01*
X146401189Y-44217732D01*
X146208575Y-44459261D01*
X146044215Y-44720838D01*
X145910173Y-44999179D01*
X145808142Y-45290767D01*
X145739398Y-45591954D01*
X145704810Y-45898938D01*
X132155810Y-45898938D01*
X132121221Y-45591953D01*
X132052478Y-45290769D01*
X131950445Y-44999176D01*
X131816405Y-44720840D01*
X131652045Y-44459262D01*
X131459430Y-44217731D01*
X131240984Y-43999285D01*
X130999453Y-43806670D01*
X130737876Y-43642310D01*
X130459535Y-43508268D01*
X130167947Y-43406237D01*
X129866760Y-43337493D01*
X129559776Y-43302905D01*
X129559775Y-43302905D01*
X129250845Y-43302905D01*
X129250843Y-43302905D01*
X128943859Y-43337493D01*
X128642672Y-43406237D01*
X128351084Y-43508268D01*
X128072743Y-43642310D01*
X127811166Y-43806670D01*
X127569637Y-43999284D01*
X127351189Y-44217732D01*
X127158575Y-44459261D01*
X126994215Y-44720838D01*
X126860173Y-44999179D01*
X126758142Y-45290767D01*
X126689398Y-45591954D01*
X126654810Y-45898938D01*
X120655810Y-45898938D01*
X120655810Y-41290905D01*
X127009042Y-41290905D01*
X127029570Y-41512441D01*
X127090456Y-41726433D01*
X127189627Y-41925594D01*
X127323704Y-42103141D01*
X127488123Y-42253029D01*
X127677284Y-42370152D01*
X127884745Y-42450523D01*
X128103442Y-42491405D01*
X128325928Y-42491405D01*
X128544625Y-42450523D01*
X128752086Y-42370152D01*
X128941247Y-42253029D01*
X129105666Y-42103141D01*
X129239743Y-41925594D01*
X129338914Y-41726433D01*
X129399800Y-41512441D01*
X129420328Y-41290905D01*
X129399800Y-41069369D01*
X129338914Y-40855377D01*
X129311308Y-40799937D01*
X133354810Y-40799937D01*
X133354810Y-41006872D01*
X133395179Y-41209823D01*
X133474368Y-41401002D01*
X133482836Y-41413675D01*
X133589333Y-41573060D01*
X133735655Y-41719382D01*
X133907712Y-41834346D01*
X134098890Y-41913535D01*
X134301845Y-41953905D01*
X134301846Y-41953905D01*
X134508774Y-41953905D01*
X134508775Y-41953905D01*
X134711730Y-41913535D01*
X134902908Y-41834346D01*
X135074965Y-41719382D01*
X135221287Y-41573060D01*
X135336251Y-41401003D01*
X135415440Y-41209825D01*
X135455810Y-41006870D01*
X135455810Y-40799940D01*
X135415440Y-40596985D01*
X135336251Y-40405807D01*
X135221287Y-40233750D01*
X135087817Y-40100280D01*
X136924700Y-40100280D01*
X136945113Y-40385702D01*
X136945113Y-40385705D01*
X136945114Y-40385708D01*
X136991075Y-40596986D01*
X137005942Y-40665330D01*
X137105943Y-40933442D01*
X137105944Y-40933444D01*
X137243081Y-41184590D01*
X137243084Y-41184595D01*
X137414571Y-41413675D01*
X137616915Y-41616019D01*
X137845995Y-41787506D01*
X138097149Y-41924647D01*
X138365264Y-42024649D01*
X138644882Y-42085476D01*
X138930310Y-42105890D01*
X139215738Y-42085476D01*
X139495356Y-42024649D01*
X139763471Y-41924647D01*
X140014625Y-41787506D01*
X140243705Y-41616019D01*
X140446049Y-41413675D01*
X140617536Y-41184595D01*
X140754677Y-40933441D01*
X140804472Y-40799937D01*
X152404810Y-40799937D01*
X152404810Y-41006872D01*
X152445179Y-41209823D01*
X152524368Y-41401002D01*
X152532836Y-41413675D01*
X152639333Y-41573060D01*
X152785655Y-41719382D01*
X152957712Y-41834346D01*
X153148890Y-41913535D01*
X153351845Y-41953905D01*
X153351846Y-41953905D01*
X153558774Y-41953905D01*
X153558775Y-41953905D01*
X153761730Y-41913535D01*
X153952908Y-41834346D01*
X154124965Y-41719382D01*
X154271287Y-41573060D01*
X154386251Y-41401003D01*
X154465440Y-41209825D01*
X154505810Y-41006870D01*
X154505810Y-40799940D01*
X154465440Y-40596985D01*
X154386251Y-40405807D01*
X154271287Y-40233750D01*
X154124965Y-40087428D01*
X153952908Y-39972464D01*
X153952909Y-39972464D01*
X153952907Y-39972463D01*
X153761728Y-39893274D01*
X153558777Y-39852905D01*
X153558775Y-39852905D01*
X153351845Y-39852905D01*
X153351842Y-39852905D01*
X153148891Y-39893274D01*
X152957712Y-39972463D01*
X152785658Y-40087425D01*
X152639330Y-40233753D01*
X152524368Y-40405807D01*
X152445179Y-40596986D01*
X152404810Y-40799937D01*
X140804472Y-40799937D01*
X140854679Y-40665326D01*
X140915506Y-40385708D01*
X140935920Y-40100280D01*
X140915506Y-39814852D01*
X140854679Y-39535234D01*
X140754677Y-39267119D01*
X140617536Y-39015965D01*
X140446049Y-38786885D01*
X140243705Y-38584541D01*
X140014625Y-38413054D01*
X140014620Y-38413051D01*
X139763474Y-38275914D01*
X139763472Y-38275913D01*
X139495360Y-38175912D01*
X139495356Y-38175911D01*
X139215738Y-38115084D01*
X139215735Y-38115083D01*
X139215732Y-38115083D01*
X138930310Y-38094670D01*
X138644887Y-38115083D01*
X138365259Y-38175912D01*
X138097147Y-38275913D01*
X138097145Y-38275914D01*
X137845999Y-38413051D01*
X137616919Y-38584537D01*
X137414567Y-38786889D01*
X137243081Y-39015969D01*
X137105944Y-39267115D01*
X137105943Y-39267117D01*
X137005942Y-39535229D01*
X136945113Y-39814857D01*
X136924700Y-40100280D01*
X135087817Y-40100280D01*
X135074965Y-40087428D01*
X134902908Y-39972464D01*
X134902909Y-39972464D01*
X134902907Y-39972463D01*
X134711728Y-39893274D01*
X134508777Y-39852905D01*
X134508775Y-39852905D01*
X134301845Y-39852905D01*
X134301842Y-39852905D01*
X134098891Y-39893274D01*
X133907712Y-39972463D01*
X133735658Y-40087425D01*
X133589330Y-40233753D01*
X133474368Y-40405807D01*
X133395179Y-40596986D01*
X133354810Y-40799937D01*
X129311308Y-40799937D01*
X129239743Y-40656216D01*
X129105666Y-40478669D01*
X128941247Y-40328781D01*
X128752086Y-40211658D01*
X128544625Y-40131287D01*
X128544624Y-40131286D01*
X128544622Y-40131286D01*
X128325928Y-40090405D01*
X128103442Y-40090405D01*
X127884747Y-40131286D01*
X127808482Y-40160831D01*
X127677284Y-40211658D01*
X127488123Y-40328781D01*
X127323705Y-40478668D01*
X127189628Y-40656214D01*
X127189623Y-40656223D01*
X127118060Y-40799941D01*
X127090456Y-40855377D01*
X127029570Y-41069369D01*
X127009042Y-41290905D01*
X120655810Y-41290905D01*
X120655810Y-36450315D01*
X120656022Y-36443839D01*
X120671211Y-36212149D01*
X120672901Y-36199310D01*
X120700866Y-36058730D01*
X120717571Y-35974752D01*
X120720921Y-35962251D01*
X120794522Y-35745438D01*
X120799467Y-35733503D01*
X120900738Y-35528149D01*
X120907202Y-35516953D01*
X121034417Y-35326566D01*
X121042278Y-35316321D01*
X121193246Y-35144180D01*
X121202393Y-35135032D01*
X121374545Y-34984061D01*
X121384801Y-34976191D01*
X121575175Y-34848990D01*
X121586380Y-34842520D01*
X121791728Y-34741256D01*
X121803691Y-34736302D01*
X121803768Y-34736276D01*
X122020496Y-34662708D01*
X122032974Y-34659364D01*
X122257547Y-34614695D01*
X122270372Y-34613007D01*
X122395428Y-34604811D01*
X122502615Y-34597787D01*
X122509089Y-34597575D01*
X122539660Y-34597575D01*
X193439568Y-34597575D01*
X193446043Y-34597787D01*
G37*
G04 #@! TD.AperFunction*
M02*
