G04 #@! TF.GenerationSoftware,KiCad,Pcbnew,8.0.5*
G04 #@! TF.CreationDate,2024-09-18T07:32:08+09:00*
G04 #@! TF.ProjectId,SandyLP_Middle,53616e64-794c-4505-9f4d-6964646c652e,v.0*
G04 #@! TF.SameCoordinates,Original*
G04 #@! TF.FileFunction,AssemblyDrawing,Bot*
%FSLAX46Y46*%
G04 Gerber Fmt 4.6, Leading zero omitted, Abs format (unit mm)*
G04 Created by KiCad (PCBNEW 8.0.5) date 2024-09-18 07:32:08*
%MOMM*%
%LPD*%
G01*
G04 APERTURE LIST*
%ADD10C,0.150000*%
%ADD11C,0.120000*%
%ADD12C,0.100000*%
G04 APERTURE END LIST*
D10*
X199041512Y-69880904D02*
X198974168Y-70015591D01*
X198974168Y-70015591D02*
X198805809Y-70183950D01*
X198805809Y-70183950D02*
X198704794Y-70217622D01*
X198704794Y-70217622D02*
X198637451Y-70217622D01*
X198637451Y-70217622D02*
X198536435Y-70183950D01*
X198536435Y-70183950D02*
X198469092Y-70116606D01*
X198469092Y-70116606D02*
X198435420Y-70015591D01*
X198435420Y-70015591D02*
X198435420Y-69948248D01*
X198435420Y-69948248D02*
X198469092Y-69847232D01*
X198469092Y-69847232D02*
X198570107Y-69678874D01*
X198570107Y-69678874D02*
X198603779Y-69577858D01*
X198603779Y-69577858D02*
X198603779Y-69510515D01*
X198603779Y-69510515D02*
X198570107Y-69409500D01*
X198570107Y-69409500D02*
X198502764Y-69342156D01*
X198502764Y-69342156D02*
X198401748Y-69308484D01*
X198401748Y-69308484D02*
X198334405Y-69308484D01*
X198334405Y-69308484D02*
X198233390Y-69342156D01*
X198233390Y-69342156D02*
X198065031Y-69510515D01*
X198065031Y-69510515D02*
X197997687Y-69645202D01*
X197728313Y-69847232D02*
X198267061Y-70722698D01*
X198267061Y-70722698D02*
X197627298Y-70352309D01*
X197627298Y-70352309D02*
X197997687Y-70992072D01*
X197997687Y-70992072D02*
X197122222Y-70453324D01*
X197795657Y-71328789D02*
X197256909Y-71867537D01*
X196617145Y-72372614D02*
X196516130Y-71800194D01*
X197021206Y-71968553D02*
X196314100Y-71261446D01*
X196314100Y-71261446D02*
X196044726Y-71530820D01*
X196044726Y-71530820D02*
X196011054Y-71631835D01*
X196011054Y-71631835D02*
X196011054Y-71699179D01*
X196011054Y-71699179D02*
X196044726Y-71800194D01*
X196044726Y-71800194D02*
X196145741Y-71901209D01*
X196145741Y-71901209D02*
X196246756Y-71934881D01*
X196246756Y-71934881D02*
X196314100Y-71934881D01*
X196314100Y-71934881D02*
X196415115Y-71901209D01*
X196415115Y-71901209D02*
X196684489Y-71631835D01*
X195539649Y-72507301D02*
X196011054Y-72978705D01*
X195438634Y-72069568D02*
X196112069Y-72406286D01*
X196112069Y-72406286D02*
X195674336Y-72844018D01*
X195169260Y-73685812D02*
X195236604Y-73685812D01*
X195236604Y-73685812D02*
X195371291Y-73618469D01*
X195371291Y-73618469D02*
X195438634Y-73551125D01*
X195438634Y-73551125D02*
X195505978Y-73416438D01*
X195505978Y-73416438D02*
X195505978Y-73281751D01*
X195505978Y-73281751D02*
X195472306Y-73180736D01*
X195472306Y-73180736D02*
X195371291Y-73012377D01*
X195371291Y-73012377D02*
X195270275Y-72911362D01*
X195270275Y-72911362D02*
X195101917Y-72810347D01*
X195101917Y-72810347D02*
X195000901Y-72776675D01*
X195000901Y-72776675D02*
X194866214Y-72776675D01*
X194866214Y-72776675D02*
X194731527Y-72844018D01*
X194731527Y-72844018D02*
X194664184Y-72911362D01*
X194664184Y-72911362D02*
X194596840Y-73046049D01*
X194596840Y-73046049D02*
X194596840Y-73113392D01*
X194933558Y-74056201D02*
X194226451Y-73349095D01*
X194226451Y-73349095D02*
X194529497Y-74460262D01*
X194529497Y-74460262D02*
X193822390Y-73753156D01*
X193586688Y-73988858D02*
X193182627Y-74392919D01*
X194091764Y-74897995D02*
X193384657Y-74190888D01*
X193889733Y-75234713D02*
X193350985Y-75773461D01*
X192711222Y-76278537D02*
X192610207Y-75706118D01*
X193115283Y-75874476D02*
X192408176Y-75167370D01*
X192408176Y-75167370D02*
X192138802Y-75436744D01*
X192138802Y-75436744D02*
X192105130Y-75537759D01*
X192105130Y-75537759D02*
X192105130Y-75605102D01*
X192105130Y-75605102D02*
X192138802Y-75706118D01*
X192138802Y-75706118D02*
X192239817Y-75807133D01*
X192239817Y-75807133D02*
X192340833Y-75840805D01*
X192340833Y-75840805D02*
X192408176Y-75840805D01*
X192408176Y-75840805D02*
X192509191Y-75807133D01*
X192509191Y-75807133D02*
X192778565Y-75537759D01*
X192037787Y-76951972D02*
X192441848Y-76547911D01*
X192239817Y-76749942D02*
X191532711Y-76042835D01*
X191532711Y-76042835D02*
X191701069Y-76076507D01*
X191701069Y-76076507D02*
X191835756Y-76076507D01*
X191835756Y-76076507D02*
X191936772Y-76042835D01*
X190370193Y-24670685D02*
X190302850Y-24805372D01*
X190302850Y-24805372D02*
X190134491Y-24973731D01*
X190134491Y-24973731D02*
X190033476Y-25007403D01*
X190033476Y-25007403D02*
X189966132Y-25007403D01*
X189966132Y-25007403D02*
X189865117Y-24973731D01*
X189865117Y-24973731D02*
X189797774Y-24906388D01*
X189797774Y-24906388D02*
X189764102Y-24805372D01*
X189764102Y-24805372D02*
X189764102Y-24738029D01*
X189764102Y-24738029D02*
X189797774Y-24637014D01*
X189797774Y-24637014D02*
X189898789Y-24468655D01*
X189898789Y-24468655D02*
X189932461Y-24367640D01*
X189932461Y-24367640D02*
X189932461Y-24300296D01*
X189932461Y-24300296D02*
X189898789Y-24199281D01*
X189898789Y-24199281D02*
X189831445Y-24131937D01*
X189831445Y-24131937D02*
X189730430Y-24098266D01*
X189730430Y-24098266D02*
X189663087Y-24098266D01*
X189663087Y-24098266D02*
X189562071Y-24131937D01*
X189562071Y-24131937D02*
X189393713Y-24300296D01*
X189393713Y-24300296D02*
X189326369Y-24434983D01*
X189056995Y-24637014D02*
X189595743Y-25512479D01*
X189595743Y-25512479D02*
X188955980Y-25142090D01*
X188955980Y-25142090D02*
X189326369Y-25781853D01*
X189326369Y-25781853D02*
X188450904Y-25243105D01*
X189124339Y-26118571D02*
X188585591Y-26657319D01*
X187642781Y-26051227D02*
X188215201Y-26623647D01*
X188215201Y-26623647D02*
X188248873Y-26724662D01*
X188248873Y-26724662D02*
X188248873Y-26792006D01*
X188248873Y-26792006D02*
X188215201Y-26893021D01*
X188215201Y-26893021D02*
X188080514Y-27027708D01*
X188080514Y-27027708D02*
X187979499Y-27061380D01*
X187979499Y-27061380D02*
X187912155Y-27061380D01*
X187912155Y-27061380D02*
X187811140Y-27027708D01*
X187811140Y-27027708D02*
X187238720Y-26455288D01*
X187238720Y-27869502D02*
X187642781Y-27465441D01*
X187440751Y-27667471D02*
X186733644Y-26960365D01*
X186733644Y-26960365D02*
X186902003Y-26994036D01*
X186902003Y-26994036D02*
X187036690Y-26994036D01*
X187036690Y-26994036D02*
X187137705Y-26960365D01*
X149959912Y-92057148D02*
X149892568Y-92191835D01*
X149892568Y-92191835D02*
X149724210Y-92360194D01*
X149724210Y-92360194D02*
X149623194Y-92393865D01*
X149623194Y-92393865D02*
X149555851Y-92393865D01*
X149555851Y-92393865D02*
X149454836Y-92360194D01*
X149454836Y-92360194D02*
X149387492Y-92292850D01*
X149387492Y-92292850D02*
X149353820Y-92191835D01*
X149353820Y-92191835D02*
X149353820Y-92124491D01*
X149353820Y-92124491D02*
X149387492Y-92023476D01*
X149387492Y-92023476D02*
X149488507Y-91855117D01*
X149488507Y-91855117D02*
X149522179Y-91754102D01*
X149522179Y-91754102D02*
X149522179Y-91686759D01*
X149522179Y-91686759D02*
X149488507Y-91585743D01*
X149488507Y-91585743D02*
X149421164Y-91518400D01*
X149421164Y-91518400D02*
X149320149Y-91484728D01*
X149320149Y-91484728D02*
X149252805Y-91484728D01*
X149252805Y-91484728D02*
X149151790Y-91518400D01*
X149151790Y-91518400D02*
X148983431Y-91686759D01*
X148983431Y-91686759D02*
X148916088Y-91821446D01*
X148646714Y-92023476D02*
X149185462Y-92898942D01*
X149185462Y-92898942D02*
X148545698Y-92528552D01*
X148545698Y-92528552D02*
X148916088Y-93168316D01*
X148916088Y-93168316D02*
X148040622Y-92629568D01*
X148714057Y-93505033D02*
X148175309Y-94043781D01*
X146895782Y-93841751D02*
X146929454Y-93740736D01*
X146929454Y-93740736D02*
X147030469Y-93639720D01*
X147030469Y-93639720D02*
X147165156Y-93572377D01*
X147165156Y-93572377D02*
X147299843Y-93572377D01*
X147299843Y-93572377D02*
X147400859Y-93606049D01*
X147400859Y-93606049D02*
X147569217Y-93707064D01*
X147569217Y-93707064D02*
X147670233Y-93808079D01*
X147670233Y-93808079D02*
X147771248Y-93976438D01*
X147771248Y-93976438D02*
X147804920Y-94077453D01*
X147804920Y-94077453D02*
X147804920Y-94212140D01*
X147804920Y-94212140D02*
X147737576Y-94346827D01*
X147737576Y-94346827D02*
X147670233Y-94414171D01*
X147670233Y-94414171D02*
X147535546Y-94481514D01*
X147535546Y-94481514D02*
X147468202Y-94481514D01*
X147468202Y-94481514D02*
X147232500Y-94245812D01*
X147232500Y-94245812D02*
X147367187Y-94111125D01*
X146862111Y-95222293D02*
X147266172Y-94818232D01*
X147064141Y-95020262D02*
X146357034Y-94313155D01*
X146357034Y-94313155D02*
X146525393Y-94346827D01*
X146525393Y-94346827D02*
X146660080Y-94346827D01*
X146660080Y-94346827D02*
X146761095Y-94313155D01*
X190370193Y-51611454D02*
X190302850Y-51746141D01*
X190302850Y-51746141D02*
X190134491Y-51914500D01*
X190134491Y-51914500D02*
X190033476Y-51948172D01*
X190033476Y-51948172D02*
X189966132Y-51948172D01*
X189966132Y-51948172D02*
X189865117Y-51914500D01*
X189865117Y-51914500D02*
X189797774Y-51847157D01*
X189797774Y-51847157D02*
X189764102Y-51746141D01*
X189764102Y-51746141D02*
X189764102Y-51678798D01*
X189764102Y-51678798D02*
X189797774Y-51577783D01*
X189797774Y-51577783D02*
X189898789Y-51409424D01*
X189898789Y-51409424D02*
X189932461Y-51308409D01*
X189932461Y-51308409D02*
X189932461Y-51241065D01*
X189932461Y-51241065D02*
X189898789Y-51140050D01*
X189898789Y-51140050D02*
X189831445Y-51072706D01*
X189831445Y-51072706D02*
X189730430Y-51039035D01*
X189730430Y-51039035D02*
X189663087Y-51039035D01*
X189663087Y-51039035D02*
X189562071Y-51072706D01*
X189562071Y-51072706D02*
X189393713Y-51241065D01*
X189393713Y-51241065D02*
X189326369Y-51375752D01*
X189056995Y-51577783D02*
X189595743Y-52453248D01*
X189595743Y-52453248D02*
X188955980Y-52082859D01*
X188955980Y-52082859D02*
X189326369Y-52722622D01*
X189326369Y-52722622D02*
X188450904Y-52183874D01*
X189124339Y-53059340D02*
X188585591Y-53598088D01*
X188349888Y-53699103D02*
X187642781Y-52991996D01*
X187979499Y-53328714D02*
X187575438Y-53732775D01*
X187945827Y-54103164D02*
X187238720Y-53396057D01*
X187238720Y-54810271D02*
X187642781Y-54406210D01*
X187440751Y-54608240D02*
X186733644Y-53901134D01*
X186733644Y-53901134D02*
X186902003Y-53934805D01*
X186902003Y-53934805D02*
X187036690Y-53934805D01*
X187036690Y-53934805D02*
X187137705Y-53901134D01*
X123001437Y-92039442D02*
X122934093Y-92174129D01*
X122934093Y-92174129D02*
X122765735Y-92342488D01*
X122765735Y-92342488D02*
X122664719Y-92376159D01*
X122664719Y-92376159D02*
X122597376Y-92376159D01*
X122597376Y-92376159D02*
X122496361Y-92342488D01*
X122496361Y-92342488D02*
X122429017Y-92275144D01*
X122429017Y-92275144D02*
X122395345Y-92174129D01*
X122395345Y-92174129D02*
X122395345Y-92106785D01*
X122395345Y-92106785D02*
X122429017Y-92005770D01*
X122429017Y-92005770D02*
X122530032Y-91837411D01*
X122530032Y-91837411D02*
X122563704Y-91736396D01*
X122563704Y-91736396D02*
X122563704Y-91669053D01*
X122563704Y-91669053D02*
X122530032Y-91568037D01*
X122530032Y-91568037D02*
X122462689Y-91500694D01*
X122462689Y-91500694D02*
X122361674Y-91467022D01*
X122361674Y-91467022D02*
X122294330Y-91467022D01*
X122294330Y-91467022D02*
X122193315Y-91500694D01*
X122193315Y-91500694D02*
X122024956Y-91669053D01*
X122024956Y-91669053D02*
X121957613Y-91803740D01*
X121688239Y-92005770D02*
X122226987Y-92881236D01*
X122226987Y-92881236D02*
X121587223Y-92510846D01*
X121587223Y-92510846D02*
X121957613Y-93150610D01*
X121957613Y-93150610D02*
X121082147Y-92611862D01*
X121755582Y-93487327D02*
X121216834Y-94026075D01*
X120577071Y-94531152D02*
X120476055Y-93958732D01*
X120981132Y-94127091D02*
X120274025Y-93419984D01*
X120274025Y-93419984D02*
X120004651Y-93689358D01*
X120004651Y-93689358D02*
X119970979Y-93790373D01*
X119970979Y-93790373D02*
X119970979Y-93857717D01*
X119970979Y-93857717D02*
X120004651Y-93958732D01*
X120004651Y-93958732D02*
X120105666Y-94059747D01*
X120105666Y-94059747D02*
X120206681Y-94093419D01*
X120206681Y-94093419D02*
X120274025Y-94093419D01*
X120274025Y-94093419D02*
X120375040Y-94059747D01*
X120375040Y-94059747D02*
X120644414Y-93790373D01*
X119903636Y-95204587D02*
X120307697Y-94800526D01*
X120105666Y-95002556D02*
X119398559Y-94295449D01*
X119398559Y-94295449D02*
X119566918Y-94329121D01*
X119566918Y-94329121D02*
X119701605Y-94329121D01*
X119701605Y-94329121D02*
X119802620Y-94295449D01*
X172033400Y-96889016D02*
X171966057Y-97023703D01*
X171966057Y-97023703D02*
X171797698Y-97192061D01*
X171797698Y-97192061D02*
X171696683Y-97225733D01*
X171696683Y-97225733D02*
X171629339Y-97225733D01*
X171629339Y-97225733D02*
X171528324Y-97192061D01*
X171528324Y-97192061D02*
X171460980Y-97124718D01*
X171460980Y-97124718D02*
X171427309Y-97023703D01*
X171427309Y-97023703D02*
X171427309Y-96956359D01*
X171427309Y-96956359D02*
X171460980Y-96855344D01*
X171460980Y-96855344D02*
X171561996Y-96686985D01*
X171561996Y-96686985D02*
X171595667Y-96585970D01*
X171595667Y-96585970D02*
X171595667Y-96518626D01*
X171595667Y-96518626D02*
X171561996Y-96417611D01*
X171561996Y-96417611D02*
X171494652Y-96350268D01*
X171494652Y-96350268D02*
X171393637Y-96316596D01*
X171393637Y-96316596D02*
X171326293Y-96316596D01*
X171326293Y-96316596D02*
X171225278Y-96350268D01*
X171225278Y-96350268D02*
X171056919Y-96518626D01*
X171056919Y-96518626D02*
X170989576Y-96653313D01*
X170720202Y-96855344D02*
X171258950Y-97730809D01*
X171258950Y-97730809D02*
X170619187Y-97360420D01*
X170619187Y-97360420D02*
X170989576Y-98000183D01*
X170989576Y-98000183D02*
X170114110Y-97461435D01*
X170787545Y-98336901D02*
X170248797Y-98875649D01*
X169609034Y-99380725D02*
X169508019Y-98808305D01*
X170013095Y-98976664D02*
X169305988Y-98269557D01*
X169305988Y-98269557D02*
X169036614Y-98538931D01*
X169036614Y-98538931D02*
X169002942Y-98639947D01*
X169002942Y-98639947D02*
X169002942Y-98707290D01*
X169002942Y-98707290D02*
X169036614Y-98808305D01*
X169036614Y-98808305D02*
X169137629Y-98909321D01*
X169137629Y-98909321D02*
X169238645Y-98942992D01*
X169238645Y-98942992D02*
X169305988Y-98942992D01*
X169305988Y-98942992D02*
X169407003Y-98909321D01*
X169407003Y-98909321D02*
X169676378Y-98639947D01*
X168531538Y-99515412D02*
X169002942Y-99986817D01*
X168430523Y-99077679D02*
X169103958Y-99414397D01*
X169103958Y-99414397D02*
X168666225Y-99852130D01*
X168161149Y-100693924D02*
X168228492Y-100693924D01*
X168228492Y-100693924D02*
X168363179Y-100626580D01*
X168363179Y-100626580D02*
X168430523Y-100559237D01*
X168430523Y-100559237D02*
X168497866Y-100424550D01*
X168497866Y-100424550D02*
X168497866Y-100289863D01*
X168497866Y-100289863D02*
X168464194Y-100188847D01*
X168464194Y-100188847D02*
X168363179Y-100020489D01*
X168363179Y-100020489D02*
X168262164Y-99919473D01*
X168262164Y-99919473D02*
X168093805Y-99818458D01*
X168093805Y-99818458D02*
X167992790Y-99784786D01*
X167992790Y-99784786D02*
X167858103Y-99784786D01*
X167858103Y-99784786D02*
X167723416Y-99852130D01*
X167723416Y-99852130D02*
X167656072Y-99919473D01*
X167656072Y-99919473D02*
X167588729Y-100054160D01*
X167588729Y-100054160D02*
X167588729Y-100121504D01*
X167925446Y-101064313D02*
X167218340Y-100357206D01*
X167218340Y-100357206D02*
X167521385Y-101468374D01*
X167521385Y-101468374D02*
X166814279Y-100761267D01*
X166578576Y-100996969D02*
X166174515Y-101401030D01*
X167083653Y-101906107D02*
X166376546Y-101199000D01*
X166881622Y-102242824D02*
X166342874Y-102781572D01*
X165770454Y-103219305D02*
X166107172Y-102882588D01*
X166107172Y-102882588D02*
X165400065Y-102175481D01*
X165164362Y-103825397D02*
X165568423Y-103421336D01*
X165366393Y-103623366D02*
X164659286Y-102916260D01*
X164659286Y-102916260D02*
X164827645Y-102949931D01*
X164827645Y-102949931D02*
X164962332Y-102949931D01*
X164962332Y-102949931D02*
X165063347Y-102916260D01*
X185571128Y-83351288D02*
X185503784Y-83485975D01*
X185503784Y-83485975D02*
X185335425Y-83654334D01*
X185335425Y-83654334D02*
X185234410Y-83688006D01*
X185234410Y-83688006D02*
X185167067Y-83688006D01*
X185167067Y-83688006D02*
X185066051Y-83654334D01*
X185066051Y-83654334D02*
X184998708Y-83586990D01*
X184998708Y-83586990D02*
X184965036Y-83485975D01*
X184965036Y-83485975D02*
X184965036Y-83418632D01*
X184965036Y-83418632D02*
X184998708Y-83317616D01*
X184998708Y-83317616D02*
X185099723Y-83149258D01*
X185099723Y-83149258D02*
X185133395Y-83048242D01*
X185133395Y-83048242D02*
X185133395Y-82980899D01*
X185133395Y-82980899D02*
X185099723Y-82879884D01*
X185099723Y-82879884D02*
X185032380Y-82812540D01*
X185032380Y-82812540D02*
X184931364Y-82778868D01*
X184931364Y-82778868D02*
X184864021Y-82778868D01*
X184864021Y-82778868D02*
X184763006Y-82812540D01*
X184763006Y-82812540D02*
X184594647Y-82980899D01*
X184594647Y-82980899D02*
X184527303Y-83115586D01*
X184257929Y-83317616D02*
X184796677Y-84193082D01*
X184796677Y-84193082D02*
X184156914Y-83822693D01*
X184156914Y-83822693D02*
X184527303Y-84462456D01*
X184527303Y-84462456D02*
X183651838Y-83923708D01*
X184325273Y-84799173D02*
X183786525Y-85337921D01*
X183146761Y-85842998D02*
X183045746Y-85270578D01*
X183550822Y-85438937D02*
X182843716Y-84731830D01*
X182843716Y-84731830D02*
X182574342Y-85001204D01*
X182574342Y-85001204D02*
X182540670Y-85102219D01*
X182540670Y-85102219D02*
X182540670Y-85169563D01*
X182540670Y-85169563D02*
X182574342Y-85270578D01*
X182574342Y-85270578D02*
X182675357Y-85371593D01*
X182675357Y-85371593D02*
X182776372Y-85405265D01*
X182776372Y-85405265D02*
X182843716Y-85405265D01*
X182843716Y-85405265D02*
X182944731Y-85371593D01*
X182944731Y-85371593D02*
X183214105Y-85102219D01*
X182069265Y-85977685D02*
X182540670Y-86449089D01*
X181968250Y-85539952D02*
X182641685Y-85876670D01*
X182641685Y-85876670D02*
X182203952Y-86314402D01*
X181698876Y-87156196D02*
X181766220Y-87156196D01*
X181766220Y-87156196D02*
X181900907Y-87088853D01*
X181900907Y-87088853D02*
X181968250Y-87021509D01*
X181968250Y-87021509D02*
X182035594Y-86886822D01*
X182035594Y-86886822D02*
X182035594Y-86752135D01*
X182035594Y-86752135D02*
X182001922Y-86651120D01*
X182001922Y-86651120D02*
X181900907Y-86482761D01*
X181900907Y-86482761D02*
X181799891Y-86381746D01*
X181799891Y-86381746D02*
X181631533Y-86280731D01*
X181631533Y-86280731D02*
X181530517Y-86247059D01*
X181530517Y-86247059D02*
X181395830Y-86247059D01*
X181395830Y-86247059D02*
X181261143Y-86314402D01*
X181261143Y-86314402D02*
X181193800Y-86381746D01*
X181193800Y-86381746D02*
X181126456Y-86516433D01*
X181126456Y-86516433D02*
X181126456Y-86583776D01*
X181463174Y-87526585D02*
X180756067Y-86819479D01*
X180756067Y-86819479D02*
X181059113Y-87930646D01*
X181059113Y-87930646D02*
X180352006Y-87223540D01*
X180116304Y-87459242D02*
X179712243Y-87863303D01*
X180621380Y-88368379D02*
X179914273Y-87661272D01*
X180419349Y-88705097D02*
X179880601Y-89243845D01*
X179173494Y-89681578D02*
X179240838Y-89681578D01*
X179240838Y-89681578D02*
X179375525Y-89614234D01*
X179375525Y-89614234D02*
X179442868Y-89546891D01*
X179442868Y-89546891D02*
X179510212Y-89412204D01*
X179510212Y-89412204D02*
X179510212Y-89277517D01*
X179510212Y-89277517D02*
X179476540Y-89176502D01*
X179476540Y-89176502D02*
X179375525Y-89008143D01*
X179375525Y-89008143D02*
X179274510Y-88907128D01*
X179274510Y-88907128D02*
X179106151Y-88806112D01*
X179106151Y-88806112D02*
X179005136Y-88772441D01*
X179005136Y-88772441D02*
X178870449Y-88772441D01*
X178870449Y-88772441D02*
X178735762Y-88839784D01*
X178735762Y-88839784D02*
X178668418Y-88907128D01*
X178668418Y-88907128D02*
X178601075Y-89041815D01*
X178601075Y-89041815D02*
X178601075Y-89109158D01*
X178567403Y-90422356D02*
X178971464Y-90018295D01*
X178769433Y-90220326D02*
X178062327Y-89513219D01*
X178062327Y-89513219D02*
X178230685Y-89546891D01*
X178230685Y-89546891D02*
X178365372Y-89546891D01*
X178365372Y-89546891D02*
X178466388Y-89513219D01*
X151440914Y-70066625D02*
X150733807Y-69359518D01*
X151070525Y-69696236D02*
X150666464Y-70100297D01*
X151036853Y-70470686D02*
X150329746Y-69763580D01*
X150935838Y-70706389D02*
X150397090Y-71245137D01*
X149790998Y-70773732D02*
X149521624Y-71043106D01*
X149454281Y-70639045D02*
X150060372Y-71245137D01*
X150060372Y-71245137D02*
X150094044Y-71346152D01*
X150094044Y-71346152D02*
X150060372Y-71447167D01*
X150060372Y-71447167D02*
X149993029Y-71514511D01*
X149656311Y-71851229D02*
X149689982Y-71750213D01*
X149689982Y-71750213D02*
X149689982Y-71682870D01*
X149689982Y-71682870D02*
X149656311Y-71581855D01*
X149656311Y-71581855D02*
X149454280Y-71379824D01*
X149454280Y-71379824D02*
X149353265Y-71346152D01*
X149353265Y-71346152D02*
X149285921Y-71346152D01*
X149285921Y-71346152D02*
X149184906Y-71379824D01*
X149184906Y-71379824D02*
X149083891Y-71480839D01*
X149083891Y-71480839D02*
X149050219Y-71581855D01*
X149050219Y-71581855D02*
X149050219Y-71649198D01*
X149050219Y-71649198D02*
X149083891Y-71750213D01*
X149083891Y-71750213D02*
X149285921Y-71952244D01*
X149285921Y-71952244D02*
X149386937Y-71985916D01*
X149386937Y-71985916D02*
X149454280Y-71985916D01*
X149454280Y-71985916D02*
X149555295Y-71952244D01*
X149555295Y-71952244D02*
X149656311Y-71851229D01*
X148646158Y-71918572D02*
X149353265Y-72625679D01*
X148679830Y-71952244D02*
X148578815Y-71985916D01*
X148578815Y-71985916D02*
X148444128Y-72120603D01*
X148444128Y-72120603D02*
X148410456Y-72221618D01*
X148410456Y-72221618D02*
X148410456Y-72288961D01*
X148410456Y-72288961D02*
X148444128Y-72389977D01*
X148444128Y-72389977D02*
X148646158Y-72592007D01*
X148646158Y-72592007D02*
X148747173Y-72625679D01*
X148747173Y-72625679D02*
X148814517Y-72625679D01*
X148814517Y-72625679D02*
X148915532Y-72592007D01*
X148915532Y-72592007D02*
X149050219Y-72457320D01*
X149050219Y-72457320D02*
X149083891Y-72356305D01*
X148713502Y-72928725D02*
X148174754Y-73467473D01*
X147164601Y-73400129D02*
X147636005Y-73871534D01*
X147063586Y-72962397D02*
X147737021Y-73299114D01*
X147737021Y-73299114D02*
X147299288Y-73736847D01*
X155650409Y-52386746D02*
X154943302Y-51679639D01*
X155280020Y-52016357D02*
X154875959Y-52420418D01*
X155246348Y-52790807D02*
X154539241Y-52083701D01*
X155145333Y-53026510D02*
X154606585Y-53565258D01*
X154000493Y-53093853D02*
X153731119Y-53363227D01*
X153663776Y-52959166D02*
X154269867Y-53565258D01*
X154269867Y-53565258D02*
X154303539Y-53666273D01*
X154303539Y-53666273D02*
X154269867Y-53767288D01*
X154269867Y-53767288D02*
X154202524Y-53834632D01*
X153865806Y-54171350D02*
X153899477Y-54070334D01*
X153899477Y-54070334D02*
X153899477Y-54002991D01*
X153899477Y-54002991D02*
X153865806Y-53901976D01*
X153865806Y-53901976D02*
X153663775Y-53699945D01*
X153663775Y-53699945D02*
X153562760Y-53666273D01*
X153562760Y-53666273D02*
X153495416Y-53666273D01*
X153495416Y-53666273D02*
X153394401Y-53699945D01*
X153394401Y-53699945D02*
X153293386Y-53800960D01*
X153293386Y-53800960D02*
X153259714Y-53901976D01*
X153259714Y-53901976D02*
X153259714Y-53969319D01*
X153259714Y-53969319D02*
X153293386Y-54070334D01*
X153293386Y-54070334D02*
X153495416Y-54272365D01*
X153495416Y-54272365D02*
X153596432Y-54306037D01*
X153596432Y-54306037D02*
X153663775Y-54306037D01*
X153663775Y-54306037D02*
X153764790Y-54272365D01*
X153764790Y-54272365D02*
X153865806Y-54171350D01*
X152855653Y-54238693D02*
X153562760Y-54945800D01*
X152889325Y-54272365D02*
X152788310Y-54306037D01*
X152788310Y-54306037D02*
X152653623Y-54440724D01*
X152653623Y-54440724D02*
X152619951Y-54541739D01*
X152619951Y-54541739D02*
X152619951Y-54609082D01*
X152619951Y-54609082D02*
X152653623Y-54710098D01*
X152653623Y-54710098D02*
X152855653Y-54912128D01*
X152855653Y-54912128D02*
X152956668Y-54945800D01*
X152956668Y-54945800D02*
X153024012Y-54945800D01*
X153024012Y-54945800D02*
X153125027Y-54912128D01*
X153125027Y-54912128D02*
X153259714Y-54777441D01*
X153259714Y-54777441D02*
X153293386Y-54676426D01*
X152922997Y-55248846D02*
X152384249Y-55787594D01*
X151542455Y-55215174D02*
X151475111Y-55215174D01*
X151475111Y-55215174D02*
X151374096Y-55248846D01*
X151374096Y-55248846D02*
X151205737Y-55417205D01*
X151205737Y-55417205D02*
X151172065Y-55518220D01*
X151172065Y-55518220D02*
X151172065Y-55585563D01*
X151172065Y-55585563D02*
X151205737Y-55686579D01*
X151205737Y-55686579D02*
X151273081Y-55753922D01*
X151273081Y-55753922D02*
X151407768Y-55821266D01*
X151407768Y-55821266D02*
X152215890Y-55821266D01*
X152215890Y-55821266D02*
X151778157Y-56258998D01*
X181662071Y-25091898D02*
X182369177Y-24384791D01*
X182369177Y-24384791D02*
X182200819Y-24216432D01*
X182200819Y-24216432D02*
X182066132Y-24149089D01*
X182066132Y-24149089D02*
X181931445Y-24149089D01*
X181931445Y-24149089D02*
X181830429Y-24182761D01*
X181830429Y-24182761D02*
X181662071Y-24283776D01*
X181662071Y-24283776D02*
X181561055Y-24384791D01*
X181561055Y-24384791D02*
X181460040Y-24553150D01*
X181460040Y-24553150D02*
X181426368Y-24654165D01*
X181426368Y-24654165D02*
X181426368Y-24788852D01*
X181426368Y-24788852D02*
X181493712Y-24923539D01*
X181493712Y-24923539D02*
X181662071Y-25091898D01*
X181123323Y-23610341D02*
X180651918Y-24081745D01*
X181561055Y-23509326D02*
X181224338Y-24182761D01*
X181224338Y-24182761D02*
X180786605Y-23745028D01*
X188733981Y-72574961D02*
X189441087Y-71867854D01*
X189441087Y-71867854D02*
X189272729Y-71699495D01*
X189272729Y-71699495D02*
X189138042Y-71632152D01*
X189138042Y-71632152D02*
X189003355Y-71632152D01*
X189003355Y-71632152D02*
X188902339Y-71665824D01*
X188902339Y-71665824D02*
X188733981Y-71766839D01*
X188733981Y-71766839D02*
X188632965Y-71867854D01*
X188632965Y-71867854D02*
X188531950Y-72036213D01*
X188531950Y-72036213D02*
X188498278Y-72137228D01*
X188498278Y-72137228D02*
X188498278Y-72271915D01*
X188498278Y-72271915D02*
X188565622Y-72406602D01*
X188565622Y-72406602D02*
X188733981Y-72574961D01*
X187656485Y-71497465D02*
X188060546Y-71901526D01*
X187858515Y-71699495D02*
X188565622Y-70992389D01*
X188565622Y-70992389D02*
X188531950Y-71160747D01*
X188531950Y-71160747D02*
X188531950Y-71295434D01*
X188531950Y-71295434D02*
X188565622Y-71396450D01*
X188127889Y-70554656D02*
X187690156Y-70116923D01*
X187690156Y-70116923D02*
X187656484Y-70621999D01*
X187656484Y-70621999D02*
X187555469Y-70520984D01*
X187555469Y-70520984D02*
X187454454Y-70487312D01*
X187454454Y-70487312D02*
X187387110Y-70487312D01*
X187387110Y-70487312D02*
X187286095Y-70520984D01*
X187286095Y-70520984D02*
X187117736Y-70689343D01*
X187117736Y-70689343D02*
X187084065Y-70790358D01*
X187084065Y-70790358D02*
X187084065Y-70857701D01*
X187084065Y-70857701D02*
X187117736Y-70958717D01*
X187117736Y-70958717D02*
X187319767Y-71160747D01*
X187319767Y-71160747D02*
X187420782Y-71194419D01*
X187420782Y-71194419D02*
X187488126Y-71194419D01*
X169120793Y-65857130D02*
X168413686Y-65150023D01*
X168750404Y-65486741D02*
X168346343Y-65890802D01*
X168716732Y-66261191D02*
X168009625Y-65554085D01*
X168615717Y-66496894D02*
X168076969Y-67035642D01*
X167470877Y-66564237D02*
X167201503Y-66833611D01*
X167134160Y-66429550D02*
X167740251Y-67035642D01*
X167740251Y-67035642D02*
X167773923Y-67136657D01*
X167773923Y-67136657D02*
X167740251Y-67237672D01*
X167740251Y-67237672D02*
X167672908Y-67305016D01*
X167336190Y-67641734D02*
X167369861Y-67540718D01*
X167369861Y-67540718D02*
X167369861Y-67473375D01*
X167369861Y-67473375D02*
X167336190Y-67372360D01*
X167336190Y-67372360D02*
X167134159Y-67170329D01*
X167134159Y-67170329D02*
X167033144Y-67136657D01*
X167033144Y-67136657D02*
X166965800Y-67136657D01*
X166965800Y-67136657D02*
X166864785Y-67170329D01*
X166864785Y-67170329D02*
X166763770Y-67271344D01*
X166763770Y-67271344D02*
X166730098Y-67372360D01*
X166730098Y-67372360D02*
X166730098Y-67439703D01*
X166730098Y-67439703D02*
X166763770Y-67540718D01*
X166763770Y-67540718D02*
X166965800Y-67742749D01*
X166965800Y-67742749D02*
X167066816Y-67776421D01*
X167066816Y-67776421D02*
X167134159Y-67776421D01*
X167134159Y-67776421D02*
X167235174Y-67742749D01*
X167235174Y-67742749D02*
X167336190Y-67641734D01*
X166326037Y-67709077D02*
X167033144Y-68416184D01*
X166359709Y-67742749D02*
X166258694Y-67776421D01*
X166258694Y-67776421D02*
X166124007Y-67911108D01*
X166124007Y-67911108D02*
X166090335Y-68012123D01*
X166090335Y-68012123D02*
X166090335Y-68079466D01*
X166090335Y-68079466D02*
X166124007Y-68180482D01*
X166124007Y-68180482D02*
X166326037Y-68382512D01*
X166326037Y-68382512D02*
X166427052Y-68416184D01*
X166427052Y-68416184D02*
X166494396Y-68416184D01*
X166494396Y-68416184D02*
X166595411Y-68382512D01*
X166595411Y-68382512D02*
X166730098Y-68247825D01*
X166730098Y-68247825D02*
X166763770Y-68146810D01*
X166393381Y-68719230D02*
X165854633Y-69257978D01*
X164608778Y-68954932D02*
X164743465Y-68820245D01*
X164743465Y-68820245D02*
X164844480Y-68786573D01*
X164844480Y-68786573D02*
X164911823Y-68786573D01*
X164911823Y-68786573D02*
X165080182Y-68820245D01*
X165080182Y-68820245D02*
X165248541Y-68921260D01*
X165248541Y-68921260D02*
X165517915Y-69190634D01*
X165517915Y-69190634D02*
X165551587Y-69291650D01*
X165551587Y-69291650D02*
X165551587Y-69358993D01*
X165551587Y-69358993D02*
X165517915Y-69460008D01*
X165517915Y-69460008D02*
X165383228Y-69594695D01*
X165383228Y-69594695D02*
X165282213Y-69628367D01*
X165282213Y-69628367D02*
X165214869Y-69628367D01*
X165214869Y-69628367D02*
X165113854Y-69594695D01*
X165113854Y-69594695D02*
X164945495Y-69426337D01*
X164945495Y-69426337D02*
X164911823Y-69325321D01*
X164911823Y-69325321D02*
X164911823Y-69257978D01*
X164911823Y-69257978D02*
X164945495Y-69156963D01*
X164945495Y-69156963D02*
X165080182Y-69022276D01*
X165080182Y-69022276D02*
X165181197Y-68988604D01*
X165181197Y-68988604D02*
X165248541Y-68988604D01*
X165248541Y-68988604D02*
X165349556Y-69022276D01*
X175263597Y-86045345D02*
X175970703Y-85338238D01*
X175970703Y-85338238D02*
X175802345Y-85169879D01*
X175802345Y-85169879D02*
X175667658Y-85102536D01*
X175667658Y-85102536D02*
X175532971Y-85102536D01*
X175532971Y-85102536D02*
X175431955Y-85136208D01*
X175431955Y-85136208D02*
X175263597Y-85237223D01*
X175263597Y-85237223D02*
X175162581Y-85338238D01*
X175162581Y-85338238D02*
X175061566Y-85506597D01*
X175061566Y-85506597D02*
X175027894Y-85607612D01*
X175027894Y-85607612D02*
X175027894Y-85742299D01*
X175027894Y-85742299D02*
X175095238Y-85876986D01*
X175095238Y-85876986D02*
X175263597Y-86045345D01*
X174186101Y-84967849D02*
X174590162Y-85371910D01*
X174388131Y-85169879D02*
X175095238Y-84462773D01*
X175095238Y-84462773D02*
X175061566Y-84631131D01*
X175061566Y-84631131D02*
X175061566Y-84765818D01*
X175061566Y-84765818D02*
X175095238Y-84866834D01*
X174556490Y-84058711D02*
X174556490Y-83991368D01*
X174556490Y-83991368D02*
X174522818Y-83890353D01*
X174522818Y-83890353D02*
X174354459Y-83721994D01*
X174354459Y-83721994D02*
X174253444Y-83688322D01*
X174253444Y-83688322D02*
X174186100Y-83688322D01*
X174186100Y-83688322D02*
X174085085Y-83721994D01*
X174085085Y-83721994D02*
X174017742Y-83789337D01*
X174017742Y-83789337D02*
X173950398Y-83924024D01*
X173950398Y-83924024D02*
X173950398Y-84732146D01*
X173950398Y-84732146D02*
X173512665Y-84294414D01*
X114310150Y-92443819D02*
X115017256Y-91736712D01*
X115017256Y-91736712D02*
X114848898Y-91568353D01*
X114848898Y-91568353D02*
X114714211Y-91501010D01*
X114714211Y-91501010D02*
X114579524Y-91501010D01*
X114579524Y-91501010D02*
X114478508Y-91534682D01*
X114478508Y-91534682D02*
X114310150Y-91635697D01*
X114310150Y-91635697D02*
X114209134Y-91736712D01*
X114209134Y-91736712D02*
X114108119Y-91905071D01*
X114108119Y-91905071D02*
X114074447Y-92006086D01*
X114074447Y-92006086D02*
X114074447Y-92140773D01*
X114074447Y-92140773D02*
X114141791Y-92275460D01*
X114141791Y-92275460D02*
X114310150Y-92443819D01*
X114377493Y-91096949D02*
X113939760Y-90659216D01*
X113939760Y-90659216D02*
X113906089Y-91164292D01*
X113906089Y-91164292D02*
X113805073Y-91063277D01*
X113805073Y-91063277D02*
X113704058Y-91029605D01*
X113704058Y-91029605D02*
X113636715Y-91029605D01*
X113636715Y-91029605D02*
X113535699Y-91063277D01*
X113535699Y-91063277D02*
X113367341Y-91231636D01*
X113367341Y-91231636D02*
X113333669Y-91332651D01*
X113333669Y-91332651D02*
X113333669Y-91399995D01*
X113333669Y-91399995D02*
X113367341Y-91501010D01*
X113367341Y-91501010D02*
X113569371Y-91703040D01*
X113569371Y-91703040D02*
X113670386Y-91736712D01*
X113670386Y-91736712D02*
X113737730Y-91736712D01*
X170366648Y-80169309D02*
X170130946Y-80405011D01*
X170400320Y-80876415D02*
X170737037Y-80539698D01*
X170737037Y-80539698D02*
X170029931Y-79832591D01*
X170029931Y-79832591D02*
X169693213Y-80169309D01*
X169457511Y-80405011D02*
X169693213Y-81583522D01*
X168986106Y-80876416D02*
X170164617Y-81112118D01*
X168817747Y-81044774D02*
X168413686Y-81448835D01*
X169322824Y-81953912D02*
X168615717Y-81246805D01*
X169120793Y-82290629D02*
X168582045Y-82829377D01*
X168346343Y-82930393D02*
X167639236Y-82223286D01*
X167639236Y-82223286D02*
X167908610Y-82964065D01*
X167908610Y-82964065D02*
X167167831Y-82694690D01*
X167167831Y-82694690D02*
X167874938Y-83401797D01*
X167134160Y-84142576D02*
X167033144Y-83570156D01*
X167538221Y-83738515D02*
X166831114Y-83031408D01*
X166831114Y-83031408D02*
X166561740Y-83300782D01*
X166561740Y-83300782D02*
X166528068Y-83401797D01*
X166528068Y-83401797D02*
X166528068Y-83469141D01*
X166528068Y-83469141D02*
X166561740Y-83570156D01*
X166561740Y-83570156D02*
X166662755Y-83671171D01*
X166662755Y-83671171D02*
X166763770Y-83704843D01*
X166763770Y-83704843D02*
X166831114Y-83704843D01*
X166831114Y-83704843D02*
X166932129Y-83671171D01*
X166932129Y-83671171D02*
X167201503Y-83401797D01*
X165820961Y-84041560D02*
X165955648Y-83906873D01*
X165955648Y-83906873D02*
X166056664Y-83873202D01*
X166056664Y-83873202D02*
X166124007Y-83873202D01*
X166124007Y-83873202D02*
X166292366Y-83906873D01*
X166292366Y-83906873D02*
X166460725Y-84007889D01*
X166460725Y-84007889D02*
X166730099Y-84277263D01*
X166730099Y-84277263D02*
X166763770Y-84378278D01*
X166763770Y-84378278D02*
X166763770Y-84445621D01*
X166763770Y-84445621D02*
X166730099Y-84546637D01*
X166730099Y-84546637D02*
X166595412Y-84681324D01*
X166595412Y-84681324D02*
X166494396Y-84714995D01*
X166494396Y-84714995D02*
X166427053Y-84714995D01*
X166427053Y-84714995D02*
X166326038Y-84681324D01*
X166326038Y-84681324D02*
X166157679Y-84512965D01*
X166157679Y-84512965D02*
X166124007Y-84411950D01*
X166124007Y-84411950D02*
X166124007Y-84344606D01*
X166124007Y-84344606D02*
X166157679Y-84243591D01*
X166157679Y-84243591D02*
X166292366Y-84108904D01*
X166292366Y-84108904D02*
X166393381Y-84075232D01*
X166393381Y-84075232D02*
X166460725Y-84075232D01*
X166460725Y-84075232D02*
X166561740Y-84108904D01*
X141250919Y-92443819D02*
X141958025Y-91736712D01*
X141958025Y-91736712D02*
X141789667Y-91568353D01*
X141789667Y-91568353D02*
X141654980Y-91501010D01*
X141654980Y-91501010D02*
X141520293Y-91501010D01*
X141520293Y-91501010D02*
X141419277Y-91534682D01*
X141419277Y-91534682D02*
X141250919Y-91635697D01*
X141250919Y-91635697D02*
X141149903Y-91736712D01*
X141149903Y-91736712D02*
X141048888Y-91905071D01*
X141048888Y-91905071D02*
X141015216Y-92006086D01*
X141015216Y-92006086D02*
X141015216Y-92140773D01*
X141015216Y-92140773D02*
X141082560Y-92275460D01*
X141082560Y-92275460D02*
X141250919Y-92443819D01*
X141318262Y-91096949D02*
X140846858Y-90625544D01*
X140846858Y-90625544D02*
X140442797Y-91635697D01*
X161793213Y-99515729D02*
X162500319Y-98808622D01*
X162500319Y-98808622D02*
X162331961Y-98640263D01*
X162331961Y-98640263D02*
X162197274Y-98572920D01*
X162197274Y-98572920D02*
X162062587Y-98572920D01*
X162062587Y-98572920D02*
X161961571Y-98606592D01*
X161961571Y-98606592D02*
X161793213Y-98707607D01*
X161793213Y-98707607D02*
X161692197Y-98808622D01*
X161692197Y-98808622D02*
X161591182Y-98976981D01*
X161591182Y-98976981D02*
X161557510Y-99077996D01*
X161557510Y-99077996D02*
X161557510Y-99212683D01*
X161557510Y-99212683D02*
X161624854Y-99347370D01*
X161624854Y-99347370D02*
X161793213Y-99515729D01*
X160715717Y-98438233D02*
X161119778Y-98842294D01*
X160917747Y-98640263D02*
X161624854Y-97933157D01*
X161624854Y-97933157D02*
X161591182Y-98101515D01*
X161591182Y-98101515D02*
X161591182Y-98236202D01*
X161591182Y-98236202D02*
X161624854Y-98337218D01*
X160042281Y-97764798D02*
X160446342Y-98168859D01*
X160244312Y-97966828D02*
X160951419Y-97259721D01*
X160951419Y-97259721D02*
X160917747Y-97428080D01*
X160917747Y-97428080D02*
X160917747Y-97562767D01*
X160917747Y-97562767D02*
X160951419Y-97663782D01*
X168682850Y-54912339D02*
X168447148Y-55148041D01*
X168716522Y-55619445D02*
X169053239Y-55282728D01*
X169053239Y-55282728D02*
X168346133Y-54575621D01*
X168346133Y-54575621D02*
X168009415Y-54912339D01*
X167773713Y-55148041D02*
X168009415Y-56326552D01*
X167302308Y-55619446D02*
X168480819Y-55855148D01*
X167133949Y-55787804D02*
X166729888Y-56191865D01*
X167639026Y-56696942D02*
X166931919Y-55989835D01*
X167436995Y-57033659D02*
X166898247Y-57572407D01*
X166662545Y-57673423D02*
X165955438Y-56966316D01*
X165955438Y-56966316D02*
X166224812Y-57707095D01*
X166224812Y-57707095D02*
X165484033Y-57437720D01*
X165484033Y-57437720D02*
X166191140Y-58144827D01*
X165383018Y-58818262D02*
X165450362Y-58818262D01*
X165450362Y-58818262D02*
X165585049Y-58750919D01*
X165585049Y-58750919D02*
X165652392Y-58683575D01*
X165652392Y-58683575D02*
X165719736Y-58548888D01*
X165719736Y-58548888D02*
X165719736Y-58414201D01*
X165719736Y-58414201D02*
X165686064Y-58313186D01*
X165686064Y-58313186D02*
X165585049Y-58144827D01*
X165585049Y-58144827D02*
X165484033Y-58043812D01*
X165484033Y-58043812D02*
X165315675Y-57942797D01*
X165315675Y-57942797D02*
X165214659Y-57909125D01*
X165214659Y-57909125D02*
X165079972Y-57909125D01*
X165079972Y-57909125D02*
X164945285Y-57976468D01*
X164945285Y-57976468D02*
X164877942Y-58043812D01*
X164877942Y-58043812D02*
X164810598Y-58178499D01*
X164810598Y-58178499D02*
X164810598Y-58245842D01*
X164541224Y-58515216D02*
X164473881Y-58515216D01*
X164473881Y-58515216D02*
X164372866Y-58548888D01*
X164372866Y-58548888D02*
X164204507Y-58717247D01*
X164204507Y-58717247D02*
X164170835Y-58818262D01*
X164170835Y-58818262D02*
X164170835Y-58885606D01*
X164170835Y-58885606D02*
X164204507Y-58986621D01*
X164204507Y-58986621D02*
X164271850Y-59053964D01*
X164271850Y-59053964D02*
X164406537Y-59121308D01*
X164406537Y-59121308D02*
X165214659Y-59121308D01*
X165214659Y-59121308D02*
X164776927Y-59559041D01*
X137970530Y-61647635D02*
X137263423Y-60940528D01*
X137600141Y-61277246D02*
X137196080Y-61681307D01*
X137566469Y-62051696D02*
X136859362Y-61344590D01*
X137465454Y-62287399D02*
X136926706Y-62826147D01*
X136320614Y-62354742D02*
X136051240Y-62624116D01*
X135983897Y-62220055D02*
X136589988Y-62826147D01*
X136589988Y-62826147D02*
X136623660Y-62927162D01*
X136623660Y-62927162D02*
X136589988Y-63028177D01*
X136589988Y-63028177D02*
X136522645Y-63095521D01*
X136185927Y-63432239D02*
X136219598Y-63331223D01*
X136219598Y-63331223D02*
X136219598Y-63263880D01*
X136219598Y-63263880D02*
X136185927Y-63162865D01*
X136185927Y-63162865D02*
X135983896Y-62960834D01*
X135983896Y-62960834D02*
X135882881Y-62927162D01*
X135882881Y-62927162D02*
X135815537Y-62927162D01*
X135815537Y-62927162D02*
X135714522Y-62960834D01*
X135714522Y-62960834D02*
X135613507Y-63061849D01*
X135613507Y-63061849D02*
X135579835Y-63162865D01*
X135579835Y-63162865D02*
X135579835Y-63230208D01*
X135579835Y-63230208D02*
X135613507Y-63331223D01*
X135613507Y-63331223D02*
X135815537Y-63533254D01*
X135815537Y-63533254D02*
X135916553Y-63566926D01*
X135916553Y-63566926D02*
X135983896Y-63566926D01*
X135983896Y-63566926D02*
X136084911Y-63533254D01*
X136084911Y-63533254D02*
X136185927Y-63432239D01*
X135175774Y-63499582D02*
X135882881Y-64206689D01*
X135209446Y-63533254D02*
X135108431Y-63566926D01*
X135108431Y-63566926D02*
X134973744Y-63701613D01*
X134973744Y-63701613D02*
X134940072Y-63802628D01*
X134940072Y-63802628D02*
X134940072Y-63869971D01*
X134940072Y-63869971D02*
X134973744Y-63970987D01*
X134973744Y-63970987D02*
X135175774Y-64173017D01*
X135175774Y-64173017D02*
X135276789Y-64206689D01*
X135276789Y-64206689D02*
X135344133Y-64206689D01*
X135344133Y-64206689D02*
X135445148Y-64173017D01*
X135445148Y-64173017D02*
X135579835Y-64038330D01*
X135579835Y-64038330D02*
X135613507Y-63937315D01*
X135243118Y-64509735D02*
X134704370Y-65048483D01*
X134098278Y-65519887D02*
X134502339Y-65115826D01*
X134300308Y-65317857D02*
X133593202Y-64610750D01*
X133593202Y-64610750D02*
X133761560Y-64644422D01*
X133761560Y-64644422D02*
X133896247Y-64644422D01*
X133896247Y-64644422D02*
X133997263Y-64610750D01*
X180469436Y-53228541D02*
X180233734Y-53464243D01*
X180503108Y-53935647D02*
X180839825Y-53598930D01*
X180839825Y-53598930D02*
X180132719Y-52891823D01*
X180132719Y-52891823D02*
X179796001Y-53228541D01*
X179560299Y-53464243D02*
X179796001Y-54642754D01*
X179088894Y-53935648D02*
X180267405Y-54171350D01*
X178920535Y-54104006D02*
X178516474Y-54508067D01*
X179425612Y-55013144D02*
X178718505Y-54306037D01*
X179223581Y-55349861D02*
X178684833Y-55888609D01*
X178449131Y-55989625D02*
X177742024Y-55282518D01*
X177742024Y-55282518D02*
X178011398Y-56023297D01*
X178011398Y-56023297D02*
X177270619Y-55753922D01*
X177270619Y-55753922D02*
X177977726Y-56461029D01*
X177236948Y-57201808D02*
X177135932Y-56629388D01*
X177641009Y-56797747D02*
X176933902Y-56090640D01*
X176933902Y-56090640D02*
X176664528Y-56360014D01*
X176664528Y-56360014D02*
X176630856Y-56461029D01*
X176630856Y-56461029D02*
X176630856Y-56528373D01*
X176630856Y-56528373D02*
X176664528Y-56629388D01*
X176664528Y-56629388D02*
X176765543Y-56730403D01*
X176765543Y-56730403D02*
X176866558Y-56764075D01*
X176866558Y-56764075D02*
X176933902Y-56764075D01*
X176933902Y-56764075D02*
X177034917Y-56730403D01*
X177034917Y-56730403D02*
X177304291Y-56461029D01*
X175890078Y-57134464D02*
X176226795Y-56797747D01*
X176226795Y-56797747D02*
X176597184Y-57100792D01*
X176597184Y-57100792D02*
X176529841Y-57100792D01*
X176529841Y-57100792D02*
X176428826Y-57134464D01*
X176428826Y-57134464D02*
X176260467Y-57302823D01*
X176260467Y-57302823D02*
X176226795Y-57403838D01*
X176226795Y-57403838D02*
X176226795Y-57471182D01*
X176226795Y-57471182D02*
X176260467Y-57572197D01*
X176260467Y-57572197D02*
X176428826Y-57740556D01*
X176428826Y-57740556D02*
X176529841Y-57774227D01*
X176529841Y-57774227D02*
X176597184Y-57774227D01*
X176597184Y-57774227D02*
X176698200Y-57740556D01*
X176698200Y-57740556D02*
X176866558Y-57572197D01*
X176866558Y-57572197D02*
X176900230Y-57471182D01*
X176900230Y-57471182D02*
X176900230Y-57403838D01*
X158580062Y-65015127D02*
X158344360Y-65250829D01*
X158613734Y-65722233D02*
X158950451Y-65385516D01*
X158950451Y-65385516D02*
X158243345Y-64678409D01*
X158243345Y-64678409D02*
X157906627Y-65015127D01*
X157670925Y-65250829D02*
X157906627Y-66429340D01*
X157199520Y-65722234D02*
X158378031Y-65957936D01*
X157031161Y-65890592D02*
X156627100Y-66294653D01*
X157536238Y-66799730D02*
X156829131Y-66092623D01*
X157334207Y-67136447D02*
X156795459Y-67675195D01*
X156559757Y-67776211D02*
X155852650Y-67069104D01*
X155852650Y-67069104D02*
X156122024Y-67809883D01*
X156122024Y-67809883D02*
X155381245Y-67540508D01*
X155381245Y-67540508D02*
X156088352Y-68247615D01*
X155280230Y-68921050D02*
X155347574Y-68921050D01*
X155347574Y-68921050D02*
X155482261Y-68853707D01*
X155482261Y-68853707D02*
X155549604Y-68786363D01*
X155549604Y-68786363D02*
X155616948Y-68651676D01*
X155616948Y-68651676D02*
X155616948Y-68516989D01*
X155616948Y-68516989D02*
X155583276Y-68415974D01*
X155583276Y-68415974D02*
X155482261Y-68247615D01*
X155482261Y-68247615D02*
X155381245Y-68146600D01*
X155381245Y-68146600D02*
X155212887Y-68045585D01*
X155212887Y-68045585D02*
X155111871Y-68011913D01*
X155111871Y-68011913D02*
X154977184Y-68011913D01*
X154977184Y-68011913D02*
X154842497Y-68079256D01*
X154842497Y-68079256D02*
X154775154Y-68146600D01*
X154775154Y-68146600D02*
X154707810Y-68281287D01*
X154707810Y-68281287D02*
X154707810Y-68348630D01*
X154270078Y-69123081D02*
X154741482Y-69594485D01*
X154169062Y-68685348D02*
X154842497Y-69022065D01*
X154842497Y-69022065D02*
X154404765Y-69459798D01*
X164911298Y-34706867D02*
X164204191Y-33999760D01*
X164540909Y-34336478D02*
X164136848Y-34740539D01*
X164507237Y-35110928D02*
X163800130Y-34403822D01*
X164406222Y-35346631D02*
X163867474Y-35885379D01*
X163261382Y-35413974D02*
X162992008Y-35683348D01*
X162924665Y-35279287D02*
X163530756Y-35885379D01*
X163530756Y-35885379D02*
X163564428Y-35986394D01*
X163564428Y-35986394D02*
X163530756Y-36087409D01*
X163530756Y-36087409D02*
X163463413Y-36154753D01*
X163126695Y-36491471D02*
X163160366Y-36390455D01*
X163160366Y-36390455D02*
X163160366Y-36323112D01*
X163160366Y-36323112D02*
X163126695Y-36222097D01*
X163126695Y-36222097D02*
X162924664Y-36020066D01*
X162924664Y-36020066D02*
X162823649Y-35986394D01*
X162823649Y-35986394D02*
X162756305Y-35986394D01*
X162756305Y-35986394D02*
X162655290Y-36020066D01*
X162655290Y-36020066D02*
X162554275Y-36121081D01*
X162554275Y-36121081D02*
X162520603Y-36222097D01*
X162520603Y-36222097D02*
X162520603Y-36289440D01*
X162520603Y-36289440D02*
X162554275Y-36390455D01*
X162554275Y-36390455D02*
X162756305Y-36592486D01*
X162756305Y-36592486D02*
X162857321Y-36626158D01*
X162857321Y-36626158D02*
X162924664Y-36626158D01*
X162924664Y-36626158D02*
X163025679Y-36592486D01*
X163025679Y-36592486D02*
X163126695Y-36491471D01*
X162116542Y-36558814D02*
X162823649Y-37265921D01*
X162150214Y-36592486D02*
X162049199Y-36626158D01*
X162049199Y-36626158D02*
X161914512Y-36760845D01*
X161914512Y-36760845D02*
X161880840Y-36861860D01*
X161880840Y-36861860D02*
X161880840Y-36929203D01*
X161880840Y-36929203D02*
X161914512Y-37030219D01*
X161914512Y-37030219D02*
X162116542Y-37232249D01*
X162116542Y-37232249D02*
X162217557Y-37265921D01*
X162217557Y-37265921D02*
X162284901Y-37265921D01*
X162284901Y-37265921D02*
X162385916Y-37232249D01*
X162385916Y-37232249D02*
X162520603Y-37097562D01*
X162520603Y-37097562D02*
X162554275Y-36996547D01*
X162183886Y-37568967D02*
X161645138Y-38107715D01*
X160769672Y-37434280D02*
X160331939Y-37872013D01*
X160331939Y-37872013D02*
X160837015Y-37905684D01*
X160837015Y-37905684D02*
X160736000Y-38006700D01*
X160736000Y-38006700D02*
X160702328Y-38107715D01*
X160702328Y-38107715D02*
X160702328Y-38175058D01*
X160702328Y-38175058D02*
X160736000Y-38276074D01*
X160736000Y-38276074D02*
X160904359Y-38444432D01*
X160904359Y-38444432D02*
X161005374Y-38478104D01*
X161005374Y-38478104D02*
X161072718Y-38478104D01*
X161072718Y-38478104D02*
X161173733Y-38444432D01*
X161173733Y-38444432D02*
X161375763Y-38242402D01*
X161375763Y-38242402D02*
X161409435Y-38141387D01*
X161409435Y-38141387D02*
X161409435Y-38074043D01*
X173330288Y-48177251D02*
X172623181Y-47470144D01*
X172959899Y-47806862D02*
X172555838Y-48210923D01*
X172926227Y-48581312D02*
X172219120Y-47874206D01*
X172825212Y-48817015D02*
X172286464Y-49355763D01*
X171680372Y-48884358D02*
X171410998Y-49153732D01*
X171343655Y-48749671D02*
X171949746Y-49355763D01*
X171949746Y-49355763D02*
X171983418Y-49456778D01*
X171983418Y-49456778D02*
X171949746Y-49557793D01*
X171949746Y-49557793D02*
X171882403Y-49625137D01*
X171545685Y-49961855D02*
X171579356Y-49860839D01*
X171579356Y-49860839D02*
X171579356Y-49793496D01*
X171579356Y-49793496D02*
X171545685Y-49692481D01*
X171545685Y-49692481D02*
X171343654Y-49490450D01*
X171343654Y-49490450D02*
X171242639Y-49456778D01*
X171242639Y-49456778D02*
X171175295Y-49456778D01*
X171175295Y-49456778D02*
X171074280Y-49490450D01*
X171074280Y-49490450D02*
X170973265Y-49591465D01*
X170973265Y-49591465D02*
X170939593Y-49692481D01*
X170939593Y-49692481D02*
X170939593Y-49759824D01*
X170939593Y-49759824D02*
X170973265Y-49860839D01*
X170973265Y-49860839D02*
X171175295Y-50062870D01*
X171175295Y-50062870D02*
X171276311Y-50096542D01*
X171276311Y-50096542D02*
X171343654Y-50096542D01*
X171343654Y-50096542D02*
X171444669Y-50062870D01*
X171444669Y-50062870D02*
X171545685Y-49961855D01*
X170535532Y-50029198D02*
X171242639Y-50736305D01*
X170569204Y-50062870D02*
X170468189Y-50096542D01*
X170468189Y-50096542D02*
X170333502Y-50231229D01*
X170333502Y-50231229D02*
X170299830Y-50332244D01*
X170299830Y-50332244D02*
X170299830Y-50399587D01*
X170299830Y-50399587D02*
X170333502Y-50500603D01*
X170333502Y-50500603D02*
X170535532Y-50702633D01*
X170535532Y-50702633D02*
X170636547Y-50736305D01*
X170636547Y-50736305D02*
X170703891Y-50736305D01*
X170703891Y-50736305D02*
X170804906Y-50702633D01*
X170804906Y-50702633D02*
X170939593Y-50567946D01*
X170939593Y-50567946D02*
X170973265Y-50466931D01*
X170602876Y-51039351D02*
X170064128Y-51578099D01*
X168784601Y-51308725D02*
X169121318Y-50972007D01*
X169121318Y-50972007D02*
X169491708Y-51275053D01*
X169491708Y-51275053D02*
X169424364Y-51275053D01*
X169424364Y-51275053D02*
X169323349Y-51308725D01*
X169323349Y-51308725D02*
X169154990Y-51477084D01*
X169154990Y-51477084D02*
X169121318Y-51578099D01*
X169121318Y-51578099D02*
X169121318Y-51645442D01*
X169121318Y-51645442D02*
X169154990Y-51746458D01*
X169154990Y-51746458D02*
X169323349Y-51914816D01*
X169323349Y-51914816D02*
X169424364Y-51948488D01*
X169424364Y-51948488D02*
X169491708Y-51948488D01*
X169491708Y-51948488D02*
X169592723Y-51914816D01*
X169592723Y-51914816D02*
X169761082Y-51746458D01*
X169761082Y-51746458D02*
X169794753Y-51645442D01*
X169794753Y-51645442D02*
X169794753Y-51578099D01*
X132178462Y-68921891D02*
X131942760Y-69157593D01*
X132212134Y-69628997D02*
X132548851Y-69292280D01*
X132548851Y-69292280D02*
X131841745Y-68585173D01*
X131841745Y-68585173D02*
X131505027Y-68921891D01*
X131269325Y-69157593D02*
X131505027Y-70336104D01*
X130797920Y-69628998D02*
X131976431Y-69864700D01*
X130629561Y-69797356D02*
X130225500Y-70201417D01*
X131134638Y-70706494D02*
X130427531Y-69999387D01*
X130932607Y-71043211D02*
X130393859Y-71581959D01*
X130158157Y-71682975D02*
X129451050Y-70975868D01*
X129451050Y-70975868D02*
X129720424Y-71716647D01*
X129720424Y-71716647D02*
X128979645Y-71447272D01*
X128979645Y-71447272D02*
X129686752Y-72154379D01*
X128945974Y-72895158D02*
X128844958Y-72322738D01*
X129350035Y-72491097D02*
X128642928Y-71783990D01*
X128642928Y-71783990D02*
X128373554Y-72053364D01*
X128373554Y-72053364D02*
X128339882Y-72154379D01*
X128339882Y-72154379D02*
X128339882Y-72221723D01*
X128339882Y-72221723D02*
X128373554Y-72322738D01*
X128373554Y-72322738D02*
X128474569Y-72423753D01*
X128474569Y-72423753D02*
X128575584Y-72457425D01*
X128575584Y-72457425D02*
X128642928Y-72457425D01*
X128642928Y-72457425D02*
X128743943Y-72423753D01*
X128743943Y-72423753D02*
X129013317Y-72154379D01*
X127801134Y-72625784D02*
X127733791Y-72693127D01*
X127733791Y-72693127D02*
X127700119Y-72794142D01*
X127700119Y-72794142D02*
X127700119Y-72861486D01*
X127700119Y-72861486D02*
X127733791Y-72962501D01*
X127733791Y-72962501D02*
X127834806Y-73130860D01*
X127834806Y-73130860D02*
X128003165Y-73299219D01*
X128003165Y-73299219D02*
X128171523Y-73400234D01*
X128171523Y-73400234D02*
X128272539Y-73433906D01*
X128272539Y-73433906D02*
X128339882Y-73433906D01*
X128339882Y-73433906D02*
X128440897Y-73400234D01*
X128440897Y-73400234D02*
X128508241Y-73332890D01*
X128508241Y-73332890D02*
X128541913Y-73231875D01*
X128541913Y-73231875D02*
X128541913Y-73164532D01*
X128541913Y-73164532D02*
X128508241Y-73063516D01*
X128508241Y-73063516D02*
X128407226Y-72895158D01*
X128407226Y-72895158D02*
X128238867Y-72726799D01*
X128238867Y-72726799D02*
X128070508Y-72625784D01*
X128070508Y-72625784D02*
X127969493Y-72592112D01*
X127969493Y-72592112D02*
X127902149Y-72592112D01*
X127902149Y-72592112D02*
X127801134Y-72625784D01*
X183837032Y-66698925D02*
X183601330Y-66934627D01*
X183870704Y-67406031D02*
X184207421Y-67069314D01*
X184207421Y-67069314D02*
X183500315Y-66362207D01*
X183500315Y-66362207D02*
X183163597Y-66698925D01*
X182927895Y-66934627D02*
X183163597Y-68113138D01*
X182456490Y-67406032D02*
X183635001Y-67641734D01*
X182288131Y-67574390D02*
X181884070Y-67978451D01*
X182793208Y-68483528D02*
X182086101Y-67776421D01*
X182591177Y-68820245D02*
X182052429Y-69358993D01*
X181816727Y-69460009D02*
X181109620Y-68752902D01*
X181109620Y-68752902D02*
X181378994Y-69493681D01*
X181378994Y-69493681D02*
X180638215Y-69224306D01*
X180638215Y-69224306D02*
X181345322Y-69931413D01*
X180604544Y-70672192D02*
X180503528Y-70099772D01*
X181008605Y-70268131D02*
X180301498Y-69561024D01*
X180301498Y-69561024D02*
X180032124Y-69830398D01*
X180032124Y-69830398D02*
X179998452Y-69931413D01*
X179998452Y-69931413D02*
X179998452Y-69998757D01*
X179998452Y-69998757D02*
X180032124Y-70099772D01*
X180032124Y-70099772D02*
X180133139Y-70200787D01*
X180133139Y-70200787D02*
X180234154Y-70234459D01*
X180234154Y-70234459D02*
X180301498Y-70234459D01*
X180301498Y-70234459D02*
X180402513Y-70200787D01*
X180402513Y-70200787D02*
X180671887Y-69931413D01*
X179695406Y-70301802D02*
X179628063Y-70301802D01*
X179628063Y-70301802D02*
X179527048Y-70335474D01*
X179527048Y-70335474D02*
X179358689Y-70503833D01*
X179358689Y-70503833D02*
X179325017Y-70604848D01*
X179325017Y-70604848D02*
X179325017Y-70672192D01*
X179325017Y-70672192D02*
X179358689Y-70773207D01*
X179358689Y-70773207D02*
X179426032Y-70840550D01*
X179426032Y-70840550D02*
X179560719Y-70907894D01*
X179560719Y-70907894D02*
X180368841Y-70907894D01*
X180368841Y-70907894D02*
X179931109Y-71345627D01*
X181662071Y-52032667D02*
X182369177Y-51325560D01*
X182369177Y-51325560D02*
X182200819Y-51157201D01*
X182200819Y-51157201D02*
X182066132Y-51089858D01*
X182066132Y-51089858D02*
X181931445Y-51089858D01*
X181931445Y-51089858D02*
X181830429Y-51123530D01*
X181830429Y-51123530D02*
X181662071Y-51224545D01*
X181662071Y-51224545D02*
X181561055Y-51325560D01*
X181561055Y-51325560D02*
X181460040Y-51493919D01*
X181460040Y-51493919D02*
X181426368Y-51594934D01*
X181426368Y-51594934D02*
X181426368Y-51729621D01*
X181426368Y-51729621D02*
X181493712Y-51864308D01*
X181493712Y-51864308D02*
X181662071Y-52032667D01*
X180921292Y-51291888D02*
X180786605Y-51157201D01*
X180786605Y-51157201D02*
X180752933Y-51056186D01*
X180752933Y-51056186D02*
X180752933Y-50988843D01*
X180752933Y-50988843D02*
X180786605Y-50820484D01*
X180786605Y-50820484D02*
X180887620Y-50652125D01*
X180887620Y-50652125D02*
X181156994Y-50382751D01*
X181156994Y-50382751D02*
X181258010Y-50349079D01*
X181258010Y-50349079D02*
X181325353Y-50349079D01*
X181325353Y-50349079D02*
X181426368Y-50382751D01*
X181426368Y-50382751D02*
X181561055Y-50517438D01*
X181561055Y-50517438D02*
X181594727Y-50618453D01*
X181594727Y-50618453D02*
X181594727Y-50685797D01*
X181594727Y-50685797D02*
X181561055Y-50786812D01*
X181561055Y-50786812D02*
X181392697Y-50955171D01*
X181392697Y-50955171D02*
X181291681Y-50988843D01*
X181291681Y-50988843D02*
X181224338Y-50988843D01*
X181224338Y-50988843D02*
X181123323Y-50955171D01*
X181123323Y-50955171D02*
X180988636Y-50820484D01*
X180988636Y-50820484D02*
X180954964Y-50719469D01*
X180954964Y-50719469D02*
X180954964Y-50652125D01*
X180954964Y-50652125D02*
X180988636Y-50551110D01*
X163631456Y-59963733D02*
X163395754Y-60199435D01*
X163665128Y-60670839D02*
X164001845Y-60334122D01*
X164001845Y-60334122D02*
X163294739Y-59627015D01*
X163294739Y-59627015D02*
X162958021Y-59963733D01*
X162722319Y-60199435D02*
X162958021Y-61377946D01*
X162250914Y-60670840D02*
X163429425Y-60906542D01*
X162082555Y-60839198D02*
X161678494Y-61243259D01*
X162587632Y-61748336D02*
X161880525Y-61041229D01*
X162385601Y-62085053D02*
X161846853Y-62623801D01*
X161611151Y-62724817D02*
X160904044Y-62017710D01*
X160904044Y-62017710D02*
X161173418Y-62758489D01*
X161173418Y-62758489D02*
X160432639Y-62489114D01*
X160432639Y-62489114D02*
X161139746Y-63196221D01*
X160331624Y-63869656D02*
X160398968Y-63869656D01*
X160398968Y-63869656D02*
X160533655Y-63802313D01*
X160533655Y-63802313D02*
X160600998Y-63734969D01*
X160600998Y-63734969D02*
X160668342Y-63600282D01*
X160668342Y-63600282D02*
X160668342Y-63465595D01*
X160668342Y-63465595D02*
X160634670Y-63364580D01*
X160634670Y-63364580D02*
X160533655Y-63196221D01*
X160533655Y-63196221D02*
X160432639Y-63095206D01*
X160432639Y-63095206D02*
X160264281Y-62994191D01*
X160264281Y-62994191D02*
X160163265Y-62960519D01*
X160163265Y-62960519D02*
X160028578Y-62960519D01*
X160028578Y-62960519D02*
X159893891Y-63027862D01*
X159893891Y-63027862D02*
X159826548Y-63095206D01*
X159826548Y-63095206D02*
X159759204Y-63229893D01*
X159759204Y-63229893D02*
X159759204Y-63297236D01*
X159456159Y-63465595D02*
X159018426Y-63903328D01*
X159018426Y-63903328D02*
X159523502Y-63937000D01*
X159523502Y-63937000D02*
X159422487Y-64038015D01*
X159422487Y-64038015D02*
X159388815Y-64139030D01*
X159388815Y-64139030D02*
X159388815Y-64206374D01*
X159388815Y-64206374D02*
X159422487Y-64307389D01*
X159422487Y-64307389D02*
X159590846Y-64475748D01*
X159590846Y-64475748D02*
X159691861Y-64509419D01*
X159691861Y-64509419D02*
X159759204Y-64509419D01*
X159759204Y-64509419D02*
X159860220Y-64475748D01*
X159860220Y-64475748D02*
X160062250Y-64273717D01*
X160062250Y-64273717D02*
X160095922Y-64172702D01*
X160095922Y-64172702D02*
X160095922Y-64105358D01*
X172589614Y-28510739D02*
X172353912Y-28746441D01*
X172623286Y-29217845D02*
X172960003Y-28881128D01*
X172960003Y-28881128D02*
X172252897Y-28174021D01*
X172252897Y-28174021D02*
X171916179Y-28510739D01*
X171680477Y-28746441D02*
X171916179Y-29924952D01*
X171209072Y-29217846D02*
X172387583Y-29453548D01*
X171040713Y-29386204D02*
X170636652Y-29790265D01*
X171545790Y-30295342D02*
X170838683Y-29588235D01*
X171343759Y-30632059D02*
X170805011Y-31170807D01*
X170569309Y-31271823D02*
X169862202Y-30564716D01*
X169862202Y-30564716D02*
X170131576Y-31305495D01*
X170131576Y-31305495D02*
X169390797Y-31036120D01*
X169390797Y-31036120D02*
X170097904Y-31743227D01*
X169357126Y-32484006D02*
X169256110Y-31911586D01*
X169761187Y-32079945D02*
X169054080Y-31372838D01*
X169054080Y-31372838D02*
X168784706Y-31642212D01*
X168784706Y-31642212D02*
X168751034Y-31743227D01*
X168751034Y-31743227D02*
X168751034Y-31810571D01*
X168751034Y-31810571D02*
X168784706Y-31911586D01*
X168784706Y-31911586D02*
X168885721Y-32012601D01*
X168885721Y-32012601D02*
X168986736Y-32046273D01*
X168986736Y-32046273D02*
X169054080Y-32046273D01*
X169054080Y-32046273D02*
X169155095Y-32012601D01*
X169155095Y-32012601D02*
X169424469Y-31743227D01*
X168279630Y-32618693D02*
X168751034Y-33090097D01*
X168178614Y-32180960D02*
X168852049Y-32517677D01*
X168852049Y-32517677D02*
X168414317Y-32955410D01*
D11*
X188870919Y-75940096D02*
X190638685Y-74172329D01*
X190638685Y-77707863D02*
X188870919Y-75940096D01*
X189931579Y-73465223D02*
X193254981Y-76788625D01*
X192406452Y-75940096D02*
X190638685Y-77707863D01*
D10*
X193254981Y-76788625D02*
X196436961Y-73606644D01*
X193113559Y-70283242D02*
X189931579Y-73465223D01*
X193608534Y-70778217D02*
X193113559Y-70283242D01*
X197144068Y-73606644D02*
X197851175Y-74313751D01*
X198558281Y-74313751D02*
X197851175Y-74313751D01*
X197497621Y-69010450D02*
X195729854Y-70778217D01*
X200679602Y-72192430D02*
X198558281Y-74313751D01*
X198204728Y-69010450D02*
X197497621Y-69010450D01*
D11*
X198240083Y-69045805D02*
X200679602Y-71485324D01*
X198593637Y-69399359D02*
X200361404Y-67631592D01*
D10*
X200679602Y-71485324D02*
X200679602Y-72192430D01*
D11*
X200361404Y-67631592D02*
X202129171Y-69399359D01*
X202129171Y-69399359D02*
X200361404Y-71167126D01*
D10*
X196436961Y-73606644D02*
G75*
G02*
X197144068Y-73606644I353553J-353555D01*
G01*
X195729854Y-70778217D02*
G75*
G02*
X193608534Y-70778217I-1060660J1060662D01*
G01*
D11*
X182135727Y-28793751D02*
X183903493Y-27025984D01*
X183903493Y-30561518D02*
X182135727Y-28793751D01*
X183196387Y-26318878D02*
X186519789Y-29642280D01*
X185671260Y-28793751D02*
X183903493Y-30561518D01*
D10*
X186519789Y-29642280D02*
X189701769Y-26460299D01*
X186378367Y-23136897D02*
X183196387Y-26318878D01*
X186873342Y-23631872D02*
X186378367Y-23136897D01*
X190408876Y-26460299D02*
X191115983Y-27167406D01*
X191823089Y-27167406D02*
X191115983Y-27167406D01*
X190762429Y-21864105D02*
X188994662Y-23631872D01*
X193944410Y-25046085D02*
X191823089Y-27167406D01*
X191469536Y-21864105D02*
X190762429Y-21864105D01*
D11*
X191504891Y-21899460D02*
X193944410Y-24338979D01*
X191858445Y-22253014D02*
X193626212Y-20485247D01*
D10*
X193944410Y-24338979D02*
X193944410Y-25046085D01*
D11*
X193626212Y-20485247D02*
X195393979Y-22253014D01*
X195393979Y-22253014D02*
X193626212Y-24020781D01*
D10*
X189701769Y-26460299D02*
G75*
G02*
X190408876Y-26460299I353553J-353555D01*
G01*
X188994662Y-23631872D02*
G75*
G02*
X186873342Y-23631872I-1060660J1060662D01*
G01*
D11*
X142378677Y-95526982D02*
X143510047Y-94395611D01*
X144146444Y-97294749D02*
X142378677Y-95526982D01*
X142802941Y-93688505D02*
X146126343Y-97011907D01*
X145277814Y-96163378D02*
X144146444Y-97294749D01*
D10*
X146126343Y-97011907D02*
X149308323Y-93829926D01*
X145984921Y-90506524D02*
X142802941Y-93688505D01*
X146479896Y-91001499D02*
X145984921Y-90506524D01*
X150015430Y-93829926D02*
X150722537Y-94537033D01*
X151429643Y-94537033D02*
X150722537Y-94537033D01*
X150368983Y-89233732D02*
X148601216Y-91001499D01*
X153550964Y-92415712D02*
X151429643Y-94537033D01*
X151076090Y-89233732D02*
X150368983Y-89233732D01*
D11*
X151111445Y-89269087D02*
X153550964Y-91708606D01*
X151464999Y-89622641D02*
X153232766Y-87854874D01*
D10*
X153550964Y-91708606D02*
X153550964Y-92415712D01*
D11*
X153232766Y-87854874D02*
X155000533Y-89622641D01*
X155000533Y-89622641D02*
X153232766Y-91390408D01*
D10*
X149308323Y-93829926D02*
G75*
G02*
X150015430Y-93829926I353553J-353555D01*
G01*
X148601216Y-91001499D02*
G75*
G02*
X146479896Y-91001499I-1060660J1060662D01*
G01*
D11*
X182135727Y-55734520D02*
X183903493Y-53966753D01*
X183903493Y-57502287D02*
X182135727Y-55734520D01*
X183196387Y-53259647D02*
X186519789Y-56583049D01*
X185671260Y-55734520D02*
X183903493Y-57502287D01*
D10*
X186519789Y-56583049D02*
X189701769Y-53401068D01*
X186378367Y-50077666D02*
X183196387Y-53259647D01*
X186873342Y-50572641D02*
X186378367Y-50077666D01*
X190408876Y-53401068D02*
X191115983Y-54108175D01*
X191823089Y-54108175D02*
X191115983Y-54108175D01*
X190762429Y-48804874D02*
X188994662Y-50572641D01*
X193944410Y-51986854D02*
X191823089Y-54108175D01*
X191469536Y-48804874D02*
X190762429Y-48804874D01*
D11*
X191504891Y-48840229D02*
X193944410Y-51279748D01*
X191858445Y-49193783D02*
X193626212Y-47426016D01*
D10*
X193944410Y-51279748D02*
X193944410Y-51986854D01*
D11*
X193626212Y-47426016D02*
X195393979Y-49193783D01*
X195393979Y-49193783D02*
X193626212Y-50961550D01*
D10*
X189701769Y-53401068D02*
G75*
G02*
X190408876Y-53401068I353553J-353555D01*
G01*
X188994662Y-50572641D02*
G75*
G02*
X186873342Y-50572641I-1060660J1060662D01*
G01*
D11*
X115420202Y-95509276D02*
X116551572Y-94377905D01*
X117187969Y-97277043D02*
X115420202Y-95509276D01*
X115844466Y-93670799D02*
X119167868Y-96994201D01*
X118319339Y-96145672D02*
X117187969Y-97277043D01*
D10*
X119167868Y-96994201D02*
X122349848Y-93812220D01*
X119026446Y-90488818D02*
X115844466Y-93670799D01*
X119521421Y-90983793D02*
X119026446Y-90488818D01*
X123056955Y-93812220D02*
X123764062Y-94519327D01*
X124471168Y-94519327D02*
X123764062Y-94519327D01*
X123410508Y-89216026D02*
X121642741Y-90983793D01*
X126592489Y-92398006D02*
X124471168Y-94519327D01*
X124117615Y-89216026D02*
X123410508Y-89216026D01*
D11*
X124152970Y-89251381D02*
X126592489Y-91690900D01*
X124506524Y-89604935D02*
X126274291Y-87837168D01*
D10*
X126592489Y-91690900D02*
X126592489Y-92398006D01*
D11*
X126274291Y-87837168D02*
X128042058Y-89604935D01*
X128042058Y-89604935D02*
X126274291Y-91372702D01*
D10*
X122349848Y-93812220D02*
G75*
G02*
X123056955Y-93812220I353553J-353555D01*
G01*
X121642741Y-90983793D02*
G75*
G02*
X119521421Y-90983793I-1060660J1060662D01*
G01*
D11*
X162566547Y-102244468D02*
X163697917Y-101113097D01*
X164334314Y-104012235D02*
X162566547Y-102244468D01*
X162990811Y-100405991D02*
X166314213Y-103729393D01*
X165465684Y-102880864D02*
X164334314Y-104012235D01*
D10*
X166314213Y-103729393D02*
X169496193Y-100547412D01*
X166172791Y-97224010D02*
X162990811Y-100405991D01*
X166667766Y-97718985D02*
X166172791Y-97224010D01*
X170203300Y-100547412D02*
X170910407Y-101254519D01*
X171617513Y-101254519D02*
X170910407Y-101254519D01*
X170556853Y-95951218D02*
X168789086Y-97718985D01*
X173738834Y-99133198D02*
X171617513Y-101254519D01*
X171263960Y-95951218D02*
X170556853Y-95951218D01*
D11*
X171299315Y-95986573D02*
X173738834Y-98426092D01*
X171652869Y-96340127D02*
X173420636Y-94572360D01*
D10*
X173738834Y-98426092D02*
X173738834Y-99133198D01*
D11*
X173420636Y-94572360D02*
X175188403Y-96340127D01*
X175188403Y-96340127D02*
X173420636Y-98107894D01*
D10*
X169496193Y-100547412D02*
G75*
G02*
X170203300Y-100547412I353553J-353555D01*
G01*
X168789086Y-97718985D02*
G75*
G02*
X166667766Y-97718985I-1060660J1060662D01*
G01*
D11*
X175400535Y-89410480D02*
X177168301Y-87642713D01*
X177168301Y-91178247D02*
X175400535Y-89410480D01*
X176461195Y-86935607D02*
X179784597Y-90259009D01*
X178936068Y-89410480D02*
X177168301Y-91178247D01*
D10*
X179784597Y-90259009D02*
X182966577Y-87077028D01*
X179643175Y-83753626D02*
X176461195Y-86935607D01*
X180138150Y-84248601D02*
X179643175Y-83753626D01*
X183673684Y-87077028D02*
X184380791Y-87784135D01*
X185087897Y-87784135D02*
X184380791Y-87784135D01*
X184027237Y-82480834D02*
X182259470Y-84248601D01*
X187209218Y-85662814D02*
X185087897Y-87784135D01*
X184734344Y-82480834D02*
X184027237Y-82480834D01*
D11*
X184769699Y-82516189D02*
X187209218Y-84955708D01*
X185123253Y-82869743D02*
X186891020Y-81101976D01*
D10*
X187209218Y-84955708D02*
X187209218Y-85662814D01*
D11*
X186891020Y-81101976D02*
X188658787Y-82869743D01*
X188658787Y-82869743D02*
X186891020Y-84637510D01*
D10*
X182966577Y-87077028D02*
G75*
G02*
X183673684Y-87077028I353553J-353555D01*
G01*
X182259470Y-84248601D02*
G75*
G02*
X180138150Y-84248601I-1060660J1060662D01*
G01*
D12*
X181249633Y-22480614D02*
X182522426Y-21207821D01*
X183229532Y-24460513D02*
X181249633Y-22480614D01*
X182239583Y-22975588D02*
X182628492Y-22586680D01*
X182769913Y-23293786D02*
X182628492Y-22586680D01*
X182628492Y-22586680D02*
X182345649Y-22303837D01*
X182628492Y-22586680D02*
X183335598Y-22728101D01*
X183406309Y-23364497D02*
X183052756Y-23010944D01*
X183335598Y-22728101D02*
X182769913Y-23293786D01*
X183017400Y-22197771D02*
X182628492Y-22586680D01*
X182522426Y-21207821D02*
X184502325Y-23187720D01*
X184502325Y-23187720D02*
X183229532Y-24460513D01*
X187984825Y-69626959D02*
X189257618Y-68354166D01*
X189964724Y-71606858D02*
X187984825Y-69626959D01*
X188974775Y-70121933D02*
X189363684Y-69733025D01*
X189505105Y-70440131D02*
X189363684Y-69733025D01*
X189363684Y-69733025D02*
X189080841Y-69450182D01*
X189363684Y-69733025D02*
X190070790Y-69874446D01*
X190141501Y-70510842D02*
X189787948Y-70157289D01*
X190070790Y-69874446D02*
X189505105Y-70440131D01*
X189752592Y-69344116D02*
X189363684Y-69733025D01*
X189257618Y-68354166D02*
X191237517Y-70334065D01*
X191237517Y-70334065D02*
X189964724Y-71606858D01*
X174514441Y-83097343D02*
X175787234Y-81824550D01*
X176494340Y-85077242D02*
X174514441Y-83097343D01*
X175504391Y-83592317D02*
X175893300Y-83203409D01*
X176034721Y-83910515D02*
X175893300Y-83203409D01*
X175893300Y-83203409D02*
X175610457Y-82920566D01*
X175893300Y-83203409D02*
X176600406Y-83344830D01*
X176671117Y-83981226D02*
X176317564Y-83627673D01*
X176600406Y-83344830D02*
X176034721Y-83910515D01*
X176282208Y-82814500D02*
X175893300Y-83203409D01*
X175787234Y-81824550D02*
X177767133Y-83804449D01*
X177767133Y-83804449D02*
X176494340Y-85077242D01*
X113897712Y-89832535D02*
X115170505Y-88559742D01*
X115877611Y-91812434D02*
X113897712Y-89832535D01*
X114887662Y-90327509D02*
X115276571Y-89938601D01*
X115417992Y-90645707D02*
X115276571Y-89938601D01*
X115276571Y-89938601D02*
X114993728Y-89655758D01*
X115276571Y-89938601D02*
X115983677Y-90080022D01*
X116054388Y-90716418D02*
X115700835Y-90362865D01*
X115983677Y-90080022D02*
X115417992Y-90645707D01*
X115665479Y-89549692D02*
X115276571Y-89938601D01*
X115170505Y-88559742D02*
X117150404Y-90539641D01*
X117150404Y-90539641D02*
X115877611Y-91812434D01*
X140838481Y-89832535D02*
X142111274Y-88559742D01*
X142818380Y-91812434D02*
X140838481Y-89832535D01*
X141828431Y-90327509D02*
X142217340Y-89938601D01*
X142358761Y-90645707D02*
X142217340Y-89938601D01*
X142217340Y-89938601D02*
X141934497Y-89655758D01*
X142217340Y-89938601D02*
X142924446Y-90080022D01*
X142995157Y-90716418D02*
X142641604Y-90362865D01*
X142924446Y-90080022D02*
X142358761Y-90645707D01*
X142606248Y-89549692D02*
X142217340Y-89938601D01*
X142111274Y-88559742D02*
X144091173Y-90539641D01*
X144091173Y-90539641D02*
X142818380Y-91812434D01*
X161044057Y-96567727D02*
X162316850Y-95294934D01*
X163023956Y-98547626D02*
X161044057Y-96567727D01*
X162034007Y-97062701D02*
X162422916Y-96673793D01*
X162564337Y-97380899D02*
X162422916Y-96673793D01*
X162422916Y-96673793D02*
X162140073Y-96390950D01*
X162422916Y-96673793D02*
X163130022Y-96815214D01*
X163200733Y-97451610D02*
X162847180Y-97098057D01*
X163130022Y-96815214D02*
X162564337Y-97380899D01*
X162811824Y-96284884D02*
X162422916Y-96673793D01*
X162316850Y-95294934D02*
X164296749Y-97274833D01*
X164296749Y-97274833D02*
X163023956Y-98547626D01*
X181249633Y-49421383D02*
X182522426Y-48148590D01*
X183229532Y-51401282D02*
X181249633Y-49421383D01*
X182239583Y-49916357D02*
X182628492Y-49527449D01*
X182769913Y-50234555D02*
X182628492Y-49527449D01*
X182628492Y-49527449D02*
X182345649Y-49244606D01*
X182628492Y-49527449D02*
X183335598Y-49668870D01*
X183406309Y-50305266D02*
X183052756Y-49951713D01*
X183335598Y-49668870D02*
X182769913Y-50234555D01*
X183017400Y-49138540D02*
X182628492Y-49527449D01*
X182522426Y-48148590D02*
X184502325Y-50128489D01*
X184502325Y-50128489D02*
X183229532Y-51401282D01*
M02*
