M48
; DRILL file {KiCad 8.0.5} date 2024-09-18T07:32:04+0900
; FORMAT={-:-/ absolute / metric / decimal}
; #@! TF.CreationDate,2024-09-18T07:32:04+09:00
; #@! TF.GenerationSoftware,Kicad,Pcbnew,8.0.5
; #@! TF.FileFunction,Plated,1,2,PTH
FMAT,2
METRIC
; #@! TA.AperFunction,Plated,PTH,ViaDrill
T1C0.400
; #@! TA.AperFunction,Plated,PTH,ComponentDrill
T2C0.400
; #@! TA.AperFunction,Plated,PTH,ComponentDrill
T3C1.000
; #@! TA.AperFunction,Plated,PTH,ComponentDrill
T4C2.200
%
G90
G05
T1
X107.105Y-85.135
X115.103Y-93.975
X119.313Y-98.184
X125.627Y-66.613
X132.362Y-86.818
X142.044Y-93.975
X145.832Y-46.407
X146.253Y-67.034
X146.674Y-97.763
X146.674Y-74.19
X153.215Y-87.218
X154.251Y-93.554
X160.566Y-81.346
X160.867Y-83.332
X162.67Y-63.245
X166.038Y-26.202
X166.038Y-46.407
X166.88Y-104.498
X168.564Y-90.186
X169.827Y-70.401
X171.83Y-94.714
X173.615Y-47.249
X174.375Y-69.824
X177.404Y-77.979
X179.087Y-93.133
X182.455Y-76.295
X183.297Y-58.615
X184.098Y-80.607
X184.56Y-7.68
X185.76Y-81.382
X186.244Y-32.937
X192.558Y-79.662
X192.979Y-54.826
X197.188Y-20.308
X197.188Y-47.249
X203.923Y-67.455
T2
X115.632Y-95.156
X117.612Y-97.136
X142.591Y-95.173
X144.571Y-97.153
X162.779Y-101.891
X164.759Y-103.871
T3
X131.52Y-72.506
X155.093Y-65.771
X160.145Y-60.72
X165.196Y-55.668
X166.88Y-80.925
X171.931Y-32.095
X176.983Y-53.984
X180.35Y-67.455
T4
X122.259Y-76.716
X135.73Y-63.245
X135.73Y-85.135
X149.2Y-71.664
X153.41Y-53.984
X158.461Y-89.344
X162.67Y-36.305
X166.88Y-67.455
X171.089Y-49.775
X173.615Y-87.66
X176.141Y-22.834
X184.56Y-36.305
X187.085Y-74.19
X187.927Y-59.878
M30
