G04 #@! TF.GenerationSoftware,KiCad,Pcbnew,8.0.5*
G04 #@! TF.CreationDate,2024-09-18T07:32:08+09:00*
G04 #@! TF.ProjectId,SandyLP_Middle,53616e64-794c-4505-9f4d-6964646c652e,v.0*
G04 #@! TF.SameCoordinates,Original*
G04 #@! TF.FileFunction,Profile,NP*
%FSLAX46Y46*%
G04 Gerber Fmt 4.6, Leading zero omitted, Abs format (unit mm)*
G04 Created by KiCad (PCBNEW 8.0.5) date 2024-09-18 07:32:08*
%MOMM*%
%LPD*%
G01*
G04 APERTURE LIST*
G04 #@! TA.AperFunction,Profile*
%ADD10C,0.300000*%
G04 #@! TD*
G04 APERTURE END LIST*
D10*
X118365274Y-98892754D02*
X106640559Y-87168040D01*
X121193701Y-98892754D02*
X131842729Y-88243726D01*
X145277758Y-98850328D02*
X134671156Y-88243726D01*
X148106185Y-98850328D02*
X152012950Y-94943563D01*
X165501012Y-105603198D02*
X154841377Y-94943563D01*
X168329439Y-105603198D02*
X205042979Y-68883698D01*
X205042979Y-66055271D02*
X194343341Y-55355634D01*
X194343341Y-52527207D02*
X198225358Y-48631049D01*
X198225358Y-45802621D02*
X187613352Y-35190616D01*
X187613352Y-32362189D02*
X198269451Y-21691947D01*
X183778838Y-7201334D02*
X106640559Y-84339613D01*
X198269451Y-18863520D02*
X186607265Y-7201334D01*
X106640559Y-87168040D02*
G75*
G02*
X106640558Y-84339612I1414212J1414214D01*
G01*
X121193701Y-98892754D02*
G75*
G02*
X118365273Y-98892755I-1414214J1414212D01*
G01*
X131842729Y-88243726D02*
G75*
G02*
X134671155Y-88243726I1414213J-1414212D01*
G01*
X148106185Y-98850328D02*
G75*
G02*
X145277757Y-98850329I-1414214J1414212D01*
G01*
X152012950Y-94943563D02*
G75*
G02*
X154841376Y-94943563I1414213J-1414212D01*
G01*
X168329439Y-105603198D02*
G75*
G02*
X165501011Y-105603199I-1414214J1414212D01*
G01*
X194343341Y-55355634D02*
G75*
G02*
X194343359Y-52527226I1414091J1414195D01*
G01*
X205042979Y-66055271D02*
G75*
G02*
X205042983Y-68883701I-1414225J-1414217D01*
G01*
X187613352Y-35190616D02*
G75*
G02*
X187613350Y-32362187I1414212J1414215D01*
G01*
X198225358Y-45802621D02*
G75*
G02*
X198225376Y-48631067I-1414337J-1414232D01*
G01*
X183778838Y-7201334D02*
G75*
G02*
X186607257Y-7201341I1414206J-1414207D01*
G01*
X198269451Y-18863520D02*
G75*
G02*
X198269451Y-21691946I-1414186J-1414213D01*
G01*
M02*
